<svg xmlns="http://www.w3.org/2000/svg" width="396" height="227.095" viewBox="0 0 396 227.095">
  <g id="Grupo_70715" data-name="Grupo 70715" transform="translate(-596 -5687.384)">
    <rect id="Rectángulo_4303" data-name="Rectángulo 4303" width="396" height="87.429" rx="9.462" transform="translate(596 5776.147)" fill="#bf3976"/>
    <g id="Grupo_11222" data-name="Grupo 11222" transform="translate(738.394 5687.384)">
      <path id="Trazado_8197" data-name="Trazado 8197" d="M762.553,5596.972l.922-.137a54.39,54.39,0,0,0-93.083-56.291Zm0,0" transform="translate(-662.454 -5509.579)" fill="#85d249"/>
      <path id="Trazado_8198" data-name="Trazado 8198" d="M681.366,5547.16v-2.848a3.878,3.878,0,0,0-3.866-3.866h-7.047a54.354,54.354,0,0,0-3.5,6.714Zm0,0" transform="translate(-662.454 -5509.579)" fill="#def2fe"/>
      <path id="Trazado_8199" data-name="Trazado 8199" d="M676.732,5540.446h-6.279a54.354,54.354,0,0,0-3.5,6.714h5.913v-2.848a3.878,3.878,0,0,1,3.866-3.866Zm0,0" transform="translate(-662.454 -5509.579)" fill="#c5e2f2"/>
      <path id="Trazado_8200" data-name="Trazado 8200" d="M684,5547.116a6.225,6.225,0,0,0-1.71-.241H667.077a54.426,54.426,0,0,0,12.339,61.431v-55.132a6.319,6.319,0,0,1,4.587-6.058Zm0,0" transform="translate(-662.454 -5509.579)" fill="#03b2ef"/>
      <path id="Trazado_8201" data-name="Trazado 8201" d="M668.506,5552.952a6.323,6.323,0,0,1,4.649-6.076h-6.078a54.481,54.481,0,0,0,1.429,46.919Zm0,0" transform="translate(-662.454 -5509.579)" fill="#1e92d3"/>
      <path id="Trazado_8202" data-name="Trazado 8202" d="M680.074,5595.626a1.826,1.826,0,0,0-1.826-1.825h-9.742q.969,1.869,2.073,3.651h7.669a1.827,1.827,0,0,0,1.826-1.826Zm0,0" transform="translate(-662.454 -5509.579)" fill="#01c8f0"/>
      <path id="Trazado_8203" data-name="Trazado 8203" d="M678.062,5556.091a1.826,1.826,0,0,0,0-3.652H664.976q-.57,1.8-1.017,3.652Zm0,0" transform="translate(-662.454 -5509.579)" fill="#01c8f0"/>
      <path id="Trazado_8204" data-name="Trazado 8204" d="M678.248,5586.908H665.529q.652,1.857,1.435,3.65h11.284a1.825,1.825,0,0,0,0-3.65Zm0,0" transform="translate(-662.454 -5509.579)" fill="#01c8f0"/>
      <path id="Trazado_8205" data-name="Trazado 8205" d="M680.074,5602.52a1.826,1.826,0,0,0-1.826-1.825h-5.495q1.367,1.887,2.883,3.65h2.612a1.826,1.826,0,0,0,1.826-1.825Zm0,0" transform="translate(-662.454 -5509.579)" fill="#01c8f0"/>
      <path id="Trazado_8206" data-name="Trazado 8206" d="M678.248,5566.227H662.516q-.062,1.3-.062,2.621c0,.344.007.686.013,1.029h15.781a1.825,1.825,0,0,0,0-3.65Zm0,0" transform="translate(-662.454 -5509.579)" fill="#01c8f0"/>
      <path id="Trazado_8207" data-name="Trazado 8207" d="M678.248,5559.334H663.284q-.32,1.8-.517,3.65h15.481a1.825,1.825,0,0,0,0-3.65Zm0,0" transform="translate(-662.454 -5509.579)" fill="#01c8f0"/>
      <path id="Trazado_8208" data-name="Trazado 8208" d="M678.248,5573.121H662.621q.144,1.844.41,3.65h15.217a1.825,1.825,0,0,0,0-3.65Zm0,0" transform="translate(-662.454 -5509.579)" fill="#01c8f0"/>
      <path id="Trazado_8209" data-name="Trazado 8209" d="M678.248,5580.014H663.6q.386,1.848.894,3.65h13.75a1.825,1.825,0,0,0,0-3.65Zm0,0" transform="translate(-662.454 -5509.579)" fill="#01c8f0"/>
      <path id="Trazado_8210" data-name="Trazado 8210" d="M667.227,5554.265a1.825,1.825,0,0,1,1.824-1.826h-4.075q-.57,1.8-1.017,3.652h5.092a1.825,1.825,0,0,1-1.824-1.826Zm0,0" transform="translate(-662.454 -5509.579)" fill="#03b2ef"/>
      <path id="Trazado_8211" data-name="Trazado 8211" d="M667.04,5588.733a1.824,1.824,0,0,1,1.825-1.825h-3.336q.652,1.857,1.435,3.65h1.9a1.825,1.825,0,0,1-1.825-1.825Zm0,0" transform="translate(-662.454 -5509.579)" fill="#03b2ef"/>
      <path id="Trazado_8212" data-name="Trazado 8212" d="M667.04,5568.052a1.825,1.825,0,0,1,1.825-1.825h-6.349q-.062,1.3-.062,2.621c0,.344.007.686.013,1.029h6.4a1.825,1.825,0,0,1-1.825-1.825Zm0,0" transform="translate(-662.454 -5509.579)" fill="#03b2ef"/>
      <path id="Trazado_8213" data-name="Trazado 8213" d="M667.04,5561.159a1.825,1.825,0,0,1,1.825-1.825h-5.581q-.32,1.8-.517,3.65h6.1a1.825,1.825,0,0,1-1.825-1.825Zm0,0" transform="translate(-662.454 -5509.579)" fill="#03b2ef"/>
      <path id="Trazado_8214" data-name="Trazado 8214" d="M667.04,5574.945a1.824,1.824,0,0,1,1.825-1.824h-6.244q.144,1.844.41,3.65h5.834a1.826,1.826,0,0,1-1.825-1.826Zm0,0" transform="translate(-662.454 -5509.579)" fill="#03b2ef"/>
      <path id="Trazado_8215" data-name="Trazado 8215" d="M667.04,5581.839a1.825,1.825,0,0,1,1.825-1.825H663.6q.386,1.848.894,3.65h4.367a1.825,1.825,0,0,1-1.825-1.825Zm0,0" transform="translate(-662.454 -5509.579)" fill="#03b2ef"/>
      <path id="Trazado_8216" data-name="Trazado 8216" d="M769.112,5567.173a1.826,1.826,0,0,1-.447-2.542,6.534,6.534,0,0,0,1.212-5.265c-.881-4.347-5.946-8.348-7.824-9.523-.038-.024-.075-.05-.111-.075l-4.729-3.468a1.825,1.825,0,0,1,2.158-2.944l4.68,3.431c.8.515,8.081,5.332,9.4,11.853a10.136,10.136,0,0,1-1.8,8.086,1.825,1.825,0,0,1-2.542.447Zm0,0" transform="translate(-662.454 -5509.579)" fill="#ffd764"/>
      <path id="Trazado_8217" data-name="Trazado 8217" d="M700.848,5540.815h4.409a3.5,3.5,0,0,1,3.5,3.5v2.932h1.3a5.937,5.937,0,0,1,5.93,5.93v57.33a5.912,5.912,0,0,1-.078.948h34.735a54.66,54.66,0,0,0,12.384-13.878v-76.215H700.848Zm0,0" transform="translate(-662.454 -5509.579)" fill="#ffb442"/>
      <path id="Trazado_8218" data-name="Trazado 8218" d="M722.636,5603.57v-74.052a8.1,8.1,0,0,1,6.518-7.921v-.238H700.848v19.456h4.409a3.5,3.5,0,0,1,3.5,3.5v2.932h1.3a5.937,5.937,0,0,1,5.93,5.93v57.33a5.945,5.945,0,0,1-.078.95h13.073a8.108,8.108,0,0,1-6.339-7.884Zm0,0" transform="translate(-662.454 -5509.579)" fill="#ffa222"/>
      <path id="Trazado_8219" data-name="Trazado 8219" d="M767.234,5509.579h-70.6a2.926,2.926,0,0,0-2.926,2.926v6.419a2.926,2.926,0,0,0,2.926,2.925h70.6a2.926,2.926,0,0,0,2.926-2.925V5512.5a2.926,2.926,0,0,0-2.926-2.926Zm0,0" transform="translate(-662.454 -5509.579)" fill="#543e5b"/>
      <path id="Trazado_8220" data-name="Trazado 8220" d="M723.136,5515.715a6.27,6.27,0,0,1,4.98-6.136H696.635a2.926,2.926,0,0,0-2.926,2.926v6.419a2.926,2.926,0,0,0,2.926,2.925h31.481a6.269,6.269,0,0,1-4.98-6.134Zm0,0" transform="translate(-662.454 -5509.579)" fill="#422953"/>
      <path id="Trazado_8221" data-name="Trazado 8221" d="M751.244,5610.962H715.96a5.936,5.936,0,0,1-5.91,5.472h-1.3v2.932a3.5,3.5,0,0,1-1.689,2.989,54.689,54.689,0,0,0,9.771.877h.005a54.148,54.148,0,0,0,34.4-12.27Zm0,0" transform="translate(-662.454 -5509.579)" fill="#543e5b"/>
      <path id="Trazado_8222" data-name="Trazado 8222" d="M723.136,5616.8a6.269,6.269,0,0,1,3.993-5.841H715.96a5.936,5.936,0,0,1-5.91,5.472h-1.3v2.932a3.5,3.5,0,0,1-1.689,2.989,54.689,54.689,0,0,0,9.771.877h.005a54.714,54.714,0,0,0,9.685-.862,6.265,6.265,0,0,1-3.39-5.567Zm0,0" transform="translate(-662.454 -5509.579)" fill="#422953"/>
      <path id="Trazado_8223" data-name="Trazado 8223" d="M762.8,5528.811h-61.31a1.824,1.824,0,1,1,0-3.649H762.8a1.824,1.824,0,1,1,0,3.649Zm0,0" transform="translate(-662.454 -5509.579)" fill="#ffd764"/>
      <path id="Trazado_8224" data-name="Trazado 8224" d="M762.8,5535.962h-61.31a1.825,1.825,0,1,1,0-3.65H762.8a1.825,1.825,0,1,1,0,3.65Zm0,0" transform="translate(-662.454 -5509.579)" fill="#ffd764"/>
      <path id="Trazado_8225" data-name="Trazado 8225" d="M762.8,5543.113h-61.04a1.825,1.825,0,1,1,0-3.65H762.8a1.825,1.825,0,1,1,0,3.65Zm0,0" transform="translate(-662.454 -5509.579)" fill="#ffd764"/>
      <path id="Trazado_8226" data-name="Trazado 8226" d="M762.8,5550.264H709.122a1.825,1.825,0,0,1,0-3.65H762.8a1.825,1.825,0,1,1,0,3.65Zm0,0" transform="translate(-662.454 -5509.579)" fill="#ffd764"/>
      <path id="Trazado_8227" data-name="Trazado 8227" d="M762.8,5557.414H716.634a1.824,1.824,0,0,1,0-3.649H762.8a1.824,1.824,0,1,1,0,3.649Zm0,0" transform="translate(-662.454 -5509.579)" fill="#ffd764"/>
      <path id="Trazado_8228" data-name="Trazado 8228" d="M762.8,5564.565H716.634a1.825,1.825,0,0,1,0-3.65H762.8a1.825,1.825,0,1,1,0,3.65Zm0,0" transform="translate(-662.454 -5509.579)" fill="#ffd764"/>
      <path id="Trazado_8229" data-name="Trazado 8229" d="M762.8,5586.017H716.634a1.825,1.825,0,0,1,0-3.65H762.8a1.825,1.825,0,1,1,0,3.65Zm0,0" transform="translate(-662.454 -5509.579)" fill="#ffd764"/>
      <path id="Trazado_8230" data-name="Trazado 8230" d="M762.8,5593.168H716.634a1.825,1.825,0,0,1,0-3.65H762.8a1.825,1.825,0,1,1,0,3.65Zm0,0" transform="translate(-662.454 -5509.579)" fill="#ffd764"/>
      <path id="Trazado_8231" data-name="Trazado 8231" d="M763.491,5596.8a1.8,1.8,0,0,0-.689-.135H716.634a1.825,1.825,0,0,0,0,3.65h44.558q1.213-1.709,2.3-3.515Zm0,0" transform="translate(-662.454 -5509.579)" fill="#ffd764"/>
      <path id="Trazado_8232" data-name="Trazado 8232" d="M758.483,5603.82H716.634a1.825,1.825,0,0,0,0,3.649h38.489q1.762-1.746,3.36-3.649Zm0,0" transform="translate(-662.454 -5509.579)" fill="#ffd764"/>
      <path id="Trazado_8233" data-name="Trazado 8233" d="M762.8,5571.716H716.634a1.825,1.825,0,0,1,0-3.65H762.8a1.825,1.825,0,1,1,0,3.65Zm0,0" transform="translate(-662.454 -5509.579)" fill="#ffd764"/>
      <path id="Trazado_8234" data-name="Trazado 8234" d="M762.8,5578.867H716.634a1.825,1.825,0,0,1,0-3.65H762.8a1.825,1.825,0,1,1,0,3.65Zm0,0" transform="translate(-662.454 -5509.579)" fill="#ffd764"/>
      <path id="Trazado_8235" data-name="Trazado 8235" d="M721.585,5526.986a1.824,1.824,0,0,1,1.824-1.824H701.491a1.824,1.824,0,1,0,0,3.649h21.918a1.825,1.825,0,0,1-1.824-1.825Zm0,0" transform="translate(-662.454 -5509.579)" fill="#ffb442"/>
      <path id="Trazado_8236" data-name="Trazado 8236" d="M721.03,5534.137a1.824,1.824,0,0,1,1.824-1.825H701.491a1.825,1.825,0,1,0,0,3.65h21.363a1.825,1.825,0,0,1-1.824-1.825Zm0,0" transform="translate(-662.454 -5509.579)" fill="#ffb442"/>
      <path id="Trazado_8237" data-name="Trazado 8237" d="M721.03,5541.288a1.824,1.824,0,0,1,1.824-1.825H701.761a1.825,1.825,0,1,0,0,3.65h21.093a1.825,1.825,0,0,1-1.824-1.825Zm0,0" transform="translate(-662.454 -5509.579)" fill="#ffb442"/>
      <path id="Trazado_8238" data-name="Trazado 8238" d="M721.03,5548.438a1.824,1.824,0,0,1,1.824-1.824H709.122a1.825,1.825,0,0,0,0,3.65h13.732a1.826,1.826,0,0,1-1.824-1.826Zm0,0" transform="translate(-662.454 -5509.579)" fill="#ffb442"/>
      <path id="Trazado_8239" data-name="Trazado 8239" d="M721.03,5555.589a1.824,1.824,0,0,1,1.824-1.824h-6.22a1.824,1.824,0,0,0,0,3.649h6.22a1.825,1.825,0,0,1-1.824-1.825Zm0,0" transform="translate(-662.454 -5509.579)" fill="#ffb442"/>
      <path id="Trazado_8240" data-name="Trazado 8240" d="M721.03,5562.74a1.824,1.824,0,0,1,1.824-1.825h-6.22a1.825,1.825,0,0,0,0,3.65h6.22a1.825,1.825,0,0,1-1.824-1.825Zm0,0" transform="translate(-662.454 -5509.579)" fill="#ffb442"/>
      <path id="Trazado_8241" data-name="Trazado 8241" d="M721.03,5584.192a1.825,1.825,0,0,1,1.824-1.825h-6.22a1.825,1.825,0,0,0,0,3.65h6.22a1.825,1.825,0,0,1-1.824-1.825Zm0,0" transform="translate(-662.454 -5509.579)" fill="#ffb442"/>
      <path id="Trazado_8242" data-name="Trazado 8242" d="M721.03,5591.343a1.824,1.824,0,0,1,1.824-1.825h-6.22a1.825,1.825,0,0,0,0,3.65h6.22a1.825,1.825,0,0,1-1.824-1.825Zm0,0" transform="translate(-662.454 -5509.579)" fill="#ffb442"/>
      <path id="Trazado_8243" data-name="Trazado 8243" d="M721.03,5598.493a1.824,1.824,0,0,1,1.824-1.824h-6.22a1.825,1.825,0,0,0,0,3.65h6.22a1.825,1.825,0,0,1-1.824-1.826Zm0,0" transform="translate(-662.454 -5509.579)" fill="#ffb442"/>
      <path id="Trazado_8244" data-name="Trazado 8244" d="M721.585,5605.644a1.824,1.824,0,0,1,1.824-1.824h-6.775a1.825,1.825,0,0,0,0,3.649h6.775a1.825,1.825,0,0,1-1.824-1.825Zm0,0" transform="translate(-662.454 -5509.579)" fill="#ffb442"/>
      <path id="Trazado_8245" data-name="Trazado 8245" d="M721.03,5569.89a1.824,1.824,0,0,1,1.824-1.824h-6.22a1.825,1.825,0,0,0,0,3.65h6.22a1.825,1.825,0,0,1-1.824-1.826Zm0,0" transform="translate(-662.454 -5509.579)" fill="#ffb442"/>
      <path id="Trazado_8246" data-name="Trazado 8246" d="M721.03,5577.041a1.824,1.824,0,0,1,1.824-1.824h-6.22a1.825,1.825,0,0,0,0,3.65h6.22a1.826,1.826,0,0,1-1.824-1.826Zm0,0" transform="translate(-662.454 -5509.579)" fill="#ffb442"/>
      <path id="Trazado_8247" data-name="Trazado 8247" d="M709.122,5547.16v-2.848a3.877,3.877,0,0,0-3.865-3.866H690.016a3.878,3.878,0,0,0-3.866,3.866v2.848Zm0,0" transform="translate(-662.454 -5509.579)" fill="#def2fe"/>
      <path id="Trazado_8248" data-name="Trazado 8248" d="M702.78,5540.446H690.016a3.878,3.878,0,0,0-3.866,3.866v2.848h12.764v-2.848a3.878,3.878,0,0,1,3.866-3.866Zm0,0" transform="translate(-662.454 -5509.579)" fill="#c5e2f2"/>
      <path id="Trazado_8249" data-name="Trazado 8249" d="M707.582,5622.444a3.86,3.86,0,0,0,1.54-3.078v-2.848H690.648a53.976,53.976,0,0,0,16.934,5.926Zm0,0" transform="translate(-662.454 -5509.579)" fill="#def2fe"/>
      <path id="Trazado_8250" data-name="Trazado 8250" d="M698.721,5616.518h-8.073a54.083,54.083,0,0,0,8.086,3.624,2.042,2.042,0,0,1-.013-3.624Zm0,0" transform="translate(-662.454 -5509.579)" fill="#c5e2f2"/>
      <path id="Trazado_8251" data-name="Trazado 8251" d="M710.05,5546.876H685.223a6.317,6.317,0,0,0-6.3,6.3v54.659a54.579,54.579,0,0,0,12.246,8.969h18.88a6.316,6.316,0,0,0,6.3-6.3v-57.33a6.316,6.316,0,0,0-6.3-6.3Zm0,0" transform="translate(-662.454 -5509.579)" fill="#ff87ba"/>
      <path id="Trazado_8252" data-name="Trazado 8252" d="M694.512,5610.5v-57.33a6.316,6.316,0,0,1,6.3-6.3H685.223a6.317,6.317,0,0,0-6.3,6.3v54.659a54.579,54.579,0,0,0,12.246,8.969h9.64a6.316,6.316,0,0,1-6.3-6.3Zm0,0" transform="translate(-662.454 -5509.579)" fill="#f962aa"/>
      <path id="Trazado_8253" data-name="Trazado 8253" d="M715.653,5569.877H679.619a1.825,1.825,0,0,1,0-3.65h36.034a1.825,1.825,0,1,1,0,3.65Zm0,0" transform="translate(-662.454 -5509.579)" fill="#ffa0d0"/>
      <path id="Trazado_8254" data-name="Trazado 8254" d="M715.653,5562.984H679.619a1.825,1.825,0,0,1,0-3.65h36.034a1.825,1.825,0,1,1,0,3.65Zm0,0" transform="translate(-662.454 -5509.579)" fill="#ffa0d0"/>
      <path id="Trazado_8255" data-name="Trazado 8255" d="M715.4,5556.091H679.87a1.826,1.826,0,0,1,0-3.652H715.4a1.826,1.826,0,0,1,0,3.652Zm0,0" transform="translate(-662.454 -5509.579)" fill="#ffa0d0"/>
      <path id="Trazado_8256" data-name="Trazado 8256" d="M715.653,5583.664H679.619a1.824,1.824,0,0,1,0-3.649h36.034a1.824,1.824,0,1,1,0,3.649Zm0,0" transform="translate(-662.454 -5509.579)" fill="#ffa0d0"/>
      <path id="Trazado_8257" data-name="Trazado 8257" d="M715.653,5576.771H679.619a1.825,1.825,0,0,1,0-3.65h36.034a1.825,1.825,0,1,1,0,3.65Zm0,0" transform="translate(-662.454 -5509.579)" fill="#ffa0d0"/>
      <path id="Trazado_8258" data-name="Trazado 8258" d="M715.653,5597.452H679.619a1.826,1.826,0,0,1,0-3.651h36.034a1.826,1.826,0,0,1,0,3.651Zm0,0" transform="translate(-662.454 -5509.579)" fill="#ffa0d0"/>
      <path id="Trazado_8259" data-name="Trazado 8259" d="M715.653,5590.558H679.619a1.825,1.825,0,0,1,0-3.65h36.034a1.825,1.825,0,1,1,0,3.65Zm0,0" transform="translate(-662.454 -5509.579)" fill="#ffa0d0"/>
      <path id="Trazado_8260" data-name="Trazado 8260" d="M717.478,5609.413a1.824,1.824,0,0,0-1.825-1.824H679.619a1.817,1.817,0,0,0-.769.171q1.877,1.832,3.923,3.479h32.88a1.826,1.826,0,0,0,1.825-1.826Zm0,0" transform="translate(-662.454 -5509.579)" fill="#ffa0d0"/>
      <path id="Trazado_8261" data-name="Trazado 8261" d="M715.653,5604.345H679.619a1.825,1.825,0,0,1,0-3.65h36.034a1.825,1.825,0,0,1,0,3.65Zm0,0" transform="translate(-662.454 -5509.579)" fill="#ffa0d0"/>
      <path id="Trazado_8262" data-name="Trazado 8262" d="M692.593,5568.052a1.825,1.825,0,0,1,1.825-1.825h-14.8a1.825,1.825,0,0,0,0,3.65h14.8a1.826,1.826,0,0,1-1.825-1.825Zm0,0" transform="translate(-662.454 -5509.579)" fill="#ff87ba"/>
      <path id="Trazado_8263" data-name="Trazado 8263" d="M692.593,5561.159a1.825,1.825,0,0,1,1.825-1.825h-14.8a1.825,1.825,0,0,0,0,3.65h14.8a1.826,1.826,0,0,1-1.825-1.825Zm0,0" transform="translate(-662.454 -5509.579)" fill="#ff87ba"/>
      <path id="Trazado_8264" data-name="Trazado 8264" d="M692.843,5554.265a1.826,1.826,0,0,1,1.826-1.826h-14.8a1.826,1.826,0,0,0,0,3.652h14.8a1.826,1.826,0,0,1-1.826-1.826Zm0,0" transform="translate(-662.454 -5509.579)" fill="#ff87ba"/>
      <path id="Trazado_8265" data-name="Trazado 8265" d="M692.593,5581.839a1.825,1.825,0,0,1,1.825-1.825h-14.8a1.825,1.825,0,0,0,0,3.65h14.8a1.826,1.826,0,0,1-1.825-1.825Zm0,0" transform="translate(-662.454 -5509.579)" fill="#ff87ba"/>
      <path id="Trazado_8266" data-name="Trazado 8266" d="M692.593,5574.946a1.825,1.825,0,0,1,1.825-1.825h-14.8a1.825,1.825,0,0,0,0,3.65h14.8a1.826,1.826,0,0,1-1.825-1.825Zm0,0" transform="translate(-662.454 -5509.579)" fill="#ff87ba"/>
      <path id="Trazado_8267" data-name="Trazado 8267" d="M692.593,5595.626a1.825,1.825,0,0,1,1.825-1.825h-14.8a1.826,1.826,0,0,0,0,3.651h14.8a1.827,1.827,0,0,1-1.825-1.826Zm0,0" transform="translate(-662.454 -5509.579)" fill="#ff87ba"/>
      <path id="Trazado_8268" data-name="Trazado 8268" d="M692.593,5588.733a1.824,1.824,0,0,1,1.825-1.825h-14.8a1.825,1.825,0,0,0,0,3.65h14.8a1.826,1.826,0,0,1-1.825-1.825Zm0,0" transform="translate(-662.454 -5509.579)" fill="#ff87ba"/>
      <path id="Trazado_8269" data-name="Trazado 8269" d="M692.593,5609.413a1.824,1.824,0,0,1,1.825-1.824h-14.8a1.817,1.817,0,0,0-.769.171q1.877,1.832,3.923,3.479h11.645a1.826,1.826,0,0,1-1.825-1.826Zm0,0" transform="translate(-662.454 -5509.579)" fill="#ff87ba"/>
      <path id="Trazado_8270" data-name="Trazado 8270" d="M692.593,5602.52a1.825,1.825,0,0,1,1.825-1.825h-14.8a1.825,1.825,0,0,0,0,3.65h14.8a1.826,1.826,0,0,1-1.825-1.825Zm0,0" transform="translate(-662.454 -5509.579)" fill="#ff87ba"/>
      <path id="Trazado_8271" data-name="Trazado 8271" d="M676.313,5531.585a1.825,1.825,0,1,1-2.4-2.75c31.414-27.4,80.07,56.742,94.752,35.8a1.825,1.825,0,0,1,2.989,2.1c-18.343,26.166-66.469-60.327-95.341-35.141Zm0,0" transform="translate(-662.454 -5509.579)" fill="#fceca9"/>
    </g>
    <g id="Grupo_11224" data-name="Grupo 11224" transform="translate(646.114 5822.764)">
      <g id="Grupo_11223" data-name="Grupo 11223" transform="translate(0)">
        <path id="Trazado_8272" data-name="Trazado 8272" d="M579.6,5657.217v-11.422h1.434v10.218h5.44v1.2Z" transform="translate(-579.602 -5644.959)" fill="#fff"/>
        <path id="Trazado_8273" data-name="Trazado 8273" d="M594.042,5657.217l-.278-1.219H593.7a3.836,3.836,0,0,1-1.379,1.09,4.5,4.5,0,0,1-1.716.285,3.249,3.249,0,0,1-2.155-.656,2.305,2.305,0,0,1-.78-1.868q0-2.594,4.478-2.718l1.569-.047v-.532a2.064,2.064,0,0,0-.468-1.488,2.018,2.018,0,0,0-1.5-.48,6.468,6.468,0,0,0-2.615.656l-.43-.992a6.876,6.876,0,0,1,1.5-.539,6.994,6.994,0,0,1,1.632-.2,3.715,3.715,0,0,1,2.45.68,2.715,2.715,0,0,1,.8,2.18v5.844Zm-3.163-.915a2.98,2.98,0,0,0,2.054-.664,2.36,2.36,0,0,0,.746-1.859v-.773l-1.4.054a5.434,5.434,0,0,0-2.408.481,1.423,1.423,0,0,0-.738,1.324,1.285,1.285,0,0,0,.46,1.07A2.008,2.008,0,0,0,590.879,5656.3Z" transform="translate(-579.602 -5644.959)" fill="#fff"/>
        <path id="Trazado_8274" data-name="Trazado 8274" d="M606.752,5648.513a3.561,3.561,0,0,1,2.83,1.153,5.787,5.787,0,0,1-.008,6.539,3.543,3.543,0,0,1-2.822,1.168,4.274,4.274,0,0,1-1.649-.309,3.06,3.06,0,0,1-1.252-.949h-.1l-.295,1.1h-1V5645.06h1.4v2.953q0,.992-.067,1.782h.067A3.423,3.423,0,0,1,606.752,5648.513Zm-.2,1.086a2.54,2.54,0,0,0-2.066.762,5.491,5.491,0,0,0,.016,5.149,2.569,2.569,0,0,0,2.084.777,2.22,2.22,0,0,0,1.923-.871,4.217,4.217,0,0,0,.632-2.5,4.055,4.055,0,0,0-.632-2.492A2.316,2.316,0,0,0,606.55,5649.6Z" transform="translate(-579.602 -5644.959)" fill="#fff"/>
        <path id="Trazado_8275" data-name="Trazado 8275" d="M614.352,5648.654v5.555a2.126,2.126,0,0,0,.514,1.562,2.194,2.194,0,0,0,1.611.516,2.741,2.741,0,0,0,2.121-.735,3.5,3.5,0,0,0,.671-2.4v-4.5h1.4v8.563h-1.155l-.2-1.149h-.076a2.734,2.734,0,0,1-1.193.969,4.309,4.309,0,0,1-1.742.336,3.715,3.715,0,0,1-2.526-.742,3.017,3.017,0,0,1-.839-2.375v-5.6Zm1.467-1.328q.405-.485.873-1.172a13.123,13.123,0,0,0,.738-1.195h1.7v.164a11.744,11.744,0,0,1-1.1,1.25,12.1,12.1,0,0,1-1.273,1.148h-.937Z" transform="translate(-579.602 -5644.959)" fill="#fff"/>
        <path id="Trazado_8276" data-name="Trazado 8276" d="M629.6,5654.881a2.094,2.094,0,0,1-.962,1.843,4.784,4.784,0,0,1-2.7.649,6.272,6.272,0,0,1-2.868-.539v-1.2a7.308,7.308,0,0,0,1.43.492,6.388,6.388,0,0,0,1.471.179,3.555,3.555,0,0,0,1.687-.324,1.071,1.071,0,0,0,.122-1.843,7.6,7.6,0,0,0-1.826-.84,10.268,10.268,0,0,1-1.834-.778,2.409,2.409,0,0,1-.81-.754,1.852,1.852,0,0,1-.265-1.007,1.884,1.884,0,0,1,.919-1.653,4.551,4.551,0,0,1,2.522-.6,7.883,7.883,0,0,1,2.918.562l-.5,1.055a7.148,7.148,0,0,0-2.521-.531,3.1,3.1,0,0,0-1.5.289.885.885,0,0,0-.506.8.919.919,0,0,0,.19.586,1.849,1.849,0,0,0,.611.461,14.194,14.194,0,0,0,1.62.632,6.2,6.2,0,0,1,2.222,1.118A1.892,1.892,0,0,1,629.6,5654.881Z" transform="translate(-579.602 -5644.959)" fill="#fff"/>
        <path id="Trazado_8277" data-name="Trazado 8277" d="M635.159,5657.373a3.49,3.49,0,0,1-2.792-1.164,4.822,4.822,0,0,1-1-3.25,4.884,4.884,0,0,1,1.012-3.282,3.515,3.515,0,0,1,2.817-1.179,3.461,3.461,0,0,1,2.918,1.328h.076l.2-1.172h1.105v12.406h-1.4V5657.4a8.086,8.086,0,0,1,.093-1.328h-.11A3.4,3.4,0,0,1,635.159,5657.373Zm.211-1.086a2.657,2.657,0,0,0,2.041-.7,3.57,3.57,0,0,0,.683-2.344v-.289a4.037,4.037,0,0,0-.658-2.586,2.562,2.562,0,0,0-2.083-.789,2.2,2.2,0,0,0-1.885.886,4.157,4.157,0,0,0-.654,2.5,4.011,4.011,0,0,0,.646,2.465A2.249,2.249,0,0,0,635.37,5656.287Z" transform="translate(-575.983 -5644.959)" fill="#fff"/>
        <path id="Trazado_8278" data-name="Trazado 8278" d="M643.779,5648.654v5.555a2.126,2.126,0,0,0,.515,1.562,2.19,2.19,0,0,0,1.61.516,2.742,2.742,0,0,0,2.122-.735,3.5,3.5,0,0,0,.67-2.4v-4.5h1.4v8.563h-1.155l-.2-1.149h-.076a2.728,2.728,0,0,1-1.193.969,4.305,4.305,0,0,1-1.742.336,3.718,3.718,0,0,1-2.526-.742,3.021,3.021,0,0,1-.839-2.375v-5.6Z" transform="translate(-575.22 -5644.959)" fill="#fff"/>
        <path id="Trazado_8279" data-name="Trazado 8279" d="M656.97,5657.373a4.432,4.432,0,0,1-3.234-1.156,4.279,4.279,0,0,1-1.185-3.211,4.726,4.726,0,0,1,1.1-3.289,3.787,3.787,0,0,1,2.957-1.219,3.626,3.626,0,0,1,2.749,1.058,3.873,3.873,0,0,1,1.012,2.793v.821H654a3.242,3.242,0,0,0,.823,2.289,2.967,2.967,0,0,0,2.2.781,7.95,7.95,0,0,0,2.952-.578v1.156a7.822,7.822,0,0,1-1.4.426A8.515,8.515,0,0,1,656.97,5657.373Zm-.379-7.789a2.382,2.382,0,0,0-1.776.672,2.979,2.979,0,0,0-.78,1.859h4.833a2.712,2.712,0,0,0-.59-1.879A2.162,2.162,0,0,0,656.591,5649.584Z" transform="translate(-574.507 -5644.959)" fill="#fff"/>
        <path id="Trazado_8280" data-name="Trazado 8280" d="M669.048,5656.068h-.076a3.383,3.383,0,0,1-2.9,1.305,3.552,3.552,0,0,1-2.821-1.149,4.794,4.794,0,0,1-1.008-3.265,4.875,4.875,0,0,1,1.012-3.289,3.523,3.523,0,0,1,2.817-1.172,3.465,3.465,0,0,1,2.884,1.265h.11l-.059-.617-.034-.6v-3.485h1.4v12.157h-1.138Zm-2.8.219a2.659,2.659,0,0,0,2.079-.723,3.453,3.453,0,0,0,.645-2.332v-.273a4.06,4.06,0,0,0-.653-2.6,2.582,2.582,0,0,0-2.088-.777,2.2,2.2,0,0,0-1.885.886,4.157,4.157,0,0,0-.654,2.5,3.989,3.989,0,0,0,.65,2.477A2.265,2.265,0,0,0,666.248,5656.287Z" transform="translate(-573.824 -5644.959)" fill="#fff"/>
        <path id="Trazado_8281" data-name="Trazado 8281" d="M679.026,5657.217l-.278-1.219h-.068a3.837,3.837,0,0,1-1.379,1.09,4.5,4.5,0,0,1-1.716.285,3.249,3.249,0,0,1-2.155-.656,2.3,2.3,0,0,1-.78-1.868q0-2.594,4.478-2.718l1.569-.047v-.532a2.064,2.064,0,0,0-.468-1.488,2.018,2.018,0,0,0-1.5-.48,6.468,6.468,0,0,0-2.615.656l-.43-.992a6.914,6.914,0,0,1,1.5-.539,6.994,6.994,0,0,1,1.632-.2,3.715,3.715,0,0,1,2.45.68,2.715,2.715,0,0,1,.8,2.18v5.844Zm-3.163-.915a2.98,2.98,0,0,0,2.054-.664,2.357,2.357,0,0,0,.746-1.859v-.773l-1.4.054a5.434,5.434,0,0,0-2.408.481,1.423,1.423,0,0,0-.738,1.324,1.285,1.285,0,0,0,.46,1.07A2.008,2.008,0,0,0,675.863,5656.3Z" transform="translate(-573.113 -5644.959)" fill="#fff"/>
        <path id="Trazado_8282" data-name="Trazado 8282" d="M693.727,5656.068h-.076a3.384,3.384,0,0,1-2.9,1.305,3.556,3.556,0,0,1-2.822-1.149,4.8,4.8,0,0,1-1.007-3.265,4.875,4.875,0,0,1,1.012-3.289,3.52,3.52,0,0,1,2.817-1.172,3.465,3.465,0,0,1,2.884,1.265h.11l-.059-.617-.034-.6v-3.485h1.4v12.157h-1.138Zm-2.8.219a2.658,2.658,0,0,0,2.079-.723,3.453,3.453,0,0,0,.645-2.332v-.273a4.06,4.06,0,0,0-.653-2.6,2.582,2.582,0,0,0-2.088-.777,2.2,2.2,0,0,0-1.885.886,4.157,4.157,0,0,0-.654,2.5,3.989,3.989,0,0,0,.65,2.477A2.265,2.265,0,0,0,690.927,5656.287Z" transform="translate(-572.098 -5644.959)" fill="#fff"/>
        <path id="Trazado_8283" data-name="Trazado 8283" d="M701.925,5657.373a4.432,4.432,0,0,1-3.234-1.156,4.279,4.279,0,0,1-1.185-3.211,4.726,4.726,0,0,1,1.1-3.289,3.787,3.787,0,0,1,2.957-1.219,3.626,3.626,0,0,1,2.749,1.058,3.873,3.873,0,0,1,1.012,2.793v.821h-6.368a3.237,3.237,0,0,0,.823,2.289,2.967,2.967,0,0,0,2.2.781,7.95,7.95,0,0,0,2.952-.578v1.156a7.821,7.821,0,0,1-1.4.426A8.516,8.516,0,0,1,701.925,5657.373Zm-.379-7.789a2.381,2.381,0,0,0-1.776.672,2.979,2.979,0,0,0-.78,1.859h4.833a2.708,2.708,0,0,0-.591-1.879A2.158,2.158,0,0,0,701.546,5649.584Z" transform="translate(-571.367 -5644.959)" fill="#fff"/>
        <path id="Trazado_8284" data-name="Trazado 8284" d="M718.524,5657.217v-5.54a2.127,2.127,0,0,0-.515-1.562,2.193,2.193,0,0,0-1.61-.516,2.775,2.775,0,0,0-2.126.727,3.47,3.47,0,0,0-.675,2.4v4.493h-1.4v-8.563h1.139l.228,1.172h.067a2.8,2.8,0,0,1,1.206-.981,4.187,4.187,0,0,1,1.729-.347,3.7,3.7,0,0,1,2.514.746,3.035,3.035,0,0,1,.843,2.387v5.586Z" transform="translate(-570.344 -5644.959)" fill="#fff"/>
        <path id="Trazado_8285" data-name="Trazado 8285" d="M724.116,5648.654v5.555a2.126,2.126,0,0,0,.514,1.562,2.194,2.194,0,0,0,1.611.516,2.743,2.743,0,0,0,2.122-.735,3.5,3.5,0,0,0,.67-2.4v-4.5h1.4v8.563h-1.155l-.2-1.149H729a2.728,2.728,0,0,1-1.193.969,4.306,4.306,0,0,1-1.742.336,3.718,3.718,0,0,1-2.526-.742,3.021,3.021,0,0,1-.839-2.375v-5.6Z" transform="translate(-569.611 -5644.959)" fill="#fff"/>
        <path id="Trazado_8286" data-name="Trazado 8286" d="M737.307,5657.373a4.432,4.432,0,0,1-3.234-1.156,4.279,4.279,0,0,1-1.185-3.211,4.722,4.722,0,0,1,1.1-3.289,3.786,3.786,0,0,1,2.957-1.219,3.626,3.626,0,0,1,2.749,1.058,3.872,3.872,0,0,1,1.012,2.793v.821h-6.368a3.237,3.237,0,0,0,.823,2.289,2.967,2.967,0,0,0,2.2.781,7.95,7.95,0,0,0,2.952-.578v1.156a7.808,7.808,0,0,1-1.4.426A8.5,8.5,0,0,1,737.307,5657.373Zm-.379-7.789a2.382,2.382,0,0,0-1.776.672,2.979,2.979,0,0,0-.78,1.859h4.833a2.708,2.708,0,0,0-.591-1.879A2.158,2.158,0,0,0,736.928,5649.584Z" transform="translate(-568.896 -5644.959)" fill="#fff"/>
        <path id="Trazado_8287" data-name="Trazado 8287" d="M745.117,5657.217l-3.508-8.563h1.5l1.991,5.078a22.758,22.758,0,0,1,.792,2.313h.068a16.523,16.523,0,0,1,.586-1.715q.493-1.3,2.214-5.676h1.5l-3.508,8.563Z" transform="translate(-568.252 -5644.959)" fill="#fff"/>
        <path id="Trazado_8288" data-name="Trazado 8288" d="M759.726,5652.927a4.5,4.5,0,0,1-1.139,3.27,4.174,4.174,0,0,1-3.146,1.176,4.427,4.427,0,0,1-2.2-.539,3.672,3.672,0,0,1-1.485-1.547,5.051,5.051,0,0,1-.523-2.36,4.5,4.5,0,0,1,1.13-3.261,4.164,4.164,0,0,1,3.138-1.168,4.065,4.065,0,0,1,3.083,1.195A4.486,4.486,0,0,1,759.726,5652.927Zm-7.043,0a3.843,3.843,0,0,0,.708,2.5,2.963,2.963,0,0,0,4.171,0,3.826,3.826,0,0,0,.713-2.5,3.766,3.766,0,0,0-.713-2.48,2.593,2.593,0,0,0-2.1-.848,2.553,2.553,0,0,0-2.075.836A3.8,3.8,0,0,0,752.683,5652.927Z" transform="translate(-567.585 -5644.959)" fill="#fff"/>
        <path id="Trazado_8289" data-name="Trazado 8289" d="M768.143,5654.881a2.094,2.094,0,0,1-.962,1.843,4.786,4.786,0,0,1-2.7.649,6.27,6.27,0,0,1-2.867-.539v-1.2a7.308,7.308,0,0,0,1.43.492,6.388,6.388,0,0,0,1.471.179,3.555,3.555,0,0,0,1.687-.324,1.071,1.071,0,0,0,.122-1.843,7.6,7.6,0,0,0-1.826-.84,10.267,10.267,0,0,1-1.834-.778,2.409,2.409,0,0,1-.81-.754,1.852,1.852,0,0,1-.265-1.007,1.884,1.884,0,0,1,.919-1.653,4.551,4.551,0,0,1,2.522-.6,7.883,7.883,0,0,1,2.918.562l-.5,1.055a7.148,7.148,0,0,0-2.521-.531,3.1,3.1,0,0,0-1.5.289.885.885,0,0,0-.506.8.919.919,0,0,0,.19.586,1.849,1.849,0,0,0,.611.461,14.2,14.2,0,0,0,1.62.632,6.2,6.2,0,0,1,2.222,1.118A1.892,1.892,0,0,1,768.143,5654.881Z" transform="translate(-566.951 -5644.959)" fill="#fff"/>
        <path id="Trazado_8290" data-name="Trazado 8290" d="M786.69,5657.217v-5.571a2.2,2.2,0,0,0-.472-1.535,1.908,1.908,0,0,0-1.468-.512,2.466,2.466,0,0,0-1.931.7,3.126,3.126,0,0,0-.624,2.14v4.782h-1.4v-5.571a2.194,2.194,0,0,0-.472-1.535,1.92,1.92,0,0,0-1.476-.512,2.372,2.372,0,0,0-1.927.731,3.727,3.727,0,0,0-.612,2.394v4.493h-1.4v-8.563h1.139l.228,1.172h.067a2.676,2.676,0,0,1,1.118-.977,3.641,3.641,0,0,1,1.615-.351,2.788,2.788,0,0,1,2.834,1.453h.067a2.866,2.866,0,0,1,1.2-1.063,3.96,3.96,0,0,1,1.788-.39,3.284,3.284,0,0,1,2.349.746,3.178,3.178,0,0,1,.78,2.387v5.586Z" transform="translate(-565.685 -5644.959)" fill="#fff"/>
        <path id="Trazado_8291" data-name="Trazado 8291" d="M796.659,5657.217l-.278-1.219h-.067a3.845,3.845,0,0,1-1.379,1.09,4.508,4.508,0,0,1-1.717.285,3.25,3.25,0,0,1-2.155-.656,2.305,2.305,0,0,1-.78-1.868q0-2.594,4.479-2.718l1.568-.047v-.532a2.064,2.064,0,0,0-.468-1.488,2.018,2.018,0,0,0-1.5-.48,6.464,6.464,0,0,0-2.614.656l-.431-.992a6.914,6.914,0,0,1,1.5-.539,7,7,0,0,1,1.633-.2,3.717,3.717,0,0,1,2.45.68,2.718,2.718,0,0,1,.8,2.18v5.844Zm-3.162-.915a2.978,2.978,0,0,0,2.053-.664,2.357,2.357,0,0,0,.747-1.859v-.773l-1.4.054a5.43,5.43,0,0,0-2.408.481,1.423,1.423,0,0,0-.738,1.324,1.288,1.288,0,0,0,.459,1.07A2.011,2.011,0,0,0,793.5,5656.3Z" transform="translate(-564.91 -5644.959)" fill="#fff"/>
        <path id="Trazado_8292" data-name="Trazado 8292" d="M803.567,5656.3a5.251,5.251,0,0,0,1.265-.156v.992a2.7,2.7,0,0,1-.67.168,5.476,5.476,0,0,1-.8.067q-2.682,0-2.682-2.617v-5.094h-1.325v-.625l1.325-.539.59-1.828h.81v1.984h2.682v1.008h-2.682v5.039a1.649,1.649,0,0,0,.4,1.187A1.431,1.431,0,0,0,803.567,5656.3Z" transform="translate(-564.386 -5644.959)" fill="#fff"/>
        <path id="Trazado_8293" data-name="Trazado 8293" d="M810.584,5657.373a4.432,4.432,0,0,1-3.234-1.156,4.279,4.279,0,0,1-1.185-3.211,4.722,4.722,0,0,1,1.1-3.289,3.784,3.784,0,0,1,2.956-1.219,3.625,3.625,0,0,1,2.749,1.058,3.873,3.873,0,0,1,1.012,2.793v.821h-6.367a3.241,3.241,0,0,0,.822,2.289,2.967,2.967,0,0,0,2.2.781,7.95,7.95,0,0,0,2.952-.578v1.156a7.821,7.821,0,0,1-1.4.426A8.508,8.508,0,0,1,810.584,5657.373Zm-.379-7.789a2.383,2.383,0,0,0-1.776.672,2.979,2.979,0,0,0-.78,1.859h4.833a2.713,2.713,0,0,0-.59-1.879A2.162,2.162,0,0,0,810.205,5649.584Z" transform="translate(-560.745 -5644.959)" fill="#fff"/>
        <path id="Trazado_8294" data-name="Trazado 8294" d="M820.587,5648.5a5.857,5.857,0,0,1,1.105.094l-.194,1.2a5.129,5.129,0,0,0-1.012-.118,2.549,2.549,0,0,0-1.919.844,2.945,2.945,0,0,0-.8,2.1v4.594h-1.4v-8.563h1.156l.16,1.586h.068a3.881,3.881,0,0,1,1.239-1.289A2.95,2.95,0,0,1,820.587,5648.5Z" transform="translate(-560.745 -5644.959)" fill="#fff"/>
        <path id="Trazado_8295" data-name="Trazado 8295" d="M823.3,5646.334a.825.825,0,0,1,.237-.653.926.926,0,0,1,1.172,0,.812.812,0,0,1,.244.649.821.821,0,0,1-.244.652.849.849,0,0,1-.582.215.782.782,0,0,1-.827-.867Zm1.518,10.883h-1.4v-8.563h1.4Z" transform="translate(-560.745 -5644.959)" fill="#fff"/>
        <path id="Trazado_8296" data-name="Trazado 8296" d="M833.475,5657.217,833.2,5656h-.068a3.836,3.836,0,0,1-1.379,1.09,4.5,4.5,0,0,1-1.716.285,3.248,3.248,0,0,1-2.155-.656,2.305,2.305,0,0,1-.78-1.868q0-2.594,4.478-2.718l1.569-.047v-.532a2.064,2.064,0,0,0-.468-1.488,2.018,2.018,0,0,0-1.5-.48,6.468,6.468,0,0,0-2.615.656l-.43-.992a6.914,6.914,0,0,1,1.5-.539,7,7,0,0,1,1.632-.2,3.715,3.715,0,0,1,2.45.68,2.715,2.715,0,0,1,.8,2.18v5.844Zm-3.163-.915a2.98,2.98,0,0,0,2.054-.664,2.36,2.36,0,0,0,.746-1.859v-.773l-1.4.054a5.433,5.433,0,0,0-2.408.481,1.423,1.423,0,0,0-.738,1.324,1.285,1.285,0,0,0,.46,1.07A2.008,2.008,0,0,0,830.312,5656.3Z" transform="translate(-560.745 -5644.959)" fill="#fff"/>
        <path id="Trazado_8297" data-name="Trazado 8297" d="M838.8,5657.217h-1.4V5645.06h1.4Z" transform="translate(-560.745 -5644.959)" fill="#fff"/>
        <path id="Trazado_8298" data-name="Trazado 8298" d="M845.671,5657.373a4.434,4.434,0,0,1-3.235-1.156,4.279,4.279,0,0,1-1.185-3.211,4.722,4.722,0,0,1,1.1-3.289,3.785,3.785,0,0,1,2.956-1.219,3.627,3.627,0,0,1,2.75,1.058,3.873,3.873,0,0,1,1.012,2.793v.821H842.7a3.241,3.241,0,0,0,.822,2.289,2.971,2.971,0,0,0,2.2.781,7.95,7.95,0,0,0,2.952-.578v1.156a7.807,7.807,0,0,1-1.405.426A8.5,8.5,0,0,1,845.671,5657.373Zm-.38-7.789a2.379,2.379,0,0,0-1.775.672,2.979,2.979,0,0,0-.78,1.859h4.833a2.708,2.708,0,0,0-.591-1.879A2.161,2.161,0,0,0,845.291,5649.584Z" transform="translate(-560.745 -5644.959)" fill="#fff"/>
        <path id="Trazado_8299" data-name="Trazado 8299" d="M857.42,5654.881a2.094,2.094,0,0,1-.962,1.843,4.785,4.785,0,0,1-2.7.649,6.27,6.27,0,0,1-2.867-.539v-1.2a7.32,7.32,0,0,0,1.429.492,6.4,6.4,0,0,0,1.472.179,3.555,3.555,0,0,0,1.687-.324,1.071,1.071,0,0,0,.122-1.843,7.6,7.6,0,0,0-1.826-.84,10.266,10.266,0,0,1-1.834-.778,2.408,2.408,0,0,1-.81-.754,1.852,1.852,0,0,1-.265-1.007,1.884,1.884,0,0,1,.919-1.653,4.551,4.551,0,0,1,2.522-.6,7.884,7.884,0,0,1,2.918.562l-.5,1.055a7.149,7.149,0,0,0-2.522-.531,3.094,3.094,0,0,0-1.5.289.885.885,0,0,0-.506.8.919.919,0,0,0,.19.586,1.849,1.849,0,0,0,.611.461,14.2,14.2,0,0,0,1.62.632,6.2,6.2,0,0,1,2.222,1.118A1.892,1.892,0,0,1,857.42,5654.881Z" transform="translate(-560.745 -5644.959)" fill="#fff"/>
      </g>
    </g>
    <path id="Trazado_8680" data-name="Trazado 8680" d="M722.918,5722.636H721.2v-17.193a2.646,2.646,0,0,0-2.645-2.646h-.99a2.646,2.646,0,0,0-2.646,2.646v17.193H713.2a2.161,2.161,0,0,0-1.933,3.127l4.858,9.716a2.16,2.16,0,0,0,3.865,0l4.859-9.716A2.161,2.161,0,0,0,722.918,5722.636Z" transform="translate(75.94 177.805)" fill="#8fccd2"/>
  </g>
</svg>
