<svg xmlns="http://www.w3.org/2000/svg" width="396" height="239.585" viewBox="0 0 396 239.585">
  <g id="Grupo_70715" data-name="Grupo 70715" transform="translate(-596 -5931.505)">
    <g id="Grupo_11229" data-name="Grupo 11229" transform="translate(596 5931.505)">
      <rect id="Rectángulo_4304" data-name="Rectángulo 4304" width="396" height="93" rx="9.462" transform="translate(0 95.683)" fill="#bf3976"/>
      <g id="Grupo_11228" data-name="Grupo 11228" transform="translate(143.615)">
        <path id="Trazado_8352" data-name="Trazado 8352" d="M766.525,5837.665a54.385,54.385,0,1,0-96.931,0Zm0,0" transform="translate(-663.675 -5753.7)" fill="#85d249"/>
        <path id="Trazado_8353" data-name="Trazado 8353" d="M766.636,5757.9a4.2,4.2,0,0,0-4.2-4.2H686.512a4.2,4.2,0,0,0-4.205,4.2v96.043a54.392,54.392,0,0,0,84.329-16.5Zm0,0" transform="translate(-663.675 -5753.7)" fill="#def2fe"/>
        <path id="Trazado_8354" data-name="Trazado 8354" d="M707.6,5857.749v-92a12.085,12.085,0,0,1,12.051-12.05h-33.14a4.2,4.2,0,0,0-4.205,4.2v96.043a54.157,54.157,0,0,0,29.662,13.066,12.044,12.044,0,0,1-4.368-9.264Zm0,0" transform="translate(-663.675 -5753.7)" fill="#c5e2f2"/>
        <path id="Trazado_8355" data-name="Trazado 8355" d="M701.008,5761.988h-7.242v99.646a53.987,53.987,0,0,0,9.177,3.588v-101.3a1.935,1.935,0,0,0-1.935-1.935Zm0,0" transform="translate(-663.675 -5753.7)" fill="#01c8f0"/>
        <path id="Trazado_8356" data-name="Trazado 8356" d="M702.943,5823.705a.66.66,0,0,0-.314.1,5.986,5.986,0,0,1-8.269-1.407.7.7,0,0,0-.594-.25v39.487a53.987,53.987,0,0,0,9.177,3.588Zm0,0" transform="translate(-663.675 -5753.7)" fill="#03b2ef"/>
        <path id="Trazado_8357" data-name="Trazado 8357" d="M689.065,5763.923v95.06a54.065,54.065,0,0,0,4.924,2.762v-99.757H691a1.936,1.936,0,0,0-1.936,1.935Zm0,0" transform="translate(-663.675 -5753.7)" fill="#63dfff"/>
        <path id="Trazado_8358" data-name="Trazado 8358" d="M693.989,5822.165a.677.677,0,0,0-.438.036,1.149,1.149,0,0,1-1.2-.127.7.7,0,0,0-.425-.149h-2.865v37.058a53.951,53.951,0,0,0,4.925,2.762v-39.58Zm0,0" transform="translate(-663.675 -5753.7)" fill="#01c8f0"/>
        <path id="Trazado_8359" data-name="Trazado 8359" d="M694.661,5771.557h-5.6a1.665,1.665,0,1,1,0-3.329h5.6a1.665,1.665,0,0,1,0,3.329Zm0,0" transform="translate(-663.675 -5753.7)" fill="#9deafc"/>
        <path id="Trazado_8360" data-name="Trazado 8360" d="M690.519,5788.9h-1.454a1.665,1.665,0,0,1,0-3.33h1.454a1.665,1.665,0,0,1,0,3.33Zm0,0" transform="translate(-663.675 -5753.7)" fill="#9deafc"/>
        <path id="Trazado_8361" data-name="Trazado 8361" d="M690.519,5780.228h-1.454a1.665,1.665,0,1,1,0-3.329h1.454a1.665,1.665,0,1,1,0,3.329Zm0,0" transform="translate(-663.675 -5753.7)" fill="#9deafc"/>
        <path id="Trazado_8362" data-name="Trazado 8362" d="M690.519,5797.573h-1.454a1.665,1.665,0,0,1,0-3.33h1.454a1.665,1.665,0,0,1,0,3.33Zm0,0" transform="translate(-663.675 -5753.7)" fill="#9deafc"/>
        <path id="Trazado_8363" data-name="Trazado 8363" d="M694.661,5806.245h-5.6a1.665,1.665,0,0,1,0-3.33h5.6a1.665,1.665,0,0,1,0,3.33Zm0,0" transform="translate(-663.675 -5753.7)" fill="#9deafc"/>
        <path id="Trazado_8364" data-name="Trazado 8364" d="M690.519,5814.917h-1.454a1.665,1.665,0,0,1,0-3.33h1.454a1.665,1.665,0,0,1,0,3.33Zm0,0" transform="translate(-663.675 -5753.7)" fill="#9deafc"/>
        <path id="Trazado_8365" data-name="Trazado 8365" d="M690.519,5823.589h-1.454a1.665,1.665,0,1,1,0-3.329h1.454a1.665,1.665,0,1,1,0,3.329Zm0,0" transform="translate(-663.675 -5753.7)" fill="#9deafc"/>
        <path id="Trazado_8366" data-name="Trazado 8366" d="M690.519,5832.26h-1.454a1.664,1.664,0,1,1,0-3.329h1.454a1.664,1.664,0,1,1,0,3.329Zm0,0" transform="translate(-663.675 -5753.7)" fill="#63dfff"/>
        <path id="Trazado_8367" data-name="Trazado 8367" d="M694.661,5840.932h-5.6a1.665,1.665,0,1,1,0-3.329h5.6a1.665,1.665,0,0,1,0,3.329Zm0,0" transform="translate(-663.675 -5753.7)" fill="#63dfff"/>
        <path id="Trazado_8368" data-name="Trazado 8368" d="M690.519,5849.6h-1.454a1.665,1.665,0,0,1,0-3.33h1.454a1.665,1.665,0,0,1,0,3.33Zm0,0" transform="translate(-663.675 -5753.7)" fill="#63dfff"/>
        <path id="Trazado_8369" data-name="Trazado 8369" d="M690.519,5858.277h-1.454a1.665,1.665,0,0,1,0-3.33h1.454a1.665,1.665,0,0,1,0,3.33Zm0,0" transform="translate(-663.675 -5753.7)" fill="#63dfff"/>
        <path id="Trazado_8370" data-name="Trazado 8370" d="M673.919,5784.329h3.953a1.47,1.47,0,0,1,.214.018v-3.542a2.19,2.19,0,1,0-4.381,0v3.542a1.482,1.482,0,0,1,.214-.018Zm0,0" transform="translate(-663.675 -5753.7)" fill="#543e5b"/>
        <path id="Trazado_8371" data-name="Trazado 8371" d="M741.13,5793.023c-9.96-.615-12.488-7.907-13.123-11.205a1.454,1.454,0,0,0-1.846-1.112L715.5,5783.9a1.456,1.456,0,0,0-.883,2.05A82.288,82.288,0,0,1,719.671,5799a11.375,11.375,0,0,1-4.639,13.3,1.449,1.449,0,0,0-.552,1.684,57.994,57.994,0,0,1-1.8,43.6,1.457,1.457,0,0,0,1.317,2.079h27.052a1.457,1.457,0,0,0,1.457-1.457v-63.727a1.459,1.459,0,0,0-1.374-1.453Zm0,0" transform="translate(-663.675 -5753.7)" fill="#ffd764"/>
        <path id="Trazado_8372" data-name="Trazado 8372" d="M743.176,5773.428H713.208a1.665,1.665,0,0,1,0-3.33h29.968a1.665,1.665,0,0,1,0,3.33Zm0,0" transform="translate(-663.675 -5753.7)" fill="#543e5b"/>
        <path id="Trazado_8373" data-name="Trazado 8373" d="M712.984,5775.806a1.664,1.664,0,0,1-1.664-1.665v-4.756a1.664,1.664,0,1,1,3.329,0v4.756a1.663,1.663,0,0,1-1.665,1.665Zm0,0" transform="translate(-663.675 -5753.7)" fill="#665364"/>
        <path id="Trazado_8374" data-name="Trazado 8374" d="M743.4,5775.806a1.664,1.664,0,0,1-1.665-1.665v-4.756a1.665,1.665,0,0,1,3.33,0v4.756a1.665,1.665,0,0,1-1.665,1.665Zm0,0" transform="translate(-663.675 -5753.7)" fill="#665364"/>
        <path id="Trazado_8375" data-name="Trazado 8375" d="M751.456,5779.091a1.665,1.665,0,0,0-1.665,1.664v76.382q1.717-1.235,3.33-2.6v-73.783a1.665,1.665,0,0,0-1.665-1.664Zm0,0" transform="translate(-663.675 -5753.7)" fill="#543e5b"/>
        <path id="Trazado_8376" data-name="Trazado 8376" d="M753.834,5782.2h-4.756a1.665,1.665,0,1,1,0-3.33h4.756a1.665,1.665,0,1,1,0,3.33Zm0,0" transform="translate(-663.675 -5753.7)" fill="#665364"/>
        <path id="Trazado_8377" data-name="Trazado 8377" d="M725.645,5767.725h-1.268a1.665,1.665,0,0,1,0-3.33h1.268a1.665,1.665,0,0,1,0,3.33Zm0,0" transform="translate(-663.675 -5753.7)" fill="#acd1e5"/>
        <path id="Trazado_8378" data-name="Trazado 8378" d="M732.009,5767.725h-1.27a1.665,1.665,0,0,1,0-3.33h1.27a1.665,1.665,0,0,1,0,3.33Zm0,0" transform="translate(-663.675 -5753.7)" fill="#c5e2f2"/>
        <path id="Trazado_8379" data-name="Trazado 8379" d="M757.425,5825.633a1.665,1.665,0,0,1-1.665-1.664v-1.27a1.665,1.665,0,1,1,3.33,0v1.27a1.664,1.664,0,0,1-1.665,1.664Zm0,0" transform="translate(-663.675 -5753.7)" fill="#c5e2f2"/>
        <path id="Trazado_8380" data-name="Trazado 8380" d="M757.425,5819.27a1.666,1.666,0,0,1-1.665-1.665v-1.268a1.665,1.665,0,1,1,3.33,0v1.268a1.665,1.665,0,0,1-1.665,1.665Zm0,0" transform="translate(-663.675 -5753.7)" fill="#acd1e5"/>
        <path id="Trazado_8381" data-name="Trazado 8381" d="M679.512,5785.066a1.754,1.754,0,0,0-1.64-1.132h-3.953a1.755,1.755,0,0,0-1.64,1.132l-2.8,8.367h12.824Zm0,0" transform="translate(-663.675 -5753.7)" fill="#fcf8ed"/>
        <path id="Trazado_8382" data-name="Trazado 8382" d="M675.434,5788.85l1.3-3.88a1.8,1.8,0,0,1,1.035-1.036h-3.846a1.755,1.755,0,0,0-1.64,1.132l-2.8,8.367h8.4a3.579,3.579,0,0,1-2.446-4.583Zm0,0" transform="translate(-663.675 -5753.7)" fill="#fceca9"/>
        <path id="Trazado_8383" data-name="Trazado 8383" d="M669.483,5837.443a54.5,54.5,0,0,0,4,6.679v-50.689h-4Zm0,0" transform="translate(-663.675 -5753.7)" fill="#ffb442"/>
        <path id="Trazado_8384" data-name="Trazado 8384" d="M673.481,5822.216a.661.661,0,0,0-.543.139,2.133,2.133,0,0,1-2.871.169.708.708,0,0,0-.584-.141v15.06a54.5,54.5,0,0,0,4,6.679Zm0,0" transform="translate(-663.675 -5753.7)" fill="#ff9b21"/>
        <path id="Trazado_8385" data-name="Trazado 8385" d="M678.309,5850.079a54.608,54.608,0,0,0,4,3.868v-60.514h-4Zm0,0" transform="translate(-663.675 -5753.7)" fill="#ffd764"/>
        <path id="Trazado_8386" data-name="Trazado 8386" d="M682.307,5853.947V5821.99a.715.715,0,0,0-.182.122,2.318,2.318,0,0,1-3.28.263.714.714,0,0,0-.536-.178v27.882a54.608,54.608,0,0,0,4,3.868Zm0,0" transform="translate(-663.675 -5753.7)" fill="#ffca4f"/>
        <path id="Trazado_8387" data-name="Trazado 8387" d="M673.374,5843.967a54.5,54.5,0,0,0,5.043,6.227v-56.761h-5.043Zm0,0" transform="translate(-663.675 -5753.7)" fill="#ffca4f"/>
        <path id="Trazado_8388" data-name="Trazado 8388" d="M678.417,5822.195a.649.649,0,0,0-.45.139,3.04,3.04,0,0,1-4.137.049.72.72,0,0,0-.456-.178v21.762a54.39,54.39,0,0,0,5.043,6.227Zm0,0" transform="translate(-663.675 -5753.7)" fill="#ffb442"/>
        <path id="Trazado_8389" data-name="Trazado 8389" d="M730.215,5840.18a13.158,13.158,0,0,1-12.36-8.762,57.964,57.964,0,0,1-5.177,26.163,1.457,1.457,0,0,0,1.317,2.079h27.052a1.457,1.457,0,0,0,1.457-1.457v-26.585a13.157,13.157,0,0,1-12.289,8.562Zm0,0" transform="translate(-663.675 -5753.7)" fill="#ffca4f"/>
      </g>
    </g>
    <path id="Trazado_8682" data-name="Trazado 8682" d="M722.918,5979.248H721.2v-17.193a2.646,2.646,0,0,0-2.645-2.646h-.99a2.646,2.646,0,0,0-2.646,2.646v17.193H713.2a2.161,2.161,0,0,0-1.933,3.127l4.858,9.716a2.16,2.16,0,0,0,3.865,0l4.859-9.716A2.161,2.161,0,0,0,722.918,5979.248Z" transform="translate(75.94 177.805)" fill="#8fccd2"/>
    <path id="Trazado_117499" data-name="Trazado 117499" d="M20.68,17H19.352V6.758H15.734V5.578H24.3v1.18H20.68Zm8.758.156a3.934,3.934,0,0,1-3-1.156,4.476,4.476,0,0,1-1.1-3.211A4.964,4.964,0,0,1,26.363,9.5,3.387,3.387,0,0,1,29.1,8.281,3.229,3.229,0,0,1,31.648,9.34a4.057,4.057,0,0,1,.938,2.793v.82h-5.9a3.394,3.394,0,0,0,.762,2.289,2.635,2.635,0,0,0,2.035.781,6.9,6.9,0,0,0,2.734-.578V16.6a6.863,6.863,0,0,1-1.3.426A7.31,7.31,0,0,1,29.438,17.156Zm-.352-7.789a2.118,2.118,0,0,0-1.645.672,3.1,3.1,0,0,0-.723,1.859H31.2a2.851,2.851,0,0,0-.547-1.879A1.925,1.925,0,0,0,29.086,9.367ZM40.656,17V11.461A2.235,2.235,0,0,0,40.18,9.9a1.941,1.941,0,0,0-1.492-.516,2.461,2.461,0,0,0-1.969.727,3.668,3.668,0,0,0-.625,2.4V17H34.8V8.438h1.055l.211,1.172h.063a2.648,2.648,0,0,1,1.117-.98,3.63,3.63,0,0,1,1.6-.348,3.252,3.252,0,0,1,2.328.746,3.175,3.175,0,0,1,.781,2.387V17Zm7.578.156a3.934,3.934,0,0,1-3-1.156,4.476,4.476,0,0,1-1.1-3.211A4.964,4.964,0,0,1,45.16,9.5,3.387,3.387,0,0,1,47.9,8.281,3.229,3.229,0,0,1,50.445,9.34a4.057,4.057,0,0,1,.938,2.793v.82h-5.9a3.394,3.394,0,0,0,.762,2.289,2.634,2.634,0,0,0,2.035.781,6.9,6.9,0,0,0,2.734-.578V16.6a6.863,6.863,0,0,1-1.3.426A7.31,7.31,0,0,1,48.234,17.156Zm-.352-7.789a2.118,2.118,0,0,0-1.645.672,3.1,3.1,0,0,0-.723,1.859h4.477a2.851,2.851,0,0,0-.547-1.879A1.925,1.925,0,0,0,47.883,9.367ZM57.5,8.281a5.075,5.075,0,0,1,1.023.094l-.18,1.2a4.418,4.418,0,0,0-.937-.117,2.282,2.282,0,0,0-1.777.844,3.077,3.077,0,0,0-.738,2.1V17h-1.3V8.438h1.07l.148,1.586h.063a3.764,3.764,0,0,1,1.148-1.289A2.585,2.585,0,0,1,57.5,8.281Zm10.2,8.875a3.654,3.654,0,0,1-2.879-1.145,4.707,4.707,0,0,1-1.02-3.238,4.853,4.853,0,0,1,1.035-3.32,3.727,3.727,0,0,1,2.949-1.172,5.852,5.852,0,0,1,1.234.133,4.066,4.066,0,0,1,.969.313l-.4,1.1a6.1,6.1,0,0,0-.937-.285,4.186,4.186,0,0,0-.9-.113q-2.609,0-2.609,3.328a3.963,3.963,0,0,0,.637,2.422,2.215,2.215,0,0,0,1.887.844,5.769,5.769,0,0,0,2.2-.461v1.148A4.679,4.679,0,0,1,67.7,17.156ZM73.2,17H71.9V4.844h1.3Zm8.016,0-.258-1.219h-.062a3.6,3.6,0,0,1-1.277,1.09,3.893,3.893,0,0,1-1.59.285,2.86,2.86,0,0,1-2-.656,2.394,2.394,0,0,1-.723-1.867q0-2.594,4.148-2.719l1.453-.047v-.531a2.171,2.171,0,0,0-.434-1.488,1.783,1.783,0,0,0-1.387-.48,5.65,5.65,0,0,0-2.422.656l-.4-.992a6.094,6.094,0,0,1,1.387-.539,6.006,6.006,0,0,1,1.512-.2,3.262,3.262,0,0,1,2.27.68,2.837,2.837,0,0,1,.738,2.18V17Zm-2.93-.914a2.632,2.632,0,0,0,1.9-.664,2.457,2.457,0,0,0,.691-1.859v-.773l-1.3.055a4.717,4.717,0,0,0-2.23.48,1.449,1.449,0,0,0-.684,1.324,1.336,1.336,0,0,0,.426,1.07A1.767,1.767,0,0,0,78.281,16.086Zm10.469-7.8a5.075,5.075,0,0,1,1.023.094l-.18,1.2a4.418,4.418,0,0,0-.937-.117,2.282,2.282,0,0,0-1.777.844,3.077,3.077,0,0,0-.738,2.1V17h-1.3V8.438h1.07l.148,1.586h.063a3.764,3.764,0,0,1,1.148-1.289A2.585,2.585,0,0,1,88.75,8.281ZM92.672,17h-1.3V8.438h1.3ZM91.266,6.117a.861.861,0,0,1,.219-.652.81.81,0,0,1,1.086,0,.846.846,0,0,1,.227.648.859.859,0,0,1-.227.652.794.794,0,0,1-1.086,0A.877.877,0,0,1,91.266,6.117Zm9.984,9.734h-.07a3.047,3.047,0,0,1-2.687,1.3,3.179,3.179,0,0,1-2.613-1.148,5.055,5.055,0,0,1-.934-3.266,5.141,5.141,0,0,1,.938-3.289,3.155,3.155,0,0,1,2.609-1.172,3.114,3.114,0,0,1,2.672,1.266h.1l-.055-.617-.031-.6V4.844h1.3V17h-1.055Zm-2.594.219a2.361,2.361,0,0,0,1.926-.723,3.652,3.652,0,0,0,.6-2.332v-.273a4.3,4.3,0,0,0-.605-2.6,2.3,2.3,0,0,0-1.934-.777,1.985,1.985,0,0,0-1.746.887,4.409,4.409,0,0,0-.605,2.5,4.227,4.227,0,0,0,.6,2.477A2.037,2.037,0,0,0,98.656,16.07Zm11.836.93-.258-1.219h-.062a3.6,3.6,0,0,1-1.277,1.09,3.893,3.893,0,0,1-1.59.285,2.86,2.86,0,0,1-2-.656,2.394,2.394,0,0,1-.723-1.867q0-2.594,4.148-2.719l1.453-.047v-.531a2.171,2.171,0,0,0-.434-1.488,1.783,1.783,0,0,0-1.387-.48,5.65,5.65,0,0,0-2.422.656l-.4-.992a6.094,6.094,0,0,1,1.387-.539,6.006,6.006,0,0,1,1.512-.2,3.262,3.262,0,0,1,2.27.68,2.837,2.837,0,0,1,.738,2.18V17Zm-2.93-.914a2.632,2.632,0,0,0,1.9-.664,2.457,2.457,0,0,0,.691-1.859v-.773l-1.3.055a4.717,4.717,0,0,0-2.23.48,1.449,1.449,0,0,0-.684,1.324,1.336,1.336,0,0,0,.426,1.07A1.767,1.767,0,0,0,107.563,16.086Zm12.391-.234h-.07a3.047,3.047,0,0,1-2.687,1.3,3.179,3.179,0,0,1-2.613-1.148,5.055,5.055,0,0,1-.934-3.266,5.141,5.141,0,0,1,.938-3.289A3.155,3.155,0,0,1,117.2,8.281a3.114,3.114,0,0,1,2.672,1.266h.1l-.055-.617-.031-.6V4.844h1.3V17h-1.055Zm-2.594.219a2.361,2.361,0,0,0,1.926-.723,3.652,3.652,0,0,0,.6-2.332v-.273a4.3,4.3,0,0,0-.605-2.6,2.3,2.3,0,0,0-1.934-.777,1.985,1.985,0,0,0-1.746.887,4.409,4.409,0,0,0-.605,2.5,4.227,4.227,0,0,0,.6,2.477A2.037,2.037,0,0,0,117.359,16.07Zm16.555-.219h-.07a3.047,3.047,0,0,1-2.687,1.3,3.179,3.179,0,0,1-2.613-1.148,5.055,5.055,0,0,1-.934-3.266,5.141,5.141,0,0,1,.938-3.289,3.155,3.155,0,0,1,2.609-1.172,3.114,3.114,0,0,1,2.672,1.266h.1l-.055-.617-.031-.6V4.844h1.3V17h-1.055Zm-2.594.219a2.361,2.361,0,0,0,1.926-.723,3.652,3.652,0,0,0,.6-2.332v-.273a4.3,4.3,0,0,0-.605-2.6,2.3,2.3,0,0,0-1.934-.777,1.985,1.985,0,0,0-1.746.887,4.409,4.409,0,0,0-.605,2.5,4.227,4.227,0,0,0,.6,2.477A2.037,2.037,0,0,0,131.32,16.07Zm10.188,1.086a3.934,3.934,0,0,1-3-1.156,4.476,4.476,0,0,1-1.1-3.211,4.964,4.964,0,0,1,1.02-3.289,3.387,3.387,0,0,1,2.738-1.219,3.229,3.229,0,0,1,2.547,1.059,4.057,4.057,0,0,1,.938,2.793v.82h-5.9a3.394,3.394,0,0,0,.762,2.289,2.634,2.634,0,0,0,2.035.781,6.9,6.9,0,0,0,2.734-.578V16.6a6.863,6.863,0,0,1-1.3.426A7.31,7.31,0,0,1,141.508,17.156Zm-.352-7.789a2.118,2.118,0,0,0-1.645.672,3.1,3.1,0,0,0-.723,1.859h4.477a2.851,2.851,0,0,0-.547-1.879A1.925,1.925,0,0,0,141.156,9.367Zm13.1,6.7a2.356,2.356,0,0,0,1.891-.7,3.766,3.766,0,0,0,.633-2.344v-.289a4.282,4.282,0,0,0-.609-2.586,2.285,2.285,0,0,0-1.93-.789,1.985,1.985,0,0,0-1.746.887,4.409,4.409,0,0,0-.605,2.5,4.258,4.258,0,0,0,.6,2.465A2.025,2.025,0,0,0,154.258,16.07Zm-.2,1.086a3.124,3.124,0,0,1-2.586-1.164,5.082,5.082,0,0,1-.93-3.25,5.147,5.147,0,0,1,.938-3.281,3.444,3.444,0,0,1,5.313.148h.07l.188-1.172h1.023V20.844h-1.3V17.18a8.726,8.726,0,0,1,.086-1.328h-.1A3.063,3.063,0,0,1,154.063,17.156Zm7.984-8.719v5.555a2.235,2.235,0,0,0,.477,1.563,1.941,1.941,0,0,0,1.492.516,2.435,2.435,0,0,0,1.965-.734,3.7,3.7,0,0,0,.621-2.4v-4.5h1.3V17h-1.07l-.187-1.148h-.07a2.585,2.585,0,0,1-1.105.969,3.716,3.716,0,0,1-1.613.336,3.273,3.273,0,0,1-2.34-.742,3.159,3.159,0,0,1-.777-2.375v-5.6Zm12.219,8.719a3.934,3.934,0,0,1-3-1.156,4.476,4.476,0,0,1-1.1-3.211,4.964,4.964,0,0,1,1.02-3.289,3.387,3.387,0,0,1,2.738-1.219,3.229,3.229,0,0,1,2.547,1.059,4.057,4.057,0,0,1,.938,2.793v.82h-5.9a3.394,3.394,0,0,0,.762,2.289,2.634,2.634,0,0,0,2.035.781,6.9,6.9,0,0,0,2.734-.578V16.6a6.863,6.863,0,0,1-1.3.426A7.31,7.31,0,0,1,174.266,17.156Zm-.352-7.789a2.118,2.118,0,0,0-1.645.672,3.1,3.1,0,0,0-.723,1.859h4.477a2.851,2.851,0,0,0-.547-1.879A1.925,1.925,0,0,0,173.914,9.367Zm15.391,5.3a2.145,2.145,0,0,1-.891,1.844,4.186,4.186,0,0,1-2.5.648,5.436,5.436,0,0,1-2.656-.539v-1.2a6.423,6.423,0,0,0,1.324.492,5.53,5.53,0,0,0,1.363.18,3.092,3.092,0,0,0,1.563-.324,1.116,1.116,0,0,0,.113-1.844,6.82,6.82,0,0,0-1.691-.84,9.172,9.172,0,0,1-1.7-.777,2.321,2.321,0,0,1-.75-.754,1.966,1.966,0,0,1-.246-1.008,1.921,1.921,0,0,1,.852-1.652,3.968,3.968,0,0,1,2.336-.605,6.835,6.835,0,0,1,2.7.563L188.664,9.9a6.2,6.2,0,0,0-2.336-.531,2.688,2.688,0,0,0-1.391.289.894.894,0,0,0-.469.8.971.971,0,0,0,.176.586,1.735,1.735,0,0,0,.566.461,12.659,12.659,0,0,0,1.5.633,5.6,5.6,0,0,1,2.059,1.117A1.97,1.97,0,0,1,189.3,14.664Zm5.727,2.492a3.934,3.934,0,0,1-3-1.156,4.476,4.476,0,0,1-1.1-3.211,4.964,4.964,0,0,1,1.02-3.289A3.387,3.387,0,0,1,194.7,8.281a3.229,3.229,0,0,1,2.547,1.059,4.057,4.057,0,0,1,.938,2.793v.82h-5.9a3.394,3.394,0,0,0,.762,2.289,2.634,2.634,0,0,0,2.035.781,6.9,6.9,0,0,0,2.734-.578V16.6a6.863,6.863,0,0,1-1.3.426A7.31,7.31,0,0,1,195.031,17.156Zm-.352-7.789a2.118,2.118,0,0,0-1.645.672,3.1,3.1,0,0,0-.723,1.859h4.477a2.851,2.851,0,0,0-.547-1.879A1.925,1.925,0,0,0,194.68,9.367Zm15.7,6.484h-.07a3.047,3.047,0,0,1-2.687,1.3A3.179,3.179,0,0,1,205,16.008a5.055,5.055,0,0,1-.934-3.266,5.141,5.141,0,0,1,.938-3.289,3.155,3.155,0,0,1,2.609-1.172,3.114,3.114,0,0,1,2.672,1.266h.1l-.055-.617-.031-.6V4.844h1.3V17h-1.055Zm-2.594.219a2.361,2.361,0,0,0,1.926-.723,3.652,3.652,0,0,0,.6-2.332v-.273a4.3,4.3,0,0,0-.605-2.6,2.3,2.3,0,0,0-1.934-.777,1.985,1.985,0,0,0-1.746.887,4.409,4.409,0,0,0-.605,2.5,4.227,4.227,0,0,0,.6,2.477A2.037,2.037,0,0,0,207.781,16.07Zm10.188,1.086a3.934,3.934,0,0,1-3-1.156,4.476,4.476,0,0,1-1.1-3.211,4.964,4.964,0,0,1,1.02-3.289,3.387,3.387,0,0,1,2.738-1.219A3.229,3.229,0,0,1,220.18,9.34a4.057,4.057,0,0,1,.938,2.793v.82h-5.9a3.394,3.394,0,0,0,.762,2.289,2.634,2.634,0,0,0,2.035.781,6.9,6.9,0,0,0,2.734-.578V16.6a6.863,6.863,0,0,1-1.3.426A7.31,7.31,0,0,1,217.969,17.156Zm-.352-7.789a2.118,2.118,0,0,0-1.645.672,3.1,3.1,0,0,0-.723,1.859h4.477a2.851,2.851,0,0,0-.547-1.879A1.925,1.925,0,0,0,217.617,9.367Zm11.234,5.3a2.145,2.145,0,0,1-.891,1.844,4.186,4.186,0,0,1-2.5.648,5.436,5.436,0,0,1-2.656-.539v-1.2a6.423,6.423,0,0,0,1.324.492,5.53,5.53,0,0,0,1.363.18,3.092,3.092,0,0,0,1.563-.324,1.116,1.116,0,0,0,.113-1.844,6.82,6.82,0,0,0-1.691-.84,9.172,9.172,0,0,1-1.7-.777,2.321,2.321,0,0,1-.75-.754,1.966,1.966,0,0,1-.246-1.008,1.921,1.921,0,0,1,.852-1.652,3.968,3.968,0,0,1,2.336-.605,6.835,6.835,0,0,1,2.7.563L228.211,9.9a6.2,6.2,0,0,0-2.336-.531,2.688,2.688,0,0,0-1.391.289.894.894,0,0,0-.469.8.971.971,0,0,0,.176.586,1.735,1.735,0,0,0,.566.461,12.659,12.659,0,0,0,1.5.633,5.6,5.6,0,0,1,2.059,1.117A1.97,1.97,0,0,1,228.852,14.664Zm5.727,2.492a3.934,3.934,0,0,1-3-1.156,4.476,4.476,0,0,1-1.1-3.211A4.964,4.964,0,0,1,231.5,9.5a3.387,3.387,0,0,1,2.738-1.219,3.229,3.229,0,0,1,2.547,1.059,4.057,4.057,0,0,1,.938,2.793v.82h-5.9a3.394,3.394,0,0,0,.762,2.289,2.634,2.634,0,0,0,2.035.781,6.9,6.9,0,0,0,2.734-.578V16.6a6.863,6.863,0,0,1-1.3.426A7.31,7.31,0,0,1,234.578,17.156Zm-.352-7.789a2.118,2.118,0,0,0-1.645.672,3.1,3.1,0,0,0-.723,1.859h4.477a2.851,2.851,0,0,0-.547-1.879A1.925,1.925,0,0,0,234.227,9.367ZM245.2,17l-.258-1.219h-.062a3.6,3.6,0,0,1-1.277,1.09,3.893,3.893,0,0,1-1.59.285,2.86,2.86,0,0,1-2-.656,2.394,2.394,0,0,1-.723-1.867q0-2.594,4.148-2.719l1.453-.047v-.531a2.171,2.171,0,0,0-.434-1.488,1.783,1.783,0,0,0-1.387-.48,5.65,5.65,0,0,0-2.422.656l-.4-.992a6.094,6.094,0,0,1,1.387-.539,6.006,6.006,0,0,1,1.512-.2,3.262,3.262,0,0,1,2.27.68,2.837,2.837,0,0,1,.738,2.18V17Zm-2.93-.914a2.632,2.632,0,0,0,1.9-.664,2.457,2.457,0,0,0,.691-1.859v-.773l-1.3.055a4.717,4.717,0,0,0-2.23.48,1.449,1.449,0,0,0-.684,1.324,1.336,1.336,0,0,0,.426,1.07A1.767,1.767,0,0,0,242.273,16.086Zm14.336,1.07a3.934,3.934,0,0,1-3-1.156,4.476,4.476,0,0,1-1.1-3.211,4.964,4.964,0,0,1,1.02-3.289,3.387,3.387,0,0,1,2.738-1.219A3.229,3.229,0,0,1,258.82,9.34a4.057,4.057,0,0,1,.938,2.793v.82h-5.9a3.394,3.394,0,0,0,.762,2.289,2.634,2.634,0,0,0,2.035.781,6.9,6.9,0,0,0,2.734-.578V16.6a6.864,6.864,0,0,1-1.3.426A7.31,7.31,0,0,1,256.609,17.156Zm-.352-7.789a2.118,2.118,0,0,0-1.645.672,3.1,3.1,0,0,0-.723,1.859h4.477a2.851,2.851,0,0,0-.547-1.879A1.925,1.925,0,0,0,256.258,9.367Zm7.773,3.25-2.977-4.18h1.477l2.258,3.281,2.25-3.281H268.5l-2.977,4.18L268.656,17h-1.469l-2.4-3.469L262.367,17H260.9Zm10.3,4.539a3.706,3.706,0,0,1-1.527-.309,2.872,2.872,0,0,1-1.16-.949h-.094a11.485,11.485,0,0,1,.094,1.422v3.523h-1.3V8.438h1.055l.18,1.172h.063a3.012,3.012,0,0,1,1.164-1.016,3.539,3.539,0,0,1,1.523-.312,3.165,3.165,0,0,1,2.629,1.164,5.125,5.125,0,0,1,.926,3.266,5.1,5.1,0,0,1-.941,3.277A3.17,3.17,0,0,1,274.336,17.156Zm-.187-7.773a2.3,2.3,0,0,0-1.9.727,3.739,3.739,0,0,0-.6,2.313v.289a4.285,4.285,0,0,0,.6,2.582,2.288,2.288,0,0,0,1.93.777,2.007,2.007,0,0,0,1.738-.9,4.26,4.26,0,0,0,.629-2.477,4.1,4.1,0,0,0-.629-2.457A2.069,2.069,0,0,0,274.148,9.383Zm9.914-1.1a5.075,5.075,0,0,1,1.023.094l-.18,1.2a4.417,4.417,0,0,0-.937-.117,2.282,2.282,0,0,0-1.777.844,3.077,3.077,0,0,0-.738,2.1V17h-1.3V8.438h1.07l.148,1.586h.063a3.764,3.764,0,0,1,1.148-1.289A2.585,2.585,0,0,1,284.063,8.281Zm6.242,8.875a3.934,3.934,0,0,1-3-1.156,4.476,4.476,0,0,1-1.1-3.211A4.964,4.964,0,0,1,287.23,9.5a3.387,3.387,0,0,1,2.738-1.219,3.229,3.229,0,0,1,2.547,1.059,4.057,4.057,0,0,1,.938,2.793v.82h-5.9a3.394,3.394,0,0,0,.762,2.289,2.635,2.635,0,0,0,2.035.781,6.9,6.9,0,0,0,2.734-.578V16.6a6.864,6.864,0,0,1-1.3.426A7.31,7.31,0,0,1,290.3,17.156Zm-.352-7.789a2.118,2.118,0,0,0-1.645.672,3.1,3.1,0,0,0-.723,1.859h4.477a2.851,2.851,0,0,0-.547-1.879A1.925,1.925,0,0,0,289.953,9.367Zm11.234,5.3a2.145,2.145,0,0,1-.891,1.844,4.186,4.186,0,0,1-2.5.648,5.436,5.436,0,0,1-2.656-.539v-1.2a6.424,6.424,0,0,0,1.324.492,5.53,5.53,0,0,0,1.363.18,3.092,3.092,0,0,0,1.563-.324,1.116,1.116,0,0,0,.113-1.844,6.821,6.821,0,0,0-1.691-.84,9.172,9.172,0,0,1-1.7-.777,2.321,2.321,0,0,1-.75-.754,1.966,1.966,0,0,1-.246-1.008,1.921,1.921,0,0,1,.852-1.652,3.968,3.968,0,0,1,2.336-.605,6.835,6.835,0,0,1,2.7.563L300.547,9.9a6.2,6.2,0,0,0-2.336-.531,2.687,2.687,0,0,0-1.391.289.894.894,0,0,0-.469.8.971.971,0,0,0,.176.586,1.735,1.735,0,0,0,.566.461,12.656,12.656,0,0,0,1.5.633,5.6,5.6,0,0,1,2.059,1.117A1.97,1.97,0,0,1,301.188,14.664ZM308.563,17l-.258-1.219h-.062a3.6,3.6,0,0,1-1.277,1.09,3.893,3.893,0,0,1-1.59.285,2.86,2.86,0,0,1-2-.656,2.394,2.394,0,0,1-.723-1.867q0-2.594,4.148-2.719l1.453-.047v-.531a2.171,2.171,0,0,0-.434-1.488,1.783,1.783,0,0,0-1.387-.48,5.65,5.65,0,0,0-2.422.656l-.4-.992A6.094,6.094,0,0,1,305,8.492a6.006,6.006,0,0,1,1.512-.2,3.262,3.262,0,0,1,2.27.68,2.837,2.837,0,0,1,.738,2.18V17Zm-2.93-.914a2.632,2.632,0,0,0,1.9-.664,2.457,2.457,0,0,0,.691-1.859v-.773l-1.3.055a4.717,4.717,0,0,0-2.23.48,1.449,1.449,0,0,0-.684,1.324,1.336,1.336,0,0,0,.426,1.07A1.767,1.767,0,0,0,305.633,16.086Zm10.469-7.8a5.075,5.075,0,0,1,1.023.094l-.18,1.2a4.417,4.417,0,0,0-.937-.117,2.282,2.282,0,0,0-1.777.844,3.077,3.077,0,0,0-.738,2.1V17h-1.3V8.438h1.07l.148,1.586h.063a3.764,3.764,0,0,1,1.148-1.289A2.585,2.585,0,0,1,316.1,8.281ZM328.148,17l-.258-1.219h-.062a3.6,3.6,0,0,1-1.277,1.09,3.893,3.893,0,0,1-1.59.285,2.86,2.86,0,0,1-2-.656,2.394,2.394,0,0,1-.723-1.867q0-2.594,4.148-2.719l1.453-.047v-.531a2.171,2.171,0,0,0-.434-1.488,1.783,1.783,0,0,0-1.387-.48,5.65,5.65,0,0,0-2.422.656l-.4-.992a6.094,6.094,0,0,1,1.387-.539,6.006,6.006,0,0,1,1.512-.2,3.262,3.262,0,0,1,2.27.68,2.837,2.837,0,0,1,.738,2.18V17Zm-2.93-.914a2.632,2.632,0,0,0,1.9-.664,2.457,2.457,0,0,0,.691-1.859v-.773l-1.3.055a4.717,4.717,0,0,0-2.23.48,1.449,1.449,0,0,0-.684,1.324,1.336,1.336,0,0,0,.426,1.07A1.767,1.767,0,0,0,325.219,16.086Zm-227.578,22a4.236,4.236,0,0,0,.664-.051,4.3,4.3,0,0,0,.508-.105v.992a2.371,2.371,0,0,1-.621.168,4.664,4.664,0,0,1-.738.066q-2.484,0-2.484-2.617V31.445H93.742V30.82l1.227-.539.547-1.828h.75v1.984H98.75v1.008H96.266v5.039a1.734,1.734,0,0,0,.367,1.188A1.278,1.278,0,0,0,97.641,38.086Zm6.789-7.8a5.075,5.075,0,0,1,1.023.094l-.18,1.2a4.418,4.418,0,0,0-.937-.117,2.282,2.282,0,0,0-1.777.844,3.077,3.077,0,0,0-.738,2.1V39h-1.3V30.438h1.07l.148,1.586h.063a3.764,3.764,0,0,1,1.148-1.289A2.585,2.585,0,0,1,104.43,30.281ZM112.32,39l-.258-1.219H112a3.6,3.6,0,0,1-1.277,1.09,3.893,3.893,0,0,1-1.59.285,2.86,2.86,0,0,1-2-.656,2.394,2.394,0,0,1-.723-1.867q0-2.594,4.148-2.719l1.453-.047v-.531a2.171,2.171,0,0,0-.434-1.488,1.783,1.783,0,0,0-1.387-.48,5.65,5.65,0,0,0-2.422.656l-.4-.992a6.094,6.094,0,0,1,1.387-.539,6.006,6.006,0,0,1,1.512-.2,3.262,3.262,0,0,1,2.27.68,2.837,2.837,0,0,1,.738,2.18V39Zm-2.93-.914a2.632,2.632,0,0,0,1.9-.664,2.457,2.457,0,0,0,.691-1.859v-.773l-1.3.055a4.717,4.717,0,0,0-2.23.48,1.449,1.449,0,0,0-.684,1.324,1.336,1.336,0,0,0,.426,1.07A1.767,1.767,0,0,0,109.391,38.086Zm8.438.914-3.25-8.562h1.391l1.844,5.078a24.035,24.035,0,0,1,.734,2.313h.063a17.466,17.466,0,0,1,.543-1.715q.457-1.3,2.051-5.676h1.391L119.344,39Zm9.758.156a3.934,3.934,0,0,1-3-1.156,4.476,4.476,0,0,1-1.1-3.211,4.964,4.964,0,0,1,1.02-3.289,3.387,3.387,0,0,1,2.738-1.219A3.229,3.229,0,0,1,129.8,31.34a4.057,4.057,0,0,1,.938,2.793v.82h-5.9a3.394,3.394,0,0,0,.762,2.289,2.635,2.635,0,0,0,2.035.781,6.9,6.9,0,0,0,2.734-.578V38.6a6.863,6.863,0,0,1-1.3.426A7.31,7.31,0,0,1,127.586,39.156Zm-.352-7.789a2.118,2.118,0,0,0-1.645.672,3.1,3.1,0,0,0-.723,1.859h4.477a2.851,2.851,0,0,0-.547-1.879A1.925,1.925,0,0,0,127.234,31.367Zm-.961-2.258q.375-.484.809-1.172a13.411,13.411,0,0,0,.684-1.2h1.578v.164a14.473,14.473,0,0,1-2.2,2.4h-.867Zm12.2,7.555a2.145,2.145,0,0,1-.891,1.844,4.186,4.186,0,0,1-2.5.648,5.436,5.436,0,0,1-2.656-.539v-1.2a6.424,6.424,0,0,0,1.324.492,5.53,5.53,0,0,0,1.363.18,3.092,3.092,0,0,0,1.563-.324,1.116,1.116,0,0,0,.113-1.844,6.82,6.82,0,0,0-1.691-.84,9.172,9.172,0,0,1-1.7-.777,2.321,2.321,0,0,1-.75-.754,1.966,1.966,0,0,1-.246-1.008,1.921,1.921,0,0,1,.852-1.652,3.968,3.968,0,0,1,2.336-.605,6.835,6.835,0,0,1,2.7.563l-.461,1.055a6.2,6.2,0,0,0-2.336-.531,2.688,2.688,0,0,0-1.391.289.894.894,0,0,0-.469.8.971.971,0,0,0,.176.586,1.735,1.735,0,0,0,.566.461,12.659,12.659,0,0,0,1.5.633,5.6,5.6,0,0,1,2.059,1.117A1.97,1.97,0,0,1,138.469,36.664Zm12.094,1.188h-.07a3.047,3.047,0,0,1-2.687,1.3,3.179,3.179,0,0,1-2.613-1.148,5.055,5.055,0,0,1-.934-3.266,5.141,5.141,0,0,1,.938-3.289,3.155,3.155,0,0,1,2.609-1.172,3.114,3.114,0,0,1,2.672,1.266h.1l-.055-.617-.031-.6V26.844h1.3V39h-1.055Zm-2.594.219a2.361,2.361,0,0,0,1.926-.723,3.652,3.652,0,0,0,.6-2.332v-.273a4.3,4.3,0,0,0-.605-2.6,2.3,2.3,0,0,0-1.934-.777,1.985,1.985,0,0,0-1.746.887,4.409,4.409,0,0,0-.605,2.5,4.227,4.227,0,0,0,.6,2.477A2.037,2.037,0,0,0,147.969,38.07Zm10.188,1.086a3.934,3.934,0,0,1-3-1.156,4.476,4.476,0,0,1-1.1-3.211,4.964,4.964,0,0,1,1.02-3.289,3.387,3.387,0,0,1,2.738-1.219,3.229,3.229,0,0,1,2.547,1.059,4.057,4.057,0,0,1,.938,2.793v.82h-5.9a3.394,3.394,0,0,0,.762,2.289,2.634,2.634,0,0,0,2.035.781,6.9,6.9,0,0,0,2.734-.578V38.6a6.863,6.863,0,0,1-1.3.426A7.31,7.31,0,0,1,158.156,39.156Zm-.352-7.789a2.118,2.118,0,0,0-1.645.672,3.1,3.1,0,0,0-.723,1.859h4.477a2.851,2.851,0,0,0-.547-1.879A1.925,1.925,0,0,0,157.8,31.367ZM168.969,39h-1.3V26.844h1.3Zm8.016,0-.258-1.219h-.062a3.6,3.6,0,0,1-1.277,1.09,3.893,3.893,0,0,1-1.59.285,2.86,2.86,0,0,1-2-.656,2.394,2.394,0,0,1-.723-1.867q0-2.594,4.148-2.719l1.453-.047v-.531a2.171,2.171,0,0,0-.434-1.488,1.783,1.783,0,0,0-1.387-.48,5.65,5.65,0,0,0-2.422.656l-.4-.992a6.094,6.094,0,0,1,1.387-.539,6.006,6.006,0,0,1,1.512-.2,3.262,3.262,0,0,1,2.27.68,2.837,2.837,0,0,1,.738,2.18V39Zm-2.93-.914a2.632,2.632,0,0,0,1.9-.664,2.457,2.457,0,0,0,.691-1.859v-.773l-1.3.055a4.717,4.717,0,0,0-2.23.48,1.449,1.449,0,0,0-.684,1.324,1.336,1.336,0,0,0,.426,1.07A1.767,1.767,0,0,0,174.055,38.086Zm12.086-1.422a2.145,2.145,0,0,1-.891,1.844,4.186,4.186,0,0,1-2.5.648,5.436,5.436,0,0,1-2.656-.539v-1.2a6.424,6.424,0,0,0,1.324.492,5.53,5.53,0,0,0,1.363.18,3.092,3.092,0,0,0,1.563-.324,1.116,1.116,0,0,0,.113-1.844,6.82,6.82,0,0,0-1.691-.84,9.172,9.172,0,0,1-1.7-.777,2.321,2.321,0,0,1-.75-.754,1.966,1.966,0,0,1-.246-1.008,1.921,1.921,0,0,1,.852-1.652,3.968,3.968,0,0,1,2.336-.605,6.835,6.835,0,0,1,2.7.563L185.5,31.9a6.2,6.2,0,0,0-2.336-.531,2.688,2.688,0,0,0-1.391.289.894.894,0,0,0-.469.8.971.971,0,0,0,.176.586,1.735,1.735,0,0,0,.566.461,12.659,12.659,0,0,0,1.5.633,5.6,5.6,0,0,1,2.059,1.117A1.97,1.97,0,0,1,186.141,36.664Zm10.25,2.492a3.705,3.705,0,0,1-1.527-.309,2.872,2.872,0,0,1-1.16-.949h-.094a11.485,11.485,0,0,1,.094,1.422v3.523h-1.3V30.438h1.055l.18,1.172h.063a3.012,3.012,0,0,1,1.164-1.016,3.539,3.539,0,0,1,1.523-.312,3.165,3.165,0,0,1,2.629,1.164,5.125,5.125,0,0,1,.926,3.266A5.1,5.1,0,0,1,199,37.988,3.17,3.17,0,0,1,196.391,39.156Zm-.187-7.773a2.3,2.3,0,0,0-1.9.727,3.739,3.739,0,0,0-.6,2.313v.289a4.285,4.285,0,0,0,.6,2.582,2.288,2.288,0,0,0,1.93.777,2.007,2.007,0,0,0,1.738-.9A4.26,4.26,0,0,0,198.6,34.7a4.1,4.1,0,0,0-.629-2.457A2.069,2.069,0,0,0,196.2,31.383Zm9.914-1.1a5.075,5.075,0,0,1,1.023.094l-.18,1.2a4.418,4.418,0,0,0-.937-.117,2.282,2.282,0,0,0-1.777.844,3.077,3.077,0,0,0-.738,2.1V39h-1.3V30.438h1.07l.148,1.586h.063a3.764,3.764,0,0,1,1.148-1.289A2.585,2.585,0,0,1,206.117,30.281Zm6.242,8.875a3.934,3.934,0,0,1-3-1.156,4.476,4.476,0,0,1-1.1-3.211,4.964,4.964,0,0,1,1.02-3.289,3.387,3.387,0,0,1,2.738-1.219,3.229,3.229,0,0,1,2.547,1.059,4.057,4.057,0,0,1,.938,2.793v.82h-5.9a3.394,3.394,0,0,0,.762,2.289,2.634,2.634,0,0,0,2.035.781,6.9,6.9,0,0,0,2.734-.578V38.6a6.863,6.863,0,0,1-1.3.426A7.31,7.31,0,0,1,212.359,39.156Zm-.352-7.789a2.118,2.118,0,0,0-1.645.672,3.1,3.1,0,0,0-.723,1.859h4.477a2.851,2.851,0,0,0-.547-1.879A1.925,1.925,0,0,0,212.008,31.367ZM223.578,39V33.461A2.235,2.235,0,0,0,223.1,31.9a1.941,1.941,0,0,0-1.492-.516,2.461,2.461,0,0,0-1.969.727,3.668,3.668,0,0,0-.625,2.4V39h-1.3V30.438h1.055l.211,1.172h.063a2.648,2.648,0,0,1,1.117-.98,3.63,3.63,0,0,1,1.6-.348,3.252,3.252,0,0,1,2.328.746,3.175,3.175,0,0,1,.781,2.387V39Zm9.789-1.148h-.07a3.047,3.047,0,0,1-2.687,1.3A3.179,3.179,0,0,1,228,38.008a5.055,5.055,0,0,1-.934-3.266A5.141,5.141,0,0,1,228,31.453a3.155,3.155,0,0,1,2.609-1.172,3.114,3.114,0,0,1,2.672,1.266h.1l-.055-.617-.031-.6V26.844h1.3V39h-1.055Zm-2.594.219a2.361,2.361,0,0,0,1.926-.723,3.652,3.652,0,0,0,.6-2.332v-.273a4.3,4.3,0,0,0-.605-2.6,2.3,2.3,0,0,0-1.934-.777,1.985,1.985,0,0,0-1.746.887,4.409,4.409,0,0,0-.605,2.5,4.227,4.227,0,0,0,.6,2.477A2.037,2.037,0,0,0,230.773,38.07Zm11.836.93-.258-1.219h-.062a3.6,3.6,0,0,1-1.277,1.09,3.893,3.893,0,0,1-1.59.285,2.86,2.86,0,0,1-2-.656,2.394,2.394,0,0,1-.723-1.867q0-2.594,4.148-2.719l1.453-.047v-.531a2.171,2.171,0,0,0-.434-1.488,1.783,1.783,0,0,0-1.387-.48,5.65,5.65,0,0,0-2.422.656l-.4-.992a6.094,6.094,0,0,1,1.387-.539,6.006,6.006,0,0,1,1.512-.2,3.262,3.262,0,0,1,2.27.68,2.837,2.837,0,0,1,.738,2.18V39Zm-2.93-.914a2.632,2.632,0,0,0,1.9-.664,2.457,2.457,0,0,0,.691-1.859v-.773l-1.3.055a4.717,4.717,0,0,0-2.23.48,1.449,1.449,0,0,0-.684,1.324,1.336,1.336,0,0,0,.426,1.07A1.767,1.767,0,0,0,239.68,38.086Zm12.086-1.422a2.145,2.145,0,0,1-.891,1.844,4.186,4.186,0,0,1-2.5.648,5.436,5.436,0,0,1-2.656-.539v-1.2a6.424,6.424,0,0,0,1.324.492,5.53,5.53,0,0,0,1.363.18,3.092,3.092,0,0,0,1.563-.324,1.116,1.116,0,0,0,.113-1.844,6.82,6.82,0,0,0-1.691-.84,9.172,9.172,0,0,1-1.7-.777,2.321,2.321,0,0,1-.75-.754,1.966,1.966,0,0,1-.246-1.008,1.921,1.921,0,0,1,.852-1.652,3.968,3.968,0,0,1,2.336-.605,6.835,6.835,0,0,1,2.7.563l-.461,1.055a6.2,6.2,0,0,0-2.336-.531,2.688,2.688,0,0,0-1.391.289.894.894,0,0,0-.469.8.971.971,0,0,0,.176.586,1.735,1.735,0,0,0,.566.461,12.659,12.659,0,0,0,1.5.633,5.6,5.6,0,0,1,2.059,1.117A1.97,1.97,0,0,1,251.766,36.664Z" transform="translate(627 6054.037)" fill="#fff"/>
  </g>
</svg>
