<svg xmlns="http://www.w3.org/2000/svg" width="396" height="239.585" viewBox="0 0 396 239.585">
  <g id="Grupo_70716" data-name="Grupo 70716" transform="translate(-596 -5931.505)">
    <g id="Grupo_11229" data-name="Grupo 11229" transform="translate(596 5931.505)">
      <rect id="Rectángulo_4304" data-name="Rectángulo 4304" width="396" height="93" rx="9.462" transform="translate(0 95.683)" fill="#bf3976"/>
      <g id="Grupo_11227" data-name="Grupo 11227" transform="translate(25.836 137.973)">
        <g id="Grupo_11226" data-name="Grupo 11226">
          <path id="Trazado_8300" data-name="Trazado 8300" d="M560.663,5903.829h-1.434v-10.242h-3.905v-1.18h9.244v1.18h-3.9Z" transform="translate(-555.324 -5891.673)" fill="#fff"/>
          <path id="Trazado_8301" data-name="Trazado 8301" d="M570.118,5903.985a4.434,4.434,0,0,1-3.235-1.156,4.28,4.28,0,0,1-1.185-3.211,4.721,4.721,0,0,1,1.1-3.289,3.785,3.785,0,0,1,2.956-1.219,3.624,3.624,0,0,1,2.75,1.059,3.872,3.872,0,0,1,1.012,2.793v.82h-6.368a3.234,3.234,0,0,0,.823,2.289,2.967,2.967,0,0,0,2.2.781,7.94,7.94,0,0,0,2.952-.578v1.156a7.763,7.763,0,0,1-1.4.426A8.5,8.5,0,0,1,570.118,5903.985Zm-.38-7.789a2.377,2.377,0,0,0-1.775.672,2.979,2.979,0,0,0-.78,1.859h4.833a2.707,2.707,0,0,0-.591-1.879A2.161,2.161,0,0,0,569.738,5896.2Z" transform="translate(-555.324 -5891.673)" fill="#fff"/>
          <path id="Trazado_8302" data-name="Trazado 8302" d="M582.23,5903.829v-5.539a2.128,2.128,0,0,0-.515-1.563,2.2,2.2,0,0,0-1.611-.515,2.776,2.776,0,0,0-2.125.726,3.474,3.474,0,0,0-.675,2.4v4.492h-1.4v-8.563h1.139l.227,1.172h.068a2.8,2.8,0,0,1,1.206-.98,4.177,4.177,0,0,1,1.729-.348,3.694,3.694,0,0,1,2.513.746,3.033,3.033,0,0,1,.844,2.387v5.586Z" transform="translate(-555.324 -5891.673)" fill="#fff"/>
          <path id="Trazado_8303" data-name="Trazado 8303" d="M590.411,5903.985a4.434,4.434,0,0,1-3.235-1.156,4.28,4.28,0,0,1-1.185-3.211,4.721,4.721,0,0,1,1.1-3.289,3.785,3.785,0,0,1,2.956-1.219,3.625,3.625,0,0,1,2.75,1.059,3.872,3.872,0,0,1,1.012,2.793v.82h-6.368a3.238,3.238,0,0,0,.822,2.289,2.968,2.968,0,0,0,2.2.781,7.942,7.942,0,0,0,2.953-.578v1.156a7.764,7.764,0,0,1-1.405.426A8.5,8.5,0,0,1,590.411,5903.985Zm-.38-7.789a2.378,2.378,0,0,0-1.775.672,2.979,2.979,0,0,0-.78,1.859h4.833a2.707,2.707,0,0,0-.591-1.879A2.161,2.161,0,0,0,590.031,5896.2Z" transform="translate(-555.324 -5891.673)" fill="#fff"/>
          <path id="Trazado_8304" data-name="Trazado 8304" d="M600.414,5895.11a5.862,5.862,0,0,1,1.1.094l-.194,1.2a5.13,5.13,0,0,0-1.012-.117,2.543,2.543,0,0,0-1.919.844,2.942,2.942,0,0,0-.8,2.1v4.594h-1.4v-8.563h1.155l.161,1.586h.067a3.879,3.879,0,0,1,1.24-1.289A2.954,2.954,0,0,1,600.414,5895.11Z" transform="translate(-555.324 -5891.673)" fill="#fff"/>
          <path id="Trazado_8305" data-name="Trazado 8305" d="M611.429,5903.985a4.11,4.11,0,0,1-3.108-1.144,4.483,4.483,0,0,1-1.1-3.239,4.619,4.619,0,0,1,1.117-3.32,4.191,4.191,0,0,1,3.184-1.172,6.826,6.826,0,0,1,1.333.133,4.688,4.688,0,0,1,1.045.312l-.43,1.1a7.072,7.072,0,0,0-1.012-.285,4.883,4.883,0,0,0-.97-.113q-2.817,0-2.817,3.328a3.745,3.745,0,0,0,.688,2.422,2.473,2.473,0,0,0,2.036.843,6.641,6.641,0,0,0,2.371-.461v1.149A5.4,5.4,0,0,1,611.429,5903.985Z" transform="translate(-555.324 -5891.673)" fill="#fff"/>
          <path id="Trazado_8306" data-name="Trazado 8306" d="M617.358,5903.829h-1.4v-12.156h1.4Z" transform="translate(-555.324 -5891.673)" fill="#fff"/>
          <path id="Trazado_8307" data-name="Trazado 8307" d="M626.012,5903.829l-.278-1.219h-.068a3.825,3.825,0,0,1-1.379,1.09,4.5,4.5,0,0,1-1.716.285,3.248,3.248,0,0,1-2.155-.656,2.305,2.305,0,0,1-.78-1.867q0-2.594,4.478-2.719l1.569-.047v-.531a2.063,2.063,0,0,0-.468-1.488,2.014,2.014,0,0,0-1.5-.481,6.5,6.5,0,0,0-2.615.656l-.43-.992a7.146,7.146,0,0,1,3.129-.734,3.717,3.717,0,0,1,2.451.679,2.718,2.718,0,0,1,.8,2.18v5.844Zm-3.163-.914a2.98,2.98,0,0,0,2.054-.664,2.359,2.359,0,0,0,.746-1.86v-.773l-1.4.055a5.429,5.429,0,0,0-2.408.48,1.424,1.424,0,0,0-.738,1.324,1.291,1.291,0,0,0,.46,1.071A2.008,2.008,0,0,0,622.849,5902.915Z" transform="translate(-551.51 -5891.673)" fill="#fff"/>
          <path id="Trazado_8308" data-name="Trazado 8308" d="M634.151,5895.11a5.854,5.854,0,0,1,1.1.094l-.194,1.2a5.13,5.13,0,0,0-1.012-.117,2.545,2.545,0,0,0-1.919.844,2.942,2.942,0,0,0-.8,2.1v4.594h-1.4v-8.563h1.156l.16,1.586h.067a3.888,3.888,0,0,1,1.24-1.289A2.954,2.954,0,0,1,634.151,5895.11Z" transform="translate(-550.928 -5891.673)" fill="#fff"/>
          <path id="Trazado_8309" data-name="Trazado 8309" d="M636.867,5892.946a.824.824,0,0,1,.236-.652.927.927,0,0,1,1.173,0,.809.809,0,0,1,.244.648.822.822,0,0,1-.244.652.852.852,0,0,1-.582.215.781.781,0,0,1-.827-.867Zm1.518,10.883h-1.4v-8.563h1.4Z" transform="translate(-550.574 -5891.673)" fill="#fff"/>
          <path id="Trazado_8310" data-name="Trazado 8310" d="M647.646,5902.68h-.076a3.382,3.382,0,0,1-2.9,1.3,3.559,3.559,0,0,1-2.822-1.148,4.8,4.8,0,0,1-1.007-3.266,4.874,4.874,0,0,1,1.012-3.289,3.522,3.522,0,0,1,2.817-1.172,3.464,3.464,0,0,1,2.884,1.266h.11l-.059-.617-.034-.6v-3.484h1.4v12.156h-1.138Zm-2.8.219a2.66,2.66,0,0,0,2.079-.722,3.455,3.455,0,0,0,.645-2.333v-.273a4.054,4.054,0,0,0-.654-2.6,2.579,2.579,0,0,0-2.087-.777,2.2,2.2,0,0,0-1.885.887,4.156,4.156,0,0,0-.654,2.5,3.987,3.987,0,0,0,.65,2.476A2.264,2.264,0,0,0,644.846,5902.9Z" transform="translate(-550.241 -5891.673)" fill="#fff"/>
          <path id="Trazado_8311" data-name="Trazado 8311" d="M657.624,5903.829l-.278-1.219h-.068a3.833,3.833,0,0,1-1.379,1.09,4.5,4.5,0,0,1-1.716.285,3.248,3.248,0,0,1-2.155-.656,2.305,2.305,0,0,1-.78-1.867q0-2.594,4.478-2.719l1.569-.047v-.531a2.063,2.063,0,0,0-.468-1.488,2.014,2.014,0,0,0-1.5-.481,6.492,6.492,0,0,0-2.615.656l-.43-.992a6.9,6.9,0,0,1,1.5-.539,6.994,6.994,0,0,1,1.632-.195,3.712,3.712,0,0,1,2.45.679,2.714,2.714,0,0,1,.8,2.18v5.844Zm-3.163-.914a2.982,2.982,0,0,0,2.054-.664,2.362,2.362,0,0,0,.746-1.86v-.773l-1.4.055a5.429,5.429,0,0,0-2.408.48,1.424,1.424,0,0,0-.738,1.324,1.288,1.288,0,0,0,.46,1.071A2.008,2.008,0,0,0,654.461,5902.915Z" transform="translate(-549.635 -5891.673)" fill="#fff"/>
          <path id="Trazado_8312" data-name="Trazado 8312" d="M667.838,5902.68h-.076a3.383,3.383,0,0,1-2.9,1.3,3.556,3.556,0,0,1-2.821-1.148,4.8,4.8,0,0,1-1.008-3.266,4.879,4.879,0,0,1,1.012-3.289,3.525,3.525,0,0,1,2.817-1.172,3.466,3.466,0,0,1,2.885,1.266h.11l-.059-.617-.034-.6v-3.484h1.4v12.156h-1.139Zm-2.8.219a2.663,2.663,0,0,0,2.079-.722,3.455,3.455,0,0,0,.645-2.333v-.273a4.054,4.054,0,0,0-.654-2.6,2.58,2.58,0,0,0-2.087-.777,2.2,2.2,0,0,0-1.885.887,4.156,4.156,0,0,0-.654,2.5,3.987,3.987,0,0,0,.649,2.476A2.266,2.266,0,0,0,665.038,5902.9Z" transform="translate(-549.041 -5891.673)" fill="#fff"/>
          <path id="Trazado_8313" data-name="Trazado 8313" d="M682.91,5902.68h-.076a3.382,3.382,0,0,1-2.9,1.3,3.558,3.558,0,0,1-2.822-1.148,4.8,4.8,0,0,1-1.008-3.266,4.874,4.874,0,0,1,1.013-3.289,3.522,3.522,0,0,1,2.817-1.172,3.465,3.465,0,0,1,2.884,1.266h.11l-.059-.617-.034-.6v-3.484h1.4v12.156H683.1Zm-2.8.219a2.66,2.66,0,0,0,2.079-.722,3.455,3.455,0,0,0,.645-2.333v-.273a4.054,4.054,0,0,0-.654-2.6,2.579,2.579,0,0,0-2.087-.777,2.2,2.2,0,0,0-1.885.887,4.155,4.155,0,0,0-.654,2.5,3.987,3.987,0,0,0,.65,2.476A2.264,2.264,0,0,0,680.11,5902.9Z" transform="translate(-548.145 -5891.673)" fill="#fff"/>
          <path id="Trazado_8314" data-name="Trazado 8314" d="M691.108,5903.985a4.436,4.436,0,0,1-3.235-1.156,4.28,4.28,0,0,1-1.184-3.211,4.721,4.721,0,0,1,1.1-3.289,3.785,3.785,0,0,1,2.956-1.219,3.624,3.624,0,0,1,2.75,1.059,3.872,3.872,0,0,1,1.012,2.793v.82h-6.368a3.234,3.234,0,0,0,.823,2.289,2.967,2.967,0,0,0,2.2.781,7.941,7.941,0,0,0,2.952-.578v1.156a7.764,7.764,0,0,1-1.405.426A8.5,8.5,0,0,1,691.108,5903.985Zm-.379-7.789a2.378,2.378,0,0,0-1.776.672,2.979,2.979,0,0,0-.78,1.859h4.833a2.707,2.707,0,0,0-.591-1.879A2.16,2.16,0,0,0,690.729,5896.2Z" transform="translate(-547.523 -5891.673)" fill="#fff"/>
          <path id="Trazado_8315" data-name="Trazado 8315" d="M704.662,5903.985a3.489,3.489,0,0,1-2.792-1.164,4.82,4.82,0,0,1-1-3.25,4.878,4.878,0,0,1,1.012-3.281,3.515,3.515,0,0,1,2.817-1.18,3.463,3.463,0,0,1,2.918,1.328h.076l.2-1.172H709v12.407h-1.4v-3.664a8.08,8.08,0,0,1,.093-1.329h-.11A3.4,3.4,0,0,1,704.662,5903.985Zm.211-1.086a2.655,2.655,0,0,0,2.041-.695,3.571,3.571,0,0,0,.683-2.344v-.289a4.039,4.039,0,0,0-.658-2.586,2.562,2.562,0,0,0-2.083-.789,2.2,2.2,0,0,0-1.885.887,4.155,4.155,0,0,0-.654,2.5,4.01,4.01,0,0,0,.646,2.465A2.248,2.248,0,0,0,704.873,5902.9Z" transform="translate(-546.673 -5891.673)" fill="#fff"/>
          <path id="Trazado_8316" data-name="Trazado 8316" d="M713.282,5895.266v5.555a2.128,2.128,0,0,0,.514,1.563,2.2,2.2,0,0,0,1.611.515,2.745,2.745,0,0,0,2.122-.734,3.506,3.506,0,0,0,.67-2.4v-4.5h1.4v8.563h-1.155l-.2-1.149h-.076a2.723,2.723,0,0,1-1.193.969,4.281,4.281,0,0,1-1.742.336,3.721,3.721,0,0,1-2.526-.742,3.021,3.021,0,0,1-.839-2.375v-5.6Z" transform="translate(-546.031 -5891.673)" fill="#fff"/>
          <path id="Trazado_8317" data-name="Trazado 8317" d="M726.473,5903.985a4.431,4.431,0,0,1-3.234-1.156,4.28,4.28,0,0,1-1.185-3.211,4.721,4.721,0,0,1,1.1-3.289,3.786,3.786,0,0,1,2.957-1.219,3.623,3.623,0,0,1,2.749,1.059,3.872,3.872,0,0,1,1.012,2.793v.82H723.5a3.234,3.234,0,0,0,.823,2.289,2.967,2.967,0,0,0,2.2.781,7.941,7.941,0,0,0,2.952-.578v1.156a7.764,7.764,0,0,1-1.405.426A8.5,8.5,0,0,1,726.473,5903.985Zm-.379-7.789a2.38,2.38,0,0,0-1.776.672,2.979,2.979,0,0,0-.78,1.859h4.833a2.707,2.707,0,0,0-.591-1.879A2.159,2.159,0,0,0,726.094,5896.2Z" transform="translate(-545.423 -5891.673)" fill="#fff"/>
          <path id="Trazado_8318" data-name="Trazado 8318" d="M742.709,5901.493a2.093,2.093,0,0,1-.961,1.844,4.8,4.8,0,0,1-2.7.648,6.265,6.265,0,0,1-2.868-.539v-1.2a7.3,7.3,0,0,0,1.43.492,6.4,6.4,0,0,0,1.471.18,3.557,3.557,0,0,0,1.687-.324,1.072,1.072,0,0,0,.123-1.844,7.585,7.585,0,0,0-1.826-.84,10.331,10.331,0,0,1-1.835-.777,2.427,2.427,0,0,1-.81-.754,1.854,1.854,0,0,1-.265-1.008,1.882,1.882,0,0,1,.919-1.652,4.544,4.544,0,0,1,2.522-.606,7.885,7.885,0,0,1,2.918.563l-.5,1.054a7.158,7.158,0,0,0-2.522-.531,3.107,3.107,0,0,0-1.5.289.887.887,0,0,0-.506.8.924.924,0,0,0,.19.586,1.848,1.848,0,0,0,.612.461,14.217,14.217,0,0,0,1.619.633,6.209,6.209,0,0,1,2.223,1.117A1.892,1.892,0,0,1,742.709,5901.493Z" transform="translate(-544.629 -5891.673)" fill="#fff"/>
          <path id="Trazado_8319" data-name="Trazado 8319" d="M748.892,5903.985a4.432,4.432,0,0,1-3.235-1.156,4.28,4.28,0,0,1-1.185-3.211,4.721,4.721,0,0,1,1.1-3.289,3.785,3.785,0,0,1,2.956-1.219,3.625,3.625,0,0,1,2.75,1.059,3.876,3.876,0,0,1,1.012,2.793v.82h-6.368a3.238,3.238,0,0,0,.822,2.289,2.968,2.968,0,0,0,2.2.781,7.936,7.936,0,0,0,2.952-.578v1.156a7.778,7.778,0,0,1-1.4.426A8.5,8.5,0,0,1,748.892,5903.985Zm-.38-7.789a2.378,2.378,0,0,0-1.775.672,2.974,2.974,0,0,0-.781,1.859h4.833a2.712,2.712,0,0,0-.59-1.879A2.162,2.162,0,0,0,748.512,5896.2Z" transform="translate(-544.092 -5891.673)" fill="#fff"/>
          <path id="Trazado_8320" data-name="Trazado 8320" d="M765.457,5902.68h-.076a3.383,3.383,0,0,1-2.9,1.3,3.556,3.556,0,0,1-2.821-1.148,4.8,4.8,0,0,1-1.008-3.266,4.879,4.879,0,0,1,1.012-3.289,3.525,3.525,0,0,1,2.817-1.172,3.466,3.466,0,0,1,2.885,1.266h.11l-.059-.617-.034-.6v-3.484h1.4v12.156h-1.139Zm-2.8.219a2.664,2.664,0,0,0,2.08-.722,3.455,3.455,0,0,0,.645-2.333v-.273a4.054,4.054,0,0,0-.654-2.6,2.581,2.581,0,0,0-2.087-.777,2.2,2.2,0,0,0-1.885.887,4.155,4.155,0,0,0-.654,2.5,3.987,3.987,0,0,0,.649,2.476A2.265,2.265,0,0,0,762.656,5902.9Z" transform="translate(-543.238 -5891.673)" fill="#fff"/>
          <path id="Trazado_8321" data-name="Trazado 8321" d="M773.655,5903.985a4.434,4.434,0,0,1-3.235-1.156,4.28,4.28,0,0,1-1.185-3.211,4.721,4.721,0,0,1,1.1-3.289,3.785,3.785,0,0,1,2.956-1.219,3.625,3.625,0,0,1,2.75,1.059,3.872,3.872,0,0,1,1.012,2.793v.82h-6.368a3.238,3.238,0,0,0,.822,2.289,2.968,2.968,0,0,0,2.2.781,7.933,7.933,0,0,0,2.952-.578v1.156a7.73,7.73,0,0,1-1.4.426A8.5,8.5,0,0,1,773.655,5903.985Zm-.38-7.789a2.378,2.378,0,0,0-1.775.672,2.968,2.968,0,0,0-.78,1.859h4.833a2.707,2.707,0,0,0-.591-1.879A2.161,2.161,0,0,0,773.275,5896.2Z" transform="translate(-542.622 -5891.673)" fill="#fff"/>
          <path id="Trazado_8322" data-name="Trazado 8322" d="M785.4,5901.493a2.094,2.094,0,0,1-.962,1.844,4.794,4.794,0,0,1-2.7.648,6.264,6.264,0,0,1-2.867-.539v-1.2a7.289,7.289,0,0,0,1.429.492,6.407,6.407,0,0,0,1.472.18,3.56,3.56,0,0,0,1.687-.324,1.059,1.059,0,0,0,.59-.989,1.048,1.048,0,0,0-.468-.855,7.586,7.586,0,0,0-1.826-.84,10.313,10.313,0,0,1-1.834-.777,2.418,2.418,0,0,1-.81-.754,1.855,1.855,0,0,1-.266-1.008,1.883,1.883,0,0,1,.92-1.652,4.542,4.542,0,0,1,2.522-.606,7.885,7.885,0,0,1,2.918.563l-.5,1.054a7.153,7.153,0,0,0-2.522-.531,3.1,3.1,0,0,0-1.5.289.887.887,0,0,0-.506.8.918.918,0,0,0,.19.586,1.843,1.843,0,0,0,.611.461,14.173,14.173,0,0,0,1.62.633,6.2,6.2,0,0,1,2.222,1.117A1.893,1.893,0,0,1,785.4,5901.493Z" transform="translate(-542.103 -5891.673)" fill="#fff"/>
          <path id="Trazado_8323" data-name="Trazado 8323" d="M791.586,5903.985a4.431,4.431,0,0,1-3.234-1.156,4.28,4.28,0,0,1-1.185-3.211,4.725,4.725,0,0,1,1.1-3.289,3.787,3.787,0,0,1,2.957-1.219,3.623,3.623,0,0,1,2.749,1.059,3.872,3.872,0,0,1,1.012,2.793v.82h-6.368a3.239,3.239,0,0,0,.823,2.289,2.967,2.967,0,0,0,2.2.781,7.94,7.94,0,0,0,2.952-.578v1.156a7.78,7.78,0,0,1-1.4.426A8.516,8.516,0,0,1,791.586,5903.985Zm-.379-7.789a2.38,2.38,0,0,0-1.776.672,2.978,2.978,0,0,0-.78,1.859h4.833a2.712,2.712,0,0,0-.59-1.879A2.162,2.162,0,0,0,791.207,5896.2Z" transform="translate(-541.557 -5891.673)" fill="#fff"/>
          <path id="Trazado_8324" data-name="Trazado 8324" d="M803.057,5903.829l-.278-1.219h-.068a3.833,3.833,0,0,1-1.379,1.09,4.5,4.5,0,0,1-1.716.285,3.248,3.248,0,0,1-2.155-.656,2.305,2.305,0,0,1-.78-1.867q0-2.594,4.478-2.719l1.569-.047v-.531a2.063,2.063,0,0,0-.468-1.488,2.014,2.014,0,0,0-1.5-.481,6.492,6.492,0,0,0-2.615.656l-.43-.992a6.9,6.9,0,0,1,1.5-.539,6.993,6.993,0,0,1,1.632-.195,3.712,3.712,0,0,1,2.45.679,2.714,2.714,0,0,1,.8,2.18v5.844Zm-3.163-.914a2.98,2.98,0,0,0,2.054-.664,2.362,2.362,0,0,0,.746-1.86v-.773l-1.4.055a5.429,5.429,0,0,0-2.408.48,1.424,1.424,0,0,0-.738,1.324,1.288,1.288,0,0,0,.46,1.071A2.008,2.008,0,0,0,799.894,5902.915Z" transform="translate(-541.01 -5891.673)" fill="#fff"/>
          <path id="Trazado_8325" data-name="Trazado 8325" d="M815.371,5903.985a4.434,4.434,0,0,1-3.235-1.156,4.28,4.28,0,0,1-1.185-3.211,4.721,4.721,0,0,1,1.1-3.289,3.785,3.785,0,0,1,2.956-1.219,3.624,3.624,0,0,1,2.75,1.059,3.872,3.872,0,0,1,1.012,2.793v.82H812.4a3.234,3.234,0,0,0,.823,2.289,2.967,2.967,0,0,0,2.2.781,7.941,7.941,0,0,0,2.952-.578v1.156a7.764,7.764,0,0,1-1.405.426A8.5,8.5,0,0,1,815.371,5903.985Zm-.379-7.789a2.378,2.378,0,0,0-1.776.672,2.979,2.979,0,0,0-.78,1.859h4.833a2.707,2.707,0,0,0-.591-1.879A2.16,2.16,0,0,0,814.992,5896.2Z" transform="translate(-540.145 -5891.673)" fill="#fff"/>
          <path id="Trazado_8326" data-name="Trazado 8326" d="M823.384,5899.446l-3.214-4.18h1.594l2.438,3.282,2.429-3.282h1.577l-3.213,4.18,3.382,4.383h-1.586l-2.589-3.469-2.615,3.469H820Z" transform="translate(-536.467 -5891.673)" fill="#fff"/>
          <path id="Trazado_8327" data-name="Trazado 8327" d="M834.508,5903.985a4.283,4.283,0,0,1-1.648-.308,3.062,3.062,0,0,1-1.253-.95h-.1a10.728,10.728,0,0,1,.1,1.422v3.524h-1.4v-12.407h1.139l.194,1.172h.067a3.19,3.19,0,0,1,1.257-1.015,4.085,4.085,0,0,1,1.644-.313,3.54,3.54,0,0,1,2.839,1.164,5.815,5.815,0,0,1-.017,6.543A3.542,3.542,0,0,1,834.508,5903.985Zm-.2-7.773a2.586,2.586,0,0,0-2.049.726,3.536,3.536,0,0,0-.65,2.313v.289a4.04,4.04,0,0,0,.65,2.582,2.567,2.567,0,0,0,2.083.777,2.222,2.222,0,0,0,1.877-.9,4.029,4.029,0,0,0,.678-2.477,3.88,3.88,0,0,0-.678-2.457A2.3,2.3,0,0,0,834.306,5896.212Z" transform="translate(-536.467 -5891.673)" fill="#fff"/>
          <path id="Trazado_8328" data-name="Trazado 8328" d="M845.009,5895.11a5.855,5.855,0,0,1,1.105.094l-.194,1.2a5.129,5.129,0,0,0-1.012-.117,2.545,2.545,0,0,0-1.919.844,2.942,2.942,0,0,0-.8,2.1v4.594h-1.4v-8.563h1.156l.16,1.586h.067a3.889,3.889,0,0,1,1.24-1.289A2.954,2.954,0,0,1,845.009,5895.11Z" transform="translate(-536.467 -5891.673)" fill="#fff"/>
          <path id="Trazado_8329" data-name="Trazado 8329" d="M851.748,5903.985a4.432,4.432,0,0,1-3.234-1.156,4.28,4.28,0,0,1-1.185-3.211,4.725,4.725,0,0,1,1.1-3.289,3.787,3.787,0,0,1,2.957-1.219,3.623,3.623,0,0,1,2.749,1.059,3.872,3.872,0,0,1,1.012,2.793v.82h-6.368a3.234,3.234,0,0,0,.823,2.289,2.967,2.967,0,0,0,2.2.781,7.94,7.94,0,0,0,2.952-.578v1.156a7.778,7.778,0,0,1-1.4.426A8.515,8.515,0,0,1,851.748,5903.985Zm-.379-7.789a2.38,2.38,0,0,0-1.776.672,2.979,2.979,0,0,0-.78,1.859h4.833a2.707,2.707,0,0,0-.591-1.879A2.159,2.159,0,0,0,851.369,5896.2Z" transform="translate(-536.467 -5891.673)" fill="#fff"/>
          <path id="Trazado_8330" data-name="Trazado 8330" d="M863.5,5901.493a2.093,2.093,0,0,1-.961,1.844,4.8,4.8,0,0,1-2.7.648,6.265,6.265,0,0,1-2.868-.539v-1.2a7.3,7.3,0,0,0,1.43.492,6.4,6.4,0,0,0,1.471.18,3.557,3.557,0,0,0,1.687-.324,1.072,1.072,0,0,0,.123-1.844,7.586,7.586,0,0,0-1.826-.84,10.332,10.332,0,0,1-1.835-.777,2.429,2.429,0,0,1-.81-.754,1.854,1.854,0,0,1-.265-1.008,1.882,1.882,0,0,1,.919-1.652,4.545,4.545,0,0,1,2.522-.606,7.884,7.884,0,0,1,2.918.563l-.5,1.054a7.158,7.158,0,0,0-2.522-.531,3.107,3.107,0,0,0-1.5.289.887.887,0,0,0-.506.8.924.924,0,0,0,.19.586,1.848,1.848,0,0,0,.612.461,14.212,14.212,0,0,0,1.619.633,6.208,6.208,0,0,1,2.223,1.117A1.892,1.892,0,0,1,863.5,5901.493Z" transform="translate(-536.467 -5891.673)" fill="#fff"/>
          <path id="Trazado_8331" data-name="Trazado 8331" d="M871.459,5903.829l-.278-1.219h-.068a3.825,3.825,0,0,1-1.379,1.09,4.5,4.5,0,0,1-1.716.285,3.249,3.249,0,0,1-2.155-.656,2.305,2.305,0,0,1-.78-1.867q0-2.594,4.478-2.719l1.569-.047v-.531a2.063,2.063,0,0,0-.468-1.488,2.014,2.014,0,0,0-1.5-.481,6.5,6.5,0,0,0-2.615.656l-.43-.992a7.146,7.146,0,0,1,3.129-.734,3.717,3.717,0,0,1,2.451.679,2.718,2.718,0,0,1,.8,2.18v5.844Zm-3.163-.914a2.98,2.98,0,0,0,2.054-.664,2.359,2.359,0,0,0,.747-1.86v-.773l-1.4.055a5.429,5.429,0,0,0-2.408.48,1.424,1.424,0,0,0-.738,1.324,1.291,1.291,0,0,0,.46,1.071A2.008,2.008,0,0,0,868.3,5902.915Z" transform="translate(-536.467 -5891.673)" fill="#fff"/>
          <path id="Trazado_8332" data-name="Trazado 8332" d="M879.6,5895.11a5.854,5.854,0,0,1,1.1.094l-.194,1.2a5.129,5.129,0,0,0-1.012-.117,2.545,2.545,0,0,0-1.919.844,2.942,2.942,0,0,0-.8,2.1v4.594h-1.4v-8.563h1.156l.16,1.586h.067a3.889,3.889,0,0,1,1.24-1.289A2.954,2.954,0,0,1,879.6,5895.11Z" transform="translate(-536.467 -5891.673)" fill="#fff"/>
          <path id="Trazado_8333" data-name="Trazado 8333" d="M632.355,5925.829l-.279-1.219h-.067a3.833,3.833,0,0,1-1.379,1.09,4.509,4.509,0,0,1-1.717.285,3.252,3.252,0,0,1-2.155-.656,2.305,2.305,0,0,1-.78-1.867q0-2.594,4.479-2.719l1.569-.047v-.531a2.063,2.063,0,0,0-.468-1.488,2.017,2.017,0,0,0-1.5-.481,6.492,6.492,0,0,0-2.614.656l-.43-.992a6.9,6.9,0,0,1,1.5-.539,6.981,6.981,0,0,1,1.632-.195,3.712,3.712,0,0,1,2.45.679,2.718,2.718,0,0,1,.8,2.18v5.844Zm-3.163-.914a2.982,2.982,0,0,0,2.054-.664,2.362,2.362,0,0,0,.746-1.86v-.773l-1.4.055a5.429,5.429,0,0,0-2.408.48,1.424,1.424,0,0,0-.738,1.324,1.288,1.288,0,0,0,.46,1.071A2.008,2.008,0,0,0,629.192,5924.915Z" transform="translate(-551.134 -5891.673)" fill="#fff"/>
          <path id="Trazado_8334" data-name="Trazado 8334" d="M643.749,5924.915a4.874,4.874,0,0,0,.717-.051,5.021,5.021,0,0,0,.549-.1v.992a2.752,2.752,0,0,1-.671.168,5.464,5.464,0,0,1-.8.066q-2.682,0-2.682-2.617v-5.094h-1.324v-.625l1.324-.539.59-1.828h.81v1.984h2.682v1.008h-2.682v5.039a1.651,1.651,0,0,0,.4,1.188A1.437,1.437,0,0,0,643.749,5924.915Z" transform="translate(-550.36 -5891.673)" fill="#fff"/>
          <path id="Trazado_8335" data-name="Trazado 8335" d="M651.079,5917.11a5.863,5.863,0,0,1,1.105.094l-.194,1.2a5.138,5.138,0,0,0-1.012-.117,2.543,2.543,0,0,0-1.919.844,2.942,2.942,0,0,0-.8,2.1v4.594h-1.4v-8.563h1.155l.16,1.586h.068a3.879,3.879,0,0,1,1.24-1.289A2.952,2.952,0,0,1,651.079,5917.11Z" transform="translate(-549.931 -5891.673)" fill="#fff"/>
          <path id="Trazado_8336" data-name="Trazado 8336" d="M659.6,5925.829l-.278-1.219h-.067a3.842,3.842,0,0,1-1.379,1.09,4.509,4.509,0,0,1-1.717.285,3.25,3.25,0,0,1-2.155-.656,2.305,2.305,0,0,1-.78-1.867q0-2.594,4.479-2.719l1.569-.047v-.531a2.059,2.059,0,0,0-.469-1.488,2.014,2.014,0,0,0-1.5-.481,6.488,6.488,0,0,0-2.614.656l-.431-.992a7.154,7.154,0,0,1,3.13-.734,3.714,3.714,0,0,1,2.45.679,2.718,2.718,0,0,1,.8,2.18v5.844Zm-3.162-.914a2.977,2.977,0,0,0,2.053-.664,2.359,2.359,0,0,0,.747-1.86v-.773l-1.4.055a5.425,5.425,0,0,0-2.408.48,1.424,1.424,0,0,0-.738,1.324,1.29,1.29,0,0,0,.459,1.071A2.011,2.011,0,0,0,656.435,5924.915Z" transform="translate(-549.518 -5891.673)" fill="#fff"/>
          <path id="Trazado_8337" data-name="Trazado 8337" d="M665.544,5925.829l-3.509-8.563h1.5l1.991,5.078a22.851,22.851,0,0,1,.793,2.313h.067a16.486,16.486,0,0,1,.586-1.715q.493-1.3,2.214-5.676h1.5l-3.509,8.563Z" transform="translate(-548.971 -5891.673)" fill="#fff"/>
          <path id="Trazado_8338" data-name="Trazado 8338" d="M676.078,5925.985a4.434,4.434,0,0,1-3.235-1.156,4.279,4.279,0,0,1-1.184-3.211,4.721,4.721,0,0,1,1.1-3.289,3.785,3.785,0,0,1,2.956-1.219,3.624,3.624,0,0,1,2.75,1.059,3.872,3.872,0,0,1,1.012,2.793v.82h-6.368a3.234,3.234,0,0,0,.823,2.289,2.967,2.967,0,0,0,2.2.781,7.94,7.94,0,0,0,2.952-.578v1.156a7.765,7.765,0,0,1-1.4.426A8.5,8.5,0,0,1,676.078,5925.985Zm-.379-7.789a2.378,2.378,0,0,0-1.776.672,2.979,2.979,0,0,0-.78,1.859h4.833a2.707,2.707,0,0,0-.591-1.879A2.16,2.16,0,0,0,675.7,5918.2Zm-1.038-2.258q.405-.484.873-1.172a13.056,13.056,0,0,0,.738-1.2h1.7v.164a11.767,11.767,0,0,1-1.105,1.25,12.127,12.127,0,0,1-1.274,1.149h-.936Z" transform="translate(-548.416 -5891.673)" fill="#fff"/>
          <path id="Trazado_8339" data-name="Trazado 8339" d="M687.827,5923.493a2.093,2.093,0,0,1-.961,1.844,4.8,4.8,0,0,1-2.7.648,6.265,6.265,0,0,1-2.868-.539v-1.2a7.3,7.3,0,0,0,1.43.492,6.392,6.392,0,0,0,1.471.18,3.56,3.56,0,0,0,1.687-.324,1.058,1.058,0,0,0,.591-.989,1.046,1.046,0,0,0-.469-.855,7.564,7.564,0,0,0-1.826-.84,10.346,10.346,0,0,1-1.834-.777,2.419,2.419,0,0,1-.81-.754,1.854,1.854,0,0,1-.265-1.008,1.882,1.882,0,0,1,.919-1.652,4.542,4.542,0,0,1,2.522-.606,7.884,7.884,0,0,1,2.918.563l-.5,1.054a7.148,7.148,0,0,0-2.521-.531,3.107,3.107,0,0,0-1.5.289.887.887,0,0,0-.506.8.924.924,0,0,0,.19.586,1.847,1.847,0,0,0,.612.461,14.137,14.137,0,0,0,1.619.633,6.2,6.2,0,0,1,2.222,1.117A1.893,1.893,0,0,1,687.827,5923.493Z" transform="translate(-547.875 -5891.673)" fill="#fff"/>
          <path id="Trazado_8340" data-name="Trazado 8340" d="M700.883,5924.68h-.076a3.38,3.38,0,0,1-2.9,1.3,3.556,3.556,0,0,1-2.821-1.148,4.8,4.8,0,0,1-1.008-3.266,4.874,4.874,0,0,1,1.012-3.289,3.525,3.525,0,0,1,2.817-1.172,3.464,3.464,0,0,1,2.884,1.266h.11l-.059-.617-.034-.6v-3.484h1.4v12.156h-1.138Zm-2.8.219a2.66,2.66,0,0,0,2.079-.722,3.455,3.455,0,0,0,.645-2.333v-.273a4.061,4.061,0,0,0-.653-2.6,2.582,2.582,0,0,0-2.088-.777,2.2,2.2,0,0,0-1.885.887,4.156,4.156,0,0,0-.653,2.5,3.987,3.987,0,0,0,.649,2.476A2.264,2.264,0,0,0,698.083,5924.9Z" transform="translate(-547.077 -5891.673)" fill="#fff"/>
          <path id="Trazado_8341" data-name="Trazado 8341" d="M709.081,5925.985a4.432,4.432,0,0,1-3.234-1.156,4.28,4.28,0,0,1-1.185-3.211,4.721,4.721,0,0,1,1.1-3.289,3.784,3.784,0,0,1,2.956-1.219,3.622,3.622,0,0,1,2.749,1.059,3.872,3.872,0,0,1,1.013,2.793v.82h-6.368a3.238,3.238,0,0,0,.822,2.289,2.967,2.967,0,0,0,2.2.781,7.94,7.94,0,0,0,2.952-.578v1.156a7.78,7.78,0,0,1-1.4.426A8.509,8.509,0,0,1,709.081,5925.985Zm-.379-7.789a2.381,2.381,0,0,0-1.776.672,2.978,2.978,0,0,0-.78,1.859h4.833a2.712,2.712,0,0,0-.59-1.879A2.162,2.162,0,0,0,708.7,5918.2Z" transform="translate(-546.456 -5891.673)" fill="#fff"/>
          <path id="Trazado_8342" data-name="Trazado 8342" d="M720.755,5925.829h-1.4v-12.156h1.4Z" transform="translate(-545.777 -5891.673)" fill="#fff"/>
          <path id="Trazado_8343" data-name="Trazado 8343" d="M729.408,5925.829l-.278-1.219h-.068a3.824,3.824,0,0,1-1.379,1.09,4.5,4.5,0,0,1-1.716.285,3.248,3.248,0,0,1-2.155-.656,2.305,2.305,0,0,1-.78-1.867q0-2.594,4.478-2.719l1.569-.047v-.531a2.063,2.063,0,0,0-.468-1.488,2.014,2.014,0,0,0-1.5-.481,6.5,6.5,0,0,0-2.615.656l-.43-.992a7.146,7.146,0,0,1,3.129-.734,3.717,3.717,0,0,1,2.451.679,2.718,2.718,0,0,1,.8,2.18v5.844Zm-3.163-.914a2.98,2.98,0,0,0,2.054-.664,2.359,2.359,0,0,0,.746-1.86v-.773l-1.4.055a5.429,5.429,0,0,0-2.408.48,1.424,1.424,0,0,0-.738,1.324,1.291,1.291,0,0,0,.46,1.071A2.008,2.008,0,0,0,726.245,5924.915Z" transform="translate(-545.378 -5891.673)" fill="#fff"/>
          <path id="Trazado_8344" data-name="Trazado 8344" d="M739.293,5923.493a2.093,2.093,0,0,1-.961,1.844,4.8,4.8,0,0,1-2.7.648,6.265,6.265,0,0,1-2.868-.539v-1.2a7.3,7.3,0,0,0,1.43.492,6.392,6.392,0,0,0,1.471.18,3.557,3.557,0,0,0,1.687-.324,1.072,1.072,0,0,0,.123-1.844,7.578,7.578,0,0,0-1.827-.84,10.346,10.346,0,0,1-1.834-.777,2.419,2.419,0,0,1-.81-.754,1.854,1.854,0,0,1-.265-1.008,1.882,1.882,0,0,1,.919-1.652,4.545,4.545,0,0,1,2.522-.606,7.884,7.884,0,0,1,2.918.563l-.5,1.054a7.158,7.158,0,0,0-2.522-.531,3.107,3.107,0,0,0-1.5.289.887.887,0,0,0-.506.8.924.924,0,0,0,.19.586,1.847,1.847,0,0,0,.612.461,14.132,14.132,0,0,0,1.619.633,6.2,6.2,0,0,1,2.222,1.117A1.893,1.893,0,0,1,739.293,5923.493Z" transform="translate(-544.831 -5891.673)" fill="#fff"/>
          <path id="Trazado_8345" data-name="Trazado 8345" d="M750.359,5925.985a4.288,4.288,0,0,1-1.649-.308,3.062,3.062,0,0,1-1.253-.95h-.1a10.565,10.565,0,0,1,.1,1.422v3.524h-1.4v-12.407H747.2l.194,1.172h.067a3.191,3.191,0,0,1,1.257-1.015,4.087,4.087,0,0,1,1.645-.313,3.537,3.537,0,0,1,2.838,1.164,5.815,5.815,0,0,1-.017,6.543A3.539,3.539,0,0,1,750.359,5925.985Zm-.2-7.773a2.587,2.587,0,0,0-2.049.726,3.542,3.542,0,0,0-.65,2.313v.289a4.041,4.041,0,0,0,.65,2.582,2.567,2.567,0,0,0,2.083.777,2.221,2.221,0,0,0,1.877-.9,4.029,4.029,0,0,0,.679-2.477,3.88,3.88,0,0,0-.679-2.457A2.3,2.3,0,0,0,750.156,5918.212Z" transform="translate(-543.987 -5891.673)" fill="#fff"/>
          <path id="Trazado_8346" data-name="Trazado 8346" d="M760.86,5917.11a5.87,5.87,0,0,1,1.105.094l-.194,1.2a5.139,5.139,0,0,0-1.013-.117,2.542,2.542,0,0,0-1.918.844,2.938,2.938,0,0,0-.8,2.1v4.594h-1.4v-8.563H757.8l.16,1.586h.068a3.879,3.879,0,0,1,1.24-1.289A2.949,2.949,0,0,1,760.86,5917.11Z" transform="translate(-543.463 -5891.673)" fill="#fff"/>
          <path id="Trazado_8347" data-name="Trazado 8347" d="M767.6,5925.985a4.432,4.432,0,0,1-3.235-1.156,4.28,4.28,0,0,1-1.185-3.211,4.721,4.721,0,0,1,1.1-3.289,3.785,3.785,0,0,1,2.956-1.219,3.622,3.622,0,0,1,2.749,1.059,3.872,3.872,0,0,1,1.013,2.793v.82H764.63a3.238,3.238,0,0,0,.822,2.289,2.968,2.968,0,0,0,2.2.781,7.941,7.941,0,0,0,2.952-.578v1.156a7.78,7.78,0,0,1-1.4.426A8.5,8.5,0,0,1,767.6,5925.985Zm-.38-7.789a2.378,2.378,0,0,0-1.775.672,2.974,2.974,0,0,0-.781,1.859H769.5a2.712,2.712,0,0,0-.59-1.879A2.162,2.162,0,0,0,767.219,5918.2Z" transform="translate(-542.981 -5891.673)" fill="#fff"/>
          <path id="Trazado_8348" data-name="Trazado 8348" d="M779.71,5925.829v-5.539a2.128,2.128,0,0,0-.514-1.563,2.2,2.2,0,0,0-1.611-.515,2.779,2.779,0,0,0-2.126.726,3.474,3.474,0,0,0-.674,2.4v4.492h-1.4v-8.563h1.138l.228,1.172h.067a2.805,2.805,0,0,1,1.206-.98,4.183,4.183,0,0,1,1.729-.348,3.7,3.7,0,0,1,2.514.746,3.037,3.037,0,0,1,.843,2.387v5.586Z" transform="translate(-542.379 -5891.673)" fill="#fff"/>
          <path id="Trazado_8349" data-name="Trazado 8349" d="M790.278,5924.68H790.2a3.383,3.383,0,0,1-2.9,1.3,3.556,3.556,0,0,1-2.821-1.148,4.8,4.8,0,0,1-1.008-3.266,4.874,4.874,0,0,1,1.012-3.289,3.525,3.525,0,0,1,2.817-1.172,3.467,3.467,0,0,1,2.885,1.266h.109l-.059-.617-.033-.6v-3.484h1.4v12.156h-1.139Zm-2.8.219a2.66,2.66,0,0,0,2.079-.722,3.45,3.45,0,0,0,.646-2.333v-.273a4.054,4.054,0,0,0-.654-2.6,2.582,2.582,0,0,0-2.088-.777,2.2,2.2,0,0,0-1.885.887,4.156,4.156,0,0,0-.653,2.5,3.987,3.987,0,0,0,.649,2.476A2.264,2.264,0,0,0,787.478,5924.9Z" transform="translate(-541.763 -5891.673)" fill="#fff"/>
          <path id="Trazado_8350" data-name="Trazado 8350" d="M800.256,5925.829l-.278-1.219h-.068a3.825,3.825,0,0,1-1.379,1.09,4.5,4.5,0,0,1-1.716.285,3.25,3.25,0,0,1-2.155-.656,2.305,2.305,0,0,1-.78-1.867q0-2.594,4.479-2.719l1.568-.047v-.531a2.063,2.063,0,0,0-.468-1.488,2.014,2.014,0,0,0-1.5-.481,6.5,6.5,0,0,0-2.615.656l-.43-.992a7.146,7.146,0,0,1,3.129-.734,3.715,3.715,0,0,1,2.451.679,2.718,2.718,0,0,1,.8,2.18v5.844Zm-3.163-.914a2.98,2.98,0,0,0,2.054-.664,2.359,2.359,0,0,0,.747-1.86v-.773l-1.4.055a5.42,5.42,0,0,0-2.407.48,1.423,1.423,0,0,0-.739,1.324,1.291,1.291,0,0,0,.46,1.071A2.01,2.01,0,0,0,797.093,5924.915Z" transform="translate(-541.176 -5891.673)" fill="#fff"/>
          <path id="Trazado_8351" data-name="Trazado 8351" d="M810.141,5923.493a2.093,2.093,0,0,1-.961,1.844,4.8,4.8,0,0,1-2.7.648,6.266,6.266,0,0,1-2.868-.539v-1.2a7.3,7.3,0,0,0,1.43.492,6.4,6.4,0,0,0,1.471.18,3.557,3.557,0,0,0,1.687-.324,1.072,1.072,0,0,0,.123-1.844,7.583,7.583,0,0,0-1.826-.84,10.331,10.331,0,0,1-1.835-.777,2.427,2.427,0,0,1-.81-.754,1.854,1.854,0,0,1-.265-1.008,1.882,1.882,0,0,1,.919-1.652,4.544,4.544,0,0,1,2.522-.606,7.885,7.885,0,0,1,2.918.563l-.5,1.054a7.158,7.158,0,0,0-2.522-.531,3.107,3.107,0,0,0-1.5.289.887.887,0,0,0-.506.8.924.924,0,0,0,.19.586,1.858,1.858,0,0,0,.612.461,14.217,14.217,0,0,0,1.619.633,6.209,6.209,0,0,1,2.223,1.117A1.892,1.892,0,0,1,810.141,5923.493Z" transform="translate(-540.64 -5891.673)" fill="#fff"/>
        </g>
      </g>
      <g id="Grupo_11228" data-name="Grupo 11228" transform="translate(143.615)">
        <path id="Trazado_8352" data-name="Trazado 8352" d="M766.525,5837.665a54.385,54.385,0,1,0-96.931,0Zm0,0" transform="translate(-663.675 -5753.7)" fill="#85d249"/>
        <path id="Trazado_8353" data-name="Trazado 8353" d="M766.636,5757.9a4.2,4.2,0,0,0-4.2-4.2H686.512a4.2,4.2,0,0,0-4.205,4.2v96.043a54.392,54.392,0,0,0,84.329-16.5Zm0,0" transform="translate(-663.675 -5753.7)" fill="#def2fe"/>
        <path id="Trazado_8354" data-name="Trazado 8354" d="M707.6,5857.749v-92a12.085,12.085,0,0,1,12.051-12.05h-33.14a4.2,4.2,0,0,0-4.205,4.2v96.043a54.157,54.157,0,0,0,29.662,13.066,12.044,12.044,0,0,1-4.368-9.264Zm0,0" transform="translate(-663.675 -5753.7)" fill="#c5e2f2"/>
        <path id="Trazado_8355" data-name="Trazado 8355" d="M701.008,5761.988h-7.242v99.646a53.987,53.987,0,0,0,9.177,3.588v-101.3a1.935,1.935,0,0,0-1.935-1.935Zm0,0" transform="translate(-663.675 -5753.7)" fill="#01c8f0"/>
        <path id="Trazado_8356" data-name="Trazado 8356" d="M702.943,5823.705a.66.66,0,0,0-.314.1,5.986,5.986,0,0,1-8.269-1.407.7.7,0,0,0-.594-.25v39.487a53.987,53.987,0,0,0,9.177,3.588Zm0,0" transform="translate(-663.675 -5753.7)" fill="#03b2ef"/>
        <path id="Trazado_8357" data-name="Trazado 8357" d="M689.065,5763.923v95.06a54.065,54.065,0,0,0,4.924,2.762v-99.757H691a1.936,1.936,0,0,0-1.936,1.935Zm0,0" transform="translate(-663.675 -5753.7)" fill="#63dfff"/>
        <path id="Trazado_8358" data-name="Trazado 8358" d="M693.989,5822.165a.677.677,0,0,0-.438.036,1.149,1.149,0,0,1-1.2-.127.7.7,0,0,0-.425-.149h-2.865v37.058a53.951,53.951,0,0,0,4.925,2.762v-39.58Zm0,0" transform="translate(-663.675 -5753.7)" fill="#01c8f0"/>
        <path id="Trazado_8359" data-name="Trazado 8359" d="M694.661,5771.557h-5.6a1.665,1.665,0,1,1,0-3.329h5.6a1.665,1.665,0,0,1,0,3.329Zm0,0" transform="translate(-663.675 -5753.7)" fill="#9deafc"/>
        <path id="Trazado_8360" data-name="Trazado 8360" d="M690.519,5788.9h-1.454a1.665,1.665,0,0,1,0-3.33h1.454a1.665,1.665,0,0,1,0,3.33Zm0,0" transform="translate(-663.675 -5753.7)" fill="#9deafc"/>
        <path id="Trazado_8361" data-name="Trazado 8361" d="M690.519,5780.228h-1.454a1.665,1.665,0,1,1,0-3.329h1.454a1.665,1.665,0,1,1,0,3.329Zm0,0" transform="translate(-663.675 -5753.7)" fill="#9deafc"/>
        <path id="Trazado_8362" data-name="Trazado 8362" d="M690.519,5797.573h-1.454a1.665,1.665,0,0,1,0-3.33h1.454a1.665,1.665,0,0,1,0,3.33Zm0,0" transform="translate(-663.675 -5753.7)" fill="#9deafc"/>
        <path id="Trazado_8363" data-name="Trazado 8363" d="M694.661,5806.245h-5.6a1.665,1.665,0,0,1,0-3.33h5.6a1.665,1.665,0,0,1,0,3.33Zm0,0" transform="translate(-663.675 -5753.7)" fill="#9deafc"/>
        <path id="Trazado_8364" data-name="Trazado 8364" d="M690.519,5814.917h-1.454a1.665,1.665,0,0,1,0-3.33h1.454a1.665,1.665,0,0,1,0,3.33Zm0,0" transform="translate(-663.675 -5753.7)" fill="#9deafc"/>
        <path id="Trazado_8365" data-name="Trazado 8365" d="M690.519,5823.589h-1.454a1.665,1.665,0,1,1,0-3.329h1.454a1.665,1.665,0,1,1,0,3.329Zm0,0" transform="translate(-663.675 -5753.7)" fill="#9deafc"/>
        <path id="Trazado_8366" data-name="Trazado 8366" d="M690.519,5832.26h-1.454a1.664,1.664,0,1,1,0-3.329h1.454a1.664,1.664,0,1,1,0,3.329Zm0,0" transform="translate(-663.675 -5753.7)" fill="#63dfff"/>
        <path id="Trazado_8367" data-name="Trazado 8367" d="M694.661,5840.932h-5.6a1.665,1.665,0,1,1,0-3.329h5.6a1.665,1.665,0,0,1,0,3.329Zm0,0" transform="translate(-663.675 -5753.7)" fill="#63dfff"/>
        <path id="Trazado_8368" data-name="Trazado 8368" d="M690.519,5849.6h-1.454a1.665,1.665,0,0,1,0-3.33h1.454a1.665,1.665,0,0,1,0,3.33Zm0,0" transform="translate(-663.675 -5753.7)" fill="#63dfff"/>
        <path id="Trazado_8369" data-name="Trazado 8369" d="M690.519,5858.277h-1.454a1.665,1.665,0,0,1,0-3.33h1.454a1.665,1.665,0,0,1,0,3.33Zm0,0" transform="translate(-663.675 -5753.7)" fill="#63dfff"/>
        <path id="Trazado_8370" data-name="Trazado 8370" d="M673.919,5784.329h3.953a1.47,1.47,0,0,1,.214.018v-3.542a2.19,2.19,0,1,0-4.381,0v3.542a1.482,1.482,0,0,1,.214-.018Zm0,0" transform="translate(-663.675 -5753.7)" fill="#543e5b"/>
        <path id="Trazado_8371" data-name="Trazado 8371" d="M741.13,5793.023c-9.96-.615-12.488-7.907-13.123-11.205a1.454,1.454,0,0,0-1.846-1.112L715.5,5783.9a1.456,1.456,0,0,0-.883,2.05A82.288,82.288,0,0,1,719.671,5799a11.375,11.375,0,0,1-4.639,13.3,1.449,1.449,0,0,0-.552,1.684,57.994,57.994,0,0,1-1.8,43.6,1.457,1.457,0,0,0,1.317,2.079h27.052a1.457,1.457,0,0,0,1.457-1.457v-63.727a1.459,1.459,0,0,0-1.374-1.453Zm0,0" transform="translate(-663.675 -5753.7)" fill="#ffd764"/>
        <path id="Trazado_8372" data-name="Trazado 8372" d="M743.176,5773.428H713.208a1.665,1.665,0,0,1,0-3.33h29.968a1.665,1.665,0,0,1,0,3.33Zm0,0" transform="translate(-663.675 -5753.7)" fill="#543e5b"/>
        <path id="Trazado_8373" data-name="Trazado 8373" d="M712.984,5775.806a1.664,1.664,0,0,1-1.664-1.665v-4.756a1.664,1.664,0,1,1,3.329,0v4.756a1.663,1.663,0,0,1-1.665,1.665Zm0,0" transform="translate(-663.675 -5753.7)" fill="#665364"/>
        <path id="Trazado_8374" data-name="Trazado 8374" d="M743.4,5775.806a1.664,1.664,0,0,1-1.665-1.665v-4.756a1.665,1.665,0,0,1,3.33,0v4.756a1.665,1.665,0,0,1-1.665,1.665Zm0,0" transform="translate(-663.675 -5753.7)" fill="#665364"/>
        <path id="Trazado_8375" data-name="Trazado 8375" d="M751.456,5779.091a1.665,1.665,0,0,0-1.665,1.664v76.382q1.717-1.235,3.33-2.6v-73.783a1.665,1.665,0,0,0-1.665-1.664Zm0,0" transform="translate(-663.675 -5753.7)" fill="#543e5b"/>
        <path id="Trazado_8376" data-name="Trazado 8376" d="M753.834,5782.2h-4.756a1.665,1.665,0,1,1,0-3.33h4.756a1.665,1.665,0,1,1,0,3.33Zm0,0" transform="translate(-663.675 -5753.7)" fill="#665364"/>
        <path id="Trazado_8377" data-name="Trazado 8377" d="M725.645,5767.725h-1.268a1.665,1.665,0,0,1,0-3.33h1.268a1.665,1.665,0,0,1,0,3.33Zm0,0" transform="translate(-663.675 -5753.7)" fill="#acd1e5"/>
        <path id="Trazado_8378" data-name="Trazado 8378" d="M732.009,5767.725h-1.27a1.665,1.665,0,0,1,0-3.33h1.27a1.665,1.665,0,0,1,0,3.33Zm0,0" transform="translate(-663.675 -5753.7)" fill="#c5e2f2"/>
        <path id="Trazado_8379" data-name="Trazado 8379" d="M757.425,5825.633a1.665,1.665,0,0,1-1.665-1.664v-1.27a1.665,1.665,0,1,1,3.33,0v1.27a1.664,1.664,0,0,1-1.665,1.664Zm0,0" transform="translate(-663.675 -5753.7)" fill="#c5e2f2"/>
        <path id="Trazado_8380" data-name="Trazado 8380" d="M757.425,5819.27a1.666,1.666,0,0,1-1.665-1.665v-1.268a1.665,1.665,0,1,1,3.33,0v1.268a1.665,1.665,0,0,1-1.665,1.665Zm0,0" transform="translate(-663.675 -5753.7)" fill="#acd1e5"/>
        <path id="Trazado_8381" data-name="Trazado 8381" d="M679.512,5785.066a1.754,1.754,0,0,0-1.64-1.132h-3.953a1.755,1.755,0,0,0-1.64,1.132l-2.8,8.367h12.824Zm0,0" transform="translate(-663.675 -5753.7)" fill="#fcf8ed"/>
        <path id="Trazado_8382" data-name="Trazado 8382" d="M675.434,5788.85l1.3-3.88a1.8,1.8,0,0,1,1.035-1.036h-3.846a1.755,1.755,0,0,0-1.64,1.132l-2.8,8.367h8.4a3.579,3.579,0,0,1-2.446-4.583Zm0,0" transform="translate(-663.675 -5753.7)" fill="#fceca9"/>
        <path id="Trazado_8383" data-name="Trazado 8383" d="M669.483,5837.443a54.5,54.5,0,0,0,4,6.679v-50.689h-4Zm0,0" transform="translate(-663.675 -5753.7)" fill="#ffb442"/>
        <path id="Trazado_8384" data-name="Trazado 8384" d="M673.481,5822.216a.661.661,0,0,0-.543.139,2.133,2.133,0,0,1-2.871.169.708.708,0,0,0-.584-.141v15.06a54.5,54.5,0,0,0,4,6.679Zm0,0" transform="translate(-663.675 -5753.7)" fill="#ff9b21"/>
        <path id="Trazado_8385" data-name="Trazado 8385" d="M678.309,5850.079a54.608,54.608,0,0,0,4,3.868v-60.514h-4Zm0,0" transform="translate(-663.675 -5753.7)" fill="#ffd764"/>
        <path id="Trazado_8386" data-name="Trazado 8386" d="M682.307,5853.947V5821.99a.715.715,0,0,0-.182.122,2.318,2.318,0,0,1-3.28.263.714.714,0,0,0-.536-.178v27.882a54.608,54.608,0,0,0,4,3.868Zm0,0" transform="translate(-663.675 -5753.7)" fill="#ffca4f"/>
        <path id="Trazado_8387" data-name="Trazado 8387" d="M673.374,5843.967a54.5,54.5,0,0,0,5.043,6.227v-56.761h-5.043Zm0,0" transform="translate(-663.675 -5753.7)" fill="#ffca4f"/>
        <path id="Trazado_8388" data-name="Trazado 8388" d="M678.417,5822.195a.649.649,0,0,0-.45.139,3.04,3.04,0,0,1-4.137.049.72.72,0,0,0-.456-.178v21.762a54.39,54.39,0,0,0,5.043,6.227Zm0,0" transform="translate(-663.675 -5753.7)" fill="#ffb442"/>
        <path id="Trazado_8389" data-name="Trazado 8389" d="M730.215,5840.18a13.158,13.158,0,0,1-12.36-8.762,57.964,57.964,0,0,1-5.177,26.163,1.457,1.457,0,0,0,1.317,2.079h27.052a1.457,1.457,0,0,0,1.457-1.457v-26.585a13.157,13.157,0,0,1-12.289,8.562Zm0,0" transform="translate(-663.675 -5753.7)" fill="#ffca4f"/>
      </g>
    </g>
    <path id="Trazado_8682" data-name="Trazado 8682" d="M722.918,5979.248H721.2v-17.193a2.646,2.646,0,0,0-2.645-2.646h-.99a2.646,2.646,0,0,0-2.646,2.646v17.193H713.2a2.161,2.161,0,0,0-1.933,3.127l4.858,9.716a2.16,2.16,0,0,0,3.865,0l4.859-9.716A2.161,2.161,0,0,0,722.918,5979.248Z" transform="translate(75.94 177.805)" fill="#8fccd2"/>
  </g>
</svg>
