<svg xmlns="http://www.w3.org/2000/svg" width="396" height="278.522" viewBox="0 0 396 278.522">
  <g id="Grupo_70716" data-name="Grupo 70716" transform="translate(-596 -6188.116)">
    <g id="Grupo_11233" data-name="Grupo 11233" transform="translate(596 6188.116)">
      <rect id="Rectángulo_4305" data-name="Rectángulo 4305" width="396" height="146.983" rx="9.462" transform="translate(0 80.636)" fill="#bf3976"/>
      <g id="Grupo_11232" data-name="Grupo 11232" transform="translate(141.173)">
        <path id="Trazado_8513" data-name="Trazado 8513" d="M734.011,6013.5,662,6073.617l-.038-.009a54.388,54.388,0,1,0,72.047-60.1Zm0,0" transform="translate(-661.233 -6010.311)" fill="#85d249"/>
        <path id="Trazado_8514" data-name="Trazado 8514" d="M734.2,6036.265v-4.658l-4.658,4.658Zm0,0" transform="translate(-661.233 -6010.311)" fill="#ff87ba"/>
        <path id="Trazado_8515" data-name="Trazado 8515" d="M696.188,6069.618l-4.223,4.223h4.223Zm0,0" transform="translate(-661.233 -6010.311)" fill="#f962aa"/>
        <path id="Trazado_8516" data-name="Trazado 8516" d="M715.618,6010.311a55.052,55.052,0,0,0-6.747.417l-47.221,47.221a54.753,54.753,0,0,0,.352,15.89l.057,0h9.013l25.116-25.115v-9.132a3.332,3.332,0,0,1,3.329-3.329h9.132l23.419-23.418a54.35,54.35,0,0,0-16.45-2.536Zm0,0" transform="translate(-661.233 -6010.311)" fill="#ff87ba"/>
        <path id="Trazado_8517" data-name="Trazado 8517" d="M661.233,6064.7a54.777,54.777,0,0,0,.769,9.143l.057,0h9.013l25.116-25.115v-9.133a3.313,3.313,0,0,1,.989-2.363l-4.025-4c-3.392,0-2.93-3.409-2.93-3.409-.149,0-.3,0-.439-.007l-28.133,28.134a54.641,54.641,0,0,0-.417,6.747Zm0,0" transform="translate(-661.233 -6010.311)" fill="#f962aa"/>
        <path id="Trazado_8518" data-name="Trazado 8518" d="M708.2,6036.265h21.784l4.211-4.211v-18.485q-1.221-.442-2.469-.831Zm0,0" transform="translate(-661.233 -6010.311)" fill="#f962aa"/>
        <path id="Trazado_8519" data-name="Trazado 8519" d="M696.188,6048.28l-25.562,25.561h21.785l3.777-3.777Zm0,0" transform="translate(-661.233 -6010.311)" fill="#ed56a5"/>
        <path id="Trazado_8520" data-name="Trazado 8520" d="M661.592,6058.453l47.783-47.782a54.4,54.4,0,0,0-47.783,47.782Zm0,0" transform="translate(-661.233 -6010.311)" fill="#f962aa"/>
        <path id="Trazado_8521" data-name="Trazado 8521" d="M682.354,6021.675a54.315,54.315,0,0,0-20.762,36.778l28.63-28.631c-8.777,0-7.873-8.1-7.868-8.147Zm0,0" transform="translate(-661.233 -6010.311)" fill="#ed56a5"/>
        <path id="Trazado_8522" data-name="Trazado 8522" d="M773.142,6114.964a1.737,1.737,0,0,1-1.233-.511l-2.554-2.553a1.745,1.745,0,0,1,2.468-2.467l2.552,2.553a1.744,1.744,0,0,1-1.233,2.978Zm0,0" transform="translate(-661.233 -6010.311)" fill="#ffd764"/>
        <path id="Trazado_8523" data-name="Trazado 8523" d="M696.94,6038.761a1.742,1.742,0,0,1-1.234-.51l-2.553-2.554a1.744,1.744,0,0,1,2.466-2.466l2.554,2.552a1.744,1.744,0,0,1-1.233,2.978Zm0,0" transform="translate(-661.233 -6010.311)" fill="#ffd764"/>
        <path id="Trazado_8524" data-name="Trazado 8524" d="M694.386,6114.964a1.744,1.744,0,0,1-1.233-2.978l2.553-2.553a1.744,1.744,0,0,1,2.467,2.466l-2.554,2.554a1.735,1.735,0,0,1-1.233.511Zm0,0" transform="translate(-661.233 -6010.311)" fill="#ffd764"/>
        <path id="Trazado_8525" data-name="Trazado 8525" d="M770.589,6038.761a1.744,1.744,0,0,1-1.234-2.978l2.554-2.552a1.744,1.744,0,0,1,2.466,2.466l-2.552,2.554a1.744,1.744,0,0,1-1.234.51Zm0,0" transform="translate(-661.233 -6010.311)" fill="#ffd764"/>
        <path id="Trazado_8526" data-name="Trazado 8526" d="M771.656,6084.417v-16.6l-5.585-4.164a1.59,1.59,0,0,0-1.894,0l-5.326,3.971a1.173,1.173,0,0,1-1.391,0l-5.326-3.971a1.59,1.59,0,0,0-1.894,0l-5.325,3.971a1.173,1.173,0,0,1-1.391,0l-5.325-3.971a1.59,1.59,0,0,0-1.894,0l-5.326,3.971a1.173,1.173,0,0,1-1.391,0l-5.327-3.971a1.589,1.589,0,0,0-1.893,0l-5.326,3.971a1.176,1.176,0,0,1-1.393,0l-5.326-3.971a1.59,1.59,0,0,0-1.894,0l-5.327,3.971a1.173,1.173,0,0,1-1.391,0l-5.837-4.353v16.606l5.586,4.164a1.6,1.6,0,0,0,1.894,0l5.327-3.971a1.171,1.171,0,0,1,1.391,0l5.327,3.971a1.6,1.6,0,0,0,1.893,0l5.327-3.971a1.171,1.171,0,0,1,1.391,0l5.327,3.971a1.6,1.6,0,0,0,1.894,0l5.325-3.971a1.171,1.171,0,0,1,1.391,0l5.326,3.971a1.6,1.6,0,0,0,1.894,0l5.325-3.971a1.171,1.171,0,0,1,1.391,0l5.326,3.971a1.6,1.6,0,0,0,1.894,0l5.325-3.971a1.173,1.173,0,0,1,1.392,0Zm0,0" transform="translate(-661.233 -6010.311)" fill="#fceca9"/>
        <path id="Trazado_8527" data-name="Trazado 8527" d="M719.726,6079.946c-3.808-5.017-1.458-10.785-.081-13.3a2.358,2.358,0,0,0,.283-1.176l-2.888,2.153a1.173,1.173,0,0,1-1.391,0l-5.326-3.971a1.59,1.59,0,0,0-1.894,0l-5.327,3.971a1.173,1.173,0,0,1-1.391,0l-5.839-4.353v16.606l5.587,4.164a1.6,1.6,0,0,0,1.894,0l5.327-3.971a1.171,1.171,0,0,1,1.391,0l5.328,3.971a1.6,1.6,0,0,0,1.893,0l2.806-2.093a2.284,2.284,0,0,0-.372-2Zm0,0" transform="translate(-661.233 -6010.311)" fill="#ffd764"/>
        <path id="Trazado_8528" data-name="Trazado 8528" d="M771.656,6108.089v-8.118l-5.585-4.164a1.6,1.6,0,0,0-1.894,0l-5.326,3.971a1.171,1.171,0,0,1-1.391,0l-5.326-3.971a1.6,1.6,0,0,0-1.894,0l-5.325,3.97a1.171,1.171,0,0,1-1.391,0l-5.325-3.971a1.6,1.6,0,0,0-1.894,0l-5.326,3.971a1.171,1.171,0,0,1-1.391,0l-5.327-3.971a1.6,1.6,0,0,0-1.893,0l-5.328,3.971a1.171,1.171,0,0,1-1.391,0l-5.326-3.971a1.6,1.6,0,0,0-1.894,0l-5.327,3.971a1.171,1.171,0,0,1-1.391,0l-5.839-4.352v12.663a3.646,3.646,0,0,0,3.645,3.645h68.495a3.644,3.644,0,0,0,3.644-3.645Zm0,0" transform="translate(-661.233 -6010.311)" fill="#ffb442"/>
        <path id="Trazado_8529" data-name="Trazado 8529" d="M720.665,6110.38a10.494,10.494,0,0,1-1.038-11.626,2.334,2.334,0,0,0,.259-1.1l-2.846,2.121a1.171,1.171,0,0,1-1.391,0l-5.326-3.971a1.6,1.6,0,0,0-1.894,0l-5.327,3.971a1.171,1.171,0,0,1-1.391,0l-5.839-4.352v12.663a3.645,3.645,0,0,0,3.645,3.644h21.612a2.278,2.278,0,0,0-.464-1.353Zm0,0" transform="translate(-661.233 -6010.311)" fill="#ffa222"/>
        <path id="Trazado_8530" data-name="Trazado 8530" d="M701.459,6051.876a1.593,1.593,0,0,0,1.894,0l5.327-3.971a1.17,1.17,0,0,1,1.391,0l5.326,3.971a1.593,1.593,0,0,0,1.894,0l5.328-3.971a1.17,1.17,0,0,1,1.391,0l5.326,3.971a1.593,1.593,0,0,0,1.894,0l5.326-3.971a1.17,1.17,0,0,1,1.391,0l5.325,3.971a1.593,1.593,0,0,0,1.894,0l5.325-3.971a1.17,1.17,0,0,1,1.391,0l5.326,3.971a1.593,1.593,0,0,0,1.894,0l5.326-3.971a1.17,1.17,0,0,1,1.391,0l5.836,4.352v-12.664a3.643,3.643,0,0,0-3.643-3.643H699.517a3.644,3.644,0,0,0-3.645,3.643v8.118Zm0,0" transform="translate(-661.233 -6010.311)" fill="#63dfff"/>
        <path id="Trazado_8531" data-name="Trazado 8531" d="M695.872,6039.594v8.117l5.587,4.165a1.593,1.593,0,0,0,1.894,0l5.327-3.971a1.17,1.17,0,0,1,1.391,0l5.328,3.971a1.592,1.592,0,0,0,1.893,0l1.978-1.474a2.338,2.338,0,0,0-.673-2.11c-4.678-4.553-3.022-8.99-1.756-11.088a2.285,2.285,0,0,0,.326-1.254h-17.65a3.644,3.644,0,0,0-3.645,3.644Zm0,0" transform="translate(-661.233 -6010.311)" fill="#01c8f0"/>
        <path id="Trazado_8532" data-name="Trazado 8532" d="M771.656,6068.074V6052l-5.711-4.259a1.375,1.375,0,0,0-1.642,0l-5.326,3.971a1.376,1.376,0,0,1-1.643,0l-5.325-3.971a1.376,1.376,0,0,0-1.643,0l-5.325,3.971a1.376,1.376,0,0,1-1.643,0l-5.325-3.971a1.375,1.375,0,0,0-1.642,0l-5.326,3.971a1.376,1.376,0,0,1-1.643,0l-5.327-3.971a1.375,1.375,0,0,0-1.642,0l-5.327,3.972a1.373,1.373,0,0,1-1.641,0l-5.327-3.972a1.376,1.376,0,0,0-1.643,0l-5.327,3.972a1.375,1.375,0,0,1-1.642,0l-5.712-4.259v16.08l5.712,4.259a1.375,1.375,0,0,0,1.642,0l5.327-3.972a1.376,1.376,0,0,1,1.643,0l5.327,3.972a1.373,1.373,0,0,0,1.641,0l5.327-3.972a1.375,1.375,0,0,1,1.642,0l5.327,3.972a1.376,1.376,0,0,0,1.643,0l5.326-3.972a1.375,1.375,0,0,1,1.642,0l5.325,3.972a1.376,1.376,0,0,0,1.643,0l5.325-3.972a1.376,1.376,0,0,1,1.643,0l5.325,3.972a1.376,1.376,0,0,0,1.643,0l5.326-3.972a1.375,1.375,0,0,1,1.642,0Zm0,0" transform="translate(-661.233 -6010.311)" fill="#01c8f0"/>
        <path id="Trazado_8533" data-name="Trazado 8533" d="M719.307,6050.11l-2.141,1.6a1.376,1.376,0,0,1-1.643,0l-5.326-3.971a1.375,1.375,0,0,0-1.642,0l-5.327,3.972a1.376,1.376,0,0,1-1.643,0l-5.713-4.259v16.08l5.713,4.259a1.376,1.376,0,0,0,1.643,0l5.327-3.972a1.375,1.375,0,0,1,1.642,0l5.326,3.972a1.376,1.376,0,0,0,1.643,0l2.755-2.055a2.3,2.3,0,0,0-.423-1.562c-4.126-5.688-2.127-10.538-.564-12.93a2.312,2.312,0,0,0,.373-1.131Zm0,0" transform="translate(-661.233 -6010.311)" fill="#03b2ef"/>
        <path id="Trazado_8534" data-name="Trazado 8534" d="M771.656,6100.234v-16.08l-5.711-4.258a1.375,1.375,0,0,0-1.642,0l-5.326,3.971a1.376,1.376,0,0,1-1.643,0l-5.325-3.971a1.376,1.376,0,0,0-1.643,0l-5.325,3.971a1.376,1.376,0,0,1-1.643,0l-5.325-3.971a1.375,1.375,0,0,0-1.642,0l-5.326,3.971a1.376,1.376,0,0,1-1.643,0l-5.327-3.971a1.375,1.375,0,0,0-1.642,0l-5.327,3.971a1.373,1.373,0,0,1-1.641,0L710.2,6079.9a1.376,1.376,0,0,0-1.643,0l-5.327,3.971a1.375,1.375,0,0,1-1.642,0l-5.712-4.258v16.08l5.712,4.258a1.373,1.373,0,0,0,1.642,0l5.327-3.971a1.375,1.375,0,0,1,1.643,0l5.327,3.971a1.372,1.372,0,0,0,1.641,0l5.327-3.971a1.373,1.373,0,0,1,1.642,0l5.327,3.971a1.375,1.375,0,0,0,1.643,0l5.326-3.971a1.373,1.373,0,0,1,1.642,0l5.325,3.971a1.375,1.375,0,0,0,1.643,0l5.325-3.971a1.375,1.375,0,0,1,1.643,0l5.325,3.971a1.375,1.375,0,0,0,1.643,0l5.326-3.971a1.373,1.373,0,0,1,1.642,0Zm0,0" transform="translate(-661.233 -6010.311)" fill="#ffd764"/>
        <path id="Trazado_8535" data-name="Trazado 8535" d="M720.161,6081.635l-2.995,2.232a1.376,1.376,0,0,1-1.643,0L710.2,6079.9a1.375,1.375,0,0,0-1.642,0l-5.327,3.971a1.376,1.376,0,0,1-1.643,0l-5.713-4.259v16.08l5.713,4.259a1.375,1.375,0,0,0,1.643,0l5.327-3.971a1.373,1.373,0,0,1,1.642,0l5.326,3.971a1.375,1.375,0,0,0,1.643,0l2.707-2.019a2.3,2.3,0,0,0-.347-1.489c-3.7-5.763-1.214-11.384.318-13.9a2.364,2.364,0,0,0,.317-.9Zm0,0" transform="translate(-661.233 -6010.311)" fill="#ffb442"/>
      </g>
    </g>
    <path id="Trazado_8681" data-name="Trazado 8681" d="M722.918,6274.795H721.2V6257.6a2.645,2.645,0,0,0-2.645-2.645h-.99a2.646,2.646,0,0,0-2.646,2.645v17.193H713.2a2.161,2.161,0,0,0-1.933,3.127l4.858,9.716a2.16,2.16,0,0,0,3.865,0l4.859-9.716A2.161,2.161,0,0,0,722.918,6274.795Z" transform="translate(75.94 177.805)" fill="#8fccd2"/>
    <path id="Trazado_117500" data-name="Trazado 117500" d="M12.152,11.289,15.2,5.578h1.438L12.824,12.57V17H11.48V12.633l-3.8-7.055H9.129ZM28,15.852h-.07a3.047,3.047,0,0,1-2.687,1.3,3.179,3.179,0,0,1-2.613-1.148,5.055,5.055,0,0,1-.934-3.266,5.141,5.141,0,0,1,.938-3.289,3.155,3.155,0,0,1,2.609-1.172A3.114,3.114,0,0,1,27.91,9.547h.1l-.055-.617-.031-.6V4.844h1.3V17H28.168ZM25.4,16.07a2.361,2.361,0,0,0,1.926-.723,3.652,3.652,0,0,0,.6-2.332v-.273a4.3,4.3,0,0,0-.605-2.6,2.3,2.3,0,0,0-1.934-.777,1.985,1.985,0,0,0-1.746.887,4.409,4.409,0,0,0-.605,2.5,4.227,4.227,0,0,0,.6,2.477A2.037,2.037,0,0,0,25.4,16.07ZM35.59,17.156a3.934,3.934,0,0,1-3-1.156,4.476,4.476,0,0,1-1.1-3.211A4.964,4.964,0,0,1,32.516,9.5a3.387,3.387,0,0,1,2.738-1.219A3.229,3.229,0,0,1,37.8,9.34a4.057,4.057,0,0,1,.938,2.793v.82h-5.9a3.394,3.394,0,0,0,.762,2.289,2.634,2.634,0,0,0,2.035.781,6.9,6.9,0,0,0,2.734-.578V16.6a6.863,6.863,0,0,1-1.3.426A7.31,7.31,0,0,1,35.59,17.156Zm-.352-7.789a2.118,2.118,0,0,0-1.645.672,3.1,3.1,0,0,0-.723,1.859h4.477A2.851,2.851,0,0,0,36.8,10.02,1.925,1.925,0,0,0,35.238,9.367ZM42.246,17h-1.3V4.844h1.3Zm10.523.156a3.934,3.934,0,0,1-3-1.156,4.476,4.476,0,0,1-1.1-3.211A4.964,4.964,0,0,1,49.7,9.5a3.387,3.387,0,0,1,2.738-1.219A3.229,3.229,0,0,1,54.98,9.34a4.057,4.057,0,0,1,.938,2.793v.82h-5.9a3.394,3.394,0,0,0,.762,2.289,2.634,2.634,0,0,0,2.035.781,6.9,6.9,0,0,0,2.734-.578V16.6a6.863,6.863,0,0,1-1.3.426A7.31,7.31,0,0,1,52.77,17.156Zm-.352-7.789a2.118,2.118,0,0,0-1.645.672,3.1,3.1,0,0,0-.723,1.859h4.477a2.851,2.851,0,0,0-.547-1.879A1.925,1.925,0,0,0,52.418,9.367ZM63.988,17V11.461A2.235,2.235,0,0,0,63.512,9.9a1.941,1.941,0,0,0-1.492-.516,2.461,2.461,0,0,0-1.969.727,3.668,3.668,0,0,0-.625,2.4V17h-1.3V8.438h1.055l.211,1.172h.063a2.648,2.648,0,0,1,1.117-.98,3.63,3.63,0,0,1,1.6-.348,3.252,3.252,0,0,1,2.328.746,3.175,3.175,0,0,1,.781,2.387V17Zm7.82-7.555h-2.18V17h-1.3V9.445H66.8V8.859l1.531-.469V7.914q0-3.156,2.758-3.156a5.675,5.675,0,0,1,1.594.273L72.348,6.07a4.29,4.29,0,0,0-1.281-.242,1.248,1.248,0,0,0-1.086.488,2.725,2.725,0,0,0-.352,1.566v.555h2.18Zm8.953,3.266a4.724,4.724,0,0,1-1.055,3.27,3.714,3.714,0,0,1-2.914,1.176,3.86,3.86,0,0,1-2.039-.539,3.558,3.558,0,0,1-1.375-1.547,5.391,5.391,0,0,1-.484-2.359,4.716,4.716,0,0,1,1.047-3.262,3.7,3.7,0,0,1,2.906-1.168,3.622,3.622,0,0,1,2.855,1.2A4.7,4.7,0,0,1,80.762,12.711Zm-6.523,0a4.064,4.064,0,0,0,.656,2.5,2.6,2.6,0,0,0,3.863,0,4.043,4.043,0,0,0,.66-2.5,3.978,3.978,0,0,0-.66-2.48,2.32,2.32,0,0,0-1.949-.848,2.283,2.283,0,0,0-1.922.836A4.023,4.023,0,0,0,74.238,12.711ZM86.27,16.07a2.356,2.356,0,0,0,1.891-.7,3.766,3.766,0,0,0,.633-2.344v-.289a4.282,4.282,0,0,0-.609-2.586,2.285,2.285,0,0,0-1.93-.789,1.985,1.985,0,0,0-1.746.887,4.409,4.409,0,0,0-.605,2.5,4.258,4.258,0,0,0,.6,2.465A2.025,2.025,0,0,0,86.27,16.07Zm-.2,1.086a3.124,3.124,0,0,1-2.586-1.164,5.082,5.082,0,0,1-.93-3.25A5.147,5.147,0,0,1,83.5,9.461a3.444,3.444,0,0,1,5.313.148h.07l.188-1.172H90.09V20.844h-1.3V17.18a8.727,8.727,0,0,1,.086-1.328h-.1A3.063,3.063,0,0,1,86.074,17.156Zm7.984-8.719v5.555a2.235,2.235,0,0,0,.477,1.563,1.941,1.941,0,0,0,1.492.516,2.435,2.435,0,0,0,1.965-.734,3.7,3.7,0,0,0,.621-2.4v-4.5h1.3V17H98.84l-.187-1.148h-.07a2.585,2.585,0,0,1-1.105.969,3.716,3.716,0,0,1-1.613.336,3.273,3.273,0,0,1-2.34-.742,3.159,3.159,0,0,1-.777-2.375v-5.6Zm12.219,8.719a3.934,3.934,0,0,1-3-1.156,4.476,4.476,0,0,1-1.1-3.211A4.964,4.964,0,0,1,103.2,9.5a3.387,3.387,0,0,1,2.738-1.219,3.229,3.229,0,0,1,2.547,1.059,4.057,4.057,0,0,1,.938,2.793v.82h-5.9a3.394,3.394,0,0,0,.762,2.289,2.635,2.635,0,0,0,2.035.781,6.9,6.9,0,0,0,2.734-.578V16.6a6.863,6.863,0,0,1-1.3.426A7.31,7.31,0,0,1,106.277,17.156Zm-.352-7.789a2.118,2.118,0,0,0-1.645.672,3.1,3.1,0,0,0-.723,1.859h4.477a2.851,2.851,0,0,0-.547-1.879A1.925,1.925,0,0,0,105.926,9.367Zm13.1,6.7a2.356,2.356,0,0,0,1.891-.7,3.766,3.766,0,0,0,.633-2.344v-.289a4.282,4.282,0,0,0-.609-2.586,2.285,2.285,0,0,0-1.93-.789,1.985,1.985,0,0,0-1.746.887,4.409,4.409,0,0,0-.605,2.5,4.258,4.258,0,0,0,.6,2.465A2.025,2.025,0,0,0,119.027,16.07Zm-.2,1.086a3.124,3.124,0,0,1-2.586-1.164,5.082,5.082,0,0,1-.93-3.25,5.147,5.147,0,0,1,.938-3.281,3.444,3.444,0,0,1,5.313.148h.07l.188-1.172h1.023V20.844h-1.3V17.18a8.727,8.727,0,0,1,.086-1.328h-.1A3.063,3.063,0,0,1,118.832,17.156Zm7.984-8.719v5.555a2.235,2.235,0,0,0,.477,1.563,1.941,1.941,0,0,0,1.492.516,2.435,2.435,0,0,0,1.965-.734,3.7,3.7,0,0,0,.621-2.4v-4.5h1.3V17H131.6l-.187-1.148h-.07a2.585,2.585,0,0,1-1.105.969,3.716,3.716,0,0,1-1.613.336,3.273,3.273,0,0,1-2.34-.742,3.159,3.159,0,0,1-.777-2.375v-5.6Zm12.219,8.719a3.934,3.934,0,0,1-3-1.156,4.476,4.476,0,0,1-1.1-3.211,4.964,4.964,0,0,1,1.02-3.289A3.387,3.387,0,0,1,138.7,8.281a3.229,3.229,0,0,1,2.547,1.059,4.057,4.057,0,0,1,.938,2.793v.82h-5.9a3.394,3.394,0,0,0,.762,2.289,2.634,2.634,0,0,0,2.035.781,6.9,6.9,0,0,0,2.734-.578V16.6a6.863,6.863,0,0,1-1.3.426A7.31,7.31,0,0,1,139.035,17.156Zm-.352-7.789a2.118,2.118,0,0,0-1.645.672,3.1,3.1,0,0,0-.723,1.859h4.477a2.851,2.851,0,0,0-.547-1.879A1.925,1.925,0,0,0,138.684,9.367Zm15.391,5.3a2.145,2.145,0,0,1-.891,1.844,4.186,4.186,0,0,1-2.5.648,5.436,5.436,0,0,1-2.656-.539v-1.2a6.423,6.423,0,0,0,1.324.492,5.53,5.53,0,0,0,1.363.18,3.092,3.092,0,0,0,1.563-.324,1.116,1.116,0,0,0,.113-1.844,6.82,6.82,0,0,0-1.691-.84A9.172,9.172,0,0,1,149,12.3a2.321,2.321,0,0,1-.75-.754A1.966,1.966,0,0,1,148,10.539a1.921,1.921,0,0,1,.852-1.652,3.968,3.968,0,0,1,2.336-.605,6.835,6.835,0,0,1,2.7.563L153.434,9.9a6.2,6.2,0,0,0-2.336-.531,2.688,2.688,0,0,0-1.391.289.894.894,0,0,0-.469.8.971.971,0,0,0,.176.586,1.735,1.735,0,0,0,.566.461,12.659,12.659,0,0,0,1.5.633,5.6,5.6,0,0,1,2.059,1.117A1.97,1.97,0,0,1,154.074,14.664Zm5.727,2.492a3.934,3.934,0,0,1-3-1.156,4.476,4.476,0,0,1-1.1-3.211,4.964,4.964,0,0,1,1.02-3.289,3.387,3.387,0,0,1,2.738-1.219,3.229,3.229,0,0,1,2.547,1.059,4.057,4.057,0,0,1,.938,2.793v.82h-5.9a3.394,3.394,0,0,0,.762,2.289,2.634,2.634,0,0,0,2.035.781,6.9,6.9,0,0,0,2.734-.578V16.6a6.863,6.863,0,0,1-1.3.426A7.31,7.31,0,0,1,159.8,17.156Zm-.352-7.789a2.118,2.118,0,0,0-1.645.672,3.1,3.1,0,0,0-.723,1.859h4.477a2.851,2.851,0,0,0-.547-1.879A1.925,1.925,0,0,0,159.449,9.367ZM170.613,17h-1.3V4.844h1.3Zm6.367.156a3.934,3.934,0,0,1-3-1.156,4.476,4.476,0,0,1-1.1-3.211,4.964,4.964,0,0,1,1.02-3.289,3.387,3.387,0,0,1,2.738-1.219,3.229,3.229,0,0,1,2.547,1.059,4.057,4.057,0,0,1,.938,2.793v.82h-5.9a3.394,3.394,0,0,0,.762,2.289,2.634,2.634,0,0,0,2.035.781,6.9,6.9,0,0,0,2.734-.578V16.6a6.863,6.863,0,0,1-1.3.426A7.31,7.31,0,0,1,176.98,17.156Zm-.352-7.789a2.118,2.118,0,0,0-1.645.672,3.1,3.1,0,0,0-.723,1.859h4.477a2.851,2.851,0,0,0-.547-1.879A1.925,1.925,0,0,0,176.629,9.367ZM188.371,17l-3.25-8.562h1.391l1.844,5.078a24.035,24.035,0,0,1,.734,2.313h.063a17.468,17.468,0,0,1,.543-1.715q.457-1.3,2.051-5.676h1.391L189.887,17Zm11.406,0-.258-1.219h-.062a3.6,3.6,0,0,1-1.277,1.09,3.893,3.893,0,0,1-1.59.285,2.86,2.86,0,0,1-2-.656,2.394,2.394,0,0,1-.723-1.867q0-2.594,4.148-2.719l1.453-.047v-.531a2.171,2.171,0,0,0-.434-1.488,1.783,1.783,0,0,0-1.387-.48,5.65,5.65,0,0,0-2.422.656l-.4-.992a6.094,6.094,0,0,1,1.387-.539,6.006,6.006,0,0,1,1.512-.2,3.262,3.262,0,0,1,2.27.68,2.837,2.837,0,0,1,.738,2.18V17Zm-2.93-.914a2.632,2.632,0,0,0,1.9-.664,2.457,2.457,0,0,0,.691-1.859v-.773l-1.3.055a4.717,4.717,0,0,0-2.23.48,1.449,1.449,0,0,0-.684,1.324,1.336,1.336,0,0,0,.426,1.07A1.767,1.767,0,0,0,196.848,16.086ZM212.832,17l-.258-1.219h-.062a3.6,3.6,0,0,1-1.277,1.09,3.893,3.893,0,0,1-1.59.285,2.86,2.86,0,0,1-2-.656,2.394,2.394,0,0,1-.723-1.867q0-2.594,4.148-2.719l1.453-.047v-.531a2.171,2.171,0,0,0-.434-1.488,1.783,1.783,0,0,0-1.387-.48,5.65,5.65,0,0,0-2.422.656l-.4-.992a6.094,6.094,0,0,1,1.387-.539,6.006,6.006,0,0,1,1.512-.2,3.262,3.262,0,0,1,2.27.68,2.837,2.837,0,0,1,.738,2.18V17Zm-2.93-.914a2.632,2.632,0,0,0,1.9-.664,2.457,2.457,0,0,0,.691-1.859v-.773l-1.3.055a4.717,4.717,0,0,0-2.23.48,1.449,1.449,0,0,0-.684,1.324,1.336,1.336,0,0,0,.426,1.07A1.767,1.767,0,0,0,209.9,16.086Zm16.547-.234h-.07a3.047,3.047,0,0,1-2.687,1.3,3.179,3.179,0,0,1-2.613-1.148,5.055,5.055,0,0,1-.934-3.266,5.141,5.141,0,0,1,.938-3.289,3.155,3.155,0,0,1,2.609-1.172,3.114,3.114,0,0,1,2.672,1.266h.1l-.055-.617-.031-.6V4.844h1.3V17h-1.055Zm-2.594.219a2.361,2.361,0,0,0,1.926-.723,3.652,3.652,0,0,0,.6-2.332v-.273a4.3,4.3,0,0,0-.605-2.6,2.3,2.3,0,0,0-1.934-.777,1.985,1.985,0,0,0-1.746.887,4.409,4.409,0,0,0-.605,2.5,4.227,4.227,0,0,0,.6,2.477A2.037,2.037,0,0,0,223.855,16.07Zm11.836.93-.258-1.219h-.062a3.6,3.6,0,0,1-1.277,1.09,3.893,3.893,0,0,1-1.59.285,2.86,2.86,0,0,1-2-.656,2.394,2.394,0,0,1-.723-1.867q0-2.594,4.148-2.719l1.453-.047v-.531a2.171,2.171,0,0,0-.434-1.488,1.783,1.783,0,0,0-1.387-.48,5.65,5.65,0,0,0-2.422.656l-.4-.992a6.094,6.094,0,0,1,1.387-.539,6.006,6.006,0,0,1,1.512-.2,3.262,3.262,0,0,1,2.27.68,2.837,2.837,0,0,1,.738,2.18V17Zm-2.93-.914a2.632,2.632,0,0,0,1.9-.664,2.457,2.457,0,0,0,.691-1.859v-.773l-1.3.055a4.717,4.717,0,0,0-2.23.48,1.449,1.449,0,0,0-.684,1.324,1.336,1.336,0,0,0,.426,1.07A1.767,1.767,0,0,0,232.762,16.086Zm10.469-7.8a5.075,5.075,0,0,1,1.023.094l-.18,1.2a4.418,4.418,0,0,0-.937-.117,2.282,2.282,0,0,0-1.777.844,3.077,3.077,0,0,0-.738,2.1V17h-1.3V8.438h1.07l.148,1.586h.063a3.764,3.764,0,0,1,1.148-1.289A2.585,2.585,0,0,1,243.23,8.281ZM255.277,17l-.258-1.219h-.062a3.6,3.6,0,0,1-1.277,1.09,3.893,3.893,0,0,1-1.59.285,2.86,2.86,0,0,1-2-.656,2.394,2.394,0,0,1-.723-1.867q0-2.594,4.148-2.719l1.453-.047v-.531a2.171,2.171,0,0,0-.434-1.488,1.783,1.783,0,0,0-1.387-.48,5.65,5.65,0,0,0-2.422.656l-.4-.992a6.094,6.094,0,0,1,1.387-.539,6.006,6.006,0,0,1,1.512-.2,3.262,3.262,0,0,1,2.27.68,2.837,2.837,0,0,1,.738,2.18V17Zm-2.93-.914a2.632,2.632,0,0,0,1.9-.664,2.457,2.457,0,0,0,.691-1.859v-.773l-1.3.055a4.717,4.717,0,0,0-2.23.48,1.449,1.449,0,0,0-.684,1.324,1.336,1.336,0,0,0,.426,1.07A1.767,1.767,0,0,0,252.348,16.086ZM264.363,17h-1.3V4.844h1.3Zm8.016,0-.258-1.219h-.062a3.6,3.6,0,0,1-1.277,1.09,3.893,3.893,0,0,1-1.59.285,2.86,2.86,0,0,1-2-.656,2.394,2.394,0,0,1-.723-1.867q0-2.594,4.148-2.719l1.453-.047v-.531a2.171,2.171,0,0,0-.434-1.488,1.783,1.783,0,0,0-1.387-.48,5.65,5.65,0,0,0-2.422.656l-.4-.992a6.094,6.094,0,0,1,1.387-.539,6.006,6.006,0,0,1,1.512-.2,3.262,3.262,0,0,1,2.27.68,2.837,2.837,0,0,1,.738,2.18V17Zm-2.93-.914a2.632,2.632,0,0,0,1.9-.664,2.457,2.457,0,0,0,.691-1.859v-.773l-1.3.055a4.717,4.717,0,0,0-2.23.48,1.449,1.449,0,0,0-.684,1.324,1.336,1.336,0,0,0,.426,1.07A1.767,1.767,0,0,0,269.449,16.086ZM286.027,17V11.461a2.235,2.235,0,0,0-.477-1.562,1.941,1.941,0,0,0-1.492-.516,2.461,2.461,0,0,0-1.969.727,3.668,3.668,0,0,0-.625,2.4V17h-1.3V8.438h1.055l.211,1.172h.063a2.648,2.648,0,0,1,1.117-.98,3.63,3.63,0,0,1,1.6-.348,3.252,3.252,0,0,1,2.328.746,3.175,3.175,0,0,1,.781,2.387V17Zm5.18-8.562v5.555a2.235,2.235,0,0,0,.477,1.563,1.941,1.941,0,0,0,1.492.516,2.435,2.435,0,0,0,1.965-.734,3.7,3.7,0,0,0,.621-2.4v-4.5h1.3V17h-1.07l-.187-1.148h-.07a2.585,2.585,0,0,1-1.105.969,3.716,3.716,0,0,1-1.613.336,3.273,3.273,0,0,1-2.34-.742,3.159,3.159,0,0,1-.777-2.375v-5.6Zm12.219,8.719a3.934,3.934,0,0,1-3-1.156,4.476,4.476,0,0,1-1.1-3.211,4.964,4.964,0,0,1,1.02-3.289,3.387,3.387,0,0,1,2.738-1.219,3.229,3.229,0,0,1,2.547,1.059,4.057,4.057,0,0,1,.938,2.793v.82h-5.9a3.394,3.394,0,0,0,.762,2.289,2.635,2.635,0,0,0,2.035.781,6.9,6.9,0,0,0,2.734-.578V16.6a6.864,6.864,0,0,1-1.3.426A7.31,7.31,0,0,1,303.426,17.156Zm-.352-7.789a2.118,2.118,0,0,0-1.645.672,3.1,3.1,0,0,0-.723,1.859h4.477a2.851,2.851,0,0,0-.547-1.879A1.925,1.925,0,0,0,303.074,9.367ZM310.66,17l-3.25-8.562H308.8l1.844,5.078a24.035,24.035,0,0,1,.734,2.313h.063a17.464,17.464,0,0,1,.543-1.715q.457-1.3,2.051-5.676h1.391L312.176,17Zm11.406,0-.258-1.219h-.062a3.6,3.6,0,0,1-1.277,1.09,3.893,3.893,0,0,1-1.59.285,2.86,2.86,0,0,1-2-.656,2.394,2.394,0,0,1-.723-1.867q0-2.594,4.148-2.719l1.453-.047v-.531a2.171,2.171,0,0,0-.434-1.488,1.783,1.783,0,0,0-1.387-.48,5.65,5.65,0,0,0-2.422.656l-.4-.992a6.094,6.094,0,0,1,1.387-.539,6.006,6.006,0,0,1,1.512-.2,3.262,3.262,0,0,1,2.27.68,2.837,2.837,0,0,1,.738,2.18V17Zm-2.93-.914a2.632,2.632,0,0,0,1.9-.664,2.457,2.457,0,0,0,.691-1.859v-.773l-1.3.055a4.717,4.717,0,0,0-2.23.48,1.449,1.449,0,0,0-.684,1.324,1.336,1.336,0,0,0,.426,1.07A1.767,1.767,0,0,0,319.137,16.086ZM32.922,39.156a3.654,3.654,0,0,1-2.879-1.145,4.707,4.707,0,0,1-1.02-3.238,4.853,4.853,0,0,1,1.035-3.32,3.727,3.727,0,0,1,2.949-1.172,5.852,5.852,0,0,1,1.234.133,4.066,4.066,0,0,1,.969.313l-.4,1.1a6.1,6.1,0,0,0-.937-.285,4.186,4.186,0,0,0-.9-.113q-2.609,0-2.609,3.328A3.963,3.963,0,0,0,31,37.18a2.215,2.215,0,0,0,1.887.844,5.769,5.769,0,0,0,2.2-.461v1.148A4.679,4.679,0,0,1,32.922,39.156Zm11.586-4.445a4.724,4.724,0,0,1-1.055,3.27,3.714,3.714,0,0,1-2.914,1.176,3.86,3.86,0,0,1-2.039-.539,3.558,3.558,0,0,1-1.375-1.547,5.391,5.391,0,0,1-.484-2.359,4.716,4.716,0,0,1,1.047-3.262,3.7,3.7,0,0,1,2.906-1.168,3.622,3.622,0,0,1,2.855,1.2A4.7,4.7,0,0,1,44.508,34.711Zm-6.523,0a4.064,4.064,0,0,0,.656,2.5,2.6,2.6,0,0,0,3.863,0,4.043,4.043,0,0,0,.66-2.5,3.978,3.978,0,0,0-.66-2.48,2.32,2.32,0,0,0-1.949-.848,2.283,2.283,0,0,0-1.922.836A4.023,4.023,0,0,0,37.984,34.711ZM48.078,39h-1.3V26.844h1.3Zm6.367.156a3.934,3.934,0,0,1-3-1.156,4.476,4.476,0,0,1-1.1-3.211,4.964,4.964,0,0,1,1.02-3.289,3.387,3.387,0,0,1,2.738-1.219,3.229,3.229,0,0,1,2.547,1.059,4.057,4.057,0,0,1,.938,2.793v.82H51.7a3.394,3.394,0,0,0,.762,2.289,2.635,2.635,0,0,0,2.035.781,6.9,6.9,0,0,0,2.734-.578V38.6a6.863,6.863,0,0,1-1.3.426A7.31,7.31,0,0,1,54.445,39.156Zm-.352-7.789a2.118,2.118,0,0,0-1.645.672,3.1,3.1,0,0,0-.723,1.859H56.2a2.851,2.851,0,0,0-.547-1.879A1.925,1.925,0,0,0,54.094,31.367Zm9.133,7.789a3.654,3.654,0,0,1-2.879-1.145,4.707,4.707,0,0,1-1.02-3.238,4.853,4.853,0,0,1,1.035-3.32,3.727,3.727,0,0,1,2.949-1.172,5.852,5.852,0,0,1,1.234.133,4.066,4.066,0,0,1,.969.313l-.4,1.1a6.1,6.1,0,0,0-.937-.285,4.186,4.186,0,0,0-.9-.113q-2.609,0-2.609,3.328a3.963,3.963,0,0,0,.637,2.422,2.215,2.215,0,0,0,1.887.844,5.769,5.769,0,0,0,2.2-.461v1.148A4.679,4.679,0,0,1,63.227,39.156Zm7.617,0a3.654,3.654,0,0,1-2.879-1.145,4.707,4.707,0,0,1-1.02-3.238,4.853,4.853,0,0,1,1.035-3.32,3.727,3.727,0,0,1,2.949-1.172,5.852,5.852,0,0,1,1.234.133,4.066,4.066,0,0,1,.969.313l-.4,1.1a6.1,6.1,0,0,0-.937-.285,4.186,4.186,0,0,0-.9-.113q-2.609,0-2.609,3.328a3.963,3.963,0,0,0,.637,2.422,2.215,2.215,0,0,0,1.887.844,5.769,5.769,0,0,0,2.2-.461v1.148A4.679,4.679,0,0,1,70.844,39.156ZM76.336,39h-1.3V30.438h1.3ZM74.93,28.117a.861.861,0,0,1,.219-.652.81.81,0,0,1,1.086,0,.846.846,0,0,1,.227.648.859.859,0,0,1-.227.652.794.794,0,0,1-1.086,0A.877.877,0,0,1,74.93,28.117Zm11.547,6.594a4.724,4.724,0,0,1-1.055,3.27,3.714,3.714,0,0,1-2.914,1.176,3.86,3.86,0,0,1-2.039-.539,3.558,3.558,0,0,1-1.375-1.547,5.391,5.391,0,0,1-.484-2.359,4.716,4.716,0,0,1,1.047-3.262,3.7,3.7,0,0,1,2.906-1.168,3.622,3.622,0,0,1,2.855,1.2A4.7,4.7,0,0,1,86.477,34.711Zm-6.523,0a4.064,4.064,0,0,0,.656,2.5,2.6,2.6,0,0,0,3.863,0,4.043,4.043,0,0,0,.66-2.5,3.978,3.978,0,0,0-.66-2.48,2.32,2.32,0,0,0-1.949-.848,2.283,2.283,0,0,0-1.922.836A4.023,4.023,0,0,0,79.953,34.711Zm1.5-5.6q.375-.484.809-1.172a13.411,13.411,0,0,0,.684-1.2h1.578v.164a14.473,14.473,0,0,1-2.2,2.4h-.867ZM94.609,39V33.461a2.235,2.235,0,0,0-.477-1.562,1.941,1.941,0,0,0-1.492-.516,2.461,2.461,0,0,0-1.969.727,3.668,3.668,0,0,0-.625,2.4V39h-1.3V30.438H89.8l.211,1.172h.063a2.648,2.648,0,0,1,1.117-.98,3.63,3.63,0,0,1,1.6-.348,3.252,3.252,0,0,1,2.328.746,3.175,3.175,0,0,1,.781,2.387V39Zm11.734.156a3.934,3.934,0,0,1-3-1.156,4.476,4.476,0,0,1-1.1-3.211,4.964,4.964,0,0,1,1.02-3.289,3.387,3.387,0,0,1,2.738-1.219,3.229,3.229,0,0,1,2.547,1.059,4.057,4.057,0,0,1,.938,2.793v.82h-5.9a3.394,3.394,0,0,0,.762,2.289,2.635,2.635,0,0,0,2.035.781,6.9,6.9,0,0,0,2.734-.578V38.6a6.863,6.863,0,0,1-1.3.426A7.31,7.31,0,0,1,106.344,39.156Zm-.352-7.789a2.118,2.118,0,0,0-1.645.672,3.1,3.1,0,0,0-.723,1.859H108.1a2.851,2.851,0,0,0-.547-1.879A1.925,1.925,0,0,0,105.992,31.367ZM117.563,39V33.461a2.235,2.235,0,0,0-.477-1.562,1.941,1.941,0,0,0-1.492-.516,2.461,2.461,0,0,0-1.969.727,3.668,3.668,0,0,0-.625,2.4V39h-1.3V30.438h1.055l.211,1.172h.063a2.648,2.648,0,0,1,1.117-.98,3.63,3.63,0,0,1,1.6-.348,3.252,3.252,0,0,1,2.328.746,3.175,3.175,0,0,1,.781,2.387V39Zm11.539.156a3.654,3.654,0,0,1-2.879-1.145,4.707,4.707,0,0,1-1.02-3.238,4.853,4.853,0,0,1,1.035-3.32,3.727,3.727,0,0,1,2.949-1.172,5.852,5.852,0,0,1,1.234.133,4.066,4.066,0,0,1,.969.313l-.4,1.1a6.1,6.1,0,0,0-.937-.285,4.186,4.186,0,0,0-.9-.113q-2.609,0-2.609,3.328a3.963,3.963,0,0,0,.637,2.422,2.215,2.215,0,0,0,1.887.844,5.769,5.769,0,0,0,2.2-.461v1.148A4.679,4.679,0,0,1,129.1,39.156Zm5.414-8.719v5.555a2.235,2.235,0,0,0,.477,1.563,1.941,1.941,0,0,0,1.492.516,2.435,2.435,0,0,0,1.965-.734,3.7,3.7,0,0,0,.621-2.4v-4.5h1.3V39H139.3l-.187-1.148h-.07a2.585,2.585,0,0,1-1.105.969,3.716,3.716,0,0,1-1.613.336,3.273,3.273,0,0,1-2.34-.742,3.159,3.159,0,0,1-.777-2.375v-5.6ZM148.383,39l-.258-1.219h-.062a3.6,3.6,0,0,1-1.277,1.09,3.893,3.893,0,0,1-1.59.285,2.86,2.86,0,0,1-2-.656,2.394,2.394,0,0,1-.723-1.867q0-2.594,4.148-2.719l1.453-.047v-.531a2.171,2.171,0,0,0-.434-1.488,1.783,1.783,0,0,0-1.387-.48,5.65,5.65,0,0,0-2.422.656l-.4-.992a6.094,6.094,0,0,1,1.387-.539,6.006,6.006,0,0,1,1.512-.2,3.262,3.262,0,0,1,2.27.68,2.837,2.837,0,0,1,.738,2.18V39Zm-2.93-.914a2.632,2.632,0,0,0,1.9-.664,2.457,2.457,0,0,0,.691-1.859v-.773l-1.3.055a4.717,4.717,0,0,0-2.23.48,1.449,1.449,0,0,0-.684,1.324,1.336,1.336,0,0,0,.426,1.07A1.767,1.767,0,0,0,145.453,38.086ZM157.875,39V33.461A2.235,2.235,0,0,0,157.4,31.9a1.941,1.941,0,0,0-1.492-.516,2.461,2.461,0,0,0-1.969.727,3.668,3.668,0,0,0-.625,2.4V39h-1.3V30.438h1.055l.211,1.172h.063a2.648,2.648,0,0,1,1.117-.98,3.63,3.63,0,0,1,1.6-.348,3.252,3.252,0,0,1,2.328.746,3.175,3.175,0,0,1,.781,2.387V39Zm6.727-.914a4.236,4.236,0,0,0,.664-.051,4.3,4.3,0,0,0,.508-.105v.992a2.371,2.371,0,0,1-.621.168,4.664,4.664,0,0,1-.738.066q-2.484,0-2.484-2.617V31.445H160.7V30.82l1.227-.539.547-1.828h.75v1.984h2.484v1.008h-2.484v5.039a1.733,1.733,0,0,0,.367,1.188A1.278,1.278,0,0,0,164.6,38.086Zm10.273-3.375a4.724,4.724,0,0,1-1.055,3.27,3.714,3.714,0,0,1-2.914,1.176,3.86,3.86,0,0,1-2.039-.539,3.558,3.558,0,0,1-1.375-1.547,5.391,5.391,0,0,1-.484-2.359,4.716,4.716,0,0,1,1.047-3.262,3.7,3.7,0,0,1,2.906-1.168,3.622,3.622,0,0,1,2.855,1.2A4.7,4.7,0,0,1,174.875,34.711Zm-6.523,0a4.064,4.064,0,0,0,.656,2.5,2.6,2.6,0,0,0,3.863,0,4.043,4.043,0,0,0,.66-2.5,3.978,3.978,0,0,0-.66-2.48,2.32,2.32,0,0,0-1.949-.848,2.283,2.283,0,0,0-1.922.836A4.023,4.023,0,0,0,168.352,34.711ZM186.57,39l-.258-1.219h-.062a3.6,3.6,0,0,1-1.277,1.09,3.893,3.893,0,0,1-1.59.285,2.86,2.86,0,0,1-2-.656,2.394,2.394,0,0,1-.723-1.867q0-2.594,4.148-2.719l1.453-.047v-.531a2.171,2.171,0,0,0-.434-1.488,1.783,1.783,0,0,0-1.387-.48,5.65,5.65,0,0,0-2.422.656l-.4-.992a6.094,6.094,0,0,1,1.387-.539,6.006,6.006,0,0,1,1.512-.2,3.262,3.262,0,0,1,2.27.68,2.837,2.837,0,0,1,.738,2.18V39Zm-2.93-.914a2.632,2.632,0,0,0,1.9-.664,2.457,2.457,0,0,0,.691-1.859v-.773l-1.3.055a4.717,4.717,0,0,0-2.23.48,1.449,1.449,0,0,0-.684,1.324,1.336,1.336,0,0,0,.426,1.07A1.767,1.767,0,0,0,183.641,38.086Zm16.242-1.422a2.145,2.145,0,0,1-.891,1.844,4.186,4.186,0,0,1-2.5.648,5.436,5.436,0,0,1-2.656-.539v-1.2a6.424,6.424,0,0,0,1.324.492,5.53,5.53,0,0,0,1.363.18,3.092,3.092,0,0,0,1.563-.324,1.116,1.116,0,0,0,.113-1.844,6.82,6.82,0,0,0-1.691-.84,9.172,9.172,0,0,1-1.7-.777,2.321,2.321,0,0,1-.75-.754,1.966,1.966,0,0,1-.246-1.008,1.921,1.921,0,0,1,.852-1.652A3.968,3.968,0,0,1,197,30.281a6.835,6.835,0,0,1,2.7.563l-.461,1.055a6.2,6.2,0,0,0-2.336-.531,2.688,2.688,0,0,0-1.391.289.894.894,0,0,0-.469.8.971.971,0,0,0,.176.586,1.735,1.735,0,0,0,.566.461,12.659,12.659,0,0,0,1.5.633,5.6,5.6,0,0,1,2.059,1.117A1.97,1.97,0,0,1,199.883,36.664ZM203.289,39h-1.3V30.438h1.3Zm-1.406-10.883a.861.861,0,0,1,.219-.652.81.81,0,0,1,1.086,0,.846.846,0,0,1,.227.648.859.859,0,0,1-.227.652.794.794,0,0,1-1.086,0A.877.877,0,0,1,201.883,28.117ZM207.336,39h-1.3V26.844h1.3Zm3.969-8.562v5.555a2.235,2.235,0,0,0,.477,1.563,1.941,1.941,0,0,0,1.492.516,2.435,2.435,0,0,0,1.965-.734,3.7,3.7,0,0,0,.621-2.4v-4.5h1.3V39h-1.07l-.187-1.148h-.07a2.585,2.585,0,0,1-1.105.969,3.716,3.716,0,0,1-1.613.336,3.273,3.273,0,0,1-2.34-.742,3.159,3.159,0,0,1-.777-2.375v-5.6Zm12.219,8.719a3.934,3.934,0,0,1-3-1.156,4.476,4.476,0,0,1-1.1-3.211,4.964,4.964,0,0,1,1.02-3.289,3.387,3.387,0,0,1,2.738-1.219,3.229,3.229,0,0,1,2.547,1.059,4.057,4.057,0,0,1,.938,2.793v.82h-5.9a3.394,3.394,0,0,0,.762,2.289,2.634,2.634,0,0,0,2.035.781,6.9,6.9,0,0,0,2.734-.578V38.6a6.863,6.863,0,0,1-1.3.426A7.31,7.31,0,0,1,223.523,39.156Zm-.352-7.789a2.118,2.118,0,0,0-1.645.672A3.1,3.1,0,0,0,220.8,33.9h4.477a2.851,2.851,0,0,0-.547-1.879A1.925,1.925,0,0,0,223.172,31.367Zm8.477,6.719a4.236,4.236,0,0,0,.664-.051,4.3,4.3,0,0,0,.508-.105v.992a2.371,2.371,0,0,1-.621.168,4.664,4.664,0,0,1-.738.066q-2.484,0-2.484-2.617V31.445H227.75V30.82l1.227-.539.547-1.828h.75v1.984h2.484v1.008h-2.484v5.039a1.733,1.733,0,0,0,.367,1.188A1.278,1.278,0,0,0,231.648,38.086ZM239.8,39l-.258-1.219h-.062a3.6,3.6,0,0,1-1.277,1.09,3.893,3.893,0,0,1-1.59.285,2.86,2.86,0,0,1-2-.656,2.394,2.394,0,0,1-.723-1.867q0-2.594,4.148-2.719l1.453-.047v-.531a2.171,2.171,0,0,0-.434-1.488,1.783,1.783,0,0,0-1.387-.48,5.65,5.65,0,0,0-2.422.656l-.4-.992a6.094,6.094,0,0,1,1.387-.539,6.006,6.006,0,0,1,1.512-.2,3.262,3.262,0,0,1,2.27.68,2.837,2.837,0,0,1,.738,2.18V39Zm-2.93-.914a2.632,2.632,0,0,0,1.9-.664,2.457,2.457,0,0,0,.691-1.859v-.773l-1.3.055a4.717,4.717,0,0,0-2.23.48,1.449,1.449,0,0,0-.684,1.324,1.336,1.336,0,0,0,.426,1.07A1.767,1.767,0,0,0,236.867,38.086Zm7.922-.945.117.18q-.2.781-.586,1.816t-.8,1.926h-.977q.211-.813.465-2.008t.355-1.914Zm9.484.945a4.236,4.236,0,0,0,.664-.051,4.3,4.3,0,0,0,.508-.105v.992a2.371,2.371,0,0,1-.621.168,4.664,4.664,0,0,1-.738.066q-2.484,0-2.484-2.617V31.445h-1.227V30.82l1.227-.539.547-1.828h.75v1.984h2.484v1.008H252.9v5.039a1.733,1.733,0,0,0,.367,1.188A1.278,1.278,0,0,0,254.273,38.086Zm6.5,1.07a3.934,3.934,0,0,1-3-1.156,4.476,4.476,0,0,1-1.1-3.211A4.964,4.964,0,0,1,257.7,31.5a3.387,3.387,0,0,1,2.738-1.219,3.229,3.229,0,0,1,2.547,1.059,4.057,4.057,0,0,1,.938,2.793v.82h-5.9a3.394,3.394,0,0,0,.762,2.289,2.635,2.635,0,0,0,2.035.781,6.9,6.9,0,0,0,2.734-.578V38.6a6.863,6.863,0,0,1-1.3.426A7.31,7.31,0,0,1,260.773,39.156Zm-.352-7.789a2.118,2.118,0,0,0-1.645.672,3.1,3.1,0,0,0-.723,1.859h4.477a2.851,2.851,0,0,0-.547-1.879A1.925,1.925,0,0,0,260.422,31.367Zm4.672,11.477a3.121,3.121,0,0,1-1.2-.2V41.594a3.8,3.8,0,0,0,1.063.156,1.117,1.117,0,0,0,.895-.332,1.523,1.523,0,0,0,.285-1.012V30.438h1.3v9.875Q267.43,42.844,265.094,42.844Zm.93-14.727a.861.861,0,0,1,.219-.652.81.81,0,0,1,1.086,0,.846.846,0,0,1,.227.648.859.859,0,0,1-.227.652.794.794,0,0,1-1.086,0A.877.877,0,0,1,266.023,28.117ZM271.477,39h-1.3V30.438h1.3ZM270.07,28.117a.861.861,0,0,1,.219-.652.81.81,0,0,1,1.086,0,.846.846,0,0,1,.227.648.859.859,0,0,1-.227.652.794.794,0,0,1-1.086,0A.877.877,0,0,1,270.07,28.117Zm9.984,9.734h-.07a3.047,3.047,0,0,1-2.687,1.3,3.179,3.179,0,0,1-2.613-1.148,5.055,5.055,0,0,1-.934-3.266,5.141,5.141,0,0,1,.938-3.289,3.155,3.155,0,0,1,2.609-1.172,3.114,3.114,0,0,1,2.672,1.266h.1l-.055-.617-.031-.6V26.844h1.3V39h-1.055Zm-2.594.219a2.361,2.361,0,0,0,1.926-.723,3.652,3.652,0,0,0,.6-2.332v-.273a4.3,4.3,0,0,0-.605-2.6,2.3,2.3,0,0,0-1.934-.777,1.985,1.985,0,0,0-1.746.887,4.409,4.409,0,0,0-.605,2.5,4.227,4.227,0,0,0,.6,2.477A2.037,2.037,0,0,0,277.461,38.07Zm13.961-3.359a4.724,4.724,0,0,1-1.055,3.27,3.714,3.714,0,0,1-2.914,1.176,3.86,3.86,0,0,1-2.039-.539,3.558,3.558,0,0,1-1.375-1.547,5.391,5.391,0,0,1-.484-2.359,4.716,4.716,0,0,1,1.047-3.262,3.7,3.7,0,0,1,2.906-1.168,3.622,3.622,0,0,1,2.855,1.2A4.7,4.7,0,0,1,291.422,34.711Zm-6.523,0a4.064,4.064,0,0,0,.656,2.5,2.6,2.6,0,0,0,3.863,0,4.044,4.044,0,0,0,.66-2.5,3.978,3.978,0,0,0-.66-2.48,2.32,2.32,0,0,0-1.949-.848,2.283,2.283,0,0,0-1.922.836A4.023,4.023,0,0,0,284.9,34.711Zm14.32,1.953a2.145,2.145,0,0,1-.891,1.844,4.186,4.186,0,0,1-2.5.648,5.436,5.436,0,0,1-2.656-.539v-1.2a6.424,6.424,0,0,0,1.324.492,5.53,5.53,0,0,0,1.363.18,3.092,3.092,0,0,0,1.563-.324,1.116,1.116,0,0,0,.113-1.844,6.821,6.821,0,0,0-1.691-.84,9.172,9.172,0,0,1-1.7-.777,2.321,2.321,0,0,1-.75-.754,1.966,1.966,0,0,1-.246-1.008A1.921,1.921,0,0,1,294,30.887a3.968,3.968,0,0,1,2.336-.605,6.835,6.835,0,0,1,2.7.563l-.461,1.055a6.2,6.2,0,0,0-2.336-.531,2.687,2.687,0,0,0-1.391.289.894.894,0,0,0-.469.8.971.971,0,0,0,.176.586,1.735,1.735,0,0,0,.566.461,12.657,12.657,0,0,0,1.5.633,5.6,5.6,0,0,1,2.059,1.117A1.97,1.97,0,0,1,299.219,36.664Zm3.469.477.117.18q-.2.781-.586,1.816t-.8,1.926h-.977q.211-.813.465-2.008t.355-1.914ZM22.52,61.156a3.654,3.654,0,0,1-2.879-1.145,4.707,4.707,0,0,1-1.02-3.238,4.853,4.853,0,0,1,1.035-3.32,3.727,3.727,0,0,1,2.949-1.172,5.852,5.852,0,0,1,1.234.133,4.066,4.066,0,0,1,.969.313l-.4,1.1a6.1,6.1,0,0,0-.937-.285,4.186,4.186,0,0,0-.9-.113q-2.609,0-2.609,3.328A3.963,3.963,0,0,0,20.6,59.18a2.215,2.215,0,0,0,1.887.844,5.769,5.769,0,0,0,2.2-.461v1.148A4.679,4.679,0,0,1,22.52,61.156Zm11.586-4.445a4.724,4.724,0,0,1-1.055,3.27,3.714,3.714,0,0,1-2.914,1.176,3.86,3.86,0,0,1-2.039-.539,3.558,3.558,0,0,1-1.375-1.547,5.391,5.391,0,0,1-.484-2.359,4.716,4.716,0,0,1,1.047-3.262,3.7,3.7,0,0,1,2.906-1.168,3.622,3.622,0,0,1,2.855,1.2A4.7,4.7,0,0,1,34.105,56.711Zm-6.523,0a4.064,4.064,0,0,0,.656,2.5,2.6,2.6,0,0,0,3.863,0,4.043,4.043,0,0,0,.66-2.5,3.978,3.978,0,0,0-.66-2.48,2.32,2.32,0,0,0-1.949-.848,2.283,2.283,0,0,0-1.922.836A4.023,4.023,0,0,0,27.582,56.711ZM37.676,61h-1.3V48.844h1.3Zm10.141-4.289a4.724,4.724,0,0,1-1.055,3.27,3.714,3.714,0,0,1-2.914,1.176,3.86,3.86,0,0,1-2.039-.539,3.558,3.558,0,0,1-1.375-1.547,5.391,5.391,0,0,1-.484-2.359A4.716,4.716,0,0,1,41,53.449,3.7,3.7,0,0,1,43.9,52.281a3.622,3.622,0,0,1,2.855,1.2A4.7,4.7,0,0,1,47.816,56.711Zm-6.523,0a4.064,4.064,0,0,0,.656,2.5,2.6,2.6,0,0,0,3.863,0,4.043,4.043,0,0,0,.66-2.5,3.978,3.978,0,0,0-.66-2.48,2.32,2.32,0,0,0-1.949-.848,2.283,2.283,0,0,0-1.922.836A4.023,4.023,0,0,0,41.293,56.711ZM54,52.281a5.075,5.075,0,0,1,1.023.094l-.18,1.2a4.418,4.418,0,0,0-.937-.117,2.282,2.282,0,0,0-1.777.844,3.077,3.077,0,0,0-.738,2.1V61h-1.3V52.438h1.07l.148,1.586h.063a3.764,3.764,0,0,1,1.148-1.289A2.585,2.585,0,0,1,54,52.281Zm6.242,8.875a3.934,3.934,0,0,1-3-1.156,4.476,4.476,0,0,1-1.1-3.211,4.964,4.964,0,0,1,1.02-3.289A3.387,3.387,0,0,1,59.9,52.281a3.229,3.229,0,0,1,2.547,1.059,4.057,4.057,0,0,1,.938,2.793v.82h-5.9a3.394,3.394,0,0,0,.762,2.289,2.635,2.635,0,0,0,2.035.781,6.9,6.9,0,0,0,2.734-.578V60.6a6.863,6.863,0,0,1-1.3.426A7.31,7.31,0,0,1,60.238,61.156Zm-.352-7.789a2.118,2.118,0,0,0-1.645.672A3.1,3.1,0,0,0,57.52,55.9H62a2.851,2.851,0,0,0-.547-1.879A1.925,1.925,0,0,0,59.887,53.367Zm11.234,5.3a2.145,2.145,0,0,1-.891,1.844,4.186,4.186,0,0,1-2.5.648,5.436,5.436,0,0,1-2.656-.539v-1.2a6.424,6.424,0,0,0,1.324.492,5.53,5.53,0,0,0,1.363.18,3.092,3.092,0,0,0,1.563-.324,1.116,1.116,0,0,0,.113-1.844,6.82,6.82,0,0,0-1.691-.84,9.172,9.172,0,0,1-1.7-.777,2.321,2.321,0,0,1-.75-.754,1.966,1.966,0,0,1-.246-1.008,1.921,1.921,0,0,1,.852-1.652,3.968,3.968,0,0,1,2.336-.605,6.835,6.835,0,0,1,2.7.563L70.48,53.9a6.2,6.2,0,0,0-2.336-.531,2.688,2.688,0,0,0-1.391.289.894.894,0,0,0-.469.8.971.971,0,0,0,.176.586,1.735,1.735,0,0,0,.566.461,12.658,12.658,0,0,0,1.5.633,5.6,5.6,0,0,1,2.059,1.117A1.97,1.97,0,0,1,71.121,58.664Zm3.469.477.117.18q-.2.781-.586,1.816t-.8,1.926h-.977q.211-.813.465-2.008t.355-1.914Zm9.484.945a4.236,4.236,0,0,0,.664-.051,4.3,4.3,0,0,0,.508-.105v.992a2.371,2.371,0,0,1-.621.168,4.664,4.664,0,0,1-.738.066q-2.484,0-2.484-2.617V53.445H80.176V52.82l1.227-.539.547-1.828h.75v1.984h2.484v1.008H82.7v5.039a1.734,1.734,0,0,0,.367,1.188A1.278,1.278,0,0,0,84.074,60.086Zm6.5,1.07a3.934,3.934,0,0,1-3-1.156,4.476,4.476,0,0,1-1.1-3.211A4.964,4.964,0,0,1,87.5,53.5a3.387,3.387,0,0,1,2.738-1.219,3.229,3.229,0,0,1,2.547,1.059,4.057,4.057,0,0,1,.938,2.793v.82h-5.9a3.394,3.394,0,0,0,.762,2.289,2.635,2.635,0,0,0,2.035.781,6.9,6.9,0,0,0,2.734-.578V60.6a6.863,6.863,0,0,1-1.3.426A7.31,7.31,0,0,1,90.574,61.156Zm-.352-7.789a2.118,2.118,0,0,0-1.645.672,3.1,3.1,0,0,0-.723,1.859h4.477a2.851,2.851,0,0,0-.547-1.879A1.925,1.925,0,0,0,90.223,53.367ZM98,56.617l-2.977-4.18H96.5l2.258,3.281L101,52.438h1.461l-2.977,4.18L102.621,61h-1.469l-2.4-3.469L96.332,61H94.863Zm9.086,3.469a4.236,4.236,0,0,0,.664-.051,4.3,4.3,0,0,0,.508-.105v.992a2.371,2.371,0,0,1-.621.168,4.664,4.664,0,0,1-.738.066q-2.484,0-2.484-2.617V53.445h-1.227V52.82l1.227-.539.547-1.828h.75v1.984h2.484v1.008h-2.484v5.039a1.734,1.734,0,0,0,.367,1.188A1.278,1.278,0,0,0,107.082,60.086Zm4.1-7.648v5.555a2.235,2.235,0,0,0,.477,1.563,1.941,1.941,0,0,0,1.492.516,2.435,2.435,0,0,0,1.965-.734,3.7,3.7,0,0,0,.621-2.4v-4.5h1.3V61h-1.07l-.187-1.148h-.07a2.585,2.585,0,0,1-1.105.969,3.716,3.716,0,0,1-1.613.336,3.273,3.273,0,0,1-2.34-.742,3.159,3.159,0,0,1-.777-2.375v-5.6Zm12.508-.156a5.075,5.075,0,0,1,1.023.094l-.18,1.2a4.418,4.418,0,0,0-.937-.117,2.282,2.282,0,0,0-1.777.844,3.077,3.077,0,0,0-.738,2.1V61h-1.3V52.438h1.07L121,54.023h.063a3.764,3.764,0,0,1,1.148-1.289A2.585,2.585,0,0,1,123.691,52.281ZM131.582,61l-.258-1.219h-.062a3.6,3.6,0,0,1-1.277,1.09,3.893,3.893,0,0,1-1.59.285,2.86,2.86,0,0,1-2-.656,2.394,2.394,0,0,1-.723-1.867q0-2.594,4.148-2.719l1.453-.047v-.531a2.171,2.171,0,0,0-.434-1.488,1.783,1.783,0,0,0-1.387-.48,5.65,5.65,0,0,0-2.422.656l-.4-.992a6.094,6.094,0,0,1,1.387-.539,6.006,6.006,0,0,1,1.512-.2,3.262,3.262,0,0,1,2.27.68,2.837,2.837,0,0,1,.738,2.18V61Zm-2.93-.914a2.632,2.632,0,0,0,1.9-.664,2.457,2.457,0,0,0,.691-1.859v-.773l-1.3.055a4.717,4.717,0,0,0-2.23.48,1.449,1.449,0,0,0-.684,1.324,1.336,1.336,0,0,0,.426,1.07A1.767,1.767,0,0,0,128.652,60.086Zm12.086-1.422a2.145,2.145,0,0,1-.891,1.844,4.186,4.186,0,0,1-2.5.648,5.436,5.436,0,0,1-2.656-.539v-1.2a6.424,6.424,0,0,0,1.324.492,5.53,5.53,0,0,0,1.363.18,3.092,3.092,0,0,0,1.563-.324,1.116,1.116,0,0,0,.113-1.844,6.82,6.82,0,0,0-1.691-.84,9.172,9.172,0,0,1-1.7-.777,2.321,2.321,0,0,1-.75-.754,1.966,1.966,0,0,1-.246-1.008,1.921,1.921,0,0,1,.852-1.652,3.968,3.968,0,0,1,2.336-.605,6.835,6.835,0,0,1,2.7.563L140.1,53.9a6.2,6.2,0,0,0-2.336-.531,2.688,2.688,0,0,0-1.391.289.894.894,0,0,0-.469.8.971.971,0,0,0,.176.586,1.735,1.735,0,0,0,.566.461,12.659,12.659,0,0,0,1.5.633A5.6,5.6,0,0,1,140.2,57.25,1.97,1.97,0,0,1,140.738,58.664Zm3.469.477.117.18q-.2.781-.586,1.816t-.8,1.926h-.977q.211-.813.465-2.008t.355-1.914Zm12.242-.477a2.145,2.145,0,0,1-.891,1.844,4.186,4.186,0,0,1-2.5.648,5.436,5.436,0,0,1-2.656-.539v-1.2a6.424,6.424,0,0,0,1.324.492,5.53,5.53,0,0,0,1.363.18,3.092,3.092,0,0,0,1.563-.324,1.116,1.116,0,0,0,.113-1.844,6.82,6.82,0,0,0-1.691-.84,9.172,9.172,0,0,1-1.7-.777,2.321,2.321,0,0,1-.75-.754,1.966,1.966,0,0,1-.246-1.008,1.921,1.921,0,0,1,.852-1.652,3.968,3.968,0,0,1,2.336-.605,6.835,6.835,0,0,1,2.7.563l-.461,1.055a6.2,6.2,0,0,0-2.336-.531,2.688,2.688,0,0,0-1.391.289.894.894,0,0,0-.469.8.971.971,0,0,0,.176.586,1.735,1.735,0,0,0,.566.461,12.659,12.659,0,0,0,1.5.633,5.6,5.6,0,0,1,2.059,1.117A1.97,1.97,0,0,1,156.449,58.664Zm9.5-1.953a4.724,4.724,0,0,1-1.055,3.27,3.714,3.714,0,0,1-2.914,1.176,3.86,3.86,0,0,1-2.039-.539,3.558,3.558,0,0,1-1.375-1.547,5.391,5.391,0,0,1-.484-2.359,4.716,4.716,0,0,1,1.047-3.262,3.7,3.7,0,0,1,2.906-1.168,3.622,3.622,0,0,1,2.855,1.2A4.7,4.7,0,0,1,165.949,56.711Zm-6.523,0a4.064,4.064,0,0,0,.656,2.5,2.6,2.6,0,0,0,3.863,0,4.043,4.043,0,0,0,.66-2.5,3.978,3.978,0,0,0-.66-2.48A2.32,2.32,0,0,0,162,53.383a2.283,2.283,0,0,0-1.922.836A4.023,4.023,0,0,0,159.426,56.711ZM174.082,61V55.461a2.235,2.235,0,0,0-.477-1.562,1.941,1.941,0,0,0-1.492-.516,2.461,2.461,0,0,0-1.969.727,3.668,3.668,0,0,0-.625,2.4V61h-1.3V52.438h1.055l.211,1.172h.063a2.648,2.648,0,0,1,1.117-.98,3.63,3.63,0,0,1,1.6-.348,3.252,3.252,0,0,1,2.328.746,3.175,3.175,0,0,1,.781,2.387V61Zm5.258,0h-1.3V52.438h1.3Zm-1.406-10.883a.861.861,0,0,1,.219-.652.81.81,0,0,1,1.086,0,.846.846,0,0,1,.227.648.859.859,0,0,1-.227.652.794.794,0,0,1-1.086,0A.877.877,0,0,1,177.934,50.117Zm9.984,9.734h-.07a3.047,3.047,0,0,1-2.687,1.3,3.179,3.179,0,0,1-2.613-1.148,5.055,5.055,0,0,1-.934-3.266,5.141,5.141,0,0,1,.938-3.289,3.155,3.155,0,0,1,2.609-1.172,3.114,3.114,0,0,1,2.672,1.266h.1l-.055-.617-.031-.6V48.844h1.3V61H188.09Zm-2.594.219a2.361,2.361,0,0,0,1.926-.723,3.652,3.652,0,0,0,.6-2.332v-.273a4.3,4.3,0,0,0-.605-2.6,2.3,2.3,0,0,0-1.934-.777,1.985,1.985,0,0,0-1.746.887,4.409,4.409,0,0,0-.605,2.5,4.227,4.227,0,0,0,.6,2.477A2.037,2.037,0,0,0,185.324,60.07Zm13.961-3.359a4.724,4.724,0,0,1-1.055,3.27,3.714,3.714,0,0,1-2.914,1.176,3.86,3.86,0,0,1-2.039-.539A3.558,3.558,0,0,1,191.9,59.07a5.391,5.391,0,0,1-.484-2.359,4.716,4.716,0,0,1,1.047-3.262,3.7,3.7,0,0,1,2.906-1.168,3.622,3.622,0,0,1,2.855,1.2A4.7,4.7,0,0,1,199.285,56.711Zm-6.523,0a4.064,4.064,0,0,0,.656,2.5,2.6,2.6,0,0,0,3.863,0,4.043,4.043,0,0,0,.66-2.5,3.978,3.978,0,0,0-.66-2.48,2.32,2.32,0,0,0-1.949-.848,2.283,2.283,0,0,0-1.922.836A4.023,4.023,0,0,0,192.762,56.711Zm14.32,1.953a2.145,2.145,0,0,1-.891,1.844,4.186,4.186,0,0,1-2.5.648,5.436,5.436,0,0,1-2.656-.539v-1.2a6.424,6.424,0,0,0,1.324.492,5.53,5.53,0,0,0,1.363.18,3.092,3.092,0,0,0,1.563-.324,1.116,1.116,0,0,0,.113-1.844,6.82,6.82,0,0,0-1.691-.84,9.172,9.172,0,0,1-1.7-.777,2.321,2.321,0,0,1-.75-.754,1.966,1.966,0,0,1-.246-1.008,1.921,1.921,0,0,1,.852-1.652,3.968,3.968,0,0,1,2.336-.605,6.835,6.835,0,0,1,2.7.563l-.461,1.055a6.2,6.2,0,0,0-2.336-.531,2.688,2.688,0,0,0-1.391.289.894.894,0,0,0-.469.8.971.971,0,0,0,.176.586,1.735,1.735,0,0,0,.566.461,12.659,12.659,0,0,0,1.5.633,5.6,5.6,0,0,1,2.059,1.117A1.97,1.97,0,0,1,207.082,58.664Zm3.469.477.117.18q-.2.781-.586,1.816t-.8,1.926h-.977q.211-.813.465-2.008t.355-1.914Zm10.141,2.016a3.654,3.654,0,0,1-2.879-1.145,4.707,4.707,0,0,1-1.02-3.238,4.853,4.853,0,0,1,1.035-3.32,3.727,3.727,0,0,1,2.949-1.172,5.852,5.852,0,0,1,1.234.133,4.066,4.066,0,0,1,.969.313l-.4,1.1a6.1,6.1,0,0,0-.937-.285,4.186,4.186,0,0,0-.9-.113q-2.609,0-2.609,3.328a3.963,3.963,0,0,0,.637,2.422,2.215,2.215,0,0,0,1.887.844,5.769,5.769,0,0,0,2.2-.461v1.148A4.679,4.679,0,0,1,220.691,61.156Zm11.586-4.445a4.724,4.724,0,0,1-1.055,3.27,3.714,3.714,0,0,1-2.914,1.176,3.86,3.86,0,0,1-2.039-.539,3.558,3.558,0,0,1-1.375-1.547,5.391,5.391,0,0,1-.484-2.359,4.716,4.716,0,0,1,1.047-3.262,3.7,3.7,0,0,1,2.906-1.168,3.622,3.622,0,0,1,2.855,1.2A4.7,4.7,0,0,1,232.277,56.711Zm-6.523,0a4.064,4.064,0,0,0,.656,2.5,2.6,2.6,0,0,0,3.863,0,4.043,4.043,0,0,0,.66-2.5,3.978,3.978,0,0,0-.66-2.48,2.32,2.32,0,0,0-1.949-.848,2.283,2.283,0,0,0-1.922.836A4.023,4.023,0,0,0,225.754,56.711ZM245.465,61V55.43a2.312,2.312,0,0,0-.437-1.535,1.692,1.692,0,0,0-1.359-.512,2.195,2.195,0,0,0-1.789.7,3.3,3.3,0,0,0-.578,2.141V61H240V55.43a2.312,2.312,0,0,0-.437-1.535,1.7,1.7,0,0,0-1.367-.512,2.118,2.118,0,0,0-1.785.73,3.953,3.953,0,0,0-.566,2.395V61h-1.3V52.438h1.055l.211,1.172h.063a2.549,2.549,0,0,1,1.035-.977,3.163,3.163,0,0,1,1.5-.352,2.544,2.544,0,0,1,2.625,1.453h.063a2.73,2.73,0,0,1,1.109-1.062,3.442,3.442,0,0,1,1.656-.391,2.9,2.9,0,0,1,2.176.746,3.338,3.338,0,0,1,.723,2.387V61Zm7.953.156a3.705,3.705,0,0,1-1.527-.309,2.872,2.872,0,0,1-1.16-.949h-.094a11.485,11.485,0,0,1,.094,1.422v3.523h-1.3V52.438h1.055l.18,1.172h.063a3.012,3.012,0,0,1,1.164-1.016,3.539,3.539,0,0,1,1.523-.312,3.165,3.165,0,0,1,2.629,1.164,5.125,5.125,0,0,1,.926,3.266,5.1,5.1,0,0,1-.941,3.277A3.17,3.17,0,0,1,253.418,61.156Zm-.187-7.773a2.3,2.3,0,0,0-1.9.727,3.739,3.739,0,0,0-.6,2.313v.289a4.285,4.285,0,0,0,.6,2.582,2.288,2.288,0,0,0,1.93.777,2.007,2.007,0,0,0,1.738-.9,4.26,4.26,0,0,0,.629-2.477A4.1,4.1,0,0,0,255,54.238,2.069,2.069,0,0,0,253.23,53.383Zm13.4,3.328a4.724,4.724,0,0,1-1.055,3.27,3.714,3.714,0,0,1-2.914,1.176,3.86,3.86,0,0,1-2.039-.539,3.558,3.558,0,0,1-1.375-1.547,5.391,5.391,0,0,1-.484-2.359,4.716,4.716,0,0,1,1.047-3.262,3.7,3.7,0,0,1,2.906-1.168,3.622,3.622,0,0,1,2.855,1.2A4.7,4.7,0,0,1,266.629,56.711Zm-6.523,0a4.064,4.064,0,0,0,.656,2.5,2.6,2.6,0,0,0,3.863,0,4.044,4.044,0,0,0,.66-2.5,3.978,3.978,0,0,0-.66-2.48,2.32,2.32,0,0,0-1.949-.848,2.283,2.283,0,0,0-1.922.836A4.023,4.023,0,0,0,260.105,56.711Zm14.32,1.953a2.145,2.145,0,0,1-.891,1.844,4.186,4.186,0,0,1-2.5.648,5.436,5.436,0,0,1-2.656-.539v-1.2a6.424,6.424,0,0,0,1.324.492,5.53,5.53,0,0,0,1.363.18,3.092,3.092,0,0,0,1.563-.324,1.116,1.116,0,0,0,.113-1.844,6.821,6.821,0,0,0-1.691-.84,9.172,9.172,0,0,1-1.7-.777,2.321,2.321,0,0,1-.75-.754,1.966,1.966,0,0,1-.246-1.008,1.921,1.921,0,0,1,.852-1.652,3.968,3.968,0,0,1,2.336-.605,6.835,6.835,0,0,1,2.7.563l-.461,1.055a6.2,6.2,0,0,0-2.336-.531,2.687,2.687,0,0,0-1.391.289.894.894,0,0,0-.469.8.971.971,0,0,0,.176.586,1.735,1.735,0,0,0,.566.461,12.657,12.657,0,0,0,1.5.633,5.6,5.6,0,0,1,2.059,1.117A1.97,1.97,0,0,1,274.426,58.664ZM277.832,61h-1.3V52.438h1.3Zm-1.406-10.883a.861.861,0,0,1,.219-.652.81.81,0,0,1,1.086,0,.846.846,0,0,1,.227.648.859.859,0,0,1-.227.652.794.794,0,0,1-1.086,0A.877.877,0,0,1,276.426,50.117ZM284,61.156a3.654,3.654,0,0,1-2.879-1.145,4.707,4.707,0,0,1-1.02-3.238,4.853,4.853,0,0,1,1.035-3.32,3.727,3.727,0,0,1,2.949-1.172,5.852,5.852,0,0,1,1.234.133,4.066,4.066,0,0,1,.969.313l-.4,1.1a6.1,6.1,0,0,0-.937-.285,4.186,4.186,0,0,0-.9-.113q-2.609,0-2.609,3.328a3.963,3.963,0,0,0,.637,2.422,2.215,2.215,0,0,0,1.887.844,5.769,5.769,0,0,0,2.2-.461v1.148A4.679,4.679,0,0,1,284,61.156ZM289.5,61h-1.3V52.438h1.3ZM288.09,50.117a.861.861,0,0,1,.219-.652.81.81,0,0,1,1.086,0,.846.846,0,0,1,.227.648.859.859,0,0,1-.227.652.794.794,0,0,1-1.086,0A.877.877,0,0,1,288.09,50.117Zm11.547,6.594a4.724,4.724,0,0,1-1.055,3.27,3.714,3.714,0,0,1-2.914,1.176,3.86,3.86,0,0,1-2.039-.539,3.558,3.558,0,0,1-1.375-1.547,5.391,5.391,0,0,1-.484-2.359,4.716,4.716,0,0,1,1.047-3.262,3.7,3.7,0,0,1,2.906-1.168,3.622,3.622,0,0,1,2.855,1.2A4.7,4.7,0,0,1,299.637,56.711Zm-6.523,0a4.064,4.064,0,0,0,.656,2.5,2.6,2.6,0,0,0,3.863,0,4.044,4.044,0,0,0,.66-2.5,3.978,3.978,0,0,0-.66-2.48,2.32,2.32,0,0,0-1.949-.848,2.283,2.283,0,0,0-1.922.836A4.023,4.023,0,0,0,293.113,56.711Zm1.5-5.6q.375-.484.809-1.172a13.408,13.408,0,0,0,.684-1.2h1.578v.164a14.473,14.473,0,0,1-2.2,2.4h-.867ZM307.77,61V55.461a2.235,2.235,0,0,0-.477-1.562,1.941,1.941,0,0,0-1.492-.516,2.461,2.461,0,0,0-1.969.727,3.668,3.668,0,0,0-.625,2.4V61h-1.3V52.438h1.055l.211,1.172h.063a2.648,2.648,0,0,1,1.117-.98,3.63,3.63,0,0,1,1.6-.348,3.252,3.252,0,0,1,2.328.746,3.175,3.175,0,0,1,.781,2.387V61Zm5.32-1.859.117.18q-.2.781-.586,1.816t-.8,1.926h-.977q.211-.813.465-2.008t.355-1.914ZM93.227,83l-.258-1.219h-.062a3.6,3.6,0,0,1-1.277,1.09,3.893,3.893,0,0,1-1.59.285,2.86,2.86,0,0,1-2-.656,2.394,2.394,0,0,1-.723-1.867q0-2.594,4.148-2.719l1.453-.047v-.531a2.171,2.171,0,0,0-.434-1.488,1.783,1.783,0,0,0-1.387-.48,5.65,5.65,0,0,0-2.422.656l-.4-.992a6.094,6.094,0,0,1,1.387-.539,6.006,6.006,0,0,1,1.512-.2,3.262,3.262,0,0,1,2.27.68,2.837,2.837,0,0,1,.738,2.18V83Zm-2.93-.914a2.632,2.632,0,0,0,1.9-.664,2.457,2.457,0,0,0,.691-1.859v-.773l-1.3.055a4.717,4.717,0,0,0-2.23.48,1.449,1.449,0,0,0-.684,1.324,1.336,1.336,0,0,0,.426,1.07A1.767,1.767,0,0,0,90.3,82.086Zm10.547,1.07a3.706,3.706,0,0,1-1.527-.309,2.872,2.872,0,0,1-1.16-.949h-.094a11.485,11.485,0,0,1,.094,1.422v3.523h-1.3V74.438h1.055l.18,1.172h.063a3.012,3.012,0,0,1,1.164-1.016,3.539,3.539,0,0,1,1.523-.312,3.165,3.165,0,0,1,2.629,1.164,6.2,6.2,0,0,1-.016,6.543A3.17,3.17,0,0,1,100.844,83.156Zm-.187-7.773a2.3,2.3,0,0,0-1.9.727,3.739,3.739,0,0,0-.6,2.313v.289a4.285,4.285,0,0,0,.6,2.582,2.288,2.288,0,0,0,1.93.777,2.007,2.007,0,0,0,1.738-.9,4.26,4.26,0,0,0,.629-2.477,4.1,4.1,0,0,0-.629-2.457A2.069,2.069,0,0,0,100.656,75.383ZM111.93,83l-.258-1.219h-.062a3.6,3.6,0,0,1-1.277,1.09,3.893,3.893,0,0,1-1.59.285,2.86,2.86,0,0,1-2-.656,2.394,2.394,0,0,1-.723-1.867q0-2.594,4.148-2.719l1.453-.047v-.531a2.171,2.171,0,0,0-.434-1.488,1.783,1.783,0,0,0-1.387-.48,5.65,5.65,0,0,0-2.422.656l-.4-.992a6.094,6.094,0,0,1,1.387-.539,6.006,6.006,0,0,1,1.512-.2,3.262,3.262,0,0,1,2.27.68,2.837,2.837,0,0,1,.738,2.18V83ZM109,82.086a2.632,2.632,0,0,0,1.9-.664,2.457,2.457,0,0,0,.691-1.859v-.773l-1.3.055a4.717,4.717,0,0,0-2.23.48,1.449,1.449,0,0,0-.684,1.324,1.336,1.336,0,0,0,.426,1.07A1.767,1.767,0,0,0,109,82.086Zm10.469-7.8a5.075,5.075,0,0,1,1.023.094l-.18,1.2a4.418,4.418,0,0,0-.937-.117,2.282,2.282,0,0,0-1.777.844,3.077,3.077,0,0,0-.738,2.1V83h-1.3V74.438h1.07l.148,1.586h.063a3.764,3.764,0,0,1,1.148-1.289A2.585,2.585,0,0,1,119.469,74.281ZM123.391,83h-1.3V74.438h1.3Zm-1.406-10.883a.861.861,0,0,1,.219-.652.81.81,0,0,1,1.086,0,.846.846,0,0,1,.227.648.859.859,0,0,1-.227.652.794.794,0,0,1-1.086,0A.877.877,0,0,1,121.984,72.117Zm7.773,11.039a3.934,3.934,0,0,1-3-1.156,4.476,4.476,0,0,1-1.1-3.211,4.964,4.964,0,0,1,1.02-3.289,3.387,3.387,0,0,1,2.738-1.219,3.229,3.229,0,0,1,2.547,1.059,4.057,4.057,0,0,1,.938,2.793v.82h-5.9a3.394,3.394,0,0,0,.762,2.289,2.634,2.634,0,0,0,2.035.781,6.9,6.9,0,0,0,2.734-.578V82.6a6.863,6.863,0,0,1-1.3.426A7.31,7.31,0,0,1,129.758,83.156Zm-.352-7.789a2.118,2.118,0,0,0-1.645.672,3.1,3.1,0,0,0-.723,1.859h4.477a2.851,2.851,0,0,0-.547-1.879A1.925,1.925,0,0,0,129.406,75.367ZM140.977,83V77.461A2.235,2.235,0,0,0,140.5,75.9a1.941,1.941,0,0,0-1.492-.516,2.461,2.461,0,0,0-1.969.727,3.668,3.668,0,0,0-.625,2.4V83h-1.3V74.438h1.055l.211,1.172h.063a2.648,2.648,0,0,1,1.117-.98,3.63,3.63,0,0,1,1.6-.348,3.252,3.252,0,0,1,2.328.746,3.175,3.175,0,0,1,.781,2.387V83Zm7.383.156a3.654,3.654,0,0,1-2.879-1.145,4.707,4.707,0,0,1-1.02-3.238,4.853,4.853,0,0,1,1.035-3.32,3.727,3.727,0,0,1,2.949-1.172,5.853,5.853,0,0,1,1.234.133,4.066,4.066,0,0,1,.969.313l-.4,1.1a6.1,6.1,0,0,0-.937-.285,4.186,4.186,0,0,0-.9-.113q-2.609,0-2.609,3.328a3.963,3.963,0,0,0,.637,2.422,2.215,2.215,0,0,0,1.887.844,5.769,5.769,0,0,0,2.2-.461v1.148A4.679,4.679,0,0,1,148.359,83.156ZM153.852,83h-1.3V74.438h1.3Zm-1.406-10.883a.861.861,0,0,1,.219-.652.81.81,0,0,1,1.086,0,.846.846,0,0,1,.227.648.859.859,0,0,1-.227.652.794.794,0,0,1-1.086,0A.877.877,0,0,1,152.445,72.117ZM161.867,83l-.258-1.219h-.062a3.6,3.6,0,0,1-1.277,1.09,3.893,3.893,0,0,1-1.59.285,2.86,2.86,0,0,1-2-.656,2.394,2.394,0,0,1-.723-1.867q0-2.594,4.148-2.719l1.453-.047v-.531a2.171,2.171,0,0,0-.434-1.488,1.783,1.783,0,0,0-1.387-.48,5.65,5.65,0,0,0-2.422.656l-.4-.992a6.094,6.094,0,0,1,1.387-.539,6.006,6.006,0,0,1,1.512-.2,3.262,3.262,0,0,1,2.27.68,2.837,2.837,0,0,1,.738,2.18V83Zm-2.93-.914a2.632,2.632,0,0,0,1.9-.664,2.457,2.457,0,0,0,.691-1.859v-.773l-1.3.055a4.717,4.717,0,0,0-2.23.48,1.449,1.449,0,0,0-.684,1.324,1.336,1.336,0,0,0,.426,1.07A1.767,1.767,0,0,0,158.938,82.086Zm7.922-.945.117.18q-.2.781-.586,1.816t-.8,1.926h-.977q.211-.812.465-2.008t.355-1.914ZM184.492,83V77.43a2.312,2.312,0,0,0-.437-1.535,1.692,1.692,0,0,0-1.359-.512,2.195,2.195,0,0,0-1.789.7,3.3,3.3,0,0,0-.578,2.141V83h-1.3V77.43a2.312,2.312,0,0,0-.437-1.535,1.7,1.7,0,0,0-1.367-.512,2.118,2.118,0,0,0-1.785.73,3.953,3.953,0,0,0-.566,2.395V83h-1.3V74.438h1.055l.211,1.172h.063a2.549,2.549,0,0,1,1.035-.977,3.163,3.163,0,0,1,1.5-.352,2.544,2.544,0,0,1,2.625,1.453h.063a2.73,2.73,0,0,1,1.109-1.062,3.442,3.442,0,0,1,1.656-.391,2.9,2.9,0,0,1,2.176.746,3.338,3.338,0,0,1,.723,2.387V83Zm11.359-4.289a4.724,4.724,0,0,1-1.055,3.27,3.714,3.714,0,0,1-2.914,1.176,3.86,3.86,0,0,1-2.039-.539,3.558,3.558,0,0,1-1.375-1.547,5.391,5.391,0,0,1-.484-2.359,4.716,4.716,0,0,1,1.047-3.262,3.7,3.7,0,0,1,2.906-1.168,3.622,3.622,0,0,1,2.855,1.2A4.7,4.7,0,0,1,195.852,78.711Zm-6.523,0a4.064,4.064,0,0,0,.656,2.5,2.6,2.6,0,0,0,3.863,0,4.043,4.043,0,0,0,.66-2.5,3.978,3.978,0,0,0-.66-2.48,2.32,2.32,0,0,0-1.949-.848,2.283,2.283,0,0,0-1.922.836A4.023,4.023,0,0,0,189.328,78.711ZM200,83l-3.25-8.562h1.391l1.844,5.078a24.036,24.036,0,0,1,.734,2.313h.063a17.469,17.469,0,0,1,.543-1.715q.457-1.3,2.051-5.676h1.391L201.516,83Zm7.438,0h-1.3V74.438h1.3Zm-1.406-10.883a.861.861,0,0,1,.219-.652.81.81,0,0,1,1.086,0,.846.846,0,0,1,.227.648.859.859,0,0,1-.227.652.794.794,0,0,1-1.086,0A.877.877,0,0,1,206.031,72.117ZM211.484,83h-1.3V70.844h1.3Zm4.047,0h-1.3V74.438h1.3Zm-1.406-10.883a.861.861,0,0,1,.219-.652.81.81,0,0,1,1.086,0,.846.846,0,0,1,.227.648.859.859,0,0,1-.227.652.794.794,0,0,1-1.086,0A.877.877,0,0,1,214.125,72.117Zm9.984,9.734h-.07a3.047,3.047,0,0,1-2.687,1.3,3.179,3.179,0,0,1-2.613-1.148,5.055,5.055,0,0,1-.934-3.266,5.14,5.14,0,0,1,.938-3.289,3.155,3.155,0,0,1,2.609-1.172,3.114,3.114,0,0,1,2.672,1.266h.1l-.055-.617-.031-.6V70.844h1.3V83h-1.055Zm-2.594.219a2.361,2.361,0,0,0,1.926-.723,3.652,3.652,0,0,0,.6-2.332v-.273a4.3,4.3,0,0,0-.605-2.6,2.3,2.3,0,0,0-1.934-.777,1.985,1.985,0,0,0-1.746.887,4.409,4.409,0,0,0-.605,2.5,4.227,4.227,0,0,0,.6,2.477A2.037,2.037,0,0,0,221.516,82.07Zm11.836.93-.258-1.219h-.062a3.6,3.6,0,0,1-1.277,1.09,3.893,3.893,0,0,1-1.59.285,2.86,2.86,0,0,1-2-.656,2.394,2.394,0,0,1-.723-1.867q0-2.594,4.148-2.719l1.453-.047v-.531a2.171,2.171,0,0,0-.434-1.488,1.783,1.783,0,0,0-1.387-.48,5.65,5.65,0,0,0-2.422.656l-.4-.992a6.094,6.094,0,0,1,1.387-.539,6.006,6.006,0,0,1,1.512-.2,3.262,3.262,0,0,1,2.27.68,2.837,2.837,0,0,1,.738,2.18V83Zm-2.93-.914a2.632,2.632,0,0,0,1.9-.664,2.457,2.457,0,0,0,.691-1.859v-.773l-1.3.055a4.717,4.717,0,0,0-2.23.48,1.449,1.449,0,0,0-.684,1.324,1.336,1.336,0,0,0,.426,1.07A1.767,1.767,0,0,0,230.422,82.086Zm12.391-.234h-.07a3.047,3.047,0,0,1-2.687,1.3,3.179,3.179,0,0,1-2.613-1.148,5.055,5.055,0,0,1-.934-3.266,5.14,5.14,0,0,1,.938-3.289,3.155,3.155,0,0,1,2.609-1.172,3.114,3.114,0,0,1,2.672,1.266h.1l-.055-.617-.031-.6V70.844h1.3V83h-1.055Zm-2.594.219a2.361,2.361,0,0,0,1.926-.723,3.652,3.652,0,0,0,.6-2.332v-.273a4.3,4.3,0,0,0-.605-2.6,2.3,2.3,0,0,0-1.934-.777,1.985,1.985,0,0,0-1.746.887,4.409,4.409,0,0,0-.605,2.5,4.227,4.227,0,0,0,.6,2.477A2.037,2.037,0,0,0,240.219,82.07Z" transform="translate(628 6307.037)" fill="#fff"/>
  </g>
</svg>
