<svg xmlns="http://www.w3.org/2000/svg" width="396" height="278.522" viewBox="0 0 396 278.522">
  <g id="Grupo_70717" data-name="Grupo 70717" transform="translate(-596 -6188.116)">
    <g id="Grupo_11233" data-name="Grupo 11233" transform="translate(596 6188.116)">
      <rect id="Rectángulo_4305" data-name="Rectángulo 4305" width="396" height="146.983" rx="9.462" transform="translate(0 80.636)" fill="#bf3976"/>
      <g id="Grupo_11231" data-name="Grupo 11231" transform="translate(45.64 131.394)">
        <g id="Grupo_11230" data-name="Grupo 11230">
          <path id="Trazado_8390" data-name="Trazado 8390" d="M576.7,6145.385h1.5l2.024,4.882a17.6,17.6,0,0,1,.827,2.414h.067q.109-.4.46-1.363t2.29-5.933h1.5l-3.972,9.75a4.841,4.841,0,0,1-1.379,2.05,3.084,3.084,0,0,1-1.936.606,6.041,6.041,0,0,1-1.265-.133v-1.039a5.29,5.29,0,0,0,1.037.094,2.117,2.117,0,0,0,2.058-1.5l.515-1.219Z" transform="translate(-575.128 -6141.705)" fill="#fff"/>
          <path id="Trazado_8391" data-name="Trazado 8391" d="M597.652,6152.8h-.076a3.384,3.384,0,0,1-2.9,1.3,3.556,3.556,0,0,1-2.821-1.148,4.8,4.8,0,0,1-1.008-3.266,4.88,4.88,0,0,1,1.012-3.289,3.526,3.526,0,0,1,2.817-1.172,3.465,3.465,0,0,1,2.885,1.266h.11l-.059-.617-.034-.6v-3.484h1.4v12.156h-1.139Zm-2.8.218a2.661,2.661,0,0,0,2.079-.722,3.455,3.455,0,0,0,.645-2.332v-.274a4.051,4.051,0,0,0-.654-2.6,2.58,2.58,0,0,0-2.087-.778,2.2,2.2,0,0,0-1.885.887,4.155,4.155,0,0,0-.654,2.5,3.984,3.984,0,0,0,.649,2.476A2.267,2.267,0,0,0,594.852,6153.017Z" transform="translate(-575.128 -6141.705)" fill="#fff"/>
          <path id="Trazado_8392" data-name="Trazado 8392" d="M605.85,6154.1a4.434,4.434,0,0,1-3.235-1.156,4.278,4.278,0,0,1-1.185-3.211,4.723,4.723,0,0,1,1.1-3.289,3.788,3.788,0,0,1,2.956-1.219,3.625,3.625,0,0,1,2.75,1.059,3.873,3.873,0,0,1,1.012,2.793v.82h-6.368a3.238,3.238,0,0,0,.822,2.289,2.964,2.964,0,0,0,2.2.781,7.942,7.942,0,0,0,2.952-.578v1.157a7.767,7.767,0,0,1-1.4.425A8.5,8.5,0,0,1,605.85,6154.1Zm-.38-7.789a2.379,2.379,0,0,0-1.775.672,2.97,2.97,0,0,0-.78,1.859h4.833a2.7,2.7,0,0,0-.591-1.878A2.159,2.159,0,0,0,605.47,6146.314Z" transform="translate(-575.128 -6141.705)" fill="#fff"/>
          <path id="Trazado_8393" data-name="Trazado 8393" d="M613.036,6153.947h-1.4v-12.156h1.4Z" transform="translate(-575.128 -6141.705)" fill="#fff"/>
          <path id="Trazado_8394" data-name="Trazado 8394" d="M624.4,6154.1a4.434,4.434,0,0,1-3.235-1.156,4.278,4.278,0,0,1-1.185-3.211,4.723,4.723,0,0,1,1.1-3.289,3.788,3.788,0,0,1,2.956-1.219,3.624,3.624,0,0,1,2.75,1.059,3.873,3.873,0,0,1,1.012,2.793v.82h-6.368a3.234,3.234,0,0,0,.823,2.289,2.963,2.963,0,0,0,2.2.781,7.95,7.95,0,0,0,2.952-.578v1.157a7.8,7.8,0,0,1-1.405.425A8.5,8.5,0,0,1,624.4,6154.1Zm-.379-7.789a2.38,2.38,0,0,0-1.776.672,2.982,2.982,0,0,0-.78,1.859h4.833a2.7,2.7,0,0,0-.591-1.878A2.159,2.159,0,0,0,624.018,6146.314Z" transform="translate(-575.128 -6141.705)" fill="#fff"/>
          <path id="Trazado_8395" data-name="Trazado 8395" d="M636.509,6153.947v-5.539a2.128,2.128,0,0,0-.515-1.563,2.2,2.2,0,0,0-1.611-.515,2.774,2.774,0,0,0-2.125.726,3.474,3.474,0,0,0-.675,2.4v4.492h-1.4v-8.562h1.139l.227,1.171h.068a2.8,2.8,0,0,1,1.206-.98,4.177,4.177,0,0,1,1.729-.348,3.694,3.694,0,0,1,2.513.746,3.033,3.033,0,0,1,.844,2.387v5.586Z" transform="translate(-571.416 -6141.705)" fill="#fff"/>
          <path id="Trazado_8396" data-name="Trazado 8396" d="M644.951,6146.392H642.6v7.555h-1.4v-7.555h-1.653v-.586l1.653-.468v-.477q0-3.156,2.977-3.156a6.574,6.574,0,0,1,1.721.273l-.363,1.039a4.964,4.964,0,0,0-1.383-.242,1.393,1.393,0,0,0-1.172.488,2.567,2.567,0,0,0-.38,1.567v.555h2.353Z" transform="translate(-570.806 -6141.705)" fill="#fff"/>
          <path id="Trazado_8397" data-name="Trazado 8397" d="M654.617,6149.658a4.5,4.5,0,0,1-1.138,3.269,4.172,4.172,0,0,1-3.146,1.176,4.42,4.42,0,0,1-2.2-.539,3.658,3.658,0,0,1-1.484-1.547,5.049,5.049,0,0,1-.523-2.359,4.494,4.494,0,0,1,1.13-3.262,4.164,4.164,0,0,1,3.138-1.168,4.064,4.064,0,0,1,3.082,1.2A4.484,4.484,0,0,1,654.617,6149.658Zm-7.042,0a3.845,3.845,0,0,0,.708,2.5,2.966,2.966,0,0,0,4.171,0,3.825,3.825,0,0,0,.712-2.5,3.771,3.771,0,0,0-.712-2.481,2.6,2.6,0,0,0-2.1-.847,2.551,2.551,0,0,0-2.074.836A3.8,3.8,0,0,0,647.575,6149.658Z" transform="translate(-570.328 -6141.705)" fill="#fff"/>
          <path id="Trazado_8398" data-name="Trazado 8398" d="M660.352,6154.1a3.485,3.485,0,0,1-2.791-1.164,4.819,4.819,0,0,1-1-3.25,4.879,4.879,0,0,1,1.012-3.281,3.515,3.515,0,0,1,2.817-1.18,3.464,3.464,0,0,1,2.919,1.328h.075l.2-1.171h1.1v12.406h-1.4v-3.664a8.09,8.09,0,0,1,.092-1.328h-.109A3.4,3.4,0,0,1,660.352,6154.1Zm.211-1.086a2.652,2.652,0,0,0,2.041-.7,3.566,3.566,0,0,0,.684-2.344v-.289a4.046,4.046,0,0,0-.658-2.586,2.564,2.564,0,0,0-2.084-.789,2.2,2.2,0,0,0-1.885.887,4.163,4.163,0,0,0-.653,2.5,4.017,4.017,0,0,0,.645,2.465A2.251,2.251,0,0,0,660.563,6153.017Z" transform="translate(-569.63 -6141.705)" fill="#fff"/>
          <path id="Trazado_8399" data-name="Trazado 8399" d="M668.972,6145.385v5.554a2.128,2.128,0,0,0,.515,1.563,2.2,2.2,0,0,0,1.611.515,2.742,2.742,0,0,0,2.121-.734,3.505,3.505,0,0,0,.671-2.4v-4.5h1.4v8.562h-1.156l-.2-1.148h-.076a2.735,2.735,0,0,1-1.194.968,4.279,4.279,0,0,1-1.741.336,3.715,3.715,0,0,1-2.526-.742,3.015,3.015,0,0,1-.84-2.375v-5.6Z" transform="translate(-568.896 -6141.705)" fill="#fff"/>
          <path id="Trazado_8400" data-name="Trazado 8400" d="M682.164,6154.1a4.432,4.432,0,0,1-3.235-1.156,4.278,4.278,0,0,1-1.185-3.211,4.724,4.724,0,0,1,1.1-3.289,3.788,3.788,0,0,1,2.956-1.219,3.622,3.622,0,0,1,2.749,1.059,3.873,3.873,0,0,1,1.013,2.793v.82H679.2a3.238,3.238,0,0,0,.822,2.289,2.964,2.964,0,0,0,2.2.781,7.946,7.946,0,0,0,2.952-.578v1.157a7.815,7.815,0,0,1-1.4.425A8.5,8.5,0,0,1,682.164,6154.1Zm-.38-7.789a2.379,2.379,0,0,0-1.775.672,2.977,2.977,0,0,0-.781,1.859h4.833a2.71,2.71,0,0,0-.59-1.878A2.161,2.161,0,0,0,681.784,6146.314Z" transform="translate(-568.207 -6141.705)" fill="#fff"/>
          <path id="Trazado_8401" data-name="Trazado 8401" d="M695.718,6154.1a3.486,3.486,0,0,1-2.792-1.164,4.818,4.818,0,0,1-1-3.25,4.885,4.885,0,0,1,1.012-3.281,3.515,3.515,0,0,1,2.817-1.18,3.464,3.464,0,0,1,2.919,1.328h.076l.2-1.171h1.1v12.406h-1.4v-3.664a8.085,8.085,0,0,1,.093-1.328h-.11A3.4,3.4,0,0,1,695.718,6154.1Zm.21-1.086a2.656,2.656,0,0,0,2.042-.7,3.566,3.566,0,0,0,.683-2.344v-.289a4.046,4.046,0,0,0-.658-2.586,2.563,2.563,0,0,0-2.083-.789,2.2,2.2,0,0,0-1.885.887,4.156,4.156,0,0,0-.654,2.5,4.017,4.017,0,0,0,.645,2.465A2.251,2.251,0,0,0,695.928,6153.017Z" transform="translate(-567.242 -6141.705)" fill="#fff"/>
          <path id="Trazado_8402" data-name="Trazado 8402" d="M704.337,6145.385v5.554a2.128,2.128,0,0,0,.515,1.563,2.2,2.2,0,0,0,1.611.515,2.742,2.742,0,0,0,2.121-.734,3.505,3.505,0,0,0,.671-2.4v-4.5h1.4v8.562H709.5l-.2-1.148h-.076a2.738,2.738,0,0,1-1.193.968,4.284,4.284,0,0,1-1.742.336,3.715,3.715,0,0,1-2.526-.742,3.015,3.015,0,0,1-.84-2.375v-5.6Z" transform="translate(-566.511 -6141.705)" fill="#fff"/>
          <path id="Trazado_8403" data-name="Trazado 8403" d="M717.529,6154.1a4.432,4.432,0,0,1-3.235-1.156,4.278,4.278,0,0,1-1.185-3.211,4.723,4.723,0,0,1,1.1-3.289,3.788,3.788,0,0,1,2.956-1.219,3.625,3.625,0,0,1,2.75,1.059,3.877,3.877,0,0,1,1.012,2.793v.82H714.56a3.238,3.238,0,0,0,.822,2.289,2.964,2.964,0,0,0,2.2.781,7.942,7.942,0,0,0,2.952-.578v1.157a7.815,7.815,0,0,1-1.4.425A8.5,8.5,0,0,1,717.529,6154.1Zm-.38-7.789a2.379,2.379,0,0,0-1.775.672,2.97,2.97,0,0,0-.78,1.859h4.832a2.705,2.705,0,0,0-.59-1.878A2.161,2.161,0,0,0,717.149,6146.314Z" transform="translate(-565.821 -6141.705)" fill="#fff"/>
          <path id="Trazado_8404" data-name="Trazado 8404" d="M733.765,6151.611a2.094,2.094,0,0,1-.962,1.844,4.794,4.794,0,0,1-2.7.648,6.254,6.254,0,0,1-2.867-.539v-1.2a7.194,7.194,0,0,0,1.429.492,6.407,6.407,0,0,0,1.472.18,3.554,3.554,0,0,0,1.687-.324,1.072,1.072,0,0,0,.122-1.844,7.64,7.64,0,0,0-1.826-.84,10.284,10.284,0,0,1-1.834-.777,2.419,2.419,0,0,1-.81-.754,1.854,1.854,0,0,1-.266-1.008,1.883,1.883,0,0,1,.92-1.652,4.54,4.54,0,0,1,2.522-.606,7.884,7.884,0,0,1,2.918.563l-.5,1.054a7.153,7.153,0,0,0-2.522-.531,3.1,3.1,0,0,0-1.5.289.886.886,0,0,0-.506.8.915.915,0,0,0,.19.586,1.823,1.823,0,0,0,.611.461,14.149,14.149,0,0,0,1.62.633,6.2,6.2,0,0,1,2.222,1.117A1.893,1.893,0,0,1,733.765,6151.611Z" transform="translate(-564.916 -6141.705)" fill="#fff"/>
          <path id="Trazado_8405" data-name="Trazado 8405" d="M739.947,6154.1a4.436,4.436,0,0,1-3.235-1.156,4.277,4.277,0,0,1-1.184-3.211,4.723,4.723,0,0,1,1.1-3.289,3.788,3.788,0,0,1,2.956-1.219,3.624,3.624,0,0,1,2.75,1.059,3.873,3.873,0,0,1,1.012,2.793v.82h-6.368a3.234,3.234,0,0,0,.823,2.289,2.963,2.963,0,0,0,2.2.781,7.95,7.95,0,0,0,2.952-.578v1.157a7.8,7.8,0,0,1-1.405.425A8.5,8.5,0,0,1,739.947,6154.1Zm-.379-7.789a2.38,2.38,0,0,0-1.776.672,2.981,2.981,0,0,0-.78,1.859h4.833a2.705,2.705,0,0,0-.591-1.878A2.159,2.159,0,0,0,739.568,6146.314Z" transform="translate(-564.309 -6141.705)" fill="#fff"/>
          <path id="Trazado_8406" data-name="Trazado 8406" d="M751.62,6153.947h-1.4v-12.156h1.4Z" transform="translate(-563.583 -6141.705)" fill="#fff"/>
          <path id="Trazado_8407" data-name="Trazado 8407" d="M758.494,6154.1a4.432,4.432,0,0,1-3.234-1.156,4.278,4.278,0,0,1-1.185-3.211,4.723,4.723,0,0,1,1.1-3.289,3.789,3.789,0,0,1,2.957-1.219,3.623,3.623,0,0,1,2.749,1.059,3.872,3.872,0,0,1,1.012,2.793v.82h-6.368a3.234,3.234,0,0,0,.823,2.289,2.963,2.963,0,0,0,2.2.781,7.95,7.95,0,0,0,2.952-.578v1.157a7.8,7.8,0,0,1-1.405.425A8.5,8.5,0,0,1,758.494,6154.1Zm-.379-7.789a2.382,2.382,0,0,0-1.776.672,2.981,2.981,0,0,0-.78,1.859h4.833a2.705,2.705,0,0,0-.591-1.878A2.157,2.157,0,0,0,758.115,6146.314Z" transform="translate(-563.058 -6141.705)" fill="#fff"/>
          <path id="Trazado_8408" data-name="Trazado 8408" d="M770.791,6153.947l-3.508-8.562h1.5l1.991,5.078a22.772,22.772,0,0,1,.792,2.312h.068a16.6,16.6,0,0,1,.586-1.715q.493-1.3,2.214-5.675h1.5l-3.508,8.562Z" transform="translate(-562.129 -6141.705)" fill="#fff"/>
          <path id="Trazado_8409" data-name="Trazado 8409" d="M783.106,6153.947l-.279-1.219h-.067a3.815,3.815,0,0,1-1.379,1.09,4.489,4.489,0,0,1-1.717.285,3.245,3.245,0,0,1-2.155-.656,2.3,2.3,0,0,1-.78-1.867q0-2.594,4.479-2.719l1.569-.047v-.531a2.058,2.058,0,0,0-.469-1.488,2.014,2.014,0,0,0-1.5-.481,6.491,6.491,0,0,0-2.614.656l-.43-.992a7.145,7.145,0,0,1,3.129-.734,3.709,3.709,0,0,1,2.45.68,2.716,2.716,0,0,1,.8,2.179v5.844Zm-3.163-.914a2.977,2.977,0,0,0,2.053-.664,2.358,2.358,0,0,0,.747-1.859v-.774l-1.4.055a5.432,5.432,0,0,0-2.408.48,1.424,1.424,0,0,0-.738,1.324,1.29,1.29,0,0,0,.459,1.071A2.013,2.013,0,0,0,779.943,6153.033Z" transform="translate(-561.55 -6141.705)" fill="#fff"/>
          <path id="Trazado_8410" data-name="Trazado 8410" d="M797.2,6153.947l-.278-1.219h-.068a3.807,3.807,0,0,1-1.379,1.09,4.481,4.481,0,0,1-1.716.285,3.245,3.245,0,0,1-2.155-.656,2.3,2.3,0,0,1-.78-1.867q0-2.594,4.479-2.719l1.568-.047v-.531a2.062,2.062,0,0,0-.468-1.488,2.014,2.014,0,0,0-1.5-.481,6.5,6.5,0,0,0-2.615.656l-.43-.992a7.146,7.146,0,0,1,3.129-.734,3.712,3.712,0,0,1,2.451.68,2.716,2.716,0,0,1,.8,2.179v5.844Zm-3.163-.914a2.981,2.981,0,0,0,2.054-.664,2.359,2.359,0,0,0,.747-1.859v-.774l-1.4.055a5.427,5.427,0,0,0-2.407.48,1.423,1.423,0,0,0-.739,1.324,1.29,1.29,0,0,0,.46,1.071A2.01,2.01,0,0,0,794.036,6153.033Z" transform="translate(-560.601 -6141.705)" fill="#fff"/>
          <path id="Trazado_8411" data-name="Trazado 8411" d="M811.9,6152.8h-.076a3.381,3.381,0,0,1-2.9,1.3,3.556,3.556,0,0,1-2.821-1.148,4.8,4.8,0,0,1-1.008-3.266,4.875,4.875,0,0,1,1.012-3.289,3.526,3.526,0,0,1,2.817-1.172,3.463,3.463,0,0,1,2.884,1.266h.11l-.059-.617-.034-.6v-3.484h1.4v12.156h-1.138Zm-2.8.218a2.658,2.658,0,0,0,2.079-.722,3.455,3.455,0,0,0,.645-2.332v-.274a4.057,4.057,0,0,0-.653-2.6,2.581,2.581,0,0,0-2.088-.778,2.2,2.2,0,0,0-1.885.887,4.156,4.156,0,0,0-.653,2.5,3.984,3.984,0,0,0,.649,2.476A2.265,2.265,0,0,0,809.1,6153.017Z" transform="translate(-556.271 -6141.705)" fill="#fff"/>
          <path id="Trazado_8412" data-name="Trazado 8412" d="M821.878,6153.947l-.278-1.219h-.068a3.807,3.807,0,0,1-1.379,1.09,4.481,4.481,0,0,1-1.716.285,3.243,3.243,0,0,1-2.155-.656,2.3,2.3,0,0,1-.78-1.867q0-2.594,4.478-2.719l1.569-.047v-.531a2.062,2.062,0,0,0-.468-1.488,2.014,2.014,0,0,0-1.5-.481,6.5,6.5,0,0,0-2.615.656l-.43-.992a7.146,7.146,0,0,1,3.129-.734,3.709,3.709,0,0,1,2.45.68,2.712,2.712,0,0,1,.8,2.179v5.844Zm-3.163-.914a2.98,2.98,0,0,0,2.054-.664,2.358,2.358,0,0,0,.746-1.859v-.774l-1.4.055a5.436,5.436,0,0,0-2.408.48,1.424,1.424,0,0,0-.738,1.324,1.29,1.29,0,0,0,.46,1.071A2.008,2.008,0,0,0,818.715,6153.033Z" transform="translate(-556.271 -6141.705)" fill="#fff"/>
          <path id="Trazado_8413" data-name="Trazado 8413" d="M830.017,6145.228a5.939,5.939,0,0,1,1.1.094l-.194,1.2a5.125,5.125,0,0,0-1.012-.117,2.545,2.545,0,0,0-1.919.844,2.942,2.942,0,0,0-.8,2.1v4.594h-1.4v-8.562h1.156l.16,1.585h.067a3.894,3.894,0,0,1,1.24-1.289A2.958,2.958,0,0,1,830.017,6145.228Z" transform="translate(-556.271 -6141.705)" fill="#fff"/>
          <path id="Trazado_8414" data-name="Trazado 8414" d="M843.023,6153.947l-.278-1.219h-.068a3.815,3.815,0,0,1-1.379,1.09,4.48,4.48,0,0,1-1.716.285,3.243,3.243,0,0,1-2.155-.656,2.3,2.3,0,0,1-.78-1.867q0-2.594,4.478-2.719l1.569-.047v-.531a2.062,2.062,0,0,0-.468-1.488,2.014,2.014,0,0,0-1.5-.481,6.492,6.492,0,0,0-2.615.656l-.43-.992a7.146,7.146,0,0,1,3.129-.734,3.709,3.709,0,0,1,2.45.68,2.713,2.713,0,0,1,.8,2.179v5.844Zm-3.163-.914a2.98,2.98,0,0,0,2.054-.664,2.361,2.361,0,0,0,.746-1.859v-.774l-1.4.055a5.436,5.436,0,0,0-2.408.48,1.424,1.424,0,0,0-.738,1.324,1.288,1.288,0,0,0,.46,1.071A2.008,2.008,0,0,0,839.86,6153.033Z" transform="translate(-556.271 -6141.705)" fill="#fff"/>
          <path id="Trazado_8415" data-name="Trazado 8415" d="M852.832,6153.947h-1.4v-12.156h1.4Z" transform="translate(-556.271 -6141.705)" fill="#fff"/>
          <path id="Trazado_8416" data-name="Trazado 8416" d="M861.486,6153.947l-.279-1.219h-.067a3.815,3.815,0,0,1-1.379,1.09,4.489,4.489,0,0,1-1.717.285,3.245,3.245,0,0,1-2.155-.656,2.3,2.3,0,0,1-.78-1.867q0-2.594,4.479-2.719l1.569-.047v-.531a2.058,2.058,0,0,0-.469-1.488,2.014,2.014,0,0,0-1.5-.481,6.491,6.491,0,0,0-2.614.656l-.43-.992a7.146,7.146,0,0,1,3.129-.734,3.709,3.709,0,0,1,2.45.68,2.716,2.716,0,0,1,.8,2.179v5.844Zm-3.163-.914a2.978,2.978,0,0,0,2.053-.664,2.358,2.358,0,0,0,.747-1.859v-.774l-1.4.055a5.432,5.432,0,0,0-2.408.48,1.424,1.424,0,0,0-.738,1.324,1.29,1.29,0,0,0,.459,1.071A2.013,2.013,0,0,0,858.323,6153.033Z" transform="translate(-556.271 -6141.705)" fill="#fff"/>
          <path id="Trazado_8417" data-name="Trazado 8417" d="M581.454,6175.947v-5.539a2.13,2.13,0,0,0-.515-1.563,2.2,2.2,0,0,0-1.611-.515,2.774,2.774,0,0,0-2.125.726,3.474,3.474,0,0,0-.675,2.4v4.492h-1.4v-8.562h1.139l.227,1.171h.068a2.8,2.8,0,0,1,1.206-.98,4.177,4.177,0,0,1,1.729-.348,3.694,3.694,0,0,1,2.513.746,3.033,3.033,0,0,1,.844,2.387v5.586Z" transform="translate(-575.128 -6141.705)" fill="#fff"/>
          <path id="Trazado_8418" data-name="Trazado 8418" d="M587.046,6167.385v5.554a2.128,2.128,0,0,0,.514,1.563,2.2,2.2,0,0,0,1.611.515,2.742,2.742,0,0,0,2.121-.734,3.505,3.505,0,0,0,.671-2.4v-4.5h1.4v8.562h-1.156l-.2-1.148h-.076a2.738,2.738,0,0,1-1.193.968,4.284,4.284,0,0,1-1.742.336,3.715,3.715,0,0,1-2.526-.742,3.014,3.014,0,0,1-.839-2.375v-5.6Z" transform="translate(-575.128 -6141.705)" fill="#fff"/>
          <path id="Trazado_8419" data-name="Trazado 8419" d="M600.237,6176.1a4.434,4.434,0,0,1-3.235-1.156,4.278,4.278,0,0,1-1.185-3.211,4.723,4.723,0,0,1,1.1-3.289,3.788,3.788,0,0,1,2.956-1.219,3.629,3.629,0,0,1,2.75,1.059,3.873,3.873,0,0,1,1.012,2.793v.82h-6.368a3.238,3.238,0,0,0,.822,2.289,2.964,2.964,0,0,0,2.2.781,7.942,7.942,0,0,0,2.952-.578v1.157a7.768,7.768,0,0,1-1.4.425A8.5,8.5,0,0,1,600.237,6176.1Zm-.38-7.789a2.383,2.383,0,0,0-1.775.672,2.971,2.971,0,0,0-.78,1.859h4.833a2.705,2.705,0,0,0-.591-1.878A2.159,2.159,0,0,0,599.857,6168.314Z" transform="translate(-575.128 -6141.705)" fill="#fff"/>
          <path id="Trazado_8420" data-name="Trazado 8420" d="M608.047,6175.947l-3.509-8.562h1.5l1.99,5.078a22.876,22.876,0,0,1,.793,2.312h.067a16.7,16.7,0,0,1,.587-1.715q.494-1.3,2.214-5.675h1.5l-3.509,8.562Z" transform="translate(-575.128 -6141.705)" fill="#fff"/>
          <path id="Trazado_8421" data-name="Trazado 8421" d="M620.361,6175.947l-.278-1.219h-.068a3.807,3.807,0,0,1-1.379,1.09,4.48,4.48,0,0,1-1.716.285,3.243,3.243,0,0,1-2.155-.656,2.3,2.3,0,0,1-.78-1.867q0-2.594,4.478-2.719l1.569-.047v-.531a2.063,2.063,0,0,0-.468-1.488,2.014,2.014,0,0,0-1.5-.481,6.5,6.5,0,0,0-2.615.656l-.43-.992a7.146,7.146,0,0,1,3.129-.734,3.714,3.714,0,0,1,2.451.68,2.716,2.716,0,0,1,.8,2.179v5.844Zm-3.163-.914a2.98,2.98,0,0,0,2.054-.664,2.358,2.358,0,0,0,.746-1.859v-.774l-1.4.055a5.45,5.45,0,0,0-2.408.48,1.424,1.424,0,0,0-.738,1.324,1.29,1.29,0,0,0,.46,1.071A2.008,2.008,0,0,0,617.2,6175.033Z" transform="translate(-575.128 -6141.705)" fill="#fff"/>
          <path id="Trazado_8422" data-name="Trazado 8422" d="M632.464,6176.1a4.11,4.11,0,0,1-3.108-1.144,4.486,4.486,0,0,1-1.1-3.239,4.623,4.623,0,0,1,1.117-3.32,4.194,4.194,0,0,1,3.184-1.172,6.856,6.856,0,0,1,1.333.133,4.692,4.692,0,0,1,1.046.313l-.431,1.1a7.074,7.074,0,0,0-1.012-.285,4.875,4.875,0,0,0-.97-.113q-2.817,0-2.817,3.328a3.744,3.744,0,0,0,.688,2.422,2.474,2.474,0,0,0,2.037.843,6.661,6.661,0,0,0,2.37-.46v1.148A5.4,5.4,0,0,1,632.464,6176.1Z" transform="translate(-571.559 -6141.705)" fill="#fff"/>
          <path id="Trazado_8423" data-name="Trazado 8423" d="M644.972,6171.658a4.5,4.5,0,0,1-1.138,3.269,4.171,4.171,0,0,1-3.146,1.176,4.42,4.42,0,0,1-2.2-.539,3.663,3.663,0,0,1-1.484-1.547,5.049,5.049,0,0,1-.523-2.359,4.5,4.5,0,0,1,1.13-3.262,4.168,4.168,0,0,1,3.138-1.168,4.066,4.066,0,0,1,3.083,1.2A4.488,4.488,0,0,1,644.972,6171.658Zm-7.042,0a3.845,3.845,0,0,0,.708,2.5,2.966,2.966,0,0,0,4.171,0,3.825,3.825,0,0,0,.713-2.5,3.772,3.772,0,0,0-.713-2.481,2.6,2.6,0,0,0-2.1-.847,2.553,2.553,0,0,0-2.075.836A3.8,3.8,0,0,0,637.93,6171.658Z" transform="translate(-570.98 -6141.705)" fill="#fff"/>
          <path id="Trazado_8424" data-name="Trazado 8424" d="M648.827,6175.947h-1.4v-12.156h1.4Z" transform="translate(-570.361 -6141.705)" fill="#fff"/>
          <path id="Trazado_8425" data-name="Trazado 8425" d="M655.7,6176.1a4.432,4.432,0,0,1-3.235-1.156,4.278,4.278,0,0,1-1.185-3.211,4.723,4.723,0,0,1,1.1-3.289,3.788,3.788,0,0,1,2.956-1.219,3.629,3.629,0,0,1,2.75,1.059,3.877,3.877,0,0,1,1.012,2.793v.82h-6.368a3.238,3.238,0,0,0,.822,2.289,2.964,2.964,0,0,0,2.2.781,7.942,7.942,0,0,0,2.952-.578v1.157a7.815,7.815,0,0,1-1.4.425A8.5,8.5,0,0,1,655.7,6176.1Zm-.38-7.789a2.383,2.383,0,0,0-1.775.672,2.97,2.97,0,0,0-.78,1.859H657.6a2.705,2.705,0,0,0-.59-1.878A2.161,2.161,0,0,0,655.321,6168.314Z" transform="translate(-569.992 -6141.705)" fill="#fff"/>
          <path id="Trazado_8426" data-name="Trazado 8426" d="M665.181,6176.1a4.11,4.11,0,0,1-3.108-1.144,4.482,4.482,0,0,1-1.1-3.239,4.623,4.623,0,0,1,1.118-3.32,4.193,4.193,0,0,1,3.184-1.172,6.846,6.846,0,0,1,1.332.133,4.692,4.692,0,0,1,1.046.313l-.43,1.1a7.109,7.109,0,0,0-1.012-.285,4.892,4.892,0,0,0-.97-.113q-2.817,0-2.817,3.328a3.749,3.749,0,0,0,.687,2.422,2.476,2.476,0,0,0,2.037.843,6.657,6.657,0,0,0,2.37-.46v1.148A5.391,5.391,0,0,1,665.181,6176.1Z" transform="translate(-569.361 -6141.705)" fill="#fff"/>
          <path id="Trazado_8427" data-name="Trazado 8427" d="M673.4,6176.1a4.11,4.11,0,0,1-3.108-1.144,4.482,4.482,0,0,1-1.1-3.239,4.623,4.623,0,0,1,1.117-3.32,4.193,4.193,0,0,1,3.184-1.172,6.864,6.864,0,0,1,1.333.133,4.692,4.692,0,0,1,1.046.313l-.431,1.1a7.074,7.074,0,0,0-1.012-.285,4.883,4.883,0,0,0-.97-.113q-2.817,0-2.817,3.328a3.744,3.744,0,0,0,.688,2.422,2.474,2.474,0,0,0,2.037.843,6.661,6.661,0,0,0,2.37-.46v1.148A5.4,5.4,0,0,1,673.4,6176.1Z" transform="translate(-568.809 -6141.705)" fill="#fff"/>
          <path id="Trazado_8428" data-name="Trazado 8428" d="M677.815,6165.064a.822.822,0,0,1,.237-.652.926.926,0,0,1,1.172,0,.81.81,0,0,1,.245.648.823.823,0,0,1-.245.653.853.853,0,0,1-.582.214.781.781,0,0,1-.827-.867Zm1.519,10.883h-1.4v-8.562h1.4Z" transform="translate(-568.351 -6141.705)" fill="#fff"/>
          <path id="Trazado_8429" data-name="Trazado 8429" d="M690.281,6171.658a4.5,4.5,0,0,1-1.138,3.269A4.171,4.171,0,0,1,686,6176.1a4.42,4.42,0,0,1-2.2-.539,3.658,3.658,0,0,1-1.484-1.547,5.049,5.049,0,0,1-.523-2.359,4.5,4.5,0,0,1,1.13-3.262,4.166,4.166,0,0,1,3.138-1.168,4.066,4.066,0,0,1,3.083,1.2A4.488,4.488,0,0,1,690.281,6171.658Zm-7.042,0a3.845,3.845,0,0,0,.708,2.5,2.966,2.966,0,0,0,4.171,0,3.825,3.825,0,0,0,.713-2.5,3.771,3.771,0,0,0-.713-2.481,2.6,2.6,0,0,0-2.1-.847,2.552,2.552,0,0,0-2.075.836A3.8,3.8,0,0,0,683.239,6171.658Zm1.619-5.6q.405-.483.873-1.171a13.122,13.122,0,0,0,.738-1.2h1.7v.164a11.765,11.765,0,0,1-1.1,1.25,12.133,12.133,0,0,1-1.274,1.149h-.936Z" transform="translate(-567.916 -6141.705)" fill="#fff"/>
          <path id="Trazado_8430" data-name="Trazado 8430" d="M699.061,6175.947v-5.539a2.129,2.129,0,0,0-.514-1.563,2.2,2.2,0,0,0-1.611-.515,2.773,2.773,0,0,0-2.125.726,3.475,3.475,0,0,0-.675,2.4v4.492h-1.4v-8.562h1.138l.228,1.171h.068a2.8,2.8,0,0,1,1.206-.98,4.177,4.177,0,0,1,1.729-.348,3.694,3.694,0,0,1,2.513.746,3.036,3.036,0,0,1,.843,2.387v5.586Z" transform="translate(-567.198 -6141.705)" fill="#fff"/>
          <path id="Trazado_8431" data-name="Trazado 8431" d="M711.73,6176.1a4.432,4.432,0,0,1-3.235-1.156,4.278,4.278,0,0,1-1.185-3.211,4.723,4.723,0,0,1,1.1-3.289,3.788,3.788,0,0,1,2.956-1.219,3.629,3.629,0,0,1,2.75,1.059,3.877,3.877,0,0,1,1.012,2.793v.82h-6.368a3.238,3.238,0,0,0,.822,2.289,2.964,2.964,0,0,0,2.2.781,7.942,7.942,0,0,0,2.952-.578v1.157a7.792,7.792,0,0,1-1.4.425A8.5,8.5,0,0,1,711.73,6176.1Zm-.38-7.789a2.383,2.383,0,0,0-1.775.672,2.97,2.97,0,0,0-.78,1.859h4.833a2.7,2.7,0,0,0-.591-1.878A2.159,2.159,0,0,0,711.35,6168.314Z" transform="translate(-566.212 -6141.705)" fill="#fff"/>
          <path id="Trazado_8432" data-name="Trazado 8432" d="M723.842,6175.947v-5.539a2.13,2.13,0,0,0-.515-1.563,2.2,2.2,0,0,0-1.611-.515,2.773,2.773,0,0,0-2.125.726,3.474,3.474,0,0,0-.675,2.4v4.492h-1.4v-8.562h1.138l.228,1.171h.068a2.8,2.8,0,0,1,1.206-.98,4.177,4.177,0,0,1,1.729-.348,3.694,3.694,0,0,1,2.513.746,3.036,3.036,0,0,1,.844,2.387v5.586Z" transform="translate(-565.527 -6141.705)" fill="#fff"/>
          <path id="Trazado_8433" data-name="Trazado 8433" d="M736.3,6176.1a4.11,4.11,0,0,1-3.108-1.144,4.482,4.482,0,0,1-1.1-3.239,4.623,4.623,0,0,1,1.118-3.32,4.193,4.193,0,0,1,3.184-1.172,6.845,6.845,0,0,1,1.332.133,4.676,4.676,0,0,1,1.046.313l-.43,1.1a7.113,7.113,0,0,0-1.012-.285,4.892,4.892,0,0,0-.97-.113q-2.817,0-2.817,3.328a3.749,3.749,0,0,0,.687,2.422,2.476,2.476,0,0,0,2.037.843,6.657,6.657,0,0,0,2.37-.46v1.148A5.391,5.391,0,0,1,736.3,6176.1Z" transform="translate(-564.584 -6141.705)" fill="#fff"/>
          <path id="Trazado_8434" data-name="Trazado 8434" d="M742.144,6167.385v5.554a2.128,2.128,0,0,0,.514,1.563,2.2,2.2,0,0,0,1.611.515,2.745,2.745,0,0,0,2.122-.734,3.506,3.506,0,0,0,.67-2.4v-4.5h1.4v8.562h-1.155l-.2-1.148h-.076a2.726,2.726,0,0,1-1.193.968,4.284,4.284,0,0,1-1.742.336,3.718,3.718,0,0,1-2.526-.742,3.018,3.018,0,0,1-.839-2.375v-5.6Z" transform="translate(-563.962 -6141.705)" fill="#fff"/>
          <path id="Trazado_8435" data-name="Trazado 8435" d="M757.115,6175.947l-.279-1.219h-.067a3.815,3.815,0,0,1-1.379,1.09,4.481,4.481,0,0,1-1.716.285,3.243,3.243,0,0,1-2.155-.656,2.3,2.3,0,0,1-.781-1.867q0-2.594,4.479-2.719l1.569-.047v-.531a2.062,2.062,0,0,0-.468-1.488,2.014,2.014,0,0,0-1.5-.481,6.492,6.492,0,0,0-2.615.656l-.43-.992a7.146,7.146,0,0,1,3.129-.734,3.709,3.709,0,0,1,2.45.68,2.712,2.712,0,0,1,.8,2.179v5.844Zm-3.163-.914a2.982,2.982,0,0,0,2.054-.664,2.361,2.361,0,0,0,.746-1.859v-.774l-1.4.055a5.45,5.45,0,0,0-2.408.48,1.424,1.424,0,0,0-.738,1.324,1.287,1.287,0,0,0,.46,1.071A2.008,2.008,0,0,0,753.952,6175.033Z" transform="translate(-563.3 -6141.705)" fill="#fff"/>
          <path id="Trazado_8436" data-name="Trazado 8436" d="M767.363,6175.947v-5.539a2.13,2.13,0,0,0-.515-1.563,2.2,2.2,0,0,0-1.611-.515,2.773,2.773,0,0,0-2.125.726,3.474,3.474,0,0,0-.675,2.4v4.492h-1.4v-8.562h1.138l.228,1.171h.068a2.8,2.8,0,0,1,1.206-.98,4.177,4.177,0,0,1,1.729-.348,3.694,3.694,0,0,1,2.513.746,3.036,3.036,0,0,1,.844,2.387v5.586Z" transform="translate(-562.593 -6141.705)" fill="#fff"/>
          <path id="Trazado_8437" data-name="Trazado 8437" d="M774.624,6175.033a4.874,4.874,0,0,0,.717-.051,4.591,4.591,0,0,0,.549-.1v.992a2.708,2.708,0,0,1-.671.168,5.464,5.464,0,0,1-.8.066q-2.682,0-2.682-2.617v-5.094h-1.324v-.625l1.324-.539.59-1.828h.81v1.985h2.682v1.007H773.14v5.039a1.653,1.653,0,0,0,.4,1.188A1.437,1.437,0,0,0,774.624,6175.033Z" transform="translate(-562.066 -6141.705)" fill="#fff"/>
          <path id="Trazado_8438" data-name="Trazado 8438" d="M785.716,6171.658a4.5,4.5,0,0,1-1.139,3.269,4.171,4.171,0,0,1-3.146,1.176,4.417,4.417,0,0,1-2.2-.539,3.666,3.666,0,0,1-1.485-1.547,5.049,5.049,0,0,1-.523-2.359,4.5,4.5,0,0,1,1.13-3.262,4.168,4.168,0,0,1,3.138-1.168,4.066,4.066,0,0,1,3.083,1.2A4.484,4.484,0,0,1,785.716,6171.658Zm-7.043,0a3.845,3.845,0,0,0,.708,2.5,2.966,2.966,0,0,0,4.171,0,3.825,3.825,0,0,0,.713-2.5,3.772,3.772,0,0,0-.713-2.481,2.6,2.6,0,0,0-2.1-.847,2.553,2.553,0,0,0-2.075.836A3.8,3.8,0,0,0,778.673,6171.658Z" transform="translate(-561.464 -6141.705)" fill="#fff"/>
          <path id="Trazado_8439" data-name="Trazado 8439" d="M798.342,6175.947l-.279-1.219H798a3.815,3.815,0,0,1-1.379,1.09,4.486,4.486,0,0,1-1.717.285,3.242,3.242,0,0,1-2.154-.656,2.3,2.3,0,0,1-.781-1.867q0-2.594,4.479-2.719l1.569-.047v-.531a2.062,2.062,0,0,0-.468-1.488,2.016,2.016,0,0,0-1.5-.481,6.492,6.492,0,0,0-2.615.656l-.43-.992a7.146,7.146,0,0,1,3.129-.734,3.709,3.709,0,0,1,2.45.68,2.716,2.716,0,0,1,.8,2.179v5.844Zm-3.163-.914a2.982,2.982,0,0,0,2.054-.664,2.361,2.361,0,0,0,.746-1.859v-.774l-1.4.055a5.449,5.449,0,0,0-2.408.48,1.424,1.424,0,0,0-.738,1.324,1.287,1.287,0,0,0,.46,1.071A2.008,2.008,0,0,0,795.179,6175.033Z" transform="translate(-560.524 -6141.705)" fill="#fff"/>
          <path id="Trazado_8440" data-name="Trazado 8440" d="M812.714,6173.611a2.094,2.094,0,0,1-.962,1.844,4.794,4.794,0,0,1-2.7.648,6.255,6.255,0,0,1-2.867-.539v-1.2a7.2,7.2,0,0,0,1.429.492,6.407,6.407,0,0,0,1.472.18,3.554,3.554,0,0,0,1.687-.324,1.072,1.072,0,0,0,.122-1.844,7.64,7.64,0,0,0-1.826-.84,10.284,10.284,0,0,1-1.834-.777,2.418,2.418,0,0,1-.81-.754,1.854,1.854,0,0,1-.266-1.008,1.884,1.884,0,0,1,.92-1.652,4.54,4.54,0,0,1,2.522-.606,7.885,7.885,0,0,1,2.918.563l-.5,1.054a7.175,7.175,0,0,0-2.522-.531,3.1,3.1,0,0,0-1.5.289.887.887,0,0,0-.506.8.915.915,0,0,0,.19.586,1.823,1.823,0,0,0,.611.461,14.147,14.147,0,0,0,1.62.633,6.2,6.2,0,0,1,2.222,1.117A1.893,1.893,0,0,1,812.714,6173.611Z" transform="translate(-556.271 -6141.705)" fill="#fff"/>
          <path id="Trazado_8441" data-name="Trazado 8441" d="M814.873,6165.064a.825.825,0,0,1,.236-.652.926.926,0,0,1,1.172,0,.81.81,0,0,1,.245.648.823.823,0,0,1-.245.653.853.853,0,0,1-.582.214.78.78,0,0,1-.826-.867Zm1.518,10.883h-1.4v-8.562h1.4Z" transform="translate(-556.271 -6141.705)" fill="#fff"/>
          <path id="Trazado_8442" data-name="Trazado 8442" d="M820.76,6175.947h-1.4v-12.156h1.4Z" transform="translate(-556.271 -6141.705)" fill="#fff"/>
          <path id="Trazado_8443" data-name="Trazado 8443" d="M825.045,6167.385v5.554a2.128,2.128,0,0,0,.514,1.563,2.2,2.2,0,0,0,1.611.515,2.742,2.742,0,0,0,2.121-.734,3.506,3.506,0,0,0,.671-2.4v-4.5h1.4v8.562h-1.156l-.2-1.148h-.076a2.738,2.738,0,0,1-1.193.968,4.284,4.284,0,0,1-1.742.336,3.715,3.715,0,0,1-2.526-.742,3.014,3.014,0,0,1-.839-2.375v-5.6Z" transform="translate(-556.271 -6141.705)" fill="#fff"/>
          <path id="Trazado_8444" data-name="Trazado 8444" d="M838.236,6176.1a4.433,4.433,0,0,1-3.235-1.156,4.278,4.278,0,0,1-1.185-3.211,4.723,4.723,0,0,1,1.1-3.289,3.788,3.788,0,0,1,2.956-1.219,3.629,3.629,0,0,1,2.75,1.059,3.877,3.877,0,0,1,1.012,2.793v.82h-6.368a3.237,3.237,0,0,0,.822,2.289,2.964,2.964,0,0,0,2.2.781,7.942,7.942,0,0,0,2.952-.578v1.157a7.814,7.814,0,0,1-1.4.425A8.5,8.5,0,0,1,838.236,6176.1Zm-.38-7.789a2.383,2.383,0,0,0-1.775.672,2.97,2.97,0,0,0-.78,1.859h4.832a2.7,2.7,0,0,0-.59-1.878A2.161,2.161,0,0,0,837.856,6168.314Z" transform="translate(-556.271 -6141.705)" fill="#fff"/>
          <path id="Trazado_8445" data-name="Trazado 8445" d="M847.008,6175.033a4.87,4.87,0,0,0,.716-.051,4.591,4.591,0,0,0,.549-.1v.992a2.708,2.708,0,0,1-.671.168,5.464,5.464,0,0,1-.8.066q-2.682,0-2.682-2.617v-5.094H842.8v-.625l1.324-.539.59-1.828h.81v1.985h2.682v1.007h-2.682v5.039a1.649,1.649,0,0,0,.4,1.188A1.434,1.434,0,0,0,847.008,6175.033Z" transform="translate(-556.271 -6141.705)" fill="#fff"/>
          <path id="Trazado_8446" data-name="Trazado 8446" d="M855.8,6175.947l-.279-1.219h-.067a3.815,3.815,0,0,1-1.379,1.09,4.49,4.49,0,0,1-1.717.285,3.245,3.245,0,0,1-2.155-.656,2.3,2.3,0,0,1-.78-1.867q0-2.594,4.479-2.719l1.569-.047v-.531a2.058,2.058,0,0,0-.469-1.488,2.014,2.014,0,0,0-1.5-.481,6.488,6.488,0,0,0-2.614.656l-.43-.992a7.146,7.146,0,0,1,3.129-.734,3.709,3.709,0,0,1,2.45.68,2.716,2.716,0,0,1,.8,2.179v5.844Zm-3.163-.914a2.978,2.978,0,0,0,2.053-.664,2.359,2.359,0,0,0,.747-1.859v-.774l-1.4.055a5.446,5.446,0,0,0-2.408.48,1.424,1.424,0,0,0-.738,1.324,1.29,1.29,0,0,0,.459,1.071A2.013,2.013,0,0,0,852.642,6175.033Z" transform="translate(-556.271 -6141.705)" fill="#fff"/>
          <path id="Trazado_8447" data-name="Trazado 8447" d="M861.194,6174.088l.127.179a18.69,18.69,0,0,1-.633,1.817q-.414,1.035-.86,1.926h-1.055q.228-.813.5-2.008t.384-1.914Z" transform="translate(-556.271 -6141.705)" fill="#fff"/>
          <path id="Trazado_8448" data-name="Trazado 8448" d="M586.548,6197.033a4.895,4.895,0,0,0,.717-.051,4.609,4.609,0,0,0,.548-.1v.992a2.7,2.7,0,0,1-.67.168,5.478,5.478,0,0,1-.8.066q-2.682,0-2.682-2.617v-5.094h-1.324v-.625l1.324-.539.591-1.828h.809v1.985h2.683v1.007h-2.683v5.039a1.653,1.653,0,0,0,.4,1.188A1.435,1.435,0,0,0,586.548,6197.033Z" transform="translate(-575.128 -6141.705)" fill="#fff"/>
          <path id="Trazado_8449" data-name="Trazado 8449" d="M593.565,6198.1a4.432,4.432,0,0,1-3.234-1.156,4.278,4.278,0,0,1-1.185-3.211,4.728,4.728,0,0,1,1.1-3.289,3.79,3.79,0,0,1,2.957-1.219,3.627,3.627,0,0,1,2.749,1.059,3.873,3.873,0,0,1,1.012,2.793v.82H590.6a3.238,3.238,0,0,0,.823,2.289,2.963,2.963,0,0,0,2.2.781,7.95,7.95,0,0,0,2.952-.578v1.157a7.815,7.815,0,0,1-1.4.425A8.516,8.516,0,0,1,593.565,6198.1Zm-.379-7.789a2.385,2.385,0,0,0-1.776.672,2.981,2.981,0,0,0-.78,1.859h4.833a2.71,2.71,0,0,0-.59-1.878A2.161,2.161,0,0,0,593.186,6190.314Z" transform="translate(-575.128 -6141.705)" fill="#fff"/>
          <path id="Trazado_8450" data-name="Trazado 8450" d="M598.229,6201.791a3.61,3.61,0,0,1-1.3-.2v-1.054a4.414,4.414,0,0,0,1.147.156,1.257,1.257,0,0,0,.965-.332,1.444,1.444,0,0,0,.308-1.012v-9.968h1.4v9.875A2.233,2.233,0,0,1,598.229,6201.791Zm1-14.727a.825.825,0,0,1,.236-.652.927.927,0,0,1,1.173,0,.81.81,0,0,1,.244.648.823.823,0,0,1-.244.653.856.856,0,0,1-.582.214.78.78,0,0,1-.827-.867Z" transform="translate(-575.128 -6141.705)" fill="#fff"/>
          <path id="Trazado_8451" data-name="Trazado 8451" d="M603.6,6187.064a.825.825,0,0,1,.236-.652.927.927,0,0,1,1.173,0,.809.809,0,0,1,.244.648.822.822,0,0,1-.244.653.909.909,0,0,1-1.173,0A.84.84,0,0,1,603.6,6187.064Zm1.518,10.883h-1.4v-8.562h1.4Z" transform="translate(-575.128 -6141.705)" fill="#fff"/>
          <path id="Trazado_8452" data-name="Trazado 8452" d="M614.381,6196.8H614.3a3.382,3.382,0,0,1-2.9,1.3,3.559,3.559,0,0,1-2.822-1.148,4.8,4.8,0,0,1-1.007-3.266,4.875,4.875,0,0,1,1.012-3.289,3.526,3.526,0,0,1,2.817-1.172,3.463,3.463,0,0,1,2.884,1.266h.11l-.059-.617-.034-.6v-3.484h1.4v12.156h-1.138Zm-2.8.218a2.658,2.658,0,0,0,2.079-.722,3.454,3.454,0,0,0,.645-2.332v-.274a4.057,4.057,0,0,0-.653-2.6,2.584,2.584,0,0,0-2.088-.778,2.2,2.2,0,0,0-1.885.887,4.157,4.157,0,0,0-.654,2.5,3.984,3.984,0,0,0,.65,2.476A2.265,2.265,0,0,0,611.581,6197.017Z" transform="translate(-575.128 -6141.705)" fill="#fff"/>
          <path id="Trazado_8453" data-name="Trazado 8453" d="M626.653,6193.658a4.5,4.5,0,0,1-1.139,3.269,4.169,4.169,0,0,1-3.146,1.176,4.419,4.419,0,0,1-2.2-.539,3.658,3.658,0,0,1-1.484-1.547,5.049,5.049,0,0,1-.523-2.359,4.5,4.5,0,0,1,1.13-3.262,4.164,4.164,0,0,1,3.137-1.168,4.064,4.064,0,0,1,3.083,1.2A4.485,4.485,0,0,1,626.653,6193.658Zm-7.043,0a3.845,3.845,0,0,0,.709,2.5,2.966,2.966,0,0,0,4.171,0,3.825,3.825,0,0,0,.712-2.5,3.771,3.771,0,0,0-.712-2.481,2.6,2.6,0,0,0-2.1-.847,2.554,2.554,0,0,0-2.075.836A3.809,3.809,0,0,0,619.61,6193.658Z" transform="translate(-575.128 -6141.705)" fill="#fff"/>
          <path id="Trazado_8454" data-name="Trazado 8454" d="M635.071,6195.611a2.094,2.094,0,0,1-.962,1.844,4.8,4.8,0,0,1-2.7.648,6.259,6.259,0,0,1-2.868-.539v-1.2a7.2,7.2,0,0,0,1.43.492,6.4,6.4,0,0,0,1.472.18,3.554,3.554,0,0,0,1.687-.324,1.072,1.072,0,0,0,.122-1.844,7.64,7.64,0,0,0-1.826-.84,10.337,10.337,0,0,1-1.835-.777,2.424,2.424,0,0,1-.809-.754,1.854,1.854,0,0,1-.266-1.008,1.883,1.883,0,0,1,.919-1.652,4.545,4.545,0,0,1,2.522-.606,7.894,7.894,0,0,1,2.919.563l-.5,1.054a7.18,7.18,0,0,0-2.522-.531,3.1,3.1,0,0,0-1.5.289.886.886,0,0,0-.506.8.921.921,0,0,0,.189.586,1.839,1.839,0,0,0,.612.461,14.186,14.186,0,0,0,1.619.633,6.209,6.209,0,0,1,2.223,1.117A1.893,1.893,0,0,1,635.071,6195.611Z" transform="translate(-571.543 -6141.705)" fill="#fff"/>
          <path id="Trazado_8455" data-name="Trazado 8455" d="M638.815,6196.088l.127.179a18.447,18.447,0,0,1-.633,1.817q-.413,1.035-.86,1.926H636.4q.227-.813.5-2.008t.384-1.914Z" transform="translate(-571.072 -6141.705)" fill="#fff"/>
          <path id="Trazado_8456" data-name="Trazado 8456" d="M649.763,6198.1a4.109,4.109,0,0,1-3.108-1.144,4.482,4.482,0,0,1-1.1-3.239,4.623,4.623,0,0,1,1.118-3.32,4.193,4.193,0,0,1,3.184-1.172,6.845,6.845,0,0,1,1.332.133,4.676,4.676,0,0,1,1.046.313l-.43,1.1a7.113,7.113,0,0,0-1.012-.285,4.891,4.891,0,0,0-.97-.113q-2.817,0-2.817,3.328a3.749,3.749,0,0,0,.687,2.422,2.476,2.476,0,0,0,2.037.843,6.657,6.657,0,0,0,2.37-.46v1.148A5.39,5.39,0,0,1,649.763,6198.1Z" transform="translate(-570.397 -6141.705)" fill="#fff"/>
          <path id="Trazado_8457" data-name="Trazado 8457" d="M662.271,6193.658a4.5,4.5,0,0,1-1.139,3.269,4.169,4.169,0,0,1-3.146,1.176,4.419,4.419,0,0,1-2.2-.539,3.658,3.658,0,0,1-1.484-1.547,5.049,5.049,0,0,1-.523-2.359,4.5,4.5,0,0,1,1.13-3.262,4.164,4.164,0,0,1,3.137-1.168,4.064,4.064,0,0,1,3.083,1.2A4.484,4.484,0,0,1,662.271,6193.658Zm-7.043,0a3.845,3.845,0,0,0,.709,2.5,2.966,2.966,0,0,0,4.171,0,3.825,3.825,0,0,0,.712-2.5,3.771,3.771,0,0,0-.712-2.481,2.6,2.6,0,0,0-2.1-.847,2.555,2.555,0,0,0-2.075.836A3.809,3.809,0,0,0,655.228,6193.658Z" transform="translate(-569.81 -6141.705)" fill="#fff"/>
          <path id="Trazado_8458" data-name="Trazado 8458" d="M666.125,6197.947h-1.4v-12.156h1.4Z" transform="translate(-569.22 -6141.705)" fill="#fff"/>
          <path id="Trazado_8459" data-name="Trazado 8459" d="M677.073,6193.658a4.5,4.5,0,0,1-1.138,3.269,4.172,4.172,0,0,1-3.146,1.176,4.42,4.42,0,0,1-2.2-.539,3.658,3.658,0,0,1-1.484-1.547,5.049,5.049,0,0,1-.523-2.359,4.5,4.5,0,0,1,1.13-3.262,4.164,4.164,0,0,1,3.137-1.168,4.064,4.064,0,0,1,3.083,1.2A4.484,4.484,0,0,1,677.073,6193.658Zm-7.043,0a3.845,3.845,0,0,0,.709,2.5,2.966,2.966,0,0,0,4.171,0,3.825,3.825,0,0,0,.712-2.5,3.771,3.771,0,0,0-.712-2.481,2.6,2.6,0,0,0-2.1-.847,2.551,2.551,0,0,0-2.074.836A3.8,3.8,0,0,0,670.03,6193.658Z" transform="translate(-568.81 -6141.705)" fill="#fff"/>
          <path id="Trazado_8460" data-name="Trazado 8460" d="M683.745,6189.228a5.954,5.954,0,0,1,1.1.094l-.194,1.2a5.135,5.135,0,0,0-1.013-.117,2.543,2.543,0,0,0-1.918.844,2.938,2.938,0,0,0-.8,2.1v4.594h-1.4v-8.562h1.155l.16,1.585h.068a3.893,3.893,0,0,1,1.24-1.289A2.953,2.953,0,0,1,683.745,6189.228Z" transform="translate(-568.149 -6141.705)" fill="#fff"/>
          <path id="Trazado_8461" data-name="Trazado 8461" d="M690.484,6198.1a4.432,4.432,0,0,1-3.235-1.156,4.278,4.278,0,0,1-1.185-3.211,4.724,4.724,0,0,1,1.1-3.289,3.788,3.788,0,0,1,2.956-1.219,3.625,3.625,0,0,1,2.749,1.059,3.873,3.873,0,0,1,1.013,2.793v.82h-6.368a3.238,3.238,0,0,0,.822,2.289,2.965,2.965,0,0,0,2.2.781,7.95,7.95,0,0,0,2.952-.578v1.157a7.814,7.814,0,0,1-1.4.425A8.5,8.5,0,0,1,690.484,6198.1Zm-.38-7.789a2.383,2.383,0,0,0-1.775.672,2.977,2.977,0,0,0-.781,1.859h4.833a2.71,2.71,0,0,0-.59-1.878A2.161,2.161,0,0,0,690.1,6190.314Z" transform="translate(-567.645 -6141.705)" fill="#fff"/>
          <path id="Trazado_8462" data-name="Trazado 8462" d="M702.233,6195.611a2.094,2.094,0,0,1-.962,1.844,4.8,4.8,0,0,1-2.7.648,6.259,6.259,0,0,1-2.868-.539v-1.2a7.226,7.226,0,0,0,1.43.492,6.4,6.4,0,0,0,1.472.18,3.554,3.554,0,0,0,1.687-.324,1.072,1.072,0,0,0,.122-1.844,7.638,7.638,0,0,0-1.826-.84,10.334,10.334,0,0,1-1.835-.777,2.424,2.424,0,0,1-.809-.754,1.854,1.854,0,0,1-.266-1.008,1.885,1.885,0,0,1,.919-1.652,4.544,4.544,0,0,1,2.522-.606,7.89,7.89,0,0,1,2.919.563l-.5,1.054a7.175,7.175,0,0,0-2.522-.531,3.1,3.1,0,0,0-1.5.289.886.886,0,0,0-.506.8.92.92,0,0,0,.189.586,1.839,1.839,0,0,0,.612.461,14.186,14.186,0,0,0,1.619.633,6.2,6.2,0,0,1,2.223,1.117A1.893,1.893,0,0,1,702.233,6195.611Z" transform="translate(-567.034 -6141.705)" fill="#fff"/>
          <path id="Trazado_8463" data-name="Trazado 8463" d="M705.977,6196.088l.127.179a18.179,18.179,0,0,1-.633,1.817q-.413,1.035-.86,1.926h-1.054q.228-.813.5-2.008t.383-1.914Z" transform="translate(-566.626 -6141.705)" fill="#fff"/>
          <path id="Trazado_8464" data-name="Trazado 8464" d="M716.217,6197.033a4.895,4.895,0,0,0,.717-.051,4.609,4.609,0,0,0,.548-.1v.992a2.706,2.706,0,0,1-.671.168,5.464,5.464,0,0,1-.8.066q-2.682,0-2.682-2.617v-5.094h-1.324v-.625l1.324-.539.59-1.828h.81v1.985h2.682v1.007h-2.682v5.039a1.649,1.649,0,0,0,.4,1.188A1.434,1.434,0,0,0,716.217,6197.033Z" transform="translate(-565.972 -6141.705)" fill="#fff"/>
          <path id="Trazado_8465" data-name="Trazado 8465" d="M723.234,6198.1a4.434,4.434,0,0,1-3.235-1.156,4.278,4.278,0,0,1-1.185-3.211,4.724,4.724,0,0,1,1.1-3.289,3.788,3.788,0,0,1,2.956-1.219,3.629,3.629,0,0,1,2.75,1.059,3.872,3.872,0,0,1,1.012,2.793v.82h-6.368a3.238,3.238,0,0,0,.822,2.289,2.965,2.965,0,0,0,2.2.781,7.951,7.951,0,0,0,2.953-.578v1.157a7.8,7.8,0,0,1-1.405.425A8.5,8.5,0,0,1,723.234,6198.1Zm-.38-7.789a2.383,2.383,0,0,0-1.775.672,2.981,2.981,0,0,0-.78,1.859h4.833a2.705,2.705,0,0,0-.591-1.878A2.159,2.159,0,0,0,722.854,6190.314Z" transform="translate(-565.437 -6141.705)" fill="#fff"/>
          <path id="Trazado_8466" data-name="Trazado 8466" d="M731.247,6193.564l-3.214-4.179h1.594l2.438,3.281,2.429-3.281h1.577l-3.214,4.179,3.383,4.383h-1.586l-2.589-3.469-2.615,3.469h-1.586Z" transform="translate(-564.805 -6141.705)" fill="#fff"/>
          <path id="Trazado_8467" data-name="Trazado 8467" d="M741.056,6197.033a4.895,4.895,0,0,0,.717-.051,4.609,4.609,0,0,0,.548-.1v.992a2.707,2.707,0,0,1-.671.168,5.465,5.465,0,0,1-.8.066q-2.682,0-2.682-2.617v-5.094h-1.324v-.625l1.324-.539.59-1.828h.81v1.985h2.682v1.007h-2.682v5.039a1.649,1.649,0,0,0,.4,1.188A1.434,1.434,0,0,0,741.056,6197.033Z" transform="translate(-564.311 -6141.705)" fill="#fff"/>
          <path id="Trazado_8468" data-name="Trazado 8468" d="M745.484,6189.385v5.554A2.128,2.128,0,0,0,746,6196.5a2.2,2.2,0,0,0,1.611.515,2.742,2.742,0,0,0,2.121-.734,3.505,3.505,0,0,0,.671-2.4v-4.5h1.4v8.562h-1.156l-.2-1.148h-.076a2.738,2.738,0,0,1-1.193.968,4.284,4.284,0,0,1-1.742.336,3.715,3.715,0,0,1-2.526-.742,3.014,3.014,0,0,1-.839-2.375v-5.6Z" transform="translate(-563.737 -6141.705)" fill="#fff"/>
          <path id="Trazado_8469" data-name="Trazado 8469" d="M758.987,6189.228a5.947,5.947,0,0,1,1.1.094l-.194,1.2a5.134,5.134,0,0,0-1.012-.117,2.543,2.543,0,0,0-1.919.844,2.942,2.942,0,0,0-.8,2.1v4.594h-1.4v-8.562h1.155l.161,1.585h.067a3.892,3.892,0,0,1,1.24-1.289A2.956,2.956,0,0,1,758.987,6189.228Z" transform="translate(-563.119 -6141.705)" fill="#fff"/>
          <path id="Trazado_8470" data-name="Trazado 8470" d="M767.506,6197.947l-.279-1.219h-.067a3.815,3.815,0,0,1-1.379,1.09,4.489,4.489,0,0,1-1.717.285,3.245,3.245,0,0,1-2.155-.656,2.3,2.3,0,0,1-.78-1.867q0-2.594,4.479-2.719l1.569-.047v-.531a2.058,2.058,0,0,0-.469-1.488,2.014,2.014,0,0,0-1.5-.481,6.492,6.492,0,0,0-2.614.656l-.43-.992a7.146,7.146,0,0,1,3.129-.734,3.709,3.709,0,0,1,2.45.68,2.716,2.716,0,0,1,.8,2.179v5.844Zm-3.163-.914a2.978,2.978,0,0,0,2.053-.664,2.359,2.359,0,0,0,.747-1.859v-.774l-1.4.055a5.446,5.446,0,0,0-2.408.48,1.424,1.424,0,0,0-.738,1.324,1.29,1.29,0,0,0,.459,1.071A2.013,2.013,0,0,0,764.343,6197.033Z" transform="translate(-562.601 -6141.705)" fill="#fff"/>
          <path id="Trazado_8471" data-name="Trazado 8471" d="M777.391,6195.611a2.094,2.094,0,0,1-.962,1.844,4.8,4.8,0,0,1-2.7.648,6.259,6.259,0,0,1-2.868-.539v-1.2a7.2,7.2,0,0,0,1.43.492,6.4,6.4,0,0,0,1.472.18,3.554,3.554,0,0,0,1.687-.324,1.072,1.072,0,0,0,.122-1.844,7.64,7.64,0,0,0-1.826-.84,10.337,10.337,0,0,1-1.835-.777,2.424,2.424,0,0,1-.809-.754,1.854,1.854,0,0,1-.266-1.008,1.885,1.885,0,0,1,.919-1.652,4.545,4.545,0,0,1,2.522-.606,7.89,7.89,0,0,1,2.919.563l-.5,1.054a7.179,7.179,0,0,0-2.522-.531,3.1,3.1,0,0,0-1.5.289.886.886,0,0,0-.506.8.92.92,0,0,0,.189.586,1.839,1.839,0,0,0,.612.461,14.186,14.186,0,0,0,1.619.633,6.2,6.2,0,0,1,2.223,1.117A1.893,1.893,0,0,1,777.391,6195.611Z" transform="translate(-561.987 -6141.705)" fill="#fff"/>
          <path id="Trazado_8472" data-name="Trazado 8472" d="M781.135,6196.088l.127.179a18.179,18.179,0,0,1-.633,1.817q-.413,1.035-.86,1.926h-1.054q.228-.813.5-2.008t.383-1.914Z" transform="translate(-561.65 -6141.705)" fill="#fff"/>
          <path id="Trazado_8473" data-name="Trazado 8473" d="M794.352,6195.611a2.094,2.094,0,0,1-.962,1.844,4.794,4.794,0,0,1-2.7.648,6.257,6.257,0,0,1-2.867-.539v-1.2a7.2,7.2,0,0,0,1.429.492,6.407,6.407,0,0,0,1.472.18,3.554,3.554,0,0,0,1.687-.324,1.072,1.072,0,0,0,.122-1.844,7.64,7.64,0,0,0-1.826-.84,10.284,10.284,0,0,1-1.834-.777,2.418,2.418,0,0,1-.81-.754,1.854,1.854,0,0,1-.266-1.008,1.884,1.884,0,0,1,.92-1.652,4.542,4.542,0,0,1,2.522-.606,7.885,7.885,0,0,1,2.918.563l-.5,1.054a7.175,7.175,0,0,0-2.522-.531,3.1,3.1,0,0,0-1.5.289.887.887,0,0,0-.506.8.915.915,0,0,0,.19.586,1.823,1.823,0,0,0,.611.461,14.147,14.147,0,0,0,1.62.633,6.2,6.2,0,0,1,2.222,1.117A1.893,1.893,0,0,1,794.352,6195.611Z" transform="translate(-560.848 -6141.705)" fill="#fff"/>
          <path id="Trazado_8474" data-name="Trazado 8474" d="M804.608,6193.658a4.5,4.5,0,0,1-1.139,3.269,4.169,4.169,0,0,1-3.146,1.176,4.419,4.419,0,0,1-2.2-.539,3.658,3.658,0,0,1-1.484-1.547,5.049,5.049,0,0,1-.523-2.359,4.5,4.5,0,0,1,1.13-3.262,4.164,4.164,0,0,1,3.137-1.168,4.064,4.064,0,0,1,3.083,1.2A4.485,4.485,0,0,1,804.608,6193.658Zm-7.043,0a3.845,3.845,0,0,0,.709,2.5,2.966,2.966,0,0,0,4.171,0,3.825,3.825,0,0,0,.712-2.5,3.772,3.772,0,0,0-.712-2.481,2.6,2.6,0,0,0-2.1-.847,2.554,2.554,0,0,0-2.075.836A3.809,3.809,0,0,0,797.565,6193.658Z" transform="translate(-560.187 -6141.705)" fill="#fff"/>
          <path id="Trazado_8475" data-name="Trazado 8475" d="M813.388,6197.947v-5.539a2.13,2.13,0,0,0-.514-1.563,2.2,2.2,0,0,0-1.611-.515,2.775,2.775,0,0,0-2.126.726,3.474,3.474,0,0,0-.675,2.4v4.492h-1.4v-8.562H808.2l.228,1.171h.067a2.809,2.809,0,0,1,1.206-.98,4.183,4.183,0,0,1,1.729-.348,3.7,3.7,0,0,1,2.514.746,3.036,3.036,0,0,1,.843,2.387v5.586Z" transform="translate(-556.271 -6141.705)" fill="#fff"/>
          <path id="Trazado_8476" data-name="Trazado 8476" d="M817.546,6187.064a.825.825,0,0,1,.236-.652.927.927,0,0,1,1.173,0,.81.81,0,0,1,.244.648.823.823,0,0,1-.244.653.91.91,0,0,1-1.173,0A.84.84,0,0,1,817.546,6187.064Zm1.518,10.883h-1.4v-8.562h1.4Z" transform="translate(-556.271 -6141.705)" fill="#fff"/>
          <path id="Trazado_8477" data-name="Trazado 8477" d="M828.325,6196.8h-.076a3.382,3.382,0,0,1-2.9,1.3,3.555,3.555,0,0,1-2.821-1.148,4.8,4.8,0,0,1-1.008-3.266,4.875,4.875,0,0,1,1.012-3.289,3.526,3.526,0,0,1,2.817-1.172,3.463,3.463,0,0,1,2.884,1.266h.11l-.059-.617-.034-.6v-3.484h1.4v12.156h-1.138Zm-2.8.218a2.658,2.658,0,0,0,2.079-.722,3.455,3.455,0,0,0,.645-2.332v-.274a4.057,4.057,0,0,0-.653-2.6,2.584,2.584,0,0,0-2.088-.778,2.2,2.2,0,0,0-1.885.887,4.158,4.158,0,0,0-.654,2.5,3.984,3.984,0,0,0,.65,2.476A2.265,2.265,0,0,0,825.525,6197.017Z" transform="translate(-556.271 -6141.705)" fill="#fff"/>
          <path id="Trazado_8478" data-name="Trazado 8478" d="M840.6,6193.658a4.5,4.5,0,0,1-1.138,3.269,4.172,4.172,0,0,1-3.146,1.176,4.42,4.42,0,0,1-2.2-.539,3.657,3.657,0,0,1-1.484-1.547,5.049,5.049,0,0,1-.523-2.359,4.5,4.5,0,0,1,1.13-3.262,4.165,4.165,0,0,1,3.138-1.168,4.064,4.064,0,0,1,3.082,1.2A4.484,4.484,0,0,1,840.6,6193.658Zm-7.042,0a3.845,3.845,0,0,0,.708,2.5,2.966,2.966,0,0,0,4.171,0,3.825,3.825,0,0,0,.712-2.5,3.772,3.772,0,0,0-.712-2.481,2.6,2.6,0,0,0-2.105-.847,2.551,2.551,0,0,0-2.074.836A3.8,3.8,0,0,0,833.555,6193.658Z" transform="translate(-556.271 -6141.705)" fill="#fff"/>
          <path id="Trazado_8479" data-name="Trazado 8479" d="M849.015,6195.611a2.094,2.094,0,0,1-.962,1.844,4.8,4.8,0,0,1-2.7.648,6.259,6.259,0,0,1-2.868-.539v-1.2a7.2,7.2,0,0,0,1.43.492,6.4,6.4,0,0,0,1.472.18,3.554,3.554,0,0,0,1.687-.324,1.072,1.072,0,0,0,.122-1.844,7.64,7.64,0,0,0-1.826-.84,10.334,10.334,0,0,1-1.835-.777,2.424,2.424,0,0,1-.809-.754,1.854,1.854,0,0,1-.266-1.008,1.885,1.885,0,0,1,.919-1.652,4.544,4.544,0,0,1,2.522-.606,7.89,7.89,0,0,1,2.919.563l-.5,1.054a7.175,7.175,0,0,0-2.522-.531,3.1,3.1,0,0,0-1.5.289.886.886,0,0,0-.506.8.92.92,0,0,0,.189.586,1.839,1.839,0,0,0,.612.461,14.19,14.19,0,0,0,1.619.633,6.2,6.2,0,0,1,2.223,1.117A1.893,1.893,0,0,1,849.015,6195.611Z" transform="translate(-556.271 -6141.705)" fill="#fff"/>
          <path id="Trazado_8480" data-name="Trazado 8480" d="M852.759,6196.088l.127.179a18.179,18.179,0,0,1-.633,1.817q-.412,1.035-.86,1.926h-1.054q.228-.813.5-2.008t.383-1.914Z" transform="translate(-556.271 -6141.705)" fill="#fff"/>
          <path id="Trazado_8481" data-name="Trazado 8481" d="M582.154,6220.1a4.11,4.11,0,0,1-3.108-1.144,4.484,4.484,0,0,1-1.1-3.239,4.621,4.621,0,0,1,1.117-3.32,4.194,4.194,0,0,1,3.184-1.172,6.773,6.773,0,0,1,1.333.133,4.641,4.641,0,0,1,1.046.313l-.43,1.1a7.022,7.022,0,0,0-1.012-.285,4.891,4.891,0,0,0-.97-.113q-2.817,0-2.817,3.328a3.751,3.751,0,0,0,.687,2.422,2.474,2.474,0,0,0,2.037.843,6.641,6.641,0,0,0,2.37-.461v1.149A5.394,5.394,0,0,1,582.154,6220.1Z" transform="translate(-575.128 -6141.705)" fill="#fff"/>
          <path id="Trazado_8482" data-name="Trazado 8482" d="M594.662,6215.659a4.5,4.5,0,0,1-1.139,3.269,4.172,4.172,0,0,1-3.146,1.176,4.416,4.416,0,0,1-2.2-.539,3.666,3.666,0,0,1-1.485-1.547,5.049,5.049,0,0,1-.523-2.359,4.5,4.5,0,0,1,1.13-3.262,4.168,4.168,0,0,1,3.138-1.168,4.066,4.066,0,0,1,3.083,1.2A4.484,4.484,0,0,1,594.662,6215.659Zm-7.043,0a3.846,3.846,0,0,0,.708,2.5,2.966,2.966,0,0,0,4.171,0,3.827,3.827,0,0,0,.713-2.5,3.767,3.767,0,0,0-.713-2.481,2.591,2.591,0,0,0-2.1-.847,2.55,2.55,0,0,0-2.075.836A3.8,3.8,0,0,0,587.619,6215.659Z" transform="translate(-575.128 -6141.705)" fill="#fff"/>
          <path id="Trazado_8483" data-name="Trazado 8483" d="M608.9,6219.948v-5.57a2.191,2.191,0,0,0-.473-1.535,1.907,1.907,0,0,0-1.467-.512,2.468,2.468,0,0,0-1.932.695,3.133,3.133,0,0,0-.624,2.141v4.781H603v-5.57a2.191,2.191,0,0,0-.472-1.535,1.92,1.92,0,0,0-1.476-.512,2.374,2.374,0,0,0-1.927.73,3.73,3.73,0,0,0-.612,2.4v4.492h-1.4v-8.563h1.139l.227,1.172h.068a2.671,2.671,0,0,1,1.117-.976,3.632,3.632,0,0,1,1.616-.352,2.787,2.787,0,0,1,2.833,1.453h.068a2.857,2.857,0,0,1,1.2-1.062,3.942,3.942,0,0,1,1.788-.391,3.285,3.285,0,0,1,2.349.746,3.178,3.178,0,0,1,.78,2.387v5.586Z" transform="translate(-575.128 -6141.705)" fill="#fff"/>
          <path id="Trazado_8484" data-name="Trazado 8484" d="M617.485,6220.1a4.288,4.288,0,0,1-1.649-.308,3.075,3.075,0,0,1-1.253-.95h-.1a10.56,10.56,0,0,1,.1,1.422v3.524h-1.4v-12.407h1.139l.194,1.172h.067a3.194,3.194,0,0,1,1.257-1.015,4.087,4.087,0,0,1,1.645-.313,3.537,3.537,0,0,1,2.838,1.164,5.815,5.815,0,0,1-.017,6.543A3.542,3.542,0,0,1,617.485,6220.1Zm-.2-7.773a2.587,2.587,0,0,0-2.049.726,3.54,3.54,0,0,0-.65,2.313v.289a4.044,4.044,0,0,0,.65,2.582,2.565,2.565,0,0,0,2.083.777,2.225,2.225,0,0,0,1.877-.9,4.03,4.03,0,0,0,.679-2.477,3.881,3.881,0,0,0-.679-2.457A2.3,2.3,0,0,0,617.282,6212.331Z" transform="translate(-575.128 -6141.705)" fill="#fff"/>
          <path id="Trazado_8485" data-name="Trazado 8485" d="M631.747,6215.659a4.5,4.5,0,0,1-1.138,3.269,4.172,4.172,0,0,1-3.146,1.176,4.42,4.42,0,0,1-2.2-.539,3.658,3.658,0,0,1-1.484-1.547,5.049,5.049,0,0,1-.523-2.359,4.5,4.5,0,0,1,1.13-3.262,4.166,4.166,0,0,1,3.138-1.168,4.064,4.064,0,0,1,3.082,1.2A4.484,4.484,0,0,1,631.747,6215.659Zm-7.042,0a3.846,3.846,0,0,0,.708,2.5,2.966,2.966,0,0,0,4.171,0,3.827,3.827,0,0,0,.713-2.5,3.767,3.767,0,0,0-.713-2.481,2.593,2.593,0,0,0-2.1-.847,2.549,2.549,0,0,0-2.075.836A3.8,3.8,0,0,0,624.705,6215.659Z" transform="translate(-575.128 -6141.705)" fill="#fff"/>
          <path id="Trazado_8486" data-name="Trazado 8486" d="M640.165,6217.612a2.1,2.1,0,0,1-.962,1.844,4.794,4.794,0,0,1-2.7.648,6.251,6.251,0,0,1-2.867-.539v-1.2a7.32,7.32,0,0,0,1.429.492,6.407,6.407,0,0,0,1.472.18,3.566,3.566,0,0,0,1.687-.324,1.059,1.059,0,0,0,.59-.989,1.048,1.048,0,0,0-.468-.855,7.6,7.6,0,0,0-1.826-.84,10.284,10.284,0,0,1-1.834-.777,2.428,2.428,0,0,1-.81-.754,1.854,1.854,0,0,1-.266-1.008,1.882,1.882,0,0,1,.92-1.652,4.539,4.539,0,0,1,2.521-.606,7.89,7.89,0,0,1,2.919.563l-.5,1.054a7.154,7.154,0,0,0-2.522-.531,3.1,3.1,0,0,0-1.5.289.885.885,0,0,0-.506.8.915.915,0,0,0,.19.586,1.856,1.856,0,0,0,.611.461,14.663,14.663,0,0,0,1.62.633,6.2,6.2,0,0,1,2.222,1.117A1.892,1.892,0,0,1,640.165,6217.612Z" transform="translate(-571.201 -6141.705)" fill="#fff"/>
          <path id="Trazado_8487" data-name="Trazado 8487" d="M642.324,6209.065a.824.824,0,0,1,.236-.652.926.926,0,0,1,1.172,0,.809.809,0,0,1,.245.648.824.824,0,0,1-.245.653.853.853,0,0,1-.582.214.78.78,0,0,1-.826-.867Zm1.518,10.883h-1.4v-8.563h1.4Z" transform="translate(-570.693 -6141.705)" fill="#fff"/>
          <path id="Trazado_8488" data-name="Trazado 8488" d="M650.505,6220.1a4.113,4.113,0,0,1-3.108-1.144,4.484,4.484,0,0,1-1.1-3.239,4.622,4.622,0,0,1,1.118-3.32,4.193,4.193,0,0,1,3.184-1.172,6.771,6.771,0,0,1,1.332.133,4.625,4.625,0,0,1,1.046.313l-.43,1.1a6.986,6.986,0,0,0-1.012-.285,4.891,4.891,0,0,0-.97-.113q-2.817,0-2.817,3.328a3.751,3.751,0,0,0,.687,2.422,2.476,2.476,0,0,0,2.037.843,6.633,6.633,0,0,0,2.37-.461v1.149A5.391,5.391,0,0,1,650.505,6220.1Z" transform="translate(-570.347 -6141.705)" fill="#fff"/>
          <path id="Trazado_8489" data-name="Trazado 8489" d="M654.916,6209.065a.824.824,0,0,1,.236-.652.927.927,0,0,1,1.173,0,.808.808,0,0,1,.244.648.824.824,0,0,1-.244.653.856.856,0,0,1-.582.214.78.78,0,0,1-.827-.867Zm1.518,10.883h-1.4v-8.563h1.4Z" transform="translate(-569.862 -6141.705)" fill="#fff"/>
          <path id="Trazado_8490" data-name="Trazado 8490" d="M667.382,6215.659a4.5,4.5,0,0,1-1.139,3.269,4.172,4.172,0,0,1-3.146,1.176,4.419,4.419,0,0,1-2.2-.539,3.658,3.658,0,0,1-1.484-1.547,5.049,5.049,0,0,1-.523-2.359,4.5,4.5,0,0,1,1.13-3.262,4.164,4.164,0,0,1,3.137-1.168,4.064,4.064,0,0,1,3.083,1.2A4.485,4.485,0,0,1,667.382,6215.659Zm-7.043,0a3.847,3.847,0,0,0,.709,2.5,2.966,2.966,0,0,0,4.171,0,3.827,3.827,0,0,0,.712-2.5,3.767,3.767,0,0,0-.712-2.481,2.6,2.6,0,0,0-2.1-.847,2.551,2.551,0,0,0-2.075.836A3.807,3.807,0,0,0,660.339,6215.659Zm1.62-5.6q.405-.485.873-1.172a13.125,13.125,0,0,0,.738-1.195h1.7v.164a11.641,11.641,0,0,1-1.1,1.25,12.137,12.137,0,0,1-1.273,1.149h-.936Z" transform="translate(-569.465 -6141.705)" fill="#fff"/>
          <path id="Trazado_8491" data-name="Trazado 8491" d="M676.162,6219.948v-5.539a2.132,2.132,0,0,0-.514-1.563,2.2,2.2,0,0,0-1.611-.515,2.777,2.777,0,0,0-2.126.726,3.474,3.474,0,0,0-.675,2.4v4.492h-1.4v-8.563h1.139l.228,1.172h.067a2.794,2.794,0,0,1,1.206-.98,4.18,4.18,0,0,1,1.729-.348,3.7,3.7,0,0,1,2.514.746,3.035,3.035,0,0,1,.843,2.387v5.586Z" transform="translate(-568.742 -6141.705)" fill="#fff"/>
          <path id="Trazado_8492" data-name="Trazado 8492" d="M681.906,6218.089l.126.179a18.589,18.589,0,0,1-.632,1.817q-.414,1.033-.86,1.925h-1.055q.228-.813.5-2.007t.384-1.914Z" transform="translate(-568.219 -6141.705)" fill="#fff"/>
          <path id="Trazado_8493" data-name="Trazado 8493" d="M694.844,6219.948l-.278-1.219H694.5a3.836,3.836,0,0,1-1.379,1.09,4.5,4.5,0,0,1-1.716.285,3.251,3.251,0,0,1-2.155-.656,2.306,2.306,0,0,1-.78-1.867q0-2.595,4.478-2.719l1.569-.047v-.531a2.062,2.062,0,0,0-.468-1.488,2.014,2.014,0,0,0-1.5-.481,6.492,6.492,0,0,0-2.615.656l-.43-.992a6.914,6.914,0,0,1,1.5-.539,6.993,6.993,0,0,1,1.632-.195,3.709,3.709,0,0,1,2.45.68,2.712,2.712,0,0,1,.8,2.179v5.844Zm-3.163-.914a2.985,2.985,0,0,0,2.054-.664,2.363,2.363,0,0,0,.746-1.86v-.773l-1.4.055a5.422,5.422,0,0,0-2.408.48,1.424,1.424,0,0,0-.738,1.324,1.289,1.289,0,0,0,.46,1.071A2.008,2.008,0,0,0,691.681,6219.034Z" transform="translate(-567.494 -6141.705)" fill="#fff"/>
          <path id="Trazado_8494" data-name="Trazado 8494" d="M703.067,6220.1a4.283,4.283,0,0,1-1.648-.308,3.068,3.068,0,0,1-1.253-.95h-.1a10.723,10.723,0,0,1,.1,1.422v3.524h-1.4v-12.407h1.139l.194,1.172h.067a3.194,3.194,0,0,1,1.257-1.015,4.085,4.085,0,0,1,1.644-.313,3.54,3.54,0,0,1,2.839,1.164,5.815,5.815,0,0,1-.017,6.543A3.543,3.543,0,0,1,703.067,6220.1Zm-.2-7.773a2.584,2.584,0,0,0-2.049.726,3.535,3.535,0,0,0-.65,2.313v.289a4.044,4.044,0,0,0,.65,2.582,2.564,2.564,0,0,0,2.083.777,2.223,2.223,0,0,0,1.876-.9,4.023,4.023,0,0,0,.679-2.477,3.875,3.875,0,0,0-.679-2.457A2.3,2.3,0,0,0,702.865,6212.331Z" transform="translate(-566.779 -6141.705)" fill="#fff"/>
          <path id="Trazado_8495" data-name="Trazado 8495" d="M715.036,6219.948l-.278-1.219h-.068a3.836,3.836,0,0,1-1.379,1.09,4.5,4.5,0,0,1-1.716.285,3.251,3.251,0,0,1-2.155-.656,2.307,2.307,0,0,1-.781-1.867q0-2.595,4.479-2.719l1.569-.047v-.531a2.062,2.062,0,0,0-.468-1.488,2.014,2.014,0,0,0-1.5-.481,6.492,6.492,0,0,0-2.615.656l-.43-.992a6.875,6.875,0,0,1,1.5-.539,6.994,6.994,0,0,1,1.632-.195,3.709,3.709,0,0,1,2.45.68,2.713,2.713,0,0,1,.8,2.179v5.844Zm-3.163-.914a2.987,2.987,0,0,0,2.054-.664,2.363,2.363,0,0,0,.746-1.86v-.773l-1.4.055a5.422,5.422,0,0,0-2.408.48,1.424,1.424,0,0,0-.738,1.324,1.289,1.289,0,0,0,.46,1.071A2.008,2.008,0,0,0,711.873,6219.034Z" transform="translate(-566.134 -6141.705)" fill="#fff"/>
          <path id="Trazado_8496" data-name="Trazado 8496" d="M723.175,6211.229a5.822,5.822,0,0,1,1.105.094l-.194,1.2a5.171,5.171,0,0,0-1.012-.117,2.543,2.543,0,0,0-1.919.844,2.941,2.941,0,0,0-.8,2.1v4.594h-1.4v-8.563h1.155l.161,1.586h.067a3.874,3.874,0,0,1,1.24-1.289A2.956,2.956,0,0,1,723.175,6211.229Z" transform="translate(-565.513 -6141.705)" fill="#fff"/>
          <path id="Trazado_8497" data-name="Trazado 8497" d="M725.891,6209.065a.82.82,0,0,1,.236-.652.926.926,0,0,1,1.172,0,.809.809,0,0,1,.245.648.824.824,0,0,1-.245.653.853.853,0,0,1-.582.214.78.78,0,0,1-.826-.867Zm1.518,10.883h-1.4v-8.563h1.4Z" transform="translate(-565.179 -6141.705)" fill="#fff"/>
          <path id="Trazado_8498" data-name="Trazado 8498" d="M734.283,6220.1a4.439,4.439,0,0,1-3.235-1.156,4.281,4.281,0,0,1-1.185-3.211,4.72,4.72,0,0,1,1.1-3.289,3.784,3.784,0,0,1,2.956-1.219,3.625,3.625,0,0,1,2.75,1.059,3.877,3.877,0,0,1,1.012,2.793v.82h-6.368a3.239,3.239,0,0,0,.822,2.289,2.968,2.968,0,0,0,2.2.781,7.942,7.942,0,0,0,2.952-.578v1.157a7.814,7.814,0,0,1-1.4.425A8.5,8.5,0,0,1,734.283,6220.1Zm-.38-7.789a2.379,2.379,0,0,0-1.775.672,2.968,2.968,0,0,0-.78,1.859h4.832a2.7,2.7,0,0,0-.59-1.878A2.161,2.161,0,0,0,733.9,6212.315Z" transform="translate(-564.691 -6141.705)" fill="#fff"/>
          <path id="Trazado_8499" data-name="Trazado 8499" d="M746.394,6219.948v-5.539a2.128,2.128,0,0,0-.514-1.563,2.2,2.2,0,0,0-1.611-.515,2.775,2.775,0,0,0-2.125.726,3.474,3.474,0,0,0-.675,2.4v4.492h-1.4v-8.563h1.138l.228,1.172h.068a2.783,2.783,0,0,1,1.206-.98,4.177,4.177,0,0,1,1.729-.348,3.694,3.694,0,0,1,2.513.746,3.035,3.035,0,0,1,.844,2.387v5.586Z" transform="translate(-564.007 -6141.705)" fill="#fff"/>
          <path id="Trazado_8500" data-name="Trazado 8500" d="M754.365,6220.1a4.113,4.113,0,0,1-3.108-1.144,4.484,4.484,0,0,1-1.1-3.239,4.622,4.622,0,0,1,1.118-3.32,4.193,4.193,0,0,1,3.184-1.172,6.771,6.771,0,0,1,1.332.133,4.641,4.641,0,0,1,1.046.313l-.43,1.1a6.986,6.986,0,0,0-1.012-.285,4.891,4.891,0,0,0-.97-.113q-2.817,0-2.817,3.328a3.751,3.751,0,0,0,.687,2.422,2.475,2.475,0,0,0,2.037.843,6.637,6.637,0,0,0,2.37-.461v1.149A5.39,5.39,0,0,1,754.365,6220.1Z" transform="translate(-563.37 -6141.705)" fill="#fff"/>
          <path id="Trazado_8501" data-name="Trazado 8501" d="M758.776,6209.065a.824.824,0,0,1,.236-.652.927.927,0,0,1,1.173,0,.812.812,0,0,1,.244.648.827.827,0,0,1-.244.653.857.857,0,0,1-.583.214.78.78,0,0,1-.826-.867Zm1.518,10.883h-1.4v-8.563h1.4Z" transform="translate(-563.008 -6141.705)" fill="#fff"/>
          <path id="Trazado_8502" data-name="Trazado 8502" d="M768.948,6219.948l-.279-1.219H768.6a3.836,3.836,0,0,1-1.379,1.09,4.509,4.509,0,0,1-1.717.285,3.25,3.25,0,0,1-2.154-.656,2.3,2.3,0,0,1-.781-1.867q0-2.595,4.479-2.719l1.569-.047v-.531a2.062,2.062,0,0,0-.468-1.488,2.016,2.016,0,0,0-1.5-.481,6.492,6.492,0,0,0-2.615.656l-.43-.992a6.876,6.876,0,0,1,1.5-.539,6.98,6.98,0,0,1,1.632-.195,3.709,3.709,0,0,1,2.45.68,2.716,2.716,0,0,1,.8,2.179v5.844Zm-3.163-.914a2.987,2.987,0,0,0,2.054-.664,2.363,2.363,0,0,0,.746-1.86v-.773l-1.4.055a5.422,5.422,0,0,0-2.408.48,1.424,1.424,0,0,0-.738,1.324,1.289,1.289,0,0,0,.46,1.071A2.008,2.008,0,0,0,765.785,6219.034Z" transform="translate(-562.503 -6141.705)" fill="#fff"/>
          <path id="Trazado_8503" data-name="Trazado 8503" d="M774.337,6218.089l.127.179a18.608,18.608,0,0,1-.633,1.817q-.412,1.033-.86,1.925h-1.054q.227-.813.5-2.007t.384-1.914Z" transform="translate(-562.1 -6141.705)" fill="#fff"/>
          <path id="Trazado_8504" data-name="Trazado 8504" d="M793.373,6219.948v-5.57a2.191,2.191,0,0,0-.472-1.535,1.907,1.907,0,0,0-1.467-.512,2.468,2.468,0,0,0-1.932.695,3.133,3.133,0,0,0-.624,2.141v4.781h-1.4v-5.57a2.2,2.2,0,0,0-.472-1.535,1.921,1.921,0,0,0-1.477-.512,2.375,2.375,0,0,0-1.927.73,3.737,3.737,0,0,0-.611,2.4v4.492h-1.4v-8.563h1.138l.228,1.172h.067a2.674,2.674,0,0,1,1.118-.976,3.631,3.631,0,0,1,1.615-.352,2.788,2.788,0,0,1,2.834,1.453h.068a2.855,2.855,0,0,1,1.2-1.062,3.948,3.948,0,0,1,1.788-.391,3.284,3.284,0,0,1,2.349.746,3.178,3.178,0,0,1,.781,2.387v5.586Z" transform="translate(-560.93 -6141.705)" fill="#fff"/>
          <path id="Trazado_8505" data-name="Trazado 8505" d="M805.637,6215.659a4.5,4.5,0,0,1-1.139,3.269,4.172,4.172,0,0,1-3.146,1.176,4.419,4.419,0,0,1-2.2-.539,3.666,3.666,0,0,1-1.485-1.547,5.061,5.061,0,0,1-.522-2.359,4.5,4.5,0,0,1,1.13-3.262,4.164,4.164,0,0,1,3.137-1.168,4.066,4.066,0,0,1,3.083,1.2A4.485,4.485,0,0,1,805.637,6215.659Zm-7.043,0a3.841,3.841,0,0,0,.709,2.5,2.965,2.965,0,0,0,4.17,0,3.821,3.821,0,0,0,.713-2.5,3.762,3.762,0,0,0-.713-2.481,2.592,2.592,0,0,0-2.1-.847,2.55,2.55,0,0,0-2.075.836A3.8,3.8,0,0,0,798.594,6215.659Z" transform="translate(-560.117 -6141.705)" fill="#fff"/>
          <path id="Trazado_8506" data-name="Trazado 8506" d="M810.115,6219.948l-3.508-8.563h1.5l1.991,5.079a22.687,22.687,0,0,1,.792,2.312h.068a16.563,16.563,0,0,1,.586-1.715q.494-1.3,2.214-5.676h1.5l-3.508,8.563Z" transform="translate(-556.271 -6141.705)" fill="#fff"/>
          <path id="Trazado_8507" data-name="Trazado 8507" d="M816.627,6209.065a.821.821,0,0,1,.236-.652.926.926,0,0,1,1.172,0,.809.809,0,0,1,.245.648.824.824,0,0,1-.245.653.853.853,0,0,1-.582.214.78.78,0,0,1-.826-.867Zm1.518,10.883h-1.4v-8.563h1.4Z" transform="translate(-556.271 -6141.705)" fill="#fff"/>
          <path id="Trazado_8508" data-name="Trazado 8508" d="M822.514,6219.948h-1.4v-12.156h1.4Z" transform="translate(-556.271 -6141.705)" fill="#fff"/>
          <path id="Trazado_8509" data-name="Trazado 8509" d="M825.365,6209.065a.82.82,0,0,1,.236-.652.926.926,0,0,1,1.172,0,.809.809,0,0,1,.245.648.824.824,0,0,1-.245.653.853.853,0,0,1-.582.214.78.78,0,0,1-.826-.867Zm1.518,10.883h-1.4v-8.563h1.4Z" transform="translate(-556.271 -6141.705)" fill="#fff"/>
          <path id="Trazado_8510" data-name="Trazado 8510" d="M836.144,6218.8h-.076a3.384,3.384,0,0,1-2.9,1.3,3.556,3.556,0,0,1-2.821-1.148,4.8,4.8,0,0,1-1.008-3.266,4.88,4.88,0,0,1,1.012-3.289,3.526,3.526,0,0,1,2.817-1.172,3.465,3.465,0,0,1,2.885,1.266h.109l-.059-.617-.033-.6v-3.484h1.4v12.156h-1.139Zm-2.8.218a2.662,2.662,0,0,0,2.079-.722,3.449,3.449,0,0,0,.646-2.332v-.274a4.049,4.049,0,0,0-.654-2.6,2.581,2.581,0,0,0-2.088-.778,2.2,2.2,0,0,0-1.885.887,4.163,4.163,0,0,0-.653,2.5,3.986,3.986,0,0,0,.649,2.476A2.264,2.264,0,0,0,833.343,6219.018Z" transform="translate(-556.271 -6141.705)" fill="#fff"/>
          <path id="Trazado_8511" data-name="Trazado 8511" d="M846.121,6219.948l-.278-1.219h-.067a3.845,3.845,0,0,1-1.379,1.09,4.508,4.508,0,0,1-1.717.285,3.253,3.253,0,0,1-2.155-.656,2.306,2.306,0,0,1-.78-1.867q0-2.595,4.479-2.719l1.568-.047v-.531a2.062,2.062,0,0,0-.468-1.488,2.014,2.014,0,0,0-1.5-.481,6.488,6.488,0,0,0-2.614.656l-.431-.992a6.914,6.914,0,0,1,1.5-.539,7,7,0,0,1,1.633-.195,3.711,3.711,0,0,1,2.45.68,2.716,2.716,0,0,1,.8,2.179v5.844Zm-3.162-.914a2.983,2.983,0,0,0,2.053-.664,2.361,2.361,0,0,0,.747-1.86v-.773l-1.4.055a5.419,5.419,0,0,0-2.408.48,1.424,1.424,0,0,0-.738,1.324,1.291,1.291,0,0,0,.459,1.071A2.011,2.011,0,0,0,842.959,6219.034Z" transform="translate(-556.271 -6141.705)" fill="#fff"/>
          <path id="Trazado_8512" data-name="Trazado 8512" d="M856.335,6218.8h-.076a3.381,3.381,0,0,1-2.9,1.3,3.556,3.556,0,0,1-2.821-1.148,4.8,4.8,0,0,1-1.008-3.266,4.875,4.875,0,0,1,1.012-3.289,3.526,3.526,0,0,1,2.817-1.172,3.466,3.466,0,0,1,2.885,1.266h.109l-.059-.617-.034-.6v-3.484h1.4v12.156h-1.138Zm-2.8.218a2.662,2.662,0,0,0,2.079-.722,3.455,3.455,0,0,0,.645-2.332v-.274a4.055,4.055,0,0,0-.653-2.6,2.581,2.581,0,0,0-2.088-.778,2.2,2.2,0,0,0-1.885.887,4.156,4.156,0,0,0-.653,2.5,3.986,3.986,0,0,0,.649,2.476A2.264,2.264,0,0,0,853.535,6219.018Z" transform="translate(-556.271 -6141.705)" fill="#fff"/>
        </g>
      </g>
      <g id="Grupo_11232" data-name="Grupo 11232" transform="translate(141.173)">
        <path id="Trazado_8513" data-name="Trazado 8513" d="M734.011,6013.5,662,6073.617l-.038-.009a54.388,54.388,0,1,0,72.047-60.1Zm0,0" transform="translate(-661.233 -6010.311)" fill="#85d249"/>
        <path id="Trazado_8514" data-name="Trazado 8514" d="M734.2,6036.265v-4.658l-4.658,4.658Zm0,0" transform="translate(-661.233 -6010.311)" fill="#ff87ba"/>
        <path id="Trazado_8515" data-name="Trazado 8515" d="M696.188,6069.618l-4.223,4.223h4.223Zm0,0" transform="translate(-661.233 -6010.311)" fill="#f962aa"/>
        <path id="Trazado_8516" data-name="Trazado 8516" d="M715.618,6010.311a55.052,55.052,0,0,0-6.747.417l-47.221,47.221a54.753,54.753,0,0,0,.352,15.89l.057,0h9.013l25.116-25.115v-9.132a3.332,3.332,0,0,1,3.329-3.329h9.132l23.419-23.418a54.35,54.35,0,0,0-16.45-2.536Zm0,0" transform="translate(-661.233 -6010.311)" fill="#ff87ba"/>
        <path id="Trazado_8517" data-name="Trazado 8517" d="M661.233,6064.7a54.777,54.777,0,0,0,.769,9.143l.057,0h9.013l25.116-25.115v-9.133a3.313,3.313,0,0,1,.989-2.363l-4.025-4c-3.392,0-2.93-3.409-2.93-3.409-.149,0-.3,0-.439-.007l-28.133,28.134a54.641,54.641,0,0,0-.417,6.747Zm0,0" transform="translate(-661.233 -6010.311)" fill="#f962aa"/>
        <path id="Trazado_8518" data-name="Trazado 8518" d="M708.2,6036.265h21.784l4.211-4.211v-18.485q-1.221-.442-2.469-.831Zm0,0" transform="translate(-661.233 -6010.311)" fill="#f962aa"/>
        <path id="Trazado_8519" data-name="Trazado 8519" d="M696.188,6048.28l-25.562,25.561h21.785l3.777-3.777Zm0,0" transform="translate(-661.233 -6010.311)" fill="#ed56a5"/>
        <path id="Trazado_8520" data-name="Trazado 8520" d="M661.592,6058.453l47.783-47.782a54.4,54.4,0,0,0-47.783,47.782Zm0,0" transform="translate(-661.233 -6010.311)" fill="#f962aa"/>
        <path id="Trazado_8521" data-name="Trazado 8521" d="M682.354,6021.675a54.315,54.315,0,0,0-20.762,36.778l28.63-28.631c-8.777,0-7.873-8.1-7.868-8.147Zm0,0" transform="translate(-661.233 -6010.311)" fill="#ed56a5"/>
        <path id="Trazado_8522" data-name="Trazado 8522" d="M773.142,6114.964a1.737,1.737,0,0,1-1.233-.511l-2.554-2.553a1.745,1.745,0,0,1,2.468-2.467l2.552,2.553a1.744,1.744,0,0,1-1.233,2.978Zm0,0" transform="translate(-661.233 -6010.311)" fill="#ffd764"/>
        <path id="Trazado_8523" data-name="Trazado 8523" d="M696.94,6038.761a1.742,1.742,0,0,1-1.234-.51l-2.553-2.554a1.744,1.744,0,0,1,2.466-2.466l2.554,2.552a1.744,1.744,0,0,1-1.233,2.978Zm0,0" transform="translate(-661.233 -6010.311)" fill="#ffd764"/>
        <path id="Trazado_8524" data-name="Trazado 8524" d="M694.386,6114.964a1.744,1.744,0,0,1-1.233-2.978l2.553-2.553a1.744,1.744,0,0,1,2.467,2.466l-2.554,2.554a1.735,1.735,0,0,1-1.233.511Zm0,0" transform="translate(-661.233 -6010.311)" fill="#ffd764"/>
        <path id="Trazado_8525" data-name="Trazado 8525" d="M770.589,6038.761a1.744,1.744,0,0,1-1.234-2.978l2.554-2.552a1.744,1.744,0,0,1,2.466,2.466l-2.552,2.554a1.744,1.744,0,0,1-1.234.51Zm0,0" transform="translate(-661.233 -6010.311)" fill="#ffd764"/>
        <path id="Trazado_8526" data-name="Trazado 8526" d="M771.656,6084.417v-16.6l-5.585-4.164a1.59,1.59,0,0,0-1.894,0l-5.326,3.971a1.173,1.173,0,0,1-1.391,0l-5.326-3.971a1.59,1.59,0,0,0-1.894,0l-5.325,3.971a1.173,1.173,0,0,1-1.391,0l-5.325-3.971a1.59,1.59,0,0,0-1.894,0l-5.326,3.971a1.173,1.173,0,0,1-1.391,0l-5.327-3.971a1.589,1.589,0,0,0-1.893,0l-5.326,3.971a1.176,1.176,0,0,1-1.393,0l-5.326-3.971a1.59,1.59,0,0,0-1.894,0l-5.327,3.971a1.173,1.173,0,0,1-1.391,0l-5.837-4.353v16.606l5.586,4.164a1.6,1.6,0,0,0,1.894,0l5.327-3.971a1.171,1.171,0,0,1,1.391,0l5.327,3.971a1.6,1.6,0,0,0,1.893,0l5.327-3.971a1.171,1.171,0,0,1,1.391,0l5.327,3.971a1.6,1.6,0,0,0,1.894,0l5.325-3.971a1.171,1.171,0,0,1,1.391,0l5.326,3.971a1.6,1.6,0,0,0,1.894,0l5.325-3.971a1.171,1.171,0,0,1,1.391,0l5.326,3.971a1.6,1.6,0,0,0,1.894,0l5.325-3.971a1.173,1.173,0,0,1,1.392,0Zm0,0" transform="translate(-661.233 -6010.311)" fill="#fceca9"/>
        <path id="Trazado_8527" data-name="Trazado 8527" d="M719.726,6079.946c-3.808-5.017-1.458-10.785-.081-13.3a2.358,2.358,0,0,0,.283-1.176l-2.888,2.153a1.173,1.173,0,0,1-1.391,0l-5.326-3.971a1.59,1.59,0,0,0-1.894,0l-5.327,3.971a1.173,1.173,0,0,1-1.391,0l-5.839-4.353v16.606l5.587,4.164a1.6,1.6,0,0,0,1.894,0l5.327-3.971a1.171,1.171,0,0,1,1.391,0l5.328,3.971a1.6,1.6,0,0,0,1.893,0l2.806-2.093a2.284,2.284,0,0,0-.372-2Zm0,0" transform="translate(-661.233 -6010.311)" fill="#ffd764"/>
        <path id="Trazado_8528" data-name="Trazado 8528" d="M771.656,6108.089v-8.118l-5.585-4.164a1.6,1.6,0,0,0-1.894,0l-5.326,3.971a1.171,1.171,0,0,1-1.391,0l-5.326-3.971a1.6,1.6,0,0,0-1.894,0l-5.325,3.97a1.171,1.171,0,0,1-1.391,0l-5.325-3.971a1.6,1.6,0,0,0-1.894,0l-5.326,3.971a1.171,1.171,0,0,1-1.391,0l-5.327-3.971a1.6,1.6,0,0,0-1.893,0l-5.328,3.971a1.171,1.171,0,0,1-1.391,0l-5.326-3.971a1.6,1.6,0,0,0-1.894,0l-5.327,3.971a1.171,1.171,0,0,1-1.391,0l-5.839-4.352v12.663a3.646,3.646,0,0,0,3.645,3.645h68.495a3.644,3.644,0,0,0,3.644-3.645Zm0,0" transform="translate(-661.233 -6010.311)" fill="#ffb442"/>
        <path id="Trazado_8529" data-name="Trazado 8529" d="M720.665,6110.38a10.494,10.494,0,0,1-1.038-11.626,2.334,2.334,0,0,0,.259-1.1l-2.846,2.121a1.171,1.171,0,0,1-1.391,0l-5.326-3.971a1.6,1.6,0,0,0-1.894,0l-5.327,3.971a1.171,1.171,0,0,1-1.391,0l-5.839-4.352v12.663a3.645,3.645,0,0,0,3.645,3.644h21.612a2.278,2.278,0,0,0-.464-1.353Zm0,0" transform="translate(-661.233 -6010.311)" fill="#ffa222"/>
        <path id="Trazado_8530" data-name="Trazado 8530" d="M701.459,6051.876a1.593,1.593,0,0,0,1.894,0l5.327-3.971a1.17,1.17,0,0,1,1.391,0l5.326,3.971a1.593,1.593,0,0,0,1.894,0l5.328-3.971a1.17,1.17,0,0,1,1.391,0l5.326,3.971a1.593,1.593,0,0,0,1.894,0l5.326-3.971a1.17,1.17,0,0,1,1.391,0l5.325,3.971a1.593,1.593,0,0,0,1.894,0l5.325-3.971a1.17,1.17,0,0,1,1.391,0l5.326,3.971a1.593,1.593,0,0,0,1.894,0l5.326-3.971a1.17,1.17,0,0,1,1.391,0l5.836,4.352v-12.664a3.643,3.643,0,0,0-3.643-3.643H699.517a3.644,3.644,0,0,0-3.645,3.643v8.118Zm0,0" transform="translate(-661.233 -6010.311)" fill="#63dfff"/>
        <path id="Trazado_8531" data-name="Trazado 8531" d="M695.872,6039.594v8.117l5.587,4.165a1.593,1.593,0,0,0,1.894,0l5.327-3.971a1.17,1.17,0,0,1,1.391,0l5.328,3.971a1.592,1.592,0,0,0,1.893,0l1.978-1.474a2.338,2.338,0,0,0-.673-2.11c-4.678-4.553-3.022-8.99-1.756-11.088a2.285,2.285,0,0,0,.326-1.254h-17.65a3.644,3.644,0,0,0-3.645,3.644Zm0,0" transform="translate(-661.233 -6010.311)" fill="#01c8f0"/>
        <path id="Trazado_8532" data-name="Trazado 8532" d="M771.656,6068.074V6052l-5.711-4.259a1.375,1.375,0,0,0-1.642,0l-5.326,3.971a1.376,1.376,0,0,1-1.643,0l-5.325-3.971a1.376,1.376,0,0,0-1.643,0l-5.325,3.971a1.376,1.376,0,0,1-1.643,0l-5.325-3.971a1.375,1.375,0,0,0-1.642,0l-5.326,3.971a1.376,1.376,0,0,1-1.643,0l-5.327-3.971a1.375,1.375,0,0,0-1.642,0l-5.327,3.972a1.373,1.373,0,0,1-1.641,0l-5.327-3.972a1.376,1.376,0,0,0-1.643,0l-5.327,3.972a1.375,1.375,0,0,1-1.642,0l-5.712-4.259v16.08l5.712,4.259a1.375,1.375,0,0,0,1.642,0l5.327-3.972a1.376,1.376,0,0,1,1.643,0l5.327,3.972a1.373,1.373,0,0,0,1.641,0l5.327-3.972a1.375,1.375,0,0,1,1.642,0l5.327,3.972a1.376,1.376,0,0,0,1.643,0l5.326-3.972a1.375,1.375,0,0,1,1.642,0l5.325,3.972a1.376,1.376,0,0,0,1.643,0l5.325-3.972a1.376,1.376,0,0,1,1.643,0l5.325,3.972a1.376,1.376,0,0,0,1.643,0l5.326-3.972a1.375,1.375,0,0,1,1.642,0Zm0,0" transform="translate(-661.233 -6010.311)" fill="#01c8f0"/>
        <path id="Trazado_8533" data-name="Trazado 8533" d="M719.307,6050.11l-2.141,1.6a1.376,1.376,0,0,1-1.643,0l-5.326-3.971a1.375,1.375,0,0,0-1.642,0l-5.327,3.972a1.376,1.376,0,0,1-1.643,0l-5.713-4.259v16.08l5.713,4.259a1.376,1.376,0,0,0,1.643,0l5.327-3.972a1.375,1.375,0,0,1,1.642,0l5.326,3.972a1.376,1.376,0,0,0,1.643,0l2.755-2.055a2.3,2.3,0,0,0-.423-1.562c-4.126-5.688-2.127-10.538-.564-12.93a2.312,2.312,0,0,0,.373-1.131Zm0,0" transform="translate(-661.233 -6010.311)" fill="#03b2ef"/>
        <path id="Trazado_8534" data-name="Trazado 8534" d="M771.656,6100.234v-16.08l-5.711-4.258a1.375,1.375,0,0,0-1.642,0l-5.326,3.971a1.376,1.376,0,0,1-1.643,0l-5.325-3.971a1.376,1.376,0,0,0-1.643,0l-5.325,3.971a1.376,1.376,0,0,1-1.643,0l-5.325-3.971a1.375,1.375,0,0,0-1.642,0l-5.326,3.971a1.376,1.376,0,0,1-1.643,0l-5.327-3.971a1.375,1.375,0,0,0-1.642,0l-5.327,3.971a1.373,1.373,0,0,1-1.641,0L710.2,6079.9a1.376,1.376,0,0,0-1.643,0l-5.327,3.971a1.375,1.375,0,0,1-1.642,0l-5.712-4.258v16.08l5.712,4.258a1.373,1.373,0,0,0,1.642,0l5.327-3.971a1.375,1.375,0,0,1,1.643,0l5.327,3.971a1.372,1.372,0,0,0,1.641,0l5.327-3.971a1.373,1.373,0,0,1,1.642,0l5.327,3.971a1.375,1.375,0,0,0,1.643,0l5.326-3.971a1.373,1.373,0,0,1,1.642,0l5.325,3.971a1.375,1.375,0,0,0,1.643,0l5.325-3.971a1.375,1.375,0,0,1,1.643,0l5.325,3.971a1.375,1.375,0,0,0,1.643,0l5.326-3.971a1.373,1.373,0,0,1,1.642,0Zm0,0" transform="translate(-661.233 -6010.311)" fill="#ffd764"/>
        <path id="Trazado_8535" data-name="Trazado 8535" d="M720.161,6081.635l-2.995,2.232a1.376,1.376,0,0,1-1.643,0L710.2,6079.9a1.375,1.375,0,0,0-1.642,0l-5.327,3.971a1.376,1.376,0,0,1-1.643,0l-5.713-4.259v16.08l5.713,4.259a1.375,1.375,0,0,0,1.643,0l5.327-3.971a1.373,1.373,0,0,1,1.642,0l5.326,3.971a1.375,1.375,0,0,0,1.643,0l2.707-2.019a2.3,2.3,0,0,0-.347-1.489c-3.7-5.763-1.214-11.384.318-13.9a2.364,2.364,0,0,0,.317-.9Zm0,0" transform="translate(-661.233 -6010.311)" fill="#ffb442"/>
      </g>
    </g>
    <path id="Trazado_8681" data-name="Trazado 8681" d="M722.918,6274.795H721.2V6257.6a2.645,2.645,0,0,0-2.645-2.645h-.99a2.646,2.646,0,0,0-2.646,2.645v17.193H713.2a2.161,2.161,0,0,0-1.933,3.127l4.858,9.716a2.16,2.16,0,0,0,3.865,0l4.859-9.716A2.161,2.161,0,0,0,722.918,6274.795Z" transform="translate(75.94 177.805)" fill="#8fccd2"/>
  </g>
</svg>
