<svg xmlns="http://www.w3.org/2000/svg" width="396" height="233.209" viewBox="0 0 396 233.209">
  <g id="Grupo_11237" data-name="Grupo 11237" transform="translate(0)">
    <rect id="Rectángulo_4306" data-name="Rectángulo 4306" width="396" height="143.571" rx="9.462" transform="translate(0 89.638)" fill="#bf3976"/>
    <g id="Grupo_11235" data-name="Grupo 11235" transform="translate(27.941 136.984)">
      <g id="Grupo_11234" data-name="Grupo 11234">
        <path id="Trazado_8536" data-name="Trazado 8536" d="M564.235,6453.937h-.076a3.383,3.383,0,0,1-2.9,1.305,3.556,3.556,0,0,1-2.822-1.149,4.8,4.8,0,0,1-1.007-3.265,4.874,4.874,0,0,1,1.012-3.289,3.525,3.525,0,0,1,2.817-1.172,3.464,3.464,0,0,1,2.884,1.266h.11l-.059-.618-.034-.6v-3.485h1.4v12.157h-1.138Zm-2.8.219a2.658,2.658,0,0,0,2.079-.723,3.452,3.452,0,0,0,.645-2.332v-.273a4.059,4.059,0,0,0-.653-2.6,2.582,2.582,0,0,0-2.088-.777,2.2,2.2,0,0,0-1.885.887,4.152,4.152,0,0,0-.654,2.5,3.989,3.989,0,0,0,.65,2.477A2.264,2.264,0,0,0,561.435,6454.156Z" transform="translate(-557.429 -6442.843)" fill="#fff"/>
        <path id="Trazado_8537" data-name="Trazado 8537" d="M572.433,6455.242a4.436,4.436,0,0,1-3.234-1.156,4.279,4.279,0,0,1-1.185-3.211,4.726,4.726,0,0,1,1.1-3.289,3.787,3.787,0,0,1,2.957-1.219,3.621,3.621,0,0,1,2.749,1.059,3.871,3.871,0,0,1,1.012,2.792v.821h-6.368a3.246,3.246,0,0,0,.823,2.289,2.971,2.971,0,0,0,2.2.781,7.94,7.94,0,0,0,2.952-.578v1.156a7.857,7.857,0,0,1-1.4.426A8.47,8.47,0,0,1,572.433,6455.242Zm-.379-7.789a2.38,2.38,0,0,0-1.776.672,2.978,2.978,0,0,0-.78,1.859h4.833a2.712,2.712,0,0,0-.59-1.879A2.162,2.162,0,0,0,572.054,6447.453Z" transform="translate(-557.429 -6442.843)" fill="#fff"/>
        <path id="Trazado_8538" data-name="Trazado 8538" d="M579.619,6455.086h-1.4v-12.157h1.4Z" transform="translate(-557.429 -6442.843)" fill="#fff"/>
        <path id="Trazado_8539" data-name="Trazado 8539" d="M590.98,6455.242a4.436,4.436,0,0,1-3.234-1.156,4.279,4.279,0,0,1-1.185-3.211,4.726,4.726,0,0,1,1.1-3.289,3.787,3.787,0,0,1,2.957-1.219,3.621,3.621,0,0,1,2.749,1.059,3.871,3.871,0,0,1,1.012,2.792v.821h-6.368a3.246,3.246,0,0,0,.823,2.289,2.971,2.971,0,0,0,2.2.781,7.94,7.94,0,0,0,2.952-.578v1.156a7.857,7.857,0,0,1-1.4.426A8.47,8.47,0,0,1,590.98,6455.242Zm-.379-7.789a2.38,2.38,0,0,0-1.776.672,2.978,2.978,0,0,0-.78,1.859h4.833a2.712,2.712,0,0,0-.59-1.879A2.162,2.162,0,0,0,590.6,6447.453Z" transform="translate(-557.429 -6442.843)" fill="#fff"/>
        <path id="Trazado_8540" data-name="Trazado 8540" d="M603.092,6455.086v-5.539a2.128,2.128,0,0,0-.515-1.563,2.2,2.2,0,0,0-1.61-.516,2.777,2.777,0,0,0-2.126.727,3.472,3.472,0,0,0-.675,2.4v4.493h-1.4v-8.563h1.139l.228,1.172h.067a2.8,2.8,0,0,1,1.206-.98,4.18,4.18,0,0,1,1.729-.348,3.7,3.7,0,0,1,2.514.746,3.035,3.035,0,0,1,.843,2.387v5.586Z" transform="translate(-557.429 -6442.843)" fill="#fff"/>
        <path id="Trazado_8541" data-name="Trazado 8541" d="M611.535,6447.531h-2.353v7.555h-1.4v-7.555h-1.653v-.586l1.653-.469V6446q0-3.157,2.978-3.157a6.541,6.541,0,0,1,1.72.274l-.362,1.039a4.991,4.991,0,0,0-1.384-.242,1.394,1.394,0,0,0-1.172.488,2.567,2.567,0,0,0-.379,1.566v.555h2.353Z" transform="translate(-557.429 -6442.843)" fill="#fff"/>
        <path id="Trazado_8542" data-name="Trazado 8542" d="M621.2,6450.8a4.5,4.5,0,0,1-1.138,3.269,4.175,4.175,0,0,1-3.146,1.176,4.431,4.431,0,0,1-2.2-.539,3.671,3.671,0,0,1-1.484-1.547,5.047,5.047,0,0,1-.523-2.359,4.5,4.5,0,0,1,1.13-3.262,4.166,4.166,0,0,1,3.138-1.168,4.065,4.065,0,0,1,3.083,1.195A4.49,4.49,0,0,1,621.2,6450.8Zm-7.042,0a3.848,3.848,0,0,0,.708,2.5,2.966,2.966,0,0,0,4.171,0,3.828,3.828,0,0,0,.713-2.5,3.768,3.768,0,0,0-.713-2.481,2.6,2.6,0,0,0-2.1-.848,2.554,2.554,0,0,0-2.075.836A3.8,3.8,0,0,0,614.158,6450.8Z" transform="translate(-557.429 -6442.843)" fill="#fff"/>
        <path id="Trazado_8543" data-name="Trazado 8543" d="M626.936,6455.242a3.491,3.491,0,0,1-2.792-1.164,4.824,4.824,0,0,1-1-3.25,4.884,4.884,0,0,1,1.012-3.281,3.512,3.512,0,0,1,2.817-1.18,3.462,3.462,0,0,1,2.919,1.328h.076l.2-1.172h1.1v12.406h-1.4v-3.664a8.082,8.082,0,0,1,.093-1.328h-.11A3.4,3.4,0,0,1,626.936,6455.242Zm.211-1.086a2.656,2.656,0,0,0,2.041-.695,3.57,3.57,0,0,0,.683-2.344v-.289a4.037,4.037,0,0,0-.658-2.586,2.561,2.561,0,0,0-2.083-.789,2.2,2.2,0,0,0-1.885.887,4.153,4.153,0,0,0-.654,2.5,4.017,4.017,0,0,0,.645,2.465A2.249,2.249,0,0,0,627.147,6454.156Z" transform="translate(-553.522 -6442.843)" fill="#fff"/>
        <path id="Trazado_8544" data-name="Trazado 8544" d="M635.556,6446.523v5.555a2.125,2.125,0,0,0,.514,1.562,2.2,2.2,0,0,0,1.611.516,2.744,2.744,0,0,0,2.121-.734,3.507,3.507,0,0,0,.671-2.4v-4.5h1.4v8.563h-1.156l-.2-1.149h-.076a2.739,2.739,0,0,1-1.193.969,4.284,4.284,0,0,1-1.742.336,3.715,3.715,0,0,1-2.526-.742,3.017,3.017,0,0,1-.839-2.375v-5.6Z" transform="translate(-552.874 -6442.843)" fill="#fff"/>
        <path id="Trazado_8545" data-name="Trazado 8545" d="M648.747,6455.242a4.438,4.438,0,0,1-3.235-1.156,4.279,4.279,0,0,1-1.185-3.211,4.722,4.722,0,0,1,1.1-3.289,3.785,3.785,0,0,1,2.956-1.219,3.623,3.623,0,0,1,2.75,1.059,3.871,3.871,0,0,1,1.012,2.792v.821h-6.368a3.241,3.241,0,0,0,.822,2.289,2.972,2.972,0,0,0,2.2.781,7.933,7.933,0,0,0,2.952-.578v1.156a7.81,7.81,0,0,1-1.4.426A8.452,8.452,0,0,1,648.747,6455.242Zm-.38-7.789a2.377,2.377,0,0,0-1.775.672,2.967,2.967,0,0,0-.78,1.859h4.833a2.707,2.707,0,0,0-.591-1.879A2.161,2.161,0,0,0,648.367,6447.453Z" transform="translate(-552.268 -6442.843)" fill="#fff"/>
        <path id="Trazado_8546" data-name="Trazado 8546" d="M662.3,6455.242a3.491,3.491,0,0,1-2.792-1.164,4.824,4.824,0,0,1-1-3.25,4.879,4.879,0,0,1,1.013-3.281,3.509,3.509,0,0,1,2.817-1.18,3.461,3.461,0,0,1,2.918,1.328h.076l.2-1.172h1.1v12.406h-1.4v-3.664a8.089,8.089,0,0,1,.093-1.328h-.11A3.4,3.4,0,0,1,662.3,6455.242Zm.211-1.086a2.656,2.656,0,0,0,2.041-.695,3.57,3.57,0,0,0,.683-2.344v-.289a4.036,4.036,0,0,0-.658-2.586,2.561,2.561,0,0,0-2.083-.789,2.2,2.2,0,0,0-1.885.887,4.153,4.153,0,0,0-.654,2.5,4.017,4.017,0,0,0,.645,2.465A2.249,2.249,0,0,0,662.512,6454.156Z" transform="translate(-551.42 -6442.843)" fill="#fff"/>
        <path id="Trazado_8547" data-name="Trazado 8547" d="M670.921,6446.523v5.555a2.125,2.125,0,0,0,.514,1.562,2.2,2.2,0,0,0,1.611.516,2.744,2.744,0,0,0,2.121-.734,3.507,3.507,0,0,0,.671-2.4v-4.5h1.4v8.563h-1.155l-.2-1.149H675.8a2.733,2.733,0,0,1-1.193.969,4.284,4.284,0,0,1-1.742.336,3.715,3.715,0,0,1-2.526-.742,3.017,3.017,0,0,1-.839-2.375v-5.6Z" transform="translate(-550.774 -6442.843)" fill="#fff"/>
        <path id="Trazado_8548" data-name="Trazado 8548" d="M684.112,6455.242a4.438,4.438,0,0,1-3.235-1.156,4.279,4.279,0,0,1-1.185-3.211,4.722,4.722,0,0,1,1.1-3.289,3.785,3.785,0,0,1,2.956-1.219,3.622,3.622,0,0,1,2.75,1.059,3.871,3.871,0,0,1,1.012,2.792v.821h-6.368a3.237,3.237,0,0,0,.823,2.289,2.971,2.971,0,0,0,2.2.781,7.94,7.94,0,0,0,2.952-.578v1.156a7.844,7.844,0,0,1-1.4.426A8.453,8.453,0,0,1,684.112,6455.242Zm-.38-7.789a2.377,2.377,0,0,0-1.775.672,2.978,2.978,0,0,0-.78,1.859h4.833a2.707,2.707,0,0,0-.591-1.879A2.161,2.161,0,0,0,683.732,6447.453Z" transform="translate(-550.167 -6442.843)" fill="#fff"/>
        <path id="Trazado_8549" data-name="Trazado 8549" d="M700.348,6452.75a2.091,2.091,0,0,1-.961,1.843,4.788,4.788,0,0,1-2.7.649,6.272,6.272,0,0,1-2.868-.539v-1.2a7.33,7.33,0,0,0,1.43.492,6.418,6.418,0,0,0,1.471.18,3.566,3.566,0,0,0,1.687-.325,1.071,1.071,0,0,0,.122-1.843,7.547,7.547,0,0,0-1.826-.84,10.266,10.266,0,0,1-1.834-.778,2.413,2.413,0,0,1-.81-.753,1.855,1.855,0,0,1-.265-1.008,1.883,1.883,0,0,1,.919-1.653,4.547,4.547,0,0,1,2.522-.6,7.883,7.883,0,0,1,2.918.562l-.5,1.055a7.147,7.147,0,0,0-2.521-.531,3.1,3.1,0,0,0-1.5.289.884.884,0,0,0-.506.8.924.924,0,0,0,.19.586,1.853,1.853,0,0,0,.612.461,14.382,14.382,0,0,0,1.619.632,6.216,6.216,0,0,1,2.222,1.118A1.892,1.892,0,0,1,700.348,6452.75Z" transform="translate(-549.362 -6442.843)" fill="#fff"/>
        <path id="Trazado_8550" data-name="Trazado 8550" d="M706.53,6455.242a4.436,4.436,0,0,1-3.234-1.156,4.279,4.279,0,0,1-1.185-3.211,4.726,4.726,0,0,1,1.1-3.289,3.787,3.787,0,0,1,2.957-1.219,3.619,3.619,0,0,1,2.749,1.059,3.871,3.871,0,0,1,1.012,2.792v.821h-6.368a3.246,3.246,0,0,0,.823,2.289,2.971,2.971,0,0,0,2.2.781,7.941,7.941,0,0,0,2.952-.578v1.156a7.859,7.859,0,0,1-1.4.426A8.471,8.471,0,0,1,706.53,6455.242Zm-.379-7.789a2.381,2.381,0,0,0-1.776.672,2.978,2.978,0,0,0-.78,1.859h4.833a2.712,2.712,0,0,0-.59-1.879A2.162,2.162,0,0,0,706.151,6447.453Z" transform="translate(-548.836 -6442.843)" fill="#fff"/>
        <path id="Trazado_8551" data-name="Trazado 8551" d="M718.2,6455.086h-1.4v-12.157h1.4Z" transform="translate(-548.151 -6442.843)" fill="#fff"/>
        <path id="Trazado_8552" data-name="Trazado 8552" d="M725.077,6455.242a4.436,4.436,0,0,1-3.234-1.156,4.279,4.279,0,0,1-1.185-3.211,4.722,4.722,0,0,1,1.1-3.289,3.784,3.784,0,0,1,2.956-1.219,3.619,3.619,0,0,1,2.749,1.059,3.872,3.872,0,0,1,1.013,2.792v.821h-6.368a3.241,3.241,0,0,0,.822,2.289,2.97,2.97,0,0,0,2.2.781,7.941,7.941,0,0,0,2.952-.578v1.156a7.859,7.859,0,0,1-1.4.426A8.464,8.464,0,0,1,725.077,6455.242Zm-.379-7.789a2.381,2.381,0,0,0-1.776.672,2.978,2.978,0,0,0-.78,1.859h4.833a2.712,2.712,0,0,0-.59-1.879A2.162,2.162,0,0,0,724.7,6447.453Z" transform="translate(-547.734 -6442.843)" fill="#fff"/>
        <path id="Trazado_8553" data-name="Trazado 8553" d="M737.375,6455.086l-3.509-8.563h1.5l1.991,5.078a22.765,22.765,0,0,1,.793,2.313h.067a16.427,16.427,0,0,1,.586-1.715q.493-1.3,2.214-5.676h1.5l-3.509,8.563Z" transform="translate(-546.922 -6442.843)" fill="#fff"/>
        <path id="Trazado_8554" data-name="Trazado 8554" d="M749.689,6455.086l-.279-1.219h-.067a3.853,3.853,0,0,1-1.379,1.09,4.518,4.518,0,0,1-1.716.285,3.248,3.248,0,0,1-2.155-.656,2.3,2.3,0,0,1-.781-1.868q0-2.594,4.479-2.718l1.569-.047v-.531a2.065,2.065,0,0,0-.468-1.489,2.016,2.016,0,0,0-1.5-.48,6.49,6.49,0,0,0-2.615.656l-.43-.992a6.826,6.826,0,0,1,1.5-.539,6.988,6.988,0,0,1,1.632-.2,3.712,3.712,0,0,1,2.45.679,2.715,2.715,0,0,1,.8,2.18v5.844Zm-3.163-.914a2.985,2.985,0,0,0,2.054-.664,2.362,2.362,0,0,0,.746-1.86v-.773l-1.4.054a5.427,5.427,0,0,0-2.408.481,1.422,1.422,0,0,0-.738,1.324,1.287,1.287,0,0,0,.46,1.07A2.005,2.005,0,0,0,746.526,6454.172Z" transform="translate(-546.403 -6442.843)" fill="#fff"/>
        <path id="Trazado_8555" data-name="Trazado 8555" d="M763.783,6455.086l-.279-1.219h-.067a3.853,3.853,0,0,1-1.379,1.09,4.527,4.527,0,0,1-1.717.285,3.25,3.25,0,0,1-2.155-.656,2.306,2.306,0,0,1-.78-1.868q0-2.594,4.479-2.718l1.569-.047v-.531a2.061,2.061,0,0,0-.469-1.489,2.016,2.016,0,0,0-1.5-.48,6.49,6.49,0,0,0-2.614.656l-.43-.992a6.826,6.826,0,0,1,1.5-.539,6.981,6.981,0,0,1,1.632-.2,3.712,3.712,0,0,1,2.45.679,2.718,2.718,0,0,1,.8,2.18v5.844Zm-3.163-.914a2.98,2.98,0,0,0,2.053-.664,2.359,2.359,0,0,0,.747-1.86v-.773l-1.4.054a5.423,5.423,0,0,0-2.408.481,1.422,1.422,0,0,0-.738,1.324,1.289,1.289,0,0,0,.459,1.07A2.01,2.01,0,0,0,760.62,6454.172Z" transform="translate(-545.567 -6442.843)" fill="#fff"/>
        <path id="Trazado_8556" data-name="Trazado 8556" d="M778.483,6453.937h-.075a3.385,3.385,0,0,1-2.9,1.305,3.554,3.554,0,0,1-2.821-1.149,4.792,4.792,0,0,1-1.008-3.265,4.874,4.874,0,0,1,1.012-3.289,3.524,3.524,0,0,1,2.817-1.172,3.466,3.466,0,0,1,2.885,1.266h.109l-.059-.618-.033-.6v-3.485h1.4v12.157h-1.139Zm-2.8.219a2.658,2.658,0,0,0,2.079-.723,3.447,3.447,0,0,0,.646-2.332v-.273a4.053,4.053,0,0,0-.654-2.6,2.582,2.582,0,0,0-2.088-.777,2.2,2.2,0,0,0-1.885.887,4.16,4.16,0,0,0-.653,2.5,3.99,3.99,0,0,0,.649,2.477A2.264,2.264,0,0,0,775.683,6454.156Z" transform="translate(-544.692 -6442.843)" fill="#fff"/>
        <path id="Trazado_8557" data-name="Trazado 8557" d="M788.461,6455.086l-.278-1.219h-.067a3.861,3.861,0,0,1-1.379,1.09,4.527,4.527,0,0,1-1.717.285,3.25,3.25,0,0,1-2.155-.656,2.306,2.306,0,0,1-.78-1.868q0-2.594,4.479-2.718l1.568-.047v-.531a2.065,2.065,0,0,0-.468-1.489,2.016,2.016,0,0,0-1.5-.48,6.486,6.486,0,0,0-2.614.656l-.431-.992a6.863,6.863,0,0,1,1.5-.539,7,7,0,0,1,1.633-.2,3.714,3.714,0,0,1,2.45.679,2.718,2.718,0,0,1,.8,2.18v5.844Zm-3.162-.914a2.98,2.98,0,0,0,2.053-.664,2.36,2.36,0,0,0,.747-1.86v-.773l-1.4.054a5.423,5.423,0,0,0-2.408.481,1.422,1.422,0,0,0-.738,1.324,1.289,1.289,0,0,0,.459,1.07A2.008,2.008,0,0,0,785.3,6454.172Z" transform="translate(-544.103 -6442.843)" fill="#fff"/>
        <path id="Trazado_8558" data-name="Trazado 8558" d="M796.6,6446.367a5.857,5.857,0,0,1,1.105.094l-.194,1.2a5.121,5.121,0,0,0-1.012-.117,2.548,2.548,0,0,0-1.919.843,2.944,2.944,0,0,0-.8,2.1v4.594h-1.4v-8.563h1.156l.16,1.586h.068a3.876,3.876,0,0,1,1.239-1.289A2.954,2.954,0,0,1,796.6,6446.367Z" transform="translate(-543.583 -6442.843)" fill="#fff"/>
        <path id="Trazado_8559" data-name="Trazado 8559" d="M809.606,6455.086l-.278-1.219h-.068a3.844,3.844,0,0,1-1.379,1.09,4.518,4.518,0,0,1-1.716.285,3.248,3.248,0,0,1-2.155-.656,2.306,2.306,0,0,1-.78-1.868q0-2.594,4.478-2.718l1.569-.047v-.531a2.065,2.065,0,0,0-.468-1.489,2.016,2.016,0,0,0-1.5-.48,6.494,6.494,0,0,0-2.615.656l-.43-.992a6.863,6.863,0,0,1,1.5-.539,6.994,6.994,0,0,1,1.632-.2,3.717,3.717,0,0,1,2.451.679,2.718,2.718,0,0,1,.8,2.18v5.844Zm-3.163-.914a2.983,2.983,0,0,0,2.054-.664,2.359,2.359,0,0,0,.746-1.86v-.773l-1.4.054a5.427,5.427,0,0,0-2.408.481,1.422,1.422,0,0,0-.738,1.324,1.29,1.29,0,0,0,.46,1.07A2.005,2.005,0,0,0,806.443,6454.172Z" transform="translate(-542.849 -6442.843)" fill="#fff"/>
        <path id="Trazado_8560" data-name="Trazado 8560" d="M819.415,6455.086h-1.4v-12.157h1.4Z" transform="translate(-538.572 -6442.843)" fill="#fff"/>
        <path id="Trazado_8561" data-name="Trazado 8561" d="M828.069,6455.086l-.279-1.219h-.067a3.853,3.853,0,0,1-1.379,1.09,4.518,4.518,0,0,1-1.716.285,3.248,3.248,0,0,1-2.155-.656,2.3,2.3,0,0,1-.781-1.868q0-2.594,4.479-2.718l1.569-.047v-.531a2.065,2.065,0,0,0-.468-1.489,2.016,2.016,0,0,0-1.5-.48,6.491,6.491,0,0,0-2.615.656l-.43-.992a6.826,6.826,0,0,1,1.5-.539,6.988,6.988,0,0,1,1.632-.2,3.712,3.712,0,0,1,2.45.679,2.715,2.715,0,0,1,.8,2.18v5.844Zm-3.163-.914a2.985,2.985,0,0,0,2.054-.664,2.362,2.362,0,0,0,.746-1.86v-.773l-1.4.054a5.427,5.427,0,0,0-2.408.481,1.422,1.422,0,0,0-.738,1.324,1.287,1.287,0,0,0,.46,1.07A2.005,2.005,0,0,0,824.906,6454.172Z" transform="translate(-538.572 -6442.843)" fill="#fff"/>
        <path id="Trazado_8562" data-name="Trazado 8562" d="M842.8,6455.086v-5.539a2.128,2.128,0,0,0-.515-1.563,2.2,2.2,0,0,0-1.611-.516,2.775,2.775,0,0,0-2.125.727,3.472,3.472,0,0,0-.675,2.4v4.493h-1.4v-8.563h1.138l.228,1.172h.068a2.787,2.787,0,0,1,1.206-.98,4.177,4.177,0,0,1,1.729-.348,3.7,3.7,0,0,1,2.513.746,3.035,3.035,0,0,1,.844,2.387v5.586Z" transform="translate(-538.572 -6442.843)" fill="#fff"/>
        <path id="Trazado_8563" data-name="Trazado 8563" d="M848.4,6446.523v5.555a2.126,2.126,0,0,0,.515,1.562,2.2,2.2,0,0,0,1.611.516,2.744,2.744,0,0,0,2.121-.734,3.507,3.507,0,0,0,.671-2.4v-4.5h1.4v8.563h-1.156l-.2-1.149h-.076a2.739,2.739,0,0,1-1.193.969,4.288,4.288,0,0,1-1.742.336,3.715,3.715,0,0,1-2.526-.742,3.017,3.017,0,0,1-.84-2.375v-5.6Z" transform="translate(-538.572 -6442.843)" fill="#fff"/>
        <path id="Trazado_8564" data-name="Trazado 8564" d="M861.587,6455.242a4.437,4.437,0,0,1-3.235-1.156,4.279,4.279,0,0,1-1.185-3.211,4.722,4.722,0,0,1,1.1-3.289,3.785,3.785,0,0,1,2.956-1.219,3.623,3.623,0,0,1,2.75,1.059,3.875,3.875,0,0,1,1.012,2.792v.821h-6.368a3.241,3.241,0,0,0,.822,2.289,2.972,2.972,0,0,0,2.2.781,7.933,7.933,0,0,0,2.952-.578v1.156a7.859,7.859,0,0,1-1.4.426A8.452,8.452,0,0,1,861.587,6455.242Zm-.38-7.789a2.377,2.377,0,0,0-1.775.672,2.967,2.967,0,0,0-.78,1.859h4.832a2.707,2.707,0,0,0-.59-1.879A2.162,2.162,0,0,0,861.207,6447.453Z" transform="translate(-538.572 -6442.843)" fill="#fff"/>
        <path id="Trazado_8565" data-name="Trazado 8565" d="M869.4,6455.086l-3.509-8.563h1.5l1.99,5.078a22.759,22.759,0,0,1,.793,2.313h.067a16.692,16.692,0,0,1,.586-1.715q.494-1.3,2.215-5.676h1.5l-3.509,8.563Z" transform="translate(-538.572 -6442.843)" fill="#fff"/>
        <path id="Trazado_8566" data-name="Trazado 8566" d="M881.711,6455.086l-.278-1.219h-.068a3.853,3.853,0,0,1-1.379,1.09,4.518,4.518,0,0,1-1.716.285,3.249,3.249,0,0,1-2.155-.656,2.306,2.306,0,0,1-.78-1.868q0-2.594,4.478-2.718l1.569-.047v-.531a2.065,2.065,0,0,0-.468-1.489,2.016,2.016,0,0,0-1.5-.48,6.491,6.491,0,0,0-2.615.656l-.43-.992a6.825,6.825,0,0,1,1.5-.539,6.994,6.994,0,0,1,1.632-.2,3.712,3.712,0,0,1,2.45.679,2.715,2.715,0,0,1,.8,2.18v5.844Zm-3.163-.914a2.983,2.983,0,0,0,2.054-.664,2.362,2.362,0,0,0,.746-1.86v-.773l-1.4.054a5.427,5.427,0,0,0-2.408.481,1.422,1.422,0,0,0-.738,1.324,1.287,1.287,0,0,0,.46,1.07A2.005,2.005,0,0,0,878.548,6454.172Z" transform="translate(-538.572 -6442.843)" fill="#fff"/>
        <path id="Trazado_8567" data-name="Trazado 8567" d="M574.39,6477.242a4.112,4.112,0,0,1-3.108-1.145,4.481,4.481,0,0,1-1.1-3.238,4.62,4.62,0,0,1,1.118-3.32,4.191,4.191,0,0,1,3.184-1.172,6.771,6.771,0,0,1,1.332.133,4.648,4.648,0,0,1,1.046.312l-.43,1.1a6.985,6.985,0,0,0-1.012-.285,4.859,4.859,0,0,0-.97-.114q-2.817,0-2.817,3.328a3.75,3.75,0,0,0,.687,2.422,2.473,2.473,0,0,0,2.037.844,6.637,6.637,0,0,0,2.37-.461v1.149A5.4,5.4,0,0,1,574.39,6477.242Z" transform="translate(-557.429 -6442.843)" fill="#fff"/>
        <path id="Trazado_8568" data-name="Trazado 8568" d="M586.9,6472.8a4.5,4.5,0,0,1-1.139,3.269,4.174,4.174,0,0,1-3.146,1.176,4.429,4.429,0,0,1-2.2-.539,3.665,3.665,0,0,1-1.484-1.547,5.047,5.047,0,0,1-.523-2.359,4.492,4.492,0,0,1,1.13-3.262,4.162,4.162,0,0,1,3.137-1.168,4.064,4.064,0,0,1,3.083,1.195A4.486,4.486,0,0,1,586.9,6472.8Zm-7.043,0a3.848,3.848,0,0,0,.709,2.5,2.966,2.966,0,0,0,4.171,0,3.828,3.828,0,0,0,.712-2.5,3.768,3.768,0,0,0-.712-2.481,2.6,2.6,0,0,0-2.1-.848,2.555,2.555,0,0,0-2.075.836A3.809,3.809,0,0,0,579.855,6472.8Z" transform="translate(-557.429 -6442.843)" fill="#fff"/>
        <path id="Trazado_8569" data-name="Trazado 8569" d="M590.752,6477.086h-1.4v-12.157h1.4Z" transform="translate(-557.429 -6442.843)" fill="#fff"/>
        <path id="Trazado_8570" data-name="Trazado 8570" d="M597.626,6477.242a4.436,4.436,0,0,1-3.234-1.156,4.279,4.279,0,0,1-1.185-3.211,4.726,4.726,0,0,1,1.1-3.289,3.787,3.787,0,0,1,2.957-1.219,3.621,3.621,0,0,1,2.749,1.059,3.871,3.871,0,0,1,1.012,2.792v.821h-6.368a3.242,3.242,0,0,0,.823,2.289,2.971,2.971,0,0,0,2.2.781,7.941,7.941,0,0,0,2.952-.578v1.156a7.859,7.859,0,0,1-1.4.426A8.47,8.47,0,0,1,597.626,6477.242Zm-.379-7.789a2.38,2.38,0,0,0-1.776.672,2.978,2.978,0,0,0-.78,1.859h4.833a2.712,2.712,0,0,0-.59-1.879A2.162,2.162,0,0,0,597.247,6469.453Z" transform="translate(-557.429 -6442.843)" fill="#fff"/>
        <path id="Trazado_8571" data-name="Trazado 8571" d="M607.107,6477.242A4.113,4.113,0,0,1,604,6476.1a4.485,4.485,0,0,1-1.1-3.238,4.619,4.619,0,0,1,1.117-3.32,4.192,4.192,0,0,1,3.184-1.172,6.78,6.78,0,0,1,1.333.133,4.646,4.646,0,0,1,1.046.312l-.43,1.1a7,7,0,0,0-1.013-.285,4.843,4.843,0,0,0-.97-.114q-2.817,0-2.817,3.328a3.744,3.744,0,0,0,.688,2.422,2.471,2.471,0,0,0,2.037.844,6.64,6.64,0,0,0,2.37-.461v1.149A5.411,5.411,0,0,1,607.107,6477.242Z" transform="translate(-557.429 -6442.843)" fill="#fff"/>
        <path id="Trazado_8572" data-name="Trazado 8572" d="M615.33,6477.242a4.112,4.112,0,0,1-3.108-1.145,4.481,4.481,0,0,1-1.1-3.238,4.62,4.62,0,0,1,1.118-3.32,4.191,4.191,0,0,1,3.184-1.172,6.771,6.771,0,0,1,1.332.133,4.648,4.648,0,0,1,1.046.312l-.43,1.1a6.982,6.982,0,0,0-1.012-.285,4.859,4.859,0,0,0-.97-.114q-2.817,0-2.817,3.328a3.75,3.75,0,0,0,.687,2.422,2.471,2.471,0,0,0,2.037.844,6.637,6.637,0,0,0,2.37-.461v1.149A5.4,5.4,0,0,1,615.33,6477.242Z" transform="translate(-557.429 -6442.843)" fill="#fff"/>
        <path id="Trazado_8573" data-name="Trazado 8573" d="M619.741,6466.2a.824.824,0,0,1,.236-.652.924.924,0,0,1,1.172,0,.811.811,0,0,1,.245.649.821.821,0,0,1-.245.652.848.848,0,0,1-.582.215.78.78,0,0,1-.826-.867Zm1.518,10.883h-1.4v-8.563h1.4Z" transform="translate(-557.429 -6442.843)" fill="#fff"/>
        <path id="Trazado_8574" data-name="Trazado 8574" d="M632.207,6472.8a4.5,4.5,0,0,1-1.139,3.269,4.174,4.174,0,0,1-3.146,1.176,4.429,4.429,0,0,1-2.2-.539,3.665,3.665,0,0,1-1.484-1.547,5.047,5.047,0,0,1-.523-2.359,4.492,4.492,0,0,1,1.13-3.262,4.162,4.162,0,0,1,3.137-1.168,4.065,4.065,0,0,1,3.083,1.195A4.486,4.486,0,0,1,632.207,6472.8Zm-7.043,0a3.843,3.843,0,0,0,.709,2.5,2.966,2.966,0,0,0,4.171,0,3.829,3.829,0,0,0,.712-2.5,3.768,3.768,0,0,0-.712-2.481,2.6,2.6,0,0,0-2.1-.848,2.555,2.555,0,0,0-2.075.836A3.809,3.809,0,0,0,625.164,6472.8Zm1.62-5.6q.405-.484.873-1.172a13.125,13.125,0,0,0,.738-1.195h1.7v.164a11.642,11.642,0,0,1-1.105,1.25,12.045,12.045,0,0,1-1.273,1.148h-.936Z" transform="translate(-553.484 -6442.843)" fill="#fff"/>
        <path id="Trazado_8575" data-name="Trazado 8575" d="M640.987,6477.086v-5.539a2.128,2.128,0,0,0-.515-1.563,2.2,2.2,0,0,0-1.61-.516,2.777,2.777,0,0,0-2.126.727,3.472,3.472,0,0,0-.675,2.4v4.493h-1.4v-8.563H635.8l.228,1.172h.067a2.8,2.8,0,0,1,1.206-.98,4.18,4.18,0,0,1,1.729-.348,3.7,3.7,0,0,1,2.514.746,3.035,3.035,0,0,1,.843,2.387v5.586Z" transform="translate(-552.843 -6442.843)" fill="#fff"/>
        <path id="Trazado_8576" data-name="Trazado 8576" d="M653.655,6477.242a4.436,4.436,0,0,1-3.234-1.156,4.279,4.279,0,0,1-1.185-3.211,4.726,4.726,0,0,1,1.1-3.289,3.787,3.787,0,0,1,2.957-1.219,3.619,3.619,0,0,1,2.749,1.059,3.871,3.871,0,0,1,1.012,2.792v.821h-6.368a3.246,3.246,0,0,0,.823,2.289,2.971,2.971,0,0,0,2.2.781,7.941,7.941,0,0,0,2.952-.578v1.156a7.859,7.859,0,0,1-1.4.426A8.471,8.471,0,0,1,653.655,6477.242Zm-.379-7.789a2.381,2.381,0,0,0-1.776.672,2.978,2.978,0,0,0-.78,1.859h4.833a2.712,2.712,0,0,0-.59-1.879A2.162,2.162,0,0,0,653.276,6469.453Z" transform="translate(-551.976 -6442.843)" fill="#fff"/>
        <path id="Trazado_8577" data-name="Trazado 8577" d="M665.767,6477.086v-5.539a2.132,2.132,0,0,0-.514-1.563,2.2,2.2,0,0,0-1.611-.516,2.777,2.777,0,0,0-2.126.727,3.472,3.472,0,0,0-.675,2.4v4.493h-1.4v-8.563h1.139l.228,1.172h.067a2.8,2.8,0,0,1,1.206-.98,4.18,4.18,0,0,1,1.729-.348,3.7,3.7,0,0,1,2.514.746,3.035,3.035,0,0,1,.843,2.387v5.586Z" transform="translate(-551.372 -6442.843)" fill="#fff"/>
        <path id="Trazado_8578" data-name="Trazado 8578" d="M678.225,6477.242a4.109,4.109,0,0,1-3.108-1.145,4.481,4.481,0,0,1-1.1-3.238,4.619,4.619,0,0,1,1.117-3.32,4.192,4.192,0,0,1,3.184-1.172,6.781,6.781,0,0,1,1.333.133,4.647,4.647,0,0,1,1.046.312l-.43,1.1a7,7,0,0,0-1.013-.285,4.842,4.842,0,0,0-.969-.114q-2.818,0-2.817,3.328a3.75,3.75,0,0,0,.687,2.422,2.471,2.471,0,0,0,2.037.844,6.64,6.64,0,0,0,2.37-.461v1.149A5.407,5.407,0,0,1,678.225,6477.242Z" transform="translate(-550.529 -6442.843)" fill="#fff"/>
        <path id="Trazado_8579" data-name="Trazado 8579" d="M684.069,6468.523v5.555a2.126,2.126,0,0,0,.515,1.562,2.2,2.2,0,0,0,1.611.516,2.744,2.744,0,0,0,2.121-.734,3.507,3.507,0,0,0,.671-2.4v-4.5h1.4v8.563h-1.156l-.2-1.149h-.076a2.736,2.736,0,0,1-1.194.969,4.279,4.279,0,0,1-1.741.336,3.715,3.715,0,0,1-2.526-.742,3.017,3.017,0,0,1-.84-2.375v-5.6Z" transform="translate(-549.994 -6442.843)" fill="#fff"/>
        <path id="Trazado_8580" data-name="Trazado 8580" d="M699.04,6477.086l-.278-1.219H698.7a3.861,3.861,0,0,1-1.379,1.09,4.527,4.527,0,0,1-1.717.285,3.25,3.25,0,0,1-2.155-.656,2.306,2.306,0,0,1-.78-1.868q0-2.594,4.479-2.718l1.568-.047v-.531a2.065,2.065,0,0,0-.468-1.489,2.016,2.016,0,0,0-1.5-.48,6.486,6.486,0,0,0-2.614.656l-.431-.992a6.863,6.863,0,0,1,1.5-.539,7,7,0,0,1,1.633-.2,3.714,3.714,0,0,1,2.45.679,2.718,2.718,0,0,1,.8,2.18v5.844Zm-3.162-.914a2.98,2.98,0,0,0,2.053-.664,2.36,2.36,0,0,0,.747-1.86v-.773l-1.4.054a5.423,5.423,0,0,0-2.408.481,1.422,1.422,0,0,0-.738,1.324,1.289,1.289,0,0,0,.459,1.07A2.008,2.008,0,0,0,695.878,6476.172Z" transform="translate(-549.407 -6442.843)" fill="#fff"/>
        <path id="Trazado_8581" data-name="Trazado 8581" d="M709.288,6477.086v-5.539a2.132,2.132,0,0,0-.514-1.563,2.2,2.2,0,0,0-1.611-.516,2.777,2.777,0,0,0-2.126.727,3.472,3.472,0,0,0-.675,2.4v4.493h-1.4v-8.563H704.1l.228,1.172h.067a2.8,2.8,0,0,1,1.206-.98,4.18,4.18,0,0,1,1.729-.348,3.7,3.7,0,0,1,2.514.746,3.035,3.035,0,0,1,.843,2.387v5.586Z" transform="translate(-548.788 -6442.843)" fill="#fff"/>
        <path id="Trazado_8582" data-name="Trazado 8582" d="M716.55,6476.172a5.311,5.311,0,0,0,1.265-.157v.993a2.764,2.764,0,0,1-.67.168,5.553,5.553,0,0,1-.8.066q-2.68,0-2.682-2.617v-5.094h-1.324v-.625l1.324-.539.591-1.828h.81v1.984h2.682v1.008h-2.682v5.039a1.653,1.653,0,0,0,.4,1.188A1.434,1.434,0,0,0,716.55,6476.172Z" transform="translate(-548.296 -6442.843)" fill="#fff"/>
        <path id="Trazado_8583" data-name="Trazado 8583" d="M727.641,6472.8a4.5,4.5,0,0,1-1.138,3.269,4.176,4.176,0,0,1-3.146,1.176,4.43,4.43,0,0,1-2.2-.539,3.664,3.664,0,0,1-1.484-1.547,5.047,5.047,0,0,1-.523-2.359,4.492,4.492,0,0,1,1.13-3.262,4.162,4.162,0,0,1,3.137-1.168,4.064,4.064,0,0,1,3.083,1.195A4.486,4.486,0,0,1,727.641,6472.8Zm-7.043,0a3.849,3.849,0,0,0,.709,2.5,2.966,2.966,0,0,0,4.171,0,3.829,3.829,0,0,0,.712-2.5,3.768,3.768,0,0,0-.712-2.481,2.6,2.6,0,0,0-2.105-.848,2.551,2.551,0,0,0-2.074.836A3.8,3.8,0,0,0,720.6,6472.8Z" transform="translate(-547.804 -6442.843)" fill="#fff"/>
        <path id="Trazado_8584" data-name="Trazado 8584" d="M740.267,6477.086l-.278-1.219h-.068a3.844,3.844,0,0,1-1.379,1.09,4.518,4.518,0,0,1-1.716.285,3.248,3.248,0,0,1-2.155-.656,2.306,2.306,0,0,1-.78-1.868q0-2.594,4.479-2.718l1.568-.047v-.531a2.065,2.065,0,0,0-.468-1.489,2.016,2.016,0,0,0-1.5-.48,6.5,6.5,0,0,0-2.615.656l-.43-.992a6.863,6.863,0,0,1,1.5-.539,6.994,6.994,0,0,1,1.632-.2,3.717,3.717,0,0,1,2.451.679,2.718,2.718,0,0,1,.8,2.18v5.844Zm-3.163-.914a2.983,2.983,0,0,0,2.054-.664,2.36,2.36,0,0,0,.747-1.86v-.773l-1.4.054a5.418,5.418,0,0,0-2.407.481,1.421,1.421,0,0,0-.739,1.324,1.29,1.29,0,0,0,.46,1.07A2.007,2.007,0,0,0,737.1,6476.172Z" transform="translate(-546.962 -6442.843)" fill="#fff"/>
        <path id="Trazado_8585" data-name="Trazado 8585" d="M754.639,6474.75a2.091,2.091,0,0,1-.961,1.843,4.787,4.787,0,0,1-2.7.649,6.272,6.272,0,0,1-2.868-.539v-1.2a7.328,7.328,0,0,0,1.43.492,6.425,6.425,0,0,0,1.472.18,3.561,3.561,0,0,0,1.686-.325,1.071,1.071,0,0,0,.123-1.843,7.566,7.566,0,0,0-1.826-.84,10.25,10.25,0,0,1-1.835-.778,2.418,2.418,0,0,1-.809-.753,1.847,1.847,0,0,1-.266-1.008,1.883,1.883,0,0,1,.919-1.653,4.549,4.549,0,0,1,2.522-.6,7.884,7.884,0,0,1,2.918.562l-.5,1.055a7.156,7.156,0,0,0-2.522-.531,3.1,3.1,0,0,0-1.5.289.883.883,0,0,0-.506.8.923.923,0,0,0,.189.586,1.866,1.866,0,0,0,.612.461,14.464,14.464,0,0,0,1.619.632,6.223,6.223,0,0,1,2.223,1.118A1.891,1.891,0,0,1,754.639,6474.75Z" transform="translate(-546.15 -6442.843)" fill="#fff"/>
        <path id="Trazado_8586" data-name="Trazado 8586" d="M756.8,6466.2a.821.821,0,0,1,.237-.652.924.924,0,0,1,1.172,0,.811.811,0,0,1,.245.649.821.821,0,0,1-.245.652.848.848,0,0,1-.582.215.782.782,0,0,1-.827-.867Zm1.519,10.883h-1.4v-8.563h1.4Z" transform="translate(-545.813 -6442.843)" fill="#fff"/>
        <path id="Trazado_8587" data-name="Trazado 8587" d="M762.685,6477.086h-1.4v-12.157h1.4Z" transform="translate(-545.561 -6442.843)" fill="#fff"/>
        <path id="Trazado_8588" data-name="Trazado 8588" d="M766.97,6468.523v5.555a2.126,2.126,0,0,0,.515,1.562,2.193,2.193,0,0,0,1.611.516,2.744,2.744,0,0,0,2.121-.734,3.507,3.507,0,0,0,.67-2.4v-4.5h1.4v8.563h-1.155l-.2-1.149h-.076a2.727,2.727,0,0,1-1.193.969,4.281,4.281,0,0,1-1.742.336,3.718,3.718,0,0,1-2.526-.742,3.021,3.021,0,0,1-.839-2.375v-5.6Z" transform="translate(-545.071 -6442.843)" fill="#fff"/>
        <path id="Trazado_8589" data-name="Trazado 8589" d="M780.161,6477.242a4.436,4.436,0,0,1-3.234-1.156,4.279,4.279,0,0,1-1.185-3.211,4.726,4.726,0,0,1,1.1-3.289,3.787,3.787,0,0,1,2.957-1.219,3.621,3.621,0,0,1,2.749,1.059,3.871,3.871,0,0,1,1.012,2.792v.821h-6.368a3.246,3.246,0,0,0,.823,2.289,2.97,2.97,0,0,0,2.2.781,7.941,7.941,0,0,0,2.952-.578v1.156a7.859,7.859,0,0,1-1.4.426A8.471,8.471,0,0,1,780.161,6477.242Zm-.379-7.789a2.381,2.381,0,0,0-1.776.672,2.978,2.978,0,0,0-.78,1.859h4.833a2.712,2.712,0,0,0-.59-1.879A2.162,2.162,0,0,0,779.782,6469.453Z" transform="translate(-544.463 -6442.843)" fill="#fff"/>
        <path id="Trazado_8590" data-name="Trazado 8590" d="M788.933,6476.172a5.311,5.311,0,0,0,1.265-.157v.993a2.764,2.764,0,0,1-.67.168,5.551,5.551,0,0,1-.8.066q-2.682,0-2.682-2.617v-5.094h-1.325v-.625l1.325-.539.59-1.828h.81v1.984h2.682v1.008h-2.682v5.039a1.653,1.653,0,0,0,.4,1.188A1.434,1.434,0,0,0,788.933,6476.172Z" transform="translate(-544.028 -6442.843)" fill="#fff"/>
        <path id="Trazado_8591" data-name="Trazado 8591" d="M797.73,6477.086l-.278-1.219h-.068a3.852,3.852,0,0,1-1.379,1.09,4.518,4.518,0,0,1-1.716.285,3.249,3.249,0,0,1-2.155-.656,2.306,2.306,0,0,1-.78-1.868q0-2.594,4.478-2.718l1.569-.047v-.531a2.065,2.065,0,0,0-.468-1.489,2.016,2.016,0,0,0-1.5-.48,6.491,6.491,0,0,0-2.615.656l-.43-.992a6.863,6.863,0,0,1,1.5-.539,6.994,6.994,0,0,1,1.632-.2,3.712,3.712,0,0,1,2.45.679,2.715,2.715,0,0,1,.8,2.18v5.844Zm-3.163-.914a2.983,2.983,0,0,0,2.054-.664,2.362,2.362,0,0,0,.746-1.86v-.773l-1.4.054a5.426,5.426,0,0,0-2.408.481,1.422,1.422,0,0,0-.738,1.324,1.287,1.287,0,0,0,.46,1.07A2.005,2.005,0,0,0,794.567,6476.172Z" transform="translate(-543.553 -6442.843)" fill="#fff"/>
        <path id="Trazado_8592" data-name="Trazado 8592" d="M803.12,6475.226l.126.18a18.261,18.261,0,0,1-.633,1.816q-.412,1.035-.86,1.926H800.7q.228-.813.5-2.008c.182-.8.31-1.434.384-1.914Z" transform="translate(-543.217 -6442.843)" fill="#fff"/>
        <path id="Trazado_8593" data-name="Trazado 8593" d="M813.359,6476.172a5.312,5.312,0,0,0,1.265-.157v.993a2.762,2.762,0,0,1-.671.168,5.528,5.528,0,0,1-.8.066q-2.682,0-2.682-2.617v-5.094H809.15v-.625l1.324-.539.591-1.828h.809v1.984h2.682v1.008h-2.682v5.039a1.649,1.649,0,0,0,.4,1.188A1.433,1.433,0,0,0,813.359,6476.172Z" transform="translate(-542.588 -6442.843)" fill="#fff"/>
        <path id="Trazado_8594" data-name="Trazado 8594" d="M820.376,6477.242a4.436,4.436,0,0,1-3.234-1.156,4.279,4.279,0,0,1-1.185-3.211,4.721,4.721,0,0,1,1.1-3.289,3.786,3.786,0,0,1,2.957-1.219,3.621,3.621,0,0,1,2.749,1.059,3.871,3.871,0,0,1,1.012,2.792v.821h-6.368a3.237,3.237,0,0,0,.823,2.289,2.971,2.971,0,0,0,2.2.781,7.941,7.941,0,0,0,2.952-.578v1.156a7.844,7.844,0,0,1-1.405.426A8.452,8.452,0,0,1,820.376,6477.242Zm-.379-7.789a2.38,2.38,0,0,0-1.776.672,2.978,2.978,0,0,0-.78,1.859h4.833a2.707,2.707,0,0,0-.591-1.879A2.16,2.16,0,0,0,820,6469.453Z" transform="translate(-542.074 -6442.843)" fill="#fff"/>
        <path id="Trazado_8595" data-name="Trazado 8595" d="M825.04,6480.929a3.612,3.612,0,0,1-1.3-.2v-1.055a4.411,4.411,0,0,0,1.147.157,1.262,1.262,0,0,0,.965-.332,1.443,1.443,0,0,0,.308-1.012v-9.969h1.4v9.875A2.233,2.233,0,0,1,825.04,6480.929Zm1-14.726a.823.823,0,0,1,.236-.652.925.925,0,0,1,1.173,0,.811.811,0,0,1,.244.649.821.821,0,0,1-.244.652.852.852,0,0,1-.582.215.781.781,0,0,1-.827-.867Z" transform="translate(-538.572 -6442.843)" fill="#fff"/>
        <path id="Trazado_8596" data-name="Trazado 8596" d="M830.413,6466.2a.824.824,0,0,1,.236-.652.924.924,0,0,1,1.172,0,.811.811,0,0,1,.245.649.821.821,0,0,1-.245.652.848.848,0,0,1-.582.215.78.78,0,0,1-.826-.867Zm1.518,10.883h-1.4v-8.563h1.4Z" transform="translate(-538.572 -6442.843)" fill="#fff"/>
        <path id="Trazado_8597" data-name="Trazado 8597" d="M841.192,6475.937h-.076a3.384,3.384,0,0,1-2.9,1.305,3.556,3.556,0,0,1-2.822-1.149,4.792,4.792,0,0,1-1.008-3.265,4.874,4.874,0,0,1,1.013-3.289,3.522,3.522,0,0,1,2.817-1.172,3.465,3.465,0,0,1,2.884,1.266h.11l-.059-.618-.034-.6v-3.485h1.4v12.157h-1.138Zm-2.8.219a2.658,2.658,0,0,0,2.079-.723,3.452,3.452,0,0,0,.645-2.332v-.273a4.052,4.052,0,0,0-.654-2.6,2.578,2.578,0,0,0-2.087-.777,2.2,2.2,0,0,0-1.885.887,4.153,4.153,0,0,0-.654,2.5,3.989,3.989,0,0,0,.65,2.477A2.264,2.264,0,0,0,838.392,6476.156Z" transform="translate(-538.572 -6442.843)" fill="#fff"/>
        <path id="Trazado_8598" data-name="Trazado 8598" d="M853.464,6472.8a4.5,4.5,0,0,1-1.139,3.269,4.175,4.175,0,0,1-3.146,1.176,4.429,4.429,0,0,1-2.2-.539,3.673,3.673,0,0,1-1.485-1.547,5.06,5.06,0,0,1-.522-2.359,4.492,4.492,0,0,1,1.13-3.262,4.162,4.162,0,0,1,3.137-1.168,4.065,4.065,0,0,1,3.083,1.195A4.486,4.486,0,0,1,853.464,6472.8Zm-7.043,0a3.843,3.843,0,0,0,.709,2.5,2.965,2.965,0,0,0,4.17,0,3.823,3.823,0,0,0,.713-2.5,3.763,3.763,0,0,0-.713-2.481,2.593,2.593,0,0,0-2.1-.848,2.554,2.554,0,0,0-2.075.836A3.8,3.8,0,0,0,846.421,6472.8Z" transform="translate(-538.572 -6442.843)" fill="#fff"/>
        <path id="Trazado_8599" data-name="Trazado 8599" d="M861.881,6474.75a2.091,2.091,0,0,1-.961,1.843,4.787,4.787,0,0,1-2.7.649,6.272,6.272,0,0,1-2.868-.539v-1.2a7.328,7.328,0,0,0,1.43.492,6.424,6.424,0,0,0,1.471.18,3.563,3.563,0,0,0,1.687-.325,1.071,1.071,0,0,0,.123-1.843,7.566,7.566,0,0,0-1.826-.84,10.25,10.25,0,0,1-1.835-.778,2.422,2.422,0,0,1-.81-.753,1.855,1.855,0,0,1-.265-1.008,1.883,1.883,0,0,1,.919-1.653,4.549,4.549,0,0,1,2.522-.6,7.884,7.884,0,0,1,2.918.562l-.5,1.055a7.156,7.156,0,0,0-2.522-.531,3.1,3.1,0,0,0-1.5.289.884.884,0,0,0-.506.8.924.924,0,0,0,.19.586,1.855,1.855,0,0,0,.612.461,14.464,14.464,0,0,0,1.619.632,6.223,6.223,0,0,1,2.223,1.118A1.891,1.891,0,0,1,861.881,6474.75Z" transform="translate(-538.572 -6442.843)" fill="#fff"/>
        <path id="Trazado_8600" data-name="Trazado 8600" d="M865.626,6475.226l.127.18a18.776,18.776,0,0,1-.633,1.816q-.414,1.035-.86,1.926h-1.055q.228-.813.5-2.008c.183-.8.311-1.434.384-1.914Z" transform="translate(-538.572 -6442.843)" fill="#fff"/>
        <path id="Trazado_8601" data-name="Trazado 8601" d="M563.16,6499.242a4.109,4.109,0,0,1-3.108-1.145,4.481,4.481,0,0,1-1.1-3.238,4.619,4.619,0,0,1,1.117-3.32,4.192,4.192,0,0,1,3.184-1.172,6.781,6.781,0,0,1,1.333.133,4.647,4.647,0,0,1,1.046.312l-.43,1.1a7.02,7.02,0,0,0-1.012-.285,4.859,4.859,0,0,0-.97-.114q-2.817,0-2.817,3.328a3.75,3.75,0,0,0,.687,2.422,2.471,2.471,0,0,0,2.037.844,6.64,6.64,0,0,0,2.37-.461v1.149A5.407,5.407,0,0,1,563.16,6499.242Z" transform="translate(-557.429 -6442.843)" fill="#fff"/>
        <path id="Trazado_8602" data-name="Trazado 8602" d="M575.668,6494.8a4.5,4.5,0,0,1-1.139,3.269,4.174,4.174,0,0,1-3.146,1.176,4.427,4.427,0,0,1-2.2-.539,3.673,3.673,0,0,1-1.485-1.547,5.047,5.047,0,0,1-.523-2.359,4.5,4.5,0,0,1,1.13-3.262,4.166,4.166,0,0,1,3.138-1.168,4.065,4.065,0,0,1,3.083,1.195A4.486,4.486,0,0,1,575.668,6494.8Zm-7.043,0a3.849,3.849,0,0,0,.708,2.5,2.966,2.966,0,0,0,4.171,0,3.829,3.829,0,0,0,.713-2.5,3.768,3.768,0,0,0-.713-2.481,2.594,2.594,0,0,0-2.1-.848,2.553,2.553,0,0,0-2.075.836A3.8,3.8,0,0,0,568.625,6494.8Z" transform="translate(-557.429 -6442.843)" fill="#fff"/>
        <path id="Trazado_8603" data-name="Trazado 8603" d="M579.522,6499.086h-1.4v-12.157h1.4Z" transform="translate(-557.429 -6442.843)" fill="#fff"/>
        <path id="Trazado_8604" data-name="Trazado 8604" d="M590.47,6494.8a4.5,4.5,0,0,1-1.139,3.269,4.174,4.174,0,0,1-3.146,1.176,4.429,4.429,0,0,1-2.2-.539,3.673,3.673,0,0,1-1.485-1.547,5.059,5.059,0,0,1-.522-2.359,4.492,4.492,0,0,1,1.13-3.262,4.162,4.162,0,0,1,3.137-1.168,4.065,4.065,0,0,1,3.083,1.195A4.486,4.486,0,0,1,590.47,6494.8Zm-7.043,0a3.843,3.843,0,0,0,.709,2.5,2.965,2.965,0,0,0,4.17,0,3.823,3.823,0,0,0,.713-2.5,3.763,3.763,0,0,0-.713-2.481,2.594,2.594,0,0,0-2.1-.848,2.553,2.553,0,0,0-2.075.836A3.8,3.8,0,0,0,583.427,6494.8Z" transform="translate(-557.429 -6442.843)" fill="#fff"/>
        <path id="Trazado_8605" data-name="Trazado 8605" d="M597.141,6490.367a5.856,5.856,0,0,1,1.1.094l-.194,1.2a5.13,5.13,0,0,0-1.012-.117,2.548,2.548,0,0,0-1.919.843,2.944,2.944,0,0,0-.8,2.1v4.594h-1.4v-8.563h1.156l.16,1.586h.067a3.889,3.889,0,0,1,1.24-1.289A2.954,2.954,0,0,1,597.141,6490.367Z" transform="translate(-557.429 -6442.843)" fill="#fff"/>
        <path id="Trazado_8606" data-name="Trazado 8606" d="M603.88,6499.242a4.436,4.436,0,0,1-3.234-1.156,4.279,4.279,0,0,1-1.185-3.211,4.726,4.726,0,0,1,1.1-3.289,3.787,3.787,0,0,1,2.957-1.219,3.621,3.621,0,0,1,2.749,1.059,3.871,3.871,0,0,1,1.012,2.792v.821h-6.368a3.246,3.246,0,0,0,.823,2.289,2.971,2.971,0,0,0,2.2.781,7.94,7.94,0,0,0,2.952-.578v1.156a7.859,7.859,0,0,1-1.4.426A8.471,8.471,0,0,1,603.88,6499.242Zm-.379-7.789a2.38,2.38,0,0,0-1.776.672,2.978,2.978,0,0,0-.78,1.859h4.833a2.712,2.712,0,0,0-.59-1.879A2.162,2.162,0,0,0,603.5,6491.453Z" transform="translate(-557.429 -6442.843)" fill="#fff"/>
        <path id="Trazado_8607" data-name="Trazado 8607" d="M615.629,6496.75a2.091,2.091,0,0,1-.961,1.843,4.788,4.788,0,0,1-2.7.649,6.272,6.272,0,0,1-2.868-.539v-1.2a7.328,7.328,0,0,0,1.43.492,6.426,6.426,0,0,0,1.472.18,3.561,3.561,0,0,0,1.686-.325,1.071,1.071,0,0,0,.123-1.843,7.566,7.566,0,0,0-1.826-.84,10.249,10.249,0,0,1-1.835-.778,2.418,2.418,0,0,1-.809-.753,1.847,1.847,0,0,1-.266-1.008,1.883,1.883,0,0,1,.919-1.653,4.549,4.549,0,0,1,2.522-.6,7.883,7.883,0,0,1,2.918.562l-.5,1.055a7.156,7.156,0,0,0-2.522-.531,3.1,3.1,0,0,0-1.5.289.883.883,0,0,0-.506.8.923.923,0,0,0,.189.586,1.864,1.864,0,0,0,.612.461,14.462,14.462,0,0,0,1.619.632,6.222,6.222,0,0,1,2.223,1.118A1.891,1.891,0,0,1,615.629,6496.75Z" transform="translate(-557.429 -6442.843)" fill="#fff"/>
        <path id="Trazado_8608" data-name="Trazado 8608" d="M619.374,6497.226l.127.18a18.515,18.515,0,0,1-.633,1.816q-.414,1.035-.86,1.926h-1.055q.228-.813.5-2.008c.183-.8.311-1.434.384-1.914Z" transform="translate(-557.429 -6442.843)" fill="#fff"/>
        <path id="Trazado_8609" data-name="Trazado 8609" d="M629.613,6498.172a5.311,5.311,0,0,0,1.265-.157v.993a2.751,2.751,0,0,1-.67.168,5.54,5.54,0,0,1-.8.066q-2.682,0-2.682-2.617v-5.094h-1.324v-.625l1.324-.539.59-1.828h.81v1.984h2.682v1.008h-2.682v5.039a1.653,1.653,0,0,0,.4,1.188A1.435,1.435,0,0,0,629.613,6498.172Z" transform="translate(-553.421 -6442.843)" fill="#fff"/>
        <path id="Trazado_8610" data-name="Trazado 8610" d="M636.631,6499.242a4.437,4.437,0,0,1-3.235-1.156,4.279,4.279,0,0,1-1.185-3.211,4.722,4.722,0,0,1,1.1-3.289,3.785,3.785,0,0,1,2.956-1.219,3.623,3.623,0,0,1,2.75,1.059,3.875,3.875,0,0,1,1.012,2.792v.821h-6.368a3.241,3.241,0,0,0,.822,2.289,2.972,2.972,0,0,0,2.2.781,7.937,7.937,0,0,0,2.952-.578v1.156a7.859,7.859,0,0,1-1.4.426A8.452,8.452,0,0,1,636.631,6499.242Zm-.38-7.789a2.377,2.377,0,0,0-1.775.672,2.967,2.967,0,0,0-.78,1.859h4.832a2.712,2.712,0,0,0-.59-1.879A2.162,2.162,0,0,0,636.251,6491.453Z" transform="translate(-552.988 -6442.843)" fill="#fff"/>
        <path id="Trazado_8611" data-name="Trazado 8611" d="M644.643,6494.7l-3.213-4.18h1.594l2.437,3.281,2.429-3.281h1.578l-3.214,4.18,3.382,4.383h-1.585l-2.59-3.469-2.614,3.469h-1.586Z" transform="translate(-552.441 -6442.843)" fill="#fff"/>
        <path id="Trazado_8612" data-name="Trazado 8612" d="M654.452,6498.172a5.311,5.311,0,0,0,1.265-.157v.993a2.751,2.751,0,0,1-.67.168,5.539,5.539,0,0,1-.8.066q-2.682,0-2.682-2.617v-5.094h-1.324v-.625l1.324-.539.59-1.828h.81v1.984h2.682v1.008h-2.682v5.039a1.653,1.653,0,0,0,.4,1.188A1.433,1.433,0,0,0,654.452,6498.172Z" transform="translate(-551.957 -6442.843)" fill="#fff"/>
        <path id="Trazado_8613" data-name="Trazado 8613" d="M658.88,6490.523v5.555a2.126,2.126,0,0,0,.515,1.562,2.2,2.2,0,0,0,1.611.516,2.744,2.744,0,0,0,2.121-.734,3.507,3.507,0,0,0,.671-2.4v-4.5h1.4v8.563h-1.156l-.2-1.149h-.076a2.736,2.736,0,0,1-1.194.969,4.28,4.28,0,0,1-1.741.336,3.715,3.715,0,0,1-2.526-.742,3.017,3.017,0,0,1-.84-2.375v-5.6Z" transform="translate(-551.489 -6442.843)" fill="#fff"/>
        <path id="Trazado_8614" data-name="Trazado 8614" d="M672.384,6490.367a5.872,5.872,0,0,1,1.105.094l-.194,1.2a5.139,5.139,0,0,0-1.013-.117,2.546,2.546,0,0,0-1.918.843,2.939,2.939,0,0,0-.8,2.1v4.594h-1.4v-8.563h1.155l.16,1.586h.068a3.88,3.88,0,0,1,1.24-1.289A2.951,2.951,0,0,1,672.384,6490.367Z" transform="translate(-550.903 -6442.843)" fill="#fff"/>
        <path id="Trazado_8615" data-name="Trazado 8615" d="M680.9,6499.086l-.278-1.219h-.068a3.845,3.845,0,0,1-1.379,1.09,4.518,4.518,0,0,1-1.716.285,3.25,3.25,0,0,1-2.155-.656,2.306,2.306,0,0,1-.78-1.868q0-2.594,4.479-2.718l1.568-.047v-.531a2.065,2.065,0,0,0-.468-1.489,2.016,2.016,0,0,0-1.5-.48,6.5,6.5,0,0,0-2.615.656l-.43-.992a6.863,6.863,0,0,1,1.5-.539,6.994,6.994,0,0,1,1.632-.2,3.715,3.715,0,0,1,2.451.679,2.718,2.718,0,0,1,.8,2.18v5.844Zm-3.163-.914a2.983,2.983,0,0,0,2.054-.664,2.36,2.36,0,0,0,.747-1.86v-.773l-1.4.054a5.418,5.418,0,0,0-2.407.481,1.421,1.421,0,0,0-.739,1.324,1.29,1.29,0,0,0,.46,1.07A2.007,2.007,0,0,0,677.739,6498.172Z" transform="translate(-550.483 -6442.843)" fill="#fff"/>
        <path id="Trazado_8616" data-name="Trazado 8616" d="M690.787,6496.75a2.091,2.091,0,0,1-.961,1.843,4.787,4.787,0,0,1-2.7.649,6.272,6.272,0,0,1-2.868-.539v-1.2a7.33,7.33,0,0,0,1.43.492,6.423,6.423,0,0,0,1.471.18,3.563,3.563,0,0,0,1.687-.325,1.071,1.071,0,0,0,.123-1.843,7.564,7.564,0,0,0-1.826-.84,10.25,10.25,0,0,1-1.835-.778,2.422,2.422,0,0,1-.81-.753,1.855,1.855,0,0,1-.265-1.008,1.883,1.883,0,0,1,.919-1.653,4.549,4.549,0,0,1,2.522-.6,7.884,7.884,0,0,1,2.918.562l-.5,1.055a7.156,7.156,0,0,0-2.522-.531,3.1,3.1,0,0,0-1.5.289.884.884,0,0,0-.506.8.924.924,0,0,0,.19.586,1.855,1.855,0,0,0,.612.461,14.464,14.464,0,0,0,1.619.632,6.223,6.223,0,0,1,2.223,1.118A1.891,1.891,0,0,1,690.787,6496.75Z" transform="translate(-549.928 -6442.843)" fill="#fff"/>
        <path id="Trazado_8617" data-name="Trazado 8617" d="M694.532,6497.226l.127.18a18.776,18.776,0,0,1-.633,1.816q-.414,1.035-.86,1.926h-1.055q.228-.813.5-2.008c.183-.8.311-1.434.384-1.914Z" transform="translate(-549.56 -6442.843)" fill="#fff"/>
        <path id="Trazado_8618" data-name="Trazado 8618" d="M707.749,6496.75a2.092,2.092,0,0,1-.962,1.843,4.787,4.787,0,0,1-2.7.649,6.272,6.272,0,0,1-2.868-.539v-1.2a7.353,7.353,0,0,0,1.43.492,6.425,6.425,0,0,0,1.472.18,3.566,3.566,0,0,0,1.687-.325,1.072,1.072,0,0,0,.122-1.843,7.566,7.566,0,0,0-1.826-.84,10.283,10.283,0,0,1-1.835-.778,2.418,2.418,0,0,1-.809-.753,1.856,1.856,0,0,1-.266-1.008,1.885,1.885,0,0,1,.919-1.653,4.549,4.549,0,0,1,2.522-.6,7.888,7.888,0,0,1,2.919.562l-.5,1.055a7.152,7.152,0,0,0-2.522-.531,3.1,3.1,0,0,0-1.5.289.883.883,0,0,0-.506.8.923.923,0,0,0,.189.586,1.865,1.865,0,0,0,.612.461,14.464,14.464,0,0,0,1.619.632,6.214,6.214,0,0,1,2.223,1.118A1.892,1.892,0,0,1,707.749,6496.75Z" transform="translate(-548.924 -6442.843)" fill="#fff"/>
        <path id="Trazado_8619" data-name="Trazado 8619" d="M718.005,6494.8a4.5,4.5,0,0,1-1.139,3.269,4.175,4.175,0,0,1-3.146,1.176,4.429,4.429,0,0,1-2.2-.539,3.673,3.673,0,0,1-1.485-1.547,5.059,5.059,0,0,1-.523-2.359,4.492,4.492,0,0,1,1.131-3.262,4.162,4.162,0,0,1,3.137-1.168,4.065,4.065,0,0,1,3.083,1.195A4.486,4.486,0,0,1,718.005,6494.8Zm-7.043,0a3.843,3.843,0,0,0,.709,2.5,2.965,2.965,0,0,0,4.17,0,3.829,3.829,0,0,0,.713-2.5,3.768,3.768,0,0,0-.713-2.481,2.593,2.593,0,0,0-2.1-.848,2.554,2.554,0,0,0-2.075.836A3.8,3.8,0,0,0,710.962,6494.8Z" transform="translate(-548.377 -6442.843)" fill="#fff"/>
        <path id="Trazado_8620" data-name="Trazado 8620" d="M726.785,6499.086v-5.539a2.128,2.128,0,0,0-.515-1.563,2.2,2.2,0,0,0-1.611-.516,2.776,2.776,0,0,0-2.125.727,3.472,3.472,0,0,0-.675,2.4v4.493h-1.4v-8.563H721.6l.228,1.172h.067a2.8,2.8,0,0,1,1.206-.98,4.18,4.18,0,0,1,1.729-.348,3.7,3.7,0,0,1,2.514.746,3.035,3.035,0,0,1,.843,2.387v5.586Z" transform="translate(-547.749 -6442.843)" fill="#fff"/>
        <path id="Trazado_8621" data-name="Trazado 8621" d="M730.943,6488.2a.823.823,0,0,1,.236-.652.925.925,0,0,1,1.173,0,.814.814,0,0,1,.244.649.824.824,0,0,1-.244.652.853.853,0,0,1-.583.215.78.78,0,0,1-.826-.867Zm1.518,10.883h-1.4v-8.563h1.4Z" transform="translate(-547.32 -6442.843)" fill="#fff"/>
        <path id="Trazado_8622" data-name="Trazado 8622" d="M741.722,6497.937h-.076a3.384,3.384,0,0,1-2.9,1.305,3.556,3.556,0,0,1-2.822-1.149,4.792,4.792,0,0,1-1.008-3.265,4.874,4.874,0,0,1,1.013-3.289,3.522,3.522,0,0,1,2.817-1.172,3.465,3.465,0,0,1,2.884,1.266h.11l-.059-.618-.034-.6v-3.485h1.4v12.157h-1.138Zm-2.8.219a2.658,2.658,0,0,0,2.079-.723,3.452,3.452,0,0,0,.645-2.332v-.273a4.053,4.053,0,0,0-.654-2.6,2.578,2.578,0,0,0-2.087-.777,2.2,2.2,0,0,0-1.885.887,4.152,4.152,0,0,0-.654,2.5,3.989,3.989,0,0,0,.65,2.477A2.264,2.264,0,0,0,738.922,6498.156Z" transform="translate(-546.877 -6442.843)" fill="#fff"/>
        <path id="Trazado_8623" data-name="Trazado 8623" d="M753.994,6494.8a4.5,4.5,0,0,1-1.139,3.269,4.174,4.174,0,0,1-3.146,1.176,4.429,4.429,0,0,1-2.2-.539,3.665,3.665,0,0,1-1.484-1.547,5.047,5.047,0,0,1-.523-2.359,4.492,4.492,0,0,1,1.13-3.262,4.162,4.162,0,0,1,3.137-1.168,4.065,4.065,0,0,1,3.083,1.195A4.486,4.486,0,0,1,753.994,6494.8Zm-7.043,0a3.843,3.843,0,0,0,.709,2.5,2.966,2.966,0,0,0,4.171,0,3.828,3.828,0,0,0,.712-2.5,3.768,3.768,0,0,0-.712-2.481,2.6,2.6,0,0,0-2.1-.848,2.555,2.555,0,0,0-2.075.836A3.809,3.809,0,0,0,746.951,6494.8Z" transform="translate(-546.235 -6442.843)" fill="#fff"/>
        <path id="Trazado_8624" data-name="Trazado 8624" d="M762.411,6496.75a2.091,2.091,0,0,1-.961,1.843,4.788,4.788,0,0,1-2.7.649,6.272,6.272,0,0,1-2.868-.539v-1.2a7.331,7.331,0,0,0,1.43.492,6.424,6.424,0,0,0,1.471.18,3.563,3.563,0,0,0,1.687-.325,1.071,1.071,0,0,0,.123-1.843,7.566,7.566,0,0,0-1.826-.84,10.252,10.252,0,0,1-1.835-.778,2.432,2.432,0,0,1-.81-.753,1.855,1.855,0,0,1-.265-1.008,1.883,1.883,0,0,1,.919-1.653,4.549,4.549,0,0,1,2.522-.6,7.883,7.883,0,0,1,2.918.562l-.5,1.055a7.156,7.156,0,0,0-2.522-.531,3.1,3.1,0,0,0-1.5.289.883.883,0,0,0-.505.8.923.923,0,0,0,.189.586,1.865,1.865,0,0,0,.612.461,14.459,14.459,0,0,0,1.619.632,6.222,6.222,0,0,1,2.223,1.118A1.891,1.891,0,0,1,762.411,6496.75Z" transform="translate(-545.691 -6442.843)" fill="#fff"/>
        <path id="Trazado_8625" data-name="Trazado 8625" d="M766.156,6497.226l.127.18a18.809,18.809,0,0,1-.633,1.816q-.414,1.035-.86,1.926h-1.055q.228-.813.5-2.008c.183-.8.311-1.434.384-1.914Z" transform="translate(-545.376 -6442.843)" fill="#fff"/>
        <path id="Trazado_8626" data-name="Trazado 8626" d="M777.1,6499.242A4.111,4.111,0,0,1,774,6498.1a4.481,4.481,0,0,1-1.1-3.238,4.62,4.62,0,0,1,1.118-3.32,4.191,4.191,0,0,1,3.184-1.172,6.771,6.771,0,0,1,1.332.133,4.646,4.646,0,0,1,1.046.312l-.43,1.1a6.985,6.985,0,0,0-1.012-.285,4.859,4.859,0,0,0-.97-.114q-2.817,0-2.817,3.328a3.75,3.75,0,0,0,.687,2.422,2.471,2.471,0,0,0,2.037.844,6.64,6.64,0,0,0,2.37-.461v1.149A5.408,5.408,0,0,1,777.1,6499.242Z" transform="translate(-544.678 -6442.843)" fill="#fff"/>
        <path id="Trazado_8627" data-name="Trazado 8627" d="M789.612,6494.8a4.5,4.5,0,0,1-1.139,3.269,4.175,4.175,0,0,1-3.146,1.176,4.43,4.43,0,0,1-2.2-.539,3.673,3.673,0,0,1-1.485-1.547,5.06,5.06,0,0,1-.523-2.359,4.492,4.492,0,0,1,1.131-3.262,4.162,4.162,0,0,1,3.137-1.168,4.065,4.065,0,0,1,3.083,1.195A4.486,4.486,0,0,1,789.612,6494.8Zm-7.043,0a3.843,3.843,0,0,0,.709,2.5,2.965,2.965,0,0,0,4.17,0,3.823,3.823,0,0,0,.713-2.5,3.763,3.763,0,0,0-.713-2.481,2.593,2.593,0,0,0-2.1-.848,2.554,2.554,0,0,0-2.075.836A3.8,3.8,0,0,0,782.569,6494.8Z" transform="translate(-544.115 -6442.843)" fill="#fff"/>
        <path id="Trazado_8628" data-name="Trazado 8628" d="M803.849,6499.086v-5.571a2.2,2.2,0,0,0-.472-1.535,1.91,1.91,0,0,0-1.468-.512,2.47,2.47,0,0,0-1.932.7,3.13,3.13,0,0,0-.624,2.14v4.782h-1.4v-5.571a2.194,2.194,0,0,0-.472-1.535,1.92,1.92,0,0,0-1.476-.512,2.373,2.373,0,0,0-1.927.731,3.725,3.725,0,0,0-.612,2.394v4.493h-1.4v-8.563h1.139l.228,1.172h.067a2.68,2.68,0,0,1,1.118-.977,3.641,3.641,0,0,1,1.615-.351,2.788,2.788,0,0,1,2.834,1.453h.067a2.858,2.858,0,0,1,1.2-1.062,3.954,3.954,0,0,1,1.788-.391,3.286,3.286,0,0,1,2.349.746,3.178,3.178,0,0,1,.78,2.387v5.586Z" transform="translate(-543.254 -6442.843)" fill="#fff"/>
        <path id="Trazado_8629" data-name="Trazado 8629" d="M812.435,6499.242a4.289,4.289,0,0,1-1.649-.309,3.066,3.066,0,0,1-1.252-.949h-.1a10.573,10.573,0,0,1,.1,1.422v3.523h-1.4v-12.406h1.138l.194,1.172h.068a3.182,3.182,0,0,1,1.256-1.016,4.087,4.087,0,0,1,1.645-.312,3.536,3.536,0,0,1,2.838,1.164,5.811,5.811,0,0,1-.017,6.543A3.544,3.544,0,0,1,812.435,6499.242Zm-.2-7.774a2.588,2.588,0,0,0-2.05.727,3.535,3.535,0,0,0-.649,2.313v.289a4.043,4.043,0,0,0,.649,2.582,2.567,2.567,0,0,0,2.083.777,2.223,2.223,0,0,0,1.877-.9,4.021,4.021,0,0,0,.679-2.477,3.872,3.872,0,0,0-.679-2.457A2.3,2.3,0,0,0,812.233,6491.468Z" transform="translate(-542.524 -6442.843)" fill="#fff"/>
        <path id="Trazado_8630" data-name="Trazado 8630" d="M826.7,6494.8a4.5,4.5,0,0,1-1.138,3.269,4.175,4.175,0,0,1-3.146,1.176,4.431,4.431,0,0,1-2.2-.539,3.676,3.676,0,0,1-1.484-1.547,5.047,5.047,0,0,1-.523-2.359,4.5,4.5,0,0,1,1.13-3.262,4.166,4.166,0,0,1,3.138-1.168,4.065,4.065,0,0,1,3.083,1.195A4.49,4.49,0,0,1,826.7,6494.8Zm-7.042,0a3.849,3.849,0,0,0,.708,2.5,2.966,2.966,0,0,0,4.171,0,3.829,3.829,0,0,0,.713-2.5,3.768,3.768,0,0,0-.713-2.481,2.6,2.6,0,0,0-2.1-.848,2.554,2.554,0,0,0-2.075.836A3.8,3.8,0,0,0,819.655,6494.8Z" transform="translate(-538.572 -6442.843)" fill="#fff"/>
        <path id="Trazado_8631" data-name="Trazado 8631" d="M835.115,6496.75a2.092,2.092,0,0,1-.962,1.843,4.785,4.785,0,0,1-2.7.649,6.27,6.27,0,0,1-2.867-.539v-1.2a7.322,7.322,0,0,0,1.429.492,6.433,6.433,0,0,0,1.472.18,3.565,3.565,0,0,0,1.687-.325A1.072,1.072,0,0,0,833.3,6496a7.546,7.546,0,0,0-1.826-.84,10.233,10.233,0,0,1-1.834-.778,2.412,2.412,0,0,1-.81-.753,1.856,1.856,0,0,1-.266-1.008,1.884,1.884,0,0,1,.92-1.653,4.547,4.547,0,0,1,2.522-.6,7.884,7.884,0,0,1,2.918.562l-.5,1.055a7.147,7.147,0,0,0-2.522-.531,3.1,3.1,0,0,0-1.5.289.884.884,0,0,0-.506.8.918.918,0,0,0,.19.586,1.849,1.849,0,0,0,.611.461,14.418,14.418,0,0,0,1.62.632,6.216,6.216,0,0,1,2.222,1.118A1.892,1.892,0,0,1,835.115,6496.75Z" transform="translate(-538.572 -6442.843)" fill="#fff"/>
        <path id="Trazado_8632" data-name="Trazado 8632" d="M837.274,6488.2a.824.824,0,0,1,.236-.652.925.925,0,0,1,1.173,0,.811.811,0,0,1,.244.649.821.821,0,0,1-.244.652.852.852,0,0,1-.582.215.781.781,0,0,1-.827-.867Zm1.518,10.883h-1.4v-8.563h1.4Z" transform="translate(-538.572 -6442.843)" fill="#fff"/>
        <path id="Trazado_8633" data-name="Trazado 8633" d="M845.455,6499.242a4.112,4.112,0,0,1-3.108-1.145,4.481,4.481,0,0,1-1.1-3.238,4.619,4.619,0,0,1,1.117-3.32,4.191,4.191,0,0,1,3.184-1.172,6.788,6.788,0,0,1,1.333.133,4.637,4.637,0,0,1,1.045.312l-.43,1.1a6.947,6.947,0,0,0-1.012-.285,4.851,4.851,0,0,0-.97-.114q-2.817,0-2.817,3.328a3.744,3.744,0,0,0,.688,2.422,2.47,2.47,0,0,0,2.036.844,6.641,6.641,0,0,0,2.371-.461v1.149A5.412,5.412,0,0,1,845.455,6499.242Z" transform="translate(-538.572 -6442.843)" fill="#fff"/>
        <path id="Trazado_8634" data-name="Trazado 8634" d="M849.866,6488.2a.824.824,0,0,1,.236-.652.925.925,0,0,1,1.173,0,.811.811,0,0,1,.244.649.821.821,0,0,1-.244.652.908.908,0,0,1-1.173,0A.839.839,0,0,1,849.866,6488.2Zm1.518,10.883h-1.4v-8.563h1.4Z" transform="translate(-538.572 -6442.843)" fill="#fff"/>
        <path id="Trazado_8635" data-name="Trazado 8635" d="M862.332,6494.8a4.5,4.5,0,0,1-1.138,3.269,4.176,4.176,0,0,1-3.146,1.176,4.43,4.43,0,0,1-2.2-.539,3.665,3.665,0,0,1-1.484-1.547,5.047,5.047,0,0,1-.523-2.359,4.492,4.492,0,0,1,1.13-3.262,4.163,4.163,0,0,1,3.138-1.168,4.063,4.063,0,0,1,3.082,1.195A4.486,4.486,0,0,1,862.332,6494.8Zm-7.042,0a3.849,3.849,0,0,0,.708,2.5,2.966,2.966,0,0,0,4.171,0,3.829,3.829,0,0,0,.712-2.5,3.768,3.768,0,0,0-.712-2.481,2.6,2.6,0,0,0-2.1-.848,2.551,2.551,0,0,0-2.074.836A3.8,3.8,0,0,0,855.29,6494.8Zm1.619-5.6q.405-.484.873-1.172a13.125,13.125,0,0,0,.738-1.195h1.7v.164a11.87,11.87,0,0,1-1.1,1.25,12.144,12.144,0,0,1-1.274,1.148h-.936Z" transform="translate(-538.572 -6442.843)" fill="#fff"/>
        <path id="Trazado_8636" data-name="Trazado 8636" d="M871.112,6499.086v-5.539a2.128,2.128,0,0,0-.514-1.563,2.2,2.2,0,0,0-1.611-.516,2.779,2.779,0,0,0-2.126.727,3.472,3.472,0,0,0-.674,2.4v4.493h-1.4v-8.563h1.138l.228,1.172h.067a2.8,2.8,0,0,1,1.206-.98,4.183,4.183,0,0,1,1.729-.348,3.7,3.7,0,0,1,2.514.746,3.035,3.035,0,0,1,.843,2.387v5.586Z" transform="translate(-538.572 -6442.843)" fill="#fff"/>
        <path id="Trazado_8637" data-name="Trazado 8637" d="M876.856,6497.226l.126.18a18.482,18.482,0,0,1-.632,1.816q-.414,1.035-.86,1.926h-1.055q.228-.813.5-2.008c.183-.8.311-1.434.384-1.914Z" transform="translate(-538.572 -6442.843)" fill="#fff"/>
        <path id="Trazado_8638" data-name="Trazado 8638" d="M639.494,6521.086l-.278-1.219h-.067a3.854,3.854,0,0,1-1.38,1.09,4.518,4.518,0,0,1-1.716.285,3.25,3.25,0,0,1-2.155-.656,2.306,2.306,0,0,1-.78-1.868q0-2.594,4.479-2.718l1.568-.047v-.531a2.065,2.065,0,0,0-.468-1.489,2.016,2.016,0,0,0-1.5-.48,6.486,6.486,0,0,0-2.614.656l-.431-.992a6.863,6.863,0,0,1,1.5-.539,6.994,6.994,0,0,1,1.632-.2,3.715,3.715,0,0,1,2.451.679,2.718,2.718,0,0,1,.8,2.18v5.844Zm-3.163-.914a2.981,2.981,0,0,0,2.054-.664,2.36,2.36,0,0,0,.747-1.86v-.773l-1.4.054a5.423,5.423,0,0,0-2.408.481,1.42,1.42,0,0,0-.738,1.324,1.289,1.289,0,0,0,.459,1.07A2.007,2.007,0,0,0,636.331,6520.172Z" transform="translate(-552.939 -6442.843)" fill="#fff"/>
        <path id="Trazado_8639" data-name="Trazado 8639" d="M647.718,6521.242a4.285,4.285,0,0,1-1.649-.309,3.069,3.069,0,0,1-1.253-.949h-.1a10.565,10.565,0,0,1,.1,1.422v3.523h-1.4v-12.406h1.139l.194,1.172h.067a3.192,3.192,0,0,1,1.257-1.016,4.087,4.087,0,0,1,1.645-.312,3.536,3.536,0,0,1,2.838,1.164,5.816,5.816,0,0,1-.017,6.543A3.545,3.545,0,0,1,647.718,6521.242Zm-.2-7.774a2.587,2.587,0,0,0-2.049.727,3.541,3.541,0,0,0-.65,2.313v.289a4.043,4.043,0,0,0,.65,2.582,2.567,2.567,0,0,0,2.083.777,2.225,2.225,0,0,0,1.877-.9,4.028,4.028,0,0,0,.679-2.477,3.878,3.878,0,0,0-.679-2.457A2.3,2.3,0,0,0,647.515,6513.468Z" transform="translate(-552.317 -6442.843)" fill="#fff"/>
        <path id="Trazado_8640" data-name="Trazado 8640" d="M659.686,6521.086l-.278-1.219h-.068a3.844,3.844,0,0,1-1.379,1.09,4.518,4.518,0,0,1-1.716.285,3.248,3.248,0,0,1-2.155-.656,2.306,2.306,0,0,1-.78-1.868q0-2.594,4.478-2.718l1.569-.047v-.531a2.065,2.065,0,0,0-.468-1.489,2.016,2.016,0,0,0-1.5-.48,6.5,6.5,0,0,0-2.615.656l-.43-.992a6.863,6.863,0,0,1,1.5-.539,6.994,6.994,0,0,1,1.632-.2,3.712,3.712,0,0,1,2.45.679,2.715,2.715,0,0,1,.8,2.18v5.844Zm-3.163-.914a2.983,2.983,0,0,0,2.054-.664,2.359,2.359,0,0,0,.746-1.86v-.773l-1.4.054a5.426,5.426,0,0,0-2.408.481,1.422,1.422,0,0,0-.738,1.324,1.287,1.287,0,0,0,.46,1.07A2.005,2.005,0,0,0,656.523,6520.172Z" transform="translate(-551.742 -6442.843)" fill="#fff"/>
        <path id="Trazado_8641" data-name="Trazado 8641" d="M667.825,6512.367a5.856,5.856,0,0,1,1.1.094l-.194,1.2a5.13,5.13,0,0,0-1.012-.117,2.546,2.546,0,0,0-1.919.843,2.944,2.944,0,0,0-.8,2.1v4.594h-1.4v-8.563h1.156l.16,1.586h.067a3.888,3.888,0,0,1,1.24-1.289A2.953,2.953,0,0,1,667.825,6512.367Z" transform="translate(-551.172 -6442.843)" fill="#fff"/>
        <path id="Trazado_8642" data-name="Trazado 8642" d="M670.541,6510.2a.824.824,0,0,1,.236-.652.925.925,0,0,1,1.173,0,.811.811,0,0,1,.244.649.821.821,0,0,1-.244.652.852.852,0,0,1-.582.215.78.78,0,0,1-.827-.867Zm1.518,10.883h-1.4v-8.563h1.4Z" transform="translate(-550.839 -6442.843)" fill="#fff"/>
        <path id="Trazado_8643" data-name="Trazado 8643" d="M678.933,6521.242a4.436,4.436,0,0,1-3.234-1.156,4.279,4.279,0,0,1-1.185-3.211,4.721,4.721,0,0,1,1.1-3.289,3.786,3.786,0,0,1,2.957-1.219,3.621,3.621,0,0,1,2.749,1.059,3.871,3.871,0,0,1,1.012,2.792v.821h-6.368a3.237,3.237,0,0,0,.823,2.289,2.971,2.971,0,0,0,2.2.781,7.94,7.94,0,0,0,2.952-.578v1.156a7.842,7.842,0,0,1-1.4.426A8.452,8.452,0,0,1,678.933,6521.242Zm-.379-7.789a2.38,2.38,0,0,0-1.776.672,2.978,2.978,0,0,0-.78,1.859h4.833a2.707,2.707,0,0,0-.591-1.879A2.16,2.16,0,0,0,678.554,6513.453Z" transform="translate(-550.475 -6442.843)" fill="#fff"/>
        <path id="Trazado_8644" data-name="Trazado 8644" d="M691.045,6521.086v-5.539a2.128,2.128,0,0,0-.515-1.563,2.2,2.2,0,0,0-1.611-.516,2.776,2.776,0,0,0-2.125.727,3.472,3.472,0,0,0-.675,2.4v4.493h-1.4v-8.563h1.139l.228,1.172h.067a2.8,2.8,0,0,1,1.206-.98,4.18,4.18,0,0,1,1.729-.348,3.7,3.7,0,0,1,2.514.746,3.035,3.035,0,0,1,.843,2.387v5.586Z" transform="translate(-549.871 -6442.843)" fill="#fff"/>
        <path id="Trazado_8645" data-name="Trazado 8645" d="M699.015,6521.242a4.112,4.112,0,0,1-3.108-1.145,4.481,4.481,0,0,1-1.1-3.238,4.619,4.619,0,0,1,1.117-3.32,4.191,4.191,0,0,1,3.184-1.172,6.788,6.788,0,0,1,1.333.133,4.663,4.663,0,0,1,1.046.312l-.431,1.1a6.95,6.95,0,0,0-1.012-.285,4.851,4.851,0,0,0-.97-.114q-2.817,0-2.817,3.328a3.744,3.744,0,0,0,.688,2.422,2.471,2.471,0,0,0,2.037.844,6.64,6.64,0,0,0,2.37-.461v1.149A5.412,5.412,0,0,1,699.015,6521.242Z" transform="translate(-549.299 -6442.843)" fill="#fff"/>
        <path id="Trazado_8646" data-name="Trazado 8646" d="M703.426,6510.2a.82.82,0,0,1,.237-.652.924.924,0,0,1,1.172,0,.812.812,0,0,1,.245.649.822.822,0,0,1-.245.652.849.849,0,0,1-.582.215.782.782,0,0,1-.827-.867Zm1.519,10.883h-1.4v-8.563h1.4Z" transform="translate(-548.923 -6442.843)" fill="#fff"/>
        <path id="Trazado_8647" data-name="Trazado 8647" d="M713.6,6521.086l-.278-1.219h-.068a3.853,3.853,0,0,1-1.379,1.09,4.518,4.518,0,0,1-1.716.285,3.248,3.248,0,0,1-2.155-.656,2.306,2.306,0,0,1-.78-1.868q0-2.594,4.478-2.718l1.569-.047v-.531a2.065,2.065,0,0,0-.468-1.489,2.016,2.016,0,0,0-1.5-.48,6.494,6.494,0,0,0-2.615.656l-.43-.992a6.864,6.864,0,0,1,1.5-.539,6.994,6.994,0,0,1,1.632-.2,3.712,3.712,0,0,1,2.45.679,2.715,2.715,0,0,1,.8,2.18v5.844Zm-3.163-.914a2.983,2.983,0,0,0,2.054-.664,2.359,2.359,0,0,0,.746-1.86v-.773l-1.4.054a5.427,5.427,0,0,0-2.408.481,1.422,1.422,0,0,0-.738,1.324,1.287,1.287,0,0,0,.46,1.07A2.005,2.005,0,0,0,710.435,6520.172Z" transform="translate(-548.544 -6442.843)" fill="#fff"/>
        <path id="Trazado_8648" data-name="Trazado 8648" d="M718.988,6519.226l.126.18a18.482,18.482,0,0,1-.632,1.816q-.414,1.035-.861,1.926h-1.054q.228-.813.5-2.008c.182-.8.31-1.434.384-1.914Z" transform="translate(-548.132 -6442.843)" fill="#fff"/>
        <path id="Trazado_8649" data-name="Trazado 8649" d="M738.024,6521.086v-5.571a2.194,2.194,0,0,0-.473-1.535,1.906,1.906,0,0,0-1.467-.512,2.47,2.47,0,0,0-1.932.7,3.131,3.131,0,0,0-.624,2.14v4.782h-1.4v-5.571a2.194,2.194,0,0,0-.472-1.535,1.92,1.92,0,0,0-1.476-.512,2.373,2.373,0,0,0-1.927.731,3.725,3.725,0,0,0-.612,2.394v4.493h-1.4v-8.563h1.139l.227,1.172h.068a2.683,2.683,0,0,1,1.117-.977,3.648,3.648,0,0,1,1.616-.351,2.788,2.788,0,0,1,2.834,1.453h.067a2.857,2.857,0,0,1,1.2-1.062,3.954,3.954,0,0,1,1.788-.391,3.286,3.286,0,0,1,2.349.746,3.178,3.178,0,0,1,.78,2.387v5.586Z" transform="translate(-547.231 -6442.843)" fill="#fff"/>
        <path id="Trazado_8650" data-name="Trazado 8650" d="M750.287,6516.8a4.5,4.5,0,0,1-1.138,3.269,4.176,4.176,0,0,1-3.146,1.176,4.43,4.43,0,0,1-2.2-.539,3.664,3.664,0,0,1-1.484-1.547,5.047,5.047,0,0,1-.523-2.359,4.492,4.492,0,0,1,1.13-3.262,4.163,4.163,0,0,1,3.138-1.168,4.063,4.063,0,0,1,3.082,1.195A4.486,4.486,0,0,1,750.287,6516.8Zm-7.042,0a3.849,3.849,0,0,0,.708,2.5,2.966,2.966,0,0,0,4.171,0,3.829,3.829,0,0,0,.712-2.5,3.768,3.768,0,0,0-.712-2.481,2.6,2.6,0,0,0-2.105-.848,2.551,2.551,0,0,0-2.074.836A3.8,3.8,0,0,0,743.245,6516.8Z" transform="translate(-546.456 -6442.843)" fill="#fff"/>
        <path id="Trazado_8651" data-name="Trazado 8651" d="M754.766,6521.086l-3.509-8.563h1.5l1.991,5.078a22.775,22.775,0,0,1,.793,2.313h.067a16.692,16.692,0,0,1,.586-1.715q.493-1.3,2.214-5.676h1.5l-3.509,8.563Z" transform="translate(-545.887 -6442.843)" fill="#fff"/>
        <path id="Trazado_8652" data-name="Trazado 8652" d="M761.277,6510.2a.824.824,0,0,1,.236-.652.925.925,0,0,1,1.173,0,.811.811,0,0,1,.244.649.821.821,0,0,1-.244.652.852.852,0,0,1-.582.215.781.781,0,0,1-.827-.867Zm1.518,10.883h-1.4v-8.563h1.4Z" transform="translate(-545.553 -6442.843)" fill="#fff"/>
        <path id="Trazado_8653" data-name="Trazado 8653" d="M767.164,6521.086h-1.4v-12.157h1.4Z" transform="translate(-545.301 -6442.843)" fill="#fff"/>
        <path id="Trazado_8654" data-name="Trazado 8654" d="M770.015,6510.2a.824.824,0,0,1,.236-.652.925.925,0,0,1,1.173,0,.814.814,0,0,1,.244.649.824.824,0,0,1-.244.652.852.852,0,0,1-.582.215.78.78,0,0,1-.827-.867Zm1.518,10.883h-1.4v-8.563h1.4Z" transform="translate(-545.044 -6442.843)" fill="#fff"/>
        <path id="Trazado_8655" data-name="Trazado 8655" d="M780.794,6519.937h-.076a3.384,3.384,0,0,1-2.9,1.305,3.556,3.556,0,0,1-2.822-1.149,4.792,4.792,0,0,1-1.007-3.265,4.874,4.874,0,0,1,1.012-3.289,3.522,3.522,0,0,1,2.817-1.172,3.464,3.464,0,0,1,2.884,1.266h.11l-.059-.618-.034-.6v-3.485h1.4v12.157H780.98Zm-2.8.219a2.658,2.658,0,0,0,2.079-.723,3.452,3.452,0,0,0,.645-2.332v-.273a4.053,4.053,0,0,0-.654-2.6,2.578,2.578,0,0,0-2.087-.777,2.2,2.2,0,0,0-1.885.887,4.153,4.153,0,0,0-.654,2.5,3.989,3.989,0,0,0,.65,2.477A2.264,2.264,0,0,0,777.994,6520.156Z" transform="translate(-544.554 -6442.843)" fill="#fff"/>
        <path id="Trazado_8656" data-name="Trazado 8656" d="M790.772,6521.086l-.279-1.219h-.067a3.853,3.853,0,0,1-1.379,1.09,4.518,4.518,0,0,1-1.716.285,3.248,3.248,0,0,1-2.155-.656,2.3,2.3,0,0,1-.781-1.868q0-2.594,4.479-2.718l1.569-.047v-.531a2.065,2.065,0,0,0-.468-1.489,2.016,2.016,0,0,0-1.5-.48,6.491,6.491,0,0,0-2.615.656l-.43-.992a6.826,6.826,0,0,1,1.5-.539,6.988,6.988,0,0,1,1.632-.2,3.712,3.712,0,0,1,2.45.679,2.715,2.715,0,0,1,.8,2.18v5.844Zm-3.163-.914a2.985,2.985,0,0,0,2.054-.664,2.362,2.362,0,0,0,.746-1.86v-.773l-1.4.054a5.426,5.426,0,0,0-2.408.481,1.422,1.422,0,0,0-.738,1.324,1.287,1.287,0,0,0,.46,1.07A2.005,2.005,0,0,0,787.609,6520.172Z" transform="translate(-543.966 -6442.843)" fill="#fff"/>
        <path id="Trazado_8657" data-name="Trazado 8657" d="M800.986,6519.937h-.076a3.384,3.384,0,0,1-2.9,1.305,3.554,3.554,0,0,1-2.821-1.149,4.792,4.792,0,0,1-1.008-3.265,4.879,4.879,0,0,1,1.012-3.289,3.525,3.525,0,0,1,2.817-1.172,3.466,3.466,0,0,1,2.885,1.266H801l-.059-.618-.034-.6v-3.485h1.4v12.157h-1.139Zm-2.8.219a2.662,2.662,0,0,0,2.08-.723,3.452,3.452,0,0,0,.645-2.332v-.273a4.052,4.052,0,0,0-.654-2.6,2.581,2.581,0,0,0-2.087-.777,2.2,2.2,0,0,0-1.885.887,4.153,4.153,0,0,0-.654,2.5,3.99,3.99,0,0,0,.649,2.477A2.265,2.265,0,0,0,798.185,6520.156Z" transform="translate(-543.354 -6442.843)" fill="#fff"/>
      </g>
    </g>
    <g id="Grupo_11236" data-name="Grupo 11236" transform="translate(143.615)">
      <path id="Trazado_8658" data-name="Trazado 8658" d="M760.85,6344.021H675.492c0,.013-.113,30.643-.2,54.7a54.765,54.765,0,0,0,11.519,10.921h62.5a54.7,54.7,0,0,0,11.685-11.134Zm0,0" transform="translate(-663.675 -6305.859)" fill="#85d249"/>
      <path id="Trazado_8659" data-name="Trazado 8659" d="M663.675,6365.127a54.146,54.146,0,0,0,11.817,33.846v-37.238a4.505,4.505,0,0,1,1.02-2.856l9.982-12.193.645-1.018-4.957-21.409a54.25,54.25,0,0,0-18.507,40.868Zm0,0" transform="translate(-663.675 -6305.859)" fill="#ffd764"/>
      <path id="Trazado_8660" data-name="Trazado 8660" d="M772.445,6365.127a54.248,54.248,0,0,0-18.624-40.97l-4.565,21.178.37,1.351,9.982,12.193a4.505,4.505,0,0,1,1.02,2.856v37.237a54.147,54.147,0,0,0,11.817-33.845Zm0,0" transform="translate(-663.675 -6305.859)" fill="#ffd764"/>
      <path id="Trazado_8661" data-name="Trazado 8661" d="M682.182,6324.259a54.7,54.7,0,0,0-9.717,11.226,5.358,5.358,0,0,1,5.306,4.159l.47,1.567a5.649,5.649,0,0,1-1.034,5.2l-6.54,8.014a12.815,12.815,0,0,0-2.885,8.1v23.362a54.344,54.344,0,0,0,7.71,13.089v-37.238a4.505,4.505,0,0,1,1.02-2.856l9.982-12.193.645-1.018Zm0,0" transform="translate(-663.675 -6305.859)" fill="#ffb442"/>
      <path id="Trazado_8662" data-name="Trazado 8662" d="M768.6,6385.233v-22.711a12.816,12.816,0,0,0-2.886-8.1l-6.539-8.014a5.649,5.649,0,0,1-1.035-5.2l.471-1.567a5.373,5.373,0,0,1,5.042-4.16,54.691,54.691,0,0,0-9.835-11.327l-4.565,21.178.37,1.351,9.982,12.193a4.505,4.505,0,0,1,1.02,2.856v37.238a54.385,54.385,0,0,0,7.975-13.74Zm0,0" transform="translate(-663.675 -6305.859)" fill="#ffb442"/>
      <path id="Trazado_8663" data-name="Trazado 8663" d="M731.965,6312.54a2.82,2.82,0,0,1-4.017-.9c-.3-.057-.61-.109-.916-.16a2.826,2.826,0,0,1-5.64-.254h-.505v1.026a2.851,2.851,0,1,1-5.654,0v-1.026h-.5a2.826,2.826,0,0,1-5.641.254c-.307.051-.612.1-.916.16a2.819,2.819,0,0,1-4.016.9,54.285,54.285,0,0,0-22.821,12.478h0l5.16,21.667v6.53h63.132v-6.53l5.16-21.667a54.276,54.276,0,0,0-22.821-12.479Zm0,0" transform="translate(-663.675 -6305.859)" fill="#fceca9"/>
      <path id="Trazado_8664" data-name="Trazado 8664" d="M711.9,6320.646v-6.589a2.828,2.828,0,0,1-2.813-2.574c-.306.051-.613.1-.917.16a2.819,2.819,0,0,1-4.016.9,54.276,54.276,0,0,0-22.821,12.479l5.16,21.667v6.53h15.783v-23.783c0-7.214,9.624-8.787,9.624-8.787Zm0,0" transform="translate(-663.675 -6305.859)" fill="#ffd764"/>
      <path id="Trazado_8665" data-name="Trazado 8665" d="M686.494,6409.418a54.4,54.4,0,0,0,63.132,0v-41.989H686.494Zm0,0" transform="translate(-663.675 -6305.859)" fill="#fceca9"/>
      <path id="Trazado_8666" data-name="Trazado 8666" d="M702.276,6367.429H686.494v41.989a54.112,54.112,0,0,0,28.359,10c-13.135-4.15-12.577-16.929-12.577-16.929v-35.06Zm0,0" transform="translate(-663.675 -6305.859)" fill="#ffd764"/>
      <rect id="Rectángulo_4307" data-name="Rectángulo 4307" width="63.132" height="14.213" transform="translate(22.819 47.357)" fill="#ffb442"/>
      <rect id="Rectángulo_4308" data-name="Rectángulo 4308" width="15.784" height="14.213" transform="translate(22.819 47.357)" fill="#ffa222"/>
      <path id="Trazado_8667" data-name="Trazado 8667" d="M693.045,6346.665l-6.551,6.551,6.551,6.551a1.9,1.9,0,0,0,2.68,0l6.552-6.551-6.552-6.551a1.9,1.9,0,0,0-2.68,0Zm0,0" transform="translate(-663.675 -6305.859)" fill="#ff8c24"/>
      <path id="Trazado_8668" data-name="Trazado 8668" d="M708.828,6346.665l-6.551,6.551,6.551,6.551a1.9,1.9,0,0,0,2.681,0l6.551-6.551-6.551-6.551a1.9,1.9,0,0,0-2.681,0Zm0,0" transform="translate(-663.675 -6305.859)" fill="#ffd764"/>
      <path id="Trazado_8669" data-name="Trazado 8669" d="M724.611,6346.665l-6.551,6.551,6.551,6.551a1.9,1.9,0,0,0,2.68,0l6.551-6.551-6.551-6.551a1.9,1.9,0,0,0-2.68,0Zm0,0" transform="translate(-663.675 -6305.859)" fill="#ffa222"/>
      <path id="Trazado_8670" data-name="Trazado 8670" d="M740.394,6346.665l-6.551,6.551,6.551,6.551a1.9,1.9,0,0,0,2.68,0l6.552-6.551-6.552-6.551a1.9,1.9,0,0,0-2.68,0Zm0,0" transform="translate(-663.675 -6305.859)" fill="#ffd764"/>
      <path id="Trazado_8671" data-name="Trazado 8671" d="M693.045,6360.878l-6.551,6.551,6.551,6.552a1.9,1.9,0,0,0,2.68,0l6.552-6.552-6.552-6.551a1.894,1.894,0,0,0-2.68,0Zm0,0" transform="translate(-663.675 -6305.859)" fill="#ffb442"/>
      <path id="Trazado_8672" data-name="Trazado 8672" d="M708.828,6360.878l-6.551,6.551,6.551,6.552a1.9,1.9,0,0,0,2.681,0l6.551-6.552-6.551-6.552a1.9,1.9,0,0,0-2.681,0Zm0,0" transform="translate(-663.675 -6305.859)" fill="#ffa222"/>
      <path id="Trazado_8673" data-name="Trazado 8673" d="M724.611,6360.878l-6.551,6.551,6.551,6.552a1.9,1.9,0,0,0,2.68,0l6.551-6.552-6.551-6.552a1.9,1.9,0,0,0-2.68,0Zm0,0" transform="translate(-663.675 -6305.859)" fill="#ffd764"/>
      <path id="Trazado_8674" data-name="Trazado 8674" d="M740.394,6360.878l-6.551,6.551,6.551,6.552a1.9,1.9,0,0,0,2.68,0l6.552-6.552-6.552-6.551a1.894,1.894,0,0,0-2.68,0Zm0,0" transform="translate(-663.675 -6305.859)" fill="#ffa222"/>
      <path id="Trazado_8675" data-name="Trazado 8675" d="M705.742,6305.859a3.079,3.079,0,0,0-3.079,3.078v7.825a3.079,3.079,0,0,0,6.159,0v-7.825a3.08,3.08,0,0,0-3.08-3.078Zm0,0" transform="translate(-663.675 -6305.859)" fill="#ffb442"/>
      <path id="Trazado_8676" data-name="Trazado 8676" d="M711.9,6306.885a3.079,3.079,0,0,0-3.079,3.079v7.825a3.079,3.079,0,0,0,6.159,0v-7.825a3.08,3.08,0,0,0-3.08-3.079Zm0,0" transform="translate(-663.675 -6305.859)" fill="#ffd764"/>
      <path id="Trazado_8677" data-name="Trazado 8677" d="M718.06,6307.912a3.078,3.078,0,0,0-3.079,3.079v7.823a3.078,3.078,0,1,0,6.157,0v-7.823a3.078,3.078,0,0,0-3.078-3.079Zm0,0" transform="translate(-663.675 -6305.859)" fill="#ffb442"/>
      <path id="Trazado_8678" data-name="Trazado 8678" d="M724.219,6306.885a3.079,3.079,0,0,0-3.079,3.079v7.825a3.078,3.078,0,1,0,6.157,0v-7.825a3.078,3.078,0,0,0-3.078-3.079Zm0,0" transform="translate(-663.675 -6305.859)" fill="#ffd764"/>
      <path id="Trazado_8679" data-name="Trazado 8679" d="M730.377,6305.859a3.08,3.08,0,0,0-3.08,3.078v7.825a3.079,3.079,0,0,0,6.159,0v-7.825a3.079,3.079,0,0,0-3.079-3.078Zm0,0" transform="translate(-663.675 -6305.859)" fill="#ffb442"/>
    </g>
  </g>
</svg>
