<svg xmlns="http://www.w3.org/2000/svg" xmlns:xlink="http://www.w3.org/1999/xlink" width="468.872" height="413" viewBox="0 0 468.872 413">
  <defs>
    <clipPath id="clip-path">
      <rect id="Rectángulo_8738" data-name="Rectángulo 8738" width="429" height="413" transform="translate(824 16241)" fill="#fff" stroke="#707070" stroke-width="1"/>
    </clipPath>
  </defs>
  <g id="Grupo_70714" data-name="Grupo 70714" transform="translate(-764.128 -16223)">
    <path id="Trazado_9907" data-name="Trazado 9907" d="M734.82,2495.047V2462.24l18.143,16.4Z" transform="translate(29.308 13946.761)" fill="#e5b0c8"/>
    <g id="Enmascarar_grupo_96" data-name="Enmascarar grupo 96" transform="translate(-20 -18)" clip-path="url(#clip-path)">
      <g id="Grupo_11755" data-name="Grupo 11755" transform="translate(29.308 13936.761)">
        <path id="Trazado_9444" data-name="Trazado 9444" d="M992.743,2722.934c-66.394,0-134.132-.042-204.021-.126v-.58c152.451.183,294.723.167,434.944-.05v.58c-75.939.118-152.492.176-230.924.176Z" fill="#964242"/>
        <path id="Trazado_9445" data-name="Trazado 9445" d="M992.687,2676.934c-66.37,0-134.088-.046-203.966-.137v-.58c152.486.2,294.757.182,434.944-.055v.58c-75.946.128-152.518.192-230.98.192Z" fill="#964242"/>
        <path id="Trazado_9446" data-name="Trazado 9446" d="M1223.666,2630.692c-140.148-.234-282.42-.251-434.944-.054v-.581c152.525-.2,294.8-.178,434.946.055v.58Z" fill="#964242"/>
        <path id="Trazado_9447" data-name="Trazado 9447" d="M1223.666,2584.676c-140.181-.213-282.452-.23-434.944-.049v-.581c152.493-.18,294.764-.163,434.945.05v.58Z" fill="#964242"/>
        <path id="Trazado_9448" data-name="Trazado 9448" d="M1223.666,2538.661c-140.219-.195-282.49-.209-434.944-.045v-.581c152.453-.163,294.725-.149,434.945.045v.581Z" fill="#964242"/>
        <path id="Trazado_9449" data-name="Trazado 9449" d="M1223.666,2492.645c-140.185-.175-282.458-.188-434.944-.04v-.581c152.487-.148,294.759-.134,434.945.041v.58Z" fill="#964242"/>
        <path id="Trazado_9450" data-name="Trazado 9450" d="M1223.666,2446.63c-140.183-.156-282.455-.168-434.944-.037v-.58c152.489-.132,294.76-.12,434.945.036v.581Z" fill="#964242"/>
        <path id="Trazado_9451" data-name="Trazado 9451" d="M1223.666,2400.614c-140.194-.136-282.466-.147-434.944-.032V2400c152.479-.115,294.75-.1,434.945.032v.58Z" fill="#964242"/>
        <path id="Trazado_9452" data-name="Trazado 9452" d="M1223.666,2354.6c-140.194-.117-282.465-.126-434.944-.027v-.58c152.48-.1,294.751-.09,434.944.027v.58Z" fill="#964242"/>
        <path id="Trazado_9453" data-name="Trazado 9453" d="M1223.666,2308.583c-140.21-.1-282.48-.106-434.944-.023v-.58c152.463-.083,294.734-.075,434.944.023v.58Z" fill="#964242"/>
        <path id="Trazado_9454" data-name="Trazado 9454" d="M993.86,2377.752c-66.862,0-134.952-.039-205.126-.117v-.682c151.94.169,294.237.155,435.021-.042v.682c-75.764.106-151.991.159-229.9.159Z" fill="#ffd6d6"/>
        <path id="Trazado_9455" data-name="Trazado 9455" d="M993.892,2331.752c-66.869,0-134.98-.043-205.158-.128v-.682c151.927.185,294.223.17,435.02-.046v.682c-75.761.116-151.968.174-229.864.174Z" fill="#ffd6d6"/>
        <path id="Trazado_9456" data-name="Trazado 9456" d="M1223.755,2408.24c-140.793-.136-283.089-.145-435.021-.03v-.681c151.932-.116,294.229-.107,435.022.029v.682Z" fill="#ffd6d6"/>
        <path id="Trazado_9457" data-name="Trazado 9457" d="M993.9,2508.157c-66.878,0-134.984-.045-205.168-.133v-.681c151.921.19,294.217.175,435.02-.048v.682c-75.756.12-151.967.18-229.854.18Z" fill="#ffd6d6"/>
        <path id="Trazado_9458" data-name="Trazado 9458" d="M1223.755,2500.27c-140.73-.174-283.026-.187-435.021-.038v-.681c151.994-.149,294.291-.136,435.022.037v.682Z" fill="#ffd6d6"/>
        <path id="Trazado_9459" data-name="Trazado 9459" d="M1223.755,2484.577c-140.81-.174-283.106-.186-435.02-.037v-.682c151.915-.149,294.212-.137,435.022.037v.682Z" fill="#ffd6d6"/>
        <path id="Trazado_9460" data-name="Trazado 9460" d="M993.933,2607.751c-66.885,0-135.011-.02-205.2-.06v-.682c151.911.087,294.207.081,435.021-.022v.682c-75.753.055-151.945.082-229.822.082Z" fill="#ffd6d6"/>
        <path id="Trazado_9461" data-name="Trazado 9461" d="M1223.755,2707.36c-140.506-.018-282.8-.02-435.021,0v-.681c152.22-.016,294.516-.015,435.021,0v.681Z" fill="#ffd6d6"/>
        <path id="Trazado_9462" data-name="Trazado 9462" d="M1223.755,2715.022c-140.815-.1-283.111-.109-435.021-.022v-.682c151.911-.086,294.208-.079,435.021.022v.682Z" fill="#ffd6d6"/>
        <path id="Trazado_9463" data-name="Trazado 9463" d="M887.932,2714.691h-.541V2300.539h.541v414.152Z" fill="#b8cfd1"/>
        <path id="Trazado_9464" data-name="Trazado 9464" d="M872.593,2714.691h-.541V2300.539h.541v414.152Z" fill="#b8cfd1"/>
        <path id="Trazado_9465" data-name="Trazado 9465" d="M857.254,2714.691h-.541V2300.539h.541v414.152Z" fill="#b8cfd1"/>
        <path id="Trazado_9466" data-name="Trazado 9466" d="M949.288,2714.691h-.541V2300.539h.541v414.152Z" fill="#b8cfd1"/>
        <path id="Trazado_9467" data-name="Trazado 9467" d="M933.949,2714.691h-.541V2300.539h.541v414.152Z" fill="#b8cfd1"/>
        <path id="Trazado_9468" data-name="Trazado 9468" d="M918.61,2714.691h-.541V2300.539h.541v414.152Z" fill="#b8cfd1"/>
        <path id="Trazado_9469" data-name="Trazado 9469" d="M895.6,2714.691h-.541V2300.539h.541v414.152Z" fill="#b8cfd1"/>
        <path id="Trazado_9470" data-name="Trazado 9470" d="M910.941,2714.691H910.4V2300.539h.541v414.152Z" fill="#b8cfd1"/>
        <path id="Trazado_9471" data-name="Trazado 9471" d="M1089.136,2676.156h-.767V2381.063h.767v295.094Z" fill="red"/>
        <path id="Trazado_9472" data-name="Trazado 9472" d="M902.617,2715.117c-.034-141.841-.034-191.684,0-333.333h.768c-.035,141.649-.035,191.492,0,333.333Z" fill="red"/>
        <path id="Trazado_9473" data-name="Trazado 9473" d="M815.269,2326.978h-1.152v-3.559l-.657.355-.262-1.033,1.207-.646h.865v4.884Z" fill="#964242"/>
        <path id="Trazado_9474" data-name="Trazado 9474" d="M816.188,2374.318h-3.332v-.777l.545-.529c1.061-1.01,1.5-1.515,1.509-2.038,0-.479-.3-.54-.557-.54a1.186,1.186,0,0,0-.722.294l-.3.249-.437-.967.17-.143a2.182,2.182,0,0,1,1.406-.506,1.51,1.51,0,0,1,1.61,1.544,3.493,3.493,0,0,1-1.387,2.34h1.493v1.073Z" fill="#964242"/>
        <path id="Trazado_9475" data-name="Trazado 9475" d="M814.248,2421.729a2.47,2.47,0,0,1-1.279-.339l-.193-.127.359-1.018.314.2a1.653,1.653,0,0,0,.792.224.733.733,0,0,0,.54-.176.5.5,0,0,0,.136-.356c-.006-.528-.625-.569-.815-.569h-.618v-1.026h.618c.257,0,.663-.117.663-.432,0-.087,0-.352-.458-.352a1.282,1.282,0,0,0-.687.229l-.317.227-.359-1,.178-.13a2.313,2.313,0,0,1,1.3-.388,1.365,1.365,0,0,1,1.524,1.319,1.262,1.262,0,0,1-.443.977,1.371,1.371,0,0,1,.608,1.15,1.655,1.655,0,0,1-1.86,1.583Zm1.233-1.837a1.223,1.223,0,0,1,.026.237,1.1,1.1,0,0,1-.068.4.939.939,0,0,0,.079-.387.846.846,0,0,0-.037-.254Zm-.268-2.3a.969.969,0,0,1,.14.44v-.018a.682.682,0,0,0-.14-.422Z" fill="#964242"/>
        <path id="Trazado_9476" data-name="Trazado 9476" d="M815.791,2468.445h-1.138v-1.169h-1.995v-.771l2.057-2.944h1.076v2.669h.6v1.046h-.6v1.169Zm-1.684-2.215h.546v-.76l-.546.76Z" fill="#964242"/>
        <path id="Trazado_9477" data-name="Trazado 9477" d="M814.2,2515.857a2.375,2.375,0,0,1-1.23-.312l-.191-.124.331-1.007.316.187a1.638,1.638,0,0,0,.768.2.657.657,0,0,0,.722-.636c0-.16-.008-.656-.94-.656a3.977,3.977,0,0,0-.528.04l-.381.049.022-.377.312-2.317h2.607v1.08H814.33l-.073.485h0a2.1,2.1,0,0,1,1.077.274,1.512,1.512,0,0,1,.757,1.356,1.791,1.791,0,0,1-1.894,1.762Zm1.124-2.355a1.194,1.194,0,0,1,.18.584.972.972,0,0,0-.18-.584Z" fill="#964242"/>
        <path id="Trazado_9478" data-name="Trazado 9478" d="M814.6,2562.645a1.882,1.882,0,0,1-1.815-2.125,2.99,2.99,0,0,1,.813-2.144,2.632,2.632,0,0,1,1.548-.718,3.02,3.02,0,0,1,.458-.036h.295v1.084l-.386-.02a1.991,1.991,0,0,0-.3.025,1.485,1.485,0,0,0-.911.5,1.736,1.736,0,0,1,.429-.054,1.567,1.567,0,0,1,1.59,1.682,1.728,1.728,0,0,1-1.722,1.808Zm-.046-2.464a.664.664,0,0,0-.57.368.22.22,0,0,0-.034.123c.006.277.079.933.65.933.4,0,.544-.4.544-.735,0-.257-.077-.689-.59-.689Zm-1.166.06c-.008.087-.012.177-.012.268a.74.74,0,0,1,.092-.246l.012-.022Z" fill="#964242"/>
        <path id="Trazado_9479" data-name="Trazado 9479" d="M814.255,2609.912h-1.261l1.869-3.811h-1.929v-1.073h3.3v.746l-1.979,4.139Z" fill="#964242"/>
        <path id="Trazado_9480" data-name="Trazado 9480" d="M814.538,2656.773a1.554,1.554,0,0,1-1.735-1.458,1.422,1.422,0,0,1,.6-1.175,1.273,1.273,0,0,1-.434-.959,1.488,1.488,0,0,1,1.623-1.437,1.406,1.406,0,0,1,1.544,1.352,1.305,1.305,0,0,1-.445.989,1.365,1.365,0,0,1,.6,1.144,1.6,1.6,0,0,1-1.755,1.544Zm-.069-2.114a.634.634,0,0,0-.481.577.476.476,0,0,0,.126.36.588.588,0,0,0,.438.164c.347,0,.563-.18.563-.471,0-.263-.111-.462-.646-.63Zm-1.071.563c0,.03-.005.062-.005.093a.768.768,0,0,0,.053.282,1.087,1.087,0,0,1-.048-.374Zm1.16-2.472c-.333,0-.451.2-.451.392,0,.107,0,.323.511.482a.532.532,0,0,0,.372-.469c0-.185-.075-.405-.432-.405Z" fill="#964242"/>
        <path id="Trazado_9481" data-name="Trazado 9481" d="M813.588,2703.007l-.4-.016v-1.085l.326.034a2.2,2.2,0,0,0,.408-.02,1.332,1.332,0,0,0,.927-.568,1.721,1.721,0,0,1-.461.061,1.535,1.535,0,0,1-1.563-1.61,1.773,1.773,0,0,1,1.761-1.822c1.042,0,1.716.827,1.716,2.106a2.966,2.966,0,0,1-.83,2.226,2.424,2.424,0,0,1-1.42.657,3.218,3.218,0,0,1-.469.037Zm.957-3.992c-.324,0-.55.307-.55.748,0,.3.139.616.53.616a.665.665,0,0,0,.591-.3.11.11,0,0,0,.012-.061c0-.373-.075-1-.583-1Zm1.089,1.344h.072c.007-.087.01-.177.01-.272v-.006a.647.647,0,0,1-.082.278Z" fill="#964242"/>
        <path id="Trazado_9482" data-name="Trazado 9482" d="M849.585,2530.623h-.541v-53.686h.541v53.686Z" fill="#b8cfd1"/>
        <path id="Trazado_9483" data-name="Trazado 9483" d="M880.242,2630.326h-.5V2584.31h.5v46.017Z" fill="#b8cfd1"/>
        <path id="Trazado_9484" data-name="Trazado 9484" d="M926.26,2630.326h-.5V2584.31h.5v46.017Z" fill="#b8cfd1"/>
        <path id="Trazado_9485" data-name="Trazado 9485" d="M864.924,2530.623h-.541v-53.686h.541v53.686Z" fill="#b8cfd1"/>
        <path id="Trazado_9486" data-name="Trazado 9486" d="M941.618,2530.623h-.541v-53.686h.541v53.686Z" fill="#b8cfd1"/>
        <path id="Trazado_9487" data-name="Trazado 9487" d="M956.957,2530.623h-.541v-53.686h.541v53.686Z" fill="#b8cfd1"/>
        <path id="Trazado_9488" data-name="Trazado 9488" d="M841.6,2454.448l-.291-.667c.055-.024,1.364-.593,3.906-1.434l.229.691c-2.506.829-3.83,1.4-3.844,1.41Zm117.9-.927c-1.188-.437-2.5-.862-3.9-1.262l.2-.7c1.417.406,2.748.836,3.953,1.279l-.252.683Zm-110.123-1.684-.2-.7c1.285-.364,2.631-.719,4-1.055l.174.707c-1.362.334-2.7.687-3.976,1.048Zm102.241-.6c-1.27-.293-2.625-.578-4.028-.847l.137-.715c1.412.27,2.776.558,4.055.853l-.164.709Zm-94.256-1.362-.151-.712c1.329-.282,2.694-.55,4.057-.8l.13.716c-1.356.246-2.714.514-4.036.794Zm86.171-.2c-1.3-.21-2.677-.413-4.078-.6l.1-.721c1.406.192,2.784.4,4.094.607l-.115.718Zm-8.169-1.118c-1.322-.153-2.7-.3-4.1-.437l.071-.725c1.4.138,2.787.285,4.113.439l-.083.723Zm-69.908-.159-.111-.72c1.344-.207,2.721-.4,4.092-.577l.092.722c-1.365.175-2.735.368-4.073.575Zm61.7-.649q-2.1-.174-4.115-.312l.05-.726c1.345.093,2.723.2,4.125.312l-.06.726Zm-53.538-.4-.075-.724c1.349-.14,2.733-.266,4.115-.376l.058.726c-1.376.109-2.755.235-4.1.374Zm45.3-.172c-1.438-.08-2.817-.149-4.121-.206l.032-.728c1.307.058,2.689.127,4.131.208l-.042.726Zm-8.246-.365c-1.58-.052-2.971-.087-4.128-.11l.015-.728c1.159.024,2.553.058,4.138.11l-.025.728Zm-28.854-.116-.041-.727c1.361-.077,2.75-.14,4.127-.187l.025.727c-1.371.047-2.755.11-4.111.187Zm20.57-.061c-1.378-.066-2.762-.119-4.113-.158l.02-.727c1.357.038,2.746.092,4.127.158l-.034.727Zm-12.344-.223-.009-.728q2.027-.027,4.13-.01l-.005.728q-2.1-.016-4.116.01Z" fill="#b8cfd1"/>
        <path id="Trazado_9489" data-name="Trazado 9489" d="M873.565,2484.417a1.083,1.083,0,1,1-1.082-1.037,1.061,1.061,0,0,1,1.082,1.037Z"/>
        <path id="Trazado_9490" data-name="Trazado 9490" d="M934.712,2484.417a1.083,1.083,0,1,1-1.082-1.037,1.061,1.061,0,0,1,1.082,1.037Z"/>
        <path id="Trazado_9491" data-name="Trazado 9491" d="M903.688,2446.043a1.083,1.083,0,1,1-1.082-1.037,1.061,1.061,0,0,1,1.082,1.037Z"/>
        <path id="Trazado_9492" data-name="Trazado 9492" d="M873.405,2377.234a1.083,1.083,0,1,1-1.082-1.038,1.061,1.061,0,0,1,1.082,1.038Z"/>
        <path id="Trazado_9493" data-name="Trazado 9493" d="M863.735,2448.884a1.083,1.083,0,1,1-1.082-1.038,1.061,1.061,0,0,1,1.082,1.038Z"/>
        <path id="Trazado_9494" data-name="Trazado 9494" d="M858.053,2490.37a1.083,1.083,0,1,1-1.082-1.037,1.06,1.06,0,0,1,1.082,1.037Z"/>
        <path id="Trazado_9495" data-name="Trazado 9495" d="M949.954,2490.37a1.083,1.083,0,1,0-1.082,1.037,1.06,1.06,0,0,0,1.082-1.037Z"/>
        <path id="Trazado_9496" data-name="Trazado 9496" d="M944.272,2448.884a1.083,1.083,0,1,0-1.082,1.037,1.061,1.061,0,0,0,1.082-1.037Z"/>
        <path id="Trazado_9497" data-name="Trazado 9497" d="M934.893,2377.234a1.083,1.083,0,1,1-1.082-1.038,1.061,1.061,0,0,1,1.082,1.038Z"/>
        <path id="Trazado_9498" data-name="Trazado 9498" d="M894.4,2584.345a1.083,1.083,0,1,1-1.083-1.037,1.061,1.061,0,0,1,1.083,1.037Z"/>
        <path id="Trazado_9499" data-name="Trazado 9499" d="M899.943,2676.427a1.083,1.083,0,1,1-1.082-1.038,1.06,1.06,0,0,1,1.082,1.038Z"/>
        <path id="Trazado_9500" data-name="Trazado 9500" d="M911.9,2584.345a1.083,1.083,0,1,0,1.082-1.037,1.06,1.06,0,0,0-1.082,1.037Z"/>
        <path id="Trazado_9501" data-name="Trazado 9501" d="M906.35,2676.427a1.083,1.083,0,1,0,1.083-1.038,1.061,1.061,0,0,0-1.083,1.038Z"/>
        <path id="Trazado_9502" data-name="Trazado 9502" d="M902.968,2354.453c-5.864-.853-10.268-4.639-11.878-7.794-1.787-3.5-3.58-14.923-3.655-15.407.056-9.85,2.32-16.717,6.728-20.447a11.724,11.724,0,0,1,8.874-2.824l-.073.455a11.473,11.473,0,0,0-8.512,2.727c-4.3,3.641-6.5,10.388-6.56,20.055.015.081,1.854,11.794,3.608,15.232,1.558,3.053,5.832,6.718,11.534,7.547l-.066.456Z"/>
        <path id="Trazado_9503" data-name="Trazado 9503" d="M899.437,2714.954l-8.8-7.865.018-.122,4.443-30.614-15.343-69.047.02-.061,7.65-22.95L872.1,2507.66l-.386-23.106.018-.043,15.692-38.273L872.036,2377H895.1l-.119-25.881.453-.059,7.853,30.686-15.735-4.275,0-.01H872.61l15.292,68.815-.027.067-15.7,38.3.38,22.97,15.347,76.713-.02.058-7.65,22.948,15.335,69-.006.042-4.432,30.534,8.154,7.286,3.455-7.427-.27-30.341-2.435-45.986,2.433-23.272-4.058-23,0-.031,4.6-46-1.622-30.486-6.468-11.859.4-.22,6.519,11.95,0,.052,1.623,30.574-4.6,46,4.059,23,0,.031-2.435,23.269,2.436,45.959.271,30.456-.022.047-3.738,8.037Zm-10.169-337.49,13.378,3.634-7.2-28.117.113,24.483Z"/>
        <path id="Trazado_9504" data-name="Trazado 9504" d="M893.226,2589.853a5.417,5.417,0,1,1,5.418-5.418,5.423,5.423,0,0,1-5.418,5.418Zm0-10.375a4.958,4.958,0,1,0,4.958,4.957,4.964,4.964,0,0,0-4.958-4.957Z"/>
        <path id="Trazado_9505" data-name="Trazado 9505" d="M891.045,2550.795a12.365,12.365,0,1,1,12.366-12.365,12.379,12.379,0,0,1-12.366,12.365Zm0-24.271a11.906,11.906,0,1,0,11.906,11.906,11.919,11.919,0,0,0-11.906-11.906Z"/>
        <path id="Trazado_9506" data-name="Trazado 9506" d="M915.4,2550.795a12.365,12.365,0,1,1,12.366-12.365,12.379,12.379,0,0,1-12.366,12.365Zm0-24.271A11.906,11.906,0,1,0,927.3,2538.43a11.92,11.92,0,0,0-11.906-11.906Z"/>
        <path id="Trazado_9507" data-name="Trazado 9507" d="M862.653,2454.3a5.417,5.417,0,1,1,5.417-5.417,5.423,5.423,0,0,1-5.417,5.417Zm0-10.375a4.958,4.958,0,1,0,4.958,4.958,4.963,4.963,0,0,0-4.958-4.958Z"/>
        <path id="Trazado_9508" data-name="Trazado 9508" d="M856.7,2513.013a5.417,5.417,0,1,1,5.418-5.417,5.423,5.423,0,0,1-5.418,5.417Zm0-10.375a4.958,4.958,0,1,0,4.958,4.958,4.964,4.964,0,0,0-4.958-4.958Z"/>
        <path id="Trazado_9509" data-name="Trazado 9509" d="M867.793,2416.693a7.041,7.041,0,1,1,7.041-7.041,7.049,7.049,0,0,1-7.041,7.041Zm0-13.622a6.581,6.581,0,1,0,6.582,6.581,6.589,6.589,0,0,0-6.582-6.581Z"/>
        <path id="Trazado_9510" data-name="Trazado 9510" d="M857.465,2494.074a4.065,4.065,0,1,1,4.065-4.065,4.069,4.069,0,0,1-4.065,4.065Zm0-7.669a3.6,3.6,0,1,0,3.6,3.6,3.608,3.608,0,0,0-3.6-3.6Z"/>
        <path id="Trazado_9511" data-name="Trazado 9511" d="M898.861,2680.221a3.794,3.794,0,1,1,3.794-3.794,3.8,3.8,0,0,1-3.794,3.794Zm0-7.129a3.334,3.334,0,1,0,3.335,3.335,3.338,3.338,0,0,0-3.335-3.335Z"/>
        <path id="Trazado_9512" data-name="Trazado 9512" d="M902.966,2331.419c-10.653,0-15.121-3.95-15.306-4.118l.31-.341c.044.04,4.539,4,15,4v.46Z"/>
        <path id="Trazado_9513" data-name="Trazado 9513" d="M867.065,2416.466a5.832,5.832,0,0,1-4.826-2.466c-3.914-5.526-.829-19.086,2.449-29.489,2.093-6.645,7.547-7.5,7.6-7.5l.065.455c-.051.008-5.225.829-7.228,7.188-4.589,14.565-5.481,24.894-2.512,29.085a5.388,5.388,0,0,0,4.464,2.272l-.014.46Z"/>
        <path id="Trazado_9514" data-name="Trazado 9514" d="M856.971,2523.221a.384.384,0,0,1-.384-.383v-30.3l15.356-115.351a.383.383,0,1,1,.76.1l-15.352,115.3,0,30.253a.384.384,0,0,1-.384.383Z"/>
        <path id="Trazado_9515" data-name="Trazado 9515" d="M856.933,2523.064c-1.359-.226-5.5-9.062-5.783-14.1-.53-9.51,1.012-13.646,2.637-17.067l.415.2c-1.6,3.367-3.117,7.442-2.593,16.844.3,5.446,4.606,13.542,5.4,13.675l-.076.453Z"/>
        <path id="Trazado_9516" data-name="Trazado 9516" d="M868.835,2416.8a5.407,5.407,0,0,1-1.088-.114l.093-.45a4.5,4.5,0,0,0,3.719-.834c4.628-3.438,5.735-15.125,5.745-15.242l.459.041c-.044.489-1.138,12.011-5.93,15.57a4.936,4.936,0,0,1-3,1.029Z"/>
        <path id="Trazado_9517" data-name="Trazado 9517" d="M853.765,2488.313c-2.293-29.869,1.718-40.139,5.487-43.495a4.419,4.419,0,0,1,3.391-1.356,3.949,3.949,0,0,1,3.684,1.275c3.075,3.253,4.644,13.448-5.35,43.541l-.436-.145c10.436-31.427,7.9-40.475,5.461-43.071a3.474,3.474,0,0,0-3.29-1.144l-.051.014-.052-.01a3.97,3.97,0,0,0-3.078,1.264c-3.01,2.709-7.7,11.909-5.307,43.092l-.459.035Z"/>
        <path id="Trazado_9518" data-name="Trazado 9518" d="M856.995,2523.066l-.048-.457c1.371-.145,3.86-7.735,4.756-14.5.8-6.03-.883-16.513-.9-16.618l.455-.074c.016.106,1.709,10.656.9,16.752-.786,5.936-3.188,14.691-5.165,14.9Z"/>
        <path id="Trazado_9519" data-name="Trazado 9519" d="M857.922,2447.1l-.459-.036,3.067-38.961.459.036-3.067,38.961Z"/>
        <path id="Trazado_9520" data-name="Trazado 9520" d="M868.067,2448.925l-.452-.082,6.807-37.518.452.082-6.807,37.518Z"/>
        <path id="Trazado_9521" data-name="Trazado 9521" d="M903.27,2354.568l-.066-.455c5.7-.83,9.976-4.5,11.533-7.548,1.754-3.438,3.593-15.151,3.612-15.269-.061-9.63-2.268-16.377-6.563-20.018a11.475,11.475,0,0,0-8.512-2.727l-.073-.455a11.721,11.721,0,0,1,8.874,2.824c4.407,3.73,6.672,10.6,6.731,20.41-.078.521-1.872,11.941-3.659,15.444-1.61,3.155-6.013,6.94-11.877,7.794Z"/>
        <path id="Trazado_9522" data-name="Trazado 9522" d="M906.8,2715.069l-3.76-8.085v-.052l.27-30.392,2.435-46.006-2.437-23.265.005-.031,4.053-22.967-4.6-45.964,1.625-30.66,6.146-11.322.4.22-6.1,11.23-1.62,30.522,4.6,45.991,0,.032-4.053,22.966,2.432,23.236-2.434,46.032-.27,30.33,3.454,7.429,8.155-7.287-4.438-30.576.009-.041,15.325-68.964-7.669-23.005.012-.06,15.34-76.695.375-22.929L918.336,2446.4l.016-.071,15.276-68.745H918.683l0,.01-15.735,4.275,7.853-30.686.453.059-.12,25.882H934.2l-.062.28-15.323,68.954,15.71,38.316v.047l-.381,23.018-15.331,76.676,7.67,23.011-15.344,69.046,4.462,30.738-8.8,7.864Zm3.988-361.973-7.2,28.117,13.377-3.634h-6.294l.114-24.483Z"/>
        <path id="Trazado_9523" data-name="Trazado 9523" d="M913.012,2589.968a5.417,5.417,0,1,1,5.417-5.417,5.423,5.423,0,0,1-5.417,5.417Zm0-10.375a4.958,4.958,0,1,0,4.957,4.958,4.963,4.963,0,0,0-4.957-4.958Z"/>
        <path id="Trazado_9524" data-name="Trazado 9524" d="M943.585,2454.416A5.417,5.417,0,1,1,949,2449a5.423,5.423,0,0,1-5.417,5.417Zm0-10.375a4.958,4.958,0,1,0,4.958,4.958,4.964,4.964,0,0,0-4.958-4.958Z"/>
        <path id="Trazado_9525" data-name="Trazado 9525" d="M949.538,2513.128a5.417,5.417,0,1,1,5.417-5.417,5.423,5.423,0,0,1-5.417,5.417Zm0-10.375a4.958,4.958,0,1,0,4.957,4.958,4.964,4.964,0,0,0-4.957-4.958Z"/>
        <path id="Trazado_9526" data-name="Trazado 9526" d="M938.444,2416.808a7.041,7.041,0,1,1,7.041-7.041,7.049,7.049,0,0,1-7.041,7.041Zm0-13.622a6.581,6.581,0,1,0,6.581,6.581,6.589,6.589,0,0,0-6.581-6.581Z"/>
        <path id="Trazado_9527" data-name="Trazado 9527" d="M948.772,2494.189a4.065,4.065,0,1,1,4.065-4.065,4.069,4.069,0,0,1-4.065,4.065Zm0-7.669a3.6,3.6,0,1,0,3.605,3.6,3.608,3.608,0,0,0-3.605-3.6Z"/>
        <path id="Trazado_9528" data-name="Trazado 9528" d="M907.376,2680.335a3.793,3.793,0,1,1,3.8-3.793,3.8,3.8,0,0,1-3.8,3.793Zm0-7.128a3.334,3.334,0,1,0,3.335,3.335,3.338,3.338,0,0,0-3.335-3.335Z"/>
        <path id="Trazado_9529" data-name="Trazado 9529" d="M903.271,2331.534v-.46c10.477,0,14.953-3.959,15-4l.31.341c-.185.168-4.653,4.118-15.307,4.118Z"/>
        <path id="Trazado_9530" data-name="Trazado 9530" d="M939.173,2416.581l-.015-.46a5.39,5.39,0,0,0,4.465-2.272c2.969-4.191,2.077-14.52-2.512-29.085-2.007-6.372-7.176-7.18-7.229-7.188l.066-.455c.054.008,5.508.86,7.6,7.5,3.278,10.4,6.363,23.963,2.448,29.489a5.827,5.827,0,0,1-4.825,2.466Z"/>
        <path id="Trazado_9531" data-name="Trazado 9531" d="M949.267,2523.336a.384.384,0,0,1-.384-.384v-30.3L933.535,2377.4a.383.383,0,1,1,.76-.1l15.352,115.3,0,30.353a.384.384,0,0,1-.384.384Z"/>
        <path id="Trazado_9532" data-name="Trazado 9532" d="M949.3,2523.179l-.076-.453c.793-.133,5.1-8.228,5.4-13.675.524-9.4-.994-13.476-2.594-16.844l.416-.2c1.625,3.421,3.167,7.558,2.637,17.066-.281,5.042-4.424,13.877-5.783,14.1Z"/>
        <path id="Trazado_9533" data-name="Trazado 9533" d="M937.4,2416.918a4.939,4.939,0,0,1-3-1.03c-4.792-3.559-5.886-15.081-5.93-15.57l.459-.041c.01.117,1.118,11.806,5.745,15.242a4.492,4.492,0,0,0,3.719.834l.093.45a5.343,5.343,0,0,1-1.089.115Z"/>
        <path id="Trazado_9534" data-name="Trazado 9534" d="M952.473,2488.428l-.459-.035c2.4-31.246-2.313-40.425-5.334-43.116a3.9,3.9,0,0,0-3.051-1.24l-.052.01-.052-.014a3.474,3.474,0,0,0-3.289,1.144c-2.44,2.6-4.975,11.644,5.461,43.071l-.436.145c-9.994-30.093-8.426-40.288-5.351-43.541a3.948,3.948,0,0,1,3.685-1.275,4.422,4.422,0,0,1,3.391,1.356c3.769,3.356,7.779,13.626,5.487,43.495Z"/>
        <path id="Trazado_9535" data-name="Trazado 9535" d="M949.243,2523.181c-1.977-.208-4.379-8.963-5.165-14.9-.806-6.1.886-16.646.9-16.752l.455.074c-.018.1-1.7,10.589-.9,16.618.9,6.768,3.384,14.357,4.756,14.5l-.048.458Z"/>
        <path id="Trazado_9536" data-name="Trazado 9536" d="M948.316,2447.213l-3.066-38.961.459-.036,3.066,38.961-.459.036Z"/>
        <path id="Trazado_9537" data-name="Trazado 9537" d="M938.171,2449.04l-6.807-37.518.452-.082,6.807,37.518-.452.082Z"/>
        <path id="Trazado_9538" data-name="Trazado 9538" d="M887.274,2411.426c-7.107,0-9.365-9.071-9.387-9.165l.427-.1c.022.092,2.308,9.276,9.524,8.81.306.011,7.049.212,9.245-7.667l.423.118c-2.291,8.223-9.581,7.992-9.664,7.987-.192.013-.382.019-.568.019Z"/>
        <path id="Trazado_9539" data-name="Trazado 9539" d="M917.848,2411.426c-7.108,0-9.365-9.071-9.388-9.165l.427-.1c.022.092,2.315,9.276,9.525,8.81.3.011,7.049.212,9.245-7.667l.423.118c-2.291,8.223-9.583,7.992-9.664,7.987-.192.013-.382.019-.568.019Z"/>
        <path id="Trazado_9540" data-name="Trazado 9540" d="M903.542,2500.248a.39.39,0,0,1-.167-.038l-31.6-15.267a.384.384,0,0,1-.132-.585l30.844-38.42a.384.384,0,0,1,.3-.143h0a.382.382,0,0,1,.3.14l31.51,38.535a.385.385,0,0,1-.128.587l-30.753,15.152a.39.39,0,0,1-.17.039Zm-31-15.786,31,14.976,30.153-14.856-30.9-37.795-30.246,37.675Z"/>
        <path id="Trazado_9541" data-name="Trazado 9541" d="M902.782,2447.118l-31.049-70.269,62.776.117-.244.541-31.483,69.611Zm-29.87-69.5,29.879,67.62,30.53-67.507-60.409-.113Z"/>
        <path id="Trazado_9542" data-name="Trazado 9542" d="M898.975,2714.581l-.5-38.149-5.632-91.944-21.278-99.81.75-.16,21.29,99.866,0,.029,5.635,91.991.5,38.168-.767.01Z"/>
        <path id="Trazado_9543" data-name="Trazado 9543" d="M907.318,2714.581l-.767-.01.5-38.149,5.638-92.038.006-.028,21.228-99.722.75.159-21.222,99.695-5.634,91.963-.5,38.131Z"/>
        <path id="Trazado_9544" data-name="Trazado 9544" d="M1089.094,2677.186l-1.043-.256c22.526-91.8,26.575-147.646,13.54-186.751-4.811-14.434-15.577-42.983-15.685-43.27-.054-.147-5.209-14.434-4.364-35.385.349-8.648,2.676-19.089,6.729-30.195l1.008.369c-4.015,11-6.319,21.331-6.664,29.87-.835,20.723,4.245,34.826,4.3,34.966.106.282,10.88,28.852,15.7,43.305,6.933,20.8,8.943,46.761,6.142,79.361-2.513,29.259-8.76,63.572-19.658,107.986Z" fill="#00a9b8"/>
        <path id="Trazado_9545" data-name="Trazado 9545" d="M1113.874,2453.446q-1.121,0-2.24-.014l.006-.541q1.117.013,2.234.014l.83,0,0,.541-.832,0Zm3.9-.04-.01-.541q1.533-.031,3.062-.086l.019.541q-1.531.054-3.071.086Zm-9.218-.038q-1.536-.047-3.071-.12l.026-.54q1.53.074,3.061.119l-.016.541Zm15.359-.181-.027-.54q1.533-.078,3.059-.176l.035.541q-1.528.1-3.067.175Zm-21.5-.115q-1.533-.1-3.063-.238l.048-.539q1.523.134,3.052.236l-.037.541Zm27.631-.278-.043-.541q1.533-.118,3.055-.257l.048.539q-1.524.14-3.06.259Zm-33.751-.26q-1.529-.168-3.049-.367l.07-.537q1.515.2,3.038.365l-.059.539Zm39.869-.3-.056-.538q1.531-.159,3.047-.333l.062.538q-1.518.174-3.053.333Zm-45.959-.508c-1.021-.159-2.04-.33-3.029-.509l.1-.533c.984.178,2,.349,3.015.508l-.083.534Zm-6.043-1.094c-1.006-.209-2.015-.432-3-.665l.124-.526c.98.231,1.984.453,2.985.661l-.11.53Zm-5.978-1.412c-.989-.264-1.984-.545-2.956-.835l.155-.519c.967.289,1.956.568,2.941.831l-.14.523Zm-5.886-1.76c-.978-.326-1.953-.669-2.9-1.019l.188-.507c.939.348,1.909.688,2.881,1.013l-.171.513Zm-5.762-2.134c-.954-.392-1.9-.8-2.823-1.217l.223-.493c.913.413,1.857.819,2.806,1.209l-.206.5Zm-5.6-2.536c-.919-.459-1.836-.938-2.726-1.426l.26-.475c.883.484,1.794.961,2.708,1.416l-.242.485Zm-5.395-2.959c-.882-.53-1.758-1.082-2.606-1.641l.3-.452c.842.555,1.712,1.1,2.587,1.629l-.279.464Zm-5.141-3.391c-.834-.6-1.662-1.228-2.459-1.859l.336-.425c.791.626,1.612,1.247,2.44,1.845l-.317.439Zm-4.835-3.826c-.772-.668-1.54-1.363-2.282-2.066l.372-.393c.737.7,1.5,1.387,2.264,2.05l-.354.409Zm-4.469-4.232c-.708-.734-1.411-1.495-2.088-2.262l.406-.358c.672.761,1.369,1.516,2.072,2.244l-.39.376Zm-4.073-4.614c-.641-.8-1.273-1.616-1.878-2.438l.436-.321c.6.816,1.228,1.63,1.864,2.419l-.422.34Z" fill="#b8cfd1"/>
        <path id="Trazado_9546" data-name="Trazado 9546" d="M1035.377,2688.274l-.112-.53c17.49-3.718,35.2-7.373,52.33-10.908,17.5-3.612,35.594-7.346,53.36-11.129l.113.53c-17.768,3.783-35.864,7.517-53.363,11.129-17.128,3.535-34.839,7.19-52.328,10.908Z" fill="#b8cfd1"/>
        <path id="Trazado_9547" data-name="Trazado 9547" d="M1035.341,2593.91l-.11-.529c20.321-4.2,40.874-7.28,60.75-10.262,14.763-2.215,30.028-4.5,45.03-7.229l.1.533c-15.01,2.725-30.279,5.016-45.046,7.231-19.869,2.981-40.414,6.063-60.72,10.256Z" fill="#b8cfd1"/>
        <path id="Trazado_9548" data-name="Trazado 9548" d="M1035.4,2612.664l-.091-.534c17.159-2.933,34.557-5.764,51.383-8.5,17.839-2.9,36.286-5.9,54.461-9.031l.092.533c-18.178,3.128-36.626,6.129-54.466,9.032-16.825,2.737-34.222,5.568-51.379,8.5Z" fill="#b8cfd1"/>
        <path id="Trazado_9549" data-name="Trazado 9549" d="M1035.333,2491.04l-.057-.538c12.379-1.3,25.519-2.775,41.351-4.635,11.488-1.349,23.164-2.758,34.455-4.121l6.641-.8q11.68-1.409,23.364-2.8l.063.538q-11.682,1.381-23.362,2.8l-6.641.8c-11.292,1.363-22.968,2.772-34.457,4.122-15.834,1.86-28.975,3.333-41.357,4.635Z" fill="#b8cfd1"/>
        <path id="Trazado_9550" data-name="Trazado 9550" d="M1141.2,2420.132c-15.414-3.8-30.924-7.931-45.922-11.922-19.886-5.291-40.449-10.763-60.774-15.47l.122-.528c20.334,4.71,40.9,10.183,60.791,15.475,15,3.991,30.5,8.117,45.913,11.92l-.13.525Z" fill="#b8cfd1"/>
        <path id="Trazado_9551" data-name="Trazado 9551" d="M1141.135,2388.267q-11.592-2.548-23.176-5.137l-11.655-2.6c-9.675-2.161-19.677-4.4-29.521-6.568-16.088-3.552-29.283-6.4-41.525-8.951l.111-.53c12.244,2.556,25.44,5.4,41.53,8.952,9.845,2.174,19.848,4.408,29.522,6.569l11.655,2.6q11.584,2.583,23.176,5.136l-.117.529Z" fill="#b8cfd1"/>
        <path id="Trazado_9552" data-name="Trazado 9552" d="M1089.031,2381.645l-.377-.263c13.245-18.958,17.885-27.806,21.079-35.937,5.346-13.615,5.624-23.716.824-30.023-6.29-8.264-19.324-7-19.455-6.985a15.271,15.271,0,0,0-9.785,4.709c-3.793,4-5.592,10.079-5.348,18.064a34.749,34.749,0,0,0,3.968,14.391l.195.37c1.148,2.189,4.2,8,9.555,8.479,4.521.407,9.674-3.072,15.3-10.325l.364.282c-5.725,7.384-11.005,10.919-15.7,10.5-5.609-.5-8.742-6.474-9.921-8.724l-.194-.366a35.233,35.233,0,0,1-4.021-14.594c-.249-8.117,1.595-14.308,5.48-18.4a15.744,15.744,0,0,1,10.083-4.845c.115-.012,13.406-1.3,19.85,7.165,4.9,6.444,4.648,16.695-.762,30.47-3.206,8.162-7.859,17.037-21.13,36.032Z"/>
        <path id="Trazado_9553" data-name="Trazado 9553" d="M1089.073,2381.519l-.46-.01c.052-2.335,1.827-10.9,3.358-17.889-1.345,3.464-3.249,6.858-5.814,8.265-5.19,2.846-16.975.559-23.307-.669-.57-.111-1.093-.212-1.556-.3l.084-.452c.465.087.988.189,1.56.3,6.275,1.217,17.953,3.483,23,.716,3.591-1.969,5.886-8.232,7.115-12.727.611-2.714,1.053-4.625,1.114-4.89l.452.09c-.038.227-.409,2.414-1.185,5.214-1.609,7.176-4.3,19.546-4.359,22.351Z"/>
        <path id="Trazado_9554" data-name="Trazado 9554" d="M1068.5,2486.811l-.449-.1,8.916-41.07-10.987-39.493.443-.123,11.018,39.6-.012.056-8.929,41.125Z"/>
        <path id="Trazado_9555" data-name="Trazado 9555" d="M1036.119,2477.344a4.065,4.065,0,1,1,3.786-2.583,4.057,4.057,0,0,1-3.786,2.583Zm0-7.671a3.607,3.607,0,1,0,1.313.249,3.586,3.586,0,0,0-1.313-.249Z"/>
        <path id="Trazado_9556" data-name="Trazado 9556" d="M1117.288,2471.5a3.182,3.182,0,1,1,2.962-2.021,3.169,3.169,0,0,1-2.962,2.021Zm0-5.9a2.724,2.724,0,1,0,.992.188,2.705,2.705,0,0,0-.992-.188Z"/>
        <path id="Trazado_9557" data-name="Trazado 9557" d="M1114.131,2485.774a5.19,5.19,0,1,1,4.832-3.3,5.159,5.159,0,0,1-4.832,3.3Zm0-9.92a4.731,4.731,0,1,0,1.723.327,4.7,4.7,0,0,0-1.723-.327Z"/>
        <path id="Trazado_9558" data-name="Trazado 9558" d="M1086.325,2331.443c-7.505,0-10.5-2.509-10.712-2.7l.3-.345c.092.08,9.459,7.856,37.093-4.367l.186.421c-12.3,5.439-20.976,6.988-26.871,6.988Z"/>
        <path id="Trazado_9559" data-name="Trazado 9559" d="M1043.987,2409.92c-2.074-5.044.708-12.269,3.929-20.635.4-1.042.808-2.1,1.21-3.163,5.437-14.41,7.443-16.883,12.627-15.564l-.113.446c-4.846-1.232-6.768,1.193-12.084,15.28-.4,1.067-.809,2.123-1.21,3.166-3.186,8.275-5.938,15.421-3.933,20.3l-.426.175Z"/>
        <path id="Trazado_9560" data-name="Trazado 9560" d="M1029,2501.7l-.446-.114,7.305-28.409,5.948-43.264,20.3-54.7.431.16-20.292,54.654-5.94,43.241L1029,2501.7Z"/>
        <path id="Trazado_9561" data-name="Trazado 9561" d="M1050.7,2413.76l-.007-.46c6.225-.087,11.687-12.853,11.741-12.982l.424.179c-.227.538-5.634,13.172-12.158,13.263Z"/>
        <path id="Trazado_9562" data-name="Trazado 9562" d="M1040.337,2472.465l-.436-.15c11.334-32.848,8.656-42.987,6.051-46.107a4.071,4.071,0,0,0-3.487-1.65l-.042.006-.041-.008a3.7,3.7,0,0,0-2.873,1.134c-3.144,2.705-8.174,12.244-6.533,45.729l-.46.023c-1.654-33.756,3.5-43.391,6.726-46.129a4.148,4.148,0,0,1,3.194-1.215,4.523,4.523,0,0,1,3.869,1.815c3.259,3.9,4.868,15.146-5.968,46.552Z"/>
        <path id="Trazado_9563" data-name="Trazado 9563" d="M1047.52,2431.485l-.417-.2,11.183-23.674.416.2-11.183,23.674Z"/>
        <path id="Trazado_9564" data-name="Trazado 9564" d="M1090.135,2354.95c-2.916-.795-5.159-2.431-7.324-8.122-6.043-15.879-3.509-25.586-.32-30.934a19.869,19.869,0,0,1,8.5-7.9l.173.427a19.382,19.382,0,0,0-8.293,7.732c-3.127,5.259-5.6,14.821.369,30.51,2.1,5.533,4.167,7.065,7.015,7.842l-.121.444Z"/>
        <path id="Trazado_9565" data-name="Trazado 9565" d="M1071.521,2407.846a8.759,8.759,0,0,1-2.132-.237c-7.465-1.274-7.552-11.115-7.552-11.214h.44c0,.095.087,9.57,7.21,10.786.3.084,6.806,1.849,10.777-5.3l.383.213c-2.723,4.9-6.7,5.753-9.126,5.753Z"/>
        <path id="Trazado_9566" data-name="Trazado 9566" d="M1101.127,2415.793a10.341,10.341,0,0,1-2.331-.237c-8.2-1.273-8.289-11.126-8.289-11.225h.46c0,.095.1,9.558,7.922,10.776a11.065,11.065,0,0,0,11.853-5.3l.393.239a11.339,11.339,0,0,1-10.008,5.751Z"/>
        <path id="Trazado_9567" data-name="Trazado 9567" d="M1032.094,2492.468a5.445,5.445,0,0,1-1.287-.156,5.418,5.418,0,0,1,1.279-10.682,5.419,5.419,0,0,1,.008,10.838Zm-.008-10.378a4.973,4.973,0,1,0,1.178.143,4.944,4.944,0,0,0-1.178-.143Z"/>
        <path id="Trazado_9568" data-name="Trazado 9568" d="M1028.877,2502.346l-.286-.252c-.981-.865-1.3-2.606-1.558-4-.044-.241-.086-.469-.128-.675-2.02-9.751-.079-18.872,5.466-25.68l.357.29c-5.456,6.7-7.364,15.684-5.373,25.3.043.208.086.439.131.685a8.63,8.63,0,0,0,1.135,3.446l3.129-12.837c.662-2.974,1.366-5.627,2.111-8.436.713-2.686,1.45-5.465,2.152-8.567l.449.1c-.7,3.111-1.442,5.894-2.156,8.584-.744,2.8-1.447,5.453-2.108,8.423l-3.321,13.625Z"/>
        <path id="Trazado_9569" data-name="Trazado 9569" d="M1028.811,2502.156a.621.621,0,0,1-.1-.007l.061-.456a.359.359,0,0,0,.056,0c1.423,0,5.56-6.689,8-12.967,2.2-5.669,3.051-16.252,3.06-16.358l.458.036c-.008.107-.862,10.757-3.089,16.488-2.134,5.49-6.433,13.26-8.448,13.26Z"/>
        <path id="Trazado_9570" data-name="Trazado 9570" d="M1086.465,2447.295l-.259-.464c-.254-.458-25.449-46.078-24.108-71.553l.014-.272L1125,2389.223l-.27.293c-.3.329-30.395,33.2-38.1,57.273l-.162.506Zm-23.921-71.719c-1.077,24.006,21.16,65.692,23.81,70.566,7.582-22.9,34.768-53.333,37.767-56.645l-61.577-13.921Z"/>
        <path id="Trazado_9571" data-name="Trazado 9571" d="M1122.257,2584.936a5.776,5.776,0,1,1,5.777-5.777,5.783,5.783,0,0,1-5.777,5.777Zm0-11.093a5.317,5.317,0,1,0,5.317,5.316,5.322,5.322,0,0,0-5.317-5.316Z"/>
        <path id="Trazado_9572" data-name="Trazado 9572" d="M1059.216,2595.488a5.776,5.776,0,1,1,5.777-5.777,5.783,5.783,0,0,1-5.777,5.777Zm0-11.093a5.317,5.317,0,1,0,5.317,5.316,5.322,5.322,0,0,0-5.317-5.316Z"/>
        <path id="Trazado_9573" data-name="Trazado 9573" d="M1069.173,2684.664a3.794,3.794,0,1,1,3.794-3.793,3.8,3.8,0,0,1-3.794,3.793Zm0-7.128a3.335,3.335,0,1,0,3.334,3.335,3.338,3.338,0,0,0-3.334-3.335Z"/>
        <path id="Trazado_9574" data-name="Trazado 9574" d="M1089.059,2680.065a3.794,3.794,0,1,1,3.794-3.794,3.8,3.8,0,0,1-3.794,3.794Zm0-7.128a3.334,3.334,0,1,0,3.334,3.334,3.338,3.338,0,0,0-3.334-3.334Z"/>
        <path id="Trazado_9575" data-name="Trazado 9575" d="M1042.43,2434.936a5.417,5.417,0,1,1,5.418-5.418,5.424,5.424,0,0,1-5.418,5.418Zm0-10.375a4.958,4.958,0,1,0,4.958,4.957,4.963,4.963,0,0,0-4.958-4.957Z"/>
        <path id="Trazado_9576" data-name="Trazado 9576" d="M1171.635,2450.107a5.417,5.417,0,1,1,5.417-5.417,5.424,5.424,0,0,1-5.417,5.417Zm0-10.374a4.957,4.957,0,1,0,4.958,4.957,4.963,4.963,0,0,0-4.958-4.957Z"/>
        <path id="Trazado_9577" data-name="Trazado 9577" d="M1050.277,2413.742a7.041,7.041,0,1,1,7.041-7.041,7.049,7.049,0,0,1-7.041,7.041Zm0-13.622a6.58,6.58,0,1,0,6.581,6.581,6.589,6.589,0,0,0-6.581-6.581Z"/>
        <path id="Trazado_9578" data-name="Trazado 9578" d="M1143.485,2417.665a7.041,7.041,0,1,1,7.041-7.041,7.05,7.05,0,0,1-7.041,7.041Zm0-13.622a6.581,6.581,0,1,0,6.582,6.581,6.588,6.588,0,0,0-6.582-6.581Z"/>
        <path id="Trazado_9579" data-name="Trazado 9579" d="M1100.206,2409.156a1.083,1.083,0,1,1-1.082-1.037,1.06,1.06,0,0,1,1.082,1.037Z"/>
        <path id="Trazado_9580" data-name="Trazado 9580" d="M1070.174,2400.994a1.083,1.083,0,1,1-1.082-1.037,1.06,1.06,0,0,1,1.082,1.037Z"/>
        <path id="Trazado_9581" data-name="Trazado 9581" d="M1069.5,2486.717a1.084,1.084,0,1,1-1.083-1.037,1.061,1.061,0,0,1,1.083,1.037Z"/>
        <path id="Trazado_9582" data-name="Trazado 9582" d="M1130.915,2479.683a1.083,1.083,0,1,1-1.082-1.038,1.06,1.06,0,0,1,1.082,1.038Z"/>
        <path id="Trazado_9583" data-name="Trazado 9583" d="M1117.658,2468.184a1.083,1.083,0,1,1-1.083-1.037,1.061,1.061,0,0,1,1.083,1.037Z"/>
        <path id="Trazado_9584" data-name="Trazado 9584" d="M1036.9,2472.919a1.083,1.083,0,1,1-1.082-1.038,1.061,1.061,0,0,1,1.082,1.038Z"/>
        <path id="Trazado_9585" data-name="Trazado 9585" d="M1069.9,2680.485a1.083,1.083,0,1,1-1.082-1.037,1.06,1.06,0,0,1,1.082,1.037Z"/>
        <path id="Trazado_9586" data-name="Trazado 9586" d="M1089.925,2676.494a1.083,1.083,0,1,1-1.082-1.037,1.06,1.06,0,0,1,1.082,1.037Z"/>
        <path id="Trazado_9587" data-name="Trazado 9587" d="M1060.262,2589.622a1.083,1.083,0,1,1-1.083-1.037,1.061,1.061,0,0,1,1.083,1.037Z"/>
        <path id="Trazado_9588" data-name="Trazado 9588" d="M1123.881,2579.2a1.084,1.084,0,1,1-1.083-1.037,1.061,1.061,0,0,1,1.083,1.037Z"/>
        <path id="Trazado_9589" data-name="Trazado 9589" d="M1087.219,2446.133a1.083,1.083,0,1,1-1.082-1.037,1.06,1.06,0,0,1,1.082,1.037Z"/>
        <path id="Trazado_9590" data-name="Trazado 9590" d="M1043.388,2429.674a1.083,1.083,0,1,1-1.082-1.037,1.06,1.06,0,0,1,1.082,1.037Z"/>
        <path id="Trazado_9591" data-name="Trazado 9591" d="M1063.275,2375.561a1.084,1.084,0,1,1-1.083-1.037,1.061,1.061,0,0,1,1.083,1.037Z"/>
        <path id="Trazado_9592" data-name="Trazado 9592" d="M1125.5,2389.36a1.083,1.083,0,1,1-1.082-1.037,1.06,1.06,0,0,1,1.082,1.037Z"/>
        <path id="Trazado_9593" data-name="Trazado 9593" d="M1172.176,2445.1a1.083,1.083,0,1,1-1.082-1.037,1.06,1.06,0,0,1,1.082,1.037Z"/>
        <path id="Trazado_9594" data-name="Trazado 9594" d="M1073.962,2552.48a13.007,13.007,0,1,1,13.007-13.007,13.022,13.022,0,0,1-13.007,13.007Zm0-25.531a12.524,12.524,0,1,0,12.523,12.524,12.538,12.538,0,0,0-12.523-12.524Z"/>
        <path id="Trazado_9595" data-name="Trazado 9595" d="M1123.1,2546.7a13.007,13.007,0,1,1,13.008-13.007A13.023,13.023,0,0,1,1123.1,2546.7Zm0-25.53a12.523,12.523,0,1,0,12.524,12.523,12.536,12.536,0,0,0-12.524-12.523Z"/>
        <path id="Trazado_9596" data-name="Trazado 9596" d="M1037.568,2428.381l-.444-.12,6.223-23.043.444.12-6.223,23.043Z"/>
        <path id="Trazado_9597" data-name="Trazado 9597" d="M1108.752,2497.23l-.11-.4a39.536,39.536,0,0,1,6.529-31.039l.079-.069c.156-.083,15.657-8.335,20.282-11.088,9.417-5.6,22.66-10.589,29.372-11.095-1.975-2.077-12.269-12.89-24.549-25.614-2.26-2.341-5.527-5.146-8.686-7.858-4.818-4.135-9.368-8.041-10.829-10.586l.4-.229c1.421,2.476,6.153,6.538,10.729,10.466,3.168,2.719,6.444,5.531,8.718,7.887,13.61,14.1,24.781,25.858,24.893,25.975l.348.367-.505.022c-6.473.281-20.053,5.347-29.654,11.061-4.507,2.682-19.295,10.562-20.254,11.073a39.2,39.2,0,0,0-6.527,30.191,60.5,60.5,0,0,0,8.42-11.8c4.486-8.972,2.1-14.085,2.073-14.136l-.121-.25.268-.073c53.072-14.455,54.89-16.919,57.406-20.33.135-.183.271-.368.417-.557a5.087,5.087,0,0,1,.409-.455,2.418,2.418,0,0,0,.761-2.277,2.731,2.731,0,0,0-.792-1.724,20.559,20.559,0,0,1-2.068-3.279c-2.4-4.615-25.444-32.417-25.677-32.7-14.6-23.982-22.982-23.734-23.075-23.727l-38.219-3.25-.031-.013-27.507-10.912.17-.428,27.475,10.9,38.116,3.244c.31-.026,8.664-.358,23.445,23.919.931,1.119,23.293,28.094,25.711,32.752a19.945,19.945,0,0,0,2.026,3.213,3.149,3.149,0,0,1,.886,1.975,2.852,2.852,0,0,1-.892,2.626,4.454,4.454,0,0,0-.373.414c-.145.187-.279.369-.412.549-2.567,3.48-4.421,6-57.4,20.432.448,1.155,1.9,6.12-2.184,14.29a62.175,62.175,0,0,1-8.786,12.23l-.28.3Z"/>
        <path id="Trazado_9598" data-name="Trazado 9598" d="M1103.759,2494.038l-35.744-7.094.038-.221c.046-.266,4.767-26.742,18.192-40.167l.143-.142.159.122,43.847,33.5-26.635,14Zm-35.212-7.457,35.142,6.974,25.853-13.593-43.114-32.937c-12.564,12.709-17.4,36.981-17.881,39.556Z"/>
        <path id="Trazado_9599" data-name="Trazado 9599" d="M1109.092,2496.358l-.454-.071,2.165-13.889,5.458-14.478.091-.038L1170.718,2445l-46.337-55.5.353-.295,46.736,55.975-54.85,23.08-5.376,14.247-2.152,13.844Z"/>
        <path id="Trazado_9600" data-name="Trazado 9600" d="M1103.514,2710.207l-15.053-33.227.029-.085,33.054-97.9,8.2-99.018.459.038-8.2,99.074-.009.026-33.034,97.838,14.979,33.061-.42.19Z"/>
        <path id="Trazado_9601" data-name="Trazado 9601" d="M1103.875,2710.568l-8.72-3.939-.034-.089-8.241-22.022c-.316-.435-3.678-5.133-3.406-7.175a11.709,11.709,0,0,1,2.03-5.662,27.325,27.325,0,0,0,3.389-7.766c1.613-5.406,18.23-62.464,18.4-63.04,3.71-7.788,9.206-19.631,9.19-20.481-1.069-12.292-12.866-85.819-12.984-86.561l.454-.073c.119.742,11.918,74.285,12.989,86.6.1,1.109-8.267,18.681-9.221,20.681-.154.542-16.771,57.6-18.385,63.009a27.716,27.716,0,0,1-3.44,7.878,11.2,11.2,0,0,0-1.964,5.479c-.255,1.916,3.3,6.819,3.34,6.868l.03.055,8.218,21.962,8.054,3.637,3.418-12.619-13.977-19,.12-.139a4.418,4.418,0,0,0,.895-1.649,1.844,1.844,0,0,0-.959-1.918l-.257-.128.181-.223c3.414-4.2,37.38-75.586,38.629-78.213l-3.514-17.842.019-.058c3.353-10.06,11.625-58.547,8.93-85.4-.591-5.9-1.68-10.42-3.235-13.444-4.947-9.619-12.958-17.087-18.808-21.657a58.1,58.1,0,0,0-9.765-6.379l-.156-.073.027-.17c1.343-8.6,20.061-43.764,20.858-45.257l.405.217c-.193.362-19.231,36.127-20.781,44.944a60.7,60.7,0,0,1,9.7,6.355c5.885,4.6,13.948,12.116,18.933,21.809,1.582,3.076,2.687,7.655,3.284,13.609,2.7,26.863-5.559,75.327-8.933,85.537l3.521,17.873-.033.068c-1.417,2.983-34.336,72.2-38.565,78.169a2.241,2.241,0,0,1,.975,2.266,4.486,4.486,0,0,1-.882,1.725l13.894,18.885-3.617,13.355Z"/>
        <path id="Trazado_9602" data-name="Trazado 9602" d="M1052.148,2715.772l-1.424-8.54,7.342-13.868c.038-.081,4.285-8.908,7.181-13.476-.255-2.5-6.141-60.374-7.825-84.6a3.567,3.567,0,0,1-1.838-1.035c-2.589-2.5-2.158-4.507-2.138-4.592l14.606-102.929.457.052-9.063,102.949,9.611,90.794-.028.057-15.886,33.993,10.616-6.913,5.4-15.945.046-.041c1.594-1.409,5.708-5.36,5.6-6.709a9.975,9.975,0,0,0-3.16-6.737l-.109-.086.025-.137c7.853-41.357,8.02-71,8.023-72.5l-9.671-17.941.034-.1,33.55-93.749.433.154-33.515,93.654,9.629,17.863v.057c0,.3,0,30.3-8.006,72.513a10.374,10.374,0,0,1,3.225,6.971c.137,1.78-4.927,6.351-5.712,7.048l-5.418,15.981-11.995,7.811Zm-.944-8.462,1.269,7.612,16.113-34.477-9.6-90.709,8.306-94.379-13.4,94.387c-.007.037-.379,1.875,2.006,4.176a2.829,2.829,0,0,0,1.732.928h.215l.017.215c1.694,24.514,7.785,84.258,7.846,84.859l.008.079-.043.068c-2.882,4.524-7.158,13.415-7.2,13.5l-7.273,13.739Z"/>
        <path id="Trazado_9603" data-name="Trazado 9603" d="M1126.941,2384.985c-8.792-1.985-14.834-6.161-17.956-12.412-6-12.019.952-27.792,1.022-27.95l.42.188c-.07.156-6.936,15.736-1.029,27.559,3.058,6.12,8.994,10.213,17.645,12.166l-.1.449Z"/>
        <path id="Trazado_9604" data-name="Trazado 9604" d="M1176.866,2449.024a2.214,2.214,0,1,1,2.214-2.215,2.217,2.217,0,0,1-2.214,2.215Zm0-3.969a1.754,1.754,0,1,0,1.754,1.754,1.756,1.756,0,0,0-1.754-1.754Z"/>
        <path id="Trazado_9605" data-name="Trazado 9605" d="M1202.774,2346.8h.571v1.96h.013a1.062,1.062,0,0,1,.409-.4,1.181,1.181,0,0,1,.584-.162c.422,0,1.1.26,1.1,1.343v1.87h-.571v-1.8c0-.506-.189-.934-.727-.934a.82.82,0,0,0-.766.571.68.68,0,0,0-.039.273v1.9h-.571V2346.8Z" fill="#964242"/>
        <path id="Trazado_9606" data-name="Trazado 9606" d="M1206.7,2349.938a1.006,1.006,0,0,0,1.077,1.09,2.078,2.078,0,0,0,.87-.162l.1.409a2.565,2.565,0,0,1-1.046.2,1.459,1.459,0,0,1-1.544-1.584,1.525,1.525,0,0,1,1.473-1.694,1.331,1.331,0,0,1,1.3,1.48,2.259,2.259,0,0,1-.019.266Zm1.675-.409a.814.814,0,0,0-.793-.928.947.947,0,0,0-.876.928Z" fill="#964242"/>
        <path id="Trazado_9607" data-name="Trazado 9607" d="M1211.371,2351.405l-.046-.4h-.019a1.174,1.174,0,0,1-.961.467.9.9,0,0,1-.96-.9c0-.76.675-1.175,1.888-1.169v-.065a.647.647,0,0,0-.714-.726,1.575,1.575,0,0,0-.818.233l-.13-.376a1.952,1.952,0,0,1,1.032-.279c.961,0,1.2.655,1.2,1.285v1.175a4.324,4.324,0,0,0,.052.753Zm-.085-1.6c-.623-.012-1.331.1-1.331.708a.506.506,0,0,0,.539.545.783.783,0,0,0,.76-.526.609.609,0,0,0,.032-.181v-.546Z" fill="#964242"/>
        <path id="Trazado_9608" data-name="Trazado 9608" d="M1215.473,2346.8v3.8c0,.279.007.6.026.812h-.512l-.026-.546h-.013a1.161,1.161,0,0,1-1.071.617,1.432,1.432,0,0,1-1.343-1.6,1.5,1.5,0,0,1,1.408-1.687,1.049,1.049,0,0,1,.947.48h.014V2346.8Zm-.57,2.745a.976.976,0,0,0-.027-.24.839.839,0,0,0-.824-.662c-.59,0-.941.519-.941,1.214,0,.635.312,1.161.928,1.161a.857.857,0,0,0,.837-.682.956.956,0,0,0,.027-.246v-.545Z" fill="#964242"/>
        <path id="Trazado_9609" data-name="Trazado 9609" d="M1189.695,2397.357a1.5,1.5,0,0,0,.753.227c.416,0,.61-.208.61-.467s-.162-.422-.584-.578c-.565-.2-.83-.512-.83-.889a.968.968,0,0,1,1.084-.921,1.567,1.567,0,0,1,.772.194l-.143.416a1.219,1.219,0,0,0-.643-.182c-.337,0-.525.2-.525.428,0,.26.188.377.6.533.545.207.824.48.824.947,0,.552-.429.941-1.175.941a1.783,1.783,0,0,1-.882-.214l.142-.435Z" fill="#964242"/>
        <path id="Trazado_9610" data-name="Trazado 9610" d="M1192.345,2393.333h.571v1.96h.013a1.065,1.065,0,0,1,.408-.4,1.172,1.172,0,0,1,.585-.162c.422,0,1.1.259,1.1,1.343v1.869h-.571v-1.8c0-.506-.188-.935-.726-.935a.82.82,0,0,0-.766.572.678.678,0,0,0-.039.272v1.9h-.571v-4.608Z" fill="#964242"/>
        <path id="Trazado_9611" data-name="Trazado 9611" d="M1198.791,2396.345a1.535,1.535,0,0,1-1.564,1.668,1.494,1.494,0,0,1-1.506-1.616,1.534,1.534,0,0,1,1.558-1.668,1.487,1.487,0,0,1,1.512,1.616Zm-2.492.032c0,.688.4,1.207.954,1.207s.954-.513.954-1.22c0-.532-.266-1.207-.941-1.207s-.967.623-.967,1.22Z" fill="#964242"/>
        <path id="Trazado_9612" data-name="Trazado 9612" d="M1202.142,2397.085c0,.324.006.609.026.856h-.506l-.033-.512h-.013a1.181,1.181,0,0,1-1.038.584c-.493,0-1.084-.273-1.084-1.376V2394.8h.571v1.739c0,.6.182,1,.7,1a.8.8,0,0,0,.805-.812V2394.8h.571v2.285Z" fill="#964242"/>
        <path id="Trazado_9613" data-name="Trazado 9613" d="M1203.091,2393.333h.571v4.608h-.571v-4.608Z" fill="#964242"/>
        <path id="Trazado_9614" data-name="Trazado 9614" d="M1207.336,2393.333v3.8c0,.279.007.6.026.811h-.512l-.026-.545h-.013a1.163,1.163,0,0,1-1.071.617,1.432,1.432,0,0,1-1.343-1.6,1.5,1.5,0,0,1,1.408-1.687,1.052,1.052,0,0,1,.948.48h.013v-1.876Zm-.57,2.745a.971.971,0,0,0-.027-.239.839.839,0,0,0-.824-.663c-.59,0-.941.519-.941,1.214,0,.636.312,1.162.928,1.162a.857.857,0,0,0,.837-.682.962.962,0,0,0,.027-.246v-.546Z" fill="#964242"/>
        <path id="Trazado_9615" data-name="Trazado 9615" d="M1208.6,2396.474a1.006,1.006,0,0,0,1.077,1.091,2.065,2.065,0,0,0,.87-.163l.1.409a2.538,2.538,0,0,1-1.045.2,1.458,1.458,0,0,1-1.544-1.583,1.525,1.525,0,0,1,1.473-1.694,1.331,1.331,0,0,1,1.3,1.479,2.042,2.042,0,0,1-.02.266Zm1.674-.409a.813.813,0,0,0-.791-.928.946.946,0,0,0-.876.928Z" fill="#964242"/>
        <path id="Trazado_9616" data-name="Trazado 9616" d="M1211.539,2395.78c0-.37-.006-.688-.026-.98h.5l.02.616h.026a.941.941,0,0,1,.869-.687.631.631,0,0,1,.163.019v.539a.855.855,0,0,0-.195-.02.8.8,0,0,0-.766.734,1.58,1.58,0,0,0-.026.266v1.674h-.565v-2.161Z" fill="#964242"/>
        <path id="Trazado_9617" data-name="Trazado 9617" d="M1213.585,2397.357a1.5,1.5,0,0,0,.753.227c.415,0,.61-.208.61-.467s-.163-.422-.584-.578c-.565-.2-.831-.512-.831-.889a.968.968,0,0,1,1.084-.921,1.568,1.568,0,0,1,.772.194l-.143.416a1.217,1.217,0,0,0-.642-.182c-.338,0-.526.2-.526.428,0,.26.188.377.6.533.545.207.824.48.824.947,0,.552-.428.941-1.174.941a1.787,1.787,0,0,1-.883-.214l.143-.435Z" fill="#964242"/>
        <path id="Trazado_9618" data-name="Trazado 9618" d="M1202.246,2440.255l.416,1.6c.091.35.175.675.233,1h.02c.071-.318.175-.655.279-.993l.513-1.6h.48l.487,1.57c.116.376.207.707.279,1.025h.019a9.6,9.6,0,0,1,.241-1.018l.447-1.577h.565l-1.012,3.141h-.52l-.48-1.5c-.11-.351-.2-.663-.279-1.032h-.013a9.244,9.244,0,0,1-.286,1.038l-.506,1.493h-.519l-.947-3.141Z" fill="#964242"/>
        <path id="Trazado_9619" data-name="Trazado 9619" d="M1208.512,2443.4l-.045-.4h-.02a1.17,1.17,0,0,1-.96.467.9.9,0,0,1-.961-.9c0-.759.675-1.175,1.888-1.168v-.065a.647.647,0,0,0-.713-.727,1.565,1.565,0,0,0-.818.234l-.13-.377a1.948,1.948,0,0,1,1.032-.279c.961,0,1.194.656,1.194,1.285v1.175a4.422,4.422,0,0,0,.052.753Zm-.084-1.6c-.623-.012-1.331.1-1.331.708a.505.505,0,0,0,.539.545.781.781,0,0,0,.759-.525.622.622,0,0,0,.033-.182v-.546Z" fill="#964242"/>
        <path id="Trazado_9620" data-name="Trazado 9620" d="M1210.538,2439.372a.353.353,0,0,1-.707,0,.348.348,0,0,1,.357-.357.339.339,0,0,1,.35.357Zm-.635,4.024v-3.141h.571v3.141Z" fill="#964242"/>
        <path id="Trazado_9621" data-name="Trazado 9621" d="M1211.344,2442.811a1.49,1.49,0,0,0,.753.228c.416,0,.61-.208.61-.468s-.162-.421-.584-.577c-.565-.2-.831-.513-.831-.89a.969.969,0,0,1,1.084-.921,1.564,1.564,0,0,1,.772.195l-.142.415a1.236,1.236,0,0,0-.643-.182c-.338,0-.526.195-.526.429,0,.259.188.376.6.532.546.208.825.48.825.948,0,.551-.429.941-1.175.941a1.792,1.792,0,0,1-.883-.215l.143-.435Z" fill="#964242"/>
        <path id="Trazado_9622" data-name="Trazado 9622" d="M1214.681,2439.353v.9h.818v.434h-.818v1.694c0,.39.111.61.429.61a1.306,1.306,0,0,0,.331-.038l.026.428a1.416,1.416,0,0,1-.507.078.789.789,0,0,1-.616-.241,1.157,1.157,0,0,1-.221-.817v-1.714h-.486v-.434h.486v-.753l.558-.149Z" fill="#964242"/>
        <path id="Trazado_9623" data-name="Trazado 9623" d="M1203.1,2372.358c0-.324-.007-.59-.026-.85h.506l.033.519h.013a1.155,1.155,0,0,1,1.038-.59c.435,0,1.11.259,1.11,1.336v1.876h-.571v-1.811c0-.506-.189-.928-.727-.928a.813.813,0,0,0-.766.584.825.825,0,0,0-.039.266v1.889h-.571v-2.291Z" fill="#964242"/>
        <path id="Trazado_9624" data-name="Trazado 9624" d="M1207.02,2373.182a1.006,1.006,0,0,0,1.077,1.091,2.065,2.065,0,0,0,.87-.163l.1.409a2.536,2.536,0,0,1-1.044.2,1.459,1.459,0,0,1-1.545-1.584,1.524,1.524,0,0,1,1.473-1.693,1.33,1.33,0,0,1,1.3,1.479,2.27,2.27,0,0,1-.019.266Zm1.675-.409a.814.814,0,0,0-.792-.928.946.946,0,0,0-.876.928Z" fill="#964242"/>
        <path id="Trazado_9625" data-name="Trazado 9625" d="M1212.194,2374.532a2.1,2.1,0,0,1-.9.182,1.492,1.492,0,0,1-1.564-1.6,1.6,1.6,0,0,1,1.687-1.668,1.91,1.91,0,0,1,.792.162l-.129.442a1.327,1.327,0,0,0-.663-.149,1.184,1.184,0,0,0-.019,2.362,1.633,1.633,0,0,0,.7-.156l.1.428Z" fill="#964242"/>
        <path id="Trazado_9626" data-name="Trazado 9626" d="M1213.429,2372.949h.013c.078-.111.188-.247.279-.357l.922-1.084h.687l-1.213,1.292,1.382,1.849h-.694l-1.084-1.5-.292.324v1.181h-.565v-4.608h.565v2.908Z" fill="#964242"/>
        <path id="Trazado_9627" data-name="Trazado 9627" d="M1200.269,2479.97c0-.4-.013-.727-.026-1.025h.513l.026.538h.013a1.233,1.233,0,0,1,1.116-.61,1.424,1.424,0,0,1,1.331,1.6,1.486,1.486,0,0,1-1.428,1.687,1.1,1.1,0,0,1-.967-.493h-.014v1.707h-.564v-3.4Zm.564.837a1.375,1.375,0,0,0,.026.234.881.881,0,0,0,.857.668c.6,0,.954-.493.954-1.213,0-.63-.331-1.168-.935-1.168a.995.995,0,0,0-.9.941v.538Z" fill="#964242"/>
        <path id="Trazado_9628" data-name="Trazado 9628" d="M1204.282,2480.619a1.006,1.006,0,0,0,1.077,1.09,2.063,2.063,0,0,0,.869-.162l.1.409a2.54,2.54,0,0,1-1.045.195,1.459,1.459,0,0,1-1.545-1.584,1.526,1.526,0,0,1,1.473-1.694,1.332,1.332,0,0,1,1.3,1.48,2.029,2.029,0,0,1-.02.266Zm1.674-.409a.813.813,0,0,0-.792-.928.946.946,0,0,0-.876.928Z" fill="#964242"/>
        <path id="Trazado_9629" data-name="Trazado 9629" d="M1207.217,2477.478h.571v4.608h-.571v-4.608Z" fill="#964242"/>
        <path id="Trazado_9630" data-name="Trazado 9630" d="M1208.97,2478.945l.617,1.765a8.356,8.356,0,0,1,.253.8h.019c.071-.26.162-.519.266-.8l.61-1.765h.6l-1.233,3.141h-.545l-1.194-3.141Z" fill="#964242"/>
        <path id="Trazado_9631" data-name="Trazado 9631" d="M1212.508,2478.062a.354.354,0,0,1-.707,0,.348.348,0,0,1,.357-.357.339.339,0,0,1,.35.357Zm-.635,4.024v-3.141h.571v3.141Z" fill="#964242"/>
        <path id="Trazado_9632" data-name="Trazado 9632" d="M1213.314,2481.5a1.5,1.5,0,0,0,.753.227c.416,0,.61-.208.61-.467s-.162-.422-.584-.578c-.565-.2-.831-.513-.831-.889a.969.969,0,0,1,1.084-.922,1.564,1.564,0,0,1,.772.2l-.142.415a1.236,1.236,0,0,0-.643-.181c-.338,0-.526.2-.526.428,0,.26.188.376.6.532.546.208.825.481.825.948,0,.551-.429.941-1.175.941a1.8,1.8,0,0,1-.882-.214l.142-.435Z" fill="#964242"/>
        <path id="Trazado_9633" data-name="Trazado 9633" d="M1205.734,2712.876v-2.707h-.442v-.434h.442v-.15a1.479,1.479,0,0,1,.363-1.1,1.093,1.093,0,0,1,.766-.293,1.334,1.334,0,0,1,.487.091l-.079.442a.844.844,0,0,0-.363-.072c-.486,0-.61.429-.61.909v.169h.759v.434h-.759v2.707Z" fill="#964242"/>
        <path id="Trazado_9634" data-name="Trazado 9634" d="M1207.805,2711.409a1.006,1.006,0,0,0,1.077,1.09,2.063,2.063,0,0,0,.87-.162l.1.409a2.544,2.544,0,0,1-1.045.195,1.458,1.458,0,0,1-1.544-1.584,1.525,1.525,0,0,1,1.473-1.694,1.331,1.331,0,0,1,1.3,1.48,2.029,2.029,0,0,1-.02.266Zm1.674-.409a.813.813,0,0,0-.791-.928.946.946,0,0,0-.876.928Z" fill="#964242"/>
        <path id="Trazado_9635" data-name="Trazado 9635" d="M1211.058,2711.409a1.007,1.007,0,0,0,1.077,1.09,2.063,2.063,0,0,0,.87-.162l.1.409a2.542,2.542,0,0,1-1.044.195,1.459,1.459,0,0,1-1.545-1.584,1.525,1.525,0,0,1,1.473-1.694,1.331,1.331,0,0,1,1.3,1.48,2.264,2.264,0,0,1-.019.266Zm1.674-.409a.813.813,0,0,0-.791-.928.946.946,0,0,0-.876.928Z" fill="#964242"/>
        <path id="Trazado_9636" data-name="Trazado 9636" d="M1214.681,2708.833v.9h.818v.434h-.818v1.694c0,.39.111.61.429.61a1.306,1.306,0,0,0,.331-.038l.026.428a1.416,1.416,0,0,1-.507.078.789.789,0,0,1-.616-.241,1.157,1.157,0,0,1-.221-.817v-1.714h-.486v-.434h.486v-.753l.558-.149Z" fill="#964242"/>
        <path id="Trazado_9637" data-name="Trazado 9637" d="M1200.961,2580.223h.013c.078-.11.188-.247.279-.357l.922-1.083h.688l-1.214,1.291,1.382,1.85h-.694l-1.084-1.506-.292.325v1.181h-.565v-4.608h.565v2.907Z" fill="#964242"/>
        <path id="Trazado_9638" data-name="Trazado 9638" d="M1203.552,2579.632c0-.324-.006-.59-.026-.849h.507l.032.519h.013a1.155,1.155,0,0,1,1.038-.591c.435,0,1.11.26,1.11,1.337v1.876h-.571v-1.811c0-.507-.188-.928-.727-.928a.81.81,0,0,0-.765.584.819.819,0,0,0-.039.266v1.889h-.572v-2.292Z" fill="#964242"/>
        <path id="Trazado_9639" data-name="Trazado 9639" d="M1207.474,2580.457a1.007,1.007,0,0,0,1.077,1.09,2.063,2.063,0,0,0,.87-.162l.1.409a2.532,2.532,0,0,1-1.044.2,1.46,1.46,0,0,1-1.545-1.584,1.525,1.525,0,0,1,1.473-1.694,1.331,1.331,0,0,1,1.3,1.48,2.275,2.275,0,0,1-.019.266Zm1.674-.409a.813.813,0,0,0-.791-.928.946.946,0,0,0-.876.928Z" fill="#964242"/>
        <path id="Trazado_9640" data-name="Trazado 9640" d="M1210.727,2580.457a1.007,1.007,0,0,0,1.078,1.09,2.061,2.061,0,0,0,.869-.162l.1.409a2.538,2.538,0,0,1-1.045.2,1.46,1.46,0,0,1-1.545-1.584,1.525,1.525,0,0,1,1.473-1.694,1.331,1.331,0,0,1,1.3,1.48,2.012,2.012,0,0,1-.02.266Zm1.675-.409a.813.813,0,0,0-.792-.928.946.946,0,0,0-.876.928Z" fill="#964242"/>
        <path id="Trazado_9641" data-name="Trazado 9641" d="M1213.585,2581.339a1.489,1.489,0,0,0,.753.227c.415,0,.61-.207.61-.467s-.163-.421-.584-.577c-.565-.2-.831-.513-.831-.89a.969.969,0,0,1,1.084-.921,1.567,1.567,0,0,1,.772.2l-.143.415a1.217,1.217,0,0,0-.642-.182c-.338,0-.526.2-.526.429,0,.259.188.376.6.532.545.208.824.48.824.948,0,.551-.428.941-1.174.941a1.787,1.787,0,0,1-.883-.215l.143-.435Z" fill="#964242"/>
        <path id="Trazado_9642" data-name="Trazado 9642" d="M1199.948,2535.387v-2.707h-.441v-.434h.441v-.15a1.483,1.483,0,0,1,.363-1.1,1.092,1.092,0,0,1,.766-.292,1.332,1.332,0,0,1,.487.09l-.078.442a.848.848,0,0,0-.364-.072c-.486,0-.609.429-.609.909v.169h.759v.434h-.759v2.707Z" fill="#964242"/>
        <path id="Trazado_9643" data-name="Trazado 9643" d="M1202.019,2533.92a1.006,1.006,0,0,0,1.078,1.09,2.061,2.061,0,0,0,.869-.162l.1.409a2.551,2.551,0,0,1-1.045.195,1.459,1.459,0,0,1-1.545-1.584,1.524,1.524,0,0,1,1.473-1.693,1.331,1.331,0,0,1,1.3,1.479,2.193,2.193,0,0,1-.02.266Zm1.675-.409a.814.814,0,0,0-.792-.928.946.946,0,0,0-.876.928Z" fill="#964242"/>
        <path id="Trazado_9644" data-name="Trazado 9644" d="M1204.954,2533.1c0-.325-.006-.591-.026-.85h.5l.026.506h.02a1.083,1.083,0,0,1,.986-.577.928.928,0,0,1,.889.629h.013a1.286,1.286,0,0,1,.351-.409,1.068,1.068,0,0,1,.694-.22c.415,0,1.032.272,1.032,1.362v1.85h-.558v-1.778c0-.6-.221-.967-.682-.967a.738.738,0,0,0-.674.519.938.938,0,0,0-.046.286v1.94h-.558V2533.5c0-.5-.221-.863-.656-.863a.853.853,0,0,0-.753.85v1.9h-.558V2533.1Z" fill="#964242"/>
        <path id="Trazado_9645" data-name="Trazado 9645" d="M1213,2534.53c0,.325.006.61.026.857h-.507l-.032-.513h-.013a1.183,1.183,0,0,1-1.038.584c-.494,0-1.084-.272-1.084-1.376v-1.836h.571v1.739c0,.6.182,1,.7,1a.826.826,0,0,0,.753-.519.843.843,0,0,0,.051-.292v-1.927H1213v2.284Z" fill="#964242"/>
        <path id="Trazado_9646" data-name="Trazado 9646" d="M1213.948,2533.226c0-.37-.007-.688-.026-.98h.5l.019.616h.026a.942.942,0,0,1,.87-.687.608.608,0,0,1,.162.019v.539a.785.785,0,0,0-.96.714,1.493,1.493,0,0,0-.026.265v1.675h-.565v-2.161Z" fill="#964242"/>
        <path id="Trazado_9647" data-name="Trazado 9647" d="M1204.481,2327.571a1,1,0,0,0,1.077,1.09,2.063,2.063,0,0,0,.87-.162l.1.409a2.539,2.539,0,0,1-1.045.2,1.459,1.459,0,0,1-1.545-1.584,1.525,1.525,0,0,1,1.474-1.693,1.331,1.331,0,0,1,1.3,1.479,2.269,2.269,0,0,1-.019.266Zm1.674-.409a.813.813,0,0,0-.792-.928.947.947,0,0,0-.876.928Z" fill="#964242"/>
        <path id="Trazado_9648" data-name="Trazado 9648" d="M1207.623,2325.9l.688,1.856c.072.208.15.454.2.642h.012c.059-.188.124-.428.2-.655l.623-1.843h.6l-.856,2.239a4.775,4.775,0,0,1-1.078,1.966,1.541,1.541,0,0,1-.7.37l-.142-.48a1.544,1.544,0,0,0,.5-.279,1.737,1.737,0,0,0,.48-.636.436.436,0,0,0,.045-.136.5.5,0,0,0-.039-.15L1207,2325.9Z" fill="#964242"/>
        <path id="Trazado_9649" data-name="Trazado 9649" d="M1210.727,2327.571a1.007,1.007,0,0,0,1.078,1.09,2.061,2.061,0,0,0,.869-.162l.1.409a2.538,2.538,0,0,1-1.045.2,1.459,1.459,0,0,1-1.545-1.584,1.525,1.525,0,0,1,1.473-1.693,1.331,1.331,0,0,1,1.3,1.479,2.012,2.012,0,0,1-.02.266Zm1.675-.409a.814.814,0,0,0-.792-.928.946.946,0,0,0-.876.928Z" fill="#964242"/>
        <path id="Trazado_9650" data-name="Trazado 9650" d="M1213.585,2328.454a1.5,1.5,0,0,0,.753.227c.415,0,.61-.208.61-.467s-.163-.422-.584-.578c-.565-.2-.831-.513-.831-.889a.968.968,0,0,1,1.084-.921,1.568,1.568,0,0,1,.772.194l-.143.415a1.227,1.227,0,0,0-.642-.181c-.338,0-.526.2-.526.428,0,.26.188.376.6.532.545.208.824.481.824.948,0,.552-.428.941-1.174.941a1.8,1.8,0,0,1-.883-.214l.143-.435Z" fill="#964242"/>
        <path id="Trazado_9651" data-name="Trazado 9651" d="M1199.26,2406.058c.013-.214.026-.532.026-.811v-3.8h.565v1.973h.012a1.17,1.17,0,0,1,1.071-.577c.779,0,1.33.649,1.324,1.6a1.492,1.492,0,0,1-1.408,1.68,1.117,1.117,0,0,1-1.051-.59h-.02l-.026.519Zm.591-1.259a1.082,1.082,0,0,0,.025.208.883.883,0,0,0,.857.668c.6,0,.954-.487.954-1.207,0-.629-.325-1.168-.934-1.168a.91.91,0,0,0-.87.7,1.116,1.116,0,0,0-.032.234v.564Z" fill="#964242"/>
        <path id="Trazado_9652" data-name="Trazado 9652" d="M1202.98,2403.9c0-.37-.006-.688-.025-.98h.5l.02.616h.025a.943.943,0,0,1,.87-.687.613.613,0,0,1,.162.019v.539a.848.848,0,0,0-.194-.02.8.8,0,0,0-.766.734,1.582,1.582,0,0,0-.026.266v1.674h-.565V2403.9Z" fill="#964242"/>
        <path id="Trazado_9653" data-name="Trazado 9653" d="M1205.357,2404.591a1,1,0,0,0,1.077,1.09,2.063,2.063,0,0,0,.87-.162l.1.409a2.539,2.539,0,0,1-1.045.2,1.458,1.458,0,0,1-1.544-1.584,1.524,1.524,0,0,1,1.473-1.693,1.33,1.33,0,0,1,1.3,1.479,2.273,2.273,0,0,1-.019.266Zm1.675-.409a.814.814,0,0,0-.793-.928.947.947,0,0,0-.876.928Z" fill="#964242"/>
        <path id="Trazado_9654" data-name="Trazado 9654" d="M1210.031,2406.058l-.045-.4h-.019a1.171,1.171,0,0,1-.961.467.9.9,0,0,1-.96-.9c0-.759.674-1.174,1.888-1.168v-.065a.648.648,0,0,0-.714-.727,1.565,1.565,0,0,0-.818.234l-.13-.376a1.952,1.952,0,0,1,1.032-.279c.961,0,1.2.655,1.2,1.284v1.175a4.417,4.417,0,0,0,.051.753Zm-.084-1.6c-.623-.013-1.331.1-1.331.707a.506.506,0,0,0,.539.546.783.783,0,0,0,.76-.526.618.618,0,0,0,.032-.182v-.545Z" fill="#964242"/>
        <path id="Trazado_9655" data-name="Trazado 9655" d="M1211.344,2405.474a1.5,1.5,0,0,0,.753.227c.416,0,.61-.208.61-.467s-.162-.422-.584-.578c-.565-.2-.831-.512-.831-.889a.969.969,0,0,1,1.084-.921,1.564,1.564,0,0,1,.772.194l-.142.416a1.224,1.224,0,0,0-.643-.182c-.338,0-.526.2-.526.428,0,.26.188.377.6.533.546.207.825.48.825.947,0,.552-.429.941-1.175.941a1.79,1.79,0,0,1-.883-.214l.143-.435Z" fill="#964242"/>
        <path id="Trazado_9656" data-name="Trazado 9656" d="M1214.681,2402.015v.9h.818v.434h-.818v1.695c0,.389.111.609.429.609a1.3,1.3,0,0,0,.331-.038l.026.428a1.41,1.41,0,0,1-.507.078.789.789,0,0,1-.616-.24,1.161,1.161,0,0,1-.221-.818v-1.714h-.486v-.434h.486v-.753l.558-.149Z" fill="#964242"/>
        <path id="Trazado_9657" data-name="Trazado 9657" d="M1204.818,2669.848h.571v1.96h.013a1.06,1.06,0,0,1,.409-.4,1.17,1.17,0,0,1,.584-.162c.422,0,1.1.259,1.1,1.343v1.869h-.571v-1.8c0-.506-.189-.935-.727-.935a.821.821,0,0,0-.766.571.685.685,0,0,0-.039.273v1.9h-.571v-4.608Z" fill="#964242"/>
        <path id="Trazado_9658" data-name="Trazado 9658" d="M1208.74,2672.989a1.006,1.006,0,0,0,1.077,1.09,2.063,2.063,0,0,0,.87-.162l.1.409a2.548,2.548,0,0,1-1.046.2,1.458,1.458,0,0,1-1.544-1.584,1.524,1.524,0,0,1,1.473-1.693,1.33,1.33,0,0,1,1.3,1.479,2.275,2.275,0,0,1-.019.266Zm1.675-.409a.814.814,0,0,0-.793-.928.947.947,0,0,0-.876.928Z" fill="#964242"/>
        <path id="Trazado_9659" data-name="Trazado 9659" d="M1211.993,2672.989a1.006,1.006,0,0,0,1.078,1.09,2.061,2.061,0,0,0,.869-.162l.1.409a2.548,2.548,0,0,1-1.046.2,1.458,1.458,0,0,1-1.544-1.584,1.524,1.524,0,0,1,1.473-1.693,1.33,1.33,0,0,1,1.3,1.479,2.242,2.242,0,0,1-.019.266Zm1.675-.409a.814.814,0,0,0-.792-.928.947.947,0,0,0-.877.928Z" fill="#964242"/>
        <path id="Trazado_9660" data-name="Trazado 9660" d="M1214.928,2669.848h.571v4.608h-.571v-4.608Z" fill="#964242"/>
        <path id="Trazado_9661" data-name="Trazado 9661" d="M1206.493,2604.534a2.1,2.1,0,0,1-.9.182,1.493,1.493,0,0,1-1.564-1.6,1.6,1.6,0,0,1,1.688-1.668,1.914,1.914,0,0,1,.792.162l-.13.441a1.336,1.336,0,0,0-.662-.149,1.184,1.184,0,0,0-.019,2.362,1.625,1.625,0,0,0,.7-.155l.1.428Z" fill="#964242"/>
        <path id="Trazado_9662" data-name="Trazado 9662" d="M1208.9,2604.651l-.045-.4h-.02a1.17,1.17,0,0,1-.96.467.9.9,0,0,1-.961-.9c0-.759.675-1.175,1.888-1.168v-.065a.647.647,0,0,0-.713-.727,1.565,1.565,0,0,0-.818.234l-.13-.376a1.94,1.94,0,0,1,1.032-.279c.961,0,1.194.655,1.194,1.284v1.175a4.413,4.413,0,0,0,.052.753Zm-.084-1.6c-.623-.013-1.331.1-1.331.707a.506.506,0,0,0,.539.546.78.78,0,0,0,.759-.526.621.621,0,0,0,.033-.182v-.545Z" fill="#964242"/>
        <path id="Trazado_9663" data-name="Trazado 9663" d="M1210.293,2600.043h.571v4.608h-.571v-4.608Z" fill="#964242"/>
        <path id="Trazado_9664" data-name="Trazado 9664" d="M1211.883,2604.651v-2.707h-.441v-.434h.441v-.15a1.48,1.48,0,0,1,.364-1.1,1.091,1.091,0,0,1,.765-.292,1.334,1.334,0,0,1,.487.09l-.078.442a.851.851,0,0,0-.363-.072c-.487,0-.61.429-.61.909v.169h.759v.434h-.759v2.707Z" fill="#964242"/>
        <path id="Trazado_9665" data-name="Trazado 9665" d="M1213.585,2604.066a1.487,1.487,0,0,0,.753.228c.415,0,.61-.208.61-.467s-.163-.422-.584-.578c-.565-.2-.831-.513-.831-.889a.968.968,0,0,1,1.084-.921,1.568,1.568,0,0,1,.772.194l-.143.415a1.227,1.227,0,0,0-.642-.181c-.338,0-.526.2-.526.428,0,.26.188.376.6.532.545.208.824.481.824.948,0,.551-.428.941-1.174.941a1.787,1.787,0,0,1-.883-.215l.143-.435Z" fill="#964242"/>
        <path id="Trazado_9666" data-name="Trazado 9666" d="M1202.286,2628.117a1.489,1.489,0,0,0,.753.228c.416,0,.61-.208.61-.468s-.162-.421-.584-.577c-.565-.2-.831-.513-.831-.889a.969.969,0,0,1,1.084-.921,1.564,1.564,0,0,1,.772.194l-.142.415a1.234,1.234,0,0,0-.643-.181c-.338,0-.526.2-.526.428,0,.26.188.376.6.532.546.208.825.481.825.948,0,.551-.429.941-1.175.941a1.793,1.793,0,0,1-.883-.215l.143-.435Z" fill="#964242"/>
        <path id="Trazado_9667" data-name="Trazado 9667" d="M1204.935,2624.094h.571v1.96h.014a1.058,1.058,0,0,1,.408-.4,1.169,1.169,0,0,1,.585-.162c.421,0,1.1.259,1.1,1.343v1.869h-.571v-1.8c0-.506-.188-.935-.727-.935a.818.818,0,0,0-.765.571.68.68,0,0,0-.04.273v1.9h-.571v-4.608Z" fill="#964242"/>
        <path id="Trazado_9668" data-name="Trazado 9668" d="M1209.175,2624.678a.354.354,0,0,1-.707,0,.348.348,0,0,1,.357-.357.339.339,0,0,1,.35.357Zm-.636,4.024v-3.141h.571v3.141Z" fill="#964242"/>
        <path id="Trazado_9669" data-name="Trazado 9669" d="M1210.058,2626.411c0-.325-.006-.591-.025-.85h.506l.033.519h.012a1.155,1.155,0,0,1,1.039-.59c.435,0,1.109.259,1.109,1.336v1.876h-.571v-1.811c0-.506-.188-.928-.726-.928a.838.838,0,0,0-.805.85v1.889h-.572v-2.291Z" fill="#964242"/>
        <path id="Trazado_9670" data-name="Trazado 9670" d="M1213.585,2628.117a1.487,1.487,0,0,0,.753.228c.415,0,.61-.208.61-.468s-.163-.421-.584-.577c-.565-.2-.831-.513-.831-.889a.968.968,0,0,1,1.084-.921,1.568,1.568,0,0,1,.772.194l-.143.415a1.227,1.227,0,0,0-.642-.181c-.338,0-.526.2-.526.428,0,.26.188.376.6.532.545.208.824.481.824.948,0,.551-.428.941-1.174.941a1.79,1.79,0,0,1-.883-.215l.143-.435Z" fill="#964242"/>
      </g>
    </g>
  </g>
</svg>
