<svg xmlns="http://www.w3.org/2000/svg" width="337.855" height="336.33" viewBox="0 0 337.855 336.33">
  <g id="Grupo_70682" data-name="Grupo 70682" transform="translate(-1831.304 -7200.729)">
    <path id="Trazado_10262" data-name="Trazado 10262" d="M2134.042,7279.511a162.973,162.973,0,0,0-272.847-5.54l-1.769-1.207a165.113,165.113,0,0,1,276.432,5.612l-1.816,1.135" fill="#6bc4ed"/>
    <path id="Trazado_10263" data-name="Trazado 10263" d="M2106.4,7488.341l-1.436-1.592a163.06,163.06,0,0,0,52.341-142.333c-.48-3.627-1.087-7.275-1.8-10.844l2.1-.422c.724,3.617,1.337,7.311,1.824,10.985a165.212,165.212,0,0,1-53.028,144.206" fill="#6bc4ed"/>
    <path id="Trazado_10264" data-name="Trazado 10264" d="M2018.064,7535.62c-90.234,11.942-173.362-51.754-185.3-141.988a163.911,163.911,0,0,1,5.053-67.6l2.058.6a161.762,161.762,0,0,0-4.986,66.728c11.788,89.063,93.834,151.933,182.9,140.145a163.622,163.622,0,0,0,39.031-10.163l.791,1.993a165.739,165.739,0,0,1-39.54,10.294" fill="#6bc4ed"/>
    <path id="Trazado_10265" data-name="Trazado 10265" d="M1988.544,7267.2a98.533,98.533,0,1,0,110.61,84.752,98.645,98.645,0,0,0-110.61-84.752m30.574,231.009c-73.516,9.73-141.242-42.165-150.972-115.682s42.164-141.242,115.681-150.972,141.243,42.163,150.973,115.679-42.165,141.245-115.682,150.975" fill="#6bc4ed"/>
    <path id="Trazado_10266" data-name="Trazado 10266" d="M2129.224,7306.462a19.967,19.967,0,1,0,19.967-19.968,19.967,19.967,0,0,0-19.967,19.968" fill="#6bc4ed"/>
    <path id="Trazado_10267" data-name="Trazado 10267" d="M2063.745,7508.137a19.969,19.969,0,1,0,19.97-19.967,19.97,19.97,0,0,0-19.97,19.967Z" fill="#6bc4ed"/>
    <path id="Trazado_10268" data-name="Trazado 10268" d="M1832.078,7302.206a19.969,19.969,0,1,0,19.969-19.968,19.97,19.97,0,0,0-19.969,19.968Z" fill="#6bc4ed"/>
    <path id="Trazado_10269" data-name="Trazado 10269" d="M1856.275,7313.42h5.925v-18.553h-5.925v18.553Z" fill="#fff"/>
    <path id="Trazado_10270" data-name="Trazado 10270" d="M1848.667,7313.42h5.923v-13.915h-5.923v13.915Z" fill="#fff"/>
    <path id="Trazado_10271" data-name="Trazado 10271" d="M1841.058,7313.42h5.924v-9.276h-5.924v9.276Z" fill="#fff"/>
    <path id="Trazado_10272" data-name="Trazado 10272" d="M1842.992,7299.057l-.477-.865,15.354-8.477.478.863-15.354,8.479Z" fill="#fff"/>
    <path id="Trazado_10273" data-name="Trazado 10273" d="M1856.218,7289.715l1.654,2.042.963-2.349-2.617.307Z" fill="#fff"/>
    <path id="Trazado_10274" data-name="Trazado 10274" d="M2153.706,7309.917a2.157,2.157,0,0,0-.613-1.6,6.517,6.517,0,0,0-2.372-1.219v5.353q2.982-.415,2.985-2.531Zm-7.527-8.546a2.292,2.292,0,0,0,.619,1.678,5.939,5.939,0,0,0,2.147,1.2v-5.325a3.937,3.937,0,0,0-2.066.861,2.051,2.051,0,0,0-.7,1.589Zm9.869,8.367a3.911,3.911,0,0,1-1.406,3.089,7.216,7.216,0,0,1-3.921,1.533v3.194h-1.776v-3.069a18.218,18.218,0,0,1-2.986-.24,9.475,9.475,0,0,1-2.367-.668v-2.147a13.462,13.462,0,0,0,2.634.832,12.934,12.934,0,0,0,2.719.324v-6.056a9.482,9.482,0,0,1-3.957-2.078,4.231,4.231,0,0,1-1.137-3.054,3.676,3.676,0,0,1,1.4-2.959,6.785,6.785,0,0,1,3.7-1.4v-2.5h1.776v2.476a14.045,14.045,0,0,1,4.886,1.017l-.717,1.8a13.936,13.936,0,0,0-4.169-.963v5.974a15.6,15.6,0,0,1,3.234,1.34,4.521,4.521,0,0,1,1.58,1.5,3.909,3.909,0,0,1,.513,2.058Z" fill="#fff"/>
    <path id="Trazado_10275" data-name="Trazado 10275" d="M2083.347,7511.03a3.1,3.1,0,1,1,0-6.2v1.222a1.882,1.882,0,1,0,1.883,1.881h1.219a3.1,3.1,0,0,1-3.1,3.1Z" fill="#fff"/>
    <path id="Trazado_10276" data-name="Trazado 10276" d="M2083.347,7514.9a6.966,6.966,0,0,1,0-13.931,6.884,6.884,0,0,1,3.135.742l-.55,1.087a5.691,5.691,0,0,0-2.585-.609,5.735,5.735,0,1,0,5.208,3.312l1.106-.516a6.969,6.969,0,0,1-6.314,9.915Z" fill="#fff"/>
    <path id="Trazado_10277" data-name="Trazado 10277" d="M2083.347,7518.763a10.831,10.831,0,1,1,5.478-20.18l-.619,1.054a9.6,9.6,0,1,0,3.334,3.265l1.038-.637a10.831,10.831,0,0,1-9.231,16.5Z" fill="#fff"/>
    <path id="Trazado_10278" data-name="Trazado 10278" d="M2083.778,7508.363l-.862-.862,10.271-10.273.862.862-10.271,10.273Z" fill="#fff"/>
    <path id="Trazado_10279" data-name="Trazado 10279" d="M2092.156,7498.539l-.138-3.113,1.218-.056.142,3.114-1.221.055Z" fill="#fff"/>
    <path id="Trazado_10280" data-name="Trazado 10280" d="M2090.6,7500.082l-.114-2.547,1.22-.052.113,2.543-1.219.056Z" fill="#fff"/>
    <path id="Trazado_10281" data-name="Trazado 10281" d="M2092.522,7498.984l-.177-1.21,3.083-.448.176,1.205-3.081.454Z" fill="#fff"/>
    <path id="Trazado_10282" data-name="Trazado 10282" d="M2091.3,7500.8l-.176-1.21,2.521-.366.176,1.208-2.521.369Z" fill="#fff"/>
    <path id="Trazado_10283" data-name="Trazado 10283" d="M1878.166,7483.982h-2.941q-1.572-1.695-3.1-3.44h2.866q1.566,1.746,3.176,3.44" fill="#329e8d"/>
    <path id="Trazado_10284" data-name="Trazado 10284" d="M2129.7,7310.83a20.165,20.165,0,0,1,0-8.736v8.736" fill="#329e8d"/>
    <path id="Trazado_10285" data-name="Trazado 10285" d="M2114.758,7416.132a4.873,4.873,0,0,1-4.875,4.874h-217.5a4.873,4.873,0,0,1-4.875-4.874V7278.414a4.876,4.876,0,0,1,4.875-4.877h217.5a4.877,4.877,0,0,1,4.875,4.877v137.718" fill="#fff"/>
    <path id="Trazado_10286" data-name="Trazado 10286" d="M2114.758,7278.414a4.877,4.877,0,0,0-4.875-4.877h-217.5a4.876,4.876,0,0,0-4.875,4.877v66.253l227.252-66.253" fill="#fff"/>
    <path id="Trazado_10287" data-name="Trazado 10287" d="M2105.5,7411.487H1896.761V7282.193H2105.5v129.293" fill="#32b9ff"/>
    <path id="Trazado_10288" data-name="Trazado 10288" d="M2105.5,7341v-5.29l.191,5.244-.191.045" fill="azure"/>
    <path id="Trazado_10289" data-name="Trazado 10289" d="M1896.785,7390.92l.027-47.081,8.58-.907v45.93l-8.607,2.058m205.756-49.212V7322.1l2.455-.26.506,13.872V7341l-2.961.708" fill="#8adcff"/>
    <path id="Trazado_10290" data-name="Trazado 10290" d="M2102.541,7273.537h-2.415l-.029-.031h2.444v.031" fill="#28a7b2"/>
    <path id="Trazado_10291" data-name="Trazado 10291" d="M2100.126,7273.537h-2.331v-.031h2.3l.029.031" fill="#33bcc9"/>
    <path id="Trazado_10292" data-name="Trazado 10292" d="M2102.541,7282.193h-.748l.748-.217v.217" fill="#aacaf9"/>
    <path id="Trazado_10293" data-name="Trazado 10293" d="M2101.793,7282.193h-4v-8.657h4.746v8.439l-.748.217" fill="#aacaf9"/>
    <path id="Trazado_10294" data-name="Trazado 10294" d="M2093.252,7407.305H1919.886a9.288,9.288,0,0,1-9.289-9.286v-.507a9.273,9.273,0,0,0,4.1.951h173.787a9.307,9.307,0,0,0,9.307-9.307v-46.313l4.746-1.135v56.311a9.287,9.287,0,0,1-9.289,9.286m4.543-84.705v-40.407h4.746V7322.1l-4.746.5" fill="#2193f9"/>
    <path id="Trazado_10295" data-name="Trazado 10295" d="M2097.794,7342.843V7322.6l4.746-.5v19.61l-4.746,1.135" fill="#5caef9"/>
    <path id="Trazado_10296" data-name="Trazado 10296" d="M2135.681,7473.083c1.962,5.467-.634,7.459-3.066,7.459H1869.649c-2.431,0-3.063-1.66-3.063-4.114l.065-3.611c.909-2.252,22.844-47.388,25.274-47.388h218.417a7.1,7.1,0,0,1,6.073,4.1l19.266,43.556" fill="#283042"/>
    <path id="Trazado_10297" data-name="Trazado 10297" d="M2132.615,7480.542H1869.649c-2.431,0-3.063-1.66-3.063-4.114l.045-2.463a2.777,2.777,0,0,0,3.018,2.162h262.966c2.066,0,3.276-1.334,3.033-3.118l.033.074a10.33,10.33,0,0,1,.69,3.427c0,2.9-1.923,4.032-3.756,4.032" fill="#1e2535"/>
    <path id="Trazado_10298" data-name="Trazado 10298" d="M2135.378,7472.026c.914,2.253-.331,4.1-2.763,4.1H1869.649a2.78,2.78,0,0,1-2.766-4.1l18.964-46.92a7.1,7.1,0,0,1,6.078-4.1h218.417a7.1,7.1,0,0,1,6.073,4.1l18.963,46.92" fill="#fff"/>
    <path id="Trazado_10299" data-name="Trazado 10299" d="M2025.9,7471.606h-49.536l1.525-11.294h46.664l1.346,11.294" fill="#fff"/>
    <path id="Trazado_10300" data-name="Trazado 10300" d="M2027.649,7473.029h-53.033l1.821-12.139h1.374l-1.447,10.716H2025.9l-1.277-10.716h1.2l1.823,12.139" fill="#8e95a6"/>
    <path id="Trazado_10301" data-name="Trazado 10301" d="M2025.9,7471.606h-49.536l1.447-10.716h46.811l1.277,10.716" fill="#bec3ce"/>
    <path id="Trazado_10302" data-name="Trazado 10302" d="M1960.975,7432.592h-17.227l.094-.886h17.133l.222-4.505h.044l-.266,5.392" fill="#4f576c"/>
    <path id="Trazado_10303" data-name="Trazado 10303" d="M1978.656,7432.592h-16.794l.043-.886h16.751l.217-4.505h.043l-.261,5.392" fill="#4f576c"/>
    <path id="Trazado_10304" data-name="Trazado 10304" d="M1995.69,7432.592h-16.151l.043-.886h16.108l.08-4.505h.016l-.1,5.392" fill="#4f576c"/>
    <path id="Trazado_10305" data-name="Trazado 10305" d="M1902.83,7438.778h-13.5l.327-.886h13.174l1.177-4.417h.235l-1.413,5.3" fill="#4f576c"/>
    <path id="Trazado_10306" data-name="Trazado 10306" d="M2014.277,7432.592h-17.7l.016-.886h17.688l.068-4.505h.014l-.082,5.392" fill="#4f576c"/>
    <path id="Trazado_10307" data-name="Trazado 10307" d="M1904.477,7432.592H1891.61l.328-.886h12.539l1.2-4.505h.237l-1.438,5.392" fill="#4f576c"/>
    <path id="Trazado_10308" data-name="Trazado 10308" d="M1942.861,7432.592h-19.086l.155-.886h18.932l.473-4.505h.093l-.567,5.392" fill="#4f576c"/>
    <path id="Trazado_10309" data-name="Trazado 10309" d="M1922.877,7432.592h-17.485l.237-.886h17.248l.785-4.505h.155l-.94,5.392" fill="#4f576c"/>
    <path id="Trazado_10310" data-name="Trazado 10310" d="M2065.446,7432.592h-16.3l-.2-5.392h.033l.166,4.505h16.224l.077.886" fill="#4f576c"/>
    <path id="Trazado_10311" data-name="Trazado 10311" d="M2112.475,7438.778h-13.051l-1.409-5.3h.235l1.174,4.417h12.693l.358.886" fill="#4f576c"/>
    <path id="Trazado_10312" data-name="Trazado 10312" d="M2115.7,7446.732h-14.169l-1.876-7.071h.234l1.642,6.184h13.809l.36.887" fill="#4f576c"/>
    <path id="Trazado_10313" data-name="Trazado 10313" d="M1900.714,7446.732H1886.4l.327-.887h13.992l1.646-6.184h.235l-1.881,7.071" fill="#4f576c"/>
    <path id="Trazado_10314" data-name="Trazado 10314" d="M2096.866,7432.592h-13.142l-.883-5.392h.146l.737,4.505h12.907l.235.886" fill="#4f576c"/>
    <path id="Trazado_10315" data-name="Trazado 10315" d="M2082.828,7432.592h-16.494l-.468-5.392h.077l.391,4.505h16.35l.145.886" fill="#4f576c"/>
    <path id="Trazado_10316" data-name="Trazado 10316" d="M2109.966,7432.592H2097.78l-1.433-5.392h.237l1.2,4.505h11.825l.36.886" fill="#4f576c"/>
    <path id="Trazado_10317" data-name="Trazado 10317" d="M2031.267,7432.592H2015.16l.013-.886h16.083l.01.886" fill="#4f576c"/>
    <path id="Trazado_10318" data-name="Trazado 10318" d="M2048.26,7432.592H2032.15l-.056-5.392h.009l.046,4.505h16.077l.032.886" fill="#4f576c"/>
    <path id="Trazado_10319" data-name="Trazado 10319" d="M2014.185,7438.778h-17.723l.015-.886h17.707l.065-4.417h.013l-.078,5.3" fill="#4f576c"/>
    <path id="Trazado_10320" data-name="Trazado 10320" d="M1995.578,7438.778h-16.341l.043-.886h16.3l.08-4.417h.016l-.1,5.3" fill="#4f576c"/>
    <path id="Trazado_10321" data-name="Trazado 10321" d="M2048.482,7438.778h-16.265l-.056-5.3h.009l.047,4.417h16.233l.031.886" fill="#4f576c"/>
    <path id="Trazado_10322" data-name="Trazado 10322" d="M1899.069,7452.92h-14.957l.326-.886h14.63l1.174-4.418h.235l-1.409,5.3" fill="#4f576c"/>
    <path id="Trazado_10323" data-name="Trazado 10323" d="M1960.674,7438.778H1943.1l.093-.886h17.482l.216-4.417h.043l-.259,5.3" fill="#4f576c"/>
    <path id="Trazado_10324" data-name="Trazado 10324" d="M1978.351,7438.778h-16.792l.043-.886h16.75l.217-4.417h.043l-.26,5.3" fill="#4f576c"/>
    <path id="Trazado_10325" data-name="Trazado 10325" d="M2031.335,7438.778h-16.266l.013-.886h16.243l.009.886" fill="#4f576c"/>
    <path id="Trazado_10326" data-name="Trazado 10326" d="M2066.681,7446.732h-17.025l-.259-7.071h.032l.227,6.184H2066.6l.078.887" fill="#4f576c"/>
    <path id="Trazado_10327" data-name="Trazado 10327" d="M2048.771,7446.732H2032.3l-.077-7.071h.01l.067,6.184h16.434l.032.887" fill="#4f576c"/>
    <path id="Trazado_10328" data-name="Trazado 10328" d="M2065.987,7438.778h-16.617l-.194-5.3h.033l.161,4.417h16.54l.077.886" fill="#4f576c"/>
    <path id="Trazado_10329" data-name="Trazado 10329" d="M2085.143,7446.732h-17.576l-.615-7.071h.076l.539,6.184H2085l.145.887" fill="#4f576c"/>
    <path id="Trazado_10330" data-name="Trazado 10330" d="M2098.509,7438.778h-13.772l-.869-5.3h.145l.724,4.417h13.537l.235.886" fill="#4f576c"/>
    <path id="Trazado_10331" data-name="Trazado 10331" d="M2031.42,7446.732h-16.468l.013-.887h16.446l.01.887" fill="#4f576c"/>
    <path id="Trazado_10332" data-name="Trazado 10332" d="M2083.841,7438.778h-16.966l-.465-5.3h.077l.387,4.417H2083.7l.145.886" fill="#4f576c"/>
    <path id="Trazado_10333" data-name="Trazado 10333" d="M1942.209,7438.778H1922.7l.155-.886h19.358l.465-4.417h.093l-.558,5.3" fill="#4f576c"/>
    <path id="Trazado_10334" data-name="Trazado 10334" d="M2013.976,7452.92H1996.21l.016-.886h17.749l.069-4.418h.014l-.083,5.3" fill="#4f576c"/>
    <path id="Trazado_10335" data-name="Trazado 10335" d="M1959.981,7452.92h-18.372l.093-.886h18.279l.218-4.418h.043l-.261,5.3" fill="#4f576c"/>
    <path id="Trazado_10336" data-name="Trazado 10336" d="M2102.266,7452.92h-15.217l-.863-5.3h.144l.719,4.418h14.981l.236.886" fill="#4f576c"/>
    <path id="Trazado_10337" data-name="Trazado 10337" d="M2031.487,7452.92h-16.626l.014-.886h16.6l.009.886" fill="#4f576c"/>
    <path id="Trazado_10338" data-name="Trazado 10338" d="M2067.219,7452.92h-17.337l-.194-5.3h.033l.161,4.418h17.259l.077.886" fill="#4f576c"/>
    <path id="Trazado_10339" data-name="Trazado 10339" d="M2086.155,7452.92h-18.049l-.462-5.3h.077l.385,4.418h17.9l.145.886" fill="#4f576c"/>
    <path id="Trazado_10340" data-name="Trazado 10340" d="M1920.412,7446.732h-18.785l.236-.887h18.548l1.08-6.184h.154l-1.234,7.071" fill="#4f576c"/>
    <path id="Trazado_10341" data-name="Trazado 10341" d="M1921.8,7438.778h-18.053l.236-.886H1921.8l.769-4.417h.154l-.923,5.3" fill="#4f576c"/>
    <path id="Trazado_10342" data-name="Trazado 10342" d="M1940.722,7452.92h-20.488l.154-.886h20.334l.462-4.418h.092l-.554,5.3" fill="#4f576c"/>
    <path id="Trazado_10343" data-name="Trazado 10343" d="M1919.336,7452.92h-19.355l.235-.886h19.12l.767-4.418h.154l-.921,5.3" fill="#4f576c"/>
    <path id="Trazado_10344" data-name="Trazado 10344" d="M2118.217,7452.92H2103.18l-1.41-5.3H2102l1.176,4.418h14.677l.36.886" fill="#4f576c"/>
    <path id="Trazado_10345" data-name="Trazado 10345" d="M1897.4,7459.182h-15.6l.328-.887H1897.4l1.2-4.49h.235l-1.432,5.376" fill="#4f576c"/>
    <path id="Trazado_10346" data-name="Trazado 10346" d="M2087.179,7459.182h-18.527l-.467-5.376h.077l.39,4.49h18.382l.145.887" fill="#4f576c"/>
    <path id="Trazado_10347" data-name="Trazado 10347" d="M1960.283,7446.732H1942.26l.093-.887h17.93l.3-6.184h.044l-.348,7.071" fill="#4f576c"/>
    <path id="Trazado_10348" data-name="Trazado 10348" d="M2100.62,7446.732h-14.582l-1.156-7.071h.144l1.012,6.184h14.347l.235.887" fill="#4f576c"/>
    <path id="Trazado_10349" data-name="Trazado 10349" d="M2103.925,7459.182h-15.849l-.882-5.376h.145l.737,4.49h15.614l.236.887" fill="#4f576c"/>
    <path id="Trazado_10350" data-name="Trazado 10350" d="M2120.756,7459.182h-15.915l-1.426-5.376h.235l1.191,4.49H2120.4l.36.887" fill="#4f576c"/>
    <path id="Trazado_10351" data-name="Trazado 10351" d="M1995.325,7452.92h-16.779l.043-.886h16.735l.079-4.418h.016l-.1,5.3" fill="#4f576c"/>
    <path id="Trazado_10352" data-name="Trazado 10352" d="M1977.661,7452.92h-16.794l.043-.886h16.751l.215-4.418h.043l-.258,5.3" fill="#4f576c"/>
    <path id="Trazado_10353" data-name="Trazado 10353" d="M1941.373,7446.732h-20.063l.154-.887h19.909l.65-6.184h.093l-.743,7.071" fill="#4f576c"/>
    <path id="Trazado_10354" data-name="Trazado 10354" d="M1940.063,7459.182H1919.14l.155-.887h20.768l.473-4.49h.093l-.566,5.376" fill="#4f576c"/>
    <path id="Trazado_10355" data-name="Trazado 10355" d="M1918.243,7459.182h-19.928l.237-.887h19.692l.784-4.49h.155l-.938,5.376" fill="#4f576c"/>
    <path id="Trazado_10356" data-name="Trazado 10356" d="M1995.438,7446.732h-16.59l.043-.887h16.547l.109-6.184h.016l-.124,7.071" fill="#4f576c"/>
    <path id="Trazado_10357" data-name="Trazado 10357" d="M2049,7452.92H2032.37l-.056-5.3h.009l.047,4.418h16.594l.032.886" fill="#4f576c"/>
    <path id="Trazado_10358" data-name="Trazado 10358" d="M2031.555,7459.182H2014.77l.012-.887h16.762l.01.887" fill="#4f576c"/>
    <path id="Trazado_10359" data-name="Trazado 10359" d="M2049.222,7459.182h-16.784l-.061-5.376h.01l.051,4.49h16.751l.032.887" fill="#4f576c"/>
    <path id="Trazado_10360" data-name="Trazado 10360" d="M2013.884,7459.182h-72.933l.093-.887h72.84l.067-4.49h.013l-.08,5.376" fill="#4f576c"/>
    <path id="Trazado_10361" data-name="Trazado 10361" d="M2067.765,7459.182h-17.658l-.2-5.376h.032l.164,4.49h17.581l.077.887" fill="#4f576c"/>
    <path id="Trazado_10362" data-name="Trazado 10362" d="M1977.962,7446.732h-16.791l.043-.887h16.748l.3-6.184h.043l-.347,7.071" fill="#4f576c"/>
    <path id="Trazado_10363" data-name="Trazado 10363" d="M2014.07,7446.732h-17.75l.016-.887h17.733l.09-6.184h.013l-.1,7.071" fill="#4f576c"/>
    <path id="Trazado_10364" data-name="Trazado 10364" d="M1943.842,7431.706h-.094l.57-5.4h16.923l-.044.891h-16.879l-.476,4.505" fill="#d3d4d7"/>
    <path id="Trazado_10365" data-name="Trazado 10365" d="M1960.975,7431.706h-17.133l.476-4.505H1961.2l-.222,4.505" fill="#7b818e"/>
    <path id="Trazado_10366" data-name="Trazado 10366" d="M1961.9,7431.706h-.043l.264-5.4h16.791l-.043.891h-16.748l-.221,4.505" fill="#d3d4d7"/>
    <path id="Trazado_10367" data-name="Trazado 10367" d="M1978.656,7431.706H1961.9l.221-4.505h16.748l-.217,4.505" fill="#7b818e"/>
    <path id="Trazado_10368" data-name="Trazado 10368" d="M1979.582,7431.706h-.043l.265-5.4h15.983l-.016.891H1979.8l-.222,4.505" fill="#d3d4d7"/>
    <path id="Trazado_10369" data-name="Trazado 10369" d="M1995.69,7431.706h-16.108l.222-4.505h15.967l-.08,4.505" fill="#7b818e"/>
    <path id="Trazado_10370" data-name="Trazado 10370" d="M1889.656,7437.892h-.327l1.957-5.3h12.956l-.235.883h-12.721l-1.63,4.417" fill="#d3d4d7"/>
    <path id="Trazado_10371" data-name="Trazado 10371" d="M1902.83,7437.892h-13.174l1.63-4.417h12.721l-1.177,4.417" fill="#7b818e"/>
    <path id="Trazado_10372" data-name="Trazado 10372" d="M1996.589,7431.706h-.016l.1-5.4h17.69l-.014.891h-17.676l-.08,4.505" fill="#d3d4d7"/>
    <path id="Trazado_10373" data-name="Trazado 10373" d="M2014.277,7431.706h-17.688l.08-4.505h17.676l-.068,4.505" fill="#7b818e"/>
    <path id="Trazado_10374" data-name="Trazado 10374" d="M1891.938,7431.706h-.328l1.993-5.4h12.312l-.237.891H1893.6l-1.666,4.505" fill="#d3d4d7"/>
    <path id="Trazado_10375" data-name="Trazado 10375" d="M1904.477,7431.706h-12.539l1.666-4.505h12.075l-1.2,4.505" fill="#7b818e"/>
    <path id="Trazado_10376" data-name="Trazado 10376" d="M1923.929,7431.706h-.155l.939-5.4h18.714l-.093.891h-18.62l-.785,4.505" fill="#d3d4d7"/>
    <path id="Trazado_10377" data-name="Trazado 10377" d="M1942.861,7431.706h-18.932l.785-4.505h18.62l-.473,4.505" fill="#7b818e"/>
    <path id="Trazado_10378" data-name="Trazado 10378" d="M1905.628,7431.706h-.237l1.437-5.4h16.987l-.155.891h-16.832l-1.2,4.505" fill="#d3d4d7"/>
    <path id="Trazado_10379" data-name="Trazado 10379" d="M1922.877,7431.706h-17.248l1.2-4.505h16.832l-.785,4.505" fill="#7b818e"/>
    <path id="Trazado_10380" data-name="Trazado 10380" d="M2065.446,7431.706h-.077l-.393-4.505h-16l-.033-.891h16.03l.47,5.4" fill="#d3d4d7"/>
    <path id="Trazado_10381" data-name="Trazado 10381" d="M2065.369,7431.706h-16.224l-.166-4.505h16l.393,4.505" fill="#7b818e"/>
    <path id="Trazado_10382" data-name="Trazado 10382" d="M2112.475,7437.892h-.358l-1.789-4.417H2098.25l-.235-.883h12.313l2.147,5.3" fill="#d3d4d7"/>
    <path id="Trazado_10383" data-name="Trazado 10383" d="M2112.117,7437.892h-12.693l-1.174-4.417h12.078l1.789,4.417" fill="#7b818e"/>
    <path id="Trazado_10384" data-name="Trazado 10384" d="M2115.7,7445.845h-.36l-2.509-6.184h-12.942l-.234-.883h13.176l2.869,7.067" fill="#d3d4d7"/>
    <path id="Trazado_10385" data-name="Trazado 10385" d="M2115.344,7445.845h-13.809l-1.642-6.184h12.942l2.509,6.184" fill="#7b818e"/>
    <path id="Trazado_10386" data-name="Trazado 10386" d="M1886.723,7445.845h-.327l2.607-7.067H1902.6l-.235.883H1889l-2.28,6.184" fill="#d3d4d7"/>
    <path id="Trazado_10387" data-name="Trazado 10387" d="M1900.714,7445.845h-13.992l2.28-6.184h13.358l-1.646,6.184" fill="#7b818e"/>
    <path id="Trazado_10388" data-name="Trazado 10388" d="M2096.866,7431.706h-.235l-1.2-4.505h-12.446l-.146-.891h12.592l1.434,5.4" fill="#d3d4d7"/>
    <path id="Trazado_10389" data-name="Trazado 10389" d="M2096.631,7431.706h-12.907l-.737-4.505h12.446l1.2,4.505" fill="#7b818e"/>
    <path id="Trazado_10390" data-name="Trazado 10390" d="M2082.828,7431.706h-.145l-.735-4.505h-16.005l-.077-.891h16.083l.879,5.4" fill="#d3d4d7"/>
    <path id="Trazado_10391" data-name="Trazado 10391" d="M2082.684,7431.706h-16.35l-.391-4.505h16.005l.735,4.505" fill="#7b818e"/>
    <path id="Trazado_10392" data-name="Trazado 10392" d="M2109.966,7431.706h-.36l-1.83-4.505h-11.191l-.237-.891h11.428l2.191,5.4" fill="#d3d4d7"/>
    <path id="Trazado_10393" data-name="Trazado 10393" d="M2109.606,7431.706H2097.78l-1.2-4.505h11.191l1.83,4.505" fill="#7b818e"/>
    <path id="Trazado_10394" data-name="Trazado 10394" d="M2031.267,7431.706h-.01l-.049-4.505h-15.969l-.066,4.505h-.013l.078-5.4h15.969l.059,5.4" fill="#d3d4d7"/>
    <path id="Trazado_10395" data-name="Trazado 10395" d="M2031.257,7431.706h-16.083l.066-4.505h15.969l.049,4.505" fill="#7b818e"/>
    <path id="Trazado_10396" data-name="Trazado 10396" d="M2048.26,7431.706h-.032l-.163-4.505H2032.1l-.009-.891h15.97l.2,5.4" fill="#d3d4d7"/>
    <path id="Trazado_10397" data-name="Trazado 10397" d="M2048.228,7431.706H2032.15l-.046-4.505h15.961l.163,4.505" fill="#7b818e"/>
    <path id="Trazado_10398" data-name="Trazado 10398" d="M1996.478,7437.892h-.015l.1-5.3h17.7l-.013.883h-17.692l-.08,4.417" fill="#d3d4d7"/>
    <path id="Trazado_10399" data-name="Trazado 10399" d="M2014.185,7437.892h-17.707l.08-4.417h17.692l-.065,4.417" fill="#7b818e"/>
    <path id="Trazado_10400" data-name="Trazado 10400" d="M1979.28,7437.892h-.043l.261-5.3h16.176l-.016.883H1979.5l-.218,4.417" fill="#d3d4d7"/>
    <path id="Trazado_10401" data-name="Trazado 10401" d="M1995.578,7437.892h-16.3l.218-4.417h16.16l-.08,4.417" fill="#7b818e"/>
    <path id="Trazado_10402" data-name="Trazado 10402" d="M2048.482,7437.892h-.031l-.158-4.417h-16.122l-.009-.883h16.132l.189,5.3" fill="#d3d4d7"/>
    <path id="Trazado_10403" data-name="Trazado 10403" d="M2048.451,7437.892h-16.233l-.047-4.417h16.122l.158,4.417" fill="#7b818e"/>
    <path id="Trazado_10404" data-name="Trazado 10404" d="M1884.438,7452.035h-.326l1.955-5.3h14.411l-.235.884h-14.176l-1.629,4.418" fill="#d3d4d7"/>
    <path id="Trazado_10405" data-name="Trazado 10405" d="M1899.069,7452.035h-14.63l1.629-4.418h14.176l-1.174,4.418" fill="#7b818e"/>
    <path id="Trazado_10406" data-name="Trazado 10406" d="M1943.193,7437.892h-.093l.559-5.3h17.275l-.043.883h-17.233l-.465,4.417" fill="#d3d4d7"/>
    <path id="Trazado_10407" data-name="Trazado 10407" d="M1960.674,7437.892h-17.482l.465-4.417h17.233l-.216,4.417" fill="#7b818e"/>
    <path id="Trazado_10408" data-name="Trazado 10408" d="M1961.6,7437.892h-.043l.258-5.3h16.795l-.043.883h-16.751l-.215,4.417" fill="#d3d4d7"/>
    <path id="Trazado_10409" data-name="Trazado 10409" d="M1978.351,7437.892H1961.6l.215-4.417h16.751l-.217,4.417" fill="#7b818e"/>
    <path id="Trazado_10410" data-name="Trazado 10410" d="M2031.335,7437.892h-.009l-.048-4.417h-16.13l-.065,4.417h-.013l.078-5.3h16.13l.057,5.3" fill="#d3d4d7"/>
    <path id="Trazado_10411" data-name="Trazado 10411" d="M2031.325,7437.892h-16.243l.065-4.417h16.13l.048,4.417" fill="#7b818e"/>
    <path id="Trazado_10412" data-name="Trazado 10412" d="M2066.681,7445.845h-.078l-.54-6.184h-16.634l-.032-.883h16.666l.618,7.067" fill="#d3d4d7"/>
    <path id="Trazado_10413" data-name="Trazado 10413" d="M2066.6,7445.845h-16.947l-.227-6.184h16.634l.54,6.184" fill="#7b818e"/>
    <path id="Trazado_10414" data-name="Trazado 10414" d="M2048.771,7445.845h-.032l-.224-6.184h-16.277l-.01-.883h16.287l.256,7.067" fill="#d3d4d7"/>
    <path id="Trazado_10415" data-name="Trazado 10415" d="M2048.739,7445.845H2032.3l-.067-6.184h16.277l.224,6.184" fill="#7b818e"/>
    <path id="Trazado_10416" data-name="Trazado 10416" d="M2065.987,7437.892h-.077l-.386-4.417h-16.316l-.033-.883h16.348l.463,5.3" fill="#d3d4d7"/>
    <path id="Trazado_10417" data-name="Trazado 10417" d="M2065.91,7437.892h-16.54l-.161-4.417h16.316l.386,4.417" fill="#7b818e"/>
    <path id="Trazado_10418" data-name="Trazado 10418" d="M2085.143,7445.845H2085l-1.011-6.184h-16.959l-.076-.883h17.036l1.156,7.067" fill="#d3d4d7"/>
    <path id="Trazado_10419" data-name="Trazado 10419" d="M2085,7445.845h-17.432l-.539-6.184h16.959l1.011,6.184" fill="#7b818e"/>
    <path id="Trazado_10420" data-name="Trazado 10420" d="M2098.509,7437.892h-.235l-1.173-4.417h-13.088l-.145-.883H2097.1l1.408,5.3" fill="#d3d4d7"/>
    <path id="Trazado_10421" data-name="Trazado 10421" d="M2098.274,7437.892h-13.537l-.724-4.417H2097.1l1.173,4.417" fill="#7b818e"/>
    <path id="Trazado_10422" data-name="Trazado 10422" d="M2031.42,7445.845h-.01l-.066-6.184h-16.289l-.091,6.184h-.013l.1-7.067h16.289l.076,7.067" fill="#d3d4d7"/>
    <path id="Trazado_10423" data-name="Trazado 10423" d="M2031.411,7445.845h-16.446l.091-6.184h16.289l.066,6.184" fill="#7b818e"/>
    <path id="Trazado_10424" data-name="Trazado 10424" d="M2083.841,7437.892h-.145l-.723-4.417h-16.486l-.077-.883h16.563l.868,5.3" fill="#d3d4d7"/>
    <path id="Trazado_10425" data-name="Trazado 10425" d="M2083.7,7437.892h-16.821l-.387-4.417h16.486l.723,4.417" fill="#7b818e"/>
    <path id="Trazado_10426" data-name="Trazado 10426" d="M1922.851,7437.892h-.155l.924-5.3h19.147l-.093.883h-19.053l-.769,4.417" fill="#d3d4d7"/>
    <path id="Trazado_10427" data-name="Trazado 10427" d="M1942.209,7437.892h-19.358l.769-4.417h19.053l-.465,4.417" fill="#7b818e"/>
    <path id="Trazado_10428" data-name="Trazado 10428" d="M1996.226,7452.035h-.016l.1-5.3h17.752l-.014.884h-17.738l-.08,4.418" fill="#d3d4d7"/>
    <path id="Trazado_10429" data-name="Trazado 10429" d="M2013.976,7452.035h-17.749l.08-4.418h17.738l-.069,4.418" fill="#7b818e"/>
    <path id="Trazado_10430" data-name="Trazado 10430" d="M1941.7,7452.035h-.093l.559-5.3h18.074l-.043.884h-18.031l-.465,4.418" fill="#d3d4d7"/>
    <path id="Trazado_10431" data-name="Trazado 10431" d="M1959.981,7452.035H1941.7l.465-4.418H1960.2l-.218,4.418" fill="#7b818e"/>
    <path id="Trazado_10432" data-name="Trazado 10432" d="M2102.266,7452.035h-.236l-1.172-4.418H2086.33l-.144-.884h14.672l1.408,5.3" fill="#d3d4d7"/>
    <path id="Trazado_10433" data-name="Trazado 10433" d="M2102.03,7452.035h-14.981l-.719-4.418h14.528l1.172,4.418" fill="#7b818e"/>
    <path id="Trazado_10434" data-name="Trazado 10434" d="M2031.487,7452.035h-.009l-.048-4.418h-16.488l-.067,4.418h-.014l.081-5.3h16.488l.057,5.3" fill="#d3d4d7"/>
    <path id="Trazado_10435" data-name="Trazado 10435" d="M2031.477,7452.035h-16.6l.067-4.418h16.488l.048,4.418" fill="#7b818e"/>
    <path id="Trazado_10436" data-name="Trazado 10436" d="M2067.219,7452.035h-.077l-.385-4.418H2049.72l-.033-.884h17.068l.462,5.3" fill="#d3d4d7"/>
    <path id="Trazado_10437" data-name="Trazado 10437" d="M2067.141,7452.035h-17.259l-.161-4.418h17.036l.385,4.418" fill="#7b818e"/>
    <path id="Trazado_10438" data-name="Trazado 10438" d="M2086.155,7452.035h-.145l-.722-4.418h-17.568l-.077-.884h17.645l.866,5.3" fill="#d3d4d7"/>
    <path id="Trazado_10439" data-name="Trazado 10439" d="M2086.01,7452.035h-17.9l-.385-4.418h17.568l.722,4.418" fill="#7b818e"/>
    <path id="Trazado_10440" data-name="Trazado 10440" d="M1901.864,7445.845h-.236l1.884-7.067h18.134l-.154.883h-17.98l-1.648,6.184" fill="#d3d4d7"/>
    <path id="Trazado_10441" data-name="Trazado 10441" d="M1920.412,7445.845h-18.548l1.648-6.184h17.98l-1.08,6.184" fill="#7b818e"/>
    <path id="Trazado_10442" data-name="Trazado 10442" d="M1903.981,7437.892h-.236l1.411-5.3h17.565l-.154.883h-17.411l-1.175,4.417" fill="#d3d4d7"/>
    <path id="Trazado_10443" data-name="Trazado 10443" d="M1921.8,7437.892h-17.817l1.175-4.417h17.411l-.769,4.417" fill="#7b818e"/>
    <path id="Trazado_10444" data-name="Trazado 10444" d="M1920.388,7452.035h-.154l.921-5.3h20.121l-.092.884h-20.029l-.767,4.418" fill="#d3d4d7"/>
    <path id="Trazado_10445" data-name="Trazado 10445" d="M1940.722,7452.035h-20.334l.767-4.418h20.029l-.462,4.418" fill="#7b818e"/>
    <path id="Trazado_10446" data-name="Trazado 10446" d="M1900.217,7452.035h-.235l1.411-5.3h18.865l-.154.884h-18.711l-1.176,4.418" fill="#d3d4d7"/>
    <path id="Trazado_10447" data-name="Trazado 10447" d="M1919.336,7452.035h-19.12l1.176-4.418H1920.1l-.767,4.418" fill="#7b818e"/>
    <path id="Trazado_10448" data-name="Trazado 10448" d="M2118.217,7452.035h-.36l-1.794-4.418H2102l-.235-.884h14.293l2.154,5.3" fill="#d3d4d7"/>
    <path id="Trazado_10449" data-name="Trazado 10449" d="M2117.857,7452.035H2103.18l-1.176-4.418h14.058l1.794,4.418" fill="#7b818e"/>
    <path id="Trazado_10450" data-name="Trazado 10450" d="M1882.129,7458.295h-.328l1.985-5.375h15.045l-.235.885h-14.81l-1.657,4.49" fill="#d3d4d7"/>
    <path id="Trazado_10451" data-name="Trazado 10451" d="M1897.4,7458.295h-15.271l1.657-4.49h14.81l-1.2,4.49" fill="#7b818e"/>
    <path id="Trazado_10452" data-name="Trazado 10452" d="M2087.179,7458.295h-.145l-.737-4.49h-18.034l-.077-.885H2086.3l.883,5.375" fill="#d3d4d7"/>
    <path id="Trazado_10453" data-name="Trazado 10453" d="M2087.034,7458.295h-18.382l-.39-4.49H2086.3l.737,4.49" fill="#7b818e"/>
    <path id="Trazado_10454" data-name="Trazado 10454" d="M1942.353,7445.845h-.093l.744-7.067h17.627l-.044.883H1943l-.651,6.184" fill="#d3d4d7"/>
    <path id="Trazado_10455" data-name="Trazado 10455" d="M1960.283,7445.845h-17.93l.651-6.184h17.583l-.3,6.184" fill="#7b818e"/>
    <path id="Trazado_10456" data-name="Trazado 10456" d="M2100.62,7445.845h-.235l-1.639-6.184h-13.72l-.144-.883h13.864l1.874,7.067" fill="#d3d4d7"/>
    <path id="Trazado_10457" data-name="Trazado 10457" d="M2100.385,7445.845h-14.347l-1.012-6.184h13.72l1.639,6.184" fill="#7b818e"/>
    <path id="Trazado_10458" data-name="Trazado 10458" d="M2103.925,7458.295h-.236l-1.191-4.49h-15.16l-.145-.885h15.3l1.426,5.375" fill="#d3d4d7"/>
    <path id="Trazado_10459" data-name="Trazado 10459" d="M2103.689,7458.295h-15.614l-.737-4.49h15.16l1.191,4.49" fill="#7b818e"/>
    <path id="Trazado_10460" data-name="Trazado 10460" d="M2120.756,7458.295h-.36l-1.822-4.49H2103.65l-.235-.885h15.159l2.181,5.375" fill="#d3d4d7"/>
    <path id="Trazado_10461" data-name="Trazado 10461" d="M2120.4,7458.295h-15.556l-1.191-4.49h14.925l1.822,4.49" fill="#7b818e"/>
    <path id="Trazado_10462" data-name="Trazado 10462" d="M1978.589,7452.035h-.043l.258-5.3h16.616l-.016.884h-16.6l-.214,4.418" fill="#d3d4d7"/>
    <path id="Trazado_10463" data-name="Trazado 10463" d="M1995.325,7452.035h-16.735l.214-4.418h16.6l-.079,4.418" fill="#7b818e"/>
    <path id="Trazado_10464" data-name="Trazado 10464" d="M1960.91,7452.035h-.043l.259-5.3h16.793l-.043.884h-16.75l-.216,4.418" fill="#d3d4d7"/>
    <path id="Trazado_10465" data-name="Trazado 10465" d="M1977.661,7452.035H1960.91l.216-4.418h16.75l-.215,4.418" fill="#7b818e"/>
    <path id="Trazado_10466" data-name="Trazado 10466" d="M1921.464,7445.845h-.154l1.233-7.067h19.573l-.093.883h-19.48l-1.078,6.184" fill="#d3d4d7"/>
    <path id="Trazado_10467" data-name="Trazado 10467" d="M1941.373,7445.845h-19.909l1.078-6.184h19.48l-.65,6.184" fill="#7b818e"/>
    <path id="Trazado_10468" data-name="Trazado 10468" d="M1919.295,7458.295h-.155l.939-5.375h20.55l-.093.885h-20.457l-.784,4.49" fill="#d3d4d7"/>
    <path id="Trazado_10469" data-name="Trazado 10469" d="M1940.063,7458.295h-20.768l.784-4.49h20.457l-.473,4.49" fill="#7b818e"/>
    <path id="Trazado_10470" data-name="Trazado 10470" d="M1898.551,7458.295h-.237l1.433-5.375h19.433l-.155.885h-19.279l-1.2,4.49" fill="#d3d4d7"/>
    <path id="Trazado_10471" data-name="Trazado 10471" d="M1918.243,7458.295h-19.692l1.2-4.49h19.279l-.784,4.49" fill="#7b818e"/>
    <path id="Trazado_10472" data-name="Trazado 10472" d="M1978.891,7445.845h-.043l.347-7.067h16.368l-.016.883h-16.352l-.3,6.184" fill="#d3d4d7"/>
    <path id="Trazado_10473" data-name="Trazado 10473" d="M1995.438,7445.845h-16.547l.3-6.184h16.352l-.109,6.184" fill="#7b818e"/>
    <path id="Trazado_10474" data-name="Trazado 10474" d="M2049,7452.035h-.032l-.157-4.418h-16.483l-.009-.884h16.492l.189,5.3" fill="#d3d4d7"/>
    <path id="Trazado_10475" data-name="Trazado 10475" d="M2048.963,7452.035H2032.37l-.047-4.418h16.483l.157,4.418" fill="#7b818e"/>
    <path id="Trazado_10476" data-name="Trazado 10476" d="M2031.555,7458.295h-.01l-.049-4.49h-16.648l-.066,4.49h-.012l.078-5.375H2031.5l.059,5.375" fill="#d3d4d7"/>
    <path id="Trazado_10477" data-name="Trazado 10477" d="M2031.545,7458.295h-16.762l.066-4.49H2031.5l.049,4.49" fill="#7b818e"/>
    <path id="Trazado_10478" data-name="Trazado 10478" d="M2049.222,7458.295h-.032l-.163-4.49h-16.64l-.01-.885h16.649l.2,5.375" fill="#d3d4d7"/>
    <path id="Trazado_10479" data-name="Trazado 10479" d="M2049.19,7458.295h-16.751l-.051-4.49h16.64l.163,4.49" fill="#7b818e"/>
    <path id="Trazado_10480" data-name="Trazado 10480" d="M1941.044,7458.295h-.093l.565-5.375h72.448l-.013.885h-72.434l-.472,4.49" fill="#d3d4d7"/>
    <path id="Trazado_10481" data-name="Trazado 10481" d="M2013.884,7458.295h-72.84l.472-4.49h72.434l-.067,4.49" fill="#7b818e"/>
    <path id="Trazado_10482" data-name="Trazado 10482" d="M2067.765,7458.295h-.077l-.391-4.49h-17.353l-.032-.885H2067.3l.469,5.375" fill="#d3d4d7"/>
    <path id="Trazado_10483" data-name="Trazado 10483" d="M2067.688,7458.295h-17.581l-.164-4.49H2067.3l.391,4.49" fill="#7b818e"/>
    <path id="Trazado_10484" data-name="Trazado 10484" d="M1961.214,7445.845h-.043l.345-7.067h16.792l-.043.883h-16.749l-.3,6.184" fill="#d3d4d7"/>
    <path id="Trazado_10485" data-name="Trazado 10485" d="M1977.962,7445.845h-16.748l.3-6.184h16.749l-.3,6.184" fill="#7b818e"/>
    <path id="Trazado_10486" data-name="Trazado 10486" d="M1996.336,7445.845h-.016l.126-7.067h17.727l-.013.883h-17.714l-.11,6.184" fill="#d3d4d7"/>
    <path id="Trazado_10487" data-name="Trazado 10487" d="M2014.07,7445.845h-17.733l.11-6.184h17.714l-.09,6.184" fill="#7b818e"/>
    <path id="Trazado_10488" data-name="Trazado 10488" d="M2097.795,7389.156a9.307,9.307,0,0,1-9.307,9.307H1914.7a9.308,9.308,0,0,1-9.309-9.307V7267.748a9.308,9.308,0,0,1,9.309-9.308h173.787a9.306,9.306,0,0,1,9.307,9.308v121.408" fill="#fff"/>
    <path id="Trazado_10489" data-name="Trazado 10489" d="M2097.795,7275.6v-7.857a9.306,9.306,0,0,0-9.307-9.308H1914.7a9.308,9.308,0,0,0-9.309,9.308v7.857h192.4" fill="#354f66"/>
    <path id="Trazado_10490" data-name="Trazado 10490" d="M2067.82,7270.517a3.49,3.49,0,1,1,3.492-3.494,3.493,3.493,0,0,1-3.492,3.494" fill="#0b111c"/>
    <path id="Trazado_10491" data-name="Trazado 10491" d="M2081.006,7270.517a3.49,3.49,0,1,1,3.492-3.494,3.493,3.493,0,0,1-3.492,3.494" fill="#0b111c"/>
    <path id="Trazado_10492" data-name="Trazado 10492" d="M2054.415,7270.517a3.49,3.49,0,1,1,3.492-3.494,3.495,3.495,0,0,1-3.492,3.494" fill="#0b111c"/>
    <path id="Trazado_10493" data-name="Trazado 10493" d="M2094.7,7317.585H1908.483v-38.564H2094.7v38.564Z" fill="#8aed8a"/>
    <path id="Trazado_10494" data-name="Trazado 10494" d="M1975.138,7267.023a3.632,3.632,0,0,1-3.631,3.63h-45.293a3.63,3.63,0,0,1,0-7.26h45.293a3.631,3.631,0,0,1,3.631,3.63Z" fill="#fff"/>
    <path id="Trazado_10495" data-name="Trazado 10495" d="M1929.447,7267.877a.985.985,0,0,1-.37.811,1.612,1.612,0,0,1-1.03.3,2.434,2.434,0,0,1-1.076-.228v-.748a4.352,4.352,0,0,0,.651.24,1.911,1.911,0,0,0,.487.07.691.691,0,0,0,.407-.1.346.346,0,0,0,.141-.3.327.327,0,0,0-.062-.2.715.715,0,0,0-.183-.169,5.42,5.42,0,0,0-.493-.257,2.3,2.3,0,0,1-.523-.314,1.158,1.158,0,0,1-.276-.351,1,1,0,0,1-.1-.467.979.979,0,0,1,.341-.793,1.419,1.419,0,0,1,.944-.289,2.244,2.244,0,0,1,.566.07,3.815,3.815,0,0,1,.561.2l-.259.627a3.662,3.662,0,0,0-.5-.175,1.663,1.663,0,0,0-.391-.05.524.524,0,0,0-.351.107.379.379,0,0,0-.073.465.555.555,0,0,0,.158.153,4.944,4.944,0,0,0,.511.266,2.061,2.061,0,0,1,.73.51,1,1,0,0,1,.2.628Z" fill="#283042"/>
    <path id="Trazado_10496" data-name="Trazado 10496" d="M1931.277,7266.536a.5.5,0,0,0-.4.16.734.734,0,0,0-.163.453h1.11a.659.659,0,0,0-.152-.453.521.521,0,0,0-.4-.16Zm.111,2.448a1.5,1.5,0,0,1-1.1-.387,1.477,1.477,0,0,1-.394-1.1,1.608,1.608,0,0,1,.366-1.127,1.48,1.48,0,0,1,1.967-.049,1.318,1.318,0,0,1,.343.969v.386H1930.7a.762.762,0,0,0,.2.526.7.7,0,0,0,.525.191,2.248,2.248,0,0,0,.5-.054,2.47,2.47,0,0,0,.487-.176v.615a1.836,1.836,0,0,1-.443.154,2.81,2.81,0,0,1-.577.05Z" fill="#283042"/>
    <path id="Trazado_10497" data-name="Trazado 10497" d="M1934.829,7267.586l-.308.011a.967.967,0,0,0-.513.123.392.392,0,0,0-.17.349c0,.223.129.336.385.336a.613.613,0,0,0,.441-.159.563.563,0,0,0,.165-.421v-.239Zm.233,1.346-.152-.4h-.022a1.137,1.137,0,0,1-.412.35,1.323,1.323,0,0,1-.552.1.9.9,0,0,1-.66-.239.927.927,0,0,1-.238-.681.766.766,0,0,1,.323-.683,1.887,1.887,0,0,1,.975-.242l.505-.015V7267a.4.4,0,0,0-.453-.441,2.045,2.045,0,0,0-.818.211l-.263-.536a2.353,2.353,0,0,1,1.114-.263,1.392,1.392,0,0,1,.9.254.943.943,0,0,1,.312.775v1.936Z" fill="#283042"/>
    <path id="Trazado_10498" data-name="Trazado 10498" d="M1938.053,7265.973a1.255,1.255,0,0,1,.268.022l-.061.744a.884.884,0,0,0-.233-.026.839.839,0,0,0-.592.2.707.707,0,0,0-.211.546v1.478h-.793v-2.906h.6l.116.489h.04a1.078,1.078,0,0,1,.364-.394.894.894,0,0,1,.5-.148Z" fill="#283042"/>
    <path id="Trazado_10499" data-name="Trazado 10499" d="M1940.028,7268.984q-1.356,0-1.357-1.489a1.6,1.6,0,0,1,.369-1.132,1.4,1.4,0,0,1,1.058-.39,2.018,2.018,0,0,1,.905.2l-.234.613c-.125-.051-.241-.091-.348-.124a1.126,1.126,0,0,0-.323-.048c-.411,0-.618.294-.618.879,0,.568.207.852.618.852a1.449,1.449,0,0,0,.424-.06,1.61,1.61,0,0,0,.391-.192v.678a1.276,1.276,0,0,1-.39.169,2.127,2.127,0,0,1-.495.047Z" fill="#283042"/>
    <path id="Trazado_10500" data-name="Trazado 10500" d="M1944.266,7268.932h-.792v-1.7q0-.628-.468-.629a.534.534,0,0,0-.48.226,1.38,1.38,0,0,0-.149.733v1.367h-.793v-4.043h.793v.823c0,.064-.005.216-.018.452l-.019.233h.042a.924.924,0,0,1,.843-.424,1.028,1.028,0,0,1,.776.274,1.1,1.1,0,0,1,.265.791v1.894Z" fill="#283042"/>
    <path id="Trazado_10501" data-name="Trazado 10501" d="M1999.246,7287.465a3.047,3.047,0,0,1-3.047,3.046h-37.084a3.046,3.046,0,0,1,0-6.092H1996.2a3.047,3.047,0,0,1,3.047,3.046Z" fill="#4baa4d"/>
    <path id="Trazado_10502" data-name="Trazado 10502" d="M2081.437,7296.6a1.708,1.708,0,0,1-1.705,1.706H1957.774a1.706,1.706,0,0,1,0-3.411h121.958a1.707,1.707,0,0,1,1.705,1.705Z" fill="#60c967"/>
    <path id="Trazado_10503" data-name="Trazado 10503" d="M2081.437,7303.913a1.707,1.707,0,0,1-1.705,1.705H1957.774a1.706,1.706,0,0,1,0-3.411h121.958a1.707,1.707,0,0,1,1.705,1.706Z" fill="#60c967"/>
    <path id="Trazado_10504" data-name="Trazado 10504" d="M2042.994,7311.223a1.706,1.706,0,0,1-1.7,1.706h-83.517a1.707,1.707,0,0,1,0-3.413h83.517a1.706,1.706,0,0,1,1.7,1.707Z" fill="#60c967"/>
    <path id="Trazado_10505" data-name="Trazado 10505" d="M1921.253,7298.88a14.713,14.713,0,1,0,14.586-14.837,14.716,14.716,0,0,0-14.586,14.837Z" fill="#fff"/>
    <path id="Trazado_10506" data-name="Trazado 10506" d="M1999.246,7324.078a3.048,3.048,0,0,1-3.047,3.047h-37.084a3.047,3.047,0,0,1,0-6.094H1996.2a3.048,3.048,0,0,1,3.047,3.047Z" fill="#a3c4c1"/>
    <path id="Trazado_10507" data-name="Trazado 10507" d="M2081.437,7333.216a1.706,1.706,0,0,1-1.705,1.7H1957.774a1.705,1.705,0,0,1,0-3.41h121.958a1.707,1.707,0,0,1,1.705,1.706Z" fill="#daedec"/>
    <path id="Trazado_10508" data-name="Trazado 10508" d="M2081.437,7340.527a1.706,1.706,0,0,1-1.705,1.7H1957.774a1.706,1.706,0,0,1,0-3.411h121.958a1.708,1.708,0,0,1,1.705,1.707Z" fill="#daedec"/>
    <path id="Trazado_10509" data-name="Trazado 10509" d="M2042.994,7347.836a1.7,1.7,0,0,1-1.7,1.706h-83.517a1.706,1.706,0,0,1,0-3.411h83.517a1.7,1.7,0,0,1,1.7,1.705Z" fill="#daedec"/>
    <path id="Trazado_10510" data-name="Trazado 10510" d="M1921.253,7335.493a14.713,14.713,0,1,0,14.586-14.836,14.713,14.713,0,0,0-14.586,14.836Z" fill="#daedec"/>
    <path id="Trazado_10511" data-name="Trazado 10511" d="M1999.246,7359.66a3.046,3.046,0,0,1-3.047,3.045h-37.084a3.046,3.046,0,0,1,0-6.092H1996.2a3.049,3.049,0,0,1,3.047,3.047Z" fill="#a3c4c1"/>
    <path id="Trazado_10512" data-name="Trazado 10512" d="M2081.437,7368.8a1.7,1.7,0,0,1-1.705,1.7H1957.774a1.705,1.705,0,0,1,0-3.41h121.958a1.708,1.708,0,0,1,1.705,1.709Z" fill="#daedec"/>
    <path id="Trazado_10513" data-name="Trazado 10513" d="M2081.437,7376.108a1.707,1.707,0,0,1-1.705,1.707H1957.774a1.706,1.706,0,0,1,0-3.412h121.958a1.707,1.707,0,0,1,1.705,1.705Z" fill="#daedec"/>
    <path id="Trazado_10514" data-name="Trazado 10514" d="M2042.994,7383.421a1.7,1.7,0,0,1-1.7,1.7h-83.517a1.706,1.706,0,0,1,0-3.412h83.517a1.7,1.7,0,0,1,1.7,1.708Z" fill="#daedec"/>
    <path id="Trazado_10515" data-name="Trazado 10515" d="M1921.253,7371.076a14.713,14.713,0,1,0,14.586-14.837,14.715,14.715,0,0,0-14.586,14.837Z" fill="#daedec"/>
    <path id="Trazado_10516" data-name="Trazado 10516" d="M1935.525,7305.615a2.659,2.659,0,0,1-.476.043,2.2,2.2,0,0,1-1.624-.475l-5.9-5.1a1.421,1.421,0,0,1-.487-1.052,2.457,2.457,0,0,1,.74-1.742,1.872,1.872,0,0,1,.966-.546,1.816,1.816,0,0,1,1.534.5l4.514,3.84,4.914-6.874c.014-.026,3.1-4.353,4.468-4.612a.717.717,0,0,1,.4.028.668.668,0,0,1,.409.432c.392,1.174-1.9,4.958-1.923,4.995l-6.009,9.587a2.3,2.3,0,0,1-1.521.976Z" fill="#60c967"/>
  </g>
</svg>
