<svg xmlns="http://www.w3.org/2000/svg" width="187.49" height="225.516" viewBox="0 0 187.49 225.516">
  <g id="Grupo_10755" data-name="Grupo 10755" transform="translate(-1080.01 -620.468)">
    <path id="Trazado_6246" data-name="Trazado 6246" d="M1206.355,840.475l-23.975-.173h-.058l-90.2-.65.493-7.2c.17-2.551.373-5.56.576-8.665.327-4.858.659-9.94.891-13.818.17-2.678.286-4.781.327-5.833.033-1,.128-2.7.253-4.858.132-2.2.3-4.864.489-7.75v-.006c.182-2.774.373-5.752.567-8.694v-.006c.435-6.479.862-12.8,1.1-16.546.016-.209.029-.422.045-.645.158-2.2.468-5.1.85-8.279,1.243-10.367,3.281-23.651,3.617-24.931a21.457,21.457,0,0,0,7.558,0,19.459,19.459,0,0,0,6.588-2.17,9.912,9.912,0,0,0,.908-.564l-.017-.376a14.051,14.051,0,0,1,3.572-.133c3.609.615,5.084,2.033,9.531,6.1s5.589,8,7.495,12.705c.547,1.346,1.231,3.328,1.981,5.625.87,2.642,1.836,5.707,2.8,8.685,1.123,3.471,2.246,6.835,3.22,9.32.505,1.28,1.293,3.1,2.279,5.26.924,2.032,2.018,4.37,3.2,6.85,1.119,2.338,2.308,4.792,3.513,7.236.03.067.067.133.1.2,1.276,2.592,2.561,5.169,3.775,7.563,1.628,3.191,3.12,6.057,4.293,8.212,4.7,8.639,15.5,17.151,18.418,19.565,2.64,2.18,6.522,4.05,9.866,5.6.361.168.717.335,1.061.493,2.184,1.016,7.3,3.751,10.923,5.717h0c2.283,1.235,3.961,2.16,3.961,2.16Z" fill="#fdc954"/>
    <path id="Trazado_6247" data-name="Trazado 6247" d="M1113.715,794.357c6.353-1.4,12.324-3.176,15.626-4.192s11.942-2.922,17.151-4.6a13.923,13.923,0,0,0,3.953-1.84c-1.181-2.48-2.275-4.818-3.2-6.85a53.468,53.468,0,0,1-7.741,3.379c-4.574,1.525-6.733,2.795-15.244,4.538s-16.007,2.831-17.039,3.085a1.314,1.314,0,0,1-.692-.054c.033,2.025.075,4.82.1,7.626a45.815,45.815,0,0,0,7.085-1.093Z" fill="#fef6b8"/>
    <path id="Trazado_6248" data-name="Trazado 6248" d="M1106.058,787.637c-.978-.467-2.213-1.443-3.522-2.071a30.832,30.832,0,0,0-6.821-2.734c-.194,2.942-.385,5.92-.567,8.694v.006c.431.264.919.569,1.475.92,5.66,3.557,8.345,3,8.345,3h0c.232-2.558.41-4.331.489-4.528a30.6,30.6,0,0,0,.6-3.29Z" fill="#fef6b8"/>
    <path id="Trazado_6249" data-name="Trazado 6249" d="M1100,802.234c-1.231-.716-2.3-1.438-5.337-2.952-.125,2.159-.22,3.861-.253,4.858-.041,1.052-.157,3.155-.327,5.833.513.245,1.143.554,1.848.9,1.848.91,2.287,1.778,4.7,2.8a18.16,18.16,0,0,0,2.536.9c.323-2.735.679-6.542,1.019-10.311-.8-.35-2.967-1.309-4.189-2.023Z" fill="#fef6b8"/>
    <path id="Trazado_6250" data-name="Trazado 6250" d="M1107.007,814.589a33.16,33.16,0,0,0,5.055-.667c1.782-.508,7.877-1.271,10.674-1.672s7.368-2.266,13.711-3.537,11.57-4.573,16.016-6.606a23.17,23.17,0,0,0,5.366-3.384c-1.214-2.394-2.5-4.971-3.775-7.563-1.939,1.083-5.607,3.085-8.2,4.325a58.067,58.067,0,0,1-13.977,4.335c-4.189.636-10.417,2.287-14.482,3.049a65.056,65.056,0,0,1-10.827,1.545l0,.045c-.025.569-.058,1.028-.1,1.332a47.085,47.085,0,0,0,.535,8.8Z" fill="#fef6b8"/>
    <path id="Trazado_6251" data-name="Trazado 6251" d="M1098.313,825.992c-1.682-.773-2.813-1.062-5.125-2.2-.2,3.1-.406,6.114-.576,8.665a8.231,8.231,0,0,0,1.413.269c1.421.127,1.525,1.016,3.808,1.27a17.888,17.888,0,0,0,2.337.109c.331-2,.717-4.355,1.106-6.763-.878-.4-2-.905-2.963-1.349Z" fill="#fef6b8"/>
    <path id="Trazado_6252" data-name="Trazado 6252" d="M1191.467,832.6c-.344-.158-.7-.325-1.061-.493a11.05,11.05,0,0,0-1.1.239c-2.8.762-5.847,1.016-8.511,1.763s-7.243-1.377-7.243-1.377l-1.4-2.165s-1.02-.254-2.288-.508a58.12,58.12,0,0,1-7.748-3.176c-3.688-1.651-9.659,0-9.659,0l1.272,1.773a17.027,17.027,0,0,0-3.56,1.149c-2.03.9-8.382,2.287-11.813,2.8a20.29,20.29,0,0,1-7.368-.635l-.89-2.795s-.129-.636-2.031-.839a33.22,33.22,0,0,0-10.545-.3c-4.546.65-6.332.191-8.889-.666.3,2.786.581,5.743.784,8.065l8.739,1.749c5.08,1.016,9.149.508,10.417-.127a6.906,6.906,0,0,1,3.049-.509l.763,1.906s4.317-.889,6.862-.254,5.971,0,7.748-.127,5.209-.635,7.5-.254a11.577,11.577,0,0,0,4.7-.381l-1.649-2.287a9.328,9.328,0,0,1,4.575-.381c2.792.381,6.352,1.652,12.066,3.049s5.465.254,5.465.254l2.669,2.241h.058c.841.005,9.825.041,11.884-.6a79.9,79.9,0,0,1,8.126-1.388c-3.626-1.966-8.739-4.7-10.923-5.717Z" fill="#fef6b8"/>
    <path id="Trazado_6253" data-name="Trazado 6253" d="M1109.423,835.423c-.2-2.322-.481-5.279-.784-8.065-.145-1.329-.3-2.619-.451-3.781-.369-2.77-.821-5.994-1.181-8.988a47.085,47.085,0,0,1-.535-8.8c.038-.3.071-.763.1-1.332.082-2.027.087-5.52.062-9.009-.025-2.806-.067-5.6-.1-7.626-.033-1.827-.058-3.029-.058-3.029s-.19,1.384-.414,2.842a30.6,30.6,0,0,1-.6,3.29c-.079.2-.257,1.97-.489,4.528-.22,2.444-.493,5.606-.783,8.8-.34,3.769-.7,7.576-1.019,10.311-.042.352-.083.692-.125,1.006-.36,2.85-1.06,7.39-1.765,11.767-.389,2.408-.775,4.763-1.106,6.763-.543,3.277-.941,5.6-.941,5.6h10.546s-.133-1.768-.352-4.277Z" fill="#5e1a47"/>
    <path id="Trazado_6254" data-name="Trazado 6254" d="M1106.472,784.923h0a.126.126,0,0,1-.12-.133c0-.082.385-8.228.746-13.818.128-2.007.315-4.68.51-7.547.356-5.184.762-11.06.965-14.743.232-4.18.124-9.788.05-13.5-.025-1.366-.05-2.546-.05-3.327a.129.129,0,0,1,.257,0c0,.779.021,1.957.05,3.322.07,3.714.182,9.328-.054,13.518-.2,3.685-.6,9.562-.966,14.746-.194,2.868-.377,5.54-.509,7.547-.361,5.588-.742,13.731-.746,13.812a.127.127,0,0,1-.129.122Z" fill="#5e1a47"/>
    <path id="Trazado_6255" data-name="Trazado 6255" d="M1132.581,840.6a.129.129,0,0,1-.124-.1c-.021-.1-1.939-9.645-2.163-12.4a20.432,20.432,0,0,0-3.029-8.074c-1.048-1.677-2.523-7.206-3.953-12.552-.319-1.2-.638-2.4-.953-3.553a.125.125,0,0,1,.087-.156.128.128,0,0,1,.158.089c.314,1.151.634,2.35.957,3.554,1.421,5.329,2.892,10.839,3.92,12.483a20.365,20.365,0,0,1,3.066,8.188c.224,2.743,2.138,12.277,2.159,12.373a.128.128,0,0,1-.1.15l-.025,0Z" fill="#5e1a47"/>
    <path id="Trazado_6256" data-name="Trazado 6256" d="M1161.55,841.174a.124.124,0,0,1-.108-.059c-.016-.025-1.595-2.489-2.349-3.619-.237-.35-.763-1.2-1.43-2.284-1.533-2.48-3.845-6.229-5.3-8.257-1.583-2.209-4.106-7.413-6.331-12-.721-1.487-1.4-2.892-2-4.085-1.388-2.776-3.721-7.945-5.776-12.506-1.512-3.358-2.946-6.53-3.754-8.2a.129.129,0,0,1,.058-.17.126.126,0,0,1,.17.058c.812,1.677,2.242,4.851,3.758,8.211,2.055,4.558,4.384,9.725,5.772,12.5.6,1.194,1.277,2.6,2,4.087,2.221,4.582,4.741,9.776,6.311,11.967,1.463,2.035,3.779,5.788,5.313,8.272.667,1.078,1.193,1.93,1.425,2.276.754,1.132,2.337,3.6,2.349,3.623a.125.125,0,0,1-.037.176.13.13,0,0,1-.066.02Z" fill="#5e1a47"/>
    <path id="Trazado_6257" data-name="Trazado 6257" d="M1094.406,804.267h-.008a.126.126,0,0,1-.12-.134c.02-.357,2.274-35.725,2.461-38.506.19-2.918,1.595-14.18,2.266-19.1a.134.134,0,0,1,.146-.109.127.127,0,0,1,.107.144c-.671,4.912-2.076,16.166-2.266,19.078-.187,2.78-2.437,38.148-2.462,38.5a.125.125,0,0,1-.124.12Z" fill="#5e1a47"/>
    <path id="Trazado_6258" data-name="Trazado 6258" d="M1152.72,700.978s3.426-7.758-2.163-17.6-8.81-10.985-8.81-10.985,3.858-6.139-.969-14.948a31.429,31.429,0,0,0-12.568-12.494l-3.949,3.43c8.01,4.591,13.086,14.992,8.64,26.426a23.725,23.725,0,0,1,10.922,10.291c4.322,7.749,4.575,19.31,4.575,19.31a16.706,16.706,0,0,1,6.1,0c3.174.636,5.718,5.209,5.718,5.209l-.281-2.5c-.568-2.292-2.258-5.435-7.214-6.143Z" fill="#ef7d80"/>
    <path id="Trazado_6259" data-name="Trazado 6259" d="M1081.855,692.693a.127.127,0,0,1-.042-.247l61.588-21.2,37.657-10.945a.13.13,0,0,1,.158.086.132.132,0,0,1-.087.158l-37.65,10.943-61.583,21.2a.135.135,0,0,1-.041.007Z" fill="#5e1a47"/>
    <path id="Trazado_6260" data-name="Trazado 6260" d="M1179.778,676.458c-.506-9.655-6.212-14.479-6.212-14.479.506-5.973-5.092-15-14.113-18.426s-19.438-5.373-27.965-1.143a12.3,12.3,0,0,0-3.278,2.541,31.429,31.429,0,0,1,12.568,12.494c4.827,8.809.969,14.948.969,14.948s3.22,1.143,8.81,10.985,2.163,17.6,2.163,17.6c4.956.708,6.646,3.851,7.214,6.143a8.972,8.972,0,0,1,.281,2.5c8.764-3.938,20.072-23.5,19.563-33.159Z" fill="#eb5b52"/>
    <path id="Trazado_6261" data-name="Trazado 6261" d="M1155.894,698.649a.132.132,0,0,1-.087-.035.127.127,0,0,1,0-.18,63.624,63.624,0,0,0,10.06-15.11c1.944-4.039,5.006-11.617,3.63-16.98a.127.127,0,0,1,.091-.155.125.125,0,0,1,.154.092c.733,2.852.692,8.144-3.647,17.153a63.707,63.707,0,0,1-10.106,15.176.126.126,0,0,1-.091.039Z" fill="#5e1a47"/>
    <path id="Trazado_6262" data-name="Trazado 6262" d="M1153.756,695.072h0a.126.126,0,0,1-.125-.128,26.7,26.7,0,0,0-4.442-13.64c-4.458-6.6-7.487-8.786-7.516-8.808a.129.129,0,0,1-.038-.162c5.768-10.921-6.4-22.01-6.522-22.121a.122.122,0,0,1-.008-.179.124.124,0,0,1,.178-.01c.125.112,12.369,11.267,6.626,22.332.534.414,3.431,2.792,7.492,8.806a26.956,26.956,0,0,1,4.483,13.784.127.127,0,0,1-.128.126Z" fill="#5e1a47"/>
    <path id="Trazado_6263" data-name="Trazado 6263" d="M1141.747,762.3c-1.707.686-4.649,1.88-7.317,2.967-4.057,1.652-7.757,2.16-15.378,4.066s-9.02,1.525-11.83,1.652-3.8-1.779-5.067-2.668a35.717,35.717,0,0,0-5.292-2.678c.158-2.2.468-5.1.85-8.279.538.163,1.073.31,1.512.412a12.1,12.1,0,0,1,4.326,1.652c1.272.889,3.05,1.016,6.224,1.4A22.407,22.407,0,0,0,1120,759.038c2.478-1.143,6.672-1.143,11.5-2.668,2.925-.925,5.7-2.032,7.446-2.759.87,2.642,1.836,5.707,2.8,8.685Z" fill="#fef6b8"/>
    <path id="Trazado_6264" data-name="Trazado 6264" d="M1153.958,790.962a87.911,87.911,0,0,1-5.875-8.13c-4.218-6.912-9.124-19.408-9.124-19.408s-7.965-20.393-10.38-24.042-7.455-5.372-10.579-7.349a26.17,26.17,0,0,1-2.524-1.778,9.912,9.912,0,0,0,.908-.564l-.017-.376a14.051,14.051,0,0,1,3.572-.133c3.609.615,5.084,2.033,9.531,6.1s5.589,8,7.495,12.705c.547,1.346,1.231,3.328,1.981,5.625.87,2.642,1.836,5.707,2.8,8.685,1.123,3.471,2.246,6.835,3.22,9.32.505,1.28,1.293,3.1,2.279,5.26.924,2.032,2.018,4.37,3.2,6.85,1.119,2.338,2.308,4.792,3.513,7.236Z" fill="#5e1a47"/>
    <path id="Trazado_6265" data-name="Trazado 6265" d="M1134.425,720.279a61.513,61.513,0,0,1-1.524,13.03c-.444,1.4-1.012,4.457-1.413,6.769-.025.157-.054.31-.079.457-.249,1.444-.415,2.5-.415,2.5a11.816,11.816,0,0,1-3.745,1.9,4.577,4.577,0,0,1-2.988,0c-.046-.325-.315-1.433-.551-3.211-.087-.687-.17-1.469-.236-2.343a46.946,46.946,0,0,1-.1-4.925c.174-5.544.618-14.239.837-16.17a2.113,2.113,0,0,1,.054-.345,1.216,1.216,0,0,0-.1-.539,73.7,73.7,0,0,0-3.327-6.9l-.443,1.173-4.26,12.614s-.058.045-.187.132a26.925,26.925,0,0,1-7.723,3.1c-5.818,1.591-8.221,1.016-8.221,1.016-1.144-1.59-4.7-8.451-4.7-8.451s-1.463,5.082-4.194,4.64-4.893-3.43-8.511-13.086a42.607,42.607,0,0,1-2.357-8.5,4.172,4.172,0,0,0,3.629-.3c2.209-1.169,2.947-3.705,3.191-5.021a15.06,15.06,0,0,1,1,1.632,51.324,51.324,0,0,1,2.606,6.291c-.017-.157-.033-.325-.041-.493a.174.174,0,0,1,0-.046,29.914,29.914,0,0,1,1.549-10.494h0a5.709,5.709,0,0,0,.39.991,10.491,10.491,0,0,1,1.405,4.005,6.692,6.692,0,0,0,3.932,6.1c3.688,1.525,4.914,2.287,9.161.7a9.183,9.183,0,0,0,5.831-5.59,5.969,5.969,0,0,0,5.656-1.4c2.668-2.409,2.606-4.508,3.621-6.474a5.1,5.1,0,0,1,3.875-2.735,8.193,8.193,0,0,0,1.172-.071c3.361,3.431,6.162,20.074,6.957,25.354a30.537,30.537,0,0,1,.257,4.69Z" fill="#fdc954"/>
    <path id="Trazado_6266" data-name="Trazado 6266" d="M1095.293,720.1s-1.463,5.082-4.194,4.64a4.229,4.229,0,0,1-1.968-.874c-1.935-1.479-3.829-4.97-6.543-12.212a42.607,42.607,0,0,1-2.357-8.5,4.172,4.172,0,0,0,3.629-.3c2.209-1.169,2.947-3.705,3.191-5.021a15.06,15.06,0,0,1,1,1.632,51.324,51.324,0,0,1,2.606,6.291c-.017-.157-.033-.325-.041-.493a40.805,40.805,0,0,0,2.047,7.582c.642,1.622,1.23,3.232,1.686,4.523.576,1.621.941,2.739.941,2.739Z" fill="#fef6b8"/>
    <path id="Trazado_6267" data-name="Trazado 6267" d="M1100.887,667.4a10.146,10.146,0,0,1,.92-3.62,8.259,8.259,0,0,0-.92,3.62Z" fill="#f8be90"/>
    <path id="Trazado_6268" data-name="Trazado 6268" d="M1098.686,658.07l-.012,0c-1.347,1.234-1.815,6.739-.12,9.323,0,0,.932,1.757,2.266,2.011,0,0-.008-.2,0-.518,0-.362.017-.885.071-1.488a8.259,8.259,0,0,1,.92-3.62.192.192,0,0,1,.02-.041v0a5.8,5.8,0,0,1,2.358-2.4c1.483-.762,3.008.339,4.575,1.228a16.634,16.634,0,0,0,7.877,1.143c1.777-.381,1.777,2.16,1.1,5.379a21.492,21.492,0,0,1-1.786,4.961h0s1.889.628,4.243-1.977,4.314-8.387,1.33-11.848l0-.007a23.171,23.171,0,0,1-6.282.864c-6.2,0-12.476-.958-16.554-3.014Z" fill="#5e1a47"/>
    <path id="Trazado_6269" data-name="Trazado 6269" d="M1133.63,645.523l-26.574,1.524c-4.267-.064-14.622,1.715-15.447,1.969a16.171,16.171,0,0,0,4.127,6.988,10.928,10.928,0,0,0,2.95,2.066c4.078,2.056,10.351,3.013,16.554,3.014a23.171,23.171,0,0,0,6.282-.864,21.309,21.309,0,0,0,9.787-5.741c2.354-2.6,2.321-8.956,2.321-8.956Z" fill="#6b63a9"/>
    <path id="Trazado_6270" data-name="Trazado 6270" d="M1117.739,669.09a21.446,21.446,0,0,1-1.786,4.959c-.1.2-.2.4-.315.6a16.063,16.063,0,0,1-2.507,3.547,8.292,8.292,0,0,1-.688.636,5.344,5.344,0,0,1-1.661.934,7.627,7.627,0,0,1-6.937-1.488,5.63,5.63,0,0,1-1.164-1.3,11.92,11.92,0,0,1-1.583-4.757c-2.669,0-3.265-2.881-2.54-4.827,0,0,.928,1.758,2.266,2.012,0,0-.012-.2-.012-.519,0,0,.058-1,.075-1.488a10.184,10.184,0,0,1,.915-3.624.106.106,0,0,0,.025-.041,5.8,5.8,0,0,1,2.358-2.4c1.483-.762,3.008.34,4.575,1.23a16.647,16.647,0,0,0,7.877,1.143c1.777-.381,1.777,2.16,1.1,5.377Z" fill="#f8be90"/>
    <path id="Trazado_6271" data-name="Trazado 6271" d="M1127.311,650.541a45.116,45.116,0,0,1-12.58,6.286,24.443,24.443,0,0,1-2.561.524c-.112.01-.2.02-.286.03a3.3,3.3,0,0,1-.456.021c-1.015.254-5.014-.509-6.1-5.016s1.848-7.816,4.574-9.788,9.021-4.055,12.638-4.38c3.469-.31,6.174,1.367,6.071,2.734a.6.6,0,0,1-.033.188s.1-.021.273-.046c.974-.142,4.194-.493,4.683,1.128.575,1.9-1.4,4.95-6.224,8.319Z" fill="#9f99cb"/>
    <path id="Trazado_6272" data-name="Trazado 6272" d="M1103.849,678.279a5.375,5.375,0,0,1-1.164-1.3h0c.074.107,1.04,3.458,1.081,3.585a4.679,4.679,0,0,0,3.009,1.017,7.046,7.046,0,0,0,3.344-.89l.671-.928a7.624,7.624,0,0,1-6.937-1.486Z" fill="#f2a96f"/>
    <path id="Trazado_6273" data-name="Trazado 6273" d="M1110.38,682.472l.157.3a6.288,6.288,0,0,1-5.759,1.356,3.138,3.138,0,0,1-2.329-1.652l-4.177,1.831s-2.026,5.211-1.583,9.133c.021.184.046.369.066.554h0v0c.017.152.034.3.054.455l.038.325.049.384c.017.119.033.237.05.356s.033.241.054.36.037.245.058.366.041.231.062.346.046.244.07.365.046.221.071.331.058.24.087.359.054.212.083.317.07.232.1.347.067.2.1.3.083.222.124.332.079.19.116.282.1.21.149.313c.046.088.087.176.137.261.054.1.116.2.174.29s.1.162.158.238c.066.092.136.178.207.265.058.071.112.144.174.211.079.084.161.16.244.237.067.061.133.124.2.181.091.074.191.139.29.206.071.049.141.1.216.148.112.064.228.118.344.173.078.037.149.078.232.111.136.054.282.1.431.139.07.022.14.05.219.069a5.578,5.578,0,0,0,.725.125c4.194.445,7.053-1.9,9.274-4.764.191-.243.377-.493.568-.745.049-.064.095-.128.145-.192q.273-.367.547-.74c.024-.032.045-.064.07-.1l.485-.669c.07-.1.141-.2.215-.3.087-.121.17-.241.257-.36.68-.949,1.326-1.864,1.906-2.637.013-.018.029-.036.042-.055.17-.224.331-.436.485-.633a10.488,10.488,0,0,1,1.06-1.2c1.206-1.08,3.178-2.477,3.178-2.477l-9.625-4.849Z" fill="#fef6b8"/>
    <path id="Trazado_6274" data-name="Trazado 6274" d="M1120.005,687.321s-1.972,1.4-3.178,2.477a10.553,10.553,0,0,0-1.06,1.2c-1.277,1.623-3.034,4.261-4.72,6.428-2.221,2.859-5.08,5.209-9.274,4.764-3.994-.424-4.587-4.424-5.018-8.2-.02-.185-.045-.37-.066-.554-.443-3.922,1.583-9.133,1.583-9.133-.5-.666-2.279-1.238-4.057-.73s-2.478,1.334-2.544,4.256a24.741,24.741,0,0,0,.493,6.885,5.657,5.657,0,0,0,.4.992,10.513,10.513,0,0,1,1.4,4,6.7,6.7,0,0,0,3.94,6.1c3.684,1.525,4.91,2.287,9.157.7a9.191,9.191,0,0,0,5.835-5.59,5.969,5.969,0,0,0,5.652-1.4c2.668-2.413,2.606-4.51,3.621-6.479a5.094,5.094,0,0,1,3.875-2.732,8.318,8.318,0,0,0,1.176-.071,1.345,1.345,0,0,0,.982-.437c.257-.444-3.745-3.239-8.192-2.477Z" fill="#9f99cb"/>
    <path id="Trazado_6275" data-name="Trazado 6275" d="M1116.384,729.691a11.154,11.154,0,0,1-1.6.925,19.839,19.839,0,0,1-5.9,1.809,21.457,21.457,0,0,1-7.558,0,31.915,31.915,0,0,0-1.334-3.878s2.4.575,8.221-1.016a40.2,40.2,0,0,0,5.055-1.718c.406-.177.767-.345,1.082-.5a10.834,10.834,0,0,0,1.773-1.021l.24,5.021.017.376Z" fill="#9f99cb"/>
    <path id="Trazado_6276" data-name="Trazado 6276" d="M1084.876,695.473c-.042.889-1.4,2.032-2.371,2.414a15.711,15.711,0,0,1-2.287.635s-.476,1.33.013,4.627a4.177,4.177,0,0,0,3.629-.307c2.209-1.166,2.947-3.7,3.191-5.018a11.3,11.3,0,0,0-2.175-2.351Z" fill="#9f99cb"/>
    <path id="Trazado_6277" data-name="Trazado 6277" d="M1130.994,743.031a11.816,11.816,0,0,1-3.745,1.9,4.577,4.577,0,0,1-2.988,0c.062,1.652,1.778,5.463,3.24,7.369s2.031,2.1,2.221,2.033a6.173,6.173,0,0,0-.443-2.795s.887.889,1.334.635,0-2.223,0-2.223.191.762.953.317a4,4,0,0,0,1.335-3.113c.062-1.334-1.907-4.128-1.907-4.128Z" fill="#f8be90"/>
    <path id="Trazado_6278" data-name="Trazado 6278" d="M1123.71,741.725h0c-.008-.059-.017-.116-.025-.176.008.058.017.119.021.176Z" fill="#fef6b8"/>
    <path id="Trazado_6279" data-name="Trazado 6279" d="M1131.409,740.535c.025-.147.054-.3.079-.457-.029.156-.054.308-.079.457Z" fill="#fef6b8"/>
    <path id="Trazado_6280" data-name="Trazado 6280" d="M1123.689,741.549c-.079-.645-.157-1.365-.215-2.167.058.8.132,1.525.215,2.167Z" fill="#9f99cb"/>
    <path id="Trazado_6281" data-name="Trazado 6281" d="M1123.474,739.382c.058.8.136,1.522.215,2.167.008.06.017.117.025.176.232,1.775.5,2.885.547,3.211a4.577,4.577,0,0,0,2.988,0,11.816,11.816,0,0,0,3.745-1.9s.166-1.054.415-2.5c.025-.149.05-.3.079-.457a9.845,9.845,0,0,1-8.014-.7Z" fill="#9f99cb"/>
    <path id="Trazado_6282" data-name="Trazado 6282" d="M1104.251,666.612c1.906-1.111,3.837-1.143,4.318-.381.278.44.021.635-.356.508a10.933,10.933,0,0,0-2.122-.19,16.674,16.674,0,0,0-1.84.063Z" fill="#5e1a47"/>
    <path id="Trazado_6283" data-name="Trazado 6283" d="M1112.621,667.819a5.682,5.682,0,0,1,3.315-.418c.829.2,1.239.673.924.99s-1.3-.127-2.067-.349a10.255,10.255,0,0,0-2.172-.223Z" fill="#5e1a47"/>
    <path id="Trazado_6284" data-name="Trazado 6284" d="M1112,675.823a.122.122,0,0,1-.083-.032l-2.072-1.842a.122.122,0,0,1-.008-.179.124.124,0,0,1,.178-.011l1.852,1.648c-.153-6.952-.02-6.992.1-7.027a.125.125,0,0,1,.157.085.121.121,0,0,1-.017.108c-.091.377-.037,4.445.025,7.12a.13.13,0,0,1-.074.118.135.135,0,0,1-.054.012Z" fill="#ce6a15"/>
    <path id="Trazado_6285" data-name="Trazado 6285" d="M1109.725,676.566a4.435,4.435,0,0,1-2.9-1.29.132.132,0,0,1,.005-.18.13.13,0,0,1,.182,0,4.033,4.033,0,0,0,3.22,1.17.128.128,0,0,1,.145.1.125.125,0,0,1-.1.146,3.224,3.224,0,0,1-.547.046Z" fill="#ea5443"/>
    <path id="Trazado_6286" data-name="Trazado 6286" d="M1108.167,668.057c-.845,0-.713,2.4,0,2.4.518,0,.609-2.4,0-2.4Z" fill="#5e1a47"/>
    <path id="Trazado_6287" data-name="Trazado 6287" d="M1114.838,669.268c-.418-.153-.986,1.8-.476,2.075s1.222-1.8.476-2.075Z" fill="#5e1a47"/>
    <path id="Trazado_6288" data-name="Trazado 6288" d="M1128.852,641.094a99.366,99.366,0,0,0-8.32,5.778c-3.017,2.444-6.995,7.262-8.362,10.479a7.093,7.093,0,0,0-.406,1.219.124.124,0,0,1-.12.1.081.081,0,0,1-.034-.005.122.122,0,0,1-.095-.148,6.828,6.828,0,0,1,.369-1.138c1.343-3.262,5.416-8.212,8.482-10.707a100.091,100.091,0,0,1,8.246-5.722.6.6,0,0,1-.033.188s.1-.021.273-.046Z" fill="#5e1a47"/>
    <path id="Trazado_6289" data-name="Trazado 6289" d="M1112.621,656.267l-.024,0a.129.129,0,0,1-.1-.149,6.106,6.106,0,0,0-4.666-7.02.126.126,0,0,1-.091-.155.128.128,0,0,1,.158-.09,6.119,6.119,0,0,1,4.657,4.263,7.207,7.207,0,0,1,.195,3.05.129.129,0,0,1-.125.1Z" fill="#5e1a47"/>
    <path id="Trazado_6290" data-name="Trazado 6290" d="M1113.612,654.623a.131.131,0,0,1-.071-.022.125.125,0,0,1-.033-.176c.332-.489,1.753-7.426-1.375-11.514a.125.125,0,0,1,.024-.178.127.127,0,0,1,.179.024c3.244,4.239,1.765,11.241,1.384,11.81a.13.13,0,0,1-.108.056Z" fill="#5e1a47"/>
    <path id="Trazado_6291" data-name="Trazado 6291" d="M1115,652.684a.154.154,0,0,1-.042-.007.131.131,0,0,1-.078-.163c.953-2.631,1.379-8.114.116-9.9a.13.13,0,0,1,.029-.178.128.128,0,0,1,.178.031c1.351,1.911.882,7.466-.083,10.136a.124.124,0,0,1-.12.084Z" fill="#5e1a47"/>
    <path id="Trazado_6292" data-name="Trazado 6292" d="M1116.968,650.3a.119.119,0,0,1-.037-.005.127.127,0,0,1-.087-.157,14.643,14.643,0,0,0-.489-9.706.126.126,0,0,1,.058-.17.129.129,0,0,1,.17.059,14.932,14.932,0,0,1,.505,9.888.126.126,0,0,1-.12.091Z" fill="#5e1a47"/>
    <path id="Trazado_6293" data-name="Trazado 6293" d="M1119.55,647.674a.123.123,0,0,1-.1-.044.127.127,0,0,1,.013-.179c.841-.725,1.62-4.623,1.492-7.448a.125.125,0,0,1,.12-.133.128.128,0,0,1,.132.121c.125,2.667-.6,6.8-1.578,7.652a.128.128,0,0,1-.083.031Z" fill="#5e1a47"/>
    <path id="Trazado_6294" data-name="Trazado 6294" d="M1122.069,645.65a.132.132,0,0,1-.062-.017.123.123,0,0,1-.046-.173c.021-.039,2.2-3.907,1.919-6.125a.128.128,0,0,1,.253-.033c.3,2.3-1.861,6.122-1.952,6.284a.131.131,0,0,1-.112.064Z" fill="#5e1a47"/>
    <path id="Trazado_6295" data-name="Trazado 6295" d="M1122.856,645.078a.121.121,0,0,1-.1-.054.128.128,0,0,1,.029-.177c.961-.678,5.349-2.072,8.424-.99a.128.128,0,1,1-.087.24c-2.942-1.036-7.285.32-8.188.958a.137.137,0,0,1-.075.023Z" fill="#5e1a47"/>
    <path id="Trazado_6296" data-name="Trazado 6296" d="M1115.907,651.537a.13.13,0,0,1-.1-.054.126.126,0,0,1,.033-.177,45.913,45.913,0,0,1,6.178-3.609,13.806,13.806,0,0,1,6.75-.924.125.125,0,0,1,.108.144.127.127,0,0,1-.141.108,13.512,13.512,0,0,0-6.609.9,45.956,45.956,0,0,0-6.141,3.586.122.122,0,0,1-.075.024Z" fill="#5e1a47"/>
    <path id="Trazado_6297" data-name="Trazado 6297" d="M1113.239,655.205a.125.125,0,0,1-.091-.038.131.131,0,0,1,0-.18c.05-.049,5.146-4.956,11.092-5.652a.127.127,0,0,1,.141.111.126.126,0,0,1-.112.141c-5.859.686-10.893,5.533-10.943,5.582a.131.131,0,0,1-.091.036Z" fill="#5e1a47"/>
    <path id="Trazado_6298" data-name="Trazado 6298" d="M1112.232,657.028a.123.123,0,0,1-.1-.05.126.126,0,0,1,.024-.178,42.437,42.437,0,0,1,8.893-5.022.127.127,0,0,1,.095.236,42.238,42.238,0,0,0-8.834,4.988.136.136,0,0,1-.079.026Z" fill="#5e1a47"/>
    <path id="Trazado_6299" data-name="Trazado 6299" d="M1110.537,682.77a5.351,5.351,0,0,1-1.645,1.072c-.087.036-.178.071-.265.1a5.914,5.914,0,0,1-1.131.279,2.11,2.11,0,0,1-.261.031,7.091,7.091,0,0,1-1.276.03c-.083-.005-.166-.015-.253-.02a8.77,8.77,0,0,1-.924-.142c-.017-.006-.038-.006-.05-.01-.087-.021-.17-.041-.245-.066a3.045,3.045,0,0,1-2.038-1.576,11.046,11.046,0,0,0,1.317-.422c.336-.167,0-1.483,0-1.483a1.985,1.985,0,0,0,.734.487c.087.041.186.087.286.123a5.779,5.779,0,0,0,1.5.375c.083.011.17.016.253.021s.149.01.224.01a5.116,5.116,0,0,0,.845-.051c.091-.01.182-.025.273-.041a7.155,7.155,0,0,0,.945-.238c.091-.031.182-.062.265-.092a6.623,6.623,0,0,0,1.024-.467l-.216.894.477.884.157.3Z" fill="#fdc954"/>
    <path id="Trazado_6300" data-name="Trazado 6300" d="M1104.732,684.112c-.087-.021-.17-.041-.245-.066a8.613,8.613,0,0,0,.013-2.994c.087.041.186.087.286.123a9.345,9.345,0,0,1-.054,2.937Z" fill="#5e1a47"/>
    <path id="Trazado_6301" data-name="Trazado 6301" d="M1106.543,681.571a26.957,26.957,0,0,1-.584,2.713c-.083-.005-.166-.015-.253-.02.174-.676.447-1.8.584-2.714.083.011.17.016.253.021Z" fill="#5e1a47"/>
    <path id="Trazado_6302" data-name="Trazado 6302" d="M1107.885,681.489a18.649,18.649,0,0,0-.389,2.734,2.11,2.11,0,0,1-.261.031,21.094,21.094,0,0,1,.377-2.724c.091-.01.182-.025.273-.041Z" fill="#5e1a47"/>
    <path id="Trazado_6303" data-name="Trazado 6303" d="M1109.095,681.159c-.049.615-.128,1.631-.2,2.683-.087.036-.178.071-.265.1.079-1.032.153-2.048.2-2.693.091-.031.182-.062.265-.092Z" fill="#5e1a47"/>
    <path id="Trazado_6304" data-name="Trazado 6304" d="M1111.146,714.259a6.165,6.165,0,0,1-.915-.069.127.127,0,0,1-.1-.145.123.123,0,0,1,.141-.107,5.946,5.946,0,0,0,4.7-1.338,7.17,7.17,0,0,0,2.557-5.221.126.126,0,1,1,.252.012,7.427,7.427,0,0,1-2.647,5.405,6.262,6.262,0,0,1-3.987,1.463Z" fill="#5e1a47"/>
    <path id="Trazado_6305" data-name="Trazado 6305" d="M1103.3,729.242a.129.129,0,0,1-.112-.065c-.033-.059-3.319-5.934-4.45-8.26a.13.13,0,0,1,.058-.17.127.127,0,0,1,.17.058c1.131,2.321,4.413,8.189,4.446,8.248a.128.128,0,0,1-.112.189Z" fill="#5e1a47"/>
    <path id="Trazado_6306" data-name="Trazado 6306" d="M1106.733,728.928a.128.128,0,0,1-.124-.1c-.012-.062-1.222-6.257-1.976-9.268a.127.127,0,0,1,.091-.154.131.131,0,0,1,.157.092c.754,3.018,1.964,9.219,1.977,9.281a.127.127,0,0,1-.1.149l-.025,0Z" fill="#5e1a47"/>
    <path id="Trazado_6307" data-name="Trazado 6307" d="M1110.964,727.721a.109.109,0,0,1-.029,0,.128.128,0,0,1-.1-.152c.008-.026.6-2.576,1.036-6.022a.125.125,0,0,1,.14-.111.123.123,0,0,1,.108.143c-.439,3.46-1.027,6.022-1.036,6.047a.125.125,0,0,1-.124.1Z" fill="#5e1a47"/>
    <path id="Trazado_6308" data-name="Trazado 6308" d="M1118,718.885a.12.12,0,0,1-.041-.007.125.125,0,0,1-.079-.162l2.813-8.2c-2.279-4.472-1.79-10.449-1.67-11.605a.129.129,0,0,1,.141-.113.127.127,0,0,1,.112.139c-.12,1.148-.6,7.1,1.666,11.511a.115.115,0,0,1,.008.1l-2.83,8.251a.132.132,0,0,1-.12.086Z" fill="#5e1a47"/>
    <path id="Trazado_6309" data-name="Trazado 6309" d="M1097.452,724.291a.13.13,0,0,1-.112-.067l-2.159-4.068c-.042-.115-3.506-9.82-3.937-11.382-.078-.271-.17-.553-.265-.848a9.845,9.845,0,0,1-.456-5.715.13.13,0,0,1,.154-.095.124.124,0,0,1,.095.152,9.579,9.579,0,0,0,.452,5.58c.095.3.186.584.265.858.427,1.553,3.891,11.25,3.924,11.348l2.15,4.05a.125.125,0,0,1-.049.172.132.132,0,0,1-.062.015Z" fill="#5e1a47"/>
    <path id="Trazado_6310" data-name="Trazado 6310" d="M1118.352,733.629a.126.126,0,0,1-.112-.068,14.393,14.393,0,0,0-2.772-3.257.127.127,0,0,1,0-.18.125.125,0,0,1,.178-.006,14.287,14.287,0,0,1,2.822,3.325.128.128,0,0,1-.054.172.121.121,0,0,1-.058.014Z" fill="#5e1a47"/>
    <path id="Trazado_6311" data-name="Trazado 6311" d="M1115.24,736.043a.133.133,0,0,1-.12-.079c-.008-.028-1.156-2.821-2.407-5.392a.125.125,0,0,1,.058-.17.128.128,0,0,1,.17.059c1.255,2.578,2.4,5.379,2.415,5.407a.125.125,0,0,1-.07.166.112.112,0,0,1-.046.009Z" fill="#5e1a47"/>
    <path id="Trazado_6312" data-name="Trazado 6312" d="M1105.743,738.2a.114.114,0,0,1-.029,0,.125.125,0,0,1-.091-.152c0-.029.671-2.9,1.3-6.214a.129.129,0,0,1,.149-.1.123.123,0,0,1,.1.149c-.625,3.325-1.292,6.2-1.3,6.225a.126.126,0,0,1-.124.1Z" fill="#5e1a47"/>
    <path id="Trazado_6313" data-name="Trazado 6313" d="M1100.568,728.928a.127.127,0,0,1-.005-.254,33.681,33.681,0,0,0,8.777-1.6.127.127,0,1,1,.087.239,33.983,33.983,0,0,1-8.855,1.612Z" fill="#5e1a47"/>
    <path id="Trazado_6314" data-name="Trazado 6314" d="M1183.337,841.174a.118.118,0,0,1-.079-.028c-.024-.019-2.407-1.913-3.269-2.637-.928-.778-4.14-3.627-5.383-4.868l-.431-.433c-1.6-1.587-5.324-5.3-7.516-7.9-.854-1.012-2.155-2.426-3.535-3.923-2.61-2.835-5.565-6.047-7.334-8.471a.127.127,0,0,1,.207-.149c1.757,2.411,4.712,5.619,7.314,8.448,1.38,1.5,2.685,2.915,3.543,3.932,2.183,2.585,5.909,6.3,7.5,7.88l.435.433c1.234,1.237,4.438,4.078,5.362,4.853.862.723,3.24,2.614,3.265,2.633a.13.13,0,0,1,.021.178.128.128,0,0,1-.1.049Z" fill="#5e1a47"/>
    <path id="Trazado_6315" data-name="Trazado 6315" d="M1095.293,720.1s-1.463,5.082-4.194,4.64a4.229,4.229,0,0,1-1.968-.874c2.474-1.565,5.209-6.459,5.209-6.459l.012-.046c.576,1.621.941,2.739.941,2.739Z" fill="#5e1a47"/>
    <path id="Trazado_6316" data-name="Trazado 6316" d="M1124.236,718.052a.872.872,0,0,1,.025-.11.833.833,0,0,0-.025.11Z" fill="#fef6b8"/>
    <path id="Trazado_6317" data-name="Trazado 6317" d="M1124.232,718.1c0-.017,0-.037,0-.052,0,.016,0,.033,0,.052Z" fill="#5e1a47"/>
    <path id="Trazado_6318" data-name="Trazado 6318" d="M1122.8,712.6a24.635,24.635,0,0,0-2.838-4.238c-.692,1.5-3.4,13.33-4.02,16.059.129-.087.187-.132.187-.132l4.26-12.614.443-1.173a73.7,73.7,0,0,1,3.327,6.9,11.783,11.783,0,0,0,2.221,1.467c-1.019-1.707-2.826-4.76-3.58-6.265Z" fill="#5e1a47"/>
    <path id="Trazado_6319" data-name="Trazado 6319" d="M1131.036,720.376a13.093,13.093,0,0,1-4.658-1.506,11.783,11.783,0,0,1-2.221-1.467,1.216,1.216,0,0,1,.1.539.872.872,0,0,0-.025.11c0,.015,0,.035,0,.052-.211,1.447-.684,10.6-.862,16.353a46.946,46.946,0,0,0,.1,4.925,9.845,9.845,0,0,0,8.014.7c.4-2.312.969-5.367,1.413-6.769a61.513,61.513,0,0,0,1.524-13.03,14.27,14.27,0,0,1-3.389.1Z" fill="#fef6b8"/>
    <path id="Trazado_6320" data-name="Trazado 6320" d="M1116.384,729.691a11.154,11.154,0,0,1-1.6.925c-.489-1.388-1.1-3.238-1.517-4.8.406-.177.767-.345,1.082-.5a10.834,10.834,0,0,0,1.773-1.021l.24,5.021.017.376Z" fill="#5e1a47"/>
    <path id="Trazado_6321" data-name="Trazado 6321" d="M1111.4,657.636a5.427,5.427,0,0,1-2.863-.762c-.137-.071-.261-.138-.381-.193a.128.128,0,0,1,.108-.231c.124.058.252.127.393.2,1.326.712,3.547,1.9,11.607-2.132,8.925-4.468,11.042-7.049,12.443-9.309a.127.127,0,0,1,.174-.041.124.124,0,0,1,.041.175c-1.421,2.291-3.559,4.9-12.547,9.4-4.491,2.249-7.21,2.891-8.975,2.891Z" fill="#5e1a47"/>
    <path id="Trazado_6322" data-name="Trazado 6322" d="M1145.858,665.977a.123.123,0,0,1-.1-.044.127.127,0,0,1,.013-.179c.638-.558,11.354-4.321,19.74-3.863a.127.127,0,0,1,.121.134.131.131,0,0,1-.129.12h0c-8.623-.468-19.119,3.415-19.562,3.8a.129.129,0,0,1-.083.032Z" fill="#5e1a47"/>
    <path id="Trazado_6323" data-name="Trazado 6323" d="M1132.47,720.64a14.428,14.428,0,0,1-6.365-1.773.127.127,0,1,1,.128-.219c.042.025,4.318,2.488,8.159,1.508a.127.127,0,1,1,.062.246,7.98,7.98,0,0,1-1.984.238Z" fill="#5e1a47"/>
    <path id="Trazado_6324" data-name="Trazado 6324" d="M1128.284,740.958a8.455,8.455,0,0,1-4.093-1.088.128.128,0,0,1-.038-.175.125.125,0,0,1,.174-.039,7.758,7.758,0,0,0,7.044.337c.125-.624,1.024-5.259,1.065-5.446l.029-.107a49.179,49.179,0,0,0,1.285-6.541,100.13,100.13,0,0,0,.481-10.494.126.126,0,0,1,.124-.129h0a.126.126,0,0,1,.128.124,97.462,97.462,0,0,1-.484,10.525,48.7,48.7,0,0,1-1.289,6.578l-.025.1c-.037.152-.717,3.661-1.073,5.5a.127.127,0,0,1-.071.089,7.228,7.228,0,0,1-3.257.766Z" fill="#5e1a47"/>
    <path id="Trazado_6325" data-name="Trazado 6325" d="M1111.615,696.8a.125.125,0,0,1-.067-.021.121.121,0,0,1-.037-.175,69.607,69.607,0,0,1,5.225-6.9,37.57,37.57,0,0,1,3.025-2.369l-8.2-4.129a.127.127,0,0,1,.116-.227l8.378,4.222a.125.125,0,0,1,.071.1.131.131,0,0,1-.05.113c-.029.019-2.606,1.881-3.162,2.462a69.841,69.841,0,0,0-5.2,6.859.131.131,0,0,1-.107.058Z" fill="#5e1a47"/>
    <path id="Trazado_6326" data-name="Trazado 6326" d="M1125.488,688.081a.143.143,0,0,1-.046-.009,9.464,9.464,0,0,0-5.407-.628.127.127,0,0,1-.154-.092.129.129,0,0,1,.091-.154,9.542,9.542,0,0,1,5.565.639.128.128,0,0,1,.071.165.131.131,0,0,1-.12.079Z" fill="#5e1a47"/>
    <path id="Trazado_6327" data-name="Trazado 6327" d="M1098.272,684.43a.133.133,0,0,1-.095-.041,3.834,3.834,0,0,0-3.58-.779.127.127,0,1,1-.05-.249,4.122,4.122,0,0,1,3.754.791l4.1-1.8a.128.128,0,0,1,.1.233l-4.181,1.831a.113.113,0,0,1-.05.011Z" fill="#5e1a47"/>
    <path id="Trazado_6328" data-name="Trazado 6328" d="M1096.979,689.036a.122.122,0,0,1-.054-.013c-.012-.006-1.226-.6-2.225-.949a.131.131,0,0,1-.079-.162.128.128,0,0,1,.162-.077c1.015.356,2.242.954,2.254.96a.129.129,0,0,1,.058.17.134.134,0,0,1-.116.071Z" fill="#5e1a47"/>
    <path id="Trazado_6329" data-name="Trazado 6329" d="M1103,702.4a9.364,9.364,0,0,1-1.985-.216c-3.389-.654-3.94-4.767-4.21-6.743-.025-.178-.045-.338-.066-.475a.125.125,0,0,1,.108-.145.129.129,0,0,1,.145.106c.02.139.041.3.066.48.257,1.918.8,5.908,4.007,6.529a7.829,7.829,0,0,0,3.92-.114.125.125,0,0,1,.162.072.123.123,0,0,1-.071.164,5.762,5.762,0,0,1-2.076.342Z" fill="#5e1a47"/>
    <path id="Trazado_6330" data-name="Trazado 6330" d="M1100.953,703.555h0a.127.127,0,0,1-.125-.129,3.585,3.585,0,0,1,.278-1.4.128.128,0,0,1,.178-.037.124.124,0,0,1,.033.176,3.328,3.328,0,0,0-.236,1.268.125.125,0,0,1-.124.124Z" fill="#5e1a47"/>
    <path id="Trazado_6331" data-name="Trazado 6331" d="M1115.58,695.6a.13.13,0,0,1-.054-.011c-.526-.229-2.022-.765-2.614-.495a.126.126,0,0,1-.166-.063.128.128,0,0,1,.062-.168c.812-.372,2.739.458,2.822.493a.133.133,0,0,1,.066.168.129.129,0,0,1-.116.076Z" fill="#5e1a47"/>
    <path id="Trazado_6332" data-name="Trazado 6332" d="M1125.815,749.623a.13.13,0,0,1-.116-.069c-2.623-5.069-2.5-11.889-2.432-15.553l.012-.628a.127.127,0,0,1,.128-.125h0a.125.125,0,0,1,.125.13l-.009.627c-.066,3.642-.19,10.421,2.4,15.433a.127.127,0,0,1-.054.171.139.139,0,0,1-.058.014Z" fill="#5e1a47"/>
    <path id="Trazado_6333" data-name="Trazado 6333" d="M1103.257,674.595c1.4,1.044,3.472-1.881,2.283-3.227s-4.616,1.491-2.283,3.227Z" fill="#f49f7f"/>
    <path id="Trazado_6334" data-name="Trazado 6334" d="M1115.638,674.649a16.063,16.063,0,0,1-2.507,3.547c-.932-1.164-.108-2.871.584-3.6a1.516,1.516,0,0,1,1.923.055Z" fill="#f49f7f"/>
    <path id="Trazado_6335" data-name="Trazado 6335" d="M1232.966,769.142v.006s-.17,1.016-.456,2.69c-1.1,6.462-3.887,22.7-5.022,27.87-1.289,5.879-6.211,32.7-7.152,37.835-.1.551-.158.856-.158.856a10.105,10.105,0,0,1-7.524.476c-.112-.032-.228-.075-.344-.118,0,0-1.579-28.26-2.205-34.861s-.36-17.358,3.386-24.772l.356-.893-2.565-34.444c.137-.883.257-1.712.361-2.461.281-2.043.567-4.745.853-7.793.394-4.264.783-9.207,1.127-13.978a14.45,14.45,0,0,0,6.174,1.118,21.9,21.9,0,0,0,4.761-.589,17.858,17.858,0,0,0,2.138-.652c-.1,1.615-.252,3.354-.48,5.322-.7,6.034-3.821,43.072-4.061,45.955l-.017.177a53.857,53.857,0,0,0,8.764-1.2c.721-.161,1.405-.348,2.064-.546Z" fill="#9f99cb"/>
    <path id="Trazado_6336" data-name="Trazado 6336" d="M1212.654,838.875c-.112-.032-.228-.075-.344-.118,0,0-1.579-28.26-2.205-34.861s-.36-17.358,3.386-24.772l.356-.893-2.565-34.444c.137-.883.257-1.712.361-2.461.281-2.043.567-4.745.853-7.793l4.293,44.7s-3.609,10.645-4.413,20.14c-.634,7.542-.008,31.132.278,40.5Z" fill="#5e1a47"/>
    <path id="Trazado_6337" data-name="Trazado 6337" d="M1224.546,652.336a3.619,3.619,0,0,1-2.942,1.54,15.786,15.786,0,0,1-1.347,2.21,17.907,17.907,0,0,1-1.86,2.2,9.858,9.858,0,0,1-6.564,2.359,7.658,7.658,0,0,1-2.262-.284c-2-.615-3.585-3.247-4.409-5.847a14.9,14.9,0,0,1-.406-1.578,27.6,27.6,0,0,1-.493-4.365,21.857,21.857,0,0,1,1.541-9.591,32.26,32.26,0,0,0,7.334.075c.717-.107,1.426-.219,2.1-.342h.013c.687-.124,1.33-.247,1.893-.359l.087-.016c.083-.021.17-.037.249-.053.592-.124,1.073-.225,1.388-.295a20.13,20.13,0,0,1,2.9,6.88c.1.861.174,1.69.219,2.348.05.69.075,1.193.079,1.332a.1.1,0,0,0,.008.043s.025-.033.071-.086c.344-.4,1.868-2.129,2.4-2.188.087-.011.174.086.248.241.46.931.667,4.4-.248,5.777Z" fill="#f8be90"/>
    <path id="Trazado_6338" data-name="Trazado 6338" d="M1225.615,633.838a27.426,27.426,0,0,0,.091,3.29c.033.359.075.663.112.909.017.113.041.22.054.311.025.107.037.2.062.273a16.232,16.232,0,0,0-4.3-.7l-.34-.294-2.5.267a.075.075,0,0,1,.017.021c-.211.011-.5.022-.837.033l-.58.016c-.17.005-.348.005-.535.01-.153.006-.31.006-.472.006a32.189,32.189,0,0,1-7.488-.578,14.547,14.547,0,0,1-3-1.246s.183-.45.423-1.188a20.562,20.562,0,0,0,1.069-6.393,68.551,68.551,0,0,0-.746-7.8,73.538,73.538,0,0,1,10.91,0c6.1.443,10.616,2.765,10.765,3.209s-.468,1.3-1.363,2.632-1.247,3.52-1.338,7.221Z" fill="#fdc954"/>
    <path id="Trazado_6339" data-name="Trazado 6339" d="M1199.874,692.448a27.733,27.733,0,0,1,.867,7.827,43.613,43.613,0,0,1-1.2,7.827,15.888,15.888,0,0,1-1.84-2.274c-1.3-1.8-2.3-3.075-2.171-3.878s4.21-9.361,4.346-9.5Zm14.847-5.615a1.064,1.064,0,0,1,0-.111c-.128-5.252-.34-9.984-.534-11.585-.4-3.276-1.244-10.052-1.244-10.052l-.642-2.463a100.63,100.63,0,0,1-10.442,3.952c-3.787,1.275-5.457,2.479-6.46,3.481s-6.352,12.973-9.563,22.735-2.942,12.838.468,18.187a83.049,83.049,0,0,0,6.418,8.826L1180.283,762.6a23.071,23.071,0,0,0,10.16,6.62,57.385,57.385,0,0,0,11.6,1.97c2.461.2,4.181.237,4.181.237s3.5-17.581,5.055-27.636c.137-.884.257-1.71.361-2.461.671-4.9,1.4-13.6,1.98-21.77.017-.225.033-.448.046-.672.505-7.069.9-13.658,1.048-16.935.17-3.634.133-9.648,0-15.117Z" fill="#6b63a9"/>
    <path id="Trazado_6340" data-name="Trazado 6340" d="M1225.934,638.621a16.232,16.232,0,0,0-4.3-.7s-3.323.016-3.659.027l-.58.016c-.17.005-.348.005-.535.01-.153.006-.31.006-.472.006a32.189,32.189,0,0,1-7.488-.578,14.547,14.547,0,0,1-3-1.246s.183-.45.423-1.188a31.535,31.535,0,0,1,9.36-.374,54.38,54.38,0,0,1,10.028,2.535c.033.359.075.663.112.909.017.113.041.22.054.311.025.107.037.2.062.273Z" fill="#dddbef"/>
    <path id="Trazado_6341" data-name="Trazado 6341" d="M1220.257,656.086l-.5,1.8-.626,2.274a4.791,4.791,0,0,0-3.435,3.311,1.157,1.157,0,0,0-.783-1.327c-1.293-.353-2.876-.647-2.876-.647l-.066-.273-.141-.577a9.858,9.858,0,0,0,6.564-2.359,17.907,17.907,0,0,0,1.86-2.2Z" fill="#f8be90"/>
    <path id="Trazado_6342" data-name="Trazado 6342" d="M1215.7,663.466a5.229,5.229,0,0,0-.178.906,3.549,3.549,0,0,0,.178-.906Z" fill="#9f99cb"/>
    <path id="Trazado_6343" data-name="Trazado 6343" d="M1215.7,663.466c-.025.482-.079.281,0,0a1.15,1.15,0,0,0-.783-1.323c-1.289-.357-2.872-.646-2.872-.646l.647,2.875a6.722,6.722,0,0,0,6.1,0l.336-4.213a4.779,4.779,0,0,0-3.431,3.307Z" fill="#fefefe"/>
    <path id="Trazado_6344" data-name="Trazado 6344" d="M1212.691,664.372l.576,1.649a8.013,8.013,0,0,0,5.171.179l.356-1.828a6.722,6.722,0,0,1-6.1,0Z" fill="#9f99cb"/>
    <path id="Trazado_6345" data-name="Trazado 6345" d="M1218.438,666.2a7.868,7.868,0,0,1-5.055-.136c.6,1.328,1.752,3.837,2.962,6.455.614-1.738,1.94-5.519,2.093-6.319Z" fill="#fefefe"/>
    <path id="Trazado_6346" data-name="Trazado 6346" d="M1225.337,692.122c0,.038.013.075.017.113-.008-.046-.013-.085-.017-.112Z" fill="#9f99cb"/>
    <path id="Trazado_6347" data-name="Trazado 6347" d="M1225.428,692.771l.005.007c-.029-.181-.054-.362-.079-.543.016.127.045.318.074.536Z" fill="#9f99cb"/>
    <path id="Trazado_6348" data-name="Trazado 6348" d="M1225.333,692.1a1.985,1.985,0,0,0-.095-.267c-.021-.054-.05-.112-.075-.177a.039.039,0,0,1-.012-.026.5.5,0,0,0-.025-.075c-.046-.107-.091-.225-.145-.353,0-.006-.008-.006-.008-.006-.029-.085-.075-.176-.112-.273-1.032-2.434-3.522-7.981-5.192-11.372-.866-1.755-2.126-4.445-3.324-7.034a.106.106,0,0,0-.016-.032l.054-.2,2.486-8.837-.008.112.153.5c.431,1.423,1.7,5.751,3.062,11.372.008.048.021.1.033.15s.025.1.038.15c.489,2.027.986,4.215,1.462,6.489.609,2.894,1.136,5.9,1.575,8.853.045.3.091.6.133.909,0,.038.012.075.016.112Z" fill="#eb5b52"/>
    <path id="Trazado_6349" data-name="Trazado 6349" d="M1225.673,694.547l-.042-.284c.013.095.025.188.038.282l0,0Z" fill="#9f99cb"/>
    <path id="Trazado_6350" data-name="Trazado 6350" d="M1225.586,693.909l0,0c.02.137.037.255.049.356-.016-.118-.029-.235-.045-.354Z" fill="#9f99cb"/>
    <path id="Trazado_6351" data-name="Trazado 6351" d="M1225.669,694.547a.813.813,0,0,0-.058-.075c-.058-.064-.154-.177-.282-.315-.046-.049-.087-.1-.141-.156-.344-.374-.854-.909-1.471-1.471,0-.005,0-.01-.008-.01-.216-.193-.439-.391-.676-.589-.12-.1-.236-.192-.36-.289-.191-.149-.39-.3-.589-.444-.128-.091-.256-.176-.389-.262a.072.072,0,0,0-.033-.021c-.149-.1-.3-.193-.452-.278s-.311-.177-.472-.257c-.589-.294-1.239-.653-1.906-1.033,0-.005-.009-.005-.013-.01a.318.318,0,0,1-.054-.032c-.377-.214-.75-.434-1.114-.653-.17-.1-.336-.2-.5-.3-.07-.037-.132-.08-.2-.123s-.141-.08-.211-.123c-.854-.529-1.587-.995-2.014-1.267v-.075c-.128-5.264-.344-10.015-.543-11.624-.393-3.274-1.239-10.052-1.239-10.052s.058.134.17.375c.071.155.166.363.274.6.6,1.322,1.74,3.819,2.946,6.425a.106.106,0,0,1,.016.032c1.2,2.589,2.458,5.279,3.324,7.034,2.138,4.343,5.614,12.212,5.668,12.571.017.1.05.347.091.647.029.209.058.444.092.674,0-.005,0,0,0,0,.016.155.037.31.062.449v.011c.016.139.029.257.045.358s.029.188.038.284Z" fill="#ef7d80"/>
    <path id="Trazado_6352" data-name="Trazado 6352" d="M1213.669,718.885h0c-.013.224-.029.447-.046.672.017-.225.033-.448.046-.672Z" fill="#9f99cb"/>
    <path id="Trazado_6353" data-name="Trazado 6353" d="M1226.721,719.057h0c-.008.126-.012.247-.021.375.009-.128.013-.249.021-.375Z" fill="#9f99cb"/>
    <path id="Trazado_6354" data-name="Trazado 6354" d="M1226.717,719.057c0,.123-.008.246-.021.375a18.85,18.85,0,0,1-2.83.808c-.091.015-.186.037-.282.053a22.356,22.356,0,0,1-3.787.38,14.45,14.45,0,0,1-6.174-1.118c.017-.225.033-.445.05-.669.5-7.072.891-13.657,1.04-16.936.174-3.584.137-9.489.012-14.9,0-.075,0-.145,0-.219.427.272,1.16.738,2.014,1.267.07.043.141.08.211.123s.133.086.2.123c.166.1.332.2.5.3.364.219.737.439,1.114.653a.318.318,0,0,0,.054.032c0,.005.009.005.013.01.667.38,1.317.739,1.906,1.033.161.08.315.166.472.257s.3.181.452.278a.072.072,0,0,1,.033.021c.133.086.261.171.389.262.2.145.4.295.589.444.124.1.24.193.36.289.237.2.46.4.676.589,0,0,0,.005.008.01.617.562,1.127,1.1,1.471,1.471.054.059.095.107.141.156.128.138.224.251.282.315a.813.813,0,0,1,.058.075,128.249,128.249,0,0,1,1.222,14.758c0,3.456.025,6.361-.174,9.752Z" fill="#eb5b52"/>
    <path id="Trazado_6355" data-name="Trazado 6355" d="M1250.1,750.613a4.357,4.357,0,0,0-.34-.586s.137.244.34.586Z" fill="#f8be90"/>
    <path id="Trazado_6356" data-name="Trazado 6356" d="M1251.625,741.535a11.211,11.211,0,0,0-4.281,0,7.5,7.5,0,0,0-3.165,1.669,7.767,7.767,0,0,0-.7.668c-2.316-2.1-4.881-6.526-6.423-9.441l-.368-.712c-.444-.855-.763-1.513-.925-1.845,0-.005,0-.005,0-.011-.049-.1-.082-.171-.1-.2.157.9,5.664,32.427,4.612,33.61a17.728,17.728,0,0,1-7.3,3.872c-.659.2-1.343.385-2.064.546a53.857,53.857,0,0,1-8.764,1.2s3.344-39.852,4.078-46.132c.228-1.968.385-3.707.48-5.322.013-.129.017-.252.021-.375.2-3.391.174-6.3.174-9.752a132.4,132.4,0,0,0-1.3-15.4c-.05-.374-.1-.754-.158-1.134-.02-.176-.045-.358-.074-.54a.528.528,0,0,0-.017-.112c-.468-3.274-1.048-6.66-1.728-9.9-2.138-10.233-4.748-18.664-4.748-18.664l.008-.112.22-2.8a25.054,25.054,0,0,0,1.649,1.974c.269.187,13.235,4.825,15.174,5.772s3.547,2.064,4.952,5.541,2.61,9.559,3,19.322a156.313,156.313,0,0,1-.3,18.792c-.016.107-.029.2-.041.278a1.8,1.8,0,0,1-.05.251c-.2.407,0,2.547,1.533,7.628s6.613,21.312,6.618,21.328Z" fill="#6b63a9"/>
    <path id="Trazado_6357" data-name="Trazado 6357" d="M1182.645,838.133s.021-.055.062-.158c-.025.051-.049.107-.078.16l.016,0Z" fill="#9f99cb"/>
    <path id="Trazado_6358" data-name="Trazado 6358" d="M1183.225,836.69h0c-.253.627-.431,1.067-.518,1.285a10.533,10.533,0,0,0,.518-1.285Z" fill="#9f99cb"/>
    <path id="Trazado_6359" data-name="Trazado 6359" d="M1177.238,836.35s.012-.312.037-.884l-.037-.007c-2.706,1.337-8.967,8.495-9.046,9.851s4.529.58,9.046-1.56a11.89,11.89,0,0,0,5.391-5.615c-.145.019-4.658.583-5.391-1.785Z" fill="#5e1a47"/>
    <path id="Trazado_6360" data-name="Trazado 6360" d="M1202.041,771.186c-.02.187-.057.465-.1.823h-.008c-.514,4.136-2.495,18.878-5.379,28.678-2.913,9.874-11.08,30.394-13.33,36-.253.632-.431,1.07-.514,1.289-.029.049-.053.108-.082.161-.145.016-4.658.583-5.391-1.787,0,0,.012-.31.037-.882.22-5.291,1.438-33.08,3.008-47.459a85.125,85.125,0,0,1,3.866-18.268c.394-1.16.771-2.145,1.1-2.942a22.244,22.244,0,0,0,5.192,2.418,57.3,57.3,0,0,0,11.6,1.969Z" fill="#9f99cb"/>
    <path id="Trazado_6361" data-name="Trazado 6361" d="M1215.239,638.712h.008c.692-.122,1.33-.246,1.9-.359-.568.113-1.214.237-1.906.359Z" fill="#9f99cb"/>
    <path id="Trazado_6362" data-name="Trazado 6362" d="M1217.232,638.335l.249-.051-.249.051Z" fill="#9f99cb"/>
    <path id="Trazado_6363" data-name="Trazado 6363" d="M1222.735,638.886l-1.106-.967,1.106.967Z" fill="#9f99cb"/>
    <path id="Trazado_6364" data-name="Trazado 6364" d="M1217.145,638.353l.087-.018-.087.018Z" fill="#f8be90"/>
    <path id="Trazado_6365" data-name="Trazado 6365" d="M1218.873,637.987c-.315.07-.8.176-1.392.3.6-.121,1.077-.226,1.392-.3Z" fill="#f8be90"/>
    <path id="Trazado_6366" data-name="Trazado 6366" d="M1222.735,638.886l-1.106-.967s-2.777.046-2.76.069a20.191,20.191,0,0,1,2.9,6.883h0a21.543,21.543,0,0,1,.219,2.347c.05.689.075,1.192.083,1.332.021-.014.05-.029.075-.044.344-.4,1.868-2.13,2.4-2.189.087-.009.17.083.248.24a2.49,2.49,0,0,0,.39-.507,15.451,15.451,0,0,0,.994-3.729,32.283,32.283,0,0,1-3.443-3.436Z" fill="#5e1a47"/>
    <path id="Trazado_6367" data-name="Trazado 6367" d="M1228.316,639.9a7.006,7.006,0,0,0-2.386-1.276,15.961,15.961,0,0,0-4.3-.7l1.106.967a32.283,32.283,0,0,0,3.443,3.436c1,.678,1.853,1.056,2.47.831.982-.357,1.023-2.1-.332-3.254Z" fill="#fdc954"/>
    <path id="Trazado_6368" data-name="Trazado 6368" d="M1220.091,637.928c-.886-.009-3.207.059-4.674.054a28.708,28.708,0,0,1-6.518-.579,14.705,14.705,0,0,1-3-1.249c-1.4-.735-2.511-1.4-4.04-1.292-2.271.165-2.006,1.827-.219,3.031a11.054,11.054,0,0,0,4.164,1.085,32.2,32.2,0,0,0,7.334.074c.721-.1,1.434-.22,2.1-.339,1.608-.284,3.042-.49,3.7-.636-.029-.033,1.165-.134,1.152-.149Z" fill="#fdc954"/>
    <path id="Trazado_6369" data-name="Trazado 6369" d="M1218.177,643.51a6.915,6.915,0,0,0-4.765-.435c-.97.3-.8,1.271.4.9a15.06,15.06,0,0,1,2.842-.53,3.22,3.22,0,0,1,1.521.062Z" fill="#5e1a47"/>
    <path id="Trazado_6370" data-name="Trazado 6370" d="M1204.888,642.573a4,4,0,0,1,3.212.469c.7.468.7.969.331,1.237s-1.405-.8-2.138-1.2a4.773,4.773,0,0,0-1.405-.5Z" fill="#5e1a47"/>
    <path id="Trazado_6371" data-name="Trazado 6371" d="M1213.445,645.349c-.667-.034-.6,1.8,0,1.87s.671-1.837,0-1.87Z" fill="#5e1a47"/>
    <path id="Trazado_6372" data-name="Trazado 6372" d="M1205.39,644.58c.468,0,.6,1.872,0,1.972s-.469-1.972,0-1.972Z" fill="#5e1a47"/>
    <path id="Trazado_6373" data-name="Trazado 6373" d="M1209.015,654.707a3.518,3.518,0,0,1-1.761-.512.132.132,0,0,1-.037-.185.137.137,0,0,1,.187-.039,2.955,2.955,0,0,0,2.693.218.136.136,0,0,1,.182.06.134.134,0,0,1-.062.179,2.682,2.682,0,0,1-1.2.279Z" fill="#ea5443"/>
    <path id="Trazado_6374" data-name="Trazado 6374" d="M1222.18,651.2a.123.123,0,0,1-.075-.025.134.134,0,0,1-.033-.186,23.185,23.185,0,0,1,1.977-2.356.135.135,0,0,1,.194.187,22.733,22.733,0,0,0-1.951,2.324.137.137,0,0,1-.112.056Z" fill="#ce6a15"/>
    <path id="Trazado_6375" data-name="Trazado 6375" d="M1225.474,707.316c-.456,4.14-1.3,10.575-1.608,12.924-.091.015-.186.037-.282.053.3-2.274,1.161-8.815,1.621-13.009a103.623,103.623,0,0,0,.124-13.127c-.012-.268-.025-.455-.029-.546-.431-.3-.974-.669-1.583-1.081,0-.005,0-.01-.008-.01-1.392-.942-3.158-2.113-4.877-3.173,0-.005-.009-.005-.013-.01a.318.318,0,0,1-.054-.032c-.621-.38-1.239-.749-1.819-1.081-.07-.043-.141-.08-.211-.123-.729-.412-1.417-.77-2.01-1.048,0-.075,0-.145,0-.219v-.075a91.378,91.378,0,0,1,10.8,6.686c0-.005,0,0,0,0,.016.155.037.31.062.449v.011c0,.15.016.337.025.567a102.322,102.322,0,0,1-.137,12.844Z" fill="#5e1a47"/>
    <path id="Trazado_6376" data-name="Trazado 6376" d="M1220.249,717.508a.758.758,0,1,1,.758.758.758.758,0,0,1-.758-.758Z" fill="#5e1a47"/>
    <path id="Trazado_6377" data-name="Trazado 6377" d="M1220.962,710.286a.8.8,0,1,1,.8.8.8.8,0,0,1-.8-.8Z" fill="#5e1a47"/>
    <path id="Trazado_6378" data-name="Trazado 6378" d="M1221.293,702.8a.848.848,0,1,1,.845.847.846.846,0,0,1-.845-.847Z" fill="#5e1a47"/>
    <path id="Trazado_6379" data-name="Trazado 6379" d="M1222.051,696.245a.758.758,0,1,1,.759.757.758.758,0,0,1-.759-.757Z" fill="#5e1a47"/>
    <path id="Trazado_6380" data-name="Trazado 6380" d="M1235.647,731.772a.133.133,0,0,1-.133-.112c-.008-.065-1.077-6.54-1.6-10.969-.542-4.52.067-12.006.734-19.288.617-6.741,1.421-22.157.468-27.244a.133.133,0,0,1,.108-.156.135.135,0,0,1,.157.107c.966,5.175.174,20.346-.468,27.317-.667,7.268-1.272,14.738-.733,19.232.526,4.424,1.591,10.893,1.6,10.958a.133.133,0,0,1-.112.154Z" fill="#5e1a47"/>
    <path id="Trazado_6381" data-name="Trazado 6381" d="M1243.565,712.05c-.016.107-.029.2-.041.278a11.876,11.876,0,0,1-1.993.166,9.167,9.167,0,0,1-3.054-.455.134.134,0,1,1,.091-.251,10.356,10.356,0,0,0,5,.262Z" fill="#5e1a47"/>
    <path id="Trazado_6382" data-name="Trazado 6382" d="M1240.308,713.773a6.535,6.535,0,0,1-2.233-.4.131.131,0,0,1-.079-.171.133.133,0,0,1,.17-.08,5.9,5.9,0,0,0,4.177.005.133.133,0,0,1,.178.064.131.131,0,0,1-.066.178,5.463,5.463,0,0,1-2.147.4Z" fill="#5e1a47"/>
    <path id="Trazado_6383" data-name="Trazado 6383" d="M1195.528,701.95h0Zm-3.1.314a12.162,12.162,0,0,1-2.308-.183.129.129,0,0,1-.1-.157.133.133,0,0,1,.157-.105,21.7,21.7,0,0,0,5.263.007l4.044-8.915c.874-1.869,2.2-4.716,2.246-4.9a28.732,28.732,0,0,0,0-6.307c-.332-3.121-1.907-6.2-3.9-10.1l-.381-.748a.134.134,0,0,1,.058-.18.131.131,0,0,1,.178.058l.381.748c2.01,3.926,3.6,7.027,3.937,10.2a29.291,29.291,0,0,1,0,6.395c-.046.205-1.894,4.161-2.263,4.952l-4.077,8.983a.128.128,0,0,1-.1.077,29.843,29.843,0,0,1-3.116.181Z" fill="#5e1a47"/>
    <path id="Trazado_6384" data-name="Trazado 6384" d="M1191.848,704.939a.134.134,0,0,1,0-.267,3.886,3.886,0,0,0,2.511-1.12.136.136,0,0,1,.191-.005.134.134,0,0,1,0,.189,4.1,4.1,0,0,1-2.7,1.2Z" fill="#5e1a47"/>
    <path id="Trazado_6385" data-name="Trazado 6385" d="M1205.158,729.432a.129.129,0,0,1-.067-.017,98.28,98.28,0,0,1-12.472-9.521,82.826,82.826,0,0,1-5.826-7.906.134.134,0,0,1,.037-.186.136.136,0,0,1,.187.037,81.968,81.968,0,0,0,5.8,7.874,97.656,97.656,0,0,0,12.4,9.469.133.133,0,0,1-.062.25Z" fill="#5e1a47"/>
    <path id="Trazado_6386" data-name="Trazado 6386" d="M1193.862,775.4a6.722,6.722,0,0,1-2.055-.306.13.13,0,0,1-.083-.169.132.132,0,0,1,.166-.086,7.6,7.6,0,0,0,4.1,0,.134.134,0,1,1,.083.255,7.985,7.985,0,0,1-2.209.306Z" fill="#5e1a47"/>
    <path id="Trazado_6387" data-name="Trazado 6387" d="M1225.673,776.752a.139.139,0,0,1-.137-.124.134.134,0,0,1,.124-.143c.7-.052,2.86-.578,3.6-1.455a.135.135,0,1,1,.207.172c-.857,1.015-3.223,1.508-3.783,1.549Z" fill="#5e1a47"/>
    <path id="Trazado_6388" data-name="Trazado 6388" d="M1266.964,758.251a.526.526,0,0,1-.219-.047c-.854-.384-85.322-38.45-87.514-39.452-1.426-.652-2.466-.854-3.1-.6a1.505,1.505,0,0,0-.808.931,1.63,1.63,0,0,0-.012,1.483,2.986,2.986,0,0,0,1.989,1.048.535.535,0,0,1-.129,1.062,4.1,4.1,0,0,1-2.78-1.56,2.666,2.666,0,0,1-.062-2.428,2.553,2.553,0,0,1,1.405-1.529c.936-.376,2.192-.179,3.936.621,2.188,1,86.656,39.065,87.51,39.449a.535.535,0,0,1-.22,1.023Z" fill="#5e1a47"/>
    <path id="Trazado_6389" data-name="Trazado 6389" d="M1185.765,743.864a.119.119,0,0,1-.037-.005.134.134,0,0,1-.091-.166l6.953-23.927a.136.136,0,0,1,.166-.091.135.135,0,0,1,.091.166l-6.953,23.926a.135.135,0,0,1-.129.1Z" fill="#5e1a47"/>
    <path id="Trazado_6390" data-name="Trazado 6390" d="M1211.282,743.922h-.021a.135.135,0,0,1-.112-.154c.659-4.05,1.861-17.836,1.873-17.974.846-7.271,1.674-29.422,1.658-33.344a.137.137,0,0,1,.137-.135h0a.135.135,0,0,1,.132.134c.013,3.925-.816,26.1-1.662,33.372-.012.134-1.214,13.931-1.872,17.99a.139.139,0,0,1-.133.112Z" fill="#5e1a47"/>
    <path id="Trazado_6391" data-name="Trazado 6391" d="M1228.826,640.577a.135.135,0,0,1-.087-.033,10.821,10.821,0,0,0-5.387-2.347,65.962,65.962,0,0,0-6.758-.159c-.568.005-1.189.011-1.881.015h-.22a19.249,19.249,0,0,1-7.935-1.415c-.754-.312-1.355-.6-1.885-.858a11.287,11.287,0,0,0-1.732-.731.132.132,0,0,1-.091-.165.131.131,0,0,1,.165-.092,11.529,11.529,0,0,1,1.774.747c.526.254,1.123.543,1.869.852a19.222,19.222,0,0,0,8.051,1.394l1.881-.015a65.954,65.954,0,0,1,6.783.16,11.086,11.086,0,0,1,5.54,2.411.132.132,0,0,1,.013.189.13.13,0,0,1-.1.046Z" fill="#5e1a47"/>
    <path id="Trazado_6392" data-name="Trazado 6392" d="M1225.934,638.754a.135.135,0,0,1-.133-.1c-.472-2.09-.232-6.47-.1-8.256a7.86,7.86,0,0,1,1.57-4.5c.071-.1.137-.2.2-.292a.137.137,0,0,1,.186-.037.133.133,0,0,1,.038.186c-.062.1-.133.2-.2.3a7.609,7.609,0,0,0-1.525,4.362c-.124,1.774-.365,6.122.1,8.178a.133.133,0,0,1-.1.16l-.029,0Z" fill="#5e1a47"/>
    <path id="Trazado_6393" data-name="Trazado 6393" d="M1226.6,623.091a.114.114,0,0,1-.058-.014c-4.086-1.985-9.153-2.2-12.182-2.323l-.444-.019a.136.136,0,0,1-.128-.139.141.141,0,0,1,.141-.128l.443.019c3.046.127,8.151.34,12.286,2.35a.134.134,0,0,1,.062.179.135.135,0,0,1-.12.075Z" fill="#5e1a47"/>
    <path id="Trazado_6394" data-name="Trazado 6394" d="M1201.5,688.856s.916,8.057.522,12.6a18.083,18.083,0,0,1-1.956,7.174l-.53-.532s.63-2.979,1.131-6.753-.8-8.9-.8-8.9l1.629-3.592Z" fill="#5e1a47"/>
    <path id="Trazado_6395" data-name="Trazado 6395" d="M1244.179,743.2a7.767,7.767,0,0,0-.7.668c-2.316-2.1-4.881-6.526-6.423-9.441l-.368-.712s-.4.065-.925-1.845c0-.005,0-.005,0-.011a41.423,41.423,0,0,1-.99-5.9c-.9-7.928-.99-10.624-.82-13.6.165-2.835.973-12.635,1.048-13.544-.1,1.711.162,13.416.253,18.69.091,5.349,2.316,12.753,2.316,12.753l6.618,12.945Z" fill="#5e1a47"/>
    <path id="Trazado_6396" data-name="Trazado 6396" d="M1226.7,719.432c-.1,1.615-.252,3.354-.48,5.322-.7,6.034-3.821,43.072-4.061,45.955l-.017.177s2.043-40.419,2.42-50.8a17.858,17.858,0,0,0,2.138-.652Z" fill="#5e1a47"/>
    <path id="Trazado_6397" data-name="Trazado 6397" d="M1202.041,771.186c-.02.187-.057.465-.1.823h-.008a17.438,17.438,0,0,1-5.9,1.22,18.622,18.622,0,0,1-11.88-3.488c.394-1.16.771-2.145,1.1-2.942a22.244,22.244,0,0,0,5.192,2.418,57.3,57.3,0,0,0,11.6,1.969Z" fill="#5e1a47"/>
    <path id="Trazado_6398" data-name="Trazado 6398" d="M1232.966,769.142v.006s-.17,1.016-.456,2.69a29.577,29.577,0,0,1-10.372-.952,53.857,53.857,0,0,0,8.764-1.2c.721-.161,1.405-.348,2.064-.546Z" fill="#5e1a47"/>
    <path id="Trazado_6399" data-name="Trazado 6399" d="M1220.336,837.546c-.1.55-.158.855-.158.855a10.127,10.127,0,0,1-7.868.356s-.158,3.745.468,4.012,18.186,2.649,19.26,1.592-11.7-6.815-11.7-6.815Z" fill="#5e1a47"/>
    <path id="Trazado_6400" data-name="Trazado 6400" d="M1220.257,656.086l-.5,1.8c-.526.562-1.1,1.161-1.583,1.632a7.477,7.477,0,0,1-4.251,1.987,4.6,4.6,0,0,1-1.952-.281l-.141-.577a9.858,9.858,0,0,0,6.564-2.359,17.907,17.907,0,0,0,1.86-2.2Z" fill="#f2a96f"/>
    <path id="Trazado_6401" data-name="Trazado 6401" d="M1219.3,651.4c-1.09-1.726-4.96-.256-4.471,2.056s2.312,2.4,3.6,1.911,1.6-2.808.866-3.967Z" fill="#f49f7f"/>
    <path id="Trazado_6402" data-name="Trazado 6402" d="M1206.492,652.646a1.993,1.993,0,0,1-1.33,1.867,14.9,14.9,0,0,1-.406-1.578,27.6,27.6,0,0,1-.493-4.365,4.46,4.46,0,0,1,2.229,4.076Z" fill="#f49f7f"/>
    <path id="Trazado_6403" data-name="Trazado 6403" d="M1204.59,652.021c.311,1.179,2.4,2.366,4.579.761a3.691,3.691,0,0,0,2.54,1.248c1.873.268,3.476-.538,3.431-1s-1.873.647-3.166-.734-2.093-1.739-2.495-1.65-2.809,1.516-3.252,1.516-1.753-.585-1.637-.137Z" fill="#5e1a47"/>
    <path id="Trazado_6404" data-name="Trazado 6404" d="M1206.856,651.812a1.84,1.84,0,0,1-1.04-.27.133.133,0,0,1-.049-.154c.025-.068,2.436-6.786,2.536-7.145a.137.137,0,0,1,.165-.093.132.132,0,0,1,.092.164c-.092.347-2.18,6.164-2.5,7.058.3.148,1.409.517,3.174-.775a.133.133,0,0,1,.186.028.138.138,0,0,1-.029.188,4.349,4.349,0,0,1-2.532,1Z" fill="#ce6a15"/>
    <path id="Trazado_6405" data-name="Trazado 6405" d="M1194.844,806.139a.153.153,0,0,1-.046-.008.132.132,0,0,1-.078-.171c4.45-12.291,7.164-34.567,7.189-34.791a.133.133,0,1,1,.265.033c-.025.223-2.743,22.529-7.2,34.848a.14.14,0,0,1-.129.089Z" fill="#5e1a47"/>
    <path id="Trazado_6406" data-name="Trazado 6406" d="M1205.638,771.58c-2.076,0-6.978-.535-7.21-.561a.132.132,0,0,1-.116-.148.122.122,0,0,1,.145-.118c.062.007,6.054.663,7.658.546l3.936-20.027a.136.136,0,0,1,.158-.106.135.135,0,0,1,.107.157l-3.961,20.126a.129.129,0,0,1-.116.108c-.153.016-.356.023-.6.023Z" fill="#5e1a47"/>
    <path id="Trazado_6407" data-name="Trazado 6407" d="M1214.713,694.539a.136.136,0,0,1-.124-.077l-7.927-17.2a.13.13,0,0,1,.029-.152l3.878-3.731-5.689-7.8a.13.13,0,0,1-.021-.116.139.139,0,0,1,.079-.087l7.309-2.878a.133.133,0,0,1,.174.075.135.135,0,0,1-.078.173l-7.148,2.816,5.66,7.758a.135.135,0,0,1-.016.175l-3.9,3.745,7.89,17.11a.134.134,0,0,1-.12.189Z" fill="#5e1a47"/>
    <path id="Trazado_6408" data-name="Trazado 6408" d="M1225.25,691.668l-.025,0a.132.132,0,0,1-.1-.159l3.05-14.425-5.1-4.412a.136.136,0,0,1-.025-.172l3.982-6.383c-.874-.469-6-3.221-6.344-3.368a9.746,9.746,0,0,1-1.707-2.021.132.132,0,0,1,.033-.186.135.135,0,0,1,.187.034,10.005,10.005,0,0,0,1.591,1.926c.393.165,6.244,3.313,6.493,3.447a.129.129,0,0,1,.066.084.135.135,0,0,1-.017.1l-4,6.407,5.068,4.389a.137.137,0,0,1,.045.128l-3.066,14.5a.137.137,0,0,1-.133.107Z" fill="#5e1a47"/>
    <path id="Trazado_6409" data-name="Trazado 6409" d="M1215.587,730.232a22.991,22.991,0,0,1-1.6,5.349c-.485,1.048-.991,1.247-1.21.909v-.005a1.208,1.208,0,0,1-.058-.9s-.017.043-.05.107c-.124.267-.485.941-1.023.952a.258.258,0,0,1-.224-.1c-.183-.241.016-.878.141-1.209.016-.038.024-.07.037-.1a.579.579,0,0,0-.033.07.019.019,0,0,1,0,.01,3.71,3.71,0,0,1-.324.573c-.174.256-.393.46-.6.374a.61.61,0,0,1-.27-.326,2.254,2.254,0,0,1-.153-.466.179.179,0,0,1-.178.118h0c-.477-.011-1.8-1.359-1.8-4.552l-3.074-1.728a11.343,11.343,0,0,1,3.136-2.61,10.759,10.759,0,0,1,4.082-1.273c1.338,1.273,3.282,3.883,3.211,4.814Z" fill="#f8be90"/>
    <path id="Trazado_6410" data-name="Trazado 6410" d="M1207.984,727.011a.13.13,0,0,1-.108-.054.133.133,0,0,1,.025-.187,9.121,9.121,0,0,1,4.226-1.463l-11.469-15.744c-.029-.036-3.431-4.16-4.364-5.466a4.78,4.78,0,0,1-.874-1.838,13.588,13.588,0,0,1-3.692,1.261c-.4.1-.816.2-.883.24a.135.135,0,0,1-.182-.051.136.136,0,0,1,.05-.18,6.222,6.222,0,0,1,.949-.269c1.143-.289,3.526-.89,3.741-1.365a.139.139,0,0,1,.158-.074.134.134,0,0,1,.1.14,3.576,3.576,0,0,0,.854,1.981c.924,1.3,4.322,5.415,4.355,5.457l11.615,15.943a.131.131,0,0,1,.012.135.127.127,0,0,1-.112.076,9.313,9.313,0,0,0-4.322,1.431.13.13,0,0,1-.078.027Z" fill="#5e1a47"/>
    <path id="Trazado_6411" data-name="Trazado 6411" d="M1210.37,735.929a2.254,2.254,0,0,1-.153-.466.179.179,0,0,1-.178.118h0a10.665,10.665,0,0,1,.215-4.835.131.131,0,0,1,.17-.081.138.138,0,0,1,.079.171,11.025,11.025,0,0,0-.129,5.093Z" fill="#ce6a15"/>
    <path id="Trazado_6412" data-name="Trazado 6412" d="M1211.56,735.33c-.058.593-.108.995-.141,1.209-.183-.241.016-.878.141-1.209Z" fill="#5e1a47"/>
    <path id="Trazado_6413" data-name="Trazado 6413" d="M1211.974,731.655c-.133,1-.249,2.161-.352,3.092-.021.2-.042.385-.058.551a.019.019,0,0,1,0,.01,3.71,3.71,0,0,1-.324.573c.034-.327.083-.733.125-1.161.1-.931.219-2.092.348-3.1a.133.133,0,1,1,.265.032Z" fill="#ce6a15"/>
    <path id="Trazado_6414" data-name="Trazado 6414" d="M1212.774,736.485a1.208,1.208,0,0,1-.058-.9s-.017.043-.05.107c.278-1.428.572-3.365.563-3.536a.128.128,0,0,1,.1-.161.147.147,0,0,1,.166.108,36.392,36.392,0,0,1-.717,4.386Z" fill="#ce6a15"/>
    <path id="Trazado_6415" data-name="Trazado 6415" d="M1249.8,750.1a3.165,3.165,0,0,1,.241.412c-.108-.176-.195-.326-.241-.412Zm4.368-3.889a17.855,17.855,0,0,0-2.544-4.68,10.868,10.868,0,0,0-2.192-.209,10.2,10.2,0,0,0-2.089.209,8.212,8.212,0,0,0-3.87,2.337c.095.974.211,1.777.3,2.333l.092.562,1.5.629s.31-1.314.58-.913a61.378,61.378,0,0,0,3.808,5.681c.493.492.721.251.708-.273v-.005a3.57,3.57,0,0,0-.364-1.274c.111.188.244.413.393.637,0,.006.009.011.009.011.488.781,1.1,1.642,1.4,1.642.265,0,.381-.348.336-.893a6.065,6.065,0,0,0-.593-1.958c.112.23.332.679.576,1.112.327.589.692,1.172.887,1.2.331.054.294-1.15.12-2.177v-.005c-.037-.193-.075-.38-.112-.546a4.681,4.681,0,0,0,.5.818.019.019,0,0,0,0,.011c.2.241.415.385.556.16.331-.535.932-1.738,0-4.413Z" fill="#f8be90"/>
    <path id="Trazado_6416" data-name="Trazado 6416" d="M1250.1,750.612a3.57,3.57,0,0,1,.364,1.274,17.291,17.291,0,0,0-2.565-4.681.14.14,0,0,1,.005-.187.143.143,0,0,1,.194.005,15.532,15.532,0,0,1,2.4,4.226c-.149-.224-.282-.449-.393-.637Z" fill="#ce6a15"/>
    <path id="Trazado_6417" data-name="Trazado 6417" d="M1252.23,752.009a20.5,20.5,0,0,0-2.847-5.756.131.131,0,0,1,.021-.188.134.134,0,0,1,.186.022,19.063,19.063,0,0,1,2.623,5.076c-.244-.433-.464-.882-.576-1.112a6.065,6.065,0,0,1,.593,1.958Z" fill="#ce6a15"/>
    <path id="Trazado_6418" data-name="Trazado 6418" d="M1253.108,749.639c.037.166.075.353.112.546a15.584,15.584,0,0,0-2.221-4.242.142.142,0,0,1,.017-.188.137.137,0,0,1,.19.017,16.509,16.509,0,0,1,2.4,4.685,4.681,4.681,0,0,1-.5-.818Z" fill="#ce6a15"/>
    <path id="Trazado_6419" data-name="Trazado 6419" d="M1222.109,675.589l-2.942,2.584-2.822-5.654,2.516-8.955.153.5c.431,1.423,1.7,5.751,3.062,11.372.008.048.021.1.033.15Z" fill="#ef7d80"/>
    <path id="Trazado_6420" data-name="Trazado 6420" d="M1225.184,691.081c-.642-1.354-1.521-3.215-2.238-4.826-.7-1.588-2.2-4.739-3.663-7.836.241-.262,1.587-1.509,2.864-2.68-.025-.1-.05-.2-.071-.3-1.877,1.717-2.627,2.418-2.909,2.734-.215-.46-.435-.92-.65-1.37-.792-1.664-1.517-3.2-2.031-4.295l1.2-4.365a.133.133,0,0,0-.091-.165.136.136,0,0,0-.166.094l-1.119,4.061c-.049-.113-.1-.228-.149-.326a.128.128,0,0,0-.174-.064.13.13,0,0,0-.066.177c.091.191.2.415.3.651l.013.02c.514,1.1,1.243,2.643,2.039,4.325,1.686,3.557,3.6,7.585,4.425,9.452.8,1.792,1.8,3.894,2.449,5.264a.039.039,0,0,0,.012.026h0c.013.032.025.059.038.091.041.086.078.166.112.241-.042-.3-.088-.6-.133-.909Z" fill="#5e1a47"/>
  </g>
</svg>
