<svg xmlns="http://www.w3.org/2000/svg" width="161.81" height="227.851" viewBox="0 0 161.81 227.851">
  <g id="Grupo_10761" data-name="Grupo 10761" transform="translate(-297.482 -1192.732)">
    <path id="Trazado_7216" data-name="Trazado 7216" d="M430.4,1281.572c-2.185.381-5.056.8-8.75,1.2q-.717.075-1.388.137c-.086.008-.173.012-.254.025-1.291.116-2.445.2-3.486.253.132-.116-.341-.083-1.352-.987-.844-.758-2.338-1.665-3.766-2.9a15.681,15.681,0,0,1-1.311-1.272l.168-.249-.554-1.015s3.837-10.165,4.035-11.863c.056-.456.239-3.141.488-6.821.528-8.043,1.331-20.851,1.626-25.624l4.081,7.06.03-.028.265-.249,9.863-9.444c-1.138,1.969-1.585,14.043-2.22,20.4a110.853,110.853,0,0,0,.635,21.716c.264,1.907,1,5.561,1.89,9.672Z" fill="#dddbef"/>
    <path id="Trazado_7217" data-name="Trazado 7217" d="M414.125,1267.624a77.653,77.653,0,0,1-2.724,11.669,15.681,15.681,0,0,1-1.311-1.272l.168-.249-.554-1.015s3.837-10.165,4.035-11.863c.056-.456.239-3.141.488-6.821.056,3.39.081,7.711-.1,9.551Z" fill="#5e1a47"/>
    <path id="Trazado_7218" data-name="Trazado 7218" d="M344.783,1228.649a7.657,7.657,0,0,1-1.016,2.03,8.641,8.641,0,0,1-7.994,2.835c.128.352.249.692.371,1.027.437,1.21.834,2.308,1.118,3.071.069.178.127.331.182.468.1.249.173.435.225.534a2.861,2.861,0,0,0,2.475.763,3.271,3.271,0,0,0,.457-.269c.071-.046.143-.1.224-.15.667-.46,1.639-1.189,2.391-1.8a8.73,8.73,0,0,0,1.059-.953,7.571,7.571,0,0,0,.326-2.159c.076-1,.142-2.217.188-3.356.025-.638.05-1.252.066-1.786,0-.178.01-.34.015-.5-.031.078-.056.161-.087.24Z" fill="#f8be90"/>
    <path id="Trazado_7219" data-name="Trazado 7219" d="M344.855,1228.906c-.016.534-.041,1.148-.066,1.786-1.926,2.954-6.16,4.388-8.645,3.849-.122-.335-.243-.675-.371-1.027a8.641,8.641,0,0,0,7.994-2.835,7.657,7.657,0,0,0,1.016-2.03l.072.257Z" fill="#5e1a47"/>
    <path id="Trazado_7220" data-name="Trazado 7220" d="M344.87,1228.409a10.223,10.223,0,0,1-.737,1.7,5.017,5.017,0,0,1-.366.571,8.641,8.641,0,0,1-7.994,2.835c-.025-.009-.051-.017-.081-.025a4.07,4.07,0,0,1-.752-.27,9.236,9.236,0,0,1-3.852-3.609,18.192,18.192,0,0,1-1.753-3.82c-.2-.576-.381-1.189-.559-1.844-.082-.307-.153-.6-.219-.891-.02-.087-.04-.174-.056-.257-.051-.211-.091-.418-.127-.626-.015-.082-.03-.161-.046-.24-.045-.273-.086-.539-.121-.8a.209.209,0,0,0-.005-.054c-.031-.237-.051-.477-.072-.7-.005-.078-.01-.153-.015-.228-.01-.174-.02-.348-.025-.513,0-.071-.006-.15-.006-.216,0-.224,0-.439.006-.655.005-.033.005-.066.01-.1.005-.178.02-.352.035-.522.005-.075.016-.141.021-.212.015-.132.035-.265.056-.389l.03-.2c.031-.174.066-.348.107-.51.01-.045.025-.087.035-.132.031-.12.066-.245.1-.361.02-.062.041-.128.061-.186.035-.091.071-.191.107-.278.02-.058.045-.116.066-.17.061-.132.117-.257.178-.377a1.985,1.985,0,0,1,1.021-.277c1.271,0,5.631,1.437,8.68,1.015,2.627-.365,4.843-1.9,5.524-3.257a.189.189,0,0,1,.086.021c.895.315,1.464,2.726,1.845,5.842a26.269,26.269,0,0,1-1.184,9.734Z" fill="#f8be90"/>
    <path id="Trazado_7221" data-name="Trazado 7221" d="M354.248,1221.849c-1.651-2.606-6.161-11.117-6.669-12.132s-4.174-6.1-8.44-5.59c0,0-2.3-1.471-6.361-.037s-5.273,3.53-6.925,10.516-5,16.811-4.764,18.613c.316,2.371.784,4.886,6.993,5.209,3.79.2,5.277-2.635,7.611-4.939a4.18,4.18,0,0,1-.755-.27c-2.6-1.272-4.7-3.874-6.162-9.273-.082-.307-.154-.6-.221-.891-.02-.087-.038-.17-.056-.257-.046-.211-.088-.418-.126-.626-.015-.078-.03-.161-.044-.24-.046-.273-.088-.539-.121-.8l-.006-.05c-.029-.245-.053-.477-.071-.709-.006-.078-.011-.153-.016-.228-.011-.174-.019-.348-.024-.513,0-.075-.005-.145-.005-.216,0-.224,0-.443.006-.655,0-.033,0-.066.006-.1.008-.178.021-.352.037-.522.007-.071.015-.141.023-.212.015-.132.033-.265.053-.389.01-.066.02-.137.032-.2.031-.174.065-.348.1-.51.011-.045.024-.087.036-.132.032-.124.066-.245.1-.361.021-.062.042-.124.064-.186.032-.095.067-.187.1-.278.022-.058.045-.116.069-.17.056-.132.115-.257.177-.377h0a1.987,1.987,0,0,1,1.02-.277c1.271,0,5.632,1.437,8.682,1.015,2.628-.365,4.843-1.894,5.521-3.257a.673.673,0,0,1,.09.016c.889.32,1.461,2.731,1.842,5.843a26.206,26.206,0,0,1-1.182,9.733,10.183,10.183,0,0,1-.74,1.7c.121,1.935.878,4.562,3.828,5.4a7.219,7.219,0,0,0,8.956-5.147c1.017-4-1.016-5.909-2.668-8.511Z" fill="#eb5b52"/>
    <path id="Trazado_7222" data-name="Trazado 7222" d="M425.331,1215.373s1.458-3.3,1.143-5.847a7.571,7.571,0,0,1-1.911-4.993,5.924,5.924,0,0,1,.005-1.073.179.179,0,0,1-.035.037v0c-.351.34-3.2,3.054-6.52,3.294a11.131,11.131,0,0,1-6.469-1.467c-1.2-.663-3.11,2.168-2.856,4.832a34.1,34.1,0,0,0,.955,5.6,17.987,17.987,0,0,0,2.135,5.035c.121.194.254.381.386.571.167.228.34.456.528.676a8.252,8.252,0,0,0,3.2,2.457,6,6,0,0,0,1.052.336,7.429,7.429,0,0,0,2.068.145,13.1,13.1,0,0,0,2.068-.336c1.591-.36,2.953-1.836,3.949-3.323.117-.17.228-.34.33-.51l.082-.128c.223-.365.421-.725.589-1.057a10.152,10.152,0,0,0,1.016-3.874l-1.712-.377Z" fill="#f8be90"/>
    <path id="Trazado_7223" data-name="Trazado 7223" d="M430.4,1281.572c-2.185.385-5.059.8-8.751,1.2-10.8,1.14-13.467,0-13.467,0l-.418,1.591-.218.829s4.193.12,7.461.278,3.211.986,10.109,0h0c.756-.108,1.455-.22,2.115-.328,2.177-.414,5.01-1.093,7.645-1.769h0l1.374-3.145a39.421,39.421,0,0,1-5.859,1.347Z" fill="#9f99cb"/>
    <path id="Trazado_7224" data-name="Trazado 7224" d="M459.292,1409.942a26.246,26.246,0,0,1-6.1,1.492c-.081.017-.162.025-.249.041-.269.042-.543.075-.833.116-1.25.162-2.668.315-4.289.423a63.225,63.225,0,0,1-13.045-.373,6.31,6.31,0,0,1-1.946-.472c-.509-.427-1.652-71.358-2.033-73.645s-6.861-23.632-6.861-23.632a.019.019,0,0,1-.005.013c-.183.451-6.093,15-5.966,16.632.127,1.65,1.779,35.7,3.3,44.337s4.447,37.14,4.447,37.14-2.7.356-7.227.75c-1.9.166-4.136.336-6.621.493q-1.4.087-2.764.154c-2.6.128-5.118.2-7.486.223-1.444.013-2.831,0-4.147-.02-.935-.013-1.829-.042-2.683-.075-.087,0-.173-.012-.254-.012-1.433-.067-2.739-.158-3.883-.27a17.25,17.25,0,0,1-2.1-.352,32.959,32.959,0,0,1-3.928-1.185c-1.067-.394-2.063-.8-2.907-1.173-1.57-.692-2.622-1.243-2.622-1.243s7.242-28.459,8.893-35.445,8.639-43.322,10.037-48.327,8.385-36.539,9.528-40.347c0,0,4.193.124,7.46.282,1.9.091,2.679.41,4.351.468.081,0,.162,0,.249,0a24.972,24.972,0,0,0,2.627-.124c.081,0,.168-.013.254-.025.747-.075,1.611-.178,2.627-.323.631-.079,1.26-.17,1.87-.282.082-.012.168-.029.254-.046,1.5-.248,2.75-.5,3.786-.725,1.591,7.136,3.416,14.71,3.964,16.587.95,3.237,1.713,6.22,2.414,6.539a10.178,10.178,0,0,0,5.651.323,6.812,6.812,0,0,0,2.262-1.106c.015.974.045,2.13.086,3.41.081,2.619.229,5.718.483,8.681.6,7.115,3.079,29.731,4.35,36.717s9.06,54.377,9.06,54.377Z" fill="#fdc954"/>
    <path id="Trazado_7225" data-name="Trazado 7225" d="M403.52,1270.483s-3.3-3.555-3.385-3.891,4.741-8.726,4.741-8.726c.168,1.525-1.356,12.617-1.356,12.617Zm11.713-39.112-.508-.886h-7.181s1.189-.829,2.693-1.89c-.324.137-3.775,1.164-3.775,1.164s-.147.009-.382.029a2.6,2.6,0,0,1-.284.025,13.952,13.952,0,0,0-3.079.551c-.829.377-11.877,25.472-13.147,28.264s-2.734,6.547-2.165,8.955,4.04,8.324,6.992,11.627c2.161,2.42,3.746,4.429,4.437,5.333.259.327.391.509.391.509s-2.683,13.252-3.3,16.513l-.005.029c-.051.261-.086.456-.107.572a5.01,5.01,0,0,0-.076.841,3.081,3.081,0,0,0,.188,1.094,3.992,3.992,0,0,0,1.418,1.7c1.433,1.1,3.379,2.374,3.379,2.374l6.215-17.552a9.41,9.41,0,0,1-3.247-3.021l4.421-6.622,1.977-2.962.168-.249-.554-1.015s3.837-10.165,4.035-11.863c.046-.365.173-2.184.351-4.8.01-.17.02-.348.035-.53.524-7.853,1.413-22.032,1.728-27.112l-.62-1.078Z" fill="#eb5b52"/>
    <path id="Trazado_7226" data-name="Trazado 7226" d="M445.846,1266.568c-.442.571-3.872,3.368-3.872,3.368v-12.385s4.319,8.445,3.872,9.017Zm12.135-5.652c-2.6-7.368-10.29-23.76-11.495-25.538s-2.286-2.639-5.275-3.907c-.726-.3-1.646-.63-2.622-.953-.147-.046-.3-.1-.447-.145-.1-.029-.188-.062-.285-.091-.117-.042-.233-.075-.35-.112l-7.415-.382a9.763,9.763,0,0,0-.7,2.847c-.661,4.467-1.036,12.684-1.524,17.549-.2,2.026-.29,4.421-.29,6.911,0,.547.005,1.1.015,1.649.005.572.021,1.14.036,1.708.005.174.01.352.02.526.025.7.056,1.4.086,2.092.011.166.016.336.026.5.02.327.035.646.056.965.01.174.02.34.03.51.016.252.036.5.051.75.061.853.127,1.682.2,2.469.01.087.016.174.026.261.005.071.01.137.02.208.01.149.026.29.041.43.1.995.208,1.919.32,2.739.015.125.035.253.056.39.051.34.112.721.188,1.144.31,1.765.8,4.2,1.382,6.9.086.406.173.824.264,1.239.021.1.041.19.061.286.183.837.376,1.7.564,2.556,1.591,7.136,3.416,14.71,3.964,16.587.95,3.237,1.713,6.22,2.414,6.539a10.178,10.178,0,0,0,5.651.323,6.812,6.812,0,0,0,2.262-1.106,3.827,3.827,0,0,0,1.041-1.181c.321-.576-1.966-20.267-1.966-20.267s10.738-8.449,12.577-11.308,3.619-5.718,1.016-13.085Z" fill="#eb5b52"/>
    <path id="Trazado_7227" data-name="Trazado 7227" d="M365.746,1412.607a32.768,32.768,0,0,1-6.362.634c-1.612.037-3.522.016-5.748-.125-.34-.02-.671-.041-1-.066-.086,0-.173-.008-.259-.017-3.171-.2-5.89-.406-7.959-.567-2.734-.22-4.334-.365-4.334-.365s1.692-18.717,2.287-23.971,2.8-21,3.054-27.443-2.633-43.869-2.633-43.869l-.1.331-10.825,34.9c.427,5.847-2.54,59.544-2.54,59.544s-2.155.423-5.362.825c-.8.095-1.661.191-2.576.286-2.4.236-5.133.414-7.9.414-4.335,0-8.639-.269-11.689-.518-2.622-.215-4.319-.41-4.319-.41s16.937-57,18.04-59.378,2.541-16.683,3.979-23.711c.676-3.31,2.343-11.494,3.964-19.338,1.037-5.03,2.053-9.92,2.775-13.285.549-2.552.925-4.23,1.011-4.433,0,0,3.43,1.777,10.86,1.844s15.754-3.369,19.189-5.337l-.1-.456c.081.178,1.493,3.3,3.013,7.057a75.652,75.652,0,0,1,3.5,10.317,24.847,24.847,0,0,1,.458,3.191c.5,5.677-.219,12.92-.29,17.217-.081,5.167-2.2,25.918-1.778,43.45s3.643,43.281,3.643,43.281Z" fill="#6b63a9"/>
    <path id="Trazado_7228" data-name="Trazado 7228" d="M328.653,1219.272a4.778,4.778,0,0,1,3.78-1.421c1.033.049,1.354.522,1.055,1.139s-1.135.278-2.75.058-2.085.224-2.085.224Z" fill="#eb5b52"/>
    <path id="Trazado_7229" data-name="Trazado 7229" d="M343.2,1217.788a4.307,4.307,0,0,0-4.709,0c-.96.767.023,1.629,1.345,1.036a21.264,21.264,0,0,1,3.364-1.036Z" fill="#eb5b52"/>
    <path id="Trazado_7230" data-name="Trazado 7230" d="M335.255,1229.407l4.986-1.649s-.539,2.287-2.127,2.731a3.074,3.074,0,0,1-2.859-1.082Z" fill="#fff"/>
    <path id="Trazado_7231" data-name="Trazado 7231" d="M325.681,1278.34a7.391,7.391,0,0,1-.208,1c-.442,1.533-.636,10.67-.453,13.4s-1.646,17.917-1.646,17.917a14.706,14.706,0,0,1,1.59,4.442c.188,1.91-.127,4.894-.381,5.08s-1.143-3.108-1.524-2.917-1.332,8.134-1.972,8.267-.7-1.658-.7-1.658-.127,1.778-.574,1.645-.885-2.983-.885-2.983.061,2.353-.32,2.221-.762-1.392-1.2-4.509a18.633,18.633,0,0,1,.738-6.9,98.321,98.321,0,0,1-1.779-11.266,65.449,65.449,0,0,1,.427-14.143c.086-1.23.188-4.259.345-7.384.122-2.469.275-5.005.478-6.758.051-.464.1-.874.163-1.21a20.164,20.164,0,0,1,3.628.908c1.652.7,4.446,2.1,4.446,2.1v.087a16.558,16.558,0,0,1-.172,2.661Z" fill="#f8be90"/>
    <path id="Trazado_7232" data-name="Trazado 7232" d="M325.855,1275.675l0-.087,0,.087Z" fill="#f8be90"/>
    <path id="Trazado_7233" data-name="Trazado 7233" d="M357.3,1288.55a42.4,42.4,0,0,1-6.693,2.962c-.1.034-.2.067-.3.1a37.992,37.992,0,0,1-12.2,2.271,35.3,35.3,0,0,1-8.283-.962c-.112-.029-.219-.062-.321-.087a13.082,13.082,0,0,1-2.256-.8l-.066-.829c-.061-.825-.823-5.084-.569-6.543a14.2,14.2,0,0,0,4.579.982c.086.013.177.021.269.033a53.1,53.1,0,0,0,7.648.071,52.42,52.42,0,0,0,8.863-1.231l.259-.062c4.269-1.007,6.952-2.271,7.349-2.714,0,0,.02-.153.065-.427l1.546,6.758.106.469Z" fill="#5e1a47"/>
    <path id="Trazado_7234" data-name="Trazado 7234" d="M373.537,1257.016a107.163,107.163,0,0,0-8.467,10s-5.8-7.309-5.991-7.243-2.973,18.51-3.431,21.551c-.045.274-.065.427-.065.427-.636.7-7.054,3.5-16.471,4.007s-12.5-1.086-12.5-1.086c-.6-.891-.747-8.117-.763-8.992v-.087s-2.794-1.4-4.446-2.1a20.164,20.164,0,0,0-3.628-.908c-1.057-.19-1.9-.294-1.9-.294s1.586-9.34,3.3-15.315,3.558-13.023,5.845-14.669,7.368-2.863,9.843-3.812l2.571-.41c.1.245.173.431.224.53a2.861,2.861,0,0,0,2.475.763,2.7,2.7,0,0,0,.391-.228.279.279,0,0,0,.066-.041c.056-.034.112-.075.173-.116.015-.009.036-.025.051-.034.665-.46,1.641-1.189,2.393-1.8l2.922-.464s9.275,1.695,11.048,2.37,3.476,1.185,6.612,4.488,9.737,13.466,9.737,13.466Z" fill="#fdc954"/>
    <path id="Trazado_7235" data-name="Trazado 7235" d="M336.18,1302.568c-.015.095-.03.19-.051.29-.574,3.389-1.606,7.326-2.4,7.773-1.357.763-4.234.427-6.52,0-1.439-.265-2.877-.63-3.746-.87.539-2.61,1.072-5.184,1.56-7.521.015-.087.031-.165.051-.248.437-2.072.828-3.958,1.164-5.516,2.831-.074,9.523.436,10.2,1.451.27.4.112,2.366-.259,4.641Z" fill="#9f99cb"/>
    <path id="Trazado_7236" data-name="Trazado 7236" d="M364.171,1308.659a34.506,34.506,0,0,1-7.232,2.428c-1.865.2-2.795-.369-3.73-2.233-.61-1.227-1.809-4.4-2.653-6.866-.045-.125-.086-.245-.127-.365-.381-1.131-.675-2.076-.777-2.565-.335-1.579.533-1.885,2.881-2.586,1.281-.381,5.9-1.065,7.679-1.321.732,1.827,1.489,3.807,2.129,5.672.031.083.056.158.082.232a43.4,43.4,0,0,1,1.29,4.413,24.847,24.847,0,0,1,.458,3.191Z" fill="#9f99cb"/>
    <path id="Trazado_7237" data-name="Trazado 7237" d="M301.8,1412.6a5.514,5.514,0,0,0-2.625,3.315c-.254.676.933,1.948,2.626,1.948,1.669,0,14.275-2.818,19.585-5.159-2.4.236-5.132.414-7.9.414-4.333,0-8.638-.269-11.691-.518Z" fill="#eb5b52"/>
    <path id="Trazado_7238" data-name="Trazado 7238" d="M353.636,1413.116c-3.711-.232-6.879-.468-9.218-.65-1.876,1.388-3.582,3.729-3.658,4.715-.084,1.1,1.44,2.118,4.32,1.612,2.286-.406,10.863-4.061,14.306-5.552-1.615.037-3.524.016-5.75-.125Z" fill="#eb5b52"/>
    <path id="Trazado_7239" data-name="Trazado 7239" d="M424.568,1203.464l-.033.033.033-.033Z" fill="#f8be90"/>
    <path id="Trazado_7240" data-name="Trazado 7240" d="M409.7,1210.479a3.539,3.539,0,0,1,2.858-.762c.763.19,1.4,1.077.763,1.4s-.953-.7-2.033-.729a6.456,6.456,0,0,0-1.588.095Z" fill="#5e1a47"/>
    <path id="Trazado_7241" data-name="Trazado 7241" d="M423.616,1210.417a3.484,3.484,0,0,0-3.682-1.21c-1.21.381-1.337,1.272-.448,1.21s4.13,0,4.13,0Z" fill="#5e1a47"/>
    <path id="Trazado_7242" data-name="Trazado 7242" d="M425.423,1220.092a2.529,2.529,0,0,0,.013.593c.106-.174.2-.348.3-.518l-.313-.075Z" fill="#f8be90"/>
    <path id="Trazado_7243" data-name="Trazado 7243" d="M434.923,1214.233a10.272,10.272,0,0,0-2.478-5.279s.445-3.621.636-6.34-1.779-9.352-5.019-9.82a4.878,4.878,0,0,0-4.764,1.869c-2.668-2.225-6.606-3.05-11.561.886s-6.225,9.721-6.8,12.962,2.795,5.722,2.795,5.722c-1.715,5.466,1.969,6.725,4.429,7.131v0c-2.6-3.609-3.237-8.693-3.475-11.2-.254-2.669,1.66-5.495,2.858-4.827a11.163,11.163,0,0,0,6.467,1.462c3.321-.24,6.171-2.954,6.519-3.3h0l.033-.033a10.347,10.347,0,0,0-.006,1.069,7.557,7.557,0,0,0,1.912,4.993c.318,2.54-1.143,5.843-1.143,5.843l1.715.381a10.2,10.2,0,0,1-1.016,3.874c-.091.174-.189.356-.294.543-.1.17-.194.344-.3.518a2.055,2.055,0,0,0,.911,1.608,5.808,5.808,0,0,0,4.055.145,7.915,7.915,0,0,0,1.471-.651c2.669-1.525,3.367-4.575,3.05-7.554Z" fill="#5e1a47"/>
    <path id="Trazado_7244" data-name="Trazado 7244" d="M439.052,1284.659a12.6,12.6,0,0,1-4.386,5.416c-2.917,1.777-4.508,1.968-4.772,1.587a.239.239,0,0,1,.056-.3l0,0a2.141,2.141,0,0,1,.59-.365,7.575,7.575,0,0,1-.9.228c-.884.174-1.885.245-2.063-.066-.051-.095-.005-.207.112-.323l.005-.009a4.087,4.087,0,0,1,1.072-.687c-.173.058-.35.116-.528.165-.915.253-1.82.357-1.9,0a.436.436,0,0,1,0-.161.832.832,0,0,1,.218-.377,4.969,4.969,0,0,1-.813.439.041.041,0,0,1-.025.008c-1.108.44-.523-.8.366-1.98,1.2-1.592,5.082-5.843,5.082-5.843s-5.148-.762-4.7-1.459,4.259-1.466,4.889-1.719,1.778-.957,3.3-1.716a5.488,5.488,0,0,1,3.181,2.284,11.652,11.652,0,0,1,1.205,4.881Z" fill="#f8be90"/>
    <path id="Trazado_7245" data-name="Trazado 7245" d="M388.542,1412.905c-3.945,1.318-9.516,1.794-9.837.733-.889,1.513,2.16,6.593,3.43,6.846s9.528,0,11.18-.634c1.367-.527,3.252-3.966,4.151-6.232-2.608-.05-4.927-.17-6.819-.361a17.3,17.3,0,0,1-2.105-.352Z" fill="#5e1a47"/>
    <path id="Trazado_7246" data-name="Trazado 7246" d="M384.613,1411.72c-1.065-.39-2.059-.8-2.9-1.173-2.879,1.3-3.387,1.84-3.006,3.091.321,1.061,5.892.585,9.837-.733a32.3,32.3,0,0,1-3.929-1.185Z" fill="#9f99cb"/>
    <path id="Trazado_7247" data-name="Trazado 7247" d="M401.7,1418.926c.762.29,5.844.6,6.734,0,.62-.419.684-3.618.666-5.515-2.6.128-5.117.2-7.485.223-.559,2.528-.641,5.018.085,5.292Z" fill="#5e1a47"/>
    <path id="Trazado_7248" data-name="Trazado 7248" d="M447.818,1412.014a63.6,63.6,0,0,1-13.046-.369c.605,3.174,2.277,6.025,3.644,6.216,1.525.211,9.021.34,10.545-.932.842-.7,2.147-3.22,3.148-5.338-1.251.166-2.672.315-4.291.423Z" fill="#5e1a47"/>
    <path id="Trazado_7249" data-name="Trazado 7249" d="M337.669,1238.619c-.079-.158-.22-.514-.4-1.007l-.448-1.214-1.942,2.092-1.842,9.4,7.569-8.78h0a4.645,4.645,0,0,1-.454.269,2.878,2.878,0,0,1-2.477-.762Z" fill="#fef6b8"/>
    <path id="Trazado_7250" data-name="Trazado 7250" d="M340.826,1238.958c1.6,1.935,6.308,7.156,6.308,7.156l.7-8.5-3.231-3.568v0a7.745,7.745,0,0,1-.327,2.159,27.18,27.18,0,0,1-3.449,2.751Z" fill="#fef6b8"/>
    <path id="Trazado_7251" data-name="Trazado 7251" d="M412.944,1290.518s.6.526,1.32,1.077c-.087-.5-1.32-1.077-1.32-1.077Z" fill="#f8be90"/>
    <path id="Trazado_7252" data-name="Trazado 7252" d="M434.879,1283.37c-2.635.676-5.468,1.355-7.645,1.769a43.761,43.761,0,0,0,7.645-1.769Z" fill="#f8be90"/>
    <path id="Trazado_7253" data-name="Trazado 7253" d="M415.231,1231.367h0l.623,1.082-.623-1.082Z" fill="#f8be90"/>
    <path id="Trazado_7254" data-name="Trazado 7254" d="M417.835,1291.823c-.132.228-.635-.195-1.179-.758-.005,0-.005,0-.015-.013-.63-.658-1.3-1.5-1.489-1.74.142.2.61.85,1.016,1.542.473.808.869,1.669.59,1.951s-1.2-.261-2.058-.887c-.148-.1-.3-.215-.437-.323-.056-.327-.61-.692-.981-.9-.168-.1-.3-.157-.331-.174.051.046.356.311.778.655a.07.07,0,0,1,.02.016c.163.129.336.265.514.4a.3.3,0,0,1-.016.174c-.01.017-.02.038-.03.054-.264.365-1.413.042-2.114-.207-.28-.1-.488-.178-.544-.2.1.058.63.385.7.626v0c.036.116-.04.211-.33.253a11.109,11.109,0,0,1-4.991-1.67,9.41,9.41,0,0,1-3.247-3.021l4.421-6.622,1.977-2.962c1.738,1.922,3.969,3.182,5.077,4.176,1.011.9,1.484.871,1.352.987a1.093,1.093,0,0,1-.148.091,2.6,2.6,0,0,1-1.321.319,2.46,2.46,0,0,1-1.311-.319c-.224.447,1.83,2.668,2.8,4.637s1.606,3.377,1.291,3.911Z" fill="#f8be90"/>
    <path id="Trazado_7255" data-name="Trazado 7255" d="M419.815,1237.641l.119,1.868s1.261-2.544,2.443-4.959c-1.229,2.005-2.443,3.878-2.443,3.878s-.046-.3-.119-.787Z" fill="#f8be90"/>
    <path id="Trazado_7256" data-name="Trazado 7256" d="M425.356,1220.809c-.01.568-.025,1.218-.041,1.906-.071,2.694-.193,5.951-.38,7.049-.016.083-.031.157-.046.215a32.579,32.579,0,0,1-2.511,4.566c-1.23,2.01-2.444,3.883-2.444,3.883s-.046-.3-.117-.787c-.219-1.417-.666-4.4-.91-6.009-.061-.431-.152-.882-.254-1.346a32.733,32.733,0,0,0-1.057-3.672c-.2-.584-.422-1.181-.655-1.781a7.429,7.429,0,0,0,2.068.145,13.1,13.1,0,0,0,2.068-.336c1.591-.36,2.953-1.836,3.949-3.323.117-.17.228-.34.33-.51Z" fill="#f8be90"/>
    <path id="Trazado_7257" data-name="Trazado 7257" d="M430.4,1222.438a5.808,5.808,0,0,1-4.055-.145,2.055,2.055,0,0,1-.911-1.608c-.025.041-.052.083-.078.124-.056,2.793-.186,7.579-.426,8.955-.015.083-.03.157-.046.215a32.121,32.121,0,0,1-2.509,4.571c-1.182,2.415-2.443,4.959-2.443,4.959l10.161-9.721,2,.1,5.408.278,2.5.128-9.6-7.86Z" fill="#9f99cb"/>
    <path id="Trazado_7258" data-name="Trazado 7258" d="M419.815,1237.641c-.214-1.417-.665-4.4-.907-6.009-.064-.431-.152-.882-.254-1.342a37.462,37.462,0,0,0-1.713-5.457,6.8,6.8,0,0,1-1.054-.332c-1.119.879-3.646,2.681-5.627,4.082-1.518,1.069-2.716,1.906-2.716,1.906h7.178l.509.878.624,1.082,4.079,7.06-.119-1.868Z" fill="#9f99cb"/>
    <path id="Trazado_7259" data-name="Trazado 7259" d="M379.086,1275.016c-3.441,6.506-12.13,15.883-12.13,15.883l-5.214,5.718c.32.763-.57,2.607-1.84,3.237s-1.4,1.147-2.287,1.147-.7-.066-3.242-1.591-2.541-2.859-2.541-2.859c-.7-1.206.132-3.112.64-3.559s6.1-3.108,6.729-3.68,1.336-2.03,4.766-6.737,4.828-11.18,4.955-11.69c.092-.377-.884-1.86-2.022-3.261-.4-.5-.824-.986-1.225-1.409l5.829-7.392a.027.027,0,0,0,.005-.012l1.1-1.393s2.856,3.626,4.523,5.656,4.878,6.419,1.956,11.942Z" fill="#f8be90"/>
    <path id="Trazado_7260" data-name="Trazado 7260" d="M331.105,1219.893c.593-.058.55,2.611,0,2.739s-.593-2.681,0-2.739Z" fill="#5e1a47"/>
    <path id="Trazado_7261" data-name="Trazado 7261" d="M339.7,1219.541c-.636,0-.678,2.412,0,2.457s.635-2.457,0-2.457Z" fill="#5e1a47"/>
    <path id="Trazado_7262" data-name="Trazado 7262" d="M328.208,1221.137l-.006-.05.006.05Z" fill="#eb5b52"/>
    <path id="Trazado_7263" data-name="Trazado 7263" d="M328.131,1220.378c-.006-.078-.011-.153-.016-.228.005.075.01.15.016.228Z" fill="#eb5b52"/>
    <path id="Trazado_7264" data-name="Trazado 7264" d="M328.373,1222.172c-.015-.078-.03-.161-.044-.24.014.079.029.162.044.24Z" fill="#eb5b52"/>
    <path id="Trazado_7265" data-name="Trazado 7265" d="M328.555,1223.055c-.02-.087-.038-.17-.056-.257.018.087.036.17.056.257Z" fill="#eb5b52"/>
    <path id="Trazado_7266" data-name="Trazado 7266" d="M328.653,1215.878c.022-.058.045-.116.069-.17-.024.054-.047.112-.069.17Z" fill="#eb5b52"/>
    <path id="Trazado_7267" data-name="Trazado 7267" d="M328.486,1216.342c.021-.062.042-.124.064-.186-.022.062-.043.124-.064.186Z" fill="#eb5b52"/>
    <path id="Trazado_7268" data-name="Trazado 7268" d="M328.348,1216.835c.011-.045.024-.087.036-.132-.012.045-.025.087-.036.132Z" fill="#eb5b52"/>
    <path id="Trazado_7269" data-name="Trazado 7269" d="M328.092,1218.766c0-.033,0-.066.006-.1,0,.033-.005.066-.006.1Z" fill="#eb5b52"/>
    <path id="Trazado_7270" data-name="Trazado 7270" d="M328.091,1219.637c0-.075-.005-.145-.005-.216,0,.071,0,.141.005.216Z" fill="#eb5b52"/>
    <path id="Trazado_7271" data-name="Trazado 7271" d="M328.135,1218.145c.007-.071.015-.141.023-.212-.008.071-.016.141-.023.212Z" fill="#eb5b52"/>
    <path id="Trazado_7272" data-name="Trazado 7272" d="M328.211,1217.544c.01-.066.02-.137.032-.2-.012.062-.022.133-.032.2Z" fill="#eb5b52"/>
    <path id="Trazado_7273" data-name="Trazado 7273" d="M334.28,1227.12a.119.119,0,0,1-.066-.017.131.131,0,0,1-.061-.12l.509-7.28a.127.127,0,1,1,.254.016l-.492,7.036,2.326-1.438a.133.133,0,0,1,.175.042.131.131,0,0,1-.042.178l-2.536,1.566a.125.125,0,0,1-.067.017Z" fill="#ce6a15"/>
    <path id="Trazado_7274" data-name="Trazado 7274" d="M337.287,1215.646a.13.13,0,0,1-.125-.112.126.126,0,0,1,.11-.141c2.406-.3,4.262-2.448,5.676-6.563a.126.126,0,1,1,.24.079c-1.448,4.218-3.373,6.422-5.885,6.733a.023.023,0,0,1-.016,0Z" fill="#f9cdd0"/>
    <path id="Trazado_7275" data-name="Trazado 7275" d="M333.519,1215.178a.126.126,0,0,1-.054-.24c3.022-1.43,6.625-5.1,7.011-7.152a.127.127,0,0,1,.249.049c-.4,2.109-4.074,5.876-7.152,7.331a.13.13,0,0,1-.054.012Z" fill="#f9cdd0"/>
    <path id="Trazado_7276" data-name="Trazado 7276" d="M330.676,1214.374a.128.128,0,0,1-.052-.244c.033-.013,3.323-1.529,6.857-6.394a.127.127,0,1,1,.206.149c-3.578,4.927-6.926,6.464-6.959,6.477a.124.124,0,0,1-.052.012Z" fill="#f9cdd0"/>
    <path id="Trazado_7277" data-name="Trazado 7277" d="M329.284,1214.374a.126.126,0,0,1-.065-.016.128.128,0,0,1-.044-.175c.365-.609,2.417-3,6.9-5.888a.128.128,0,0,1,.138.216c-4.442,2.863-6.463,5.2-6.82,5.8a.125.125,0,0,1-.109.062Z" fill="#f9cdd0"/>
    <path id="Trazado_7278" data-name="Trazado 7278" d="M327.886,1217.171a.128.128,0,0,1-.126-.128c-.046-2.561,1.725-6.5,5.2-9.079a.127.127,0,1,1,.151.2c-3.4,2.523-5.137,6.377-5.093,8.871a.132.132,0,0,1-.125.133Z" fill="#f9cdd0"/>
    <path id="Trazado_7279" data-name="Trazado 7279" d="M325.727,1229.664a.129.129,0,0,1-.121-.091c-.751-2.291.923-14.449,2.356-18.8a.127.127,0,1,1,.241.079c-1.424,4.322-3.1,16.376-2.355,18.638a.129.129,0,0,1-.082.162.134.134,0,0,1-.039.008Z" fill="#f9cdd0"/>
    <path id="Trazado_7280" data-name="Trazado 7280" d="M330.01,1237.392a.127.127,0,0,1-.123-.095.13.13,0,0,1,.091-.158c.057-.012.25-.186.478-.63a6.539,6.539,0,0,0,.1-5.279.124.124,0,0,1,.074-.161.127.127,0,0,1,.164.074,6.8,6.8,0,0,1-.113,5.483c-.222.43-.46.712-.64.762-.01,0-.021,0-.032,0Z" fill="#f9cdd0"/>
    <path id="Trazado_7281" data-name="Trazado 7281" d="M351.263,1226.527a.125.125,0,0,1-.123-.095c-.022-.087-2.231-8.631-5.108-13.347a.127.127,0,0,1,.217-.132c2.9,4.748,5.115,13.33,5.137,13.417a.126.126,0,0,1-.092.153.082.082,0,0,1-.031,0Z" fill="#f9cdd0"/>
    <path id="Trazado_7282" data-name="Trazado 7282" d="M350.543,1230.17a.11.11,0,0,1-.04-.005c-.1-.037-.111-.082-.211-.824a37.375,37.375,0,0,0-2.154-8.756.128.128,0,0,1,.237-.095,37.561,37.561,0,0,1,2.168,8.818c.043.315.08.584.1.659a.126.126,0,0,1,.02.116.127.127,0,0,1-.121.087Z" fill="#f9cdd0"/>
    <path id="Trazado_7283" data-name="Trazado 7283" d="M341.054,1246.446c-.209,1.649-3.065,11.122-3.182,11.524a.138.138,0,0,1-.122.091c-.015,0-.025-.009-.04-.013a.122.122,0,0,1-.081-.157c.03-.1,2.967-9.854,3.176-11.474a46.234,46.234,0,0,0-.27-7.268.279.279,0,0,0,.066-.041c.056-.034.112-.075.173-.116a46.6,46.6,0,0,1,.28,7.454Z" fill="#fef6b8"/>
    <path id="Trazado_7284" data-name="Trazado 7284" d="M326.22,1282.9a.129.129,0,0,1-.127-.12c-.014-.266-.352-6.489-.365-7.1a40.9,40.9,0,0,0-1.01-6.716c-.118-.307-.364-.875-.677-1.6-1.014-2.333-2.712-6.236-2.761-7.719-.065-1.956,1.7-5.963,3.45-8.71a.129.129,0,0,1,.175-.038.125.125,0,0,1,.039.174c-1.726,2.715-3.474,6.659-3.41,8.565.048,1.438,1.733,5.313,2.74,7.629.314.721.562,1.293.682,1.608a40.277,40.277,0,0,1,1.026,6.8c.013.6.361,7.024.365,7.086a.13.13,0,0,1-.12.137Z" fill="#fef6b8"/>
    <path id="Trazado_7285" data-name="Trazado 7285" d="M351.263,1267.458a.126.126,0,0,1-.12-.087.127.127,0,0,1,.078-.161c6.227-2.18,7.251-8.9,6.4-11.851a.128.128,0,0,1,.087-.157.129.129,0,0,1,.157.086c.874,3.03-.174,9.929-6.559,12.162a.155.155,0,0,1-.042.008Z" fill="#fef6b8"/>
    <path id="Trazado_7286" data-name="Trazado 7286" d="M357.189,1270.889a.039.039,0,0,1-.021,0,.123.123,0,0,1-.1-.145l1.881-10.951a17.431,17.431,0,0,1-.757-3.813,34.534,34.534,0,0,1,1.849-13.906.126.126,0,0,1,.163-.074.122.122,0,0,1,.075.161,34.215,34.215,0,0,0-1.835,13.786,16.157,16.157,0,0,0,.752,3.775.14.14,0,0,1,.01.075l-1.887,10.989a.129.129,0,0,1-.126.107Z" fill="#fef6b8"/>
    <path id="Trazado_7287" data-name="Trazado 7287" d="M362.336,1263.733a.129.129,0,0,1-.1-.045l-3.259-3.833a.127.127,0,0,1,.193-.166l3.26,3.837a.126.126,0,0,1-.015.178.122.122,0,0,1-.082.029Z" fill="#5e1a47"/>
    <path id="Trazado_7288" data-name="Trazado 7288" d="M331.464,1285.686c-.092-.012-.183-.02-.269-.033.574,2.329,1.062,4.906.33,5.594a24.961,24.961,0,0,1-2.018,1.591c.1.025.209.058.321.087.711-.526,1.483-1.123,1.875-1.487.808-.775.371-3.265-.239-5.752Z" fill="#6b63a9"/>
    <path id="Trazado_7289" data-name="Trazado 7289" d="M349.454,1290.319a9.52,9.52,0,0,1-1.22-5.855l-.259.062a9.81,9.81,0,0,0,1.265,5.93,4.118,4.118,0,0,0,1.067,1.16c.1-.037.2-.07.3-.1a3.691,3.691,0,0,1-1.153-1.193Z" fill="#6b63a9"/>
    <path id="Trazado_7290" data-name="Trazado 7290" d="M340.083,1284.99a4.643,4.643,0,1,0,4.643,4.645,4.65,4.65,0,0,0-4.643-4.645Zm0,9.543a4.9,4.9,0,1,1,4.9-4.9,4.905,4.905,0,0,1-4.9,4.9Z" fill="#9f99cb"/>
    <path id="Trazado_7291" data-name="Trazado 7291" d="M336.18,1302.568c-.015.095-.03.19-.051.29a11.56,11.56,0,0,1-3.811.538,25.5,25.5,0,0,1-7.293-1.156c.015-.087.031-.165.051-.248,4.121,1.259,8.7,1.5,11.1.576Z" fill="#dddbef"/>
    <path id="Trazado_7292" data-name="Trazado 7292" d="M362.423,1301.055a23.835,23.835,0,0,1-5.987,1.488c-.691.05-1.5.1-2.317.1a7.814,7.814,0,0,1-3.563-.658c-.045-.125-.086-.245-.127-.365,1.525.982,4.152.795,5.992.663a23.313,23.313,0,0,0,5.92-1.463c.031.083.056.158.082.232Z" fill="#dddbef"/>
    <path id="Trazado_7293" data-name="Trazado 7293" d="M344.958,1348.355a.128.128,0,0,1-.126-.12l-2.1-30.555c-.012-.137-1.246-13.8-.926-18.63a.128.128,0,0,1,.136-.12.13.13,0,0,1,.118.136c-.319,4.819.913,18.456.925,18.593l2.1,30.559a.124.124,0,0,1-.118.133.009.009,0,0,1-.009,0Z" fill="#5e1a47"/>
    <path id="Trazado_7294" data-name="Trazado 7294" d="M320.99,1354.8h-.019a.129.129,0,0,1-.107-.145c1.6-10.948,8.356-32.967,10.078-38.263a.127.127,0,1,1,.241.079c-1.72,5.291-8.47,27.29-10.067,38.221a.129.129,0,0,1-.126.108Z" fill="#dddbef"/>
    <path id="Trazado_7295" data-name="Trazado 7295" d="M311.879,1409.942h-.007a.129.129,0,0,1-.12-.137c.251-5.03,2.609-21.708,4.5-35.109.988-6.99,1.842-13.023,2.231-16.226a.128.128,0,0,1,.141-.108.125.125,0,0,1,.111.141c-.389,3.2-1.243,9.24-2.231,16.231-1.894,13.392-4.251,30.066-4.5,35.084a.128.128,0,0,1-.126.124Z" fill="#dddbef"/>
    <path id="Trazado_7296" data-name="Trazado 7296" d="M351.566,1365.957h-.019a.128.128,0,0,1-.107-.145c1.356-9.058,5.653-39.393,4.017-49.359a.129.129,0,0,1,.105-.145.132.132,0,0,1,.146.108c.532,3.24,1.2,14.544-4.017,49.434a.126.126,0,0,1-.125.107Z" fill="#dddbef"/>
    <path id="Trazado_7297" data-name="Trazado 7297" d="M352.635,1413.05c-.086,0-.173-.008-.259-.017-.2-4.392-1.362-31.3.03-39.066a.138.138,0,0,1,.148-.108.136.136,0,0,1,.106.149c-1.387,7.766-.223,34.728-.025,39.042Z" fill="#dddbef"/>
    <path id="Trazado_7298" data-name="Trazado 7298" d="M407.666,1309.989c-1.936,6.452-5.1,24.742-6.794,34.57-.666,3.833-1.1,6.365-1.21,6.722-.193.633-.391,6.555-.6,12.82-.2,6.157-.417,12.518-.666,15.485-.193,2.3-.752,7.193-1.4,12.858-.915,8.005-1.937,16.918-2.216,21.095-.087,0-.173-.012-.254-.012.279-4.19,1.3-13.1,2.215-21.112.646-5.665,1.205-10.55,1.4-12.85.249-2.963.462-9.319.665-15.468.219-6.555.412-12.22.61-12.887.1-.34.564-3.008,1.2-6.7,1.7-9.829,4.868-28.136,6.8-34.6a.133.133,0,0,1,.158-.088.13.13,0,0,1,.086.158Z" fill="#fef6b8"/>
    <path id="Trazado_7299" data-name="Trazado 7299" d="M453.189,1411.434c-.081.017-.162.025-.249.041-.65-4.326-2.546-17.138-2.962-21.725-.5-5.515-6.1-47.378-8.767-60.576a.13.13,0,1,1,.255-.05c2.668,13.2,8.262,55.086,8.766,60.6.416,4.579,2.307,17.371,2.957,21.7Z" fill="#fef6b8"/>
    <path id="Trazado_7300" data-name="Trazado 7300" d="M422.917,1303.135a.135.135,0,0,1-.061.112.1.1,0,0,1-.066.021.2.2,0,0,1-.066-.021,12.175,12.175,0,0,1-2.328-1.728c-.31-.489-.991-11.142-1.041-15.584.081,0,.162,0,.249,0,.04,4.513.746,14.955,1.006,15.448a10.278,10.278,0,0,0,2.048,1.52l-.427-17.092c.081,0,.168-.013.254-.025l.432,17.345Z" fill="#fef6b8"/>
    <path id="Trazado_7301" data-name="Trazado 7301" d="M432.623,1284.037a28.157,28.157,0,0,1-6.276,6.1.832.832,0,0,1,.218-.377,4.969,4.969,0,0,1-.813.439,27.011,27.011,0,0,0,6.668-6.319.125.125,0,0,1,.178-.025.128.128,0,0,1,.025.178Z" fill="#eb5b52"/>
    <path id="Trazado_7302" data-name="Trazado 7302" d="M433.63,1286.4a16.665,16.665,0,0,1-5.931,4.421,4.087,4.087,0,0,1,1.072-.687c-.173.058-.35.116-.528.165a16.263,16.263,0,0,0,5.178-4.048.126.126,0,0,1,.178-.025.124.124,0,0,1,.031.174Z" fill="#eb5b52"/>
    <path id="Trazado_7303" data-name="Trazado 7303" d="M433.63,1288.5a9.742,9.742,0,0,1-3.675,2.859,2.141,2.141,0,0,1,.59-.365,7.575,7.575,0,0,1-.9.228,9.557,9.557,0,0,0,3.776-2.871.128.128,0,1,1,.209.149Z" fill="#eb5b52"/>
    <path id="Trazado_7304" data-name="Trazado 7304" d="M415.152,1289.312c.142.2.61.85,1.016,1.542a52.365,52.365,0,0,0-5.026-5.623.129.129,0,0,1-.005-.183.13.13,0,0,1,.178,0,53.714,53.714,0,0,1,5.326,6c-.63-.658-1.3-1.5-1.489-1.74Z" fill="#eb5b52"/>
    <path id="Trazado_7305" data-name="Trazado 7305" d="M414.263,1291.595a.3.3,0,0,1-.016.174c-.147-.178-.315-.368-.5-.576a.07.07,0,0,0-.02-.016c-.132-.154-.285-.315-.447-.481a29.542,29.542,0,0,0-3.4-2.988.128.128,0,0,1-.025-.178.125.125,0,0,1,.177-.025,25.242,25.242,0,0,1,4.666,4.413c-.148-.1-.3-.215-.437-.323Z" fill="#eb5b52"/>
    <path id="Trazado_7306" data-name="Trazado 7306" d="M412.26,1292.039c-.655-.464-1.839-1.314-3.521-2.565a.128.128,0,0,1-.026-.178.133.133,0,0,1,.178-.025c1.443,1.077,2.521,1.852,3.212,2.345-.28-.1-.488-.178-.544-.2.1.058.63.385.7.626Z" fill="#eb5b52"/>
    <path id="Trazado_7307" data-name="Trazado 7307" d="M420.259,1282.906c-.086.008-.173.012-.254.025-.03-3.539-.127-15.149-.081-18.758.02-1.534.01-4.824,0-8.623-.016-5.76-.041-12.717.04-16.069l.265-.249c-.092,3.24-.072,10.413-.051,16.313.01,3.8.02,7.094,0,8.632-.046,3.592.051,15.161.081,18.729Z" fill="#9f99cb"/>
    <path id="Trazado_7308" data-name="Trazado 7308" d="M421.9,1279.21c1.347,0,.825-2.6,0-2.478s-.89,2.478,0,2.478Z" fill="#9f99cb"/>
    <path id="Trazado_7309" data-name="Trazado 7309" d="M422.377,1261.487c1.111-.128,1.049-1.906,0-2.1s-1.11,2.225,0,2.1Z" fill="#9f99cb"/>
    <path id="Trazado_7310" data-name="Trazado 7310" d="M421.567,1246.558c1.1,0,1.477-2.221.334-2.287s-1.429,2.287-.334,2.287Z" fill="#9f99cb"/>
    <path id="Trazado_7311" data-name="Trazado 7311" d="M414.125,1259.561c-.015.182-.025.36-.035.53l-10.515-22.5a.14.14,0,0,1,.051-.17l5.016-2.921c-.681-1.144-2.068-3.448-2.846-4.691a2.6,2.6,0,0,0,.284-.025c.992,1.587,2.745,4.534,2.841,4.7a.113.113,0,0,1,.016.1.125.125,0,0,1-.056.074l-5.026,2.934,10.27,21.97Z" fill="#5e1a47"/>
    <path id="Trazado_7312" data-name="Trazado 7312" d="M442.1,1238.411a.116.116,0,0,1-.031.1,103.454,103.454,0,0,0-6.789,8.818c-2.109,3.248-6.454,11.415-7.628,13.649-.01-.174-.015-.352-.02-.526,1.428-2.686,5.432-10.177,7.439-13.264a101.106,101.106,0,0,1,6.714-8.735l-7.257-5.068a.106.106,0,0,1-.051-.095.12.12,0,0,1,.041-.1l3.338-2.908c.1.029.188.062.285.091l-3.334,2.9,7.237,5.051a.154.154,0,0,1,.056.091Z" fill="#5e1a47"/>
    <path id="Trazado_7313" data-name="Trazado 7313" d="M440.005,1260.563a.181.181,0,0,1-.046-.008.128.128,0,0,1-.073-.166c1.234-3.2,3.733-12.849,3.914-19.106a.127.127,0,0,1,.127-.124h0a.129.129,0,0,1,.123.132c-.182,6.282-2.692,15.974-3.931,19.19a.128.128,0,0,1-.118.082Z" fill="#5e1a47"/>
    <path id="Trazado_7314" data-name="Trazado 7314" d="M400.133,1266.717a.127.127,0,0,1-.074-.025c-.02-.013-2.1-1.475-7.338-2.391a.127.127,0,0,1-.1-.145.123.123,0,0,1,.147-.1c4.656.813,6.807,2.027,7.321,2.354.384-.733,2.337-4.479,2.876-5.436l.274-.494a37.182,37.182,0,0,1,3.258-5.167.127.127,0,0,1,.2.162,36.876,36.876,0,0,0-3.231,5.13l-.275.493c-.592,1.056-2.914,5.511-2.937,5.556a.137.137,0,0,1-.083.063.077.077,0,0,1-.03,0Z" fill="#5e1a47"/>
    <path id="Trazado_7315" data-name="Trazado 7315" d="M410.109,1277.623a.119.119,0,0,1-.092-.042c-.051-.053-5.06-5.415-6.588-7.007s-3.376-3.882-3.394-3.9a.127.127,0,0,1,.2-.161c.019.024,1.856,2.3,3.381,3.886s6.539,6.957,6.589,7.011a.13.13,0,0,1-.006.183.138.138,0,0,1-.087.033Z" fill="#5e1a47"/>
    <path id="Trazado_7316" data-name="Trazado 7316" d="M445.846,1266.3a.015.015,0,0,1-.012,0,.124.124,0,0,1-.112-.1c-.438-2.13-4.456-9.9-4.5-9.974a.127.127,0,0,1,.226-.116c.158.307,3.7,7.144,4.429,9.68.469-.974,2.01-3.73,4.646-4.223a.121.121,0,0,1,.148.1.127.127,0,0,1-.1.149c-3.01.563-4.593,4.367-4.609,4.409a.132.132,0,0,1-.118.078Z" fill="#5e1a47"/>
    <path id="Trazado_7317" data-name="Trazado 7317" d="M433.525,1277.3a.116.116,0,0,1-.1-.046.125.125,0,0,1,.014-.178c.078-.066,7.819-6.675,8.446-7.239.588-.53,3.441-2.992,3.832-3.331l0-.336a.132.132,0,0,1,.065-.112,10.657,10.657,0,0,1,7.213-.887.13.13,0,0,1,.089.158.126.126,0,0,1-.156.087,10.343,10.343,0,0,0-6.956.829l0,.319a.134.134,0,0,1-.044.1c-.033.025-3.246,2.8-3.873,3.365s-8.373,7.176-8.451,7.243a.122.122,0,0,1-.083.029Z" fill="#5e1a47"/>
    <path id="Trazado_7318" data-name="Trazado 7318" d="M403.288,1289.5a.123.123,0,0,1-.094-.046c-.053-.058-5.357-5.979-6.8-7.744a.126.126,0,0,1,.018-.179.13.13,0,0,1,.178.021c1.286,1.566,5.64,6.444,6.6,7.521a5.463,5.463,0,0,1,.821-2.184.125.125,0,0,1,.176-.033.124.124,0,0,1,.035.174,5.269,5.269,0,0,0-.81,2.35.126.126,0,0,1-.085.111.121.121,0,0,1-.042.009Z" fill="#5e1a47"/>
    <path id="Trazado_7319" data-name="Trazado 7319" d="M441.028,1308.356a10.626,10.626,0,0,1-2.508-.364c-.2-.05-.385-.091-.548-.125-1.193-.232-1.384-.936-1.648-1.91-.081-.3-.174-.642-.306-1.011-.558-1.57-2.337-8.54-2.355-8.61a.125.125,0,0,1,.092-.154.123.123,0,0,1,.154.091c.018.071,1.794,7.028,2.349,8.586.135.381.229.725.311,1.032.267.982.414,1.525,1.452,1.728.166.033.353.079.558.124a7.172,7.172,0,0,0,7.218-1.608.127.127,0,0,1,.179.009.13.13,0,0,1-.011.182,7.236,7.236,0,0,1-4.937,2.03Z" fill="#5e1a47"/>
    <path id="Trazado_7320" data-name="Trazado 7320" d="M438.729,1288.55a.133.133,0,0,1-.127-.137,43.238,43.238,0,0,0,0-6.261.128.128,0,0,1,.107-.145.123.123,0,0,1,.144.108,39.858,39.858,0,0,1,.015,6.095,42.817,42.817,0,0,0,7.123-4.347.127.127,0,0,1,.179.017.125.125,0,0,1-.018.178,44.834,44.834,0,0,1-7.37,4.479.116.116,0,0,1-.054.013Z" fill="#5e1a47"/>
    <path id="Trazado_7321" data-name="Trazado 7321" d="M425.356,1220.809c-.01.568-.025,1.218-.041,1.906a8.921,8.921,0,0,1-4.375,3.261,14.5,14.5,0,0,1-3.344.638c-.2-.584-.422-1.181-.655-1.781a7.429,7.429,0,0,0,2.068.145,13.1,13.1,0,0,0,2.068-.336c1.591-.36,2.953-1.836,3.949-3.323.117-.17.228-.34.33-.51Z" fill="#5e1a47"/>
    <path id="Trazado_7322" data-name="Trazado 7322" d="M411.483,1212c.541,0,.413,2.225,0,2.225s-.35-2.225,0-2.225Z" fill="#5e1a47"/>
    <path id="Trazado_7323" data-name="Trazado 7323" d="M412.88,1218.087a.129.129,0,0,1-.077-.025.134.134,0,0,1-.047-.129l1.493-6.787a.125.125,0,0,1,.151-.095.128.128,0,0,1,.1.153l-1.434,6.514,2.109-1.127a.128.128,0,0,1,.172.054.126.126,0,0,1-.052.17l-2.352,1.255a.1.1,0,0,1-.06.017Z" fill="#ce6a15"/>
    <path id="Trazado_7324" data-name="Trazado 7324" d="M418.629,1211.494c.6.033.54,2.13,0,2.225s-.6-2.258,0-2.225Z" fill="#5e1a47"/>
    <path id="Trazado_7325" data-name="Trazado 7325" d="M415,1219.786l4.817-1.007s-.794,1.906-2.192,2.287-2.625-1.28-2.625-1.28Z" fill="#fff"/>
    <path id="Trazado_7326" data-name="Trazado 7326" d="M371.5,1258.823c-1.621,3.033-3.74,7.127-4.6,8.8-.4-.5-.824-.986-1.225-1.409l5.829-7.392Z" fill="#5e1a47"/>
    <path id="Trazado_7327" data-name="Trazado 7327" d="M325.681,1278.34a33.409,33.409,0,0,0-8.065-4.546c.051-.464.1-.874.163-1.21a20.164,20.164,0,0,1,3.628.908c1.652.7,4.446,2.1,4.446,2.1v.087a16.558,16.558,0,0,1-.172,2.661Z" fill="#5e1a47"/>
    <path id="Trazado_7328" data-name="Trazado 7328" d="M407.544,1230.489l6.72,1.96,5.67,7.061-5.211-9.021Z" fill="#5e1a47"/>
    <path id="Trazado_7329" data-name="Trazado 7329" d="M438.589,1230.518c-2.419.381-7.18,1.143-7.963,1.392a7.323,7.323,0,0,0-1.23.725c-2.769,1.836-8.969,6.506-9.437,6.854l10.133-9.7,7.415.382c.117.037.233.07.35.112.1.029.188.062.285.091.148.045.3.1.447.145Z" fill="#5e1a47"/>
    <path id="Trazado_7330" data-name="Trazado 7330" d="M441.225,1256.225c-.1,1.164-1.348,15.688-1.348,15.688l2.012-2.072.085-12.29-.749-1.326Z" fill="#5e1a47"/>
    <path id="Trazado_7331" data-name="Trazado 7331" d="M433.525,1277.3l1.141.191-1.141.526v-.717Z" fill="#5e1a47"/>
    <path id="Trazado_7332" data-name="Trazado 7332" d="M437.269,1287.671a14.934,14.934,0,0,0,1.388.854,30.5,30.5,0,0,0,.325-3.386s-.96,1.492-1.239,1.878-.474.654-.474.654Z" fill="#5e1a47"/>
    <path id="Trazado_7333" data-name="Trazado 7333" d="M405.306,1257.422c-.081.129-.418,14.321-.418,14.321l-1.711-1.807,1.437-11.374.692-1.14Z" fill="#5e1a47"/>
    <path id="Trazado_7334" data-name="Trazado 7334" d="M400.308,1286.2c-.341,1.2-3.065,12.456-4.381,17.9a3.081,3.081,0,0,1-.188-1.094l.183-1.413.005-.029c.615-3.261,3.3-16.513,3.3-16.513s-.132-.182-.391-.509l1.474,1.653Z" fill="#5e1a47"/>
    <path id="Trazado_7335" data-name="Trazado 7335" d="M403.288,1289.5c.445.124,1.307-.73,1.307-.73l-.9-1.168-.4,1.9Z" fill="#5e1a47"/>
    <path id="Trazado_7336" data-name="Trazado 7336" d="M445.4,1310.167c-1.209-.137-2.485-.278-3-.34-1.1-.124-4.238-.886-5-2.287a10.178,10.178,0,0,0,5.651.323,6.812,6.812,0,0,0,2.262-1.106c.015.974.045,2.13.086,3.41Z" fill="#5e1a47"/>
    <path id="Trazado_7337" data-name="Trazado 7337" d="M418.485,1412.764c.051-8.814.128-35.026-.569-43.222-.843-9.912-1.58-38.222-1.275-40.393.3-2.134,7.074-14.851,7.287-15.244-.183.451-6.093,15-5.966,16.632.127,1.65,1.779,35.7,3.3,44.337s4.447,37.14,4.447,37.14-2.7.356-7.227.75Z" fill="#5e1a47"/>
    <path id="Trazado_7338" data-name="Trazado 7338" d="M331.865,1352.047c.427,5.847-2.54,59.544-2.54,59.544s-2.155.423-5.362.825c.961-5.569,3.029-17.971,3.415-23.78.508-7.621,3.217-33.03,3.446-37.96s9.259-33.183,11.454-38.615l.412,5.088-10.825,34.9Z" fill="#5e1a47"/>
    <path id="Trazado_7339" data-name="Trazado 7339" d="M423.3,1214.755c-2.3-.592-3.377,3.514-1.562,4.488a2.422,2.422,0,1,0,1.562-4.488Z" fill="#f49f7f"/>
    <path id="Trazado_7340" data-name="Trazado 7340" d="M411.778,1220.793a17.987,17.987,0,0,1-2.135-5.035,3.655,3.655,0,0,1,2.561,2.329,2.432,2.432,0,0,1-.426,2.706Z" fill="#f49f7f"/>
    <path id="Trazado_7341" data-name="Trazado 7341" d="M343.037,1222.927a2.223,2.223,0,0,0-1.91,3.6c1.052,1.26,2.969.531,3.583-.77a2.044,2.044,0,0,0-1.673-2.83Z" fill="#f49f7f"/>
    <path id="Trazado_7342" data-name="Trazado 7342" d="M331.535,1229.664a1.7,1.7,0,0,1-.447-.054,18.192,18.192,0,0,1-1.753-3.82c1-1.633,3.22-.738,3.694.737.446,1.389-.295,3.1-1.494,3.137Z" fill="#f49f7f"/>
    <path id="Trazado_7343" data-name="Trazado 7343" d="M420.259,1201.752a.125.125,0,0,1-.025-.248,4.66,4.66,0,0,0,3.262-2.631.127.127,0,0,1,.162-.075.125.125,0,0,1,.077.162,4.823,4.823,0,0,1-3.451,2.792Z" fill="#ef7d80"/>
    <path id="Trazado_7344" data-name="Trazado 7344" d="M411.03,1201.417c-.011,0-.021,0-.032,0a.128.128,0,0,1-.091-.158c.558-2.2,3.958-1.885,4.1-1.873a.13.13,0,0,1,.114.141.125.125,0,0,1-.139.112c-.033,0-3.328-.3-3.832,1.687a.133.133,0,0,1-.123.095Z" fill="#ef7d80"/>
    <path id="Trazado_7345" data-name="Trazado 7345" d="M429.274,1199.043a.157.157,0,0,1-.074-.021,6.172,6.172,0,0,1-2.28-3.725.131.131,0,0,1,.106-.149.126.126,0,0,1,.145.107,6.03,6.03,0,0,0,2.178,3.56.125.125,0,0,1-.075.228Z" fill="#ef7d80"/>
    <path id="Trazado_7346" data-name="Trazado 7346" d="M429.969,1213.243a.127.127,0,0,1-.117-.079c-.04-.091-.967-2.308-.7-3.443a.133.133,0,0,1,.153-.1.13.13,0,0,1,.1.154c-.247,1.056.679,3.265.688,3.286a.131.131,0,0,1-.067.17.208.208,0,0,1-.05.008Z" fill="#ef7d80"/>
    <path id="Trazado_7347" data-name="Trazado 7347" d="M430.794,1217.474a.134.134,0,0,1-.109-.063.127.127,0,0,1,.042-.174,3.968,3.968,0,0,0,1.8-3.008.127.127,0,1,1,.254,0,4.148,4.148,0,0,1-1.924,3.224.135.135,0,0,1-.066.021Z" fill="#ef7d80"/>
    <path id="Trazado_7348" data-name="Trazado 7348" d="M407.544,1211.453a.119.119,0,0,1-.092-.042c-.073-.074-1.782-1.893-1.257-3.513a.129.129,0,0,1,.16-.083.13.13,0,0,1,.082.161c-.479,1.475,1.182,3.245,1.2,3.261a.124.124,0,0,1,0,.178.126.126,0,0,1-.088.038Z" fill="#ef7d80"/>
    <path id="Trazado_7349" data-name="Trazado 7349" d="M409.7,1219.471a.131.131,0,0,1-.1-.054,5.028,5.028,0,0,1-.885-2.714.13.13,0,0,1,.126-.129h0a.13.13,0,0,1,.127.129,4.873,4.873,0,0,0,.833,2.561.127.127,0,0,1-.024.178.116.116,0,0,1-.077.029Z" fill="#ef7d80"/>
    <path id="Trazado_7350" data-name="Trazado 7350" d="M415.242,1205.254a5.191,5.191,0,0,1-2.284-.609.127.127,0,0,1-.058-.17.13.13,0,0,1,.17-.058c2.589,1.276,3.765.041,3.777.029a.131.131,0,0,1,.18-.008.126.126,0,0,1,.007.178,2.447,2.447,0,0,1-1.792.638Z" fill="#ef7d80"/>
    <path id="Trazado_7351" data-name="Trazado 7351" d="M427.582,1206.157a.128.128,0,0,1-.077-.025,2.95,2.95,0,0,1-.58-3.534.129.129,0,0,1,.165-.071.125.125,0,0,1,.071.162,2.7,2.7,0,0,0,.5,3.24.128.128,0,0,1,.024.178.124.124,0,0,1-.1.05Z" fill="#ef7d80"/>
  </g>
</svg>
