<svg xmlns="http://www.w3.org/2000/svg" width="156.07" height="228.854" viewBox="0 0 156.07 228.854">
  <g id="Grupo_10758" data-name="Grupo 10758" transform="translate(-416.035 -908.873)">
    <path id="Trazado_6672" data-name="Trazado 6672" d="M470.037,929.629a27.324,27.324,0,0,1-.59,5.606,26.344,26.344,0,0,1-1.438,4.7,15,15,0,0,1-.767,1.575,8.7,8.7,0,0,1-7.023,3.679,5.675,5.675,0,0,1-2.506-.757,16.785,16.785,0,0,1-5.991-6.266c-.025-.051-.041-.087-.041-.087a2.214,2.214,0,0,1-2.231-.121c-1.951-1.022-3.9-3.9-3.491-5.535.574-2.286,1.972-1.778,2.988,0a42.367,42.367,0,0,1,.824-4.507c.508-1.967,1.4-5.524,3.5-7.811s5.275-2.1,9.208-.381,5.148.823,5.148.823c.041.031.086.076.132.117.9.849,2.282,3.578,2.282,8.964Z" fill="#f8be90"/>
    <path id="Trazado_6673" data-name="Trazado 6673" d="M479.978,1062.4c0-.7-.667-20.018-1.556-30.94s-3.677-29.383-3.677-29.383l-.289.008c0,.042.005.083.009.125a52.945,52.945,0,0,1-6.037,2.4,33.121,33.121,0,0,1-11.011,1.185c-4.065-.253-5.42-.593-10.248-1.185s-10.1-1.227-10.1-1.227c-1.206,2.084-4.128,21.978-5.018,33.92s-.635,27.315-.635,27.315a141.555,141.555,0,0,0-5.844,21.473c-1.779,10.417-2.16,30.617-2.541,33.667a19.716,19.716,0,0,0,4.065,1.649c1.019.116,8.888-.58,10.6-.733.209-.017.331-.029.331-.029s5.463-30.746,7.115-41.164,10.187-38.875,10.187-38.875,4.55,18.17,6.583,24.775,3.684,10.8,3.684,10.8-1.27,14.358,0,19.566,8.513,22.869,8.513,22.869,2.8,1.4,7.876.887,6.226-2.031,6.226-2.031-8.227-54.364-8.227-55.069Z" fill="#9f99cb"/>
    <path id="Trazado_6674" data-name="Trazado 6674" d="M485.476,1005.6c-.509,1.973-2.48,6.162-5.148,5.147a5.177,5.177,0,0,1-1.469-.92,15.685,15.685,0,0,1-4.309-6.958c-.036-.207-.061-.43-.087-.667a25.051,25.051,0,0,1,.066-3.961v-.006a.931.931,0,0,0,.01-.106c.006-.056.011-.087.011-.087l-.026.021a10.209,10.209,0,0,1-3.217,1.377c-.35.1-.843.224-1.448.361-.092.025-.188.045-.285.066a63.654,63.654,0,0,1-16.815,1.478,68.065,68.065,0,0,1-10.784-1.59c-1.936-.447-3.425-.885-4.233-1.164a3.269,3.269,0,0,1-.676-.295c-.3-.3-1.8-13.67-2.007-15.484-.016-.132-.026-.2-.026-.2l-5.081,14.351a69.642,69.642,0,0,1,4.893,6.738,39.475,39.475,0,0,1,3.939,9.27l-2.165,6.447-.885,2.64a16.708,16.708,0,0,1-3.557-2.035,63.345,63.345,0,0,1-9.97-9.207,22.786,22.786,0,0,1-5.743-10.606,18.511,18.511,0,0,1-.356-2.419c-.386-4.639.824-8.319,1.9-12.638s6.1-22.106,9.086-27.255,8.07-5.716,10.291-6.352c.935-.269,2.877-.869,4.914-1.514,2.821-.889,5.834-1.86,6.647-2.14l13.879,1.4s2,1.133,4.248,2.393c1.494.844,3.1,1.744,4.294,2.4.478.265.971.554,1.474.875a16.7,16.7,0,0,1,7.135,8.908c1.936,5.529,4.8,21.791,5.5,27.823s.508,11.942,0,13.91Z" fill="#fef6b8"/>
    <path id="Trazado_6675" data-name="Trazado 6675" d="M467.518,917.277c-.014.135-.022.222-.022.222a.763.763,0,0,0,.022-.222Z" fill="#f8be90"/>
    <path id="Trazado_6676" data-name="Trazado 6676" d="M445.962,932.427c.571-2.287,1.969-1.779,2.985,0a43.054,43.054,0,0,1,.826-4.51c.508-1.969,1.4-5.527,3.494-7.813s5.272-2.1,9.211-.377,5.145.821,5.145.821c.042.033.086.075.13.117a4.689,4.689,0,0,0,.188-5.262c-.2-.051-.367,1.325-.423,1.874a.763.763,0,0,1-.022.222s.008-.087.022-.222c-.02-1.292-1.845-6-5.167-6.892-3.558-.953-8.513.508-10.8,1.46s-4.066,2.986-5.645,5.527-3.947,7.242-3.884,8.893a19.648,19.648,0,0,0,2.668,7.623,10.019,10.019,0,0,0,4.762,4.071h0c-1.956-1.023-3.9-3.9-3.491-5.532Z" fill="#5e1a47"/>
    <path id="Trazado_6677" data-name="Trazado 6677" d="M458.984,937.7l7.178.762a3.6,3.6,0,0,1-3.049,2.6c-2.605.445-4.129-3.366-4.129-3.366Z" fill="#fff"/>
    <path id="Trazado_6678" data-name="Trazado 6678" d="M455.077,928.33a5.491,5.491,0,0,1,4.606-1.207c1.587.349,1.842,1.238,1.365,1.588s-1.4-.572-2.54-.6-3.431.223-3.431.223Z" fill="#5e1a47"/>
    <path id="Trazado_6679" data-name="Trazado 6679" d="M469.656,926.265c-1.144-.476-2.732.254-3.494.858s-.254,1.334.254,1.27a22.007,22.007,0,0,0,3.24-2.128Z" fill="#5e1a47"/>
    <path id="Trazado_6680" data-name="Trazado 6680" d="M460.064,929.537c.536-.07.6,2.509,0,2.572s-.731-2.477,0-2.572Z" fill="#5e1a47"/>
    <path id="Trazado_6681" data-name="Trazado 6681" d="M467.592,928.788c-.716.175-.551,2.513,0,2.5s.715-2.671,0-2.5Z" fill="#5e1a47"/>
    <path id="Trazado_6682" data-name="Trazado 6682" d="M456.507,948.5c-2.415-.127-4.51-2.414-4.51-2.414l-.636.731s-2.318,1.08-2.414,1.08.254,5.4.254,5.4l7.726-4.72c-.039-.04-.062-.064-.067-.071-.115,0-.231,0-.353-.005Z" fill="#fdc954"/>
    <path id="Trazado_6683" data-name="Trazado 6683" d="M460.381,947.609l-.427-.955-.081.447a3.56,3.56,0,0,1-2.825,1.395l0,0-.124.076c.589.608,4.725,4.72,4.725,4.72l1.175-4-2.446-1.683Z" fill="#fdc954"/>
    <path id="Trazado_6684" data-name="Trazado 6684" d="M460.219,945.19l-.265,1.464,0,.025-.077.422a3.57,3.57,0,0,1-2.825,1.4l-.112-.056-.081.056,0,.005c-.117,0-.229,0-.351-.005-2.419-.127-4.512-2.414-4.512-2.414s.111-2.236.045-4.512a20.546,20.546,0,0,0-.32-3.405,16.785,16.785,0,0,0,5.991,6.266,5.675,5.675,0,0,0,2.506.757Z" fill="#f8be90"/>
    <path id="Trazado_6685" data-name="Trazado 6685" d="M457.048,948.5c-.062,0-.124.006-.188.007.005.007.028.031.067.071l.124-.076,0,0Z" fill="#f8be90"/>
    <path id="Trazado_6686" data-name="Trazado 6686" d="M456.856,948.5l0,.005c.064,0,.126,0,.188-.007l-.113-.054-.079.056Z" fill="#f8be90"/>
    <path id="Trazado_6687" data-name="Trazado 6687" d="M453.2,950.849l3.3,4.669-4,31.941,6.183,11.434,6.056-11.138L458.222,955.4l2.16-3.371-3.525-3.532-3.652,2.351Z" fill="#eb5b52"/>
    <path id="Trazado_6688" data-name="Trazado 6688" d="M443.611,987.562l-4.446-.569s0-3.3-.381-12.257c-.036-.839-.077-1.7-.117-2.587-.006-.086-.01-.168-.01-.254-.407-8.517-1.042-18.584-1.271-20.348.935-.269,2.877-.869,4.914-1.514.092.92.519,5.188.742,9.518.107,2.038.224,7.237.32,12.613.005.087.005.173.005.254.138,7.45.244,15.144.244,15.144Z" fill="#dddbef"/>
    <path id="Trazado_6689" data-name="Trazado 6689" d="M439.165,986.993v1.08l.889,4.7,1.969.445,1.969-5.654-4.827-.571Z" fill="#eb5b52"/>
    <path id="Trazado_6690" data-name="Trazado 6690" d="M474.55,986.993a32,32,0,0,1-3.944,1.144c-.188-.128-.442-11.877-.569-15.5l-.015-.351c0-.086-.005-.172-.01-.259-.163-3.6-.707-8.7-1.246-12.73a52.794,52.794,0,0,0-1.692-7.613c1.494.844,3.1,1.744,4.294,2.4.478.265.971.554,1.474.875.813,3.2,1.326,10.239,1.708,15.962.025.371.045.752.066,1.143.005.081.01.168.01.254.31,6.551-.076,14.671-.076,14.671Z" fill="#dddbef"/>
    <path id="Trazado_6691" data-name="Trazado 6691" d="M470.037,988.146l4.51-1.152-.635,4.764-1.62.445-2.255-4.056Z" fill="#eb5b52"/>
    <path id="Trazado_6692" data-name="Trazado 6692" d="M486.878,987.41a6.744,6.744,0,0,1-.95.152s.1.026.239.082h.005c.528.183,1.722.686,1.524,1.382s-2.17,1.184-3.059,1.377c-.264.056-.432.086-.432.086s.142.056.351.153c.645.3,1.951.986,1.8,1.56-.153.625-2.5.91-3.329.991h-.005l-.284.025s-.132.036-.366.1a20.855,20.855,0,0,1-6.114.6c-3.115-.254-2.795-3.471-1.712-5.768.132-.28.279-.595.436-.935.092-.193.189-.391.29-.6,1.286-2.709,3.141-6.383,4.035-6.54s1.23,2.063.061,4.208a7.05,7.05,0,0,1-.884,1.244c.03-.009.152-.076.351-.172.96-.478,3.674-1.819,5.681-2.739,2.48-1.149,3.685-.066,3.751.63.051.559-2.064,1.321-2.933,1.611a.03.03,0,0,1-.02.005c-.158.056-.27.091-.32.112a10.622,10.622,0,0,1,1.58-.082h.005c1,.026,2.094.234,2.13,1.027.04.889-1.006,1.306-1.83,1.494Z" fill="#f8be90"/>
    <path id="Trazado_6693" data-name="Trazado 6693" d="M474.458,1002.086c0,.042.005.083.005.12-.162.079-.4.187-.681.319-.1.038-.193.083-.3.129-.056.029-.111.054-.168.079-.126.054-.263.116-.406.178-.1.037-.208.087-.315.137a.835.835,0,0,0-.127.049c-.889.382-1.951.808-2.983,1.169-.086.033-.173.062-.264.091-.269.091-.534.178-.793.257-.112.033-.224.062-.335.095s-.229.066-.351.1c-.147.042-.3.083-.462.125-.011,0-.021,0-.031,0-.132.033-.269.066-.412.1-.193.046-.391.091-.594.133-.265.058-.534.108-.808.157-.081.017-.163.025-.249.042-.244.041-.493.078-.742.116-.361.058-.737.1-1.118.149-.051.008-.1.012-.153.021-.02,0-.04,0-.061,0h0c-.147.02-.294.029-.442.045-.03,0-.056.005-.086.005-.163.02-.325.028-.493.045-.092.008-.178.017-.269.021-1.017.07-2.059.108-3.105.083a2.375,2.375,0,0,1-.255-.009c-.345-.008-.691-.025-1.036-.045-.127-.008-.249-.013-.371-.025s-.244-.017-.361-.025c-.234-.017-.457-.029-.676-.05-.112,0-.218-.016-.325-.025-.432-.037-.834-.074-1.22-.111l-.528-.063-.31-.037c-.087-.008-.168-.021-.254-.029s-.168-.021-.254-.029c-.178-.021-.361-.045-.539-.074s-.361-.046-.549-.071-.376-.05-.569-.074c-.153-.021-.31-.046-.473-.067-.1-.008-.193-.025-.29-.041s-.2-.025-.3-.042c-.2-.025-.411-.053-.629-.087-.326-.045-.666-.091-1.032-.136-.3-.034-.61-.075-.94-.116-.163-.025-.336-.046-.508-.067l-.122-.012c-.046-.008-.087-.013-.132-.017-.559-.07-1.129-.141-1.688-.207-.3-.041-.6-.079-.9-.112-.112-.016-.219-.029-.326-.041-.086-.013-.167-.021-.249-.033-.147-.013-.294-.033-.442-.05-.249-.029-.5-.062-.742-.091-.569-.067-1.118-.137-1.631-.2-.259-.029-.508-.066-.747-.091l-.117-.013c-.152-.02-.305-.037-.447-.058-.086-.008-.173-.02-.254-.029l-1-.124c-.016,0-.036,0-.051,0-.173-.021-.331-.042-.473-.054-.086-.012-.162-.021-.238-.033-.173-.021-.316-.033-.422-.046-.158-.021-.239-.029-.239-.029V998.3a13.188,13.188,0,0,0,2.556.864c.082.026.168.046.254.071,1.042.28,2.333.59,3.8.9.087.015.173.03.26.051,1.026.2,2.134.4,3.3.575.081.013.167.025.254.042,1.662.24,3.44.439,5.265.551l.62.037c.081,0,.167,0,.254.008a56.946,56.946,0,0,0,8.5-.311,2.317,2.317,0,0,0,.255-.029c1.154-.12,2.246-.273,3.247-.43.086-.017.173-.034.259-.046,1.84-.3,3.364-.621,4.422-.88.1-.02.193-.046.279-.071.28-.066.513-.127.711-.183a9.783,9.783,0,0,0,3.243-1.4,25.8,25.8,0,0,0-.092,4.04Z" fill="#6b63a9"/>
    <path id="Trazado_6694" data-name="Trazado 6694" d="M428.112,1129.16a8.205,8.205,0,0,1-2.346-.572h0a8.85,8.85,0,0,0,0,6.8c1.16,2.627,2.092,2.54,2.854,2.117.615-.344,4.478-6.8,5.951-9.282a21.612,21.612,0,0,1-6.459.941Z" fill="#5e1a47"/>
    <path id="Trazado_6695" data-name="Trazado 6695" d="M437.691,1120.678l-1.575,7.081s-.615.2-1.545.46c-.346.095-.732.195-1.149.294-.086.021-.173.042-.264.058-.63.15-1.321.29-2.017.4l-.255.038a13.283,13.283,0,0,1-2.774.149,6.5,6.5,0,0,1-.778-.108c-.086-.017-.172-.033-.254-.054a8.351,8.351,0,0,1-1.316-.41c-.122-.05-.244-.1-.361-.158-.081-.033-.157-.07-.234-.107a9.327,9.327,0,0,1-1.793-1.152c-.107-.083-.189-.154-.245-.2l-.1-.1v-7.114s.086.045.229.116l.233.116a26.531,26.531,0,0,0,2.536,1.123c.086.029.168.062.249.091a4.108,4.108,0,0,0,.818.2,4.973,4.973,0,0,0,.7,0c.082,0,.163,0,.255-.008,1-.037,2.576-.149,4.192-.27.087-.008.173-.016.264-.02.626-.05,1.255-.1,1.85-.154.087,0,.173-.008.259-.02,1.372-.112,2.536-.212,3.08-.261Z" fill="#6b63a9"/>
    <path id="Trazado_6696" data-name="Trazado 6696" d="M487.968,1124.03a4.273,4.273,0,0,1-2.177,1.442c-2.414.891-8.385,1.019-8.385,1.019s1.609,1.575,7.622,2.694,10.653,1.371,10.653.779c0-.481-5.652-4.422-7.713-5.934Z" fill="#5e1a47"/>
    <path id="Trazado_6697" data-name="Trazado 6697" d="M488.2,1117.47v5.972a1.222,1.222,0,0,1-.239.588,2.845,2.845,0,0,1-.58.6,2.229,2.229,0,0,1-.228.166,6.465,6.465,0,0,1-1.271.642c-.03.008-.066.025-.1.033-.051.021-.1.037-.153.054a11.951,11.951,0,0,1-1.748.414c-.081.017-.168.025-.254.042-1.342.215-2.871.339-4.081.418-.091,0-.178.008-.264.008-.31.021-.59.038-.838.046-.092,0-.179,0-.26.012-.488.017-.787.025-.787.025l-3.3-7.873a8.617,8.617,0,0,0,1.468.5c.092.024.193.049.3.078.376.083.808.166,1.3.236.086.017.183.025.274.038a19.861,19.861,0,0,0,4.538.033,2.509,2.509,0,0,0,.254-.029,20.3,20.3,0,0,0,2.343-.377c.087-.021.168-.033.249-.054.508-.124.945-.257,1.316-.385.087-.034.168-.063.244-.1a4.3,4.3,0,0,0,1.82-1.09Z" fill="#6b63a9"/>
    <path id="Trazado_6698" data-name="Trazado 6698" d="M449.371,935.54a.128.128,0,0,1-.106-.057,7.329,7.329,0,0,0-1.954-1.827.127.127,0,0,1,.138-.214,7.434,7.434,0,0,1,2.027,1.9.126.126,0,0,1-.035.176.129.129,0,0,1-.07.022Z" fill="#ce6a15"/>
    <path id="Trazado_6699" data-name="Trazado 6699" d="M443.367,972.418a9.521,9.521,0,0,1-1.036.051,25.9,25.9,0,0,1-3.664-.32c-.006-.086-.01-.168-.01-.254a21.994,21.994,0,0,0,4.7.269c.005.087.005.173.005.254Z" fill="#5e1a47"/>
    <path id="Trazado_6700" data-name="Trazado 6700" d="M474.626,972.322c-.392.025-.869.031-1.372.031-1.154,0-2.455-.041-3.232-.067,0-.086-.005-.172-.01-.259,1.1.041,3.333.112,4.6.041.005.081.01.168.01.254Z" fill="#5e1a47"/>
    <path id="Trazado_6701" data-name="Trazado 6701" d="M444.078,1000.333a.128.128,0,0,1-.122-.091l-2.033-6.916-1.779-.4-1.659,5.906a.127.127,0,1,1-.244-.068l1.691-6.024a.127.127,0,0,1,.15-.089l1.969.444a.127.127,0,0,1,.094.089l2.054,6.988a.127.127,0,0,1-.086.158.1.1,0,0,1-.035,0Z" fill="#5e1a47"/>
    <path id="Trazado_6702" data-name="Trazado 6702" d="M483.24,993.295c-.1.127-2.3,3.161-5.067,3.323a5.577,5.577,0,0,1-4.355-1.6.123.123,0,0,1-.031-.087v-3.008l-1.4.386-2.531,7.5c-.092.025-.188.045-.285.066l2.6-7.71a.128.128,0,0,1,.087-.081l1.621-.447a.128.128,0,0,1,.112.025.127.127,0,0,1,.05.1v3.125a5.457,5.457,0,0,0,4.122,1.479c2.637-.152,4.848-3.191,4.868-3.222a.13.13,0,0,1,.209.153Z" fill="#5e1a47"/>
    <path id="Trazado_6703" data-name="Trazado 6703" d="M478.142,988.223a.649.649,0,0,0-.152.554c.127.554.94,1.006,1.087,1.088a26.244,26.244,0,0,1,5.56.538c-.264.056-.432.086-.432.086s.142.056.351.153a26.537,26.537,0,0,0-5.488-.523h-.026c-.828.065-1.413.269-1.515.711a.514.514,0,0,0,.107.417c.61.858,3.334,1.545,5.392,1.946l-.284.025s-.132.036-.366.1c-1.957-.407-4.34-1.057-4.95-1.921a.754.754,0,0,1-.142-.615c.106-.493.62-.757,1.377-.869a2.022,2.022,0,0,1-.915-1.077.885.885,0,0,1,.193-.768.708.708,0,0,1,.239-.172.273.273,0,0,1-.01-.132c.046-.422.706-1.119,2.048-1.647a35.787,35.787,0,0,1,5.1-1.255c-.158.056-.27.091-.32.112a10.622,10.622,0,0,1,1.58-.082,44.968,44.968,0,0,0-6.266,1.459c-1.5.589-1.9,1.281-1.9,1.448a.018.018,0,0,0,.015-.005c.01,0,.015-.005.031-.015s.02,0,.03,0c1.682-.519,6.393-.432,8.385-.366a6.744,6.744,0,0,1-.95.152s.1.026.239.082a35.847,35.847,0,0,0-7.577.351c-.006,0-.006,0-.006,0a.407.407,0,0,1-.162.051.7.7,0,0,0-.28.173Z" fill="#ce6a15"/>
    <path id="Trazado_6704" data-name="Trazado 6704" d="M479.413,984.457l-.132.209c-.148.234-.3.462-.442.686-1.159,1.784-2.251,3.252-3.1,3.252a.716.716,0,0,1-.208-.03c-.412-.122-.545-.686-.54-1.362.092-.193.189-.391.29-.6-.086.874-.03,1.611.325,1.723.88.264,2.562-2.383,3.467-3.806l.131-.209a.125.125,0,0,1,.173-.04.131.131,0,0,1,.041.177Z" fill="#ce6a15"/>
    <path id="Trazado_6705" data-name="Trazado 6705" d="M457.84,1002.745c-.889.128-1.079,1.653,0,1.716s.89-1.84,0-1.716Z" fill="#5e1a47"/>
    <path id="Trazado_6706" data-name="Trazado 6706" d="M440.368,1107.472a.045.045,0,0,1-.022,0,.126.126,0,0,1-.1-.145c.03-.174,3-17.259,3.421-19.745.438-2.565,3.063-16.255,3.605-18.468.536-2.184,5.887-21.572,6.892-25.024,1.1-3.766,5.418-19.587,5.5-22.624a.124.124,0,0,1,.13-.124.131.131,0,0,1,.124.132c-.09,3.319-4.838,20.379-5.511,22.687-1.005,3.451-6.354,22.831-6.889,25.015-.541,2.209-3.164,15.887-3.6,18.452-.424,2.482-3.392,19.57-3.422,19.74a.128.128,0,0,1-.125.108Z" fill="#5e1a47"/>
    <path id="Trazado_6707" data-name="Trazado 6707" d="M433.214,1001.394a.123.123,0,0,1-.1-.058c-.991-1.452-3.234-4.265-3.257-4.293a.129.129,0,0,1-.021-.121l.5-1.4c.885-2.245,4.549-12.844,4.586-12.951a55.244,55.244,0,0,1,2.035-8.324.127.127,0,1,1,.24.084,55.346,55.346,0,0,0-2.029,8.3c-.042.129-3.708,10.733-4.594,12.979l-.471,1.329c.321.4,2.306,2.907,3.225,4.255a.131.131,0,0,1-.034.179.149.149,0,0,1-.071.02Z" fill="#5e1a47"/>
    <path id="Trazado_6708" data-name="Trazado 6708" d="M437.068,998.429a.127.127,0,0,1-.126-.111l-2.035-15.689a.127.127,0,0,1,.252-.033l2.036,15.69a.128.128,0,0,1-.11.142Z" fill="#5e1a47"/>
    <path id="Trazado_6709" data-name="Trazado 6709" d="M471.361,1111.91a.131.131,0,0,1-.119-.083c-.021-.054-2.189-5.648-4.893-13.115-2.648-7.309-.988-21.688-.889-22.512-1.528-3.357-6.386-20.528-6.435-20.7a.127.127,0,0,1,.245-.07c.049.174,4.933,17.44,6.436,20.7a.14.14,0,0,1,.01.071c-.018.149-1.821,14.995.872,22.433,2.7,7.459,4.869,13.053,4.891,13.107a.127.127,0,0,1-.072.165.156.156,0,0,1-.046.009Z" fill="#5e1a47"/>
    <path id="Trazado_6710" data-name="Trazado 6710" d="M474.549,998.173a.126.126,0,0,1-.124-.1l-.638-3.113a.127.127,0,0,1,.249-.051l.638,3.112a.128.128,0,0,1-.1.151.117.117,0,0,1-.026,0Z" fill="#5e1a47"/>
    <path id="Trazado_6711" data-name="Trazado 6711" d="M460.219,945.19l-.265,1.464,0,.025c-2.506-.173-6.089-3.72-7.943-6.352a7.849,7.849,0,0,0-.285-2.16,16.785,16.785,0,0,0,5.991,6.266,5.675,5.675,0,0,0,2.506.757Z" fill="#5e1a47"/>
    <path id="Trazado_6712" data-name="Trazado 6712" d="M479.555,1126.4c-.091,0-.178.008-.264.008-.5-1.636-1.28-4.193-2.124-6.978-1.54-5.092-3.3-10.947-3.949-13.359a42.133,42.133,0,0,1-1.184-8.038c-.127-1.625-.249-3.154-.513-4.683-.295-1.715-.92-5.685-1.708-10.711-1.006-6.4-2.256-14.379-3.333-20.872-1.53-9.248-3.761-32.125-4.833-43.119-.249-2.564-.427-4.417-.5-5.088a27.455,27.455,0,0,1,.671-7.794c.005-.025.01-.042.01-.042a18.2,18.2,0,0,0,.309-4.641,2.317,2.317,0,0,0,.255-.029,19.6,19.6,0,0,1-.3,4.691c-.005.025-.01.042-.01.042a27.086,27.086,0,0,0-.676,7.744c.076.675.254,2.523.5,5.093,1.072,10.989,3.3,33.866,4.833,43.1,1.072,6.5,2.327,14.47,3.328,20.876.793,5.022,1.413,8.991,1.708,10.707.264,1.541.386,3.074.518,4.707a41.914,41.914,0,0,0,1.174,7.985c.656,2.432,2.434,8.353,3.979,13.467.844,2.78,1.621,5.32,2.114,6.932Z" fill="#dddbef"/>
    <path id="Trazado_6713" data-name="Trazado 6713" d="M483.89,1125.94c-.081.017-.168.025-.254.042-.437-1.546-1.011-3.775-1.657-6.481-.666-2.772-1.4-6.042-2.124-9.559-1.931-9.328-5.346-32-7.389-45.543l-.4-2.632c-1.642-10.9-3.629-28.056-4.691-37.272-.168-1.45-.315-2.7-.432-3.692-.721-6.162-1.539-13.467-1.763-15.443-.036-.319-.056-.5-.056-.514l.508-4.222c.086-.017.173-.034.259-.046l-.513,4.268s.02.174.051.472c.218,1.911,1.042,9.261,1.768,15.456.117.99.259,2.238.427,3.692,1.067,9.216,3.049,26.366,4.7,37.264l.4,2.635c2.038,13.538,5.453,36.2,7.384,45.527.732,3.547,1.469,6.82,2.129,9.58.651,2.722,1.23,4.956,1.657,6.468Z" fill="#dddbef"/>
    <path id="Trazado_6714" data-name="Trazado 6714" d="M487.386,1124.631a2.229,2.229,0,0,1-.228.166c-.193-1.157-.549-3.32-1.017-6.141-2.266-13.786-7.109-43.492-7.978-51.411-1.007-9.166-4.406-39.568-6-45.928-1.5-6.025-2.876-16.359-2.947-16.96a.063.063,0,0,1-.006-.025.169.169,0,0,1,0-.045l1.1-4.589c.1-.02.193-.046.279-.071l-1.113,4.639-.015.058c.071.563,1.443,10.91,2.947,16.931,1.591,6.377,4.995,36.791,6,45.965.864,7.9,5.7,37.55,7.968,51.34.458,2.756.808,4.882,1,6.071Z" fill="#dddbef"/>
    <path id="Trazado_6715" data-name="Trazado 6715" d="M485.887,1125.439c-.03.008-.066.025-.1.033-.051.021-.1.037-.153.054-.2-1.227-.579-3.514-1.062-6.431-1.865-11.317-5.265-32.147-5.9-37.335-.086-.7-.2-1.669-.341-2.842-1.321-10.956-4.827-40.065-6.809-47.138a.127.127,0,1,1,.244-.067c1.992,7.094,5.5,36.212,6.814,47.176.143,1.173.26,2.138.346,2.838.635,5.184,4.03,25.989,5.9,37.314.478,2.892.854,5.163,1.062,6.4Z" fill="#dddbef"/>
    <path id="Trazado_6716" data-name="Trazado 6716" d="M458.71,1005.857c-.112,1.148-3.319,14.076-4.686,19.6-1.687,6.821-11.251,47.868-12.151,51.771-.462,1.981-1.092,6.85-1.758,12.009-.895,6.9-1.819,14.026-2.566,16.334-.737,2.271-1.987,9.5-2.938,15.369-.549,3.373-.99,6.294-1.189,7.574-.086.021-.173.042-.264.058.183-1.218.64-4.176,1.194-7.612.956-5.892,2.216-13.181,2.958-15.472s1.7-9.721,2.551-16.289c.671-5.159,1.3-10.036,1.763-12.033.9-3.9,10.464-44.95,12.156-51.767,1.367-5.519,4.569-18.439,4.675-19.566a.128.128,0,0,1,.255.025Z" fill="#dddbef"/>
    <path id="Trazado_6717" data-name="Trazado 6717" d="M453.633,1005.434a.13.13,0,0,0-.005.025c-.2.85-5,20.905-7.1,28.384-1.321,4.707-3.1,15.452-4.665,24.941-1,6.012-1.855,11.213-2.449,13.952-1.556,7.226-4.747,31.226-5.458,38.013-.33,3.137-.9,6.995-1.454,10.364-.665,4.09-1.285,7.446-1.361,7.86-.006.025-.011.038-.011.042a.125.125,0,0,1-.122.1h-.025a.127.127,0,0,1-.1-.107.122.122,0,0,1,0-.042c.01-.062.661-3.534,1.357-7.836.549-3.381,1.133-7.267,1.464-10.412.716-6.788,3.908-30.8,5.468-38.039.59-2.739,1.448-7.927,2.439-13.94,1.57-9.493,3.349-20.25,4.675-24.965,2.1-7.479,6.9-27.522,7.09-28.347a.074.074,0,0,0,.005-.025c.01-.381.005-2.469,0-4.019.081,0,.167,0,.254.008.005,1.554.01,3.647,0,4.04Z" fill="#dddbef"/>
    <path id="Trazado_6718" data-name="Trazado 6718" d="M447.494,1000.8c-.107,2.225-.2,3.8-.2,3.82a.011.011,0,0,1-.005.008c-.082.473-2.684,14.926-3.553,20.822-.574,3.87-2.419,13.79-4.045,22.546-.9,4.84-1.753,9.414-2.266,12.327-1.2,6.808-2.49,14.98-3.522,21.551l-.584,3.73c-.458,2.875-1.1,6.6-1.774,10.533-1,5.809-2.038,11.809-2.419,14.871-.289,2.3-.706,6.5-1.082,10.4-.3,3.128-.569,6.058-.712,7.649-.086-.017-.172-.033-.254-.054.147-1.583.417-4.483.711-7.587.377-3.907.794-8.13,1.083-10.438.386-3.062,1.418-9.07,2.419-14.884.681-3.932,1.321-7.653,1.774-10.529l.589-3.729c1.032-6.568,2.312-14.747,3.522-21.551.513-2.917,1.367-7.492,2.266-12.332,1.627-8.755,3.471-18.667,4.04-22.541.869-5.9,3.476-20.366,3.553-20.81a.017.017,0,0,0,.005-.012s.1-1.587.2-3.829c.081.013.167.025.254.042Z" fill="#dddbef"/>
    <path id="Trazado_6719" data-name="Trazado 6719" d="M444.124,1004.216a.05.05,0,0,1-.005.021c-.127.9-3.968,27.244-5.254,32.461a76.919,76.919,0,0,0-1.4,9.319,68.109,68.109,0,0,1-1.3,8.648c-.488,1.923-1.083,4.774-1.708,7.794a103.7,103.7,0,0,1-2.424,10.3c-.64,1.654-1.143,6.39-1.733,11.876-.335,3.153-.716,6.738-1.179,10.239-.559,4.227-1.281,11.225-1.977,18-.355,3.443-.64,6.174-.874,8.333-.452,4.177-.7,6.236-.874,7.226-.081-.033-.157-.07-.234-.107.2-1.268.514-3.949.859-7.21.275-2.536.575-5.42.869-8.271.7-6.771,1.423-13.774,1.977-18,.463-3.5.843-7.082,1.179-10.235.615-5.731,1.1-10.255,1.753-11.946a103.7,103.7,0,0,0,2.409-10.26c.63-3.016,1.22-5.867,1.712-7.8a68,68,0,0,0,1.286-8.607,77.781,77.781,0,0,1,1.4-9.356c1.3-5.267,5.219-32.163,5.254-32.432l-.193-4.074c.087.015.173.03.26.051l.187,4.035Z" fill="#dddbef"/>
    <path id="Trazado_6720" data-name="Trazado 6720" d="M439.876,999.235l-.132,4.459v.008c-.04.294-.833,6.257-.833,9.27,0,1.16-.707,5.212-1.606,10.35-1.53,8.781-3.629,20.806-3.669,26.814-.041,6.46-2.2,18.775-6.418,36.618-1.113,4.711-3.162,21.617-3.726,33.236-.132,2.776-.183,5.25-.116,7.181-.107-.083-.189-.154-.245-.2-.06-1.935-.005-4.376.128-7.094.574-11.66,2.606-28.48,3.714-33.178,4.208-17.818,6.368-30.121,6.409-36.56.04-6.033,2.139-18.066,3.674-26.859.894-5.122,1.6-9.166,1.6-10.3,0-3.092.828-9.241.833-9.3l.132-4.509c.082.026.168.046.254.071Z" fill="#dddbef"/>
    <path id="Trazado_6721" data-name="Trazado 6721" d="M478.453,1126.454c-.092,0-.179,0-.26.012-.666-1.848-1.6-4.458-2.617-7.35-2.022-5.723-4.381-12.552-5.661-16.728-2.47-8.076-3.065-19.165-2.968-23.271.091-3.854-2.353-13.488-4.5-21.456-2.526-9.385-3.979-27.945-4-28.127a.128.128,0,0,1,.255-.021c.01.182,1.468,18.717,3.983,28.086,2.15,7.98,4.6,17.639,4.508,21.522-.1,4.094.493,15.149,2.958,23.2,1.291,4.21,3.679,11.122,5.712,16.877,1.011,2.864,1.931,5.445,2.582,7.26Z" fill="#dddbef"/>
    <path id="Trazado_6722" data-name="Trazado 6722" d="M439.25,1068.153a6.4,6.4,0,0,1-3.054-1.3,3.349,3.349,0,0,0-.472-.29.124.124,0,0,1-.122-.129.129.129,0,0,1,.132-.124c.1,0,.232.083.6.327.792.526,2.265,1.5,3.345,1.2a9.586,9.586,0,0,0,2-.717.125.125,0,0,1,.175.041.129.129,0,0,1-.043.175,9.317,9.317,0,0,1-2.065.745,1.813,1.813,0,0,1-.5.067Z" fill="#5e1a47"/>
    <path id="Trazado_6723" data-name="Trazado 6723" d="M474.974,1067.075a7.78,7.78,0,0,1-3.386-1.031.126.126,0,1,1,.116-.224c2.554,1.317,4.36,1.334,5.083.05a.127.127,0,1,1,.221.124,2.16,2.16,0,0,1-2.034,1.081Z" fill="#5e1a47"/>
    <path id="Trazado_6724" data-name="Trazado 6724" d="M451.577,1005.066a66.182,66.182,0,0,0,8.291.667,4.131,4.131,0,0,0,.2-4.339h-8.365a12.094,12.094,0,0,0-.131,3.672Zm7.706.932c-2.751,0-7.784-.684-7.84-.692a.128.128,0,0,1-.109-.112,12.211,12.211,0,0,1,.161-3.97.128.128,0,0,1,.12-.083h8.53a.126.126,0,0,1,.108.058,4.407,4.407,0,0,1-.215,4.733.121.121,0,0,1-.094.049c-.2.013-.422.017-.661.017Z" fill="#5e1a47"/>
    <path id="Trazado_6725" data-name="Trazado 6725" d="M435.057,1023.625a.12.12,0,0,1-.052-.012.125.125,0,0,1-.064-.166c.044-.1,4.358-9.709,4.732-13.6a.133.133,0,0,1,.139-.116.13.13,0,0,1,.115.137c-.379,3.933-4.711,13.583-4.754,13.678a.13.13,0,0,1-.116.075Z" fill="#5e1a47"/>
    <path id="Trazado_6726" data-name="Trazado 6726" d="M436.619,1019.419l-.885,2.64a16.708,16.708,0,0,1-3.557-2.035,63.345,63.345,0,0,1-9.97-9.207,22.786,22.786,0,0,1-5.743-10.606c5.2,7.1,14.585,16.324,20.155,19.208Z" fill="#5e1a47"/>
    <path id="Trazado_6727" data-name="Trazado 6727" d="M437.742,998.595a3.269,3.269,0,0,1-.676-.295c-.3-.3-1.8-13.67-2.007-15.484l.991-4.843,1.692,20.622Z" fill="#5e1a47"/>
    <path id="Trazado_6728" data-name="Trazado 6728" d="M449.2,953.294l7.655-4.8,4.8,4.8-4.8-3.32-7.655,3.32Z" fill="#5e1a47"/>
    <path id="Trazado_6729" data-name="Trazado 6729" d="M478.859,1009.831a15.685,15.685,0,0,1-4.309-6.958c-.036-.207-.061-.43-.087-.667a25.051,25.051,0,0,1,.066-3.961v-.006l.021-.066-.011-.04-.015-.066-.737-3.105.31-2.313a1.884,1.884,0,0,0,1.276,1.118l.889.148v2.241s.244,5.959.945,8.309c.407,1.346,1.118,3.65,1.652,5.366Z" fill="#5e1a47"/>
    <path id="Trazado_6730" data-name="Trazado 6730" d="M453.838,933.422c-1.59,1.28.707,5.463,3.022,3.727s-1.179-5.209-3.022-3.727Z" fill="#f49f7f"/>
    <path id="Trazado_6731" data-name="Trazado 6731" d="M469.447,935.235a26.344,26.344,0,0,1-1.438,4.7,1.864,1.864,0,0,1-.935-1.027,2.708,2.708,0,0,1,2.373-3.674Z" fill="#f49f7f"/>
    <path id="Trazado_6732" data-name="Trazado 6732" d="M466.861,937.149a.125.125,0,0,1-.065-.018l-3.685-2.2a.127.127,0,0,1-.043-.175.125.125,0,0,1,.174-.043l3.443,2.058c-.253-1.4-1.349-7.5-1.349-8.64a.127.127,0,1,1,.254,0c0,1.244,1.382,8.794,1.4,8.87a.127.127,0,0,1-.053.127.128.128,0,0,1-.072.023Z" fill="#ce6a15"/>
    <path id="Trazado_6733" data-name="Trazado 6733" d="M555.155,1005.364a11.172,11.172,0,0,0-.307-2.209l-4.46,2.806,2.383,6.576c.124-.087.241-.175.354-.27-.06-.2-.12-.385-.18-.572a9.743,9.743,0,0,0,2.21-6.331Z" fill="#ef7d80"/>
    <path id="Trazado_6734" data-name="Trazado 6734" d="M552.407,998.681a8.7,8.7,0,0,0-1.2-.883,3.528,3.528,0,0,0-2.341-.507l-1.894,1.922,3.414,6.748,4.46-2.806a9.463,9.463,0,0,0-2.441-4.474Z" fill="#f8be90"/>
    <path id="Trazado_6735" data-name="Trazado 6735" d="M556.8,1093.9s-1.471.854-3.34,1.989c-.069.046-.143.092-.222.137-.118.079-.237.149-.36.224-.449.277-.912.568-1.381.866-.68.427-1.366.87-2.012,1.3a17.011,17.011,0,0,1-5.1,2.548c-.148.05-.306.1-.464.141a24.965,24.965,0,0,1-3.521.688,43.458,43.458,0,0,1-5.054.344c-.094,0-.182,0-.271,0-1.06.008-2.115-.025-3.141-.091-.084,0-.168-.012-.247-.017-.3-.024-.6-.049-.892-.078a24.239,24.239,0,0,1-3.5-.58c-.271-.071-.533-.145-.784-.228l-.237-.075a12.266,12.266,0,0,1-5.676-3.9c-.192-.245-.29-.4-.29-.4s2.628-9.945,3.614-12.821.907-6,0-9.944c-.824-3.593-3.693-16.745-6.435-28.882-.267-1.176-.533-2.345-.794-3.5-2.959-12.986-1.42-23.126-.562-25.968.685-2.275,1.795-5.151,2.929-7.9,2.027-4.906,4.147-9.418,4.147-9.418a7.565,7.565,0,0,0,1.474.508c.074.025.153.045.232.064a22.275,22.275,0,0,0,2.762.5l.276.03c1,.118,2.184.2,3.57.237.083,0,.167,0,.251,0,.183.005.37.01.558.01a48.876,48.876,0,0,0,6.2-.34l.251-.03c1.331-.162,2.545-.37,3.59-.586l.261-.06a11.005,11.005,0,0,0,3.506-1.173,3.1,3.1,0,0,0,.434.774,41.062,41.062,0,0,0,2.609,5.036,34.456,34.456,0,0,1,3.767,8.382c.533,1.67,1.076,3.618,1.632,5.938,1.889,7.89,2.627,20.955,2.714,29.5,0,.427,0,.883,0,1.367-.021,9.216-.928,28.272-1.322,32.333-.41,4.272.825,13.069.825,13.069Z" fill="#5e1a47"/>
    <path id="Trazado_6736" data-name="Trazado 6736" d="M526.512,1101.149l-.237-.075c1.262-5.606,3.008-16.583,2.189-24.431-.512-4.931-2.934-14.544-5.069-23.026-1.514-6.009-2.944-11.681-3.457-14.764-1.3-7.778-1.967-19.471.41-26.81,1.7-5.241,3.442-10.516,4.334-13.194.074.025.153.045.232.064-.887,2.672-2.633,7.955-4.334,13.209-2.357,7.293-1.687,18.937-.4,26.694.513,3.066,1.938,8.739,3.452,14.739,2.14,8.49,4.561,18.112,5.079,23.063.818,7.894-.932,18.916-2.2,24.531Z" fill="#b3348b"/>
    <path id="Trazado_6737" data-name="Trazado 6737" d="M531.936,1102.052c-.084,0-.168-.012-.247-.017,1.682-7.056,1.006-16.715.084-23.859-.572-4.434-2.327-12.323-4.024-19.952-1.218-5.465-2.47-11.109-3.249-15.3-1.307-7.073-4.833-30.592,3.176-43.515l.276.03c-8.048,12.826-4.517,36.366-3.206,43.435.774,4.19,2.027,9.833,3.245,15.3,1.7,7.632,3.452,15.53,4.029,19.976.922,7.148,1.6,16.815-.084,23.905Z" fill="#b3348b"/>
    <path id="Trazado_6738" data-name="Trazado 6738" d="M535.348,1102.139c-.094,0-.182,0-.271,0,1.79-4.2,2.574-9.663,2.327-16.255a67.559,67.559,0,0,0-1.686-12.755c-.232-.92-5.676-22.732-7.046-39.712-1.061-13.1,1.025-24.088,2.4-31.355.158-.829.311-1.633.449-2.388.083,0,.167,0,.251,0-.143.772-.3,1.584-.454,2.425-1.375,7.26-3.456,18.228-2.4,31.293,1.366,16.964,6.8,38.755,7.037,39.675a67.722,67.722,0,0,1,1.7,12.8c.246,6.572-.528,12.033-2.3,16.26Z" fill="#b3348b"/>
    <path id="Trazado_6739" data-name="Trazado 6739" d="M540.283,1081.367a.125.125,0,0,1-.123-.112c-.331-3.684-1.588-15.68-2.71-21.771-.407-2.213-1.021-5.063-1.671-8.076-1.1-5.088-2.339-10.852-2.865-14.9a.123.123,0,1,1,.245-.029c.524,4.036,1.765,9.8,2.861,14.875.651,3.017,1.265,5.868,1.673,8.089,1.123,6.095,2.382,18.1,2.713,21.787a.126.126,0,0,1-.112.137Z" fill="#b3348b"/>
    <path id="Trazado_6740" data-name="Trazado 6740" d="M537.572,1045.491a.125.125,0,0,1-.117-.083c-2.261-6.679-3.661-31.873-1.74-40.96a.123.123,0,0,1,.241.05c-1.915,9.058-.521,34.173,1.733,40.831a.127.127,0,0,1-.077.158.142.142,0,0,1-.04,0Z" fill="#b3348b"/>
    <path id="Trazado_6741" data-name="Trazado 6741" d="M548.415,1088.763h0a.127.127,0,0,1-.12-.128,112.135,112.135,0,0,0-1.724-19.823c-1.375-8.076-5.891-35.454-6.289-48.647a.127.127,0,0,1,.12-.128h0a.124.124,0,0,1,.124.12c.4,13.181,4.911,40.541,6.285,48.613a112.507,112.507,0,0,1,1.728,19.873.125.125,0,0,1-.124.12Z" fill="#b3348b"/>
    <path id="Trazado_6742" data-name="Trazado 6742" d="M553.46,1095.89c-.069.046-.143.092-.222.137a131.915,131.915,0,0,1-3.348-27.236.128.128,0,0,1,.123-.125.14.14,0,0,1,.123.125,132,132,0,0,0,3.324,27.1Z" fill="#b3348b"/>
    <path id="Trazado_6743" data-name="Trazado 6743" d="M553,1076.084a.126.126,0,0,1-.123.1h-.02a.124.124,0,0,1-.1-.141c.941-5.672-2.422-35.639-6.184-51.095a208.672,208.672,0,0,0-8.042-25.6l.251-.03a208.822,208.822,0,0,1,8.028,25.567c3.772,15.48,7.137,45.505,6.193,51.195Z" fill="#b3348b"/>
    <path id="Trazado_6744" data-name="Trazado 6744" d="M553.164,1050.55a.128.128,0,0,1-.123.121h-.005a.125.125,0,0,1-.119-.129c.779-20.594-4.783-43.011-10.547-51.806l.261-.06c5.765,8.9,11.3,31.3,10.533,51.874Z" fill="#b3348b"/>
    <path id="Trazado_6745" data-name="Trazado 6745" d="M525.782,944.622a2.261,2.261,0,0,1-3.008-.34c-.552-.922-1.667-1.109-2.342-3.269-.587-1.869.493-4.714,2.179-7.254.257-.385.528-.764.809-1.134L526,930.756l-1,.908a5.839,5.839,0,0,0-.5,1.77,28.423,28.423,0,0,0,1.277,11.188Z" fill="#6b63a9"/>
    <path id="Trazado_6746" data-name="Trazado 6746" d="M545.151,940.214c-1.361,2.959-3.146,2.771-3.146,2.771a21.525,21.525,0,0,1-.69,2.135,13.3,13.3,0,0,1-1.717,3.225,7.535,7.535,0,0,1-4.93,3.087,6.535,6.535,0,0,1-4.409-.419,7.463,7.463,0,0,1-3.1-3.141c-.06-.1-.119-.212-.178-.321a18.171,18.171,0,0,1-1.2-2.929c-.212-.67-.4-1.366-.572-2.076a26.956,26.956,0,0,1-.705-9.112,5.839,5.839,0,0,1,.5-1.77l1-.908,4.477-4.1s.079.015.222.035c.168.03.424.069.725.118.054,0,.114.015.172.025.361.054.775.118,1.184.178.321.049.636.1.927.138,1.322.187,3.427-.494,5.035-.494s2.83,2.343,3.387,4.438a43.3,43.3,0,0,1,.74,6.6s1.543-2.036,2.283-2.1,1.351,1.667,0,4.626Z" fill="#f8be90"/>
    <path id="Trazado_6747" data-name="Trazado 6747" d="M517.165,982.251l-1.409,2.358-4.539-6.008s.77.512,2.4,1.465,3.544,2.185,3.544,2.185Z" fill="#f8be90"/>
    <path id="Trazado_6748" data-name="Trazado 6748" d="M563.765,980.214s-7.732,2.777-10,6.164l-1.016-1.824-.128-.222-2.609-4.67c-.064.927-1.351,1.849-1.6,1.914s-1.725,10.848-1.725,10.848a25.581,25.581,0,0,1-4.872,1.992,36.728,36.728,0,0,1-11.835.474,37.747,37.747,0,0,1-7.825-1.914l-.064-.3-2.338-11.16-.739-1.3-1.855,2.037-11.094-6.839s10.172-16.09,11.223-17.323,2.278-1.662,4.31-1.356a64.079,64.079,0,0,0,6.045,2.589c1.371.36,5.36,1.592,5.611,1.666a2.04,2.04,0,0,1-.315-.251,6.657,6.657,0,0,1-1.189-3.013l6.016.592a18.139,18.139,0,0,1-1.494,2.8s6.1-.493,7.89-.621,6.164-.74,6.164-.74-.183-.089-.494-.247a17.118,17.118,0,0,1,3.018,1.489c.928.686,3.756,3.817,6.47,9.177,1.434,2.84,2.673,5.686,3.514,7.727.033.079.066.153.1.227.365.882.647,1.607.833,2.09Z" fill="#fdc954"/>
    <path id="Trazado_6749" data-name="Trazado 6749" d="M532.134,960.646l-3.548,16.489,7.194,9.246,6.41-9.369L537.3,962.139l-.631-1.636-4.534.143Z" fill="#6b63a9"/>
    <path id="Trazado_6750" data-name="Trazado 6750" d="M541.49,918.205c-1.36-.068-3.418-.186-4.727-.329a.291.291,0,0,1-.044-.005,7.946,7.946,0,0,1-1-.153c-.966-.256-4.256-3.422-6.76-5.518-.523-.438-1.016-.828-1.44-1.138-2.466-1.79-3.018-2.22-3.7-2.1a4.365,4.365,0,0,0-2.894,3.392c-.286,1.48-.464,7.338-.641,11.554-.089,2.115-.178,3.812-.281,4.349-.272,1.41-.829,2.574-1,3.432a2.785,2.785,0,0,0-.05.331c-.128,1.829.8,2.278,3.945.857,2.41-1.085,5.474-3.733,7.8-6.187.706-.745,1.347-1.472,1.878-2.131.343-.427.725-.878,1.134-1.334h0l.058-.062c.071-.079.14-.157.213-.235a22.529,22.529,0,0,1,2.114-2.027,10,10,0,0,1,6.03-2.664c-.185-.008-.4-.019-.633-.031Z" fill="#eb5b52"/>
    <path id="Trazado_6751" data-name="Trazado 6751" d="M542.8,918.266c-.1,0-.335-.01-.646-.03.217,0,.429.01.646.03Z" fill="#f8be90"/>
    <path id="Trazado_6752" data-name="Trazado 6752" d="M536.719,917.871a13.267,13.267,0,0,0-4.142.459c-1.972.621-5.059,3.516-6.968,6.475-1.647,2.549-4.354,6.02-6.607,6.883.172-.858.729-2.022,1-3.432.1-.537.192-2.234.281-4.349,1.652-4.211,5.557-9.453,8.674-11.707,2.5,2.1,5.794,5.262,6.76,5.518a7.946,7.946,0,0,0,1,.153Z" fill="#9f99cb"/>
    <path id="Trazado_6753" data-name="Trazado 6753" d="M542.868,918.271a7.843,7.843,0,0,0-1.378-.066c.233.012.448.023.633.031-3.137.048-6.02,2.388-8.144,4.691-.075.085-.146.163-.213.235l-.055.062h9.157c3.822-2.691,0-4.953,0-4.953Z" fill="#5e1a47"/>
    <path id="Trazado_6754" data-name="Trazado 6754" d="M533.708,923.224h0l.055-.062-.058.062Z" fill="#f8be90"/>
    <path id="Trazado_6755" data-name="Trazado 6755" d="M546.256,945.391a6.966,6.966,0,0,1-4.941-.271,21.525,21.525,0,0,0,.69-2.135s1.785.188,3.146-2.771.74-4.685,0-4.626-2.283,2.1-2.283,2.1a43.3,43.3,0,0,0-.74-6.6c-.557-2.1-1.789-4.438-3.387-4.438s-3.713.681-5.035.494c-.291-.04-.606-.089-.927-.138-.409-.06-.823-.124-1.184-.178-.058-.01-.118-.02-.172-.025-.3-.049-.557-.088-.725-.118.705-.745,1.346-1.469,1.879-2.13.345-.429.725-.878,1.134-1.337.02-.019.035-.039.054-.059.069-.079.143-.157.212-.236a24.313,24.313,0,0,1,1.751-1.712c.118-.108.241-.211.365-.315a8.18,8.18,0,0,1,4.152-.188c2.312.775,3.116,3.783,3.116,3.783a7.657,7.657,0,0,1,4.561,3.392c1.539,2.712-.059,5.829-.059,5.829,4.128,5.7,1.6,10.75-1.607,11.676Z" fill="#6b63a9"/>
    <path id="Trazado_6756" data-name="Trazado 6756" d="M532.944,960.74a6.688,6.688,0,0,1-1.192-3.014,12.194,12.194,0,0,1-.225-1.794,11.4,11.4,0,0,0-.317-2.081,11.881,11.881,0,0,1-1.533,1.588c-.246.061-8.074,1.294-8.074,1.294a64.212,64.212,0,0,0,6.04,2.589c1.418.37,5.622,1.672,5.622,1.672a2.01,2.01,0,0,1-.321-.254Z" fill="#fef6b8"/>
    <path id="Trazado_6757" data-name="Trazado 6757" d="M549.81,959.493c-2.131-1.078-10.194-5.174-10.506-5.645-.008.328-.011.565-.011.666a22.475,22.475,0,0,1-1.522,3.8,18.019,18.019,0,0,1-1.5,2.794s6.1-.493,7.889-.616,6.164-.74,6.164-.74l-.516-.26Z" fill="#fef6b8"/>
    <path id="Trazado_6758" data-name="Trazado 6758" d="M539.6,948.345c-.1,1.021-.167,2.17-.216,3.2-.045.922-.064,1.75-.079,2.307-.005.326-.01.567-.01.666a33.261,33.261,0,0,1-3.018,6.6c-.547.6-2.1.473-3.008-.119a1.88,1.88,0,0,1-.325-.256c-.8-.8-1.351-3.264-1.415-4.8a11.459,11.459,0,0,0-.316-2.081c-.094-.4-.207-.814-.34-1.223a15.073,15.073,0,0,0-.612-1.617,6.535,6.535,0,0,0,4.409.419,7.535,7.535,0,0,0,4.93-3.087Z" fill="#f8be90"/>
    <path id="Trazado_6759" data-name="Trazado 6759" d="M537.382,962.527c.062,1.418-1.356,1.541-2.434,1.6s-2.559-.123-2.559-1.294L531.28,973.56l4.808,6.657,5.116-7.15-3.822-10.54Z" fill="#9f99cb"/>
    <path id="Trazado_6760" data-name="Trazado 6760" d="M534.362,961.5c-1.235.021-1.973.161-1.973,1.332s1.48,1.356,2.559,1.294,2.5-.184,2.434-1.6-2.144-1.039-3.02-1.024Z" fill="#fff"/>
    <path id="Trazado_6761" data-name="Trazado 6761" d="M516.133,1015.661c.686-2.275,1.792-5.151,2.927-7.9l.077-2.457-11.458-5.126c-.931,1.616-5.431,13.819-6.725,18.319s-.247,9.182,1.6,10.786c0,0-1,7.459,1.472,13.189,2.392,5.549,9.22,7.977,13.457,2.661q-.4-1.772-.794-3.5c-2.958-12.986-1.416-23.126-.559-25.968Z" fill="#eb5b52"/>
    <path id="Trazado_6762" data-name="Trazado 6762" d="M546.57,998.275c-.314-.715-.5-1.177-.505-1.2a1.431,1.431,0,0,0,.07.427,3.192,3.192,0,0,0,.435.77Z" fill="#f8be90"/>
    <path id="Trazado_6763" data-name="Trazado 6763" d="M529.986,994.887a37.592,37.592,0,0,1-7.828-1.911l-.065-.307h0l1.112,5.67s2.4,1.294,9.123,1.356,12.759-1.36,13.807-2.19l.555-5.083a25.311,25.311,0,0,1-4.87,1.992,36.624,36.624,0,0,1-11.834.473Z" fill="#9f99cb"/>
    <path id="Trazado_6764" data-name="Trazado 6764" d="M516.2,1122.745c-1.479,1.645-5.67,4.6-6.739,2.138-.522-1.205.545-3.352,1.773-5.229-3.5,2.6-7.69,9.613-7.033,10.583s5.013-.423,8.63-2.888,7.314-7.318,5.588-9.862c0,0-.739,3.613-2.219,5.258Z" fill="#5e1a47"/>
    <path id="Trazado_6765" data-name="Trazado 6765" d="M527.294,1101.377a12.441,12.441,0,0,1-6.7-4.206h0c-2.179,2.809-5.877,16.782-6.617,18.837a37.493,37.493,0,0,0-2.747,3.646c-1.228,1.877-2.3,4.024-1.773,5.229,1.069,2.466,5.26-.493,6.739-2.138s2.219-5.258,2.219-5.258l12.378-15.53a24.371,24.371,0,0,1-3.5-.58Z" fill="#f8be90"/>
    <path id="Trazado_6766" data-name="Trazado 6766" d="M551.9,1125.824c.735,1.077,1.114,1.956.541,2.1-1.644.414-8.137-2.544-8.877-3.452a2.617,2.617,0,0,1-.259-.816h0a3.956,3.956,0,0,0,.589,3.2s.74,3.854,1.069,3.692.411-3.443.411-3.443,4.931,2.871,6.574,3.857,3.7,1.48,4.436.659-4.482-5.8-4.483-5.8Z" fill="#5e1a47"/>
    <path id="Trazado_6767" data-name="Trazado 6767" d="M547.922,1121.1l4.955-24.849c-1.1.684-2.3,1.438-3.393,2.167a17.034,17.034,0,0,1-5.1,2.548,22.649,22.649,0,0,1-3.987.829c.836,5.184,2.142,18.39,2.905,21.858a2.617,2.617,0,0,0,.259.816c.74.908,7.233,3.866,8.877,3.452.573-.141.194-1.02-.541-2.1a47.035,47.035,0,0,0-3.98-4.724Z" fill="#f8be90"/>
    <path id="Trazado_6768" data-name="Trazado 6768" d="M523.042,997.505c-.879-2.654-5.446-10.2-8.034-14.021s-7.643-9.924-9.924-11.465-5.979-.667-9.431,1.423-6.287,5.481-7.212,8.624a9.242,9.242,0,0,0,3.7,9.862,48.091,48.091,0,0,0,6.367,2.715c8.737,3.289,25.2,8.587,25.235,8.4a11.747,11.747,0,0,0-.7-5.538Z" fill="#eb5b52"/>
    <path id="Trazado_6769" data-name="Trazado 6769" d="M557.786,986.381a6.271,6.271,0,0,1,4.744-2.589,7.114,7.114,0,0,1,4.608,1.517h0l-3.377-5.091s-7.732,2.774-10,6.164l.394.676a9.466,9.466,0,0,1,3.626-.676Z" fill="#f8be90"/>
    <path id="Trazado_6770" data-name="Trazado 6770" d="M568.2,1010.73c2.03-2.9,5.051-10.789,3.452-17.692-.891-3.83-2.611-6.309-4.517-7.729a7.114,7.114,0,0,0-4.608-1.517,6.271,6.271,0,0,0-4.744,2.589,9.466,9.466,0,0,0-3.626.676,8.494,8.494,0,0,0-2.231,1.3c-2.651,2.158-5.455,6.038-5.576,7.154a5.108,5.108,0,0,0-.288,1.571c.008.02.191.482.505,1.2a2.442,2.442,0,0,1,.4.938l2.222-2.292a6.985,6.985,0,0,1,2.013.877h0a4.734,4.734,0,0,1,1.2.883,9.463,9.463,0,0,1,2.441,4.474,11.172,11.172,0,0,1,.307,2.209,9.743,9.743,0,0,1-2.21,6.331c.06.187.12.377.18.572.477,1.542.961,3.307,1.454,5.366,1.889,7.89,2.631,20.955,2.714,29.5,0,.423,0,.883,0,1.363a7.718,7.718,0,0,0,3.323-.911c1.848-1.111,4.007-4.562,4.869-8.632s-.493-7.334-1.666-10.475-1.6-5.486-.924-8.32,3.269-6.535,5.3-9.431Z" fill="#eb5b52"/>
    <path id="Trazado_6771" data-name="Trazado 6771" d="M551.209,997.8a6.985,6.985,0,0,0-2.013-.877l-2.222,2.292,1.894-1.922a3.528,3.528,0,0,1,2.341.507Z" fill="#f8be90"/>
    <path id="Trazado_6772" data-name="Trazado 6772" d="M551.5,1097.117c-.68.427-1.366.87-2.012,1.3a17.011,17.011,0,0,1-5.1,2.548c-.148.05-.306.1-.464.141.227-4.359.73-14.341.794-17.648.084-4.272-1.889-17.42-1.889-17.42s3.038,9.862,4.685,15.7c1.252,4.446,3.176,11.958,3.984,15.381Z" fill="#6b63a9"/>
    <path id="Trazado_6773" data-name="Trazado 6773" d="M525.456,934.382a4.184,4.184,0,0,1,3.759-.647c.648.339,1.309.924.948,1.356s-.85-.277-1.947-.524a13.435,13.435,0,0,0-2.76-.185Z" fill="#6b63a9"/>
    <path id="Trazado_6774" data-name="Trazado 6774" d="M539.879,932.971c-1.141-1.017-2.281-.308-3.606.555s-1.492,1.479-1.116,1.818,1.489-.554,2.273-1.232a7.988,7.988,0,0,1,2.449-1.141Z" fill="#6b63a9"/>
    <path id="Trazado_6775" data-name="Trazado 6775" d="M529.39,945.71c.164-.072,6.328-1.346,6.328-1.346s-1.084,2.63-2.453,3.123-3.875-1.777-3.875-1.777Z" fill="#fff"/>
    <path id="Trazado_6776" data-name="Trazado 6776" d="M542.868,940.5c-.745-.011-.493,1.191,0,1.109s.57-1.1,0-1.109Z" fill="#eb5b52"/>
    <path id="Trazado_6777" data-name="Trazado 6777" d="M535,936.434c-.774-.094-.64,2.466,0,2.466s.775-2.373,0-2.466Z" fill="#5e1a47"/>
    <path id="Trazado_6778" data-name="Trazado 6778" d="M527.124,936.762c.722-.091.825,2.334,0,2.38s-.721-2.288,0-2.38Z" fill="#5e1a47"/>
    <path id="Trazado_6779" data-name="Trazado 6779" d="M528.9,943.667a.114.114,0,0,1-.036-.006.125.125,0,0,1-.086-.119.09.09,0,0,1,.018-.06h0c.186-.37,2.261-6.531,2.133-6.994a.115.115,0,0,1,.03-.164.13.13,0,0,1,.177.034c.268.358-1.471,5.416-1.99,6.869.378-.226,1.146-.631,2.7-1.4a.125.125,0,0,1,.165.056.123.123,0,0,1-.056.165c-1.053.519-2.763,1.39-2.946,1.552l-.006.012a.126.126,0,0,1-.1.053Z" fill="#ce6a15"/>
    <path id="Trazado_6780" data-name="Trazado 6780" d="M541.389,925.3a.135.135,0,0,1-.052-.011.123.123,0,0,1-.06-.164,2.14,2.14,0,0,0-.006-1.431.123.123,0,0,1,.235-.075,2.33,2.33,0,0,1-.006,1.61.121.121,0,0,1-.111.071Z" fill="#dddbef"/>
    <path id="Trazado_6781" data-name="Trazado 6781" d="M543.854,932.594a.124.124,0,0,1-.108-.182,3.356,3.356,0,0,1,1.2-1.223.124.124,0,0,1,.12.216,3.164,3.164,0,0,0-1.1,1.124.124.124,0,0,1-.109.065Z" fill="#dddbef"/>
    <path id="Trazado_6782" data-name="Trazado 6782" d="M523.514,983.473H523.5c-2.456-.211-4.435-2.9-5.4-4.486-1.159-1.912-1.282-7.173.93-10.245a.123.123,0,1,1,.2.144c-2.222,3.086-1.924,8.315-.919,9.973.754,1.244,2.771,4.159,5.206,4.368a.123.123,0,0,1,.112.134.122.122,0,0,1-.122.112Z" fill="#5e1a47"/>
    <path id="Trazado_6783" data-name="Trazado 6783" d="M545.51,983.042a.768.768,0,0,1-.285-.044.123.123,0,1,1,.094-.227c.479.2,3.247-.618,4.585-3.166,1.324-2.52.556-6.1.548-6.137a.123.123,0,0,1,.241-.052c.033.15.8,3.7-.57,6.3a6.3,6.3,0,0,1-4.613,3.322Z" fill="#5e1a47"/>
    <path id="Trazado_6784" data-name="Trazado 6784" d="M515.756,984.732a.133.133,0,0,1-.063-.017.125.125,0,0,1-.043-.17l1.409-2.357,1.864-2.054a.123.123,0,0,1,.182.166l-1.849,2.034-1.394,2.338a.122.122,0,0,1-.106.06Z" fill="#5e1a47"/>
    <path id="Trazado_6785" data-name="Trazado 6785" d="M503.419,977.69a.124.124,0,0,1-.107-.063c-.524-.931-2.925-1.414-3.265-1.364a.124.124,0,0,1-.139-.1.123.123,0,0,1,.1-.14c.4-.053,2.919.428,3.515,1.487a.123.123,0,0,1-.047.168.121.121,0,0,1-.061.016Z" fill="#5e1a47"/>
    <path id="Trazado_6786" data-name="Trazado 6786" d="M497.194,987.181a.113.113,0,0,1-.036-.006.123.123,0,0,1-.082-.153,4.6,4.6,0,0,1,2.666-2.83.123.123,0,0,1,.082.232,4.424,4.424,0,0,0-2.512,2.669.124.124,0,0,1-.118.088Z" fill="#5e1a47"/>
    <path id="Trazado_6787" data-name="Trazado 6787" d="M501.385,987.614a.123.123,0,0,1-.12-.1c-.155-.738.51-1.527,1.977-2.345.052-.029.087-.048.1-.058a.116.116,0,0,1,.169.005.128.128,0,0,1-.005.179.727.727,0,0,1-.144.089c-1.7.946-1.947,1.653-1.857,2.079a.123.123,0,0,1-.1.146.118.118,0,0,1-.026,0Z" fill="#5e1a47"/>
    <path id="Trazado_6788" data-name="Trazado 6788" d="M514.191,989.751a.123.123,0,0,1-.116-.083,6.357,6.357,0,0,0-2.9-2.41.123.123,0,1,1,.088-.23,6.567,6.567,0,0,1,3.047,2.56.123.123,0,0,1-.077.156.109.109,0,0,1-.04.007Z" fill="#5e1a47"/>
    <path id="Trazado_6789" data-name="Trazado 6789" d="M514.191,993.716a.129.129,0,0,1-.069-.021,7.669,7.669,0,0,0-4.042-1.15.128.128,0,0,1-.127-.12.123.123,0,0,1,.12-.127l.172,0a7.892,7.892,0,0,1,4.015,1.194.125.125,0,0,1,.034.171.123.123,0,0,1-.1.055Z" fill="#5e1a47"/>
    <path id="Trazado_6790" data-name="Trazado 6790" d="M505.988,1015.781a.093.093,0,0,1-.033,0,.121.121,0,0,1-.086-.149,15.752,15.752,0,0,1,3-5.288.125.125,0,0,1,.174-.016.123.123,0,0,1,.015.174,15.519,15.519,0,0,0-2.954,5.2.121.121,0,0,1-.119.087Z" fill="#5e1a47"/>
    <path id="Trazado_6791" data-name="Trazado 6791" d="M505.639,1028.419a.124.124,0,0,1-.118-.087,9.027,9.027,0,0,1,0-5.2.128.128,0,0,1,.157-.075.125.125,0,0,1,.076.158,8.924,8.924,0,0,0,0,5.039.122.122,0,0,1-.079.153.135.135,0,0,1-.038.008Z" fill="#5e1a47"/>
    <path id="Trazado_6792" data-name="Trazado 6792" d="M507.734,1030.947h-.006a.126.126,0,0,1-.117-.133,23.634,23.634,0,0,0,.005-3.041.118.118,0,0,1,.084-.149.12.12,0,0,1,.153.082,23.552,23.552,0,0,1,0,3.121.125.125,0,0,1-.123.12Z" fill="#5e1a47"/>
    <path id="Trazado_6793" data-name="Trazado 6793" d="M512.7,1031.191a.124.124,0,0,1-.121-.1,25.563,25.563,0,0,1,0-5.64.123.123,0,1,1,.246.017,26.134,26.134,0,0,0,0,5.577.123.123,0,0,1-.1.145Z" fill="#5e1a47"/>
    <path id="Trazado_6794" data-name="Trazado 6794" d="M507.789,1040.622a.119.119,0,0,1-.052-.012c-1.272-.6-1.6-3.162-.981-4.84a.122.122,0,0,1,.158-.07.123.123,0,0,1,.073.157c-.574,1.55-.286,3.995.855,4.529a.126.126,0,0,1,.059.166.123.123,0,0,1-.112.07Z" fill="#5e1a47"/>
    <path id="Trazado_6795" data-name="Trazado 6795" d="M512.134,1041.8a.123.123,0,0,1-.12-.1,7.283,7.283,0,0,1,.45-4.331.126.126,0,0,1,.162-.066.124.124,0,0,1,.064.162,7.162,7.162,0,0,0-.437,4.177.122.122,0,0,1-.089.149c-.01,0-.02,0-.03,0Z" fill="#5e1a47"/>
    <path id="Trazado_6796" data-name="Trazado 6796" d="M511.951,1017.26h-.013a.122.122,0,0,1-.109-.136c0-.029,0-.108.005-.22a12.978,12.978,0,0,1,.968-5.263.123.123,0,0,1,.219.112,12.761,12.761,0,0,0-.941,5.151c0,.128,0,.215-.006.249a.122.122,0,0,1-.123.107Z" fill="#5e1a47"/>
    <path id="Trazado_6797" data-name="Trazado 6797" d="M557.3,997.8h-.013a.124.124,0,0,1-.111-.132c.008-.082.128-2-2.611-2.392a.123.123,0,0,1-.1-.14.121.121,0,0,1,.137-.1c2.98.424,2.826,2.635,2.822,2.657a.121.121,0,0,1-.12.113Z" fill="#5e1a47"/>
    <path id="Trazado_6798" data-name="Trazado 6798" d="M561.3,998.4a.122.122,0,0,1-.121-.093c0-.007-.194-.756-.841-2.575a.121.121,0,0,1,.075-.158.124.124,0,0,1,.157.075c.655,1.834.842,2.568.846,2.6a.123.123,0,0,1-.087.15l-.029,0Z" fill="#5e1a47"/>
    <path id="Trazado_6799" data-name="Trazado 6799" d="M567.142,994.766a.126.126,0,0,1-.124-.119,7.382,7.382,0,0,0-1.566-3.693.123.123,0,1,1,.2-.146,7.512,7.512,0,0,1,1.617,3.831.127.127,0,0,1-.121.127Z" fill="#5e1a47"/>
    <path id="Trazado_6800" data-name="Trazado 6800" d="M554.16,987.181a.127.127,0,0,1-.116-.08.125.125,0,0,1,.075-.159,16.894,16.894,0,0,1,7.819-.682.123.123,0,0,1,.1.143.121.121,0,0,1-.145.1,16.657,16.657,0,0,0-7.686.67.126.126,0,0,1-.046.009Z" fill="#5e1a47"/>
    <path id="Trazado_6801" data-name="Trazado 6801" d="M562.9,1008.758a.14.14,0,0,1-.075-.025.129.129,0,0,1-.024-.174,7.879,7.879,0,0,0,1.458-4.086.123.123,0,0,1,.245,0,7.988,7.988,0,0,1-1.5,4.235.139.139,0,0,1-.1.05Z" fill="#5e1a47"/>
    <path id="Trazado_6802" data-name="Trazado 6802" d="M558.461,1012.661a.123.123,0,0,1-.116-.087,5.214,5.214,0,0,1,0-2.486.125.125,0,0,1,.145-.1.12.12,0,0,1,.095.145,5.067,5.067,0,0,0,0,2.362.124.124,0,0,1-.082.154.13.13,0,0,1-.038.008Z" fill="#5e1a47"/>
    <path id="Trazado_6803" data-name="Trazado 6803" d="M557.3,1018.619a.127.127,0,0,1-.112-.074,6.235,6.235,0,0,1-.381-3.841.117.117,0,0,1,.149-.087.121.121,0,0,1,.087.149,6.1,6.1,0,0,0,.369,3.675.128.128,0,0,1-.058.166.152.152,0,0,1-.054.012Z" fill="#5e1a47"/>
    <path id="Trazado_6804" data-name="Trazado 6804" d="M558.039,1027.864a.124.124,0,0,1-.108-.062,7.527,7.527,0,0,1-.758-2.951.123.123,0,0,1,.116-.132.112.112,0,0,1,.128.116,7.338,7.338,0,0,0,.729,2.847.119.119,0,0,1-.049.165.094.094,0,0,1-.058.017Z" fill="#5e1a47"/>
    <path id="Trazado_6805" data-name="Trazado 6805" d="M561.913,1033.532a.113.113,0,0,1-.087-.037,7.919,7.919,0,0,1-1.492-3.319.124.124,0,1,1,.24-.062,7.95,7.95,0,0,0,1.43,3.211.123.123,0,0,1,0,.174.121.121,0,0,1-.087.033Z" fill="#5e1a47"/>
    <path id="Trazado_6806" data-name="Trazado 6806" d="M560.877,1043.026a.127.127,0,0,1-.116-.075.126.126,0,0,1,.066-.162.765.765,0,0,0,.361-.484,4.3,4.3,0,0,0-.112-2.7.119.119,0,0,1,.05-.166.121.121,0,0,1,.165.046,4.51,4.51,0,0,1,.129,2.9.977.977,0,0,1-.5.63.084.084,0,0,1-.046.009Z" fill="#5e1a47"/>
    <path id="Trazado_6807" data-name="Trazado 6807" d="M553.766,987.181a.124.124,0,0,1-.11-.068l-3.752-7.395a.123.123,0,1,1,.219-.111L553.874,987a.121.121,0,0,1-.054.166.111.111,0,0,1-.054.014Z" fill="#5e1a47"/>
    <path id="Trazado_6808" data-name="Trazado 6808" d="M562.932,978.124a28.568,28.568,0,0,0-10.182,6.43c-.089.084-.133.133-.138.138a.126.126,0,0,1-.089.039.123.123,0,0,1-.089-.207c.005,0,.069-.074.188-.192a28.928,28.928,0,0,1,10.215-6.435c.033.079.066.153.1.227Z" fill="#5e1a47"/>
    <path id="Trazado_6809" data-name="Trazado 6809" d="M546.653,992.885h-.02a.124.124,0,0,1-.1-.142l1.763-11.188a.122.122,0,0,1,.141-.1.124.124,0,0,1,.1.142l-1.763,11.188a.122.122,0,0,1-.121.1Z" fill="#5e1a47"/>
    <path id="Trazado_6810" data-name="Trazado 6810" d="M536.088,980.34a.123.123,0,0,1-.1-.051l-4.808-6.656a.132.132,0,0,1-.023-.086l.975-9.42a.123.123,0,1,1,.245.026l-.969,9.373,4.679,6.48,4.205-5.877a.124.124,0,0,1,.2.144l-4.3,6.016a.123.123,0,0,1-.1.051Z" fill="#5e1a47"/>
    <path id="Trazado_6811" data-name="Trazado 6811" d="M542.828,1122.02a.123.123,0,0,1-.122-.112c-.022-.182-2.159-18.3-2.425-20.1-.063-.419-.1-.651-.106-.788l-.007-.025h0c-.006-.145.023-.149.087-.161.113-.021.142.074.159.149a.122.122,0,0,1,.107.12c0,.1,0,.212-.062.261.017.112.036.245.06.41.267,1.8,2.405,19.919,2.427,20.1a.119.119,0,0,1-.108.137.021.021,0,0,1-.015,0Z" fill="#5e1a47"/>
    <path id="Trazado_6812" data-name="Trazado 6812" d="M539.6,948.345c-.1,1.021-.118,1.144-.167,2.17-3.713,2.931-6.877,2.848-8.738,1.558a6.479,6.479,0,0,0-.434-1.06,6.535,6.535,0,0,0,4.409.419,7.535,7.535,0,0,0,4.93-3.087Z" fill="#5e1a47"/>
    <path id="Trazado_6813" data-name="Trazado 6813" d="M548.04,940.628a.123.123,0,0,1-.121-.1c0-.014-.281-1.393-1.007-1.811a.124.124,0,0,1,.124-.214,3.328,3.328,0,0,1,1.124,1.977.123.123,0,0,1-.1.145.093.093,0,0,1-.023,0Z" fill="#dddbef"/>
    <path id="Trazado_6814" data-name="Trazado 6814" d="M545.142,943.309a.884.884,0,0,1-.828-.667.124.124,0,0,1,.231-.089c.236.609.648.514.693.5a.123.123,0,0,1,.069.237.721.721,0,0,1-.165.018Z" fill="#dddbef"/>
    <path id="Trazado_6815" data-name="Trazado 6815" d="M522.977,940.788a3.278,3.278,0,0,1-.924-.166.123.123,0,0,1,.079-.234c.392.131,1.088.255,1.289.023a.121.121,0,0,1,.173-.012.123.123,0,0,1,.012.174.814.814,0,0,1-.629.215Z" fill="#dddbef"/>
    <path id="Trazado_6816" data-name="Trazado 6816" d="M536.719,923.916a.122.122,0,0,1-.112-.073,2.423,2.423,0,0,1-.005-1.666.124.124,0,0,1,.156-.078.122.122,0,0,1,.078.156,2.209,2.209,0,0,0-.005,1.487.123.123,0,0,1-.061.163.135.135,0,0,1-.051.011Z" fill="#dddbef"/>
    <path id="Trazado_6817" data-name="Trazado 6817" d="M520.182,933.818a1.481,1.481,0,0,1-.847-.188.123.123,0,0,1,.144-.2c.021.014,1.55.981,6.272-2.451a41.6,41.6,0,0,0,5.813-5.417.124.124,0,0,1,.187.162,41.993,41.993,0,0,1-5.854,5.454c-3.031,2.2-4.793,2.64-5.715,2.64Z" fill="#5e1a47"/>
    <path id="Trazado_6818" data-name="Trazado 6818" d="M538.389,918.142h-.009a22.029,22.029,0,0,1-2.979-.424,23.468,23.468,0,0,1-3.049-2.4c-1.03-.952-3.412-2.978-4.568-3.909A24.287,24.287,0,0,0,524.3,909.1a.123.123,0,1,1,.115-.218,24.347,24.347,0,0,1,3.517,2.335c1.16.933,3.549,2.965,4.582,3.92a24.717,24.717,0,0,0,2.977,2.349,22.647,22.647,0,0,0,2.9.4.122.122,0,0,1,.114.131.124.124,0,0,1-.123.115Z" fill="#5e1a47"/>
    <path id="Trazado_6819" data-name="Trazado 6819" d="M533.343,1001a1.759,1.759,0,0,1-.631-.083c-.871-.365-.939-4.1-.939-5.23,0-1.567.958-1.909,2.614-1.972.05,0,.1,0,.149,0a3.939,3.939,0,0,1,2.976,1.282.124.124,0,0,1-.055.166.123.123,0,0,1-.165-.056,3.77,3.77,0,0,0-2.9-1.143c-1.576.06-2.376.343-2.376,1.726,0,2.252.246,4.778.787,5,.724.3,4.512-.461,5.332-1.384a.125.125,0,0,1,.175-.01.122.122,0,0,1,.009.174c-.755.851-3.585,1.531-4.98,1.531Z" fill="#dddbef"/>
    <path id="Trazado_6820" data-name="Trazado 6820" d="M533.684,997.479a.123.123,0,0,1,0-.246c.369,0,2.959,0,2.959,0v.246s-2.587,0-2.957,0Z" fill="#dddbef"/>
    <path id="Trazado_6821" data-name="Trazado 6821" d="M524.562,1003.454c-.09-.083-17.318-5.522-26.055-8.811.047,1.526,5.985,3.893,8.364,5.052,1.356.924,7.212,3.634,9,4.438s3.144.986,2.466,3.265-3.082,7.952-3.144,8.938,2.219-.369,3.637-1.91a23.447,23.447,0,0,0,2.9-4.744s-.191,3.82.367,3.882,1.975-2.934,2.776-5.383.679-3.8-.307-4.727Z" fill="#f8be90"/>
    <path id="Trazado_6822" data-name="Trazado 6822" d="M535.728,921.214a12.755,12.755,0,0,1-.843,2.318,19.6,19.6,0,0,1-2.106,3.477c-.853,1.154-1.75,2.179-2.52,3.057a13.993,13.993,0,0,1-5.754,3.368,6.921,6.921,0,0,1-1.894.325c.257-.385.528-.764.809-1.134L526,930.756l4.477-4.1s.079.015.222.035c.705-.745,1.346-1.469,1.879-2.13.345-.429.725-.878,1.134-1.337.02-.019.035-.039.054-.059.069-.079.143-.157.212-.236a24.313,24.313,0,0,1,1.751-1.712Z" fill="#5e1a47"/>
    <path id="Trazado_6823" data-name="Trazado 6823" d="M539.6,941.053c-2.794-1.836-4.373,2.492-2.463,3.97s4.68-2.514,2.463-3.97Z" fill="#f49f7f"/>
    <path id="Trazado_6824" data-name="Trazado 6824" d="M527.158,947.872c-.06-.1-.119-.212-.178-.321a18.171,18.171,0,0,1-1.2-2.929c-.212-.67-.4-1.366-.572-2.076,1.085-.34,2.347,1.12,2.653,2.382.158.676.291,2.382-.7,2.944Z" fill="#f49f7f"/>
  </g>
</svg>
