<svg xmlns="http://www.w3.org/2000/svg" xmlns:xlink="http://www.w3.org/1999/xlink" width="70" height="70" viewBox="0 0 70 70">
  <defs>
    <clipPath id="clip-path">
      <rect id="Rectángulo_8769" data-name="Rectángulo 8769" width="70" height="70" transform="translate(497.2 15822.199)" fill="#fff" stroke="#707070" stroke-width="1"/>
    </clipPath>
  </defs>
  <g id="Enmascarar_grupo_98" data-name="Enmascarar grupo 98" transform="translate(-497.2 -15822.2)" clip-path="url(#clip-path)">
    <g id="futuristic" transform="translate(497 15822)">
      <g id="Grupo_70704" data-name="Grupo 70704" transform="translate(9.084 30.658)">
        <g id="Grupo_70703" data-name="Grupo 70703">
          <path id="Trazado_117470" data-name="Trazado 117470" d="M25.819,65.187A13.626,13.626,0,1,1,39.445,51.561,13.641,13.641,0,0,1,25.819,65.187Zm0-21.574a7.948,7.948,0,1,0,7.948,7.948A7.957,7.957,0,0,0,25.819,43.613Z" transform="translate(-12.194 -37.935)" fill="#f0bc5e"/>
        </g>
      </g>
      <g id="Grupo_70705" data-name="Grupo 70705" transform="translate(47.69 5.677)">
        <path id="Trazado_117471" data-name="Trazado 117471" d="M58.258,8.129H69.613v4.542H58.258Z" transform="translate(-58.258 -8.129)" fill="#f0bc5e"/>
      </g>
      <g id="Grupo_70706" data-name="Grupo 70706" transform="translate(0 15.897)">
        <path id="Trazado_117472" data-name="Trazado 117472" d="M1.355,20.323H12.71v4.542H1.355Z" transform="translate(-1.355 -20.323)" fill="#f0bc5e"/>
      </g>
      <g id="Grupo_70707" data-name="Grupo 70707" transform="translate(0 0)">
        <path id="Trazado_117473" data-name="Trazado 117473" d="M50.129,42.335v3.406H70.568V42.335a10.231,10.231,0,0,0-6.385-9.466,5.677,5.677,0,1,0-7.669,0A10.231,10.231,0,0,0,50.129,42.335ZM56.942,28.71a3.406,3.406,0,1,1,3.406,3.406A3.411,3.411,0,0,1,56.942,28.71Zm3.406,5.677A7.958,7.958,0,0,1,68.3,42.335v1.135H52.4V42.335A7.958,7.958,0,0,1,60.348,34.387Z" transform="translate(-9.252 -4.865)" fill="#12263f"/>
        <path id="Trazado_117474" data-name="Trazado 117474" d="M66.516,49.406A3.411,3.411,0,0,0,69.922,46V21.019a3.411,3.411,0,0,0-3.406-3.406H39.264a3.411,3.411,0,0,0-3.406,3.406V34.14a18.092,18.092,0,0,0-10.219-3.98V27.832H24.5A20.462,20.462,0,0,0,4.065,48.271v1.135H6.393a18.144,18.144,0,0,0,36.219,0ZM39.264,19.884H66.516a1.137,1.137,0,0,1,1.135,1.135V46a1.137,1.137,0,0,1-1.135,1.135h-23.9a18.02,18.02,0,0,0-4.486-10.828V21.019A1.137,1.137,0,0,1,39.264,19.884Zm.312,33.4-2.1-.869a13.4,13.4,0,0,1-.878,2.095l2.1.87a15.973,15.973,0,0,1-7.088,7.088l-.869-2.1a13.536,13.536,0,0,1-2.094.877l.869,2.1a15.779,15.779,0,0,1-3.88.765V61.837c-.376.033-.752.059-1.135.059s-.76-.026-1.135-.058v2.271a15.9,15.9,0,0,1-14.7-14.7h2.271c-.032-.376-.058-.752-.058-1.135s.026-.76.058-1.135H6.371a18.2,18.2,0,0,1,17-17V34.7c.376-.032.752-.058,1.135-.058s.76.026,1.135.058V32.432a15.789,15.789,0,0,1,3.88.765l-.869,2.1a13.49,13.49,0,0,1,2.094.877l.869-2.1a15.915,15.915,0,0,1,3.285,2.2l-1.606,1.606A13.744,13.744,0,0,1,34.9,39.481L36.5,37.875a15.774,15.774,0,0,1,3.074,15.41Z" transform="translate(-1.794 -3.987)" fill="#12263f"/>
        <path id="Trazado_117475" data-name="Trazado 117475" d="M26.7,43.355a9.084,9.084,0,1,0,9.084,9.084A9.094,9.094,0,0,0,26.7,43.355ZM33.407,51.3h-2.33a4.536,4.536,0,0,0-3.245-3.245v-2.33A6.822,6.822,0,0,1,33.407,51.3ZM26.7,54.71a2.271,2.271,0,1,1,2.271-2.271A2.273,2.273,0,0,1,26.7,54.71Zm-1.135-8.982v2.33A4.536,4.536,0,0,0,22.316,51.3h-2.33A6.822,6.822,0,0,1,25.561,45.728Zm-5.575,7.846h2.33a4.536,4.536,0,0,0,3.245,3.245v2.33a6.822,6.822,0,0,1-5.575-5.575Zm7.846,5.575v-2.33a4.536,4.536,0,0,0,3.245-3.245h2.33A6.822,6.822,0,0,1,27.832,59.149Z" transform="translate(-3.987 -8.155)" fill="#12263f"/>
        <path id="Trazado_117476" data-name="Trazado 117476" d="M76.961,80.361V69.006H74.69V80.361H72.42V73.548H70.149v6.813H67.878V75.819H65.607v4.542H63.336V71.277H61.065v9.084H58.794V73.548H56.523v6.813h-1.54L49.608,68.536l-2.067.94,5.979,13.156H79.232V80.361Z" transform="translate(-8.833 -12.232)" fill="#12263f"/>
        <path id="Trazado_117477" data-name="Trazado 117477" d="M54.451,3.626H68.3V1.355H52.63L50.16,12.463l2.219.493Z" transform="translate(-9.257 -1.355)" fill="#12263f"/>
        <path id="Trazado_117478" data-name="Trazado 117478" d="M58.258,6.774H69.613V9.045H58.258Z" transform="translate(-10.568 -2.232)" fill="#12263f"/>
        <path id="Trazado_117479" data-name="Trazado 117479" d="M58.258,12.194H69.613v2.271H58.258Z" transform="translate(-10.568 -3.11)" fill="#12263f"/>
        <path id="Trazado_117480" data-name="Trazado 117480" d="M17.278,25.15l2.219-.493-2.47-11.108H1.355v2.271H15.205Z" transform="translate(-1.355 -3.329)" fill="#12263f"/>
        <path id="Trazado_117481" data-name="Trazado 117481" d="M1.355,18.968H12.71v2.271H1.355Z" transform="translate(-1.355 -4.207)" fill="#12263f"/>
        <path id="Trazado_117482" data-name="Trazado 117482" d="M1.355,24.387H12.71v2.271H1.355Z" transform="translate(-1.355 -5.084)" fill="#12263f"/>
        <path id="Trazado_117483" data-name="Trazado 117483" d="M47.419,23.032H49.69V25.3H47.419Z" transform="translate(-8.813 -4.865)" fill="#12263f"/>
        <path id="Trazado_117484" data-name="Trazado 117484" d="M74.516,23.032h2.271V25.3H74.516Z" transform="translate(-13.201 -4.865)" fill="#12263f"/>
      </g>
    </g>
  </g>
</svg>
