<svg xmlns="http://www.w3.org/2000/svg" width="182.188" height="232.756" viewBox="0 0 182.188 232.756">
  <g id="Grupo_10762" data-name="Grupo 10762" transform="translate(-512.779 -1187.827)">
    <path id="Trazado_7360" data-name="Trazado 7360" d="M661.429,1223.188a26.21,26.21,0,0,1-2.315,5.3,44.573,44.573,0,0,1-2.64,4.173,17.7,17.7,0,0,1-1.48,1.844,3.846,3.846,0,0,1-2.7,1.106,5.959,5.959,0,0,1-1.4-.112,7.47,7.47,0,0,1-2.471-.994,19.517,19.517,0,0,1-5.216-5.611,8.561,8.561,0,0,1-.433-.833,4.1,4.1,0,0,1-.385-1.214c-.2-2.1.341-9.215.954-10.367a8.625,8.625,0,0,0,2.841-1.691,13.844,13.844,0,0,0,1.967-2.71c2.44.742,5.893-1.019,6.305-1.355s.943-1.085,1.485,0,2.982,2.441,2.982,2.441c0,.941,2.168,3.315,2.51,3.315s1.154,2.577,0,6.713Z" fill="#f8be90"/>
    <path id="Trazado_7361" data-name="Trazado 7361" d="M640.29,1235.623a3.582,3.582,0,0,0,.99-1.007c.929-1.368,1.141-3.323,1.484-4.637a4.781,4.781,0,0,1-.007-1.931l.012.008a4.009,4.009,0,0,1-.38-1.209c-.2-2.1.337-9.216.946-10.368a8.742,8.742,0,0,0,2.846-1.695,13.785,13.785,0,0,0,1.964-2.714c2.44.746,5.895-1.015,6.3-1.355s.948-1.085,1.491,0,2.981,2.437,2.981,2.437c0,.949,2.17,3.323,2.509,3.323s1.152,2.573,0,6.708a35.356,35.356,0,0,1-6.435,11.317,3.821,3.821,0,0,1-2.7,1.106,6.128,6.128,0,0,1-.663-.012.218.218,0,0,0-.051,0,6.7,6.7,0,0,1-.693-.1,5.025,5.025,0,0,0,.461,3.97l0,0a4.757,4.757,0,0,0,.832.995c1.927,1.761,6.128,1.558,7.415.472s1.9-3.522,2.71-3.8a4.048,4.048,0,0,0,.761-.4c1.245-.774,3.338-2.469,3.98-3.866.812-1.761-.34-4.868-.34-4.868s1.492.667,2.035.393c0,0-2.035-1.69-2.1-2.639s-.746-4.268-.746-4.268,1.625-3.73,1.015-6.506a5.354,5.354,0,0,0-.75-4c-1.284-1.965-4.809-3.253-5.69-3.39,0,0-3.186-4.989-4.948-5.42s-1.558,0-1.558,0-2.373-1.019-5.082,1.761a2.168,2.168,0,0,0-2.372,0,7.08,7.08,0,0,0-2.506,2.71,3.539,3.539,0,0,0-2.507.614c-1.491.878-2.371,2.979-2.845,4.334a4.617,4.617,0,0,0-.068,2.643c-1.287,1.558-4.4,5.018-4.47,7.252s.813,2.507,1.356,3.522a2.787,2.787,0,0,1-1.016,3.323,4.4,4.4,0,0,0-.88,5.217,4.211,4.211,0,0,0,.515.725c1.4,1.6,4.183,2.677,6.194,1.343Z" fill="#eb5b52"/>
    <path id="Trazado_7362" data-name="Trazado 7362" d="M530.92,1269.6c-.092,6.505,0,12.2,0,12.2s-1.762-4.111-2.586-6.784c-.027-.1-.06-.2-.087-.294-.075-.261-.14-.5-.189-.721-.027-.1-.049-.2-.065-.29a2.278,2.278,0,0,1-.055-.766c.055-.253.19-.987.369-1.985h.006c.016-.1.038-.211.054-.323.732-4.049,2.087-11.785,2.087-11.785a82.176,82.176,0,0,1,.466,10.749Zm57.283,14.544c-.185-14.722-2.532-36.593-3.253-41.921s-2.981-10.749-5.692-12.56-18.886-4.243-18.886-4.243l-.472-.373-.444-.356-5.226-4.152a5.361,5.361,0,0,1-3.838,2.892,6.159,6.159,0,0,1-5.074-.518,2.668,2.668,0,0,1-.374-.642s-2.548,2.776-3.307,3.816a1.263,1.263,0,0,0-.211.344v.008c-.071.4-12.767,4.944-15.206,6.029s-5.329,3.071-6.234,6.054-6.142,26.105-6.955,31.256.363,7.591,3.252,13.1,10.842,18.34,10.842,18.34.4-.742.927-1.707c.841-1.542,2-3.642,2.4-4.256a29.182,29.182,0,0,1,3.355-3.335,60.653,60.653,0,0,0,1,6.5,1.447,1.447,0,0,0,.244.319,45.058,45.058,0,0,0,9.893,6.908c3.231,1.355,4.044,1.263,4.044,1.263l5.887-12.609.06-.132.455,1.284h.005l2.993,8.387a46.092,46.092,0,0,0,19.6-6.327l3.073,13.375a4.941,4.941,0,0,1,.554,0,16.047,16.047,0,0,1,5.681,1.442s1.084-13.458.905-28.189Z" fill="#9f99cb"/>
    <path id="Trazado_7363" data-name="Trazado 7363" d="M678.818,1279.181s-1.011-10.571-2.552-18.456c-.05-.265-.1-.53-.158-.791a60.763,60.763,0,0,0-1.728-6.568,57.373,57.373,0,0,0-3.978-9.394c-.19-.335-.364-.65-.526-.932a19.521,19.521,0,0,0-4.359-4.442c-.87-.7-1.716-1.334-2.408-1.836l-.032-.025a4.148,4.148,0,0,1-.765.4c-.813.274-1.42,2.71-2.71,3.8-.987.833-3.7,1.148-5.774.452a4.607,4.607,0,0,1-1.642-.924,5,5,0,0,1-.83-.991h-.005s-.835.448-3.816-.5a6.416,6.416,0,0,1-3.556-2.59,3.663,3.663,0,0,1-.369-.758,6.792,6.792,0,0,0-2.331-1,3.637,3.637,0,0,1-.987,1,3.8,3.8,0,0,1-2.574.567,5.9,5.9,0,0,1-3.622-1.906,21.292,21.292,0,0,0-2.168.353,10.555,10.555,0,0,0-4.586,3.145,50.81,50.81,0,0,0-4.613,5.585c-1.99,2.739-3.79,5.549-5.037,7.5-.108.166-.211.332-.308.481-3,4.7-6.413,11.925-5.784,18.431s4.249,8.859,4.249,8.859,1.535,3.522,3.524,4.421a5.308,5.308,0,0,0,3.177.353,8.372,8.372,0,0,0,4.141-2.25,8.894,8.894,0,0,0,2.283-3.6c.786-2.316.607-4.919-1.4-6.609,0,0,.607-3.618,0-5.329l.672-.9,2.8-3.725.26-.348s-.455,6.87-.905,13.645c-.119,1.769-.249,3.526-.385,5.2h0c-.086,1.044-.175,2.055-.266,3.012,0,0-.421,4.032-.627,5.441-.119.791-.232,1.438-.346,1.889-.542,2.168-3.253,8.673-4.337,13.194s.092,14.453.45,15.356a44.826,44.826,0,0,0,7.264.713c2.342.1,5.334.157,9.091.1a81.824,81.824,0,0,0,22.408-3.3c3.547-1.144,6.406-2.561,8.043-4.2,0,0-2.9-9.128-5.246-14.366s-4.7-11.473-5.419-13.736c-.6-1.885.114-6.613.369-8.113v-.013l1.073,2.375v0c.542,1.487,1.188,3.191,1.632,4.123a18.12,18.12,0,0,1,1.533,6.145c.178,2.076.721,6.236,1.177,7.135a3.155,3.155,0,0,0,1.064,1.069,7.831,7.831,0,0,0,4.807,1.19c1.649-.092,2.693-.183,3.522-.862.808-.655,1.409-1.857,2.172-4.152,1.533-4.649.99-11.88.447-13.322Z" fill="#5e1a47"/>
    <path id="Trazado_7364" data-name="Trazado 7364" d="M663.644,1315.9a81.824,81.824,0,0,1-22.408,3.3c-3.757.058-6.749,0-9.091-.1a94.865,94.865,0,0,1,.417-12.187c.721-6.145,1.627-17.7,2.89-25.906s4.792-23.155,5.42-29.838a98.245,98.245,0,0,1,3.107-14.789,6.416,6.416,0,0,0,3.556,2.59c2.981.949,3.816.5,3.816.5h.005a5,5,0,0,0,.83.991,4.607,4.607,0,0,0,1.642.924l.147.381s2.347,9.671,3.344,14.822.271,13.011-.183,24.3,2.081,19.877,2.981,24.58a70.476,70.476,0,0,0,3.527,10.43Z" fill="#ef7d80"/>
    <path id="Trazado_7365" data-name="Trazado 7365" d="M561.751,1206.244c.068-1.492-1.9-3.592-3.726-5.15a10.024,10.024,0,0,1-3.185-5.76,11.119,11.119,0,0,0-6.3-6.945,6.4,6.4,0,0,0-5.827.241,11.256,11.256,0,0,0-4.608,0,4.777,4.777,0,0,0-3.118,2.908,4.919,4.919,0,0,0-3.184,3.933c-.407,3.049,1.016,6.505,1.22,7.927a9.111,9.111,0,0,1-1.085,5.49,19.25,19.25,0,0,0-1.484,3.928h.6c-1.83,3.932,1.084,5.354,1.084,5.354-.542-.34-.746-2.167-.746-2.167.339,2.167,4.714,2.573,4.714,2.573.376,1.761,2,4.338,4.366,4.338a5.3,5.3,0,0,0,4.528-3,9.542,9.542,0,0,1-1.14-.393c-3.117-1.289-4.54-4.132-6.1-7.8s-1.423-6.911-1.627-9.982.615-4.384,2.576-5.059c.955-.327,2.642.137,4.675.2s3.185-1.624,3.93-2.71,1.83-.746,2.846,0a4.989,4.989,0,0,1,2.3,3.932,61.511,61.511,0,0,0,1.559,6.912,27.449,27.449,0,0,1,.338,7.993,8.846,8.846,0,0,1-.174.891c-.088,2.358-.232,4.666-.232,4.666a2.26,2.26,0,0,1,1.084-.812c.813-.34,1.762-.2,2.846-1.832s-.135-3.928-.135-3.928c3.662-2.312,3.929-4.268,4-5.76Z" fill="#fdc954"/>
    <path id="Trazado_7366" data-name="Trazado 7366" d="M554.365,1213.019c-.005.046-.016.095-.021.141-.028.182-.065.356-.1.53-.017.075-.033.15-.049.22a8.995,8.995,0,0,1-3.35,5.006,6.224,6.224,0,0,1-5.838,1,9.394,9.394,0,0,1-1.139-.4,5.193,5.193,0,0,1-.58-.266,8.1,8.1,0,0,1-2.824-2.428,20.385,20.385,0,0,1-2.288-4.152c-.141-.306-.276-.621-.412-.945-1.556-3.658-1.42-6.911-1.626-9.982s.618-4.388,2.58-5.059c.954-.332,2.64.137,4.673.207s3.188-1.628,3.93-2.71,1.827-.75,2.846,0a4.974,4.974,0,0,1,2.3,3.924,61.255,61.255,0,0,0,1.556,6.916,23.455,23.455,0,0,1,.428,3.352,24.085,24.085,0,0,1-.087,4.641Z" fill="#f8be90"/>
    <path id="Trazado_7367" data-name="Trazado 7367" d="M543.975,1214.983c.226-.041,6.415-2.664,6.415-2.664a4.566,4.566,0,0,1-3.207,3.253c-2.846.994-3.208-.589-3.208-.589Z" fill="#fff"/>
    <path id="Trazado_7368" data-name="Trazado 7368" d="M554.23,1220.54a5.348,5.348,0,0,1-3.84,2.892,6.149,6.149,0,0,1-5.074-.518,2.739,2.739,0,0,1-.372-.642,14.254,14.254,0,0,0,.372,3.079c.308.745,8.954,14.705,8.954,14.705s1.518-13.077-.04-19.516Z" fill="#6b63a9"/>
    <path id="Trazado_7369" data-name="Trazado 7369" d="M554.23,1220.54a5.361,5.361,0,0,1-3.838,2.892,6.159,6.159,0,0,1-5.074-.518,2.668,2.668,0,0,1-.374-.642c-.179-.369-.407-.858-.667-1.368a11.62,11.62,0,0,0-.992-1.649,5.193,5.193,0,0,0,.58.266,9.394,9.394,0,0,0,1.139.4,6.224,6.224,0,0,0,5.838-1,8.995,8.995,0,0,0,3.35-5.006c.016-.07.032-.145.049-.22,0,.779.022,1.944.027,3.087v.009c.005,1.848.005,3.646-.038,3.754Z" fill="#f8be90"/>
    <path id="Trazado_7370" data-name="Trazado 7370" d="M581.063,1310.888s.073,0,.2,0c-.123,0-.2,0-.2,0Z" fill="#f8be90"/>
    <path id="Trazado_7371" data-name="Trazado 7371" d="M588.221,1319.068a44.186,44.186,0,0,0-.923-6.734c-.423-1.467-5.033-1.467-6.039-1.45-.123,0-.2,0-.2,0l3.569,13.289h0a5.008,5.008,0,0,0,3.589-5.109Z" fill="#f8be90"/>
    <path id="Trazado_7372" data-name="Trazado 7372" d="M534.884,1298.544c.008.013.016.021.024.033-.008-.012-.016-.02-.024-.033Z" fill="#f8be90"/>
    <path id="Trazado_7373" data-name="Trazado 7373" d="M534.8,1298.424a.671.671,0,0,0,.079.12.671.671,0,0,1-.079-.12Z" fill="#f8be90"/>
    <path id="Trazado_7374" data-name="Trazado 7374" d="M535.05,1298.743c-.057-.062-.1-.116-.142-.166.039.05.085.1.142.166Z" fill="#f8be90"/>
    <path id="Trazado_7375" data-name="Trazado 7375" d="M534.908,1298.577c-.008-.012-.016-.02-.024-.033a.671.671,0,0,1-.079-.12,61.178,61.178,0,0,1-.994-6.5,29.465,29.465,0,0,0-3.359,3.335c-.4.614-1.559,2.719-2.4,4.256a57.161,57.161,0,0,0,2.876,5.37l4.12-6.141c-.057-.062-.1-.116-.142-.166Z" fill="#f8be90"/>
    <path id="Trazado_7376" data-name="Trazado 7376" d="M545.759,1415.089h0c-.677.538-2.3,3.385-2.1,4.334s2.439,3.054,9.69-2.776l-.038-.033c-2.087.19-5.158-.68-7.552-1.525Z" fill="#5e1a47"/>
    <path id="Trazado_7377" data-name="Trazado 7377" d="M602.341,1407.021l-6.646,1.724-.672.174c-.19.037-1.361-1.5-3.036-3.92-.054-.071-.1-.145-.158-.224-4.347-6.286-11.855-18.12-14.56-23.909-3.795-8.134-4.337-20.192-4.337-20.192a159.383,159.383,0,0,1-6.776-15.721c-2.44-7.048-9.622-31.579-9.622-31.579s-.033.4-.092,1.123c-.505,6.116-2.89,35.242-2.89,37.906,0,2.453,1.28,41.764,1.811,56.093.005.091.011.182.016.269.108,2.955.185,4.778.206,4.9.4,2-.634,2.8-2.271,2.955-2.087.186-5.161-.684-7.557-1.529-2.044-.721-3.588-1.426-3.588-1.426a67.213,67.213,0,0,1-2.261-6.456c-.033-.116-.06-.227-.087-.339-.086-.319-.162-.634-.228-.933-.677-3.116-4.879-25.206-5.556-31.438s.77-22.226.77-22.226a182.262,182.262,0,0,1-2.667-18.7c-.678-8.809-1.491-27.509-1.209-28.682l4.12-6.141a45.058,45.058,0,0,0,9.893,6.908c3.231,1.355,4.044,1.263,4.044,1.263l5.947-12.741.894,2.507,2.559,7.164a46.092,46.092,0,0,0,19.6-6.327l3.073,13.375,3.568,13.281c1.382,6.07,2.7,11.813,3.588,15.63,2.212,9.443,9.611,45.286,12.723,60.414.022.091.038.187.054.274.835,4.035,1.345,6.53,1.345,6.53Z" fill="#eb5b52"/>
    <path id="Trazado_7378" data-name="Trazado 7378" d="M602.341,1407.021s-6.641,1.761-7.318,1.9a39.717,39.717,0,0,0-.407,6.708l20.667,1.02-12.942-9.626Z" fill="#5e1a47"/>
    <path id="Trazado_7379" data-name="Trazado 7379" d="M595.023,1408.919c.677-.137,7.318-1.9,7.318-1.9l-7.318,1.9Z" fill="#f8be90"/>
    <path id="Trazado_7380" data-name="Trazado 7380" d="M643.2,1228.889c-.089-.153-.168-.3-.245-.443.075.145.156.29.245.443Z" fill="#f8be90"/>
    <path id="Trazado_7381" data-name="Trazado 7381" d="M651.633,1235.594a.214.214,0,0,0-.05,0,.214.214,0,0,1,.05,0Z" fill="#f8be90"/>
    <path id="Trazado_7382" data-name="Trazado 7382" d="M651.583,1235.59a6.68,6.68,0,0,1-.694-.1,6.641,6.641,0,0,0,.694.1Z" fill="#f8be90"/>
    <path id="Trazado_7383" data-name="Trazado 7383" d="M642.767,1228.052c.06.129.121.257.192.394-.069-.133-.132-.265-.192-.394Z" fill="#f8be90"/>
    <path id="Trazado_7384" data-name="Trazado 7384" d="M652.3,1235.606a6.124,6.124,0,0,1-.663-.012,6.128,6.128,0,0,0,.663.012Z" fill="#f8be90"/>
    <path id="Trazado_7385" data-name="Trazado 7385" d="M651.351,1239.472s-.835.448-3.816-.5a5.914,5.914,0,0,1-3.925-3.348,1.182,1.182,0,0,1-.07-.444c.048-.418-.543-3.211-.776-5.2-.048-.4-.081-.775-.092-1.086a2.022,2.022,0,0,1,.082-.849l.016.012c.054.125.119.253.19.39s.157.29.243.443a19.517,19.517,0,0,0,5.216,5.611,7.47,7.47,0,0,0,2.471.994,6.437,6.437,0,0,0-.206,1.567,4.727,4.727,0,0,0,.667,2.411Z" fill="#f8be90"/>
    <path id="Trazado_7386" data-name="Trazado 7386" d="M625.967,1285.865l3.148,2.084c.208-1.405.421-3.286.626-5.437a11.244,11.244,0,0,1-3.774,3.353Z" fill="#f8be90"/>
    <path id="Trazado_7387" data-name="Trazado 7387" d="M629.741,1282.512c.025-.037.021-.041,0-.033l0,.033Z" fill="#f8be90"/>
    <path id="Trazado_7388" data-name="Trazado 7388" d="M628.975,1277.565a8.994,8.994,0,0,1-2.285,3.6,8.344,8.344,0,0,1-4.142,2.246l3.419,2.453a11.244,11.244,0,0,0,3.774-3.353l0-.033c.09-.949.178-1.947.263-2.983l-1.032-1.931Z" fill="#6b63a9"/>
    <path id="Trazado_7389" data-name="Trazado 7389" d="M672.677,1297.517a7.831,7.831,0,0,1-4.807-1.19c.017.92.56,4.894,1.1,5.167.078.042.194.092.323.146.738.31,2.146.824,2.838,1.209.626.348,2.532,0,3.5-.385a1.254,1.254,0,0,0,.563-.34v-5.465c-.829.675-1.873.766-3.522.858Z" fill="#6b63a9"/>
    <path id="Trazado_7390" data-name="Trazado 7390" d="M693.275,1408.036a30.42,30.42,0,0,0-3.924-5.3,1.925,1.925,0,0,0,.133.675c.335.394,3.045,5.5,2.71,5.909a6.266,6.266,0,0,1-3.017,1.537c-1.119.116-3.286-1.674-4.168-2.958a10.549,10.549,0,0,1-.692-1.409c-.121.866,1.574,4.322,3.878,6.149s4.537,3.12,6.1,2.3.066-4.674-1.02-6.912Z" fill="#5e1a47"/>
    <path id="Trazado_7391" data-name="Trazado 7391" d="M650.858,1397.4s.008-.145.023-.406c0,0-.013.158-.037.423a.061.061,0,0,1,.014-.017Z" fill="#f8be90"/>
    <path id="Trazado_7392" data-name="Trazado 7392" d="M650.881,1396.993Z" fill="#f8be90"/>
    <path id="Trazado_7393" data-name="Trazado 7393" d="M645.573,1409.731c-1.627.406-5.692-.472-5.692-.472-1.356,1.355-4.473,6.14-4.27,7.044s2.914.2,10.639-5.147v4.538h1.762s2.758-7.861,2.869-8.673a3.449,3.449,0,0,0-.739-1.931h0a6.232,6.232,0,0,0,.377.845s-3.32,3.39-4.946,3.8Z" fill="#5e1a47"/>
    <path id="Trazado_7394" data-name="Trazado 7394" d="M650.045,1404.046c.229-.464.669-5.184.8-6.63-2.176,2.685-7.44,1.2-7.44,1.2l-.088-.365a12.851,12.851,0,0,1-.522,6.058,25.2,25.2,0,0,1-2.913,4.948s4.065.878,5.692.472,4.946-3.8,4.946-3.8a6.232,6.232,0,0,1-.377-.845,1.537,1.537,0,0,1-.1-1.044Z" fill="#f8be90"/>
    <path id="Trazado_7395" data-name="Trazado 7395" d="M689.484,1403.416a1.925,1.925,0,0,1-.133-.675c-.244-2.263-.348-9.344-.348-9.344h0c-.037.489-.062.75-.062.75-5.71,4.877-8.267,2.71-8.267,2.71.274.77,2.387,6.741,3.643,9.638a10.549,10.549,0,0,0,.692,1.409c.882,1.284,3.049,3.074,4.168,2.958a6.266,6.266,0,0,0,3.017-1.537c.335-.406-2.375-5.515-2.71-5.909Z" fill="#f8be90"/>
    <path id="Trazado_7396" data-name="Trazado 7396" d="M652.11,1366.728c0,8.7-1.057,27.3-1.231,30.265,0,0-.01.158-.037.423a4.01,4.01,0,0,1-.477.489c-2.38,2.01-6.961.713-6.961.713s-.032-.129-.087-.369c-1.257-5.25-15.937-66.746-16.663-70.467,0,0,5.2,1.562,15.493,1.168,1.328-.049,2.737-.136,4.239-.261.216-.016.428-.037.639-.054l2.537,22.144a47.749,47.749,0,0,1,2.515,13.687c.022.642.033,1.4.033,2.262Z" fill="#fdc954"/>
    <path id="Trazado_7397" data-name="Trazado 7397" d="M689,1393.392c-.037.494-.062.755-.062.755-.054.049-.116.1-.17.141-5.59,4.694-8.1,2.569-8.1,2.569s-10.3-24.8-12.8-31.443c-.791-2.1-2.154-6.319-3.716-11.262,0-.008-.005-.012-.005-.017-2.975-9.435-6.683-21.522-8.586-26.664,1.269-.24,2.451-.5,3.551-.754a49.046,49.046,0,0,0,10.219-3.448,29.729,29.729,0,0,0,2.586-1.512c1.322-.862,2.382-1.649,2.382-1.649l1.9,23.08s2.3,2.847,8.4,18.4c5.341,13.628,4.653,28.359,4.4,31.8Z" fill="#fdc954"/>
    <path id="Trazado_7398" data-name="Trazado 7398" d="M673.991,1318.073a17.673,17.673,0,0,0-2.308-6.369c-4.517,4.517-18.25,7.318-30.447,7.5s-16.353-.812-16.353-.812c-.452,1.989,1.769,9.4,1.769,9.4s6.633,1.989,19.734.9c.216-.016.426-.037.639-.058,3.174-.282,6.02-.692,8.538-1.164a54.685,54.685,0,0,0,13.77-4.2,41.724,41.724,0,0,0,4.968-3.165s-.082-.833-.31-2.031Z" fill="#6b63a9"/>
    <path id="Trazado_7399" data-name="Trazado 7399" d="M663.109,1236.762c-4.928,8.532-12.668,8.851-17.661,7.227a12.7,12.7,0,0,1-7.73-7.8,3.8,3.8,0,0,0,2.574-.567,3.637,3.637,0,0,0,.987-1,6.792,6.792,0,0,1,2.331,1,5.914,5.914,0,0,0,3.925,3.348c2.981.949,3.816.5,3.816.5s.005-.008.005,0a5,5,0,0,0,.83.991c1.93,1.761,6.131,1.558,7.416.472s1.9-3.522,2.71-3.8a4.148,4.148,0,0,0,.765-.4l.032.025Z" fill="#9f99cb"/>
    <path id="Trazado_7400" data-name="Trazado 7400" d="M670.4,1243.972c-2.494,3.323-7.179,9.6-9.559,12.891-3.344,4.608-13.785,19.89-13.785,19.89s-4.1-8.959-5.779-12.572c-1.442-3.116-10.169-20-13.937-26.4a10.555,10.555,0,0,1,4.586-3.145,21.292,21.292,0,0,1,2.168-.353,5.7,5.7,0,0,0,1.388,1.136c5.784,8.606,11.574,26.772,11.574,26.772s4.3-5.694,8.18-10.844c2.748-3.638,7.644-9.58,10.279-12.75a19.521,19.521,0,0,1,4.359,4.442c.162.282.336.6.526.932Z" fill="#fef6b8"/>
    <path id="Trazado_7401" data-name="Trazado 7401" d="M631.3,1260.294l-.26.709-2.8,3.725c-1.583-3.236-5.421-10.239-10.55-13.861,1.247-1.951,3.047-4.761,5.037-7.5,4.087,4.5,8.982,12.452,8.57,16.927Z" fill="#fdc954"/>
    <path id="Trazado_7402" data-name="Trazado 7402" d="M676.266,1260.725a45.545,45.545,0,0,0-8.4,7.251,27.132,27.132,0,0,0-5.406,9.875l-1.073-2.375.634-5.4,1.084-5.449c1.985-4.33,6.891-8.979,11.271-11.262a60.763,60.763,0,0,1,1.728,6.568c.054.261.108.526.158.791Z" fill="#fdc954"/>
    <path id="Trazado_7403" data-name="Trazado 7403" d="M554.268,1216.777v.009a8.027,8.027,0,0,1-9.991,4.118,11.62,11.62,0,0,0-.992-1.649,5.193,5.193,0,0,0,.58.266,9.394,9.394,0,0,0,1.139.4,6.224,6.224,0,0,0,5.838-1,8.995,8.995,0,0,0,3.35-5.006c.016-.07.032-.145.049-.22,0,.779.022,1.944.027,3.087Z" fill="#5e1a47"/>
    <path id="Trazado_7404" data-name="Trazado 7404" d="M565.467,1239.775l-14.235,29.581c.011,2.834,2.228,20.292,4.239,25.927a.135.135,0,0,1-.076.174h-.005a.076.076,0,0,1-.043.013.147.147,0,0,1-.131-.092c-.113-.319-.227-.683-.341-1.073-2.033-6.907-4.131-24.161-3.9-25.338.124-.626.59-3.9,1.083-7.364.6-4.16,1.269-8.879,1.562-10.524.043-.257.086-.547.125-.862a.142.142,0,0,1-.087-.033c-.065-.063-6.777-6.3-7.308-6.7-.444-.344-4.282-13.011-4.927-17.039v-.008a1.263,1.263,0,0,1,.211-.344c.428,3.4,4.418,16.695,4.884,17.18.515.389,6.522,5.971,7.259,6.655.206-1.931.293-4.7.369-7.206.027-.883.054-1.741.086-2.536a.1.1,0,0,1-.081-.054c-.081-.129-8.018-13.082-8.684-14.209a3.836,3.836,0,0,1-.575-2.221.13.13,0,0,1,.152-.12.138.138,0,0,1,.119.153,3.579,3.579,0,0,0,.537,2.047c.618,1.053,7.5,12.278,8.549,13.985.032-.891.081-1.694.135-2.329a.147.147,0,0,1,.147-.124.14.14,0,0,1,.124.149c-.114,1.277-.173,3.212-.238,5.267a75.45,75.45,0,0,1-.532,8.4c-.292,1.641-.965,6.357-1.555,10.517-.434,3.033-.813,5.718-1,6.878l13.866-28.815c-.336-.9-4.656-12.414-5.648-14.792-.032-.075-.06-.15-.092-.224l.444.356c1.182,2.913,5.524,14.5,5.567,14.623a.134.134,0,0,1,0,.1Z" fill="#5e1a47"/>
    <path id="Trazado_7405" data-name="Trazado 7405" d="M578.081,1298.047a.137.137,0,0,1-.134-.124c-.006-.054-.616-5.7-1.284-8.3s-3.287-8.863-3.314-8.926a.14.14,0,0,1-.009-.074c.019-.112,1.832-11.316,2.1-18.075.128-3.211.33-7.562.508-11.4.2-4.31.373-8.035.373-8.718a33.65,33.65,0,0,1,2.995-9.817.136.136,0,0,1,.244.12,34.028,34.028,0,0,0-2.968,9.7c0,.687-.173,4.417-.373,8.73-.179,3.841-.381,8.188-.508,11.4-.26,6.571-1.978,17.337-2.1,18.07.216.514,2.666,6.406,3.312,8.926.672,2.622,1.284,8.283,1.29,8.337a.136.136,0,0,1-.12.149.021.021,0,0,1-.015,0Z" fill="#5e1a47"/>
    <path id="Trazado_7406" data-name="Trazado 7406" d="M573.946,1277.7a.133.133,0,0,1-.121-.07.139.139,0,0,1,.059-.186c.24-.121,5.906-3.025,7.327-3.564a.136.136,0,0,1,.175.079.14.14,0,0,1-.079.178c-1.406.53-7.241,3.518-7.3,3.551a.168.168,0,0,1-.062.012Z" fill="#5e1a47"/>
    <path id="Trazado_7407" data-name="Trazado 7407" d="M573.655,1279.633a.14.14,0,0,1-.127-.092.136.136,0,0,1,.081-.174c.245-.087,6.012-2.175,7.429-2.444a.135.135,0,0,1,.159.107.137.137,0,0,1-.108.158c-1.4.265-7.328,2.411-7.388,2.436a.177.177,0,0,1-.046.009Z" fill="#5e1a47"/>
    <path id="Trazado_7408" data-name="Trazado 7408" d="M528.367,1270.637c-.016.112-.038.223-.054.323h-.006c-2.532,1.085-6.31,2.532-8.9,2.772H519.4a.133.133,0,0,1-.01-.265c2.607-.245,6.467-1.741,8.977-2.83Z" fill="#5e1a47"/>
    <path id="Trazado_7409" data-name="Trazado 7409" d="M528.058,1274a28.546,28.546,0,0,0-4.483,4.7.141.141,0,0,1-.109.054.105.105,0,0,1-.081-.033.133.133,0,0,1-.027-.187,27.762,27.762,0,0,1,4.635-4.819c.016.091.038.187.065.29Z" fill="#5e1a47"/>
    <path id="Trazado_7410" data-name="Trazado 7410" d="M528.334,1275.016a28.987,28.987,0,0,0-3.193,4.277.133.133,0,0,1-.119.066.124.124,0,0,1-.07-.021.139.139,0,0,1-.044-.186,27.674,27.674,0,0,1,3.339-4.43c.027.1.06.191.087.294Z" fill="#5e1a47"/>
    <path id="Trazado_7411" data-name="Trazado 7411" d="M527.125,1301.358a.117.117,0,0,1-.065-.017.136.136,0,0,1-.053-.186c.136-.241,3.351-5.992,4.837-7.616,1.31-1.434,2.677-3.013,2.974-3.357-.413-.824-3.824-7.641-4.836-10.3a.133.133,0,0,1,.078-.174.131.131,0,0,1,.175.075c1.068,2.8,4.828,10.276,4.865,10.355a.134.134,0,0,1-.018.149c-.015.017-1.562,1.815-3.038,3.431-1.464,1.6-4.767,7.508-4.8,7.566a.132.132,0,0,1-.118.071Z" fill="#5e1a47"/>
    <path id="Trazado_7412" data-name="Trazado 7412" d="M555.213,1329.775H555.2a.133.133,0,0,1-.124-.145l1.287-15.862c0-.07-.372-8.615-.306-10.765a.135.135,0,0,1,.14-.133.138.138,0,0,1,.132.141c-.067,2.138.3,10.674.3,10.761l-1.288,15.879a.136.136,0,0,1-.135.124Z" fill="#5e1a47"/>
    <path id="Trazado_7413" data-name="Trazado 7413" d="M543.252,1356.879a.137.137,0,0,1-.032-.27,4.7,4.7,0,0,1,.77-.037c1.209,0,3.46-.017,4.159-1.231a.134.134,0,0,1,.185-.049.136.136,0,0,1,.05.186c-.777,1.351-3.129,1.359-4.393,1.367a4.164,4.164,0,0,0-.706.029.076.076,0,0,1-.033.005Z" fill="#5e1a47"/>
    <path id="Trazado_7414" data-name="Trazado 7414" d="M582.8,1353.916c-.374,0-.629-.017-.667-.021a.135.135,0,1,1,.021-.269c.034,0,3.453.248,4.348-1.156a.132.132,0,0,1,.187-.042.134.134,0,0,1,.041.187c-.73,1.148-2.838,1.3-3.93,1.3Z" fill="#5e1a47"/>
    <path id="Trazado_7415" data-name="Trazado 7415" d="M555.379,1408.765a28.151,28.151,0,0,1-15.471-1.558c-.033-.116-.06-.227-.087-.339a27.8,27.8,0,0,0,15.542,1.628c.005.091.011.182.016.269Z" fill="#5e1a47"/>
    <path id="Trazado_7416" data-name="Trazado 7416" d="M601,1400.491a86.218,86.218,0,0,0-9.009,4.508c-.054-.071-.1-.145-.158-.224a89.573,89.573,0,0,1,9.113-4.558c.022.091.038.187.054.274Z" fill="#5e1a47"/>
    <path id="Trazado_7417" data-name="Trazado 7417" d="M639.179,1352.37a5.883,5.883,0,0,1-2.9-.8.135.135,0,0,1-.04-.187.132.132,0,0,1,.187-.041,5.118,5.118,0,0,0,5.274,0,.136.136,0,0,1,.148.228,4.824,4.824,0,0,1-2.673.8Z" fill="#fef6b8"/>
    <path id="Trazado_7418" data-name="Trazado 7418" d="M666.611,1347.572a2.044,2.044,0,0,1-1.417-.564.132.132,0,0,1,0-.19.135.135,0,0,1,.19,0,1.756,1.756,0,0,0,1.277.476,3.276,3.276,0,0,0,2.25-1.35.136.136,0,0,1,.19-.017.143.143,0,0,1,.017.195,3.529,3.529,0,0,1-2.457,1.446Z" fill="#fef6b8"/>
    <path id="Trazado_7419" data-name="Trazado 7419" d="M676.2,1310.88c-.99,1.757-1.259,1.715-1.33,1.574v-.008a.3.3,0,0,1-.025-.112c-.074.083-.174.2-.286.332-.584.683-1.566,1.856-1.918,1.794a.2.2,0,0,1-.145-.1c-.133-.228.091-.77.141-.878-.067.124-.137.24-.2.34a.022.022,0,0,1-.009.016c-.745,1.161-1.6,1.285-1.852,1.1-.1-.078-.016-.393.137-.746.19-.455.485-.986.58-1.16a4.094,4.094,0,0,1-.655.817c-.008,0-.012.016-.02.02-.485.444-.995.655-1.256.394-.41-.41.746-4.135,1.214-5.917s-.128-3.025-.779-2.3-2.266,1.637-2.474,1.028a.431.431,0,0,1-.012-.112c0-.866,1.852-4.537,1.989-5.32.742.314,2.146.824,2.838,1.2.626.348,2.532,0,3.5-.381.526,1.152,1.918,6.033.563,8.416Z" fill="#f8be90"/>
    <path id="Trazado_7420" data-name="Trazado 7420" d="M670.709,1314.186c.19-.455.485-.986.58-1.16a4.094,4.094,0,0,1-.655.817,8.33,8.33,0,0,0,1.6-5.255.137.137,0,0,1,.132-.136.135.135,0,0,1,.137.136,8.481,8.481,0,0,1-1.794,5.6Z" fill="#eb5b52"/>
    <path id="Trazado_7421" data-name="Trazado 7421" d="M673.854,1309.894a14.379,14.379,0,0,1-1.359,4.462c-.133-.228.091-.77.141-.878-.067.124-.137.24-.2.34a12.79,12.79,0,0,0,1.147-3.92.14.14,0,0,1,.133-.141h0a.143.143,0,0,1,.137.137Z" fill="#eb5b52"/>
    <path id="Trazado_7422" data-name="Trazado 7422" d="M675.159,1309.483a24.19,24.19,0,0,1-.29,2.963.3.3,0,0,1-.025-.112c-.074.083-.174.2-.286.332a23.084,23.084,0,0,0,.332-3.191.146.146,0,0,1,.141-.132.137.137,0,0,1,.128.14Z" fill="#eb5b52"/>
    <path id="Trazado_7423" data-name="Trazado 7423" d="M660.548,1268.652a.118.118,0,0,1-.088-.033.135.135,0,0,1-.015-.191c3.572-4.189,4.206-11.287,3.074-14.333a.135.135,0,0,1,.253-.095c1.156,3.108.514,10.342-3.121,14.606a.143.143,0,0,1-.1.046Z" fill="#fef6b8"/>
    <path id="Trazado_7424" data-name="Trazado 7424" d="M624.508,1269.737a.131.131,0,0,1-.075-.024.135.135,0,0,1-.038-.187,44.09,44.09,0,0,1,4.343-5.44.136.136,0,1,1,.2.19,43.864,43.864,0,0,0-4.312,5.4.13.13,0,0,1-.113.062Z" fill="#fef6b8"/>
    <path id="Trazado_7425" data-name="Trazado 7425" d="M623.821,1275.92a.144.144,0,0,1-.109-.054.138.138,0,0,1,.028-.191,10.528,10.528,0,0,0,3.96-7.628.14.14,0,0,1,.133-.141h0a.137.137,0,0,1,.135.133,10.836,10.836,0,0,1-4.069,7.856.141.141,0,0,1-.081.025Z" fill="#fef6b8"/>
    <path id="Trazado_7426" data-name="Trazado 7426" d="M625.829,1282.023a.134.134,0,0,1-.067-.252c1.657-.941,3.311-2.433,1.96-8.279a.136.136,0,0,1,.1-.162.134.134,0,0,1,.163.1c1.253,5.419.07,7.346-2.09,8.573a.132.132,0,0,1-.067.016Z" fill="#fef6b8"/>
    <path id="Trazado_7427" data-name="Trazado 7427" d="M621.237,1283.536a6.947,6.947,0,0,1-1.406-.158.131.131,0,0,1-.106-.157.139.139,0,0,1,.16-.108c3.112.63,4.093-.808,5.448-2.8.125-.182.252-.369.385-.559a.135.135,0,1,1,.222.153c-.132.191-.259.377-.382.56-1.146,1.682-2.089,3.066-4.321,3.066Z" fill="#fef6b8"/>
    <path id="Trazado_7428" data-name="Trazado 7428" d="M631.207,1262.42c-.006,0-.013,0-.02,0a.134.134,0,0,1-.114-.154,42.939,42.939,0,0,0-.607-14.581.135.135,0,1,1,.262-.066,43.218,43.218,0,0,1,.613,14.689.137.137,0,0,1-.134.116Z" fill="#fef6b8"/>
    <path id="Trazado_7429" data-name="Trazado 7429" d="M668.409,1287.083a.149.149,0,0,1-.045-.008c-1.761-.63-3.527-2.843-4.844-6.079a.134.134,0,0,1,.074-.174.135.135,0,0,1,.178.074c1.285,3.162,2.992,5.321,4.683,5.926a.134.134,0,0,1,.083.17.137.137,0,0,1-.129.091Z" fill="#fef6b8"/>
    <path id="Trazado_7430" data-name="Trazado 7430" d="M648.147,1216.748c3.253-.816,5.512,1.082,5.466,1.853s-.1.948-1.429,0a19.776,19.776,0,0,0-4.037-1.853Z" fill="#eb5b52"/>
    <path id="Trazado_7431" data-name="Trazado 7431" d="M661.7,1220.316c-.949-.634-3.3-.725-3.84,0s.452.858,1.491.5a12.417,12.417,0,0,1,2.349-.5Z" fill="#eb5b52"/>
    <path id="Trazado_7432" data-name="Trazado 7432" d="M656.324,1229.577a.144.144,0,0,1-.1-.05l-1.9-2.349a.136.136,0,0,1,.02-.191.134.134,0,0,1,.191.021l1.692,2.093c.157-1.447.784-7.268.824-7.625a.135.135,0,1,1,.269.029c-.046.406-.858,7.952-.858,7.952a.13.13,0,0,1-.1.112.128.128,0,0,1-.038.008Z" fill="#ce6a15"/>
    <path id="Trazado_7433" data-name="Trazado 7433" d="M649.457,1222.214c.579.1.5-2.192,0-2.408s-.767,2.271,0,2.408Z" fill="#5e1a47"/>
    <path id="Trazado_7434" data-name="Trazado 7434" d="M658.537,1224.112c.678,0,.678-2.209,0-2.234s-.677,2.234,0,2.234Z" fill="#5e1a47"/>
    <path id="Trazado_7435" data-name="Trazado 7435" d="M653.674,1231.84a4.418,4.418,0,0,1-3.306-1.616l-.052-.059a.134.134,0,0,1,0-.19.138.138,0,0,1,.192,0l.058.062a3.933,3.933,0,0,0,4.534,1.26.135.135,0,1,1,.094.253,4.382,4.382,0,0,1-1.523.286Z" fill="#ea5443"/>
    <path id="Trazado_7436" data-name="Trazado 7436" d="M650.684,1237.061a4.3,4.3,0,0,0,.06.741c-3.063-1.28-6.586-6.128-8.072-8.909a2.022,2.022,0,0,1,.082-.849l.016.012c.054.125.119.253.19.39s.157.29.243.443a19.517,19.517,0,0,0,5.216,5.611,7.47,7.47,0,0,0,2.471.994,6.437,6.437,0,0,0-.206,1.567Z" fill="#5e1a47"/>
    <path id="Trazado_7437" data-name="Trazado 7437" d="M663.644,1231.317a.127.127,0,0,1-.1-.049,7.161,7.161,0,0,1-1.323-5.967.138.138,0,0,1,.163-.1.136.136,0,0,1,.1.162,6.872,6.872,0,0,0,1.262,5.731.133.133,0,0,1-.013.19.128.128,0,0,1-.091.037Z" fill="#f6b3b7"/>
    <path id="Trazado_7438" data-name="Trazado 7438" d="M638.458,1224.244a.134.134,0,0,1-.085-.24,8.8,8.8,0,0,0,2.329-3.646.136.136,0,0,1,.254.095,8.857,8.857,0,0,1-2.414,3.762.128.128,0,0,1-.084.029Z" fill="#f6b3b7"/>
    <path id="Trazado_7439" data-name="Trazado 7439" d="M650.413,1210.873a.131.131,0,0,1-.125-.083.136.136,0,0,1,.073-.178,11.414,11.414,0,0,0,3.693-2.719.137.137,0,0,1,.191-.012.135.135,0,0,1,.012.191,11.635,11.635,0,0,1-3.792,2.792.1.1,0,0,1-.052.009Z" fill="#f6b3b7"/>
    <path id="Trazado_7440" data-name="Trazado 7440" d="M637.035,1228.189a.138.138,0,0,1-.111-.058.131.131,0,0,1,.032-.186,14.625,14.625,0,0,0,2.581-2.52.136.136,0,0,1,.213.17,14.527,14.527,0,0,1-2.637,2.569.133.133,0,0,1-.078.025Z" fill="#f6b3b7"/>
    <path id="Trazado_7441" data-name="Trazado 7441" d="M636.266,1232.739a.134.134,0,0,1-.126-.087.133.133,0,0,1,.078-.174,13.209,13.209,0,0,0,4.287-3.129.133.133,0,0,1,.191-.008.135.135,0,0,1,.005.191,13.176,13.176,0,0,1-4.386,3.2.169.169,0,0,1-.049.009Z" fill="#f6b3b7"/>
    <path id="Trazado_7442" data-name="Trazado 7442" d="M660.164,1235.134a.138.138,0,0,1-.13-.1,13.788,13.788,0,0,1-.231-4.976.131.131,0,0,1,.152-.12.139.139,0,0,1,.118.153,13.563,13.563,0,0,0,.221,4.869.137.137,0,0,1-.093.17c-.013,0-.025,0-.037,0Z" fill="#f6b3b7"/>
    <path id="Trazado_7443" data-name="Trazado 7443" d="M664.68,1222.351a.131.131,0,0,1-.108-.058.134.134,0,0,1,.029-.187c.883-.626,2-3.257,2.308-5.416a.139.139,0,0,1,.153-.116.135.135,0,0,1,.116.154c-.29,2.038-1.383,4.864-2.419,5.6a.142.142,0,0,1-.079.025Z" fill="#f6b3b7"/>
    <path id="Trazado_7444" data-name="Trazado 7444" d="M662.911,1215.754a.115.115,0,0,1-.064-.017,6.536,6.536,0,0,1-3.159-4.114.132.132,0,0,1,.106-.158.134.134,0,0,1,.159.1,6.36,6.36,0,0,0,3.021,3.928.135.135,0,0,1,.056.182.137.137,0,0,1-.119.075Z" fill="#f6b3b7"/>
    <path id="Trazado_7445" data-name="Trazado 7445" d="M663.109,1212.228a.136.136,0,0,1-.131-.1c-.019-.07-.034-.149-.051-.236-.188-.924-.539-2.648-5.766-3.506a.134.134,0,1,1,.043-.265c5.413.887,5.787,2.731,5.988,3.717.016.083.031.158.048.224a.132.132,0,0,1-.1.162.093.093,0,0,1-.033,0Z" fill="#f6b3b7"/>
    <path id="Trazado_7446" data-name="Trazado 7446" d="M664.05,1217.378a.093.093,0,0,1-.046-.008.131.131,0,0,1-.082-.17,3.321,3.321,0,0,0-.4-2.291.136.136,0,0,1,.06-.183.139.139,0,0,1,.183.062,3.51,3.51,0,0,1,.411,2.5.138.138,0,0,1-.129.091Z" fill="#f6b3b7"/>
    <path id="Trazado_7447" data-name="Trazado 7447" d="M543.976,1213.313a.078.078,0,0,1-.042-.008.131.131,0,0,1-.094-.12l-.406-7.807a.137.137,0,0,1,.128-.145.136.136,0,0,1,.142.129l.388,7.454,1.118-1.392a.134.134,0,1,1,.211.166l-1.34,1.674a.132.132,0,0,1-.1.049Z" fill="#ce6a15"/>
    <path id="Trazado_7448" data-name="Trazado 7448" d="M533.178,1216.036a.127.127,0,0,1-.067-.017c-1.677-.965-.523-4.239.827-7.309a.136.136,0,0,1,.179-.071.134.134,0,0,1,.07.178c-1.3,2.963-2.432,6.108-.941,6.966a.137.137,0,0,1,.05.186.139.139,0,0,1-.118.067Z" fill="#fef6b8"/>
    <path id="Trazado_7449" data-name="Trazado 7449" d="M556.489,1214.246a.153.153,0,0,1-.072-.021.137.137,0,0,1-.044-.187c0-.008.19-.555-.737-3.758a.135.135,0,1,1,.26-.074c.962,3.323.758,3.895.708,3.977a.133.133,0,0,1-.115.063Z" fill="#fef6b8"/>
    <path id="Trazado_7450" data-name="Trazado 7450" d="M554.365,1213.019c-.005.046-.016.095-.021.141a2.28,2.28,0,0,1-1.7.021c-2.076-.68-3.22-4.339-.271-5.2a2.563,2.563,0,0,1,2.076.4,24.085,24.085,0,0,1-.087,4.641Z" fill="#f49f7f"/>
    <path id="Trazado_7451" data-name="Trazado 7451" d="M540.461,1216.827a20.385,20.385,0,0,1-2.288-4.152c.965-1.463,3.209-.816,4.131,1.015.965,1.915-.288,3.025-1.843,3.137Z" fill="#f49f7f"/>
    <path id="Trazado_7452" data-name="Trazado 7452" d="M643.63,1226.279c.661,1.322,3.94,1.761,4.455,0s-.592-4.517-2.637-4.02-2.36,2.934-1.818,4.02Z" fill="#f49f7f"/>
    <path id="Trazado_7453" data-name="Trazado 7453" d="M659.114,1228.483a44.573,44.573,0,0,1-2.64,4.173,3.181,3.181,0,0,1-.466-1.765,2.894,2.894,0,0,1,3.106-2.408Z" fill="#f49f7f"/>
    <path id="Trazado_7454" data-name="Trazado 7454" d="M521.975,1240.056a32.743,32.743,0,0,1,5.948,8.607c1.371,2.979,2.566,10.5,2.566,10.5v9.9l.272,12,1.388,3.033s.417-17.208,0-22.019-1.229-9.688-1.974-11.312-3.563-6.1-3.563-6.1l-4.637-4.608Z" fill="#5e1a47"/>
    <path id="Trazado_7455" data-name="Trazado 7455" d="M554.162,1268.515c-1.276-.182-1.491,2.78,0,2.71s.949-2.573,0-2.71Z" fill="#5e1a47"/>
    <path id="Trazado_7456" data-name="Trazado 7456" d="M563.852,1266.891a1.309,1.309,0,0,0,0,2.573c1.355.07,1.491-2.71,0-2.573Z" fill="#5e1a47"/>
    <path id="Trazado_7457" data-name="Trazado 7457" d="M556.636,1281.617c-1.119-.02-1.592,2.408,0,2.478s1.118-2.457,0-2.478Z" fill="#5e1a47"/>
    <path id="Trazado_7458" data-name="Trazado 7458" d="M566.02,1279.7c-1.49,0-1.219,2.913,0,2.776s1.491-2.772,0-2.776Z" fill="#5e1a47"/>
    <path id="Trazado_7459" data-name="Trazado 7459" d="M555.829,1296.68l-6.841,10.235,5.947-12.742.894,2.507Z" fill="#5e1a47"/>
    <path id="Trazado_7460" data-name="Trazado 7460" d="M595.7,1408.745l-.672.174c-.678.137-13.96-19.923-17.754-28.053s-4.337-20.192-4.337-20.192a159.383,159.383,0,0,1-6.776-15.721c-2.44-7.048-9.622-31.579-9.622-31.579s-.033.4-.092,1.123l-.125-1.831c.217.708,11.286,27.949,15.8,36.079s5.486,11.747,5.486,11.747.3,5.424,3.458,17.706c2.543,9.886,11.3,25.011,14.632,30.547Z" fill="#5e1a47"/>
    <path id="Trazado_7461" data-name="Trazado 7461" d="M652.11,1366.728c0,8.7-1.057,27.3-1.231,30.265,0,0-.01.158-.037.423a4.01,4.01,0,0,1-.477.489c-.2-9.564-.933-41.4-2.082-45.539-1.263-4.541-2.293-10.84-6.136-23.416,1.328-.049,2.737-.136,4.239-.261.216-.016.428-.037.639-.054l2.537,22.144a47.749,47.749,0,0,1,2.515,13.687c.022.642.033,1.4.033,2.262Z" fill="#5e1a47"/>
  </g>
</svg>
