<svg xmlns="http://www.w3.org/2000/svg" width="175.481" height="238.61" viewBox="0 0 175.481 238.61">
  <g id="Grupo_10763" data-name="Grupo 10763" transform="translate(-741.535 -1181.971)">
    <path id="Trazado_7466" data-name="Trazado 7466" d="M908.319,1393.479a65.761,65.761,0,0,1-6.489,1.608,29.21,29.21,0,0,1-6.493.506,74.532,74.532,0,0,1-4.152-14.524c-1.778-9.145-3.556-19.185-3.556-20.71a73.7,73.7,0,0,0-2.287-12.957c-1.119-3.477-8.412-32.271-8.755-33.617l-.013-.05.725,38.242s3.087,11.813,3.087,19.819-1.483,27.1-1.483,27.1-.978.278-2.337.531a20.291,20.291,0,0,1-5.031.406,40.832,40.832,0,0,1-8.3-2.205s-2.54-17.954-3.684-25.069c-.323-2-.928-6.074-1.674-11.2-1.5-10.276-3.572-24.775-5.1-35.209-.418-2.842-.791-5.391-1.106-7.462a70.023,70.023,0,0,1-.758-10.463c0-8.988,1.578-17.08,3.319-21.8,0,0,3.24.584,8.241,1.057.083.012.17.02.249.029,2.213.2,4.749.385,7.5.484a33.368,33.368,0,0,0,3.344-.049c.083,0,.17-.009.252-.017,1.244-.083,2.483-.228,3.7-.414.087-.013.174-.025.252-.042,1.55-.244,3.054-.559,4.467-.911.087-.017.17-.038.249-.058a37.582,37.582,0,0,0,8.954-3.257,35.7,35.7,0,0,1,1.931,4.288,86.467,86.467,0,0,1,3.187,10.807c.75,3.162,1.4,6.348,2,9.294,1.653,8.134,6.352,44.723,6.352,44.723l3.415,41.121Z" fill="#fdc954"/>
    <path id="Trazado_7467" data-name="Trazado 7467" d="M780.57,1223.15a3.28,3.28,0,0,0,2.117-2.623c.17-1.951.68-5,.68-5a3.188,3.188,0,0,0,3.555-.932c2.8,1.355,3.812.845,7.367.253s6.692-3.895,6.692-3.895c1.1,1.1,2.967,6.182,1.948,13.719s-6.265,12.365-11.52,11.689-6.774-7.96-6.774-7.96c-2.288,1.1-4.741-2.966-4.065-5.254Zm5.664,13.277,8.818.783s9.891,3.232,15.253,5.291a1.881,1.881,0,0,0-1.869-2.793,8.553,8.553,0,0,0,.592-6.9c-1.355-3.725-3.555-7.45-3.642-8.3s.253-7.537-1.272-11.349a7.252,7.252,0,0,0,.34-7.028c-1.948-3.559-5.93-3.389-7.79-2.71,0,0-4.235-5.424-9.15-4.574s-9.232,4.574-10.164,11.519.762,11.01,0,12.448-4.065,4.491-5.673,6.609-2.117,5.038,0,7.007c0,0-3.642,1.545-4.234,2.9a5.383,5.383,0,0,0,.2,3.75c1.052-.431,2.121-.816,3.182-1.206,3.2-1.181,11.859-4.069,15.406-5.444Z" fill="#fdc954"/>
    <path id="Trazado_7468" data-name="Trazado 7468" d="M802.929,1224.675c-.042.307-.087.6-.141.895a17.3,17.3,0,0,1-1.3,4.115h-.008a11.877,11.877,0,0,1-5.884,6.07,8.029,8.029,0,0,1-4.181.609,7.256,7.256,0,0,1-5.176-3.9,15.275,15.275,0,0,1-1.6-4.061c-2.288,1.1-4.741-2.962-4.065-5.25a3.275,3.275,0,0,0,2.117-2.627c.17-1.947.675-4.993.675-4.993a3.193,3.193,0,0,0,3.56-.932c2.793,1.351,3.812.845,7.367.253s6.692-3.895,6.692-3.895c1.1,1.1,2.963,6.182,1.948,13.719Z" fill="#f8be90"/>
    <path id="Trazado_7469" data-name="Trazado 7469" d="M795.595,1235.755c-.125.411-.266.9-.4,1.438l-.013.062a27.618,27.618,0,0,0-.638,3.261c-.418,3.3-.505,6.6-1.268,7.2s-1.86.758-3.725-2.544a29.779,29.779,0,0,1-2.872-8.706,27.182,27.182,0,0,1-.393-3.058c-.025-.319-.038-.634-.046-.945a7.256,7.256,0,0,0,5.176,3.9,8.029,8.029,0,0,0,4.181-.609Z" fill="#f8be90"/>
    <path id="Trazado_7470" data-name="Trazado 7470" d="M776.658,1286.552c-.037.125-.083.253-.133.378.05-.125.092-.249.133-.378Z" fill="#f8be90"/>
    <path id="Trazado_7471" data-name="Trazado 7471" d="M776.5,1287q-.087.211-.186.423.1-.211.186-.423Z" fill="#f8be90"/>
    <path id="Trazado_7472" data-name="Trazado 7472" d="M776.766,1286.1a3.694,3.694,0,0,1-.091.393,3.694,3.694,0,0,0,.091-.393Z" fill="#f8be90"/>
    <path id="Trazado_7473" data-name="Trazado 7473" d="M776.8,1285.637a2.472,2.472,0,0,1-.029.426,2.472,2.472,0,0,0,.029-.426Z" fill="#f8be90"/>
    <path id="Trazado_7474" data-name="Trazado 7474" d="M776.77,1286.063c0,.013,0,.025,0,.038,0-.013,0-.025,0-.038Z" fill="#f8be90"/>
    <path id="Trazado_7475" data-name="Trazado 7475" d="M776.525,1286.93a.717.717,0,0,1-.029.07.717.717,0,0,0,.029-.07Z" fill="#f8be90"/>
    <path id="Trazado_7476" data-name="Trazado 7476" d="M776.675,1286.494c0,.021-.013.038-.017.058,0-.02.013-.037.017-.058Z" fill="#f8be90"/>
    <path id="Trazado_7477" data-name="Trazado 7477" d="M776.8,1285.637Z" fill="#f8be90"/>
    <path id="Trazado_7478" data-name="Trazado 7478" d="M829.353,1277.78c-.485,2.8-7.115,17.192-8.043,18.8s-1.525,1.355-3.472,1.948a4.827,4.827,0,0,1-.75.165c-1.745.253-3.63-.41-5.777-2.113a8.041,8.041,0,0,1-2.581-4.322,5.683,5.683,0,0,1-.211-2.03,21.215,21.215,0,0,1,2.461-3.559s.2-.634.472-1.542l0-.012c.166-.547.361-1.194.556-1.861.054-.2.108-.389.165-.588.038-.12.071-.245.1-.361.124-.426.236-.849.336-1.234.053-.179.1-.344.132-.51v0a5.628,5.628,0,0,0,.265-1.509,1.08,1.08,0,0,0-.116-.24c-.857-1.566-6.124-9.5-6.485-9.5h0a3.542,3.542,0,0,0-.29,1.015c-.82,3.688-2.892,16.181-2.892,16.181a42.524,42.524,0,0,1-10.43,1.773c-1.081.075-2.25.137-3.5.174-.866.025-1.732.025-2.573.009a69.091,69.091,0,0,1-10.409-1.04,4.045,4.045,0,0,0,.489-1.786,1.568,1.568,0,0,0-.464-1.082,60.606,60.606,0,0,0-4.96-3.779l-1.434-1.023-2.333-9.427-.369.174-2.983,1.413-2.631,1.243-.112.05,6.095,4.914a10.025,10.025,0,0,1-3.049,6.013,8.48,8.48,0,0,1-2.71,1.595,8.316,8.316,0,0,1-3.133.526,52.58,52.58,0,0,1-5.59.841s-.224-.228-.613-.63c-.075-.07-.149-.145-.232-.232-1.115-1.139-3.182-3.248-5.254-5.316-3.05-3.05-6.009-7.624-5.416-9.576a22.544,22.544,0,0,1,.8-2.279,16.254,16.254,0,0,1,3.771-5.424c1.007-.982,2.722-2.88,4.674-5.088h0c3.949-4.459,8.863-10.152,10.732-11.855a20,20,0,0,1,6.05-3.618c1.052-.431,2.117-.816,3.186-1.21,1.355-.5,3.7-1.3,6.216-2.175,3.41-1.177,7.143-2.474,9.186-3.265l.443.037a29.779,29.779,0,0,0,2.872,8.706c1.865,3.3,2.963,3.136,3.725,2.544s.85-3.9,1.268-7.2a27.618,27.618,0,0,1,.638-3.261c.609.195,3.448,1.132,6.725,2.25,2.868.982,6.063,2.1,8.4,3a17.117,17.117,0,0,1,3.29,1.488c1.156,1.065,4.84,7.127,7.069,11.743.079.153.149.3.219.452,1.049,2.216,3.125,6.58,4.965,10.848,2.022,4.7,3.758,9.286,3.5,10.748Z" fill="#6b63a9"/>
    <path id="Trazado_7479" data-name="Trazado 7479" d="M775.44,1289.051c-.1.145-.2.3-.315.456.116-.158.22-.311.315-.456Z" fill="#f8be90"/>
    <path id="Trazado_7480" data-name="Trazado 7480" d="M808.759,1308.526c2.035-1.947,6.4-6.323,8.329-9.824-1.741.248-3.63-.419-5.772-2.118a8,8,0,0,1-2.582-4.322c-.626,1.662-1.865,4.509-2.693,6.377.791,2.731,1.595,5.553,2.183,7.728.141.518.319,1.252.535,2.159Z" fill="#f8be90"/>
    <path id="Trazado_7481" data-name="Trazado 7481" d="M789.292,1288.454a66.727,66.727,0,0,1-12.982-1.031c-.191.4-.4.774-.568,1.114a5.935,5.935,0,0,1-.3.514c-.1.145-.2.3-.315.456,3.439.754,8.2,1.7,12.646,2.25a37.97,37.97,0,0,0,15.452-1.525v-3.725s-4.612,1.69-13.931,1.947Z" fill="#fdc954"/>
    <path id="Trazado_7482" data-name="Trazado 7482" d="M776.335,1284.555c-.812-.808-3.891-3.037-6.394-4.8-.895-.63-1.715-1.206-2.329-1.633a10.042,10.042,0,0,1-3.049,6.013,8.5,8.5,0,0,1-2.714,1.6,62.993,62.993,0,0,0,6.779,2.465c-.423-.082-1.185.763-1.016,1.525a4.039,4.039,0,0,0,1.094,1.38c.949.887,2.259,1.807,2.884,1.757.8-.07,2.54-1.964,3.535-3.352.116-.158.22-.311.315-.456a5.935,5.935,0,0,0,.3-.514c.17-.34.377-.717.568-1.114q.1-.211.186-.423a.717.717,0,0,0,.029-.07c.05-.125.1-.253.133-.378,0-.02.013-.037.017-.058a3.694,3.694,0,0,0,.091-.393c0-.013,0-.025,0-.038a2.472,2.472,0,0,0,.029-.426h0a1.568,1.568,0,0,0-.464-1.082Z" fill="#f8be90"/>
    <path id="Trazado_7483" data-name="Trazado 7483" d="M757.912,1407.874a8.744,8.744,0,0,1-3.319-1.147c-1.21,2.337-1.55,7.247-.87,9.957s2.283,3.812,3.3,3.9,3.726-2.793,4.828-5.5c.829-2.038.17-5.95-.207-7.761a8.794,8.794,0,0,1-3.734.559Z" fill="#5e1a47"/>
    <path id="Trazado_7484" data-name="Trazado 7484" d="M831.59,1405.036c0,.029.009.046.009.046s-.887.891-5.59,1.525a13.482,13.482,0,0,1-6.224-.365h0a41.135,41.135,0,0,1,4.745,5.785l20.888,1.441-13.828-8.432Z" fill="#5e1a47"/>
    <path id="Trazado_7485" data-name="Trazado 7485" d="M831.6,1405.082s-.887.891-5.59,1.525a17.751,17.751,0,0,1-3.178.161,10.417,10.417,0,0,1-3.046-.53,3.876,3.876,0,0,1-.634-.265,220.709,220.709,0,0,1-11.817-20.582c-4.447-9.278-6.224-23.888-7.749-27.443-1.471-3.427-15.439-38.114-16.455-40.637-.012-.025-.02-.054-.033-.075a.3.3,0,0,0-.029-.07l-9.145,35.192s-.638,3.684-2.163,13.595S763,1406.731,763,1406.731a10.731,10.731,0,0,1-1.35.584,7.643,7.643,0,0,1-7.053-.588,11.624,11.624,0,0,1-1.508-1.011c-1.268-4.956-1.015-20.835-.763-28.583s5.209-20.839,5.209-20.839a155.064,155.064,0,0,1,1.782-35.063,121.061,121.061,0,0,1,4.914-19.753c.029-.087.058-.17.091-.249a84.353,84.353,0,0,1,3.875-9.087c.174-.352.344-.7.513-1.04.953.887,2.259,1.807,2.889,1.757a.475.475,0,0,0,.074-.008c.829-.174,2.49-2,3.456-3.34,1.483.323,3.22.684,5.068,1.032.087.02.174.033.257.05,1.624.306,3.331.6,5.034.853.083.008.17.025.257.037.684.1,1.359.191,2.03.274.726.087,1.442.153,2.147.186.087,0,.174.013.261.013a34.374,34.374,0,0,0,3.866-.033c.087-.005.174-.009.253-.021a37.37,37.37,0,0,0,8.925-1.67v-1.181s1.388,4.645,2.814,9.584c.493,1.7.986,3.427,1.433,5.018.025.087.054.174.071.257.252.875.48,1.7.683,2.457.141.518.319,1.248.535,2.159,2.312,9.808,8.54,40.438,10.517,49.04,2.121,9.228,11.95,46.1,12.314,47.47,0,.029.009.046.009.046Z" fill="#eb5b52"/>
    <path id="Trazado_7486" data-name="Trazado 7486" d="M905.542,1351.848c-.762,1.272-2.415,1.272-5.084,0s-2.54-4.574-2.411-6.352a56.467,56.467,0,0,0-2.238-13.595c-.054-.174-.112-.348-.174-.518-.037-.116-.079-.228-.116-.344a6.376,6.376,0,0,0,.742.8c.087.078.19.161.29.248a4.659,4.659,0,0,0,1.367.771,2.006,2.006,0,0,0,.216.066,1.984,1.984,0,0,0,.306.071c.008.008.013.008.017,0a1.422,1.422,0,0,0,.17.029,1,1,0,0,0,.161.012,2.073,2.073,0,0,0,.4,0,3.316,3.316,0,0,0,.576-.074.366.366,0,0,0,.042-.009,2.675,2.675,0,0,0,.352-.087c.132-.037.253-.083.377-.128s.224-.095.335-.145c.005,0,.009-.008.013-.013a2.333,2.333,0,0,0,.282-.153.836.836,0,0,0,.145-.091,2.191,2.191,0,0,0,.211-.137,4.547,4.547,0,0,0,.547-.451c.083-.083.162-.162.24-.245a.111.111,0,0,0,.029-.025c.038-.041.071-.074.1-.112,0,.009,0,.021.008.029.742,2.59,1.981,7.107,2.582,10.505.891,5.047,1.272,8.672.509,9.94Z" fill="#fef6b8"/>
    <path id="Trazado_7487" data-name="Trazado 7487" d="M903.255,1330.123a4.638,4.638,0,0,1-.22.419l0,0a5.271,5.271,0,0,1-.588.828c-.033.038-.066.075-.1.112a.111.111,0,0,1-.029.025c-.078.083-.157.162-.24.245a4.547,4.547,0,0,1-.547.451,2.191,2.191,0,0,1-.211.137.752.752,0,0,1-.145.091,2.333,2.333,0,0,1-.282.153c0,.005-.008.013-.013.013-.111.05-.223.1-.335.145s-.245.091-.377.128a2.675,2.675,0,0,1-.352.087.046.046,0,0,1-.034,0l-.008,0a3.316,3.316,0,0,1-.576.074,2.073,2.073,0,0,1-.4,0,1.073,1.073,0,0,1-.161-.012,1.422,1.422,0,0,1-.17-.029h-.017a1.984,1.984,0,0,1-.306-.071,2.006,2.006,0,0,1-.216-.066,4.659,4.659,0,0,1-1.367-.771c-.1-.087-.2-.17-.29-.248a6.376,6.376,0,0,1-.742-.8l-.013-.025-1.653-8.511c1.778,0,5.718-2.163,7.368-3.684,0,0,2.54,10.16,2.034,11.3Z" fill="#fef6b8"/>
    <path id="Trazado_7488" data-name="Trazado 7488" d="M853.411,1190.121c1.355-.427,2.453.593,3.472.423s1.948-1.355,2.54-1.948,2.963-.849,5.8,1.525,3.008,6.945,3.008,9.141.253,4.662.592,4.749c.29.07,1.716-3.439,2.594-4.463.125-.9.266-1.8.373-2.229.261-1.015,1.521-2.963,1.161-4.828s-3.875-7.031-7.728-9.232-8.429-1.334-11.984.763a7.353,7.353,0,0,0-3.646,5.759s-3.129,2.458-2.793,5.76,1.355,7.115,2.793,8.735v0a40.05,40.05,0,0,1-.419-4.251c-.257-5.76,2.88-9.485,4.235-9.908Z" fill="#5e1a47"/>
    <path id="Trazado_7489" data-name="Trazado 7489" d="M870.6,1217.817l-.762,1.438a11.966,11.966,0,0,1-2.043,1.707c0,.005-.008.005-.017.009-.136.091-.273.174-.414.261l-.137.074c-.108.063-.22.116-.327.174-.058.029-.12.054-.183.087-.1.046-.2.092-.306.137-.062.025-.129.05-.2.075-.1.037-.211.07-.311.1-.066.021-.132.038-.2.054a2.626,2.626,0,0,1-.344.071c-.058.012-.111.025-.174.037a4.276,4.276,0,0,1-.518.033,7.053,7.053,0,0,1-.733-.054c-.075-.008-.145-.02-.22-.029-.161-.029-.323-.058-.476-.091-.075-.016-.145-.037-.22-.054-.157-.045-.306-.087-.456-.136-.049-.017-.107-.03-.153-.05a5.939,5.939,0,0,1-.559-.216,7.861,7.861,0,0,1-1.069-.563l-.651-2.292-.149-.513a8.676,8.676,0,0,0,6.717-2.383c3.584-3.058,3.277-8.031,3.277-8.035l.17,2.76.452,7.4Z" fill="#f8be90"/>
    <path id="Trazado_7490" data-name="Trazado 7490" d="M851.289,1275.021c-.2-.7-.377-1.219-.377-1.219s.125.506.377,1.219Z" fill="#f8be90"/>
    <path id="Trazado_7491" data-name="Trazado 7491" d="M876.686,1219.5l-6.083-1.683-.762,1.438a12.119,12.119,0,0,1-1.21,1.1,6.812,6.812,0,0,1-3.958,1.724,7.265,7.265,0,0,1-2.817-.63,5.764,5.764,0,0,1-1.214-1.077l-5.648,2.358h0a15.386,15.386,0,0,0,7.562,3.559c4.235.506,11.913-2.735,14.13-6.787Z" fill="#6b63a9"/>
    <path id="Trazado_7492" data-name="Trazado 7492" d="M872.832,1203.331a6.68,6.68,0,0,1-1.566,3.054,10.143,10.143,0,0,1-1.285,1.276s.307,4.977-3.277,8.035a8.676,8.676,0,0,1-6.717,2.383,10.862,10.862,0,0,1-4.989-2.043,10.1,10.1,0,0,1-3.087-3.829,22.427,22.427,0,0,1-1.57-4.293,35.6,35.6,0,0,1-.746-3.638,42.178,42.178,0,0,1-.423-4.247c-.253-5.756,2.884-9.489,4.239-9.908s2.453.593,3.472.419,1.944-1.351,2.54-1.944,2.963-.849,5.806,1.525,3,6.945,3,9.141.257,4.666.6,4.745c.295.078,1.716-3.44,2.6-4.459a.732.732,0,0,1,.368-.282c.767-.087,1.438,1.691,1.04,4.065Z" fill="#f8be90"/>
    <path id="Trazado_7493" data-name="Trazado 7493" d="M860.526,1201.724c.667-.146.762,2.581,0,2.751s-.593-2.623,0-2.751Z" fill="#5e1a47"/>
    <path id="Trazado_7494" data-name="Trazado 7494" d="M852.562,1204.773c.721.054.679-2.5,0-2.585s-.552,2.54,0,2.585Z" fill="#5e1a47"/>
    <path id="Trazado_7495" data-name="Trazado 7495" d="M865.842,1199.014c-1.251-.763-3.025-.423-4.786,0s-1.591,1.267-1.21,1.566,2.287-.622,3.261-1.011a13.023,13.023,0,0,1,2.735-.555Z" fill="#5e1a47"/>
    <path id="Trazado_7496" data-name="Trazado 7496" d="M849.727,1200.281c1.185-.8,2.963-1.354,4.065-.886s1.819,1.226,1.608,1.695-.8-.141-1.989-.452a22.031,22.031,0,0,0-3.684-.357Z" fill="#5e1a47"/>
    <path id="Trazado_7497" data-name="Trazado 7497" d="M783.255,1227.116a.538.538,0,0,1-.207-.042.831.831,0,0,1-.464-.692.755.755,0,0,1,.377-.712h0a.55.55,0,0,1,.774.178.84.84,0,0,1-.12,1.127.546.546,0,0,1-.36.141Z" fill="#eb5b52"/>
    <path id="Trazado_7498" data-name="Trazado 7498" d="M799.722,1220.95c1.015.012.592-2.5,0-2.5s-.651,2.491,0,2.5Z" fill="#5e1a47"/>
    <path id="Trazado_7499" data-name="Trazado 7499" d="M786.495,1217.221a7.389,7.389,0,0,1,4.819-1.057c1.388.294,1.289,1.272.874,1.525s-1.9-.17-2.958-.423a9.581,9.581,0,0,0-2.735-.045Z" fill="#fef6b8"/>
    <path id="Trazado_7500" data-name="Trazado 7500" d="M802.212,1216.674a4.611,4.611,0,0,0-3.58-.589c-1.289.249-1.463.713-1.463,1.181s.767.423,1.844,0a14.788,14.788,0,0,1,3.2-.592Z" fill="#fef6b8"/>
    <path id="Trazado_7501" data-name="Trazado 7501" d="M789.76,1227.853l8.383,1.185a4.025,4.025,0,0,1-3,2.329c-2.329.464-5.379-3.514-5.379-3.514Z" fill="#fff"/>
    <path id="Trazado_7502" data-name="Trazado 7502" d="M855.976,1314.584c-.017-.008-.029-.016-.046-.025a.22.22,0,0,0,.046.025Z" fill="#f8be90"/>
    <path id="Trazado_7503" data-name="Trazado 7503" d="M909.392,1270.923c-.506,3.215-2.706,4.23-3.3,3.977,0,0-.008,0-.016,0-.584-.265-1.02-1.264-3.875-.841-2.759.4-5.125,1.426-6.812.4-.07-.046-.145-.091-.224-.141-1.69-1.272-.675-3.812-.675-3.812a4.969,4.969,0,0,1-1.691-2.909,4,4,0,0,1-.066-.742,11.915,11.915,0,0,1,.742-3.8A8.737,8.737,0,0,1,892.1,1260c-.108-.394-.2-.8-.277-1.189-.083-.468-.158-.924-.212-1.359-.012-.1-.02-.2-.033-.3-.012-.157-.025-.3-.037-.456-.008-.066-.017-.128-.021-.194-.1-1.281-.079-2.188-.079-2.188s-.033.124-.091.365a15.72,15.72,0,0,0-.327,1.922,11.249,11.249,0,0,0-.009,1.446v.005c.079,1.947.345,5.3.44,8.535.045,1.525.054,3.017-.013,4.331a14.757,14.757,0,0,1-.551,3.58c-.576,1.835-1.355,2.134-1.355,2.134a57.62,57.62,0,0,1-17.913,4.955,42.711,42.711,0,0,1-16.135-1.653l-.029.158a10.219,10.219,0,0,1-1.873-1.214,9.648,9.648,0,0,1-2.287-3.862c-.166-.564-.311-1.016-.361-1.169a10.809,10.809,0,0,0,.361,1.169c.323,1.131.716,2.71.505,3.182a1.186,1.186,0,0,1-.841.646,15.659,15.659,0,0,1-2.291.29c-1.861.166-4.488.589-7.115,1.1a3.9,3.9,0,0,1-1.467.012c-1.732-.336-2.594-1.956-1.243-3.613,0,0-.879-3.29-1.881-7.786-.539-2.433-1.119-5.221-1.612-8.026a85.718,85.718,0,0,1-1.156-8.752c-.05-.787-.087-1.537-.091-2.242a35.339,35.339,0,0,1,1.5-10.525c1.379-4.6,3.547-8.279,5.693-10.309a16.129,16.129,0,0,1,3.481-2.358c1.065-.567,2.212-1.085,3.36-1.558,1.989-.812,3.978-1.479,5.524-1.951.5-.158.944-.29,1.338-.4a16.314,16.314,0,0,0,3.887,2.486,12.437,12.437,0,0,0,3.675,1.073c.071.008.145.017.224.021.224.021.46.029.7.029a17.688,17.688,0,0,0,7.02-1.794,19.067,19.067,0,0,0,3.24-1.911,10.211,10.211,0,0,0,2.938-3.136c.228.045.489.1.767.153,2.225.447,5.9,1.214,8.954,2.01a33.237,33.237,0,0,1,4.015,1.239,12.261,12.261,0,0,1,2.151,1.16,21.3,21.3,0,0,1,4.491,4.214,34.59,34.59,0,0,1,2.25,3.095c.191.29.4.659.639,1.09a107.793,107.793,0,0,1,7.238,18.812c.315,1.392.668,3.319,1,5.437.444,2.817.854,5.971,1.086,8.664a27.55,27.55,0,0,1,.112,5.553Z" fill="#5e1a47"/>
    <path id="Trazado_7504" data-name="Trazado 7504" d="M901.73,1288.015c1.8-4.811,3.535-10.417,4.347-13.123-.584-.261-1.028-1.26-3.883-.837-2.755.406-5.121,1.426-6.8.4-.4,3.505-1.541,10.3-2.022,13.081a85.669,85.669,0,0,1,3.187,10.811,59.708,59.708,0,0,0,5.175-10.33Z" fill="#f8be90"/>
    <path id="Trazado_7505" data-name="Trazado 7505" d="M850.912,1331.014c1.016,2.793,1.906,12.195,2.922,16.769s1.011,11.416,2.54,12.576a14.793,14.793,0,0,0,1.5,1.007c-1.5-10.28-3.568-24.775-5.1-35.213-.725.667-2.88,2.064-1.869,4.861Z" fill="#fef6b8"/>
    <path id="Trazado_7506" data-name="Trazado 7506" d="M875.008,1411.264l1.438-2.2s.157-1.144.339-2.267a37.744,37.744,0,0,1-7.027.543,18.249,18.249,0,0,1-1.935-.166c.1.427.194.875.269,1.227a13.726,13.726,0,0,1,3.443.663,14.255,14.255,0,0,1,3.473,2.2Z" fill="#f8be90"/>
    <path id="Trazado_7507" data-name="Trazado 7507" d="M876.446,1409.064l-1.438,2.2a14.255,14.255,0,0,0-3.473-2.2,13.726,13.726,0,0,0-3.443-.663c-.178-.013-.282-.017-.282-.017-1.864,1.272-11.436,7.368-11.436,7.368l21.427-1.185s-.336-4.571-1.355-5.5Z" fill="#5e1a47"/>
    <path id="Trazado_7508" data-name="Trazado 7508" d="M906.906,1407.34h0l.542,1.044a4.553,4.553,0,0,1-3.049,1.272c-2.118.17-4.152-.17-4.451-.592a2.642,2.642,0,0,1-.19-1.156,12.634,12.634,0,0,0,.742,6.153l16.516,2.117-10.11-8.838Z" fill="#5e1a47"/>
    <path id="Trazado_7509" data-name="Trazado 7509" d="M906.906,1407.34l-1.069-2.068.451-3.273a18.776,18.776,0,0,1-7.069.634c.642,1.711.821,2.25.688,3.041a13.734,13.734,0,0,0-.149,2.234,2.642,2.642,0,0,0,.19,1.156c.3.422,2.333.762,4.451.592a4.553,4.553,0,0,0,3.049-1.272l-.542-1.044Z" fill="#f8be90"/>
    <path id="Trazado_7510" data-name="Trazado 7510" d="M871.535,1399.832a41.114,41.114,0,0,1-8.3-2.205,23.163,23.163,0,0,0-.423,8.047,15.721,15.721,0,0,0,5.01,1.5,18.249,18.249,0,0,0,1.935.166,37.744,37.744,0,0,0,7.027-.543c.643-.112,1.016-.19,1.016-.19l1.1-7.708a25.959,25.959,0,0,1-7.368.933Z" fill="#fef6b8"/>
    <path id="Trazado_7511" data-name="Trazado 7511" d="M901.83,1395.087a29.667,29.667,0,0,1-6.493.51,18.753,18.753,0,0,0,2.71,6.891s.443.079,1.172.145a18.776,18.776,0,0,0,7.069-.634,10.228,10.228,0,0,0,2.035-.9v-7.621a66.033,66.033,0,0,1-6.493,1.608Z" fill="#fef6b8"/>
    <path id="Trazado_7512" data-name="Trazado 7512" d="M891.437,1283.246a12.859,12.859,0,0,1-2.051,1c-3.862,1.624-11.842,4.011-19.164,3.745-4.575-.165-8.573-.559-11.424-.907s-4.562-.663-4.562-.663l1.218-6.327.029-.158a42.711,42.711,0,0,0,16.135,1.653,54.218,54.218,0,0,0,14.089-3.36c2.362-.887,3.824-1.6,3.824-1.6l1.906,6.609Z" fill="#6b63a9"/>
    <path id="Trazado_7513" data-name="Trazado 7513" d="M856.825,1310.254c-.563.017-2.676-4.015-2.929-3.7-.216.269,2.146,5.055,2.776,6.969.041.125.079.241.1.344a.877.877,0,0,1,.045.377.538.538,0,0,1-.783.365.532.532,0,0,1,.228.187.193.193,0,0,1,0,.248c-.2.336-1.281.576-3.191.029a7.792,7.792,0,0,1-4.765-4.007c-.825-1.33,0-3.5,0-3.5s-1.525-2.217-4.189-8.814c-2.25-5.564-3.415-13.263-3.879-17.142-.066-.534-.116-.99-.153-1.363a3.9,3.9,0,0,0,1.467-.012c2.627-.51,5.254-.933,7.115-1.1a15.659,15.659,0,0,0,2.291-.29l.145,2.308,1.144,17.905s3.679,3.493,4.255,4.7.887,6.485.323,6.493Z" fill="#f8be90"/>
    <path id="Trazado_7514" data-name="Trazado 7514" d="M855,1222.728a16.314,16.314,0,0,0,3.887,2.486c-3.6,7.4-9.178,18.887-9.116,19.115.087.335-7.538-13.641-7.538-13.641l-2.146,15.928s-2.71-4.421-4.483-7.31c1.379-4.6,3.547-8.279,5.693-10.309a16.129,16.129,0,0,1,3.481-2.358l4.736,10.488,4.148-14c.5-.158.944-.29,1.338-.4Z" fill="#eb5b52"/>
    <path id="Trazado_7515" data-name="Trazado 7515" d="M870.508,1224.543l-2.615,15.712-5.109-13.947c.224.021.46.029.7.029a17.688,17.688,0,0,0,7.02-1.794Z" fill="#eb5b52"/>
    <path id="Trazado_7516" data-name="Trazado 7516" d="M899.953,1232.457l-7.331,9.332-2.875-14.8-10.127,12.34s-3.556-10.015-5.872-16.7a10.211,10.211,0,0,0,2.938-3.136c.228.045.489.1.767.153l2.975,13.753,5.979-11.743a33.237,33.237,0,0,1,4.015,1.239,12.261,12.261,0,0,1,2.151,1.16l1.574,9.932,2.917-5.718a34.59,34.59,0,0,1,2.25,3.095c.191.29.4.659.639,1.09Z" fill="#eb5b52"/>
    <path id="Trazado_7517" data-name="Trazado 7517" d="M891.01,1258.057c.079,1.947.345,5.3.44,8.535l-6.278-9.393-6.779,10.852-4.645-10.09-5.345,11.52-7.794-11.86-5.163,10.844-7.2-9.828-4.235,10.844-8.66-8.656a85.718,85.718,0,0,1-1.156-8.752l8.627,7.413,3.729-11.772,6.862,8.979,6.435-12.791,8.727,12.791,6.182-15.335,5.5,14.739,6.592-12.025,4.16,13.98v.005Z" fill="#9f99cb"/>
    <path id="Trazado_7518" data-name="Trazado 7518" d="M909.28,1265.37c-3.062-3.356-8.1-8.677-8.1-8.677l-8.449,10.156a11.915,11.915,0,0,1,.742-3.8,10.327,10.327,0,0,1-1.653-4.23l6.99-12.2,9.385,10.09c.444,2.817.854,5.971,1.086,8.664Z" fill="#9f99cb"/>
    <path id="Trazado_7519" data-name="Trazado 7519" d="M890.886,1274.5c-.576,1.835-1.355,2.134-1.355,2.134a57.62,57.62,0,0,1-17.913,4.955,42.711,42.711,0,0,1-16.135-1.653l-.029.158a10.219,10.219,0,0,1-1.873-1.214,9.648,9.648,0,0,1-2.287-3.862c.323,1.131.716,2.71.505,3.182a1.186,1.186,0,0,1-.841.646,15.659,15.659,0,0,1-2.291.29c-1.861.166-4.488.589-7.115,1.1a3.9,3.9,0,0,1-1.467.012c-1.732-.336-2.594-1.956-1.243-3.613,0,0-.879-3.29-1.881-7.786,3.572,3.385,8.067,7.786,8.067,7.786l5.163-9.788,7.96,12,4.666-9.708,7.691,10.077,4.417-8.382,4.7,8.013,7.23-10.131,4.036,5.785Z" fill="#dddbef"/>
    <path id="Trazado_7520" data-name="Trazado 7520" d="M764.256,1271.913l-2.631,1.243a98.866,98.866,0,0,0-9.51-2.83,89.4,89.4,0,0,0-9.7-1.264,16.254,16.254,0,0,1,3.771-5.424c1.007-.982,2.722-2.88,4.674-5.088h0c4.566,2.055,9.025,5.324,13.392,13.363Z" fill="#9f99cb"/>
    <path id="Trazado_7521" data-name="Trazado 7521" d="M825.852,1267.032a29.522,29.522,0,0,0-7.339,5.411c-2.764,2.88-4.666,5.163-5.619,6.369-.857-1.566-6.124-9.5-6.485-9.5.117-.274,3.8-8.42,14.259-13.579.079.153.149.3.219.452,1.049,2.216,3.125,6.58,4.965,10.848Z" fill="#9f99cb"/>
    <path id="Trazado_7522" data-name="Trazado 7522" d="M801.905,1239.505c-.414,3.767-1.259,10.915-2.109,14.731-1.189,5.337-2.967,17.789-4.2,21.767-.908,2.917-2.184,9.153-2.8,12.277-1.081.075-2.25.137-3.5.174-.866.025-1.732.025-2.573.009-.448-2.13-1.964-9.473-2.254-12.208-.34-3.215-.928-7.027-1.757-13.21-.634-4.79-4.123-17.743-5.66-23.353,3.41-1.177,7.143-2.474,9.186-3.265l.443.037a29.779,29.779,0,0,0,2.872,8.706c1.865,3.3,2.963,3.136,3.725,2.544s.85-3.9,1.268-7.2a27.618,27.618,0,0,1,.638-3.261c.609.195,3.448,1.132,6.725,2.25Z" fill="#ef7d80"/>
    <path id="Trazado_7523" data-name="Trazado 7523" d="M797.488,1225.375a.179.179,0,0,1-.062-.016L794.7,1223.8a.128.128,0,0,1-.049-.174.132.132,0,0,1,.174-.046l2.457,1.4c-.377-1.26-1.765-5.942-1.811-6.854a.128.128,0,0,1,.12-.132.118.118,0,0,1,.133.12c.054,1,1.873,7.036,1.889,7.094a.123.123,0,0,1-.041.136.109.109,0,0,1-.079.029Z" fill="#5e1a47"/>
    <path id="Trazado_7524" data-name="Trazado 7524" d="M783.686,1212.385a5.418,5.418,0,0,1-1-.1.126.126,0,0,1-.1-.145.127.127,0,0,1,.149-.1c2.42.443,3.816-.746,6.029-3.576,2.764-3.539,5.088-5.1,7.317-4.939a.127.127,0,0,1-.02.253c-2.1-.162-4.426,1.425-7.1,4.844-1.964,2.511-3.307,3.766-5.275,3.766Z" fill="#fef6b8"/>
    <path id="Trazado_7525" data-name="Trazado 7525" d="M790.2,1215.762a5.737,5.737,0,0,1-4.849-2.258.128.128,0,0,1,.034-.178.13.13,0,0,1,.178.033c.248.365,2.606,3.5,8.047,1.483a.126.126,0,0,1,.087.236,10.078,10.078,0,0,1-3.5.684Z" fill="#fef6b8"/>
    <path id="Trazado_7526" data-name="Trazado 7526" d="M802.212,1208.921a.126.126,0,0,1-.128-.108c-.274-2.03-.866-3.306-1.815-3.9a3.849,3.849,0,0,0-3.311-.058.129.129,0,0,1-.079-.245,4.091,4.091,0,0,1,3.526.087c1.016.639,1.645,1.973,1.931,4.082a.13.13,0,0,1-.107.145Z" fill="#fef6b8"/>
    <path id="Trazado_7527" data-name="Trazado 7527" d="M785.927,1205.871a.124.124,0,0,1-.074-.02.127.127,0,0,1-.029-.179,8.616,8.616,0,0,1,7.844-2.975.131.131,0,0,1,.112.141.129.129,0,0,1-.141.112,8.371,8.371,0,0,0-7.608,2.872.131.131,0,0,1-.1.049Z" fill="#fef6b8"/>
    <path id="Trazado_7528" data-name="Trazado 7528" d="M780.454,1210.384a.08.08,0,0,1-.029,0,.129.129,0,0,1-.092-.154c1.807-7.525,6.133-9.095,12.079-9.095h.12a.129.129,0,0,1,.129.128.126.126,0,0,1-.129.125h-.12c-5.826,0-10.065,1.537-11.834,8.9a.129.129,0,0,1-.124.1Z" fill="#fef6b8"/>
    <path id="Trazado_7529" data-name="Trazado 7529" d="M778.684,1222.856a.123.123,0,0,1-.12-.091,27.549,27.549,0,0,1-.7-10.525c.646-4.852,3.02-8.818,6.356-10.608a.127.127,0,0,1,.12.224c-3.265,1.753-5.59,5.644-6.224,10.417a27.154,27.154,0,0,0,.7,10.417.132.132,0,0,1-.087.162.126.126,0,0,1-.038,0Z" fill="#fef6b8"/>
    <path id="Trazado_7530" data-name="Trazado 7530" d="M784.154,1215.911a9.721,9.721,0,0,1-4.9-1.545.13.13,0,0,1-.037-.178.127.127,0,0,1,.174-.038c2.221,1.438,6.033,2.366,7.429.373a.128.128,0,0,1,.179-.029.121.121,0,0,1,.028.174,3.318,3.318,0,0,1-2.871,1.243Z" fill="#fef6b8"/>
    <path id="Trazado_7531" data-name="Trazado 7531" d="M784.593,1214.386h0a6.775,6.775,0,0,1-4.222-2.059.127.127,0,0,1,.178-.182,6.619,6.619,0,0,0,4.052,1.985.132.132,0,0,1,.125.132.128.128,0,0,1-.129.124Z" fill="#fef6b8"/>
    <path id="Trazado_7532" data-name="Trazado 7532" d="M793.444,1213.632a6.777,6.777,0,0,1-4.131-1.276.126.126,0,0,1-.025-.178.127.127,0,0,1,.178-.025c2.482,1.919,7.3,1.732,10.235-1.6a.126.126,0,0,1,.191.165,8.609,8.609,0,0,1-6.448,2.913Z" fill="#fef6b8"/>
    <path id="Trazado_7533" data-name="Trazado 7533" d="M804.222,1229.755a.22.22,0,0,1-.046-.008.129.129,0,0,1-.075-.162,14.2,14.2,0,0,0,.249-7.359.135.135,0,0,1,.1-.153.133.133,0,0,1,.154.095,14.518,14.518,0,0,1-.257,7.5.13.13,0,0,1-.12.083Z" fill="#fef6b8"/>
    <path id="Trazado_7534" data-name="Trazado 7534" d="M805.937,1238.4a.1.1,0,0,1-.07-.021.127.127,0,0,1-.038-.174,8.46,8.46,0,0,0,1-6.754.127.127,0,0,1,.241-.083c1.214,3.58-1.007,6.945-1.032,6.978a.12.12,0,0,1-.1.054Z" fill="#fef6b8"/>
    <path id="Trazado_7535" data-name="Trazado 7535" d="M767.19,1265.266a.126.126,0,0,1-.125-.107c-.1-.7-.165-1.952-.248-3.531-.249-4.6-.622-11.548-2.213-13.885a.131.131,0,0,1,.033-.178.13.13,0,0,1,.178.033c1.629,2.4,2.006,9.389,2.255,14.018.083,1.575.149,2.818.244,3.505a.123.123,0,0,1-.108.145Z" fill="#5e1a47"/>
    <path id="Trazado_7536" data-name="Trazado 7536" d="M778.494,1276.512a.128.128,0,0,1-.038-.008c-6.547-1.968-11.768-7.637-14.3-10.84a.125.125,0,0,1,.02-.178.127.127,0,0,1,.179.021c2.511,3.178,7.694,8.805,14.175,10.757a.126.126,0,0,1,.087.157.133.133,0,0,1-.124.091Z" fill="#5e1a47"/>
    <path id="Trazado_7537" data-name="Trazado 7537" d="M771.06,1263.373a.182.182,0,0,1-.041-.008c-.2-.063-2.739-4.206-3.954-10.588a.127.127,0,0,1,.249-.049,30.668,30.668,0,0,0,3.8,10.388.123.123,0,0,1,.07.087.126.126,0,0,1-.124.17Z" fill="#5e1a47"/>
    <path id="Trazado_7538" data-name="Trazado 7538" d="M766.344,1279.371c-1.943,3.034-8.581,6.344-13.831,7.094-.075-.07-.149-.145-.232-.232,4.869-.687,11.814-3.816,13.844-6.994a.131.131,0,0,1,.178-.042.124.124,0,0,1,.041.174Z" fill="#5e1a47"/>
    <path id="Trazado_7539" data-name="Trazado 7539" d="M805.1,1275.746a.063.063,0,0,1-.029,0,.123.123,0,0,1-.095-.15l1.309-6.306a.159.159,0,0,1,.017-.046c.033-.045,3.054-4.765,3.19-9.692.137-4.827,1.285-6.945,1.409-7.16a36.742,36.742,0,0,1,2.8-6.555.126.126,0,0,1,.224.116,36.327,36.327,0,0,0-2.784,6.518c-.005.012-.009.025-.013.033s-1.243,2.134-1.38,7.052c-.136,4.832-3,9.46-3.219,9.808l-1.306,6.286a.128.128,0,0,1-.124.1Z" fill="#5e1a47"/>
    <path id="Trazado_7540" data-name="Trazado 7540" d="M795.557,1274.068a.123.123,0,0,1-.124-.116.128.128,0,0,1,.112-.137,17.119,17.119,0,0,0,8.842-3.145.123.123,0,0,1,.179.016.127.127,0,0,1-.017.179,17.411,17.411,0,0,1-8.979,3.2Z" fill="#5e1a47"/>
    <path id="Trazado_7541" data-name="Trazado 7541" d="M822.01,1275.621a.135.135,0,0,1-.132.129,14.245,14.245,0,0,0-4.944,2.018,17.605,17.605,0,0,0-4.321,3.307c.053-.179.1-.344.132-.51v0c2.358-2.433,7.405-5.068,9.133-5.068a.132.132,0,0,1,.132.128Z" fill="#5e1a47"/>
    <path id="Trazado_7542" data-name="Trazado 7542" d="M819.773,1278.634a.12.12,0,0,1-.071.162,50.881,50.881,0,0,0-7.525,3.874c.038-.12.071-.245.1-.361a50.212,50.212,0,0,1,7.334-3.746.121.121,0,0,1,.162.071Z" fill="#5e1a47"/>
    <path id="Trazado_7543" data-name="Trazado 7543" d="M811.564,1289.979a.124.124,0,0,1-.124-.107,15.6,15.6,0,0,1,.41-6.527.128.128,0,1,1,.245.075,15.359,15.359,0,0,0-.406,6.406.128.128,0,0,1-.1.149c-.008,0-.013,0-.021,0Z" fill="#5e1a47"/>
    <path id="Trazado_7544" data-name="Trazado 7544" d="M780.45,1290.593a25.027,25.027,0,0,1-6.585,8,18.983,18.983,0,0,1-7.189,2.668l-.414.087a7.76,7.76,0,0,1-1.55.149c-.166,0-.336-.008-.485-.016.029-.087.058-.17.091-.249a8.153,8.153,0,0,0,1.89-.132l.414-.087a18.832,18.832,0,0,0,7.1-2.623,25.244,25.244,0,0,0,6.469-7.844c.087.02.174.033.257.05Z" fill="#f39fa2"/>
    <path id="Trazado_7545" data-name="Trazado 7545" d="M807.541,1303.91a8.892,8.892,0,0,1-3.821-.8,20.175,20.175,0,0,1-5.606-4.741l-.4-.435a14.477,14.477,0,0,1-3.671-6.016c.087-.005.174-.009.253-.021a14.487,14.487,0,0,0,3.6,5.867l.407.431a19.95,19.95,0,0,0,5.527,4.687,8.7,8.7,0,0,0,3.638.766c.025.087.054.174.071.257Z" fill="#f39fa2"/>
    <path id="Trazado_7546" data-name="Trazado 7546" d="M790.179,1291.956c-.87,6.041-2,13.255-2.8,15.406-.253.7-.435,1.363-.593,1.947-.4,1.48-.725,2.644-1.931,3.39a27.428,27.428,0,0,1-2.5,1.409.162.162,0,0,1-.05.008.122.122,0,0,1-.075-.025.137.137,0,0,1-.054-.124l3.307-22.521c.083.008.17.025.257.037l-3.274,22.289c.344-.178,1.1-.58,2.246-1.289,1.132-.7,1.434-1.819,1.828-3.24a20.452,20.452,0,0,1,.6-1.968c.816-2.221,2.034-10.169,2.772-15.332.087,0,.174.013.261.013Z" fill="#f39fa2"/>
    <path id="Trazado_7547" data-name="Trazado 7547" d="M765.785,1358.6a3.073,3.073,0,0,1-.924-.149.126.126,0,1,1,.079-.24,2.773,2.773,0,0,0,2.913-.808.126.126,0,1,1,.195.161,3.16,3.16,0,0,1-2.263,1.036Z" fill="#5e1a47"/>
    <path id="Trazado_7548" data-name="Trazado 7548" d="M810.524,1358.2a6.227,6.227,0,0,1-1.094-.1.127.127,0,1,1,.046-.249,7.911,7.911,0,0,0,5.324-1.239.128.128,0,0,1,.145.212,8.686,8.686,0,0,1-4.421,1.371Z" fill="#5e1a47"/>
    <path id="Trazado_7549" data-name="Trazado 7549" d="M862.726,1287.51c-.729,5.266-2.814,18.431-2.838,18.584a.13.13,0,0,1-.125.1.029.029,0,0,1-.021-.005.124.124,0,0,1-.107-.141c.021-.153,2.1-13.3,2.842-18.571.083.012.17.02.249.029Z" fill="#fef6b8"/>
    <path id="Trazado_7550" data-name="Trazado 7550" d="M887.5,1304.6a.126.126,0,0,1-.091.157h-.034a.124.124,0,0,1-.12-.095c-.037-.128-3.074-12-5.018-18.1.087-.017.17-.038.249-.058,1.943,6.112,4.981,17.962,5.014,18.095Z" fill="#fef6b8"/>
    <path id="Trazado_7551" data-name="Trazado 7551" d="M876.317,1303.819a.124.124,0,0,1-.124.091h-.008a.133.133,0,0,1-.121-.112c-.012-.116-1.429-11.188-2.5-15.853.083,0,.17-.009.252-.017.929,4.073,2.11,12.858,2.42,15.236.6-2.138,2.507-9.746,1.277-15.65.087-.013.174-.025.252-.042,1.438,6.966-1.421,16.248-1.45,16.347Z" fill="#fef6b8"/>
    <path id="Trazado_7552" data-name="Trazado 7552" d="M856.776,1313.867a13.191,13.191,0,0,1-4.666-4.773.128.128,0,0,1,.058-.17.116.116,0,0,1,.166.05,13.315,13.315,0,0,0,4.338,4.549c.041.125.079.241.1.344Z" fill="#5e1a47"/>
    <path id="Trazado_7553" data-name="Trazado 7553" d="M856.262,1315.044a8.589,8.589,0,0,1-5.06-2.7.132.132,0,0,1,0-.183.136.136,0,0,1,.183,0,8.407,8.407,0,0,0,4.881,2.632.193.193,0,0,1,0,.248Z" fill="#5e1a47"/>
    <path id="Trazado_7554" data-name="Trazado 7554" d="M854.343,1210.765a.161.161,0,0,1-.074-.021.139.139,0,0,1-.054-.124l1.1-8.192a.121.121,0,0,1,.141-.112.125.125,0,0,1,.108.145L854.5,1210.4l2.764-1.587a.125.125,0,0,1,.174.046.13.13,0,0,1-.05.174l-2.984,1.715a.157.157,0,0,1-.062.017Z" fill="#5e1a47"/>
    <path id="Trazado_7555" data-name="Trazado 7555" d="M858.284,1212.7c-.257,0-.485-.012-.663-.021-.12-.008-.22-.012-.294-.012a.129.129,0,1,1,0-.257c.078,0,.182.008.306.013.908.049,2.8.153,3.713-1.347a.125.125,0,0,1,.174-.042.128.128,0,0,1,.046.174,3.62,3.62,0,0,1-3.282,1.492Z" fill="#5e1a47"/>
    <path id="Trazado_7556" data-name="Trazado 7556" d="M870.508,1204.9a.128.128,0,0,1-.129-.121,7.264,7.264,0,0,1,1.065-3.12.127.127,0,1,1,.224.12,7.291,7.291,0,0,0-1.036,2.992.123.123,0,0,1-.12.129Z" fill="#5e1a47"/>
    <path id="Trazado_7557" data-name="Trazado 7557" d="M851.617,1275.866c-.008-.091-.025-.178-.033-.265-.2-1.488-.759-5.089-1.384-8.739-.5-2.9-1.036-5.83-1.475-7.761-1.123-5-3.158-19.811-3.179-19.956a.129.129,0,0,0-.257.029c.021.153,2.064,14.971,3.191,19.981.448,2,1.015,5.063,1.521,8.055.605,3.543,1.139,6.982,1.33,8.428.12.862.282,1.774.456,2.6l-.17-2.374Z" fill="#fdc954"/>
    <path id="Trazado_7558" data-name="Trazado 7558" d="M891.566,1254.335c.021.2.294,3.146.53,5.669-.108-.394-.2-.8-.277-1.189-.083-.468-.158-.924-.212-1.359-.012-.1-.02-.2-.033-.3-.012-.157-.025-.3-.037-.456-.008-.066-.017-.128-.021-.194-.062-.651-.116-1.268-.17-1.823-.012-.121-.025-.241-.033-.357.012-.137,1.425-11.391.427-17.88a.121.121,0,0,1,.1-.149.137.137,0,0,1,.149.108c1.007,6.522-.406,17.818-.422,17.929Z" fill="#fdc954"/>
    <path id="Trazado_7559" data-name="Trazado 7559" d="M895.842,1265.374a.179.179,0,0,1-.062-.016,9.67,9.67,0,0,1-3.257-3.713.13.13,0,0,1,.054-.174.125.125,0,0,1,.17.054,9.514,9.514,0,0,0,3.161,3.609.133.133,0,0,1,.046.174.131.131,0,0,1-.112.066Z" fill="#fdc954"/>
    <path id="Trazado_7560" data-name="Trazado 7560" d="M894.321,1271.888l-.248-.037c.31-1.471.733-3.468,3.9-5.777a.123.123,0,0,1,.174.029.132.132,0,0,1-.025.179c-3.083,2.25-3.5,4.189-3.8,5.606Z" fill="#fdc954"/>
    <path id="Trazado_7561" data-name="Trazado 7561" d="M790.809,1221.414c1.019.013.6-2.5,0-2.5s-.647,2.49,0,2.5Z" fill="#5e1a47"/>
    <path id="Trazado_7562" data-name="Trazado 7562" d="M870.151,1210.421c-.393,2.337-1.309,5.13-3.505,6.369a18.5,18.5,0,0,1-6.51,1.8l-.149-.513a8.676,8.676,0,0,0,6.717-2.383c3.584-3.058,3.277-8.031,3.277-8.035l.17,2.76Z" fill="#5e1a47"/>
    <path id="Trazado_7563" data-name="Trazado 7563" d="M795.595,1235.755c-.125.411-.266.9-.4,1.438a9.7,9.7,0,0,1-4.848-.4,8.374,8.374,0,0,1-4.061-3.385c-.025-.319-.038-.634-.046-.945a7.256,7.256,0,0,0,5.176,3.9,8.029,8.029,0,0,0,4.181-.609Z" fill="#5e1a47"/>
    <path id="Trazado_7564" data-name="Trazado 7564" d="M767.065,1265.159a33.807,33.807,0,0,0,.543,5.167l-5.983,2.83-.961-.323,6.4-7.674Z" fill="#5e1a47"/>
    <path id="Trazado_7565" data-name="Trazado 7565" d="M771.375,1280.776l-1.434-1.023-2.333-9.427-.369.174-.174-.6v-4.744a40.245,40.245,0,0,0,2.06,5.461c.638.9,2.25,10.156,2.25,10.156Z" fill="#5e1a47"/>
    <path id="Trazado_7566" data-name="Trazado 7566" d="M771.669,1292.851c-.58.269-1.434.079-3.476-.709.174-.352.344-.7.513-1.04.953.887,2.259,1.807,2.889,1.757a.475.475,0,0,0,.074-.008Z" fill="#5e1a47"/>
    <path id="Trazado_7567" data-name="Trazado 7567" d="M822.831,1406.768a10.417,10.417,0,0,1-3.046-.53,3.876,3.876,0,0,1-.634-.265,220.709,220.709,0,0,1-11.817-20.582c-4.447-9.278-6.224-23.888-7.749-27.443-1.471-3.427-15.439-38.114-16.455-40.637,1.529,3.543,17.047,34.086,20.093,40.04,3.095,6.058,5.424,14.192,7.309,21.812,1.5,6.071,9.216,21.551,12.3,27.6Z" fill="#5e1a47"/>
    <path id="Trazado_7568" data-name="Trazado 7568" d="M880.386,1371.8c0,8-1.483,27.1-1.483,27.1s-.978.278-2.337.531c.1-8.487.224-20.118.224-24.241,0-6.779-1.7-18.8-2.209-23.208s1.993-38.242,1.993-38.242l.725,38.242s3.087,11.813,3.087,19.819Z" fill="#5e1a47"/>
    <path id="Trazado_7569" data-name="Trazado 7569" d="M891.437,1283.246a12.859,12.859,0,0,1-2.051,1,54.724,54.724,0,0,0-3.679-6.017c2.362-.887,3.824-1.6,3.824-1.6l1.906,6.609Z" fill="#5e1a47"/>
    <path id="Trazado_7570" data-name="Trazado 7570" d="M787.05,1224.551c-2.473.232-2.2,4.508.34,4.318s1.67-4.513-.34-4.318Z" fill="#f49f7f"/>
    <path id="Trazado_7571" data-name="Trazado 7571" d="M802.788,1225.57a17.3,17.3,0,0,1-1.3,4.115h-.008a2.046,2.046,0,0,1-.353-.116c-2.328-1.007-.621-4.877,1.662-4Z" fill="#f49f7f"/>
    <path id="Trazado_7572" data-name="Trazado 7572" d="M867.243,1206a2.289,2.289,0,1,0-.771,4.512c2.78.452,3.033-4.081.771-4.512Z" fill="#f49f7f"/>
    <path id="Trazado_7573" data-name="Trazado 7573" d="M851.911,1212.207a22.427,22.427,0,0,1-1.57-4.293,2.259,2.259,0,0,1,1.541-.2c2.026.381,2.039,4.048.029,4.5Z" fill="#f49f7f"/>
    <path id="Trazado_7574" data-name="Trazado 7574" d="M851.1,1281.157a19.357,19.357,0,0,0-3.75-.547,23.421,23.421,0,0,0-7.115,1c-.066-.534-.116-.99-.153-1.363a3.9,3.9,0,0,0,1.467-.012c2.627-.51,5.254-.933,7.115-1.1a15.659,15.659,0,0,0,2.291-.29l.145,2.308Z" fill="#5e1a47"/>
    <path id="Trazado_7575" data-name="Trazado 7575" d="M773.2,1233.949a.132.132,0,0,1-.083-.029,2.916,2.916,0,0,1-.982-2.453c.083-1,.7-2.5,3.2-4.011a.125.125,0,0,1,.174.041.122.122,0,0,1-.041.174c-2.4,1.455-3,2.88-3.079,3.816a2.681,2.681,0,0,0,.895,2.238.13.13,0,0,1,.013.182.128.128,0,0,1-.1.042Z" fill="#fef6b8"/>
    <path id="Trazado_7576" data-name="Trazado 7576" d="M775.4,1237a.127.127,0,0,1-.115-.074.131.131,0,0,1,.066-.17c.058-.025,5.706-2.482,6.447-7.019a.124.124,0,0,1,.145-.1.122.122,0,0,1,.1.145c-.763,4.674-6.539,7.189-6.6,7.214a.208.208,0,0,1-.05.008Z" fill="#fef6b8"/>
    <path id="Trazado_7577" data-name="Trazado 7577" d="M769.941,1241.15a.127.127,0,0,1-.12-.095c-.327-1.21.762-2.963,3.427-3.833a.127.127,0,0,1,.079.241c-2.516.82-3.56,2.432-3.262,3.526a.13.13,0,0,1-.087.157c-.012,0-.024,0-.037,0Z" fill="#fef6b8"/>
    <path id="Trazado_7578" data-name="Trazado 7578" d="M801.905,1238.018a.13.13,0,0,1-.116-.083c-.049-.12-1.189-3.029-.509-5.167a.124.124,0,0,1,.157-.083.131.131,0,0,1,.083.162c-.651,2.046.493,4.964.506,5a.127.127,0,0,1-.071.161.1.1,0,0,1-.05.013Z" fill="#fef6b8"/>
    <path id="Trazado_7579" data-name="Trazado 7579" d="M777.35,1230.82a.137.137,0,0,1-.066-.02.121.121,0,0,1-.038-.174,12.72,12.72,0,0,0,1.82-4.724.137.137,0,0,1,.14-.116.125.125,0,0,1,.112.141,12.709,12.709,0,0,1-1.86,4.835.13.13,0,0,1-.108.058Z" fill="#fef6b8"/>
    <path id="Trazado_7580" data-name="Trazado 7580" d="M782.525,1236.555a.13.13,0,0,1-.128-.116,3.613,3.613,0,0,1,1.943-3.236.133.133,0,0,1,.174.045.127.127,0,0,1-.049.174,3.308,3.308,0,0,0-1.815,2.992.13.13,0,0,1-.116.141Z" fill="#fef6b8"/>
    <path id="Trazado_7581" data-name="Trazado 7581" d="M813.01,1279.052a1.08,1.08,0,0,0-.116-.24c-.857-1.566-6.124-9.5-6.485-9.5h0a3.542,3.542,0,0,0-.29,1.015l.174-1.04,1.252-2.014c1.7,2.184,5.519,11.217,5.469,11.78Z" fill="#5e1a47"/>
    <path id="Trazado_7582" data-name="Trazado 7582" d="M902.443,1331.374c0,.009,0,.021.008.029a.457.457,0,0,1-.112.083.111.111,0,0,1-.029.025,10.5,10.5,0,0,1-2.536,1.455l-.008,0c-.174.07-.36.136-.539.2a2.041,2.041,0,0,1-.629.1,4.624,4.624,0,0,1-2.789-1.363c-.054-.174-.112-.348-.174-.518a5.154,5.154,0,0,0,2.8,1.616c.008.008.013.008.017,0a1.711,1.711,0,0,0,.692-.075,10.233,10.233,0,0,0,3.882-2.378,5.271,5.271,0,0,1-.588.828Z" fill="#fdc954"/>
  </g>
</svg>
