<svg xmlns="http://www.w3.org/2000/svg" width="174.252" height="231.1" viewBox="0 0 174.252 231.1">
  <g id="Grupo_10756" data-name="Grupo 10756" transform="translate(-862.867 -906.626)">
    <path id="Trazado_6425" data-name="Trazado 6425" d="M936.64,994.13a41.3,41.3,0,0,1-4.127,15.688c-1.123-3.953-4.3-7.471-6.24-9.331-.928-.894-1.575-1.4-1.575-1.4l.51-4.828s-.178.036-.51.092c-1.127.193-4.04.65-7.562.92-3.849.294-8.436.259-12.22.421a26.88,26.88,0,0,1-7.288,0c-.116-.02-.178-.035-.178-.035l-.178.045a52.833,52.833,0,0,1-9.133,1.439c-2.159.173-3.792.218-4.194.228h-.1a91.91,91.91,0,0,1-9.655-1.331c-2.664-.7-5.71-2.795-6.157-4.7s-.315-9.721.7-14.229,6.1-23.189,7.745-25.663,4.641-3.115,9.025-4.828c2.386-.935,6.344-2.511,9.675-3.837.091-.041.182-.076.282-.117,2.656-1.057,4.877-1.936,5.5-2.175.054.407.092.691.1.793.058.341,1.479,3.3,2.781,6.032.037.076.07.158.107.234.746,1.575,1.438,3.049,1.774,3.857.547,1.326,1.085,2.551,1.421,3.3.166.366.282.62.331.717v.005c.021.041.029.056.025.041v-.005c0-.2.576-4.356,1.156-8.523.009-.086.025-.172.034-.259.261-1.855.518-3.7.729-5.183,0,0,2.229.864,5.1,2.007.1.046.211.086.323.132,4.259,1.7,9.762,3.944,11.548,4.884a9.372,9.372,0,0,1,5.333,6.952c.762,3.394,5.333,29.952,4.914,38.657Z" fill="#fef6b8"/>
    <path id="Trazado_6426" data-name="Trazado 6426" d="M917.455,913.393a7.879,7.879,0,0,0-6.033-6.353c-4.637-1.27-11.18.7-12.862,1.652a10.721,10.721,0,0,0-5.051,7.877,21.341,21.341,0,0,0,.825,8,1.568,1.568,0,0,1,.373-.166c1.669-.494,3,2.644,3,2.644l.858,1.016s-.095-1.842,0-4.383a34.46,34.46,0,0,1,1.363-7.872c.639-2.028,2.035-1.72,3.813-2.037s5.465-.445,7.558-.89a7.73,7.73,0,0,0,3.306-1.524,6.77,6.77,0,0,1,1.268,2.858,28.135,28.135,0,0,1,.448,6.1l.439-.753.2-.327s.762-4.32.505-5.844Z" fill="#5e1a47"/>
    <path id="Trazado_6427" data-name="Trazado 6427" d="M916.593,931.456c-.431,3.064-1.508,5.748-3.837,6.433a18.3,18.3,0,0,1-2.913.62,11.029,11.029,0,0,1-5.639-.62c-1.724-.7-3.862-3.5-4.944-5.056-.435-.62-.7-1.042-.7-1.042a3.9,3.9,0,0,1-4.189-2.2c-.51-1.352-.841-4.4.332-5.183,1.669-.5,3,2.642,3,2.642l.862,1.016s-.1-1.844,0-4.385a34.514,34.514,0,0,1,1.359-7.872c.639-2.028,2.035-1.718,3.813-2.038s5.465-.442,7.558-.884a7.738,7.738,0,0,0,3.3-1.524,6.7,6.7,0,0,1,1.272,2.855,28.135,28.135,0,0,1,.448,6.1,49.43,49.43,0,0,1,.526,6.022,30.308,30.308,0,0,1-.249,5.117Z" fill="#f8be90"/>
    <path id="Trazado_6428" data-name="Trazado 6428" d="M909.843,938.509c-.045.311-.132.926-.248,1.743-.05.371-.108.793-.17,1.246-.7,4.949-1.948,13.878-1.919,13.97.042.127-.849-1.825-1.777-4.066s-4.575-9.574-4.662-10.123c-.012-.1-.05-.386-.1-.793-.12-.9-.331-2.424-.621-3.918-.112-.574-.236-1.143-.365-1.672a9.744,9.744,0,0,0-.717-2.063c1.082,1.555,3.22,4.36,4.944,5.056a11.029,11.029,0,0,0,5.639.62Z" fill="#f8be90"/>
    <path id="Trazado_6429" data-name="Trazado 6429" d="M919.3,988.413a.4.4,0,0,1,.033.082.758.758,0,0,1,.067.254,2.649,2.649,0,0,1-.535,1.626c-.083.127-.141.2-.141.2a.94.94,0,0,1,.013.107c.074,1.148-2.64,1.992-5.416,1.992a18.58,18.58,0,0,1-5.523-.956c-.572-2.033-.125-7.429.953-9.147,0,0,.828-.635,2.287-1.586a4.96,4.96,0,0,1,4.827-.7,11.475,11.475,0,0,1,3.763,3.558,1.8,1.8,0,0,1-.1,1.926,1.724,1.724,0,0,1-.116.167.362.362,0,0,1,.029.092,2.972,2.972,0,0,1-.141,2.388Z" fill="#f8be90"/>
    <path id="Trazado_6430" data-name="Trazado 6430" d="M932.513,1009.822c-1.429-5.055-6.223-9.393-7.5-10.475a151.186,151.186,0,0,1,1.372,16.177c0,.489,0,1.036.008,1.624a27.342,27.342,0,0,0,6.12-7.326Z" fill="#f8be90"/>
    <path id="Trazado_6431" data-name="Trazado 6431" d="M925.208,994.257l-.385,3.654-.038.351a11.853,11.853,0,0,1-4.91,1.077c-2.8,0-7.881.254-9.721.381s-8.772-.188-12.452,0a52.275,52.275,0,0,1-6.928-.056c-.82-.061-1.583-.152-2.283-.264-2.416-.376-4.384-.762-4.384-.762l-.162-1.271a64.912,64.912,0,0,0,13.327-1.667c.459.021.911.041,1.346.056.182.011.365.021.543.026,1.367.056,3.406.01,5.755-.092,6.407-.045,15.361-.33,20.292-1.433Z" fill="#9f99cb"/>
    <path id="Trazado_6432" data-name="Trazado 6432" d="M875.277,1126.893c-5.209-.253-6.224-.891-6.224-.891-1.185.974-6.352,6.568-6.182,8.429s7.2-1.1,11.262-2.71a29.227,29.227,0,0,0,7.625-4.828,35.326,35.326,0,0,1-6.481,0Z" fill="#eb5b52"/>
    <path id="Trazado_6433" data-name="Trazado 6433" d="M921.777,1127.005l-14.229-.746c.294,1.649,1.906,5.549,2.581,5.884s20.582.34,20.752,0-9.1-5.138-9.1-5.138Z" fill="#eb5b52"/>
    <path id="Trazado_6434" data-name="Trazado 6434" d="M925.842,1051.81c-.717,9.638-3.659,67.218-4.024,74.449-.024.485-.041.746-.041.746l-4.62-.244-.253-.009-8.876-.468-.48-.025s-2.159-3.559-3.067-16.516a291.218,291.218,0,0,1-.111-31.915c.219-4.616.062-27.224.012-33.447,0-1.012-.012-1.592-.012-1.592l-22.612,84.1a35.326,35.326,0,0,1-6.481,0c-5.209-.253-6.224-.891-6.224-.891s.381-17.913,2.793-31.251a238.607,238.607,0,0,1,5.847-24.518v-6.862c0-5.59.762-26.258,1.438-32.358.584-5.217,3.393-24.443,4.545-30.539a11.6,11.6,0,0,1,.431-1.836s1.968.386,4.384.762c.7.112,1.463.2,2.283.264a52.275,52.275,0,0,0,6.928.056c3.477-.178,9.846.092,12.1.021l.257-.015c.033,0,.07-.006.1-.006,1.84-.127,6.92-.381,9.721-.381h.054c.091,0,.174,0,.261-.005a11.837,11.837,0,0,0,4.595-1.072l.038-.351c.049.376.116.859.19,1.438a149.226,149.226,0,0,1,1.368,16.175c0,.489,0,1.036.012,1.629.046,8.067.162,25.069-.551,34.657Z" fill="#6b63a9"/>
    <path id="Trazado_6435" data-name="Trazado 6435" d="M903.955,947.545,893.48,953.8a.172.172,0,0,1-.066.02.125.125,0,0,1-.071-.025.128.128,0,0,1-.054-.128l1.894-10.885c.091-.041.182-.076.282-.117l-1.877,10.774,10.26-6.124c.037.076.07.158.107.234Z" fill="#fdc954"/>
    <path id="Trazado_6436" data-name="Trazado 6436" d="M917.6,950.985a.136.136,0,0,1-.087.036.113.113,0,0,1-.054-.015l-8.793-4.066c.009-.086.025-.172.034-.259l8.585,3.964-2.759-7.14c.1.046.211.086.323.132l2.784,7.211a.131.131,0,0,1-.033.137Z" fill="#fdc954"/>
    <path id="Trazado_6437" data-name="Trazado 6437" d="M897.193,929.21a.124.124,0,0,1-.112-.069,7.406,7.406,0,0,0-1.6-2.17.127.127,0,0,1-.049-.173.123.123,0,0,1,.17-.05,7.342,7.342,0,0,1,1.7,2.276.127.127,0,0,1-.054.172.124.124,0,0,1-.058.014Z" fill="#ce6a15"/>
    <path id="Trazado_6438" data-name="Trazado 6438" d="M902.658,921.333c1.712-1.016,4.637-1.207,5.143-.508s-.253.635-1.716.508a27.708,27.708,0,0,0-3.427,0Z" fill="#5e1a47"/>
    <path id="Trazado_6439" data-name="Trazado 6439" d="M916.32,919.937a5.426,5.426,0,0,0-2.482,0c-1.4.316-1.082,1.556-.7,1.476s3.183-1.476,3.183-1.476Z" fill="#5e1a47"/>
    <path id="Trazado_6440" data-name="Trazado 6440" d="M914.567,929.21a.132.132,0,0,1-.054-.012l-2.573-1.178a.128.128,0,1,1,.108-.231l2.337,1.07c-.3-1.239-1.579-6.6-1.7-7.049a.123.123,0,0,1,.091-.155.126.126,0,0,1,.154.09c.132.5,1.69,7.031,1.756,7.308a.135.135,0,0,1-.045.128.119.119,0,0,1-.079.029Z" fill="#ce6a15"/>
    <path id="Trazado_6441" data-name="Trazado 6441" d="M911.459,933.164a4.871,4.871,0,0,1-2.784-.869.131.131,0,0,1-.021-.179.127.127,0,0,1,.178-.021,4.632,4.632,0,0,0,5.317-.008.131.131,0,0,1,.178.041.129.129,0,0,1-.042.175,5.27,5.27,0,0,1-2.826.861Z" fill="#ea5443"/>
    <path id="Trazado_6442" data-name="Trazado 6442" d="M909.843,938.509c-.045.311-.132.926-.248,1.743a10.584,10.584,0,0,1-9.618-5.356,9.744,9.744,0,0,0-.717-2.063c1.082,1.555,3.22,4.36,4.944,5.056a11.029,11.029,0,0,0,5.639.62Z" fill="#5e1a47"/>
    <path id="Trazado_6443" data-name="Trazado 6443" d="M908.878,982.543a.127.127,0,0,1-.1.153c-.211.036-.43.071-.654.107h-.009a51.22,51.22,0,0,1-6.965.4,10.5,10.5,0,0,0-1.347,4.563c-.2,1.937-.062,4.63,1.7,6.516a35.047,35.047,0,0,0,6.228-2.669.126.126,0,0,1,.174.041.118.118,0,0,1-.041.173,42.857,42.857,0,0,1-10.239,3.867,54.311,54.311,0,0,1-9.352,1.566h-.009a.131.131,0,0,1-.128-.117.126.126,0,0,1,.12-.137,54.994,54.994,0,0,0,12.986-2.638c-1.757-1.946-1.893-4.665-1.7-6.627a12.122,12.122,0,0,1,1.281-4.538c-7.877-.005-17.138-.914-17.263-.925a.135.135,0,0,1-.1-.066.118.118,0,0,1-.008-.112c1.533-3.481,2.494-12.206,2.32-15.017-.17-2.7-2.1-9.858-4.628-12.973a.125.125,0,0,1,.016-.178.123.123,0,0,1,.178.02c2.561,3.151,4.517,10.382,4.691,13.111.17,2.79-.771,11.368-2.275,14.976,1.794.173,17.047,1.57,24.232.529.042-1.164.415-12.252,0-16.308-.178-1.717-.286-3.547-.393-5.483-.116-2.033-.237-4.116-.452-6.068.166.366.282.62.331.717v.005c.166,1.738.27,3.552.373,5.331.112,1.936.216,3.76.39,5.473.418,4.015.054,14.864.008,16.292.166-.025.328-.05.481-.081a.128.128,0,0,1,.145.1Z" fill="#fdc954"/>
    <path id="Trazado_6444" data-name="Trazado 6444" d="M919.415,985.933a.362.362,0,0,1,.029.092h-.062c-.476,0-1.077-.051-1.844-.117l-.41-.036a.121.121,0,0,1-.112-.137.126.126,0,0,1,.137-.117l.406.036a19.561,19.561,0,0,0,1.972.112,1.724,1.724,0,0,1-.116.167Z" fill="#ce6a15"/>
    <path id="Trazado_6445" data-name="Trazado 6445" d="M919.4,988.749a5.267,5.267,0,0,1-.978.091,5.759,5.759,0,0,1-1.637-.244.123.123,0,0,1-.087-.157.126.126,0,0,1,.158-.082,5.288,5.288,0,0,0,2.477.138.758.758,0,0,1,.067.254Z" fill="#ce6a15"/>
    <path id="Trazado_6446" data-name="Trazado 6446" d="M918.727,990.573a.94.94,0,0,1,.013.107,7.624,7.624,0,0,1-1.968.233c-.208,0-.427-.01-.655-.025a.121.121,0,0,1-.12-.132.117.117,0,0,1,.132-.117,7.791,7.791,0,0,0,2.739-.264c-.083.127-.141.2-.141.2Z" fill="#ce6a15"/>
    <path id="Trazado_6447" data-name="Trazado 6447" d="M925.208,994.384h-.017a.129.129,0,0,1-.111-.143c.045-.307,4.321-30.7,4.574-34.04a.125.125,0,0,1,.137-.118.127.127,0,0,1,.116.136c-.253,3.354-4.529,33.75-4.575,34.057a.125.125,0,0,1-.124.109Z" fill="#fdc954"/>
    <path id="Trazado_6448" data-name="Trazado 6448" d="M908.878,1016.8a.118.118,0,0,1-.12.112h-.021a.126.126,0,0,1-.108-.141c.017-.124,1.4-11.581,1.169-17.03l.257-.015c.228,5.476-1.156,16.954-1.177,17.074Z" fill="#5e1a47"/>
    <path id="Trazado_6449" data-name="Trazado 6449" d="M903.57,1045.893a.085.085,0,0,1-.029,0,.132.132,0,0,1-.1-.153c.049-.195,4.611-19.513,4.744-22.264a.124.124,0,0,1,.133-.121.127.127,0,0,1,.12.133c-.133,2.776-4.558,21.514-4.749,22.31a.123.123,0,0,1-.124.1Z" fill="#5e1a47"/>
    <path id="Trazado_6450" data-name="Trazado 6450" d="M883.95,1101.778h-.034a.13.13,0,0,1-.091-.157c.112-.452,11.118-45.63,12.12-51.485,1.032-6.025,2.379-38.474,2.487-44.872a.15.15,0,0,1,.132-.124.129.129,0,0,1,.125.129c-.108,6.4-1.459,38.875-2.491,44.909-1.007,5.867-12.016,51.049-12.124,51.505a.128.128,0,0,1-.124.095Z" fill="#5e1a47"/>
    <path id="Trazado_6451" data-name="Trazado 6451" d="M921.777,1013.921c-.5,4.682-.7,11.627-.7,11.7a.132.132,0,0,1-.133.12.119.119,0,0,1-.12-.132c0-.067.191-7.016.7-11.714a29.063,29.063,0,0,0-1.595-14.553c.091,0,.174,0,.261-.005a29.205,29.205,0,0,1,1.587,14.587Z" fill="#5e1a47"/>
    <path id="Trazado_6452" data-name="Trazado 6452" d="M922.067,1042.371l-.153,4.3c-.386,11.179-1.115,31.985-1.21,36.522-.042,1.856-.6,7.425-1.256,13.873-1.085,10.745-2.544,25.135-2.291,29.7l-.253-.009c-.248-4.574,1.148-18.414,2.292-29.714.65-6.443,1.214-12.008,1.255-13.848.1-4.55.825-25.355,1.21-36.53l.153-4.3a.131.131,0,0,1,.125-.125.133.133,0,0,1,.128.133Z" fill="#5e1a47"/>
    <path id="Trazado_6453" data-name="Trazado 6453" d="M870.9,1101.1h-.016a.128.128,0,0,1-.112-.141c.94-8.938,6.6-30.021,6.8-30.746-.012-.721-.393-21,.879-31.417,1.454-11.959,3.464-28.343,4.123-32.532a.127.127,0,0,1,.145-.108.13.13,0,0,1,.107.146c-.658,4.189-2.668,20.569-4.127,32.523-1.28,10.537-.878,31.193-.874,31.4a.116.116,0,0,1,0,.037c-.058.215-5.843,21.7-6.792,30.725a.126.126,0,0,1-.124.112Z" fill="#5e1a47"/>
    <path id="Trazado_6454" data-name="Trazado 6454" d="M885.1,962.847a20.52,20.52,0,0,1,2.328,7.884c.087,1.759-.422,11.777-.422,11.777l-3.431-.362a56.049,56.049,0,0,0,2.018-9.469,58.344,58.344,0,0,0-.493-9.83Z" fill="#fdc954"/>
    <path id="Trazado_6455" data-name="Trazado 6455" d="M927.495,994.765c-.447,2.648-.9,4.533-1.222,5.722a16.185,16.185,0,0,0-1.26-1.14l-.19-1.436.385-3.654,2.921-21.094s.212,16.607-.634,21.6Z" fill="#fdc954"/>
    <path id="Trazado_6456" data-name="Trazado 6456" d="M908.028,1126.284l-.48-.025s-2.159-3.559-3.067-16.516a291.218,291.218,0,0,1-.111-31.915c.219-4.616.062-27.224.012-33.447l.564-4.529,1.839-8.209c-.091,1.272.382,30.609,0,41.764-.385,11.308-1.686,31.127-.849,36.588.617,3.995,1.6,12.179,2.088,16.289Z" fill="#5e1a47"/>
    <path id="Trazado_6457" data-name="Trazado 6457" d="M907.133,923.016c-.6-.031-.634,2.6,0,2.6s.6-2.573,0-2.6Z" fill="#5e1a47"/>
    <path id="Trazado_6458" data-name="Trazado 6458" d="M915.363,922.318c-.477.038-.319,2.318.157,2.286s.634-2.35-.157-2.286Z" fill="#5e1a47"/>
    <path id="Trazado_6459" data-name="Trazado 6459" d="M898.618,995.756a26.187,26.187,0,0,1-6.7,3.593c-.369.117-.75.224-1.148.315a36.807,36.807,0,0,1-7.1.81,11.6,11.6,0,0,1,.431-1.836l-.162-1.271a64.912,64.912,0,0,0,13.327-1.667c.459.021.911.041,1.346.056Z" fill="#5e1a47"/>
    <path id="Trazado_6460" data-name="Trazado 6460" d="M902.231,926.859c-2.117.683-1.926,3.579-.654,4.892a2.5,2.5,0,0,0,4.148-1.652c.128-2.16-2.246-3.642-3.494-3.24Z" fill="#f49f7f"/>
    <path id="Trazado_6461" data-name="Trazado 6461" d="M916.593,931.456a1.866,1.866,0,0,1-1.52-1.23c-.278-1.108-.075-3.832,1.769-3.887a30.308,30.308,0,0,1-.249,5.117Z" fill="#f49f7f"/>
    <path id="Trazado_6462" data-name="Trazado 6462" d="M1029.852,1129.98a5.294,5.294,0,0,1-3.112-1.587,40.482,40.482,0,0,1-3.323-4.632c-2.549-3.709-7.587-15.775-9.464-21.755-.038-.1-.067-.2-.1-.3.253-.025.485-.046.667-.066,2.913-.282,9.369-1.165,12.829-1.869.071.617.162,1.388.261,2.258.676,5.8,1.91,16.2,2.242,17.868a10.238,10.238,0,0,0,1.467,3.091c.7,1.094,1.512,2.175,2.117,2.987.228.3.564.8.949,1.4.22,1.048-1.7,3.141-4.533,2.61Z" fill="#f8be90"/>
    <path id="Trazado_6463" data-name="Trazado 6463" d="M1027.61,1102.027c-2.95.352-9.021.874-13.657-.021-.038-.1-.067-.2-.1-.3.253-.025.485-.046.667-.066,2.913-.282,9.369-1.165,12.829-1.869.071.617.162,1.388.261,2.258Z" fill="#5e1a47"/>
    <path id="Trazado_6464" data-name="Trazado 6464" d="M996.38,951.672c-.469-1.873-2.773-4.76-3.2-5.228s-.51-4.916-.585-6.789-.625-3.589-2.473-4.252a13.2,13.2,0,0,1-3.261-1.755s-3.473-3.356-6.987-3.707-6.2,3-6.2,3c-4.719-.663-7.686,3.589-8.076,6.554a6.561,6.561,0,0,0,2.553,5.8v-.012c-.3-1.775-.406-3.3-.1-3.932a1.387,1.387,0,0,1,.32-.4.655.655,0,0,1,.58-.335,5.446,5.446,0,0,1,.584-.02c1.052,0,3.2.429,3.588.429s1.057-1.443,2.225-2.38,3.9-1.171,6.009-.741,2.693,1.639,3.161,3.94,1.4,5.579,2.495,6.125a7.25,7.25,0,0,0,3.1.351,3.86,3.86,0,0,1-2.519,3.8l-.091.651.617,5.509c2.3,1.444,3.767.57,5.876-.874a5.511,5.511,0,0,0,2.379-5.734Z" fill="#5e1a47"/>
    <path id="Trazado_6465" data-name="Trazado 6465" d="M990.114,948.316a3.851,3.851,0,0,1-2.515,3.806,4,4,0,0,1-.091.651c-.427,2.027-2.3,5.923-3.713,7.074a9.95,9.95,0,0,1-3.186,1.858,7.35,7.35,0,0,1-4.6-.046,7.172,7.172,0,0,1-3.766-3.61,26.872,26.872,0,0,1-2.018-4.826c-.278-.838-.51-1.62-.713-2.271a48.025,48.025,0,0,1-1.367-5.67c-.3-1.774-.406-3.3-.1-3.927a1.4,1.4,0,0,1,.32-.408,2.019,2.019,0,0,1,.58-.336c.157-.015.348-.019.588-.019,1.052,0,3.2.43,3.584.43s1.053-1.446,2.225-2.383,3.9-1.17,6.009-.739,2.693,1.639,3.161,3.942,1.4,5.575,2.495,6.123a7.2,7.2,0,0,0,3.1.351Z" fill="#f8be90"/>
    <path id="Trazado_6466" data-name="Trazado 6466" d="M967.063,994.725c-3.041,6.433-6.149,9.653-8.66,9.363s-6.265-3.688-7.96-7.378S945,981.851,944.7,980.558a22.784,22.784,0,0,0-.937-3.389,22.411,22.411,0,0,0-2.585-1.615c-.191-.108-.377-.215-.564-.323-.563-.309-1.106-.6-1.533-.815-1.334-.664-1.334-1.7-.427-1.933a1.5,1.5,0,0,1,.427-.057s-.083-.056-.207-.149c-.352-.281-1.044-.9-.854-1.428.249-.7,2-.7,2-.7s-2.246-1.761-1.749-2.168a2.91,2.91,0,0,1,.874-.529c-1.467-1.7-1.371-3.043-.174-3.333s2.69.992,2.69.992,0-1.4.468-1.461,1.578,1.461,2.461,3.8c.68,1.812.373,2.645.2,2.926a.712.712,0,0,1-.087.117s.05.042.141.108c.505.412,2.275,1.839,3.025,2.589a86.449,86.449,0,0,1,5.909,8.661c1.284,2.219,4.031,6.961,4.209,6.9a15.1,15.1,0,0,0,.937-2.4,2.564,2.564,0,0,1,.4-.056,5.688,5.688,0,0,1,4.28,1.653c2.4,2.181,3.456,6.774,3.456,6.774Z" fill="#9f99cb"/>
    <path id="Trazado_6467" data-name="Trazado 6467" d="M1025.63,1029.206a1.24,1.24,0,0,0-.166-.426s.066.165.166.426Z" fill="#f8be90"/>
    <path id="Trazado_6468" data-name="Trazado 6468" d="M1031.435,1028.49a7.238,7.238,0,0,1-1.815,4.508c-.021.017-.037.037-.058.054a3.576,3.576,0,0,1-.319.269,1.422,1.422,0,0,1-1.372.327.52.52,0,0,1-.124-.066c-.054.083-.1.162-.145.232v.008c-1.09,1.679-1.148-.476-1.26-1.823a10.067,10.067,0,0,0-.468-2.08c-.042-.145-.091-.277-.137-.406-.037-.112-.074-.215-.107-.307a.223.223,0,0,0-.021-.074,1.161,1.161,0,0,0-.129-.319c.013.05.063.153.112.294l.038.1a.735.735,0,0,1-.17.63c-.406.469-3.8.348-4.973-.41a5.654,5.654,0,0,1-.551-.447l-.025-.017c-1.628-1.471-5.125-5.432-6.969-7.38a13.59,13.59,0,0,1-.966-1.185c-2.5-3.356-6.829-10.815-7.289-12.8-.526-2.283-2.809-8.954-3.571-10.826a13.2,13.2,0,0,1,1.114-.717c.216-.126.46-.262.73-.4a18.28,18.28,0,0,1,4.131-1.573,15.324,15.324,0,0,1,4.628-.459,7.592,7.592,0,0,1,1.281.169s.816,5.323.878,5.673,2.921,6.557,4.094,10.12,3.452,12.937,3.452,12.937,2.925.584,5.266,1.172a6.292,6.292,0,0,1,3.576,2.868,1.812,1.812,0,0,1,1.169,1.931Z" fill="#9f99cb"/>
    <path id="Trazado_6469" data-name="Trazado 6469" d="M1037.107,1132.769c-.087-1-1.6-3.634-2.726-5.4.22,1.044-1.695,3.136-4.529,2.61a5.31,5.31,0,0,1-3.116-1.587h0c.365.866,4.815,4.9,7.272,5.665s3.22.058,3.1-1.289Z" fill="#5e1a47"/>
    <path id="Trazado_6470" data-name="Trazado 6470" d="M1034.3,1127.154c-.141-.232-.46-.65-.862-1.181.228.3.564.8.945,1.4a.61.61,0,0,0-.083-.216Z" fill="#f8be90"/>
    <path id="Trazado_6471" data-name="Trazado 6471" d="M980.227,1131.074c-.468.879-7.139,2.631-9.128,2.4a2.523,2.523,0,0,1-2.341-1.641c-1.231.7-5.151,3.746-5.851,5.387s6.435-1.172,7.782-1.641,7.023-2.084,7.023-2.084v2.963l1.111-.058a35.31,35.31,0,0,1,1.4-4.567c.527-.994.187-1.446.187-1.446a3.936,3.936,0,0,1-.187.688Z" fill="#5e1a47"/>
    <path id="Trazado_6472" data-name="Trazado 6472" d="M982.283,1116.766c-.539,5.93-1.442,11.66-1.869,13.62a4.087,4.087,0,0,1-.187.688c-.468.879-7.139,2.631-9.128,2.4a2.53,2.53,0,0,1-2.341-1.641s4.566-3.741,4.682-4.678c.112-.886-3.008-18.41-4.438-24.236,3.469.352,6.9.6,10.032.762,1.173.058,2.308.1,3.385.133.5,3.182.3,8.134-.136,12.953Z" fill="#f8be90"/>
    <path id="Trazado_6473" data-name="Trazado 6473" d="M1029.268,1099.3a15.633,15.633,0,0,1-1.919.473c-.982.2-2.2.414-3.509.626-3.324.53-7.231,1.044-9.32,1.243-.182.02-.414.041-.667.066-4.728.472-20.905,2.159-28.214,2.159-1,0-2.08-.017-3.22-.05-3.953-.112-8.647-.41-13.417-.9l-.936-.1c-.079-.009-.158-.017-.236-.029-4.069-.44-8.151-1.02-11.83-1.737a76.373,76.373,0,0,1-18.585-6.671,78.359,78.359,0,0,1,1.848-11.706c1.488-6.2,7.724-30.779,9.245-35.7s9.833-26.918,12.874-31.484a28.293,28.293,0,0,1,6.7-6.406,62.333,62.333,0,0,1,6.506-4.119c.083.319.137.522.137.522s1.686.266,3.63.551c.1.017.186.029.281.046,1.513.22,3.133.448,4.223.576a27.013,27.013,0,0,0,2.875.128h.253c1.948-.008,3.721-.128,3.721-.128l1.3-1.89c1.977,1.115,6.266,5.213,9.038,9.108a21.434,21.434,0,0,1,1.715,2.785c.2.4.406.853.622,1.346.513,1.2,1.056,2.661,1.6,4.281a126.392,126.392,0,0,1,4.8,19.123,61.788,61.788,0,0,0,3.745,13.521,40.508,40.508,0,0,1,3.726,6.124c2.958,5.764,5.759,13.164,8.328,19.624a81.537,81.537,0,0,1,4.683,18.609Z" fill="#eb5b52"/>
    <path id="Trazado_6474" data-name="Trazado 6474" d="M973.5,1000.223a42.528,42.528,0,0,0,1.09,4.747c.083.319.137.518.137.518s5.561.879,8.138,1.173a48.964,48.964,0,0,0,6.845,0l1.3-1.881,1.33-1.923a67.846,67.846,0,0,1-9.012-.7c-3.568-.643-9.713-1.7-9.829-1.93Z" fill="#fef6b8"/>
    <path id="Trazado_6475" data-name="Trazado 6475" d="M1002.288,969.032a19.6,19.6,0,0,0-16.678,5.15s-4.914-3.8-8.076-5.15-8.6-1.582-8.6-1.582,5.441-2.4,7.782-3.216a22.6,22.6,0,0,1,4.313-1.054s-.041-.14-.107-.374c-.079-.262-.191-.656-.315-1.1a9.95,9.95,0,0,0,3.186-1.858c1.413-1.151,3.286-5.047,3.713-7.074.062.534.137,1.2.22,1.938.36,3.17.845,7.6.808,7.711-.058.173,2.225,1.11,5.5,2.514s8.25,4.1,8.25,4.1Z" fill="#f8be90"/>
    <path id="Trazado_6476" data-name="Trazado 6476" d="M970.167,986.3a88.028,88.028,0,0,1-3.1,8.422,19.213,19.213,0,0,0-.841-2.608,11.632,11.632,0,0,0-2.615-4.166,5.688,5.688,0,0,0-4.28-1.653c.522-1.882,2.722-9.784,3.75-11.98a10.563,10.563,0,0,1,3.808,1.737,18.08,18.08,0,0,1,2.084,2.144c.85,1.006,1.484,1.891,1.484,1.891a16.286,16.286,0,0,0-.286,6.213Z" fill="#f8be90"/>
    <path id="Trazado_6477" data-name="Trazado 6477" d="M1011.719,993.62a15.324,15.324,0,0,0-4.628.459,17.967,17.967,0,0,0-3.216,1.128,17.756,17.756,0,0,0-1.645.847,80.247,80.247,0,0,1-1.628-10.313,11.884,11.884,0,0,0,.282-4.359l1.777-1.123,5.184-3.263a27.4,27.4,0,0,1,2.929,7.2,39.429,39.429,0,0,1,.945,9.429Z" fill="#f8be90"/>
    <path id="Trazado_6478" data-name="Trazado 6478" d="M1008.786,976.406s-1.931-5.618-6.5-7.374a19.6,19.6,0,0,0-16.678,5.15s-4.914-3.8-8.076-5.15-8.6-1.58-8.6-1.58a16.323,16.323,0,0,0-3.042,1.346c-.584.352-3.393,5.384-3.393,5.384s.228.044.584.137a10.587,10.587,0,0,1,3.8,1.736,26.6,26.6,0,0,1,3.572,4.038,16.22,16.22,0,0,0-.29,6.211,8.937,8.937,0,0,0,1.632,3.971s1.583,9.714,1.7,9.948,6.261,1.287,9.829,1.93a67.846,67.846,0,0,0,9.012.7s5.093-8.018,5.619-11.295a18.065,18.065,0,0,0,2.644-5.822,11.885,11.885,0,0,0,.282-4.36l6.961-4.382.941-.592Z" fill="#fdc954"/>
    <path id="Trazado_6479" data-name="Trazado 6479" d="M978.636,1006.089c-8.295,9.431-22.243,32-24.509,60.017a.117.117,0,0,1-.116.107H954a.116.116,0,0,1-.107-.128c2.258-27.961,16.135-50.519,24.46-60.042.1.017.186.029.281.046Z" fill="#f7bec1"/>
    <path id="Trazado_6480" data-name="Trazado 6480" d="M967.175,1087.939c.381,6.4.725,12.153.891,14.88-.079-.009-.158-.017-.236-.029-.162-2.739-.51-8.47-.887-14.839-.9-15.17,2.01-28.715,4.276-37.575a.121.121,0,0,1,.141-.091.113.113,0,0,1,.083.145c-4.716,18.485-4.7,30.257-4.268,37.509Z" fill="#f7bec1"/>
    <path id="Trazado_6481" data-name="Trazado 6481" d="M943.4,1088.063a.027.027,0,0,1-.017,0,.117.117,0,0,1-.1-.133c.025-.17,2.523-17.254,4.686-24.36a.117.117,0,0,1,.145-.079.124.124,0,0,1,.079.149c-2.159,7.086-4.653,24.153-4.678,24.323a.121.121,0,0,1-.116.1Z" fill="#f7bec1"/>
    <path id="Trazado_6482" data-name="Trazado 6482" d="M993.3,1063.59a.12.12,0,0,1-.108.129h-.008a.121.121,0,0,1-.116-.108c-.013-.107-1.107-11.192-2.188-20.863-.253-2.267-.456-4.977-.672-7.844-.683-8.975-1.516-19.977-4.471-28.111h.253c2.938,8.155,3.771,19.132,4.45,28.09.216,2.872.423,5.578.676,7.836,1.077,9.68,2.171,20.76,2.184,20.871Z" fill="#f7bec1"/>
    <path id="Trazado_6483" data-name="Trazado 6483" d="M1007.07,1072.3a.119.119,0,0,1-.116-.091c-.025-.107-2.677-10.893-4.777-21.787-2.043-10.558-3.68-18.286-7.7-29.068a.118.118,0,0,1,.071-.149.113.113,0,0,1,.149.066c4.032,10.8,5.669,18.535,7.711,29.11,2.1,10.885,4.753,21.667,4.778,21.774a.114.114,0,0,1-.087.141.054.054,0,0,1-.025,0Z" fill="#f7bec1"/>
    <path id="Trazado_6484" data-name="Trazado 6484" d="M999.421,1094.929a.119.119,0,0,1-.116-.116c0-.2-.489-20.064-2.184-28.695a.118.118,0,0,1,.232-.045c1.7,8.652,2.18,28.537,2.184,28.736a.119.119,0,0,1-.112.12Z" fill="#f7bec1"/>
    <path id="Trazado_6485" data-name="Trazado 6485" d="M1020.019,1092.588a.121.121,0,0,1-.116-.112,77.49,77.49,0,0,0-8.287-30.315.12.12,0,0,1,.049-.157.117.117,0,0,1,.158.049,77.762,77.762,0,0,1,8.316,30.411.119.119,0,0,1-.112.124Z" fill="#f7bec1"/>
    <path id="Trazado_6486" data-name="Trazado 6486" d="M987.483,949.872c-.621-.151-.7,1.37,0,1.448s.626-1.3,0-1.448Z" fill="#eb5b52"/>
    <path id="Trazado_6487" data-name="Trazado 6487" d="M982.138,943.947c-1.521-.273-4.252.546-4.836,1.716s.468,1.093,1.015.546a33.513,33.513,0,0,1,3.821-2.262Z" fill="#5e1a47"/>
    <path id="Trazado_6488" data-name="Trazado 6488" d="M968.953,948.16a3.444,3.444,0,0,1,2.067-1.287c.821-.156,1.637-.078,1.836.351s-.079.741-.821.585a13.071,13.071,0,0,0-3.082.351Z" fill="#5e1a47"/>
    <path id="Trazado_6489" data-name="Trazado 6489" d="M973.283,956.392a.11.11,0,0,1-.046-.01.113.113,0,0,1-.07-.108c.029-2.943.016-7.73-.137-8.05a.11.11,0,0,1,.025-.161.12.12,0,0,1,.166.027c.227.3.2,5.806.182,7.908l1.827-1.758a.117.117,0,1,1,.162.169l-2.026,1.95a.126.126,0,0,1-.083.033Z" fill="#ce6a15"/>
    <path id="Trazado_6490" data-name="Trazado 6490" d="M976.154,957.806a2.261,2.261,0,0,1-.688-.094.117.117,0,0,1,.079-.221c.066.023,1.62.533,3.365-1.3a.119.119,0,0,1,.166,0,.123.123,0,0,1,0,.166,4.043,4.043,0,0,1-2.926,1.45Z" fill="#ea5443"/>
    <path id="Trazado_6491" data-name="Trazado 6491" d="M987.728,954.711c-1,3.24-3.1,7.449-6.8,8.1-.079-.262-.191-.656-.315-1.1a9.95,9.95,0,0,0,3.186-1.858c1.413-1.151,3.286-5.047,3.713-7.074.062.534.137,1.2.22,1.938Z" fill="#5e1a47"/>
    <path id="Trazado_6492" data-name="Trazado 6492" d="M990.877,977.849a.107.107,0,0,1-.054-.014c-1.446-.8-4.881-3.23-6.518-4.483a.117.117,0,0,1-.025-.164.12.12,0,0,1,.166-.022c1.653,1.263,5.105,3.7,6.489,4.464a.115.115,0,0,1,.045.16.116.116,0,0,1-.1.059Z" fill="#fef6b8"/>
    <path id="Trazado_6493" data-name="Trazado 6493" d="M990.45,976.322a.129.129,0,0,1-.083-.032.12.12,0,0,1,0-.165,29.276,29.276,0,0,1,6.555-4.764c2.561-1.431,4.811-2.33,5.718-2.3a.114.114,0,0,1,.112.121.118.118,0,0,1-.12.113h-.041c-1.848,0-9.05,3.789-12.054,6.995a.114.114,0,0,1-.083.037Z" fill="#fef6b8"/>
    <path id="Trazado_6494" data-name="Trazado 6494" d="M990.45,989.982a.111.111,0,0,1-.087-.039.114.114,0,0,1,.008-.166c2.673-2.364,10.455-8.5,12.067-9.513a.116.116,0,0,1,.161.037.119.119,0,0,1-.037.161c-1.6,1.011-9.365,7.131-12.038,9.491a.107.107,0,0,1-.074.029Z" fill="#fef6b8"/>
    <path id="Trazado_6495" data-name="Trazado 6495" d="M972.583,991.309a.109.109,0,0,1-.079-.031,9.181,9.181,0,0,1-2.449-4.948,14.8,14.8,0,0,1,.219-6,.117.117,0,0,1,.145-.083.116.116,0,0,1,.083.143,14.609,14.609,0,0,0-.219,5.886,8.978,8.978,0,0,0,2.378,4.826.12.12,0,0,1,.008.165.122.122,0,0,1-.086.039Z" fill="#5e1a47"/>
    <path id="Trazado_6496" data-name="Trazado 6496" d="M976.366,1045.11h0a.119.119,0,0,1-.116-.12c0-.266.285-26.594,4.926-36.846a.116.116,0,0,1,.154-.058.122.122,0,0,1,.058.158c-4.616,10.206-4.9,36.485-4.906,36.75a.119.119,0,0,1-.116.116Z" fill="#f7bec1"/>
    <path id="Trazado_6497" data-name="Trazado 6497" d="M979.995,1034.552h-.012a.124.124,0,0,1-.108-.129c.017-.161,1.683-16.247,5.08-24.936a.118.118,0,0,1,.22.083c-3.39,8.664-5.051,24.712-5.063,24.874a.122.122,0,0,1-.117.108Z" fill="#f7bec1"/>
    <path id="Trazado_6498" data-name="Trazado 6498" d="M944.24,970.549c-.05-.018-.1-.047-.153-.07.14.417.12.7-.063.857a.34.34,0,0,1-.116.065,1.8,1.8,0,0,1,.531,1.508.662.662,0,0,1-.713.468h-.079c-.083-.005-.17-.014-.265-.024a2,2,0,0,1,.779,1.321.817.817,0,0,1-.452.66,2.848,2.848,0,0,1-1.446.3,8.725,8.725,0,0,1-1.081-.075c-.191-.108-.377-.215-.564-.323a5.113,5.113,0,0,0,2.975-.094.582.582,0,0,0,.332-.473c.025-.505-.671-1.147-.974-1.376-.514-.08-1.144-.211-1.806-.347-.846-.173-1.77-.365-2.487-.458a1.5,1.5,0,0,1,.427-.057s-.083-.056-.207-.149c.684.1,1.5.267,2.316.435a22.929,22.929,0,0,0,2.466.431c.31.014.493-.08.551-.295a1.548,1.548,0,0,0-.593-1.381h-.008a7.389,7.389,0,0,1-2.407-.848.116.116,0,0,1-.058-.154.12.12,0,0,1,.161-.056c.837.388,2.238,1.044,2.565.754.124-.113.066-.394,0-.614a.108.108,0,0,1,.07-.145c.017-.009.033,0,.046,0a4.671,4.671,0,0,1-1.442-2.936.116.116,0,0,1,.1-.13.115.115,0,0,1,.133.1c.17,1.184.8,2.589,1.558,2.9a.719.719,0,0,0,.46.042.712.712,0,0,1-.087.117s.05.042.141.108a.857.857,0,0,1-.212.028.988.988,0,0,1-.393-.08Z" fill="#5e1a47"/>
    <path id="Trazado_6499" data-name="Trazado 6499" d="M958.652,1004.216c-.088,0-.175,0-.262-.012-3.377-.311-6.207-4.522-7.727-6.783-1.778-2.645-5.325-14.362-5.474-14.859a.116.116,0,0,1,.074-.146.118.118,0,0,1,.149.078c.034.122,3.684,12.18,5.445,14.8,1.5,2.229,4.289,6.378,7.554,6.676a2.174,2.174,0,0,0,.245.013c3.174,0,6.323-5.544,6.679-6.191a.116.116,0,1,1,.2.113c-.364.66-3.576,6.314-6.886,6.314Z" fill="#5e1a47"/>
    <path id="Trazado_6500" data-name="Trazado 6500" d="M972.736,938.6a.118.118,0,0,1-.1-.065c-.083-.169.319-.983.323-.992a5.286,5.286,0,0,1,3.622-2.92.117.117,0,1,1,.041.23,5.149,5.149,0,0,0-3.766,3.608.124.124,0,0,1-.062.127.122.122,0,0,1-.054.012Z" fill="#ef7d80"/>
    <path id="Trazado_6501" data-name="Trazado 6501" d="M977.683,936.437a.113.113,0,0,1-.107-.07.119.119,0,0,1,.058-.155c1.375-.6,3.182-.79,3.965.027a.116.116,0,0,1,0,.165.118.118,0,0,1-.166,0c-.626-.653-2.184-.642-3.7.026a.109.109,0,0,1-.046.01Z" fill="#ef7d80"/>
    <path id="Trazado_6502" data-name="Trazado 6502" d="M967.117,941.938H967.1a.121.121,0,0,1-.1-.132,4.5,4.5,0,0,1,2.565-3.664,3.8,3.8,0,0,1,2.793.478.117.117,0,1,1-.12.2,3.633,3.633,0,0,0-2.59-.459,4.219,4.219,0,0,0-2.412,3.475.118.118,0,0,1-.12.1Z" fill="#ef7d80"/>
    <path id="Trazado_6503" data-name="Trazado 6503" d="M990.906,944.585h0a4.046,4.046,0,0,1-3.178-1.482,5.7,5.7,0,0,1-.858-4.642.118.118,0,0,1,.232.048,5.457,5.457,0,0,0,.808,4.449,3.774,3.774,0,0,0,3,1.393.117.117,0,1,1,0,.234Z" fill="#ef7d80"/>
    <path id="Trazado_6504" data-name="Trazado 6504" d="M988.1,945.8a3.057,3.057,0,0,1-1.926-.67c-.141-.12-.183-.2-.154-.28a.119.119,0,0,1,.154-.066.115.115,0,0,1,.07.09,2.44,2.44,0,0,0,1.077.58,2.941,2.941,0,0,0,2.3-.312.115.115,0,0,1,.158.043.118.118,0,0,1-.042.16,3.251,3.251,0,0,1-1.641.455Z" fill="#ef7d80"/>
    <path id="Trazado_6505" data-name="Trazado 6505" d="M992.957,953.905a.118.118,0,0,1-.062-.017,4.349,4.349,0,0,1-1.016-4.91.118.118,0,0,1,.15-.069.114.114,0,0,1,.07.15,4.173,4.173,0,0,0,.916,4.629.117.117,0,0,1-.058.217Z" fill="#ef7d80"/>
    <path id="Trazado_6506" data-name="Trazado 6506" d="M984.823,936.179a.117.117,0,0,1-.112-.078c-.448-1.248-1.7-2.7-5.1-2.532H979.6a.118.118,0,0,1-.005-.235c3.556-.174,4.865,1.365,5.338,2.687a.115.115,0,0,1-.071.15.12.12,0,0,1-.037.007Z" fill="#ef7d80"/>
    <path id="Trazado_6507" data-name="Trazado 6507" d="M988.8,935.924c-.27,0-1.223-.135-3-1.741a.113.113,0,0,1-.009-.165.118.118,0,0,1,.166-.009c1.989,1.794,2.88,1.681,2.888,1.679a.118.118,0,0,1,.133.1.114.114,0,0,1-.091.134.593.593,0,0,1-.083.005Z" fill="#ef7d80"/>
    <path id="Trazado_6508" data-name="Trazado 6508" d="M980.87,946.8c-.771.033-.643,2.161,0,2.219s.588-2.245,0-2.219Z" fill="#5e1a47"/>
    <path id="Trazado_6509" data-name="Trazado 6509" d="M971.89,949.018c-.53.088-.323,1.932.174,1.961s.353-2.048-.174-1.961Z" fill="#5e1a47"/>
    <path id="Trazado_6510" data-name="Trazado 6510" d="M970.167,986.3a88.028,88.028,0,0,1-3.1,8.422,19.213,19.213,0,0,0-.841-2.608,20.5,20.5,0,0,0,1.641-3.81,59.76,59.76,0,0,0,1.106-10.108c.85,1.006,1.484,1.891,1.484,1.891a16.286,16.286,0,0,0-.286,6.213Z" fill="#5e1a47"/>
    <path id="Trazado_6511" data-name="Trazado 6511" d="M1003.875,995.207a17.756,17.756,0,0,0-1.645.847,80.247,80.247,0,0,1-1.628-10.313,11.884,11.884,0,0,0,.282-4.359l1.777-1.123c.149,3.492.721,10.763,1.214,14.948Z" fill="#5e1a47"/>
    <path id="Trazado_6512" data-name="Trazado 6512" d="M1025.874,1029.919c-.042-.145-.091-.277-.137-.406a.521.521,0,0,0-.02-.178.486.486,0,0,0-.108-.2c0-.013-.008-.021-.017-.025a4.83,4.83,0,0,0-1.467-.912c-.252-.128-.522-.265-.824-.422a.124.124,0,0,1-.05-.162.121.121,0,0,1,.158-.045c.3.153.571.294.82.422.982.5,1.579.8,1.715,1.281a.961.961,0,0,1-.07.65Z" fill="#5e1a47"/>
    <path id="Trazado_6513" data-name="Trazado 6513" d="M1027.871,1033.648a.52.52,0,0,1-.124-.066c-.054.083-.1.162-.145.232a8.77,8.77,0,0,0-.025-4.346.111.111,0,0,1,.071-.15.113.113,0,0,1,.149.063,8.64,8.64,0,0,1,.074,4.267Z" fill="#5e1a47"/>
    <path id="Trazado_6514" data-name="Trazado 6514" d="M1029.62,1033c-.021.017-.037.037-.058.054a3.576,3.576,0,0,1-.319.269,7.156,7.156,0,0,0,.551-3.874.113.113,0,0,1,.091-.133.111.111,0,0,1,.141.087,7.061,7.061,0,0,1-.406,3.6Z" fill="#5e1a47"/>
    <path id="Trazado_6515" data-name="Trazado 6515" d="M1029.268,1099.3a15.633,15.633,0,0,1-1.919.473c-.982.2-2.2.414-3.509.626-.415-4.89-1.21-13.9-1.948-19.94-.692-5.693-3.232-13.413-5.635-19.392,2.958,5.764,5.759,13.164,8.328,19.624a81.537,81.537,0,0,1,4.683,18.609Z" fill="#5e1a47"/>
    <path id="Trazado_6516" data-name="Trazado 6516" d="M982.283,1116.766a65.7,65.7,0,0,0-3.249-13.086c1.173.058,2.308.1,3.385.133.5,3.182.3,8.134-.136,12.953Z" fill="#5e1a47"/>
    <path id="Trazado_6517" data-name="Trazado 6517" d="M1020.475,1029.405l-.539-.426-.025-.017c-1.628-1.471-5.125-5.432-6.969-7.38a13.59,13.59,0,0,1-.966-1.185c-2.5-3.356-6.829-10.815-7.289-12.8-.526-2.283-2.809-8.954-3.571-10.826a13.2,13.2,0,0,1,1.114-.717c.216-.126.46-.262.73-.4.99,4.5,2.32,8.9,3.2,11.8a43.614,43.614,0,0,0,6.837,12.431c2.946,3.688,7.214,9.187,7.475,9.522Z" fill="#5e1a47"/>
    <path id="Trazado_6518" data-name="Trazado 6518" d="M1003.987,1022.295c-3.853-4.91-10.409-12.908-14.279-15.63l1.3-1.89c1.977,1.115,6.266,5.213,9.038,9.108a21.434,21.434,0,0,1,1.715,2.785c.2.4.406.853.622,1.346.513,1.2,1.056,2.661,1.6,4.281Z" fill="#5e1a47"/>
    <path id="Trazado_6519" data-name="Trazado 6519" d="M983.464,950.592a2.834,2.834,0,0,0-1.521,4.9c1.914,1.56,3.456.136,3.7-1.707s-1.293-3.26-2.175-3.2Z" fill="#f49f7f"/>
    <path id="Trazado_6520" data-name="Trazado 6520" d="M972.247,958.049a26.872,26.872,0,0,1-2.018-4.826,4.144,4.144,0,0,1,2.5,2.94c.273.973,0,1.615-.485,1.886Z" fill="#f49f7f"/>
    <path id="Trazado_6521" data-name="Trazado 6521" d="M978.549,988.968a.1.1,0,0,1-.049-.012c-1.7-.826-5.673-5.28-6.833-6.863a65.224,65.224,0,0,0-4.691-5.806.114.114,0,0,1,0-.165.112.112,0,0,1,.162,0,63.344,63.344,0,0,1,4.715,5.833c1.148,1.569,5.085,5.979,6.746,6.791a.117.117,0,0,1-.054.222Z" fill="#fef6b8"/>
  </g>
</svg>
