<svg xmlns="http://www.w3.org/2000/svg" width="186.163" height="226.378" viewBox="0 0 186.163 226.378">
  <g id="Grupo_10757" data-name="Grupo 10757" transform="translate(-626.392 -911.347)">
    <path id="Trazado_6526" data-name="Trazado 6526" d="M689.194,928.36s-2.354.762-7.944-.381a13.471,13.471,0,0,0-3.841-.239c-.613.061-1.1.132-1.4.183-.116.02-.228.041-.344.066l-2.917,6.916s-1.612-2.861-3.095-2.353-.99,3.878,0,5.591a4.242,4.242,0,0,0,2.014,2.032l-.265,2.038-.672,5.143a10.679,10.679,0,0,0,2.172,3.713,5.1,5.1,0,0,0,1.176.921,7.21,7.21,0,0,0,1.214.539c.129.046.249.082.378.117a7.049,7.049,0,0,0,.986.205,3.979,3.979,0,0,0,2.565-.291l-.079-1.017-.058-.727-.24-3.008v-.01s.174.076.476.183c.013.005.025.005.037.01v0a10.577,10.577,0,0,0,4.505.564c.244-.03.472-.076.7-.127,2.138-.488,3.543-1.936,4.637-4.634.049-.123.1-.255.145-.4a24.227,24.227,0,0,0,1-5.138c.361-3.552.2-7.668-1.143-9.9Z" fill="#f8be90"/>
    <path id="Trazado_6527" data-name="Trazado 6527" d="M690.337,938.264a24.227,24.227,0,0,1-1,5.138,1.465,1.465,0,0,1-.245-.727c-.095-1.051-.406-4.385,1.243-4.411Z" fill="#f49f7f"/>
    <path id="Trazado_6528" data-name="Trazado 6528" d="M759.615,949.551c-3.282,5.372-7.123,6.769-8.975,7.013-.071.01-.141.02-.211.025-2,.255-5.561.5-8.172-6.123a.684.684,0,0,1-.025-.066,20.881,20.881,0,0,1-1.1-4.025,27.587,27.587,0,0,1,.593-12.328,1.229,1.229,0,0,0,.36-.184c1.189-.843,2.884-2.19,4.409-2.322s2.793.564,4.74.808,5,.244,6.692,4.31a31.955,31.955,0,0,1,1.691,12.892Z" fill="#f8be90"/>
    <path id="Trazado_6529" data-name="Trazado 6529" d="M742.232,950.4a20.881,20.881,0,0,1-1.1-4.025,6.869,6.869,0,0,1,1.368,2.734,1.243,1.243,0,0,1-.266,1.291Z" fill="#f49f7f"/>
    <path id="Trazado_6530" data-name="Trazado 6530" d="M781.216,1076.411s-.323.456-5.843,2.043c-.791.224-1.69.476-2.71.75a52.4,52.4,0,0,1-11.693,1.666,106.4,106.4,0,0,1-12.108-.307c-1.11-.083-2.13-.187-3.074-.307a2.441,2.441,0,0,1-.253-.037c-1.1-.141-2.1-.315-3.021-.5a77.665,77.665,0,0,1-7.711-2.122,10.242,10.242,0,0,0-2.511-.381c-.083-.008-.17-.012-.253-.012a27.127,27.127,0,0,0-5.673.53c-.812.157-1.326.282-1.326.282s.2-1.173.543-3.158c.017-.087.029-.174.046-.265.049-.3.108-.617.161-.953.017-.083.034-.17.046-.261.224-1.289.485-2.793.771-4.459.012-.087.029-.174.045-.261.369-2.146.788-4.549,1.223-7.094.012-.078.025-.165.041-.248.133-.767.265-1.546.4-2.325.012-.091.029-.186.046-.277.3-1.761.613-3.568.928-5.371.012-.087.025-.174.041-.256.282-1.617.555-3.228.829-4.811.356-2.043.7-4.032,1.023-5.917.013-.087.029-.174.038-.257.236-1.343.46-2.623.667-3.825.008-.087.025-.174.041-.257.125-.746.253-1.458.365-2.134h0l.145-.837.149-.878.145-.825.021-.1c.008-.083.025-.17.041-.253l.353-2.068.174-1,.132-.758.071-.4s2.8,1.823,8.979,2.246a45.3,45.3,0,0,0,9.99-.253l.257-1.259a38.032,38.032,0,0,0,7.33,1.044c.087,0,.174.012.266.016a34.929,34.929,0,0,0,6.041-.265c.1-.016.2-.025.286-.041s.174-.025.253-.033a32.356,32.356,0,0,0,4.885-1.094c.087-.025.162-.05.245-.075a18.653,18.653,0,0,0,2.718-1.114l.157,1.185.444,3.344.033.252.381,2.888.037.253.332,2.5.033.248,1.4,10.525.27,2.031.559,4.23.037.257.564,4.248.029.252,1.077,8.085.033.252.415,3.133.037.257.116.878.029.249.456,3.406Z" fill="#eb5b52"/>
    <path id="Trazado_6531" data-name="Trazado 6531" d="M673.141,1031.432l-21.65-5.064c-1.542,6.924-4.43,19.923-5.114,23.449-1.483,7.658-6.646,33.315-6.932,34.745l-.013.066c3.56,1.438,17.11,3.074,24.224,4.376s35.192-.949,35.192-.949l-25.707-56.623Z" fill="#5e1a47"/>
    <path id="Trazado_6532" data-name="Trazado 6532" d="M650.276,1028.469l.858.389c-.514-.215-.8-.36-.858-.389Z" fill="#9f99cb"/>
    <path id="Trazado_6533" data-name="Trazado 6533" d="M699.25,1088.133q0,1.051-.012,2.2c-.079,10.881-.589,27.547-.783,33.675-.046,1.5-.075,2.375-.075,2.375l-2.876-.68s-.207-.431-.567-1.193c-2.329-4.973-11.138-24.1-12.311-32.176-1.351-9.319,3.389-20.834,3.389-20.834l-12.534-31.848s-1.019,11.013-2.445,19.819c-1.309,8.063-8.1,58.284-9.249,66.721-.107.775-.165,1.206-.165,1.206a3.227,3.227,0,0,1-2.706,1.694,5.161,5.161,0,0,1-3.224-.675s-.132-.448-.356-1.247c-1.111-3.97-4.488-16.919-4.981-29.752-.6-15.418,4.322-23.888,4.322-23.888-1.819-8.826-4.222-42.273-4.222-42.273l.679-2.4a37.264,37.264,0,0,0,11.507,2.408c8.3.6,7.96-.593,7.96-.593l1.869-14.511,7.939,1.011,2.391,12.991s2.2.493,7.57-.46c.353-.062.713-.129,1.09-.2,0,.078.013.161.021.24,1.015,12.2,7.367,58.314,7.367,58.314s.145.033.4.078Z" fill="#9f99cb"/>
    <path id="Trazado_6534" data-name="Trazado 6534" d="M675.731,989.464c0,.132,0,.264-.013.386-.024.854-.058,1.438-.058,1.438l-3.19,24.874-1.869,14.511s.336,1.19-7.96.593c-8.043-.572-11.3-2.3-11.5-2.4l-.008-.005,1.881-9.7,2.457-5.155,1.832-3.824-1.525-1.654s6.941-22.852,9.957-33.707c.025-.112.054-.218.083-.325.224-.8.419-1.53.593-2.175.762-2.877,1.462-6.373,2.072-9.824s1.127-6.865,1.508-9.569c0,0,5.478,30.487,5.668,32.86.013.167.025.335.034.508.062,1.072.058,2.236.037,3.171Z" fill="#eb5b52"/>
    <path id="Trazado_6535" data-name="Trazado 6535" d="M675.66,991.29l-3.559,25.655,8.494,1.214-4.935-26.87Z" fill="#dddbef"/>
    <path id="Trazado_6536" data-name="Trazado 6536" d="M738.271,996.116c-.074.727-2.08,9.385-2.275,10.193l.158-1.19,0-.024,1.608-11.916.012.046.012.05a12.182,12.182,0,0,1,.481,2.841Zm48.651,24.8c-1.417-2.407-7.376-12.568-9.087-15.481-.054-.1-.108-.182-.158-.261-.074-.132-.136-.244-.186-.327a.718.718,0,0,1-.091-.2,1.5,1.5,0,0,1-.1-.3,6.464,6.464,0,0,1-.161-1.024c-.017-.141-.025-.294-.038-.456-.211-3.862.788-11.694,1.4-15.388.762-4.574,2.54-16.516,2.453-18.122s-3.385-3.984-6.178-5.336-9.995-4.228-9.995-4.228l-1.612-2.719H750.545l-4.4,3.161s-9.481,1.5-11.345,2.261-2.457,1.271-3.982,6.688-4.828,32.61-5.333,37.524-.684,24.817,0,28.285c0,0,2.03.6,3.812.937a7.9,7.9,0,0,0,2.026.128c.071-.008.145-.013.212-.017a4.453,4.453,0,0,0,.758-.149l.149-.837,1.086-6.286a7.033,7.033,0,0,0,.837.435,23.6,23.6,0,0,0,8.142,1.811,45.3,45.3,0,0,0,9.99-.253l.257-1.259a38.39,38.39,0,0,0,13.637.8,25.852,25.852,0,0,0,8.387-2.357,6.746,6.746,0,0,0,1.185-.738l-.763-4.318,4.48,3.912.853.746a4.8,4.8,0,0,1,.643-1.281,10.342,10.342,0,0,1,2.241-2.362,16.326,16.326,0,0,1,3.812-2.453s-.12-.194-.31-.53Z" fill="#fdc954"/>
    <path id="Trazado_6537" data-name="Trazado 6537" d="M675.287,952.529a7.21,7.21,0,0,1-1.214-.539,5.1,5.1,0,0,1-1.176-.921h0l-2.312-2.381-1.176,8.219,1.632,2.714,1.856,3.085,3.469,5.23,2.909-8.327.7-2.017-3.17-4.666-.153-.074a7.049,7.049,0,0,1-.986-.205c-.129-.035-.249-.071-.378-.117Z" fill="#fff"/>
    <path id="Trazado_6538" data-name="Trazado 6538" d="M679.27,959.608l-2.909,8.327-3.468-5.23-1.856-3.085,4.624,26.928,3.609-26.94Z" fill="#dddbef"/>
    <path id="Trazado_6539" data-name="Trazado 6539" d="M669.648,938.143c-.995-1.716-1.483-5.082,0-5.591s3.091,2.351,3.091,2.351l2.917-6.913-.128.032c-.348.111-1.343.44-2.561.925a31.577,31.577,0,0,0-6.389,4.363c-.556,1.725.319,5.169,2.134,6.944,1.93,1.89,2.68,1.961,2.68,1.961l.27-2.04a4.223,4.223,0,0,1-2.014-2.032Z" fill="#5e1a47"/>
    <path id="Trazado_6540" data-name="Trazado 6540" d="M675.528,928.022l.128-.032,0-.011-.132.043Z" fill="#f8be90"/>
    <path id="Trazado_6541" data-name="Trazado 6541" d="M693.7,924.548a12.93,12.93,0,0,0-2.346-2.22,6.2,6.2,0,0,0-2.54-1.276,33.408,33.408,0,0,0-.509-4.573,4.483,4.483,0,0,0-3.3-3.492c-2.092-.762-7.624-2.429-11.627-1.2s-5.9,2.287-6.543,7.175a20.2,20.2,0,0,0,.058,5.377,19,19,0,0,0,.833,3.644c-1.906,1.2-4.765,4.761-4.765,4.761a13.074,13.074,0,0,0,3.622.57s.754-.681,1.926-1.566a27.946,27.946,0,0,1,4.467-2.8c.241-.116.477-.228.721-.335a10.846,10.846,0,0,1,1.836-.594c.087-.026.132-.041.132-.041v0s.133-.024.344-.057a12.873,12.873,0,0,1,1.4-.184,13.643,13.643,0,0,1,3.845.241c5.59,1.143,7.944.381,7.944.381,4.761-.7,4.5-3.812,4.5-3.812Z" fill="#fdc954"/>
    <path id="Trazado_6542" data-name="Trazado 6542" d="M676,927.922c-.211.033-.344.057-.344.057v.01c.116-.026.228-.046.344-.067Z" fill="#fdc954"/>
    <path id="Trazado_6543" data-name="Trazado 6543" d="M676.361,931.6a6.667,6.667,0,0,1,5.27-.572c1.082.381.954,1.588-.505,1.27s-4.765-.7-4.765-.7Z" fill="#5e1a47"/>
    <path id="Trazado_6544" data-name="Trazado 6544" d="M690.462,931.28c-.5-.65-3.489-.869-3.895.076s.493.884,1.508.486a11.631,11.631,0,0,1,2.387-.562Z" fill="#5e1a47"/>
    <path id="Trazado_6545" data-name="Trazado 6545" d="M682.348,933c-.779,0-.621,2.414,0,2.414s.775-2.414,0-2.414Z" fill="#5e1a47"/>
    <path id="Trazado_6546" data-name="Trazado 6546" d="M670.725,947.354l-.223,1.8,1.794,8.935,2.991-5.558h0a7.541,7.541,0,0,1-1.214-.54c-2.287-1.27-3.348-4.636-3.348-4.636Z" fill="#fff"/>
    <path id="Trazado_6547" data-name="Trazado 6547" d="M675.665,952.648h-.005l3.692,5.694.39-2.28-.6-4.521.083,1.02a4.817,4.817,0,0,1-3.555.086Z" fill="#fff"/>
    <path id="Trazado_6548" data-name="Trazado 6548" d="M675.428,952.271l-1.919,3.564.887,2.254-1.786,4.192,3.75,5.654,1.968-4.955-1.968-5.146,1.181-2.289-2.113-3.274Z" fill="#5e1a47"/>
    <path id="Trazado_6549" data-name="Trazado 6549" d="M650.268,1028.465h0v0Z" fill="#f8be90"/>
    <path id="Trazado_6550" data-name="Trazado 6550" d="M651.461,1002.94c-.037.166-.062.248-.062.248l-2.569-3.809,2.25-14.992s0,.112,0,.32v.026c.025,1.788.179,10,.63,12.486a15.941,15.941,0,0,1-.253,5.721Zm10.289-50.7-10.231,3.049s-3.169-.7-5.08,0-6.5,14.824-8.192,21.938-3.725,18.549-2.8,23.967a24.831,24.831,0,0,0,6.962,12.862c.008.005.012.009.012.013.245.236.493.464.738.675a.681.681,0,0,0-.025.083c-.062.22-.24.858-.506,1.823-1.823,6.539-7.794,27.953-9.3,33.249-1.778,6.265-6.941,31-6.941,31s10.161,2.875,13.04,3.725l.013-.066c.286-1.43,5.449-27.087,6.932-34.745.684-3.526,3.572-16.525,5.114-23.449.178-.8.339-1.529.476-2.146l.51-2.271a33.572,33.572,0,0,1,1.438-6.522,13.581,13.581,0,0,1,3.389-5.25l-1.525-1.654s8.184-26.933,10.633-36.207a189.731,189.731,0,0,0,3.58-19.393c.464-3.308.733-5.569.733-5.569l.547-4.2c.013-.092-5.266,2.485-9.522,9.092Z" fill="#6b63a9"/>
    <path id="Trazado_6551" data-name="Trazado 6551" d="M657.3,1010.179a13.581,13.581,0,0,0-3.389,5.25,33.572,33.572,0,0,0-1.438,6.522l3.472,1.525c2.2-1.442,4.827-9.825,4.827-9.825l-3.472-3.472Z" fill="#f8be90"/>
    <path id="Trazado_6552" data-name="Trazado 6552" d="M690.5,1021.437c.062.452.124.895.186,1.334-.062-.439-.124-.882-.186-1.334Z" fill="#f8be90"/>
    <path id="Trazado_6553" data-name="Trazado 6553" d="M690.7,1022.908c.054.406.108.8.157,1.2-.049-.4-.1-.8-.157-1.2Z" fill="#f8be90"/>
    <path id="Trazado_6554" data-name="Trazado 6554" d="M690.892,1024.338c.046.377.092.741.137,1.106-.045-.365-.091-.729-.137-1.106Z" fill="#f8be90"/>
    <path id="Trazado_6555" data-name="Trazado 6555" d="M691.062,1025.713c.042.34.079.672.116,1-.037-.331-.074-.663-.116-1Z" fill="#f8be90"/>
    <path id="Trazado_6556" data-name="Trazado 6556" d="M690.051,1018.4q.112.751.224,1.492-.113-.741-.224-1.492Z" fill="#f8be90"/>
    <path id="Trazado_6557" data-name="Trazado 6557" d="M690.279,1019.937c.075.485.141.961.207,1.434-.066-.473-.132-.949-.207-1.434Z" fill="#f8be90"/>
    <path id="Trazado_6558" data-name="Trazado 6558" d="M691.212,1027.035c.037.332.07.651.1.97-.033-.319-.066-.638-.1-.97Z" fill="#f8be90"/>
    <path id="Trazado_6559" data-name="Trazado 6559" d="M691.344,1028.3c.042.41.079.808.112,1.2-.033-.394-.07-.792-.112-1.2Z" fill="#f8be90"/>
    <path id="Trazado_6560" data-name="Trazado 6560" d="M690.275,1019.892c0,.016,0,.033,0,.045,0-.012,0-.029,0-.045Z" fill="#f8be90"/>
    <path id="Trazado_6561" data-name="Trazado 6561" d="M690.047,1018.4Z" fill="#f8be90"/>
    <path id="Trazado_6562" data-name="Trazado 6562" d="M691.029,1025.444c.009.087.021.178.033.269-.012-.091-.024-.182-.033-.269Z" fill="#f8be90"/>
    <path id="Trazado_6563" data-name="Trazado 6563" d="M690.486,1021.371l.013.066-.013-.066Z" fill="#f8be90"/>
    <path id="Trazado_6564" data-name="Trazado 6564" d="M691.178,1026.716c.013.108.025.216.034.319-.009-.1-.021-.211-.034-.319Z" fill="#f8be90"/>
    <path id="Trazado_6565" data-name="Trazado 6565" d="M691.315,1028.005c.008.095.021.2.029.294-.008-.095-.021-.2-.029-.294Z" fill="#f8be90"/>
    <path id="Trazado_6566" data-name="Trazado 6566" d="M690.859,1024.11c.013.074.021.153.033.228-.012-.075-.02-.154-.033-.228Z" fill="#f8be90"/>
    <path id="Trazado_6567" data-name="Trazado 6567" d="M690.685,1022.771c0,.046.013.092.017.137,0-.045-.013-.091-.017-.137Z" fill="#f8be90"/>
    <path id="Trazado_6568" data-name="Trazado 6568" d="M691.46,1029.5c-6.161,1.222-8.66.663-8.66.663l-2.391-12.991-4.749-25.885v-4.741l.034-.254v-.005l4.052-30.227c.705,4.721,2.018,13.411,3.191,20.927v.005c.02.132.041.269.062.4.393,2.545.775,4.944,1.11,6.992.655,4.025,1.7,9.579,2.785,15.607s2.254,12.509,3.157,18.406c.075.5.145,1,.224,1.5,0,.012,0,.029,0,.045.071.481.141.957.207,1.426a.349.349,0,0,1,.013.07c.066.448.128.895.182,1.334.008.046.017.092.021.137.054.406.108.808.157,1.2.009.078.021.157.029.236.054.369.1.742.137,1.1.013.091.029.182.037.269.042.34.075.672.116,1.007.013.1.021.212.038.315q.05.492.1.97c.013.095.021.2.033.294.038.406.075.808.112,1.2Z" fill="#eb5b52"/>
    <path id="Trazado_6569" data-name="Trazado 6569" d="M710.028,1088.946a37.912,37.912,0,0,1-4.446,0,47.336,47.336,0,0,1-6.332-.813c-.257-.045-.4-.078-.4-.078s-6.352-46.115-7.367-58.314c-.008-.079-.017-.162-.021-.24-.277-3.17-.783-6.991-1.409-11.1-1.8-11.785-4.628-25.963-5.942-34.013-1.33-8.166-3.4-21.907-4.363-28.326-.327-2.165-.53-3.5-.53-3.5l-.137-1.769-.24-2.993a10.847,10.847,0,0,0,5.018.762c.244-.03.472-.076.7-.127l1.214,1.347,4.057,4.5s3.3.509,6.48.763,4.828.635,5.59,3.3A128.765,128.765,0,0,1,705.835,976c.762,6.479,2.034,27.062,2.668,37.885.224,3.775.365,7.339.464,10.384,0,.1,0,.187.008.282.162,5.524.162,9.253.162,9.253a7.556,7.556,0,0,0-2.946-.385,3.775,3.775,0,0,0-1.372.385s.763,3.978,1.525,8.772c.564,3.522,1.127,7.492,1.4,10.67.634,7.5,2.287,35.7,2.287,35.7Z" fill="#6b63a9"/>
    <path id="Trazado_6570" data-name="Trazado 6570" d="M709.137,1033.806s-2.54-.928-4.318,0c0,0,.759,3.974,1.525,8.772a12.812,12.812,0,0,0,2.37-4.446,8.427,8.427,0,0,0,.423-4.326Z" fill="#f8be90"/>
    <path id="Trazado_6571" data-name="Trazado 6571" d="M698.459,1124.009h0c-.05,1.5-.079,2.375-.079,2.375l-2.88-.68s-.207-.431-.563-1.2h0c-.112,1.708.82,7.3,1.583,7.89s13.972,2.627,14.821,1.865-12.882-10.252-12.882-10.252Z" fill="#5e1a47"/>
    <path id="Trazado_6572" data-name="Trazado 6572" d="M658.912,1129.093a5.09,5.09,0,0,1-3.216-.679s-.136-.444-.36-1.239h0c-2.689,1.579-9.129,8.014-8.279,9.708s4.487-.252,7.877-1.607,5.842-2.54,6.518-3.56.335-5.527.335-5.527c-.107.779-.165,1.21-.165,1.21a3.23,3.23,0,0,1-2.71,1.694Z" fill="#5e1a47"/>
    <path id="Trazado_6573" data-name="Trazado 6573" d="M750.893,924.464a42.086,42.086,0,0,1,4.914,1.609c1.7.762,4.575,2.371,8.383,8.131a13.652,13.652,0,0,1,1.831,3.879c2.573-2.209,2.573-6.541,2.573-6.541-4.065-9.946-11.6-12.585-12.7-11.991s-6.775,2.795-7.115,3.473a4.455,4.455,0,0,1,2.118,1.44Z" fill="#dddbef"/>
    <path id="Trazado_6574" data-name="Trazado 6574" d="M765.715,943.86a7.825,7.825,0,0,0,.306-5.777,13.652,13.652,0,0,0-1.831-3.879c-3.808-5.76-6.688-7.369-8.383-8.131a42.086,42.086,0,0,0-4.914-1.609,4.455,4.455,0,0,0-2.118-1.44,6.865,6.865,0,0,0-5.42.593c-4.657,2.286-4.74,5.579-4.317,7.575.381,1.795,1.583,3.2,2.685,2.852a1.334,1.334,0,0,0,.364-.179c1.185-.847,2.88-2.19,4.405-2.323s2.793.565,4.74.809,5,.244,6.692,4.309a31.874,31.874,0,0,1,1.691,12.89h0a14.809,14.809,0,0,1-.505,2.981c-.837,2.784-.912,4.947-.112,6.162a2.308,2.308,0,0,0,1.467,1.005,5.151,5.151,0,0,0,5.929-5.166s3.472-2.118,3.39-5.083-4.069-5.589-4.069-5.589Z" fill="#5e1a47"/>
    <path id="Trazado_6575" data-name="Trazado 6575" d="M812.554,1030.3c-.087.717-3.687,2.644-6.062,3.833-.012.008-.025.013-.037.021-2.374,1.181-20.582,12.278-20.582,12.278l-9.232-11.47s4.828-6.572,10.591-10.388,15.92-8.971,15.92-8.971a3.489,3.489,0,0,1,.378.149c4.462,2.047,9.111,13.848,9.024,14.548Z" fill="#6b63a9"/>
    <path id="Trazado_6576" data-name="Trazado 6576" d="M723.623,1128.078c-3.982,3.386-6.352,3.556-6.945,1.861-.414-1.181,1.857-4.641,3.324-6.763-2.648,1.513-5.039,6.933-5.909,9.137s.3,3.808,1.823,3.9,5.615-3.261,8.362-6.145c2.988-3.128,3.075-4.293,2.478-5.552.05.406.083.687.083.687s.762-.509-3.216,2.88Z" fill="#5e1a47"/>
    <path id="Trazado_6577" data-name="Trazado 6577" d="M769.274,1130.991c-2.088-.663-2.271-6.439-2.287-8.59-.763,1.948-.933,6.879-.593,8.86s1.865,5.453,3.555,6.215,3.307-.253,3.813-2.71.472-7.077-1.032-9.808h0a32.725,32.725,0,0,1,.439,3.286c.17,2.8-1.608,3.472-3.9,2.747Z" fill="#5e1a47"/>
    <path id="Trazado_6578" data-name="Trazado 6578" d="M742.514,1079.722c-.2.509-.472,1.214-.795,2.055-1.434,3.68-3.842,9.829-4.886,12.253-1.525,3.555-10.417,26.677-10.417,27.186,0,.365.22,2.255.34,3.3.054.406.083.683.083.683s.762-.505-3.216,2.884-6.352,3.556-6.949,1.865c-.41-1.185,1.861-4.645,3.324-6.767.634-.915,1.118-1.578,1.168-1.707.17-.423.083-13.044.762-20.747.576-6.526,2-16.629,3.858-21.634a12.224,12.224,0,0,1,.58-1.351c1.985-.381,5.793-.92,8.437-.137a77.665,77.665,0,0,0,7.711,2.122Z" fill="#f8be90"/>
    <path id="Trazado_6579" data-name="Trazado 6579" d="M772.241,1119.6c-.278,1.1.124,3.233.485,5.358a32.6,32.6,0,0,1,.443,3.282c.17,2.8-1.612,3.477-3.9,2.747-2.089-.663-2.263-6.435-2.279-8.59,0-.2,0-.377,0-.509,0-1.525-2.545-14.143-4.322-23.379a83.957,83.957,0,0,1-1.79-15.858c.012-.662.041-1.255.095-1.785a52.4,52.4,0,0,0,11.693-1.666c1.02-.274,1.919-.526,2.71-.75a19.131,19.131,0,0,1,.639,3.224,81.524,81.524,0,0,1,.294,13.367c-.34,5.677-3.643,22.869-4.065,24.559Z" fill="#f8be90"/>
    <path id="Trazado_6580" data-name="Trazado 6580" d="M732.3,1035.89a6.869,6.869,0,0,1-3,.038c-1.778-.34-3.812-.933-3.812-.933-.933-.17-1.438.216-1.1,1.082a34.734,34.734,0,0,0,2.283,3.659,5.788,5.788,0,0,0,0,4.234c.849,2.627,2.034,3.982,2.627,4.235a1.408,1.408,0,0,0,.866.079c.862-4.993,2.138-12.394,2.138-12.394Z" fill="#9f99cb"/>
    <path id="Trazado_6581" data-name="Trazado 6581" d="M787.228,1021.441a16.57,16.57,0,0,0-3.812,2.457,7.821,7.821,0,0,0-2.88,3.643,7.626,7.626,0,0,0,1.19,1.607s1.437-1.354,2.283-2.03a6.748,6.748,0,0,1,2.121-1.019c3.638,1.612,5.2,2.08,4.911,1.1a10.8,10.8,0,0,0-3.813-5.76Z" fill="#9f99cb"/>
    <path id="Trazado_6582" data-name="Trazado 6582" d="M735.478,1010.179a21.814,21.814,0,0,1,10.082,2.54l-2.457,4.065a8.7,8.7,0,0,0-5.967,1.185l-2.926-4.488,1.268-3.3Z" fill="#9f99cb"/>
    <path id="Trazado_6583" data-name="Trazado 6583" d="M771.391,1008.824c-.252,0-9.062,3.642-9.062,3.642l1.948,4.4a30.684,30.684,0,0,1,6.352,1.1,20.95,20.95,0,0,1,2.54-3.05l-1.778-6.1Z" fill="#9f99cb"/>
    <path id="Trazado_6584" data-name="Trazado 6584" d="M688.812,924.167c-.638.509-2.544,1.591-5.942,1.459s-5.146-1.057-8.623.015-6.526,2.338-6.526,2.338a19,19,0,0,1-.833-3.644c1.6-1.26,4.02-1.921,6.87-2.709a20.686,20.686,0,0,1,8.06-.635c2.291.193,6.547.381,6.994.061,0,0,.634,2.607,0,3.115Z" fill="#6b63a9"/>
    <path id="Trazado_6585" data-name="Trazado 6585" d="M758.84,958.391a2.4,2.4,0,0,0,.158.3v.007a8.811,8.811,0,0,1-3.953,2.438,5.162,5.162,0,0,1-4-.593l2.138,19.649,6.522-20.586-.862-1.217Z" fill="#dddbef"/>
    <path id="Trazado_6586" data-name="Trazado 6586" d="M759.615,949.551c-.029.4-.074.778-.12,1.148a12.834,12.834,0,0,1-.385,1.83c-.775,2.576-.887,4.609-.27,5.859a2.084,2.084,0,0,0,.158.3v.005a8.759,8.759,0,0,1-3.953,2.44,5.163,5.163,0,0,1-4-.595s-.166-1.651-.4-2.958c-.062-.375-.137-.726-.211-1,.07-.005.14-.015.211-.025,1.852-.244,5.693-1.641,8.975-7.013Z" fill="#f8be90"/>
    <path id="Trazado_6587" data-name="Trazado 6587" d="M812.554,1030.3c-.087.717-3.687,2.644-6.062,3.833-.63-2.366-1.79-6.721-2.83-10.653-1.231-4.649-1.5-6.564-.132-7.728,4.462,2.047,9.111,13.848,9.024,14.548Z" fill="#5e1a47"/>
    <path id="Trazado_6588" data-name="Trazado 6588" d="M671.915,937.846a.134.134,0,0,1-.116-.07,10.785,10.785,0,0,0-1.836-2.581.127.127,0,0,1,.174-.185,10.955,10.955,0,0,1,1.889,2.652.125.125,0,0,1-.053.171.154.154,0,0,1-.058.013Z" fill="#ce6a15"/>
    <path id="Trazado_6589" data-name="Trazado 6589" d="M679.079,950.816a6.463,6.463,0,0,1-2.374-1.453c-1.4-1.4-1.828-5.417-1.828-5.417a9.12,9.12,0,0,0,3.962,3.862l.24,3.008Z" fill="#5e1a47"/>
    <path id="Trazado_6590" data-name="Trazado 6590" d="M685.916,943.669a7.9,7.9,0,0,1-2.4-.4.13.13,0,0,1-.079-.162.132.132,0,0,1,.166-.077c.025.01,2.8.97,4.541-.208a.128.128,0,0,1,.178.035.124.124,0,0,1-.033.176,4.228,4.228,0,0,1-2.374.636Z" fill="#ea5443"/>
    <path id="Trazado_6591" data-name="Trazado 6591" d="M688.767,939.737a5.034,5.034,0,0,1-2.955-.9.128.128,0,0,1,.154-.2,4.96,4.96,0,0,0,3.136.837l-2.527-7.076a.125.125,0,0,1,.074-.163.13.13,0,0,1,.166.077l2.582,7.232a.128.128,0,0,1-.013.109.126.126,0,0,1-.091.059,4.009,4.009,0,0,1-.526.029Z" fill="#ce6a15"/>
    <path id="Trazado_6592" data-name="Trazado 6592" d="M672.3,958.216l-.021,0a.123.123,0,0,1-.1-.1l-1.795-8.934a.125.125,0,0,1,.1-.15.13.13,0,0,1,.149.1l1.724,8.589,2.826-5.247a.127.127,0,1,1,.223.12l-2.991,5.558a.133.133,0,0,1-.112.067Z" fill="#5e1a47"/>
    <path id="Trazado_6593" data-name="Trazado 6593" d="M679.249,958.412l-3.692-5.7a.129.129,0,0,1,.037-.176.125.125,0,0,1,.174.039l3.692,5.694-.211.138Z" fill="#5e1a47"/>
    <path id="Trazado_6594" data-name="Trazado 6594" d="M654.383,1006.81a.127.127,0,0,1-.129-.116c-.8-11.575-2.345-33.591-2.494-34.2a.119.119,0,0,1-.008-.067c.037-.332,6.406-5.431,10.28-8.5l-4.566-4.981a.118.118,0,0,1-.021-.141c.692-1.453,4.5-7.086,4.666-7.325a.13.13,0,0,1,.178-.034.126.126,0,0,1,.033.177c-.037.057-3.833,5.661-4.612,7.215l4.6,5.018a.123.123,0,0,1,.033.1.124.124,0,0,1-.046.089c-3.986,3.163-9.982,7.992-10.3,8.441.228,1.549,1.479,19.27,2.507,34.2a.126.126,0,0,1-.116.137Z" fill="#5e1a47"/>
    <path id="Trazado_6595" data-name="Trazado 6595" d="M649.555,997.409a.126.126,0,0,1-.12-.086c-1.45-4.345-3.219-7.643-4.985-9.285a.129.129,0,0,1-.008-.18.125.125,0,0,1,.178-.006c1.8,1.671,3.593,5.006,5.056,9.39a.131.131,0,0,1-.083.161.127.127,0,0,1-.038.006Z" fill="#5e1a47"/>
    <path id="Trazado_6596" data-name="Trazado 6596" d="M648.83,998.426a.123.123,0,0,1-.124-.12c0-.02-.141-1.974-2.619-5.049a.13.13,0,0,1,.021-.178.127.127,0,0,1,.178.019c2.536,3.148,2.669,5.112,2.673,5.194a.127.127,0,0,1-.12.134Z" fill="#5e1a47"/>
    <path id="Trazado_6597" data-name="Trazado 6597" d="M648.221,999.506a.122.122,0,0,1-.1-.044,10.312,10.312,0,0,0-6.522-2.879.125.125,0,0,1-.116-.138.13.13,0,0,1,.136-.115,10.553,10.553,0,0,1,6.692,2.965.126.126,0,0,1-.012.179.129.129,0,0,1-.083.032Z" fill="#5e1a47"/>
    <path id="Trazado_6598" data-name="Trazado 6598" d="M643.327,1000.141a.13.13,0,0,1-.1-.054.129.129,0,0,1,.029-.177,5.176,5.176,0,0,1,4.632-.648.127.127,0,0,1,.071.165.129.129,0,0,1-.166.069,5.011,5.011,0,0,0-4.388.621.129.129,0,0,1-.075.024Z" fill="#5e1a47"/>
    <path id="Trazado_6599" data-name="Trazado 6599" d="M657.3,1010.3a.13.13,0,0,1-.1-.045l-5.424-6.6c-.025-.034-2.163-2.876-3.054-4.2a.119.119,0,0,1-.021-.091l2.25-14.673c0-.171-.39-19.386-.816-22.834a.128.128,0,0,1,.112-.142.124.124,0,0,1,.14.111c.427,3.46.813,22.688.817,22.882l-2.246,14.646c.907,1.341,3,4.117,3.016,4.146l5.425,6.6a.13.13,0,0,1-.021.178.109.109,0,0,1-.079.029Z" fill="#5e1a47"/>
    <path id="Trazado_6600" data-name="Trazado 6600" d="M647.84,1019.009a.13.13,0,0,1-.129-.129c0-3.1,4.48-12.356,6.017-13.1a.127.127,0,0,1,.17.058.129.129,0,0,1-.058.17c-1.438.7-5.876,9.9-5.876,12.874a.126.126,0,0,1-.124.129Z" fill="#5e1a47"/>
    <path id="Trazado_6601" data-name="Trazado 6601" d="M657.623,1026.227a.1.1,0,0,1-.07-.021l-2.35-1.529a.127.127,0,0,1-.041-.174l.679-1.094a.124.124,0,0,1,.174-.041.128.128,0,0,1,.042.174l-.613.99,2.146,1.4a64.945,64.945,0,0,0,5.3-8.387,18.093,18.093,0,0,0,1.839-5.648l-2.448-1.525c-.386,1.036-2.71,7.268-3.456,8.83a.128.128,0,0,1-.17.063.131.131,0,0,1-.062-.17c.812-1.687,3.48-8.884,3.505-8.959a.119.119,0,0,1,.079-.074.123.123,0,0,1,.108.012l2.643,1.649a.134.134,0,0,1,.063.116,17.354,17.354,0,0,1-1.869,5.814,66.6,66.6,0,0,1-5.4,8.527.123.123,0,0,1-.1.05Z" fill="#5e1a47"/>
    <path id="Trazado_6602" data-name="Trazado 6602" d="M683,977.4l-7.16,12.394a.138.138,0,0,1-.108.061h-.013a.1.1,0,0,1-.058-.02.08.08,0,0,1-.041-.036l-9.883-14.976c.025-.112.054-.218.083-.325l9.841,14.9.058.091.013-.015,7.206-12.471c.02.132.041.269.062.4Z" fill="#5e1a47"/>
    <path id="Trazado_6603" data-name="Trazado 6603" d="M697,1015.13a.142.142,0,0,1-.041,0,.135.135,0,0,1-.079-.165c.033-.083,3.116-8.64,3.236-9.1s1.907-21.56,2.851-32.717l-10.612-7.26a.129.129,0,0,1-.045-.153c.762-1.881,1.9-4.731,1.989-5.081a71.7,71.7,0,0,0-5.114-6.887.129.129,0,0,1,0-.18.126.126,0,0,1,.179,0,66.778,66.778,0,0,1,5.191,7.024c.013.049.042.165-1.968,5.129l10.587,7.245a.138.138,0,0,1,.058.115c-.112,1.321-2.734,32.355-2.863,32.835s-3.116,8.772-3.244,9.125a.122.122,0,0,1-.121.082Z" fill="#5e1a47"/>
    <path id="Trazado_6604" data-name="Trazado 6604" d="M704.935,1034.552a.125.125,0,0,1-.124-.1c-.029-.157-2.979-15.692-3.418-17.594s-1.19-11-1.223-11.387a.126.126,0,0,1,.116-.136.122.122,0,0,1,.137.116c.008.091.779,9.456,1.218,11.349.439,1.91,3.39,17.449,3.419,17.607a.127.127,0,0,1-.1.145.053.053,0,0,1-.025,0Z" fill="#5e1a47"/>
    <path id="Trazado_6605" data-name="Trazado 6605" d="M708.975,1024.553a4.435,4.435,0,0,0-2.366-.319,10.544,10.544,0,0,0-3.447.771.129.129,0,0,1-.174-.054.134.134,0,0,1,.058-.174,10.47,10.47,0,0,1,3.543-.792,4.892,4.892,0,0,1,2.378.286c0,.1,0,.187.008.282Z" fill="#5e1a47"/>
    <path id="Trazado_6606" data-name="Trazado 6606" d="M661.224,1073.3a3.118,3.118,0,0,1-2.37-1.177.126.126,0,0,1,.029-.178.13.13,0,0,1,.174.029,2.826,2.826,0,0,0,3.887.555.133.133,0,0,1,.174.046.131.131,0,0,1-.046.174,3.657,3.657,0,0,1-1.848.551Z" fill="#5e1a47"/>
    <path id="Trazado_6607" data-name="Trazado 6607" d="M630.2,1083.227h-.016a.121.121,0,0,1-.108-.141c.025-.219,2.814-21.924,4.322-27.46a.127.127,0,0,1,.244.067c-1.5,5.519-4.288,27.207-4.317,27.427a.125.125,0,0,1-.125.107Z" fill="#5e1a47"/>
    <path id="Trazado_6608" data-name="Trazado 6608" d="M650.537,1100.763a.122.122,0,0,1-.124-.116c-1.247-16.409,3.738-26.374,4.131-27.132-.978-3.738-3.356-28.641-3.381-28.894a.133.133,0,0,1,.116-.141.124.124,0,0,1,.137.116c.025.253,2.424,25.355,3.385,28.9a.126.126,0,0,1-.012.095c-.054.1-5.408,10.123-4.123,27.034a.129.129,0,0,1-.116.136Z" fill="#5e1a47"/>
    <path id="Trazado_6609" data-name="Trazado 6609" d="M672.706,1047.153h-.012a.126.126,0,0,1-.112-.141l1.11-10.3a.129.129,0,0,1,.141-.112.126.126,0,0,1,.112.141l-1.111,10.293a.13.13,0,0,1-.128.116Z" fill="#5e1a47"/>
    <path id="Trazado_6610" data-name="Trazado 6610" d="M682.808,1093.5a.123.123,0,0,1-.12-.091c-2.229-7.57,2.843-21,3.191-21.907L673.7,1040.56a.132.132,0,0,1,.071-.166.127.127,0,0,1,.166.071l12.2,30.986a.129.129,0,0,1,0,.095c-.058.137-5.474,14.076-3.2,21.792a.128.128,0,0,1-.087.157.122.122,0,0,1-.038,0Z" fill="#5e1a47"/>
    <path id="Trazado_6611" data-name="Trazado 6611" d="M699.25,1088.133q0,1.051-.012,2.2l-1.915-1.33-6.953-59.3c.353-.062.713-.129,1.09-.2,0,.078.013.161.021.24,1.015,12.2,7.367,58.314,7.367,58.314s.145.033.4.078Z" fill="#5e1a47"/>
    <path id="Trazado_6612" data-name="Trazado 6612" d="M676.361,968.062a.132.132,0,0,1-.108-.059l-7.247-11.275a.127.127,0,0,1,.215-.137l7.107,11.056,2.821-8.081a.127.127,0,0,1,.162-.078.131.131,0,0,1,.079.162l-2.909,8.326a.131.131,0,0,1-.1.085Z" fill="#5e1a47"/>
    <path id="Trazado_6613" data-name="Trazado 6613" d="M652.477,1021.951l-.51,2.271s-6.311-4.2-9.336-7.567c.266-.965.444-1.6.506-1.823a70.732,70.732,0,0,0,9.34,7.119Z" fill="#5e1a47"/>
    <path id="Trazado_6614" data-name="Trazado 6614" d="M706.191,1033.421a3.775,3.775,0,0,0-1.372.385l-3.3-16.981-1.148-12.1,1.467-16.705c-.12,1.9-.095,18.209,0,20.21.087,1.782,3.514,20.611,4.351,25.19Z" fill="#5e1a47"/>
    <path id="Trazado_6615" data-name="Trazado 6615" d="M688.651,932.52c-.539-.031-.315,2.224.286,2.192s.257-2.16-.286-2.192Z" fill="#5e1a47"/>
    <path id="Trazado_6616" data-name="Trazado 6616" d="M754.663,939.963a7.508,7.508,0,0,0-4.454-.465c-1.135.127-1.475.635-1.434,1.058s.493.339,1.434,0a13.474,13.474,0,0,1,3.182-.454c.763-.054,1.272-.139,1.272-.139Z" fill="#5e1a47"/>
    <path id="Trazado_6617" data-name="Trazado 6617" d="M740.517,939.032a4,4,0,0,1,3.431,0c.638.423.638.742.3,1.07s-1.1-.412-2.076-.741a5.711,5.711,0,0,0-1.653-.329Z" fill="#5e1a47"/>
    <path id="Trazado_6618" data-name="Trazado 6618" d="M742.493,949.238a.13.13,0,0,1-.091-.039.141.141,0,0,1-.029-.127l2.64-8.268a.13.13,0,0,1,.161-.082.128.128,0,0,1,.083.16l-2.565,8.032a8.81,8.81,0,0,0,2.951-1.674.126.126,0,1,1,.17.185,9.08,9.08,0,0,1-3.282,1.808.163.163,0,0,1-.038.005Z" fill="#ce6a15"/>
    <path id="Trazado_6619" data-name="Trazado 6619" d="M744.839,951.271l6.2-1.144s-1,2.71-2.267,3.007a3.727,3.727,0,0,1-3.936-1.863Z" fill="#fff"/>
    <path id="Trazado_6620" data-name="Trazado 6620" d="M748.522,944.495c.634,0,.763-2.636.253-2.7s-.886,2.7-.253,2.7Z" fill="#5e1a47"/>
    <path id="Trazado_6621" data-name="Trazado 6621" d="M742.137,943.51c.572,0,.858-2.634.224-2.667s-.8,2.667-.224,2.667Z" fill="#5e1a47"/>
    <path id="Trazado_6622" data-name="Trazado 6622" d="M753.159,982.037h-.012a.128.128,0,0,1-.1-.067l-5.589-10.545a.114.114,0,0,1-.009-.1l2.093-6.641-3.734,3.092a.128.128,0,0,1-.1.028.122.122,0,0,1-.087-.061l-3-5.082a.12.12,0,0,1,.037-.169l3.427-2.366a.13.13,0,0,1,.178.033.126.126,0,0,1-.033.177l-3.332,2.3,2.872,4.852,3.949-3.272a.127.127,0,0,1,.2.136l-2.209,7,5.474,10.327,9.493-11.928-1.695-5.4a.128.128,0,0,1,.137-.164l6.4.734L764.1,958.88a.126.126,0,0,1,.045-.173.127.127,0,0,1,.174.048l3.543,6.259a.126.126,0,0,1-.008.132.119.119,0,0,1-.12.056l-6.452-.74,1.657,5.277a.12.12,0,0,1-.025.117l-9.654,12.133a.126.126,0,0,1-.1.048Z" fill="#fef6b8"/>
    <path id="Trazado_6623" data-name="Trazado 6623" d="M752.525,1031.523h-.012a.132.132,0,0,1-.116-.141c.016-.141,1.467-14.1,1.806-19.5a182.008,182.008,0,0,0,0-19.479c-.352-2.89-1.16-10.408-1.168-10.484a.125.125,0,0,1,.112-.139.132.132,0,0,1,.141.112c.008.076.816,7.592,1.168,10.48a180.8,180.8,0,0,1,0,19.527c-.34,5.4-1.79,19.363-1.806,19.5a.128.128,0,0,1-.125.116Z" fill="#fef6b8"/>
    <path id="Trazado_6624" data-name="Trazado 6624" d="M733.531,1028.9a.1.1,0,0,1-.05-.013,11.438,11.438,0,0,1-3.282-2.076.137.137,0,0,1-.029-.124l5.694-20.35a.131.131,0,0,1,.157-.091.129.129,0,0,1,.087.158l-5.673,20.279a11.593,11.593,0,0,0,3.15,1.972.13.13,0,0,1,.062.17.128.128,0,0,1-.116.075Z" fill="#fef6b8"/>
    <path id="Trazado_6625" data-name="Trazado 6625" d="M738.275,996.245a.131.131,0,0,1-.128-.107l-.415-2.587c-.928-3.149-3.141-21.353-1.868-26.852a.127.127,0,0,1,.248.057c-1.206,5.211.8,23.106,1.869,26.739l.419,2.6a.127.127,0,0,1-.1.145l-.021,0Z" fill="#fef6b8"/>
    <path id="Trazado_6626" data-name="Trazado 6626" d="M775.9,1026.969a.128.128,0,0,1-.125-.1l-2.092-9.273-2.275-8.258c-.1-.46-2.3-11.037-2.3-11.992,0-.506,1.189-6.135,2.569-12.654,1.26-5.952,2.565-12.107,3.025-14.683a.125.125,0,0,1,.145-.1.127.127,0,0,1,.1.147c-.46,2.58-1.766,8.737-3.025,14.692-1.318,6.234-2.565,12.122-2.565,12.6,0,.929,2.275,11.822,2.3,11.929l2.27,8.259,2.1,9.282a.127.127,0,0,1-.095.153Z" fill="#fef6b8"/>
    <path id="Trazado_6627" data-name="Trazado 6627" d="M777.139,1003.321a17.282,17.282,0,0,0-3.473-3.445.128.128,0,0,1,.149-.208,17.183,17.183,0,0,1,3.286,3.2c.013.162.021.315.038.456Z" fill="#fef6b8"/>
    <path id="Trazado_6628" data-name="Trazado 6628" d="M777.4,1004.647a19.3,19.3,0,0,0-4.844-1.015.123.123,0,0,1-.116-.137.124.124,0,0,1,.141-.112,20.137,20.137,0,0,1,4.719.962,1.5,1.5,0,0,0,.1.3Z" fill="#fef6b8"/>
    <path id="Trazado_6629" data-name="Trazado 6629" d="M777.835,1005.434a5.243,5.243,0,0,0-4.562,1.964.143.143,0,0,1-.1.046.118.118,0,0,1-.079-.025.129.129,0,0,1-.02-.178,5.47,5.47,0,0,1,4.607-2.068c.05.079.1.166.158.261Z" fill="#fef6b8"/>
    <path id="Trazado_6630" data-name="Trazado 6630" d="M742.514,1079.722c-.2.509-.472,1.214-.795,2.055a29.585,29.585,0,0,1-8.578-2.064,11,11,0,0,0-7.355-.625,12.224,12.224,0,0,1,.58-1.351c1.985-.381,5.793-.92,8.437-.137a77.665,77.665,0,0,0,7.711,2.122Z" fill="#5e1a47"/>
    <path id="Trazado_6631" data-name="Trazado 6631" d="M776.012,1081.678c-4.612,1.446-10.658,1.321-15.137.977.012-.662.041-1.255.095-1.785a52.4,52.4,0,0,0,11.693-1.666c1.02-.274,1.919-.526,2.71-.75a19.131,19.131,0,0,1,.639,3.224Z" fill="#5e1a47"/>
    <path id="Trazado_6632" data-name="Trazado 6632" d="M752.165,1008.778a.917.917,0,1,1-.891-1.143,1.039,1.039,0,0,1,.891,1.143Z" fill="#fef6b8"/>
    <path id="Trazado_6633" data-name="Trazado 6633" d="M751.062,1021.168a.889.889,0,1,1-.865-1.082.989.989,0,0,1,.865,1.082Z" fill="#fef6b8"/>
    <path id="Trazado_6634" data-name="Trazado 6634" d="M738.528,1015.106c0,.576-.311,1.044-.7,1.044s-.7-.468-.7-1.044.31-1.045.7-1.045.7.469.7,1.045Z" fill="#fef6b8"/>
    <path id="Trazado_6635" data-name="Trazado 6635" d="M769.949,1013.966a.824.824,0,1,1-.824-.825.827.827,0,0,1,.824.825Z" fill="#fef6b8"/>
    <path id="Trazado_6636" data-name="Trazado 6636" d="M752.927,997.515a.968.968,0,1,1-.94-1.186,1.086,1.086,0,0,1,.94,1.186Z" fill="#fef6b8"/>
    <path id="Trazado_6637" data-name="Trazado 6637" d="M752.165,985.636c0,.714-.4,1.292-.891,1.292s-.887-.578-.887-1.292.4-1.291.887-1.291.891.578.891,1.291Z" fill="#fef6b8"/>
    <path id="Trazado_6638" data-name="Trazado 6638" d="M759.615,949.551c-.029.4-.074.778-.12,1.148-1.26,2.521-4.471,6.216-8.855,6.886-.062-.375-.137-.726-.211-1,.07-.005.14-.015.211-.025,1.852-.244,5.693-1.641,8.975-7.013Z" fill="#5e1a47"/>
    <path id="Trazado_6639" data-name="Trazado 6639" d="M742.253,930.846a.128.128,0,0,1-.095-.044.126.126,0,0,1,.012-.179,3.514,3.514,0,0,1,3.253-.332.127.127,0,0,1-.153.2,3.316,3.316,0,0,0-2.934.321.128.128,0,0,1-.083.031Z" fill="#ef7d80"/>
    <path id="Trazado_6640" data-name="Trazado 6640" d="M748.191,925.882a2.8,2.8,0,0,1-1.657-.792.127.127,0,0,1-.013-.179.125.125,0,0,1,.178-.014,2.624,2.624,0,0,0,1.492.731.126.126,0,0,1,.124.128.124.124,0,0,1-.124.126Z" fill="#ef7d80"/>
    <path id="Trazado_6641" data-name="Trazado 6641" d="M757.924,932.647a.129.129,0,0,1-.111-.063,3.774,3.774,0,0,0-2.6-1.431.128.128,0,0,1-.1-.148.126.126,0,0,1,.149-.1,3.955,3.955,0,0,1,2.776,1.554.128.128,0,0,1-.049.173.136.136,0,0,1-.063.017Z" fill="#ef7d80"/>
    <path id="Trazado_6642" data-name="Trazado 6642" d="M764.405,940.229a.132.132,0,0,1-.108-.055c-.045-.067-1.114-1.649-.708-2.53a.128.128,0,0,1,.232.107c-.29.624.4,1.857.688,2.279a.13.13,0,0,1-.033.177.122.122,0,0,1-.071.022Z" fill="#ef7d80"/>
    <path id="Trazado_6643" data-name="Trazado 6643" d="M761.289,945.956a.122.122,0,0,1-.062-.018.125.125,0,0,1-.046-.174c0-.01.576-1,.021-1.568a.127.127,0,0,1,0-.18.124.124,0,0,1,.178,0c.7.7.05,1.829.021,1.876a.13.13,0,0,1-.112.063Z" fill="#ef7d80"/>
    <path id="Trazado_6644" data-name="Trazado 6644" d="M766.879,951.794a.119.119,0,0,1-.054-.013c-.07-.035-1.736-.879-1.467-2.254a.127.127,0,0,1,.249.049c-.232,1.184,1.313,1.97,1.33,1.978a.126.126,0,0,1-.058.24Z" fill="#ef7d80"/>
    <path id="Trazado_6645" data-name="Trazado 6645" d="M761.036,957.713a.127.127,0,0,1-.025-.252c.589-.12.8-.316.887-.459a.363.363,0,0,0,.038-.269.127.127,0,0,1,.236-.093.612.612,0,0,1-.046.477,1.475,1.475,0,0,1-1.065.593.1.1,0,0,1-.025,0Z" fill="#ef7d80"/>
    <path id="Trazado_6646" data-name="Trazado 6646" d="M760.021,939.027a.128.128,0,0,1-.12-.083,4.861,4.861,0,0,1-.327-1.7.129.129,0,0,1,.257.026,4.6,4.6,0,0,0,.31,1.589.131.131,0,0,1-.074.164.171.171,0,0,1-.046.008Z" fill="#ef7d80"/>
    <path id="Trazado_6647" data-name="Trazado 6647" d="M753.221,927.407a.128.128,0,0,1-.029-.251,3.563,3.563,0,0,1,1.873,0,.129.129,0,0,1,.079.162.132.132,0,0,1-.166.078,3.375,3.375,0,0,0-1.723,0,.132.132,0,0,1-.034,0Z" fill="#ef7d80"/>
    <path id="Trazado_6648" data-name="Trazado 6648" d="M742.253,927.826l-.025,0A2.437,2.437,0,0,1,740.6,926.7a.127.127,0,1,1,.232-.1,2.219,2.219,0,0,0,1.446.981.126.126,0,0,1,.1.149.125.125,0,0,1-.124.1Z" fill="#ef7d80"/>
    <path id="Trazado_6649" data-name="Trazado 6649" d="M760.336,951.794a.126.126,0,0,1-.116-.177,1.828,1.828,0,0,0,.008-1.426.125.125,0,0,1,.046-.174.128.128,0,0,1,.174.046,2.052,2.052,0,0,1,.008,1.655.13.13,0,0,1-.12.076Z" fill="#ef7d80"/>
    <path id="Trazado_6650" data-name="Trazado 6650" d="M650.542,1030.847a15.238,15.238,0,0,0,6.082,1.691,47.311,47.311,0,0,0,11.014,0,3.75,3.75,0,0,0,2.963-1.865l5.59-36.419-.531-2.964-5.987,39.914a52.678,52.678,0,0,1-8.9-.1,88.306,88.306,0,0,1-9.642-2.242l-.592,1.989Z" fill="#5e1a47"/>
    <path id="Trazado_6651" data-name="Trazado 6651" d="M653.065,1005.02l-1.6-2.08a15.941,15.941,0,0,0,.253-5.721c-.451-2.485-.6-10.7-.63-12.486v-.026s2.491,12.613,1.981,20.313Z" fill="#5e1a47"/>
    <path id="Trazado_6652" data-name="Trazado 6652" d="M684.54,1030.412a8.867,8.867,0,0,1-1.769-.124.13.13,0,0,1-.1-.1l-7.135-38.876a.128.128,0,0,1,.1-.148.134.134,0,0,1,.149.1l7.119,38.789c.468.074,3.008.373,8.527-.684a.126.126,0,0,1,.149.1.132.132,0,0,1-.1.149,37.571,37.571,0,0,1-6.941.787Z" fill="#5e1a47"/>
    <path id="Trazado_6653" data-name="Trazado 6653" d="M737.778,993.225l-.012-.046-1.608,11.916,0,.024-1.4,5.669,1.239-9.444,1.065-12.068.725,3.949Z" fill="#fef6b8"/>
    <path id="Trazado_6654" data-name="Trazado 6654" d="M762.317,1076.283a56.853,56.853,0,0,1-13.529.339c-.788-.066-1.525-.128-2.238-.178.137-.7.286-1.425.443-2.2a8.209,8.209,0,0,0,.862.054,3.954,3.954,0,0,0,.688-.054c.253-.046.555-.1.895-.166a45.361,45.361,0,0,1,5.138-.762c-.066,1.724-.107,2.776-.111,2.83a.123.123,0,0,0,.12.133h0a.128.128,0,0,0,.128-.125c.013-.215.05-1.259.112-2.855.427-.029.866-.054,1.3-.07,1.575-.042,3.2-.158,4.637-.265,1.616-.116,3.008-.224,4.065-.2.178,1.2.34,2.262.468,3.087-1.119.182-2.142.335-2.987.431Zm-16.02.145c-.758-.054-1.479-.1-2.192-.145-2.594-.17-5.051-.328-8.1-.759-.687-.1-1.33-.2-1.93-.286-.5-.074-.97-.145-1.426-.211.116-.7.236-1.467.373-2.291a36.067,36.067,0,0,1,4.55.414c1.293.174,2.619.356,3.911.423a37.961,37.961,0,0,1,3.837.443c.514.083.987.153,1.422.207-.158.767-.307,1.5-.444,2.2Zm-12.58-8.014a14.208,14.208,0,0,1,1.741.157c.513.1,1.019.212,1.508.315.385.083.766.166,1.148.24a25.751,25.751,0,0,0-.73,3.042.135.135,0,0,0,.116.137h.009a.13.13,0,0,0,.128-.12,26.107,26.107,0,0,1,.725-3.009,14.269,14.269,0,0,0,4.165.245,46.283,46.283,0,0,1,5.187-.091c-.323,1.632-.634,3.19-.924,4.636-.439-.054-.9-.12-1.429-.2a36.072,36.072,0,0,0-3.862-.447c-1.285-.066-2.611-.245-3.891-.419a35.255,35.255,0,0,0-4.545-.418c.2-1.252.422-2.619.654-4.069Zm1.028-6.41c1.844.082,3.721.157,5.432.223-.8,2.59-1.5,4.9-1.993,6.655-.389-.075-.771-.162-1.16-.244-.493-.1-1-.216-1.521-.315a13.348,13.348,0,0,0-1.744-.162c.315-1.935.646-4.015.986-6.157Zm.63-3.962c1.819.025,3.816.091,5.341.145.248.008.489.013.717.025-.411,1.293-.808,2.557-1.177,3.758-1.72-.058-3.609-.136-5.47-.223.2-1.219.39-2.458.589-3.7Zm.7-4.479c.734.037,1.467.058,2.209.025a28.231,28.231,0,0,1,4.537.236c-.448,1.392-.887,2.78-1.314,4.131q-.372-.006-.783-.025c-1.591-.049-3.543-.116-5.312-.141.224-1.413.443-2.83.663-4.226Zm1.691-11.2a12.91,12.91,0,0,1,3,.331,23.566,23.566,0,0,0,5.192,1.148.7.7,0,0,1,.087.008c-.986,3.009-2.08,6.377-3.149,9.721a28.432,28.432,0,0,0-4.625-.244,21.09,21.09,0,0,1-2.163-.021c.622-3.982,1.2-7.8,1.654-10.943Zm.509-3.655c.755.008,1.467.008,2.134,0,1.132,0,2.118,0,3.021.046l.895.054c1.024.053,2.171.12,3.311.19-.456,1.372-.961,2.93-1.513,4.6a1.073,1.073,0,0,1-.128-.017,22.951,22.951,0,0,1-5.138-1.127,12.716,12.716,0,0,0-3.054-.352c.182-1.252.34-2.4.472-3.4Zm9.622.311c2.146.141,4.2.3,5.2.5.162.033.311.058.464.083-.2,1.119-.493,2.631-.845,4.425-1.148-.091-2.54-.174-3.767-.24-1.04-.058-1.964-.112-2.56-.161.551-1.683,1.056-3.237,1.508-4.608Zm1.471-4.463c1.728.042,3.464.178,5.01.307s2.9.232,4.011.232c.257,0,.5,0,.725-.017.642-.037,1.189-.079,1.7-.137.157,1.21.306,2.507.443,3.854-.688.162-1.425.323-2.262.472a15.119,15.119,0,0,1-3.974.286,11.972,11.972,0,0,0-.253-1.6.122.122,0,0,0-.153-.091.127.127,0,0,0-.091.153,12.123,12.123,0,0,1,.236,1.512c-.3-.029-.605-.074-.9-.124.112-.605.194-1.077.248-1.4a.139.139,0,0,0-.107-.15.127.127,0,0,0-.146.108c-.049.319-.136.792-.248,1.392-.149-.024-.3-.058-.46-.087-1.007-.194-3.037-.356-5.167-.5.6-1.819,1.077-3.277,1.388-4.214Zm15.7-.514a16.824,16.824,0,0,1,2.486-.406c.241,1.107.469,2.325.688,3.6a22.359,22.359,0,0,1-2.8.621,22.458,22.458,0,0,0-2.813.6c-.353.091-.734.187-1.119.278-.137-1.334-.286-2.623-.444-3.821a25.782,25.782,0,0,0,4-.87Zm4.8-.625c1.065-.092,2.134-.183,3.136-.3.27.932.547,1.939.837,2.992a17.367,17.367,0,0,1-2.54.493,15.462,15.462,0,0,0-2.813.568c-.216-1.26-.444-2.462-.676-3.556.647-.066,1.347-.128,2.056-.194Zm4.715,5.4c-1.894.551-3.837,1.152-5.552,1.8-.158-1.09-.328-2.159-.506-3.19a14.833,14.833,0,0,1,2.78-.572,17.151,17.151,0,0,0,2.607-.5c.219.792.443,1.616.671,2.458Zm3,11.295c-2.167.522-5.457,1.343-7.015,1.8-.149-1.119-.315-2.337-.481-3.61-.311-2.37-.65-4.939-1.015-7.429,1.715-.651,3.667-1.256,5.577-1.815,1.011,3.725,2.064,7.715,2.934,11.055Zm-6.646,5.884c-1.318.195-2.561.41-3.638.642-1.144.241-2.673.51-4.264.775-.1-1.118-.2-2.366-.311-3.729a20.274,20.274,0,0,0,2.511-.406,21.088,21.088,0,0,1,2.308-.431,17.65,17.65,0,0,0,2.814-.6c.2,1.467.4,2.751.58,3.754Zm.327,1.533c.3,1.065.593,2.255.862,3.419-.8.05-1.749.124-2.913.261-1.72.2-3.518.464-5.412.733-.087.017-.17.025-.248.038-.091-.7-.178-1.376-.257-2.014-.079-.671-.162-1.45-.241-2.3,1.6-.265,3.145-.534,4.293-.783,1.078-.232,2.321-.447,3.634-.638.1.518.191.957.282,1.28Zm-6.907,12.017a12.739,12.739,0,0,1-3.879.215c-1.492-.194-3.568-.306-5.515-.389.062-1.84.128-3.945.19-6.174a21.852,21.852,0,0,0,2.188-.129c2.08-.244,4.065-.522,5.992-.8.311,2.349.675,4.914,1.024,7.28Zm-11.006-.236c-.762-.029-1.459-.054-2.03-.087l-.158,0c-.911-.046-1.993-.1-3.141-.137.4-1.993.817-4.09,1.239-6.216,1.89.183,3.783.336,5.544.336h.083c-.058,2.225-.124,4.326-.178,6.158-.464-.013-.92-.034-1.359-.05Zm-5.379.025c1.157.037,2.259.091,3.179.141l.157,0c.572.029,1.272.054,2.039.087.431.012.891.033,1.351.049-.038,1.31-.083,2.478-.12,3.452a44.156,44.156,0,0,0-5.193.767c-.335.058-.638.12-.886.165a5.374,5.374,0,0,1-1.463,0c.294-1.454.6-3.016.936-4.661ZM742.2,1062.3l.311.008c1.707.062,3.593.249,5.412.435.36.033.721.062,1.089.1-.426,2.134-.845,4.239-1.247,6.236a47.6,47.6,0,0,0-5.258.091,14.069,14.069,0,0,1-4.069-.24c.5-1.762,1.2-4.082,2.005-6.692.614.02,1.206.041,1.757.062Zm.311-4.057c1.156.037,2.855.236,4.658.448.878.1,1.761.207,2.61.294q-.36,1.809-.717,3.609c-.369-.037-.742-.071-1.114-.108-1.824-.182-3.713-.369-5.425-.431l-.31-.012c-.535-.017-1.1-.037-1.695-.058.377-1.206.775-2.466,1.181-3.767.294.008.568.021.812.025Zm3.2-4.023c1.032.153,1.927.281,2.627.344.323.033.692.066,1.077.107s.78.083,1.194.12c-.257,1.3-.518,2.615-.783,3.945-.866-.091-1.77-.2-2.631-.3-1.811-.216-3.518-.415-4.675-.448-.223,0-.48-.012-.741-.02.427-1.347.862-2.723,1.3-4.111.916.112,1.807.245,2.627.361Zm4.943.319c-.414-.042-.828-.083-1.214-.116s-.75-.083-1.077-.112c-.7-.062-1.587-.195-2.619-.34-.808-.116-1.686-.245-2.581-.356,1.073-3.348,2.167-6.726,3.149-9.734.592.054,1.55.108,2.627.17,1.214.066,2.594.141,3.733.236-.559,2.884-1.259,6.452-2.018,10.252Zm4.331,4.483c-.025,1.33-.054,2.648-.087,3.928-1.77,0-3.68-.149-5.586-.331.24-1.2.481-2.4.717-3.609a17.248,17.248,0,0,0,4.591.091c.108-.025.232-.054.365-.079Zm-.427-.17a17.438,17.438,0,0,1-4.475-.091c.261-1.33.522-2.652.779-3.949.982.091,2.03.166,3.066.166.381,0,.758-.013,1.127-.037-.012,1.272-.041,2.552-.066,3.816-.158.037-.3.066-.431.095ZM761.7,1043.5a6.28,6.28,0,0,1-.833.091,19.764,19.764,0,0,0-2.909.406,12.92,12.92,0,0,1-2.66.344c-.045-1.79-.124-3.336-.24-4.529.273.021.559.033.862.033a18.172,18.172,0,0,0,3.132-.319c.829-.145,1.558-.311,2.242-.472.141,1.442.278,2.938.406,4.446Zm6.427-2.524c-.791.328-1.525.663-2.229.991a19.221,19.221,0,0,1-3.949,1.487c-.129-1.512-.261-3.012-.406-4.462.4-.1.791-.191,1.152-.282a22.706,22.706,0,0,1,2.784-.6,23.578,23.578,0,0,0,2.814-.617c.17,1.04.344,2.117.505,3.215-.228.091-.451.178-.671.265Zm-5.64,9.427c-.161-2.142-.331-4.425-.517-6.692a18.963,18.963,0,0,0,4.027-1.516c.709-.324,1.442-.659,2.229-.986.2-.079.407-.158.61-.237.364,2.47.7,5.01,1.011,7.364.165,1.284.331,2.519.48,3.65a16.121,16.121,0,0,1-2.813.6,22.474,22.474,0,0,0-2.333.443,20.837,20.837,0,0,1-2.47.4c-.07-.965-.149-1.976-.224-3.029Zm-7.18-5.809c.041,0,.074,0,.116,0a15.017,15.017,0,0,0,2.589-.348,19.145,19.145,0,0,1,2.864-.4,7.255,7.255,0,0,0,.845-.091c.186,2.254.356,4.533.514,6.659.074,1.065.149,2.076.228,3.045-.15.017-.295.038-.444.05a26.6,26.6,0,0,0-4.632.8,10.1,10.1,0,0,1-2.06.352c.046-3.626.05-7.152-.02-10.073Zm7.5,13.115c.078.849.161,1.624.24,2.287.079.646.162,1.322.253,2.018-1.919.282-3.908.559-5.984.8a20.7,20.7,0,0,1-2.154.132c.033-1.3.066-2.635.091-3.986,1.139-.224,2.946-.514,4.856-.816.879-.145,1.794-.29,2.7-.439Zm-2.739.182c-1.877.306-3.663.592-4.811.816.025-1.255.046-2.527.066-3.787a9.971,9.971,0,0,0,2.13-.361,26.05,26.05,0,0,1,4.595-.791c.141-.021.282-.037.427-.054.1,1.363.207,2.619.307,3.742-.9.153-1.828.3-2.714.435Zm-7.094-13.832c.348-1.786.638-3.294.845-4.4.323.054.651.1.974.132.12,1.185.2,2.739.24,4.538a2.487,2.487,0,0,1-.352-.05,14.605,14.605,0,0,0-1.707-.216Zm1.653.464a3.114,3.114,0,0,0,.419.054c.07,2.93.062,6.464.016,10.1a27.06,27.06,0,0,1-4.143-.116c.75-3.8,1.45-7.372,2.009-10.256a14.557,14.557,0,0,1,1.7.215Zm10.169,27.991c-1.057-.017-2.445.087-4.04.2-1.434.108-3.058.224-4.625.265-.443.012-.87.033-1.293.066.038-.965.079-2.125.125-3.422,1.935.083,4.011.194,5.486.393a9.048,9.048,0,0,0,1.156.071,16.666,16.666,0,0,0,2.789-.294c.136.953.273,1.868.4,2.718Zm15.965.493-.029-.249c-2.685.589-9.949,2.18-15.178,3.054-.124-.812-.286-1.856-.464-3.041,1.255.016,6.348.02,8.552-.9a10.166,10.166,0,0,1,4.5-.179c.771.075,1.6.15,2.474.187l-.037-.257c-.854-.033-1.662-.1-2.412-.178-1.827-.17-3.406-.315-4.62.195-2.184.907-7.322.9-8.49.878-.133-.862-.27-1.794-.415-2.764.129-.021.249-.041.377-.066a31.178,31.178,0,0,1,3.643-.477,18.725,18.725,0,0,1,3.588.15,5.776,5.776,0,0,0,3-.125,22.042,22.042,0,0,1,4.914-.746l-.033-.252a21.27,21.27,0,0,0-4.972.762,5.571,5.571,0,0,1-2.876.112,18.76,18.76,0,0,0-3.634-.158,31.527,31.527,0,0,0-3.671.485c-.124.021-.249.046-.369.066-.348-2.361-.713-4.93-1.023-7.272.087-.012.17-.024.252-.037,1.9-.273,3.692-.53,5.408-.729,1.181-.145,2.134-.216,2.942-.265.684,2.979,1.189,5.726,1.2,5.768a.122.122,0,0,0,.125.1h.02a.126.126,0,0,0,.1-.145c0-.041-.51-2.772-1.189-5.739.3-.021.588-.033.858-.045a17.981,17.981,0,0,0,2.718-.27c.779-.157,1.976-.451,3.033-.717l-.029-.252c-1.057.269-2.271.559-3.054.716a17.808,17.808,0,0,1-2.685.27c-.278.008-.576.025-.9.045-.274-1.181-.568-2.391-.875-3.468-.091-.319-.182-.746-.277-1.251a54.907,54.907,0,0,1,7.226-.56l-.037-.257a54.415,54.415,0,0,0-7.235.564c-.182-1-.377-2.3-.58-3.8,1.529-.451,4.857-1.272,7.044-1.806.071.273.141.542.212.808l-.27-2.031c-.82-3.141-1.777-6.754-2.7-10.148.439-.124.874-.248,1.3-.377l-.033-.248c-.439.124-.883.248-1.334.381-.224-.833-.452-1.649-.672-2.445.556-.136,1.132-.286,1.674-.435l-.037-.253c-.551.145-1.135.3-1.7.44-.29-1.04-.568-2.031-.833-2.963a21.5,21.5,0,0,0,2.155-.365l-.033-.252a20.581,20.581,0,0,1-2.192.368c-.423-1.479-.808-2.772-1.127-3.783-.083.025-.158.05-.245.075.319.994.7,2.275,1.119,3.741-.982.121-2.039.212-3.087.3-.721.062-1.434.124-2.093.195a31.256,31.256,0,0,0-.824-3.145c-.079.008-.166.025-.253.033.29.87.563,1.939.829,3.137a16.534,16.534,0,0,0-2.507.41,25.844,25.844,0,0,1-3.961.866c-.212-1.55-.44-2.95-.688-4.107-.092,0-.179-.012-.266-.016.257,1.16.489,2.573.7,4.148-.506.054-1.045.1-1.683.136a38.856,38.856,0,0,1-4.7-.219c-1.525-.12-3.236-.257-4.951-.3.178-.534.281-.845.29-.878a.115.115,0,0,0-.075-.157.124.124,0,0,0-.161.078c-.042.12-.15.444-.315.945-.054,0-.1,0-.158,0A121.273,121.273,0,0,1,732.8,1033l-.062.352.021-.1a122.7,122.7,0,0,0,16.272,1.3c.025,0,.05,0,.075,0-.315.949-.8,2.407-1.388,4.2-1.156-.071-2.333-.137-3.373-.2l-.9-.05c-.912-.05-1.9-.05-3.042-.046-.655,0-1.351,0-2.1,0,.166-1.251.286-2.262.344-2.942a.133.133,0,0,0-.112-.145.127.127,0,0,0-.14.116c-.063.688-.179,1.7-.344,2.971a50.969,50.969,0,0,1-6.125-.435c-.016.083-.033.17-.041.257a52.558,52.558,0,0,0,6.132.427c-.132.994-.294,2.138-.472,3.394-2.109-.071-4.678-.038-6.327,0-.009.083-.025.17-.038.257,1.629-.042,4.215-.079,6.332-.009-.456,3.145-1.04,6.957-1.653,10.944-.444-.033-.883-.062-1.339-.1a32.133,32.133,0,0,0-5.192-.111c-.016.082-.029.169-.041.256a32.416,32.416,0,0,1,5.217.108c.447.033.882.066,1.313.091-.215,1.4-.439,2.826-.663,4.243a21.936,21.936,0,0,0-4.462.208c-.552.182-1.472.464-2.333.721-.017.091-.034.186-.046.277.9-.265,1.885-.567,2.457-.758a21.545,21.545,0,0,1,4.343-.2c-.2,1.243-.394,2.478-.584,3.7-2.449-.112-4.815-.248-6.618-.418-.016.083-.029.17-.041.248,1.806.17,4.168.307,6.617.423-.34,2.147-.675,4.222-.986,6.166a38.806,38.806,0,0,0-6.854.505c-.016.087-.033.174-.045.261a38.955,38.955,0,0,1,6.857-.518c-.232,1.459-.455,2.826-.658,4.078-.245,0-.489.012-.721.029-1.8.137-4.529.572-6.249.87-.012.091-.029.178-.046.261,1.7-.29,4.492-.733,6.311-.878.216-.013.439-.025.663-.029-.132.808-.253,1.566-.364,2.254a34.11,34.11,0,0,0-6.771-.394c-.017.091-.029.178-.046.265a32.872,32.872,0,0,1,6.775.386c-.116.729-.228,1.392-.319,1.96.083,0,.17,0,.253.012.091-.568.2-1.218.315-1.939.456.066.928.132,1.433.211.6.091,1.235.187,1.931.282,3.058.439,5.52.6,8.114.762.7.046,1.421.091,2.163.145-.278,1.355-.514,2.549-.713,3.539a2.441,2.441,0,0,0,.253.037c.2-.994.439-2.2.712-3.559.721.054,1.467.108,2.267.178,1.931.17,3.555.261,5.2.261a71.283,71.283,0,0,0,8.375-.6c.849-.1,1.873-.248,3-.435.149.978.244,1.575.252,1.6a.118.118,0,0,0,.121.107h.02a.133.133,0,0,0,.108-.149c-.008-.025-.1-.617-.249-1.6,5.217-.874,12.46-2.453,15.166-3.054Z" fill="#ef7d80"/>
    <path id="Trazado_6655" data-name="Trazado 6655" d="M781.179,1026.26a4.8,4.8,0,0,0-.643,1.281l-.853-.746-4.48-3.912-3.969-15.012-1.956-10.286c.456,1.977,3.646,11.3,4.231,13.547.617,2.349,2.536,8.892,3.132,9.779.431.65,3.121,3.733,4.538,5.349Z" fill="#fef6b8"/>
    <path id="Trazado_6656" data-name="Trazado 6656" d="M773.828,1111.587a.057.057,0,0,1-.029-.005.125.125,0,0,1-.1-.149c4.5-19.276,1.894-31.57,1.865-31.69a.132.132,0,0,1,.1-.154.126.126,0,0,1,.149.1c.029.124,2.643,12.468-1.865,31.806a.125.125,0,0,1-.124.1Z" fill="#5e1a47"/>
    <path id="Trazado_6657" data-name="Trazado 6657" d="M729.238,1113.65a.216.216,0,0,1-.05-.008.131.131,0,0,1-.07-.166l12.808-32.59a.13.13,0,0,1,.166-.07.126.126,0,0,1,.07.165l-12.808,32.59a.125.125,0,0,1-.116.079Z" fill="#5e1a47"/>
    <path id="Trazado_6658" data-name="Trazado 6658" d="M691.564,1117.226a.126.126,0,0,1-.116-.075c-2.022-4.491-7.223-18.153-7.77-19.885a.126.126,0,0,1,.083-.157.128.128,0,0,1,.162.082c.543,1.728,5.739,15.369,7.757,19.857a.124.124,0,0,1-.067.166.11.11,0,0,1-.049.012Z" fill="#5e1a47"/>
    <path id="Trazado_6659" data-name="Trazado 6659" d="M766.021,938.211a.129.129,0,0,1-.1-.046.126.126,0,0,1,.016-.179,8.491,8.491,0,0,0,2.532-6.417,28.117,28.117,0,0,0-4.939-7.721.127.127,0,0,1,0-.18.13.13,0,0,1,.182,0,28.376,28.376,0,0,1,5,7.822.157.157,0,0,1,.008.043,8.752,8.752,0,0,1-2.619,6.642.128.128,0,0,1-.083.031Z" fill="#5e1a47"/>
    <path id="Trazado_6660" data-name="Trazado 6660" d="M665.9,933.5a9.443,9.443,0,0,1-2.992-.638.126.126,0,0,1-.049-.2,30.662,30.662,0,0,1,4.719-4.733,24.64,24.64,0,0,1-.99-5.326.13.13,0,0,1,.128-.128h0a.127.127,0,0,1,.129.126,25.389,25.389,0,0,0,1,5.341.121.121,0,0,1-.045.139,29.763,29.763,0,0,0-4.633,4.6,7.518,7.518,0,0,0,3.39.5.125.125,0,0,1,.149.1.126.126,0,0,1-.1.149,3.68,3.68,0,0,1-.7.063Z" fill="#5e1a47"/>
    <path id="Trazado_6661" data-name="Trazado 6661" d="M667.721,928.106a.122.122,0,0,1-.116-.08.123.123,0,0,1,.071-.165c.957-.384,5.531-2.021,7.164-2.519a11.273,11.273,0,0,1,4.256-.232.127.127,0,0,1,.111.142.125.125,0,0,1-.145.11,11.013,11.013,0,0,0-4.147.223c-1.629.5-6.191,2.129-7.148,2.512a.111.111,0,0,1-.046.009Z" fill="#5e1a47"/>
    <path id="Trazado_6662" data-name="Trazado 6662" d="M672.379,929.377a.132.132,0,0,1-.116-.072.128.128,0,0,1,.062-.17c1.065-.516,3.9-1.889,6.6-1.555.559.069,1.2.185,1.951.32,2.611.471,6.183,1.116,9.1.185a.124.124,0,0,1,.157.082.128.128,0,0,1-.083.16c-2.971.949-6.58.3-9.215-.177-.746-.134-1.388-.25-1.935-.318-2.627-.325-5.416,1.025-6.464,1.532a.122.122,0,0,1-.054.013Z" fill="#5e1a47"/>
    <path id="Trazado_6663" data-name="Trazado 6663" d="M688.812,921.052Zm-2.473.294c-.154,0-.3,0-.456-.008a.122.122,0,0,1-.12-.131.128.128,0,0,1,.132-.123,19.438,19.438,0,0,0,2.793-.144,23.86,23.86,0,0,0-.737-5.2.127.127,0,1,1,.248-.056,23.155,23.155,0,0,1,.738,5.369.123.123,0,0,1-.108.122,20.9,20.9,0,0,1-2.49.168Z" fill="#5e1a47"/>
    <path id="Trazado_6664" data-name="Trazado 6664" d="M676,937.719c-2.341,1.293-.828,5.158,1.119,5.819a2.807,2.807,0,0,0,3.472-3.617,3.369,3.369,0,0,0-4.591-2.2Z" fill="#f49f7f"/>
    <path id="Trazado_6665" data-name="Trazado 6665" d="M755.637,944.977c-2.266-.62-4.152,3.16-2.751,4.938s3.936.424,4.446-1.143a2.857,2.857,0,0,0-1.695-3.795Z" fill="#f49f7f"/>
    <path id="Trazado_6666" data-name="Trazado 6666" d="M733.531,1028.767l-1.086,6.286-.149.837a4.453,4.453,0,0,1-.758.149l.472-7.906,1.521.634Z" fill="#fef6b8"/>
    <path id="Trazado_6667" data-name="Trazado 6667" d="M774.938,1029.124c-.891.29-2.482.808-3.717,1.214a36.034,36.034,0,0,1-10.777,1.33,27.158,27.158,0,0,1-7.786-1.591l-.133,1.723s-1.5.187-3.008.4a28.787,28.787,0,0,1-10.268-.4,28.421,28.421,0,0,1-5.884-2.084c.1-.584.162-.916.166-.949,0,0,2.8,1.823,8.979,2.246a45.3,45.3,0,0,0,9.99-.253l.257-1.259a38.39,38.39,0,0,0,13.637.8,25.852,25.852,0,0,0,8.387-2.357l.157,1.185Z" fill="#5e1a47"/>
  </g>
</svg>
