<svg xmlns="http://www.w3.org/2000/svg" xmlns:xlink="http://www.w3.org/1999/xlink" width="70" height="70" viewBox="0 0 70 70">
  <defs>
    <clipPath id="clip-path">
      <rect id="Rectángulo_8768" data-name="Rectángulo 8768" width="70" height="70" transform="translate(1006.533 15821.533)" fill="#fff" stroke="#707070" stroke-width="1"/>
    </clipPath>
  </defs>
  <g id="Enmascarar_grupo_99" data-name="Enmascarar grupo 99" transform="translate(-1006.533 -15821.533)" clip-path="url(#clip-path)">
    <g id="planet-earth" transform="translate(1007.027 15822)">
      <path id="Trazado_117485" data-name="Trazado 117485" d="M52.751,44.044A22.334,22.334,0,1,0,30.416,66.438,22.364,22.364,0,0,0,52.751,44.044Zm0,0" transform="translate(-1.437 -3.849)" fill="#97c9e8"/>
      <path id="Trazado_117486" data-name="Trazado 117486" d="M34.516,21.651a22.456,22.456,0,0,0-3.372.254,22.406,22.406,0,0,1,0,44.28,22.39,22.39,0,1,0,3.372-44.534Zm0,0" transform="translate(-5.537 -3.849)" fill="#60b6ff"/>
      <g id="Grupo_70708" data-name="Grupo 70708" transform="translate(6.645 17.846)">
        <path id="Trazado_117487" data-name="Trazado 117487" d="M30.688,30.363c-3.44,2.156-6.021,5.606-4.085,9.486s6.236,2.372,10.214,1.833.967,11.75,3.333,14.769,9.031-3.019,8.386-6.9c-.955-5.746-1.29-7.762,6.451-11.858l.021-.007A22.36,22.36,0,0,0,34.99,21.7v.034s-.86,6.468-4.3,8.624Zm0,0" transform="translate(-11.257 -21.705)" fill="#baeb6c"/>
        <path id="Trazado_117488" data-name="Trazado 117488" d="M52.265,27.661l0,0Zm0,0" transform="translate(-15.937 -22.764)" fill="#baeb6c"/>
        <path id="Trazado_117489" data-name="Trazado 117489" d="M55.586,30.837h0Zm0,0" transform="translate(-16.527 -23.328)" fill="#baeb6c"/>
        <path id="Trazado_117490" data-name="Trazado 117490" d="M15.579,57.332c-1.033-1.576,1.827-5.282,2.473-8.085s-3.226-2.587-4.408-3.557-2.8-5.175-3.978-6.145l-.189-.15A22.457,22.457,0,0,0,17.185,65.24l.007-.47a10.308,10.308,0,0,0-1.612-7.439Zm0,0" transform="translate(-8.082 -24.85)" fill="#baeb6c"/>
        <path id="Trazado_117491" data-name="Trazado 117491" d="M53.017,55.554c0-.028-.009-.055-.014-.084a22.288,22.288,0,0,1-1.856,4.916c1.271-1.5,2.12-3.328,1.87-4.832Zm0,0" transform="translate(-15.738 -27.708)" fill="#baeb6c"/>
      </g>
      <path id="Trazado_117492" data-name="Trazado 117492" d="M36.891,21.705v.034s-.072.54-.257,1.359A22.4,22.4,0,0,1,50.988,42c.987-1.35,2.792-2.659,5.9-4.3l.021-.007A22.361,22.361,0,0,0,36.891,21.705Zm0,0" transform="translate(-6.513 -3.859)" fill="#96d629"/>
      <path id="Trazado_117493" data-name="Trazado 117493" d="M23.955,25.713c-10.8-1.833-17.5-15.431-17.5-15.431S17.265-.346,28.065,1.486s17.5,15.431,17.5,15.431S34.755,27.546,23.955,25.713Zm0,0" transform="translate(-1.147 -0.227)" fill="#49cb5c"/>
      <path id="Trazado_117494" data-name="Trazado 117494" d="M31.417,1.487A16.767,16.767,0,0,0,25.3,1.64C35.653,3.964,42.038,16.918,42.038,16.918s-7.077,6.956-15.5,8.642c.254.057.51.11.768.154,10.8,1.832,21.611-8.8,21.611-8.8s-6.7-13.6-17.5-15.431Zm0,0" transform="translate(-4.499 -0.227)" fill="#07b128"/>
      <path id="Trazado_117495" data-name="Trazado 117495" d="M62.771,12.962C65.669,6.106,75.707,3.8,75.707,3.8s5.342,8.808,2.444,15.664-12.936,9.164-12.936,9.164-5.342-8.807-2.444-15.663Zm0,0" transform="translate(-11.006 -0.675)" fill="#49cb5c"/>
      <path id="Trazado_117496" data-name="Trazado 117496" d="M76.217,3.8a26.861,26.861,0,0,0-4.986,1.818c1.386,2.938,3.585,8.9,1.494,13.845-1.516,3.586-4.986,5.928-7.951,7.346.535,1.134.95,1.818.95,1.818s10.039-2.308,12.936-9.164S76.217,3.8,76.217,3.8Zm0,0" transform="translate(-11.516 -0.675)" fill="#07b128"/>
      <path id="Trazado_117497" data-name="Trazado 117497" d="M67.974,8.049A27.787,27.787,0,0,0,65.566,2.57a1.032,1.032,0,0,0-1.092-.461A27.813,27.813,0,0,0,58.868,4.2c-3.977,1.986-6.755,4.636-8.035,7.664a14.845,14.845,0,0,0-.463,9.01,28.7,28.7,0,0,0-5.395-4.7,41.785,41.785,0,0,0-4.689-7.187,1.012,1.012,0,0,0-1.57,1.276,40.477,40.477,0,0,1,3.733,5.491l-9.216-1.8L24.477,2.021a14.3,14.3,0,0,1,2.552.261,17.469,17.469,0,0,1,7.9,4.074,1.012,1.012,0,0,0,1.313-1.54A19.464,19.464,0,0,0,27.419.3C22.783-.612,17.376.579,11.781,3.741A40.374,40.374,0,0,0,4.706,8.795a1.071,1.071,0,0,0-.12,1.389,41.288,41.288,0,0,0,4.538,7.123,31.641,31.641,0,0,0,4.783,4.916q-.707.592-1.374,1.243A23.391,23.391,0,0,0,20.1,61.858a1.012,1.012,0,0,0,.761-1.875,21.36,21.36,0,0,1-4.377-2.408,11.4,11.4,0,0,0-1.718-7.98c-.321-.5.638-2.461,1.211-3.633a19,19,0,0,0,1.486-3.632,2.769,2.769,0,0,0-.984-3.033,7.467,7.467,0,0,0-2.405-1.066,5.166,5.166,0,0,1-1.322-.517,13.463,13.463,0,0,1-1.713-2.787A17.306,17.306,0,0,0,9.19,31.886a21.516,21.516,0,0,1,6.387-8.415A17.693,17.693,0,0,0,24.1,26.639c-3.576,2.771-4.732,6.308-3.079,9.707,1.931,3.968,5.9,3.334,9.411,2.776.607-.1,1.234-.2,1.835-.272.226-.028.294.033.339.073.768.683.745,3.945.729,6.326-.023,3.294-.044,6.406,1.183,8a3.088,3.088,0,0,0,2.541,1.231,5.1,5.1,0,0,0,2-.452c3.051-1.307,6.224-5.24,5.74-8.352-.423-2.721-.7-4.518-.043-5.967.61-1.341,2.085-2.583,4.989-4.166A21.365,21.365,0,0,1,26.527,61.412a1.012,1.012,0,0,0-.221,2.011A23.518,23.518,0,0,0,45.243,56.9a23.375,23.375,0,0,0-3.6-36.307c1.337-.953,2.333-1.777,2.885-2.256A26.863,26.863,0,1,1,2.389,35.8a1.012,1.012,0,0,0-2-.33,28.878,28.878,0,0,0,23.789,33.2,29.244,29.244,0,0,0,4.768.393A28.9,28.9,0,0,0,55.378,28.654a29.121,29.121,0,0,0,4.665-1.837c3.976-1.986,6.755-4.636,8.034-7.664s1.245-6.868-.1-11.1ZM9.249,35.87a12.6,12.6,0,0,0,2.2,3.4,5.8,5.8,0,0,0,2.025.9c1.978.608,2.207.906,2.018,1.688a17.67,17.67,0,0,1-1.337,3.22c-1.045,2.138-2.032,4.156-1.1,5.615a9.622,9.622,0,0,1,1.531,5.368A21.565,21.565,0,0,1,8.359,34.238c.3.51.611,1.1.891,1.632ZM58.2,15.987,55.326,9.019a18.937,18.937,0,0,1,4.405-2.987,27.033,27.033,0,0,1,3.2-1.346ZM64.794,5.471a27.048,27.048,0,0,1,1.266,3.235,19.342,19.342,0,0,1,.916,4.878l-6.738,2.78ZM52.7,12.653a9.614,9.614,0,0,1,1.13-1.964L57.1,18.621l-2.938,7.024a26.913,26.913,0,0,1-1.311-3.332c-.827-2.616-1.525-6.415-.154-9.659Zm6.482,12.333a26.909,26.909,0,0,1-3.1,1.31l3.048-7.288,7.759-3.2a9.772,9.772,0,0,1-.677,2.557c-1.371,3.244-4.582,5.392-7.035,6.621ZM22.7,24.41c-.358-.07-.71-.155-1.058-.253l11.2-8.209,9.22,1.8c-3.359,2.646-11.533,8.2-19.36,6.664ZM12.461,18.08A39.4,39.4,0,0,1,7.3,10.972l11.734,2.287Zm2.072-13.5,4.909,6.7-11.81-2.3a39.86,39.86,0,0,1,6.9-4.394Zm7.837,7.267L16.418,3.729a22.758,22.758,0,0,1,5.655-1.565l8.233,11.23Zm-.63,1.939,8.391,1.636-10.77,7.895A20.931,20.931,0,0,1,13.9,19.531ZM49.195,33.544c-3.647,1.943-5.434,3.47-6.281,5.332-.91,2-.576,4.145-.115,7.116.272,1.752-1.809,5.013-4.536,6.181-1.009.432-1.728.381-2.137-.152-.8-1.046-.782-4.213-.765-6.757.024-3.52.045-6.56-1.407-7.852a2.385,2.385,0,0,0-1.933-.57c-.636.079-1.282.182-1.9.281-3.719.593-6.06.83-7.272-1.662-1.964-4.037,2.012-7.028,3.813-8.126a6.406,6.406,0,0,0,1.023-.78,29.417,29.417,0,0,0,12.13-4.727,21.476,21.476,0,0,1,9.385,11.716Zm0,0" transform="translate(0 0)" fill="#12263f"/>
    </g>
  </g>
</svg>
