<svg xmlns="http://www.w3.org/2000/svg" width="498.479" height="516.125" viewBox="0 0 498.479 516.125">
  <g id="Grupo_12203" data-name="Grupo 12203" transform="translate(-2343.943 -8857.342)">
    <g id="Grupo_12201" data-name="Grupo 12201" transform="translate(2343.943 8857.342)">
      <path id="Trazado_10517" data-name="Trazado 10517" d="M2523.705,9012.814a197.476,197.476,0,0,1,38.651,9.905c19.693,7.2,26.709,24.878,33.729,42.819,20.645,52.744,34.3,108.051,49.209,163.316a400.172,400.172,0,0,1,11.443,58c-3.884,3.388-6.867,7.059-10.31,10.939l-122.722-284.982Z" transform="translate(-2325.082 -8841.029)" fill="#fdbb45"/>
      <path id="Trazado_10518" data-name="Trazado 10518" d="M2489.781,9015.725c-18.879,0-36.249,5.918-51.45,12.59-22.334,9.8-36.194,37.623-43.917,61.516-12.417,38.424-43.459,135.674-50.471,188.516,5.947,13.215,5.947,13.215,21.937,29.742l123.9-292.363Z" transform="translate(-2343.943 -8840.724)" fill="#fdbb45"/>
      <path id="Trazado_10519" data-name="Trazado 10519" d="M2460.742,8938.949c17.3-3.309,27.377-6.023,29.524-25.457,8.973-3.232,18.51-2.273,21.371.586,0,4.686.73,4.836,1.29,15.324.117,2.2,21.481,4.588,21.576,6.809.679,15.986-13.991,33.648-25.542,37.98-11.969,4.486-48.218-35.242-48.218-35.242Z" transform="translate(-2331.688 -8851.663)" fill="#f6693b"/>
      <path id="Trazado_10520" data-name="Trazado 10520" d="M2529.458,8984.218c-6.706,5.843-4.3,9.987.555,13.057,6.415,4.059-5.641,4.584-5,8.112.249,1.351,4.5,1.514,5.625,2.047,2.531,1.2,2.453,1.693,2.893,3.9.323,1.628-.687,2,.492,3.552.971,1.266,3.2,1.285,3.955,2.906,1.977,4.22-2.465,6.231,4.921,8,1.356.326,5.581,1.392,6.879.464.884-.634-.732-1.7-.15-2.254,2.013-1.924,5.648-.765,7.382-2.688.885-.983.393-3.422,1.242-4.7,1.14-1.719,3.464-2.395,4.709-3.966,2.539-3.208,6.344-2.707,6.054-8.062-.244-4.474-6.367-1.727-4.289-5.145.724-1.188,2.371-1.408,2.366-3,0-1.026-1.8-1.7-1.938-2.654-.349-2.473,2.52-3.92,1.329-6.4-.963-2-3.872-2.424-5.625-3.354,0,0-27.633-3.111-31.4.179Z" transform="translate(-2324.947 -8844.188)" fill="#fa0"/>
      <path id="Trazado_10521" data-name="Trazado 10521" d="M2532.973,8979.705c.428,4.018-1.25,5.5-4.256,8.21-5.342,4.821-.417,4,3.451,6.534,5.118,3.349-4.5,3.782-3.982,6.7.2,1.111,3.589,1.249,4.485,1.688,2.016.992,1.958,1.4,2.308,3.218.255,1.344-.55,1.653.392,2.932.771,1.047,2.544,1.06,3.149,2.4,1.58,3.482-1.966,5.145,3.923,6.605,1.085.269,4.458,1.148,5.487.384.708-.524-.581-1.4-.117-1.861,1.6-1.586,4.5-.63,5.884-2.219.708-.808.315-2.821.991-3.878.908-1.417,2.763-1.976,3.753-3.271,2.028-2.647.79-5.19,4.831-6.652-3.482-.834-5.083-1.427-3.419-4.246.574-.979,1.887-1.161,1.883-2.474,0-.848-1.435-1.4-1.545-2.189-.278-2.04,2.013-3.237,1.062-5.28-.767-1.648-3.089-2-4.489-2.767l-23.789-3.824Z" transform="translate(-2324.802 -8844.503)" fill="#fcf9eb"/>
      <path id="Trazado_10522" data-name="Trazado 10522" d="M2564.584,8932.627l-8.239-3.959,16.159-39.121,12.531,6.02-20.452,37.061Z" transform="translate(-2321.657 -8853.964)" fill="#fcf9eb"/>
      <path id="Trazado_10523" data-name="Trazado 10523" d="M2571.82,8933.928l.106.025-.5-.924a13.574,13.574,0,0,0-1.623-2.983l-3.4-6.258s-8.7-4.368-9.6-1.662c-.625,1.863,5.212,3.775,5.212,3.775l1.534,3.107a4.274,4.274,0,0,0-2.186,2.292c-2.382-1.518-4.4,1.321-5.441,3.681a4.2,4.2,0,0,0-2.5.675,56.275,56.275,0,0,0,.787,5.615c2.775-1.422,1.36-.126,1.816,2.146.209,1.044-1.411,2.157-1.179,7.116.165,3.541,2.933,6.163,2.543,9.365-.833,6.894-6.462,13.6-8.954,19.979-2.209-5.2-3.329-11.79-4.944-17.4-1.14-3.968-7.559-20.8-12.818-26.06-2.725-2.722-7.111-4.612-12.8-4.612,0,0,9.253,45.049,9.489,45.877a194.515,194.515,0,0,0,7.241,21.907c1.863,4.483.818,4.813,3.824,7.292,2,1.645,6.168,6.661,8.427,6.177,4.312-.922,11.046-13.387,12.987-17.748,3.967-8.894,5.963-22.252,8.212-31.587,1.875-7.8,3.234-15.381,6.777-21.717a72.074,72.074,0,0,0-3.008-8.075Z" transform="translate(-2325.694 -8850.638)" fill="#fc8b59"/>
      <path id="Trazado_10524" data-name="Trazado 10524" d="M2548.437,8978.875c-2.209-5.2-3.329-11.79-4.944-17.4-1.14-3.968-7.559-20.8-12.818-26.06-2.725-2.722-7.111-4.612-12.807-4.612,0,0,9.257,45.049,9.493,45.877a194.515,194.515,0,0,0,7.241,21.907c1.863-4.879,13.836-19.708,13.836-19.708Z" transform="translate(-2325.694 -8849.635)" fill="#fdbb45"/>
      <path id="Trazado_10525" data-name="Trazado 10525" d="M2547.132,8974.957c-1.246,2.259-3.864,4.017-5.342,6.368-.825,1.308-1.714,2.545-1.532,4.122.137,1.251,1.69,1.886,1.517,3.331-.3,2.536-3.584,2.34-4.649,4.291-1.569,2.877,1.474,3.332,2.071,5.842.673,2.823-1.532,3.841-4.079,4.563.294-3.333-2.1-3.414-3.719-5.612-.667-.907-.437-2.14-1.164-3.042-.778-.957-2.417-1.054-3.007-2.178-1.6-3.062,1.176-5.26,3.034-6.621a49.164,49.164,0,0,1,6.125-4.376c2.142-1.128,4.072-3.479,6.623-3.835l4.124-2.854Z" transform="translate(-2324.763 -8845.001)" fill="#fcf9eb"/>
      <path id="Trazado_10526" data-name="Trazado 10526" d="M2503.189,9025.075c-10.267,24.119-44.507,92.665-68.956,312.942-.83,7.514,9.017,5.862,9.768.865,5.027-2.434,11.8-1.336,17.3-1.1-1.282,22.673,46.189,13.479,55.293,12.076-6.025-22.076,37.732-8.8,43.923-5.947-.143,3.058.982,5.633.876,8.733,7.24-.322,26.6,11.651,24.237-7.569,5.055,4.078,11.128-.449,15.829-3.516,8.341-5.432,8.349-10.408,6.466-22.82-4.669-30.81-9.182-63.966-16.965-93.478-7.952-30.145-17.712-121.818-58.784-201.836l-28.986,1.646Z" transform="translate(-2334.475 -8839.915)" fill="#d4475a"/>
      <path id="Trazado_10527" data-name="Trazado 10527" d="M2508.531,9338.039c0-46.236-1.258-94.726-2.04-142.161-.707-42.621.8-136.686.8-138.117,0,50.674,11.269,193.642,11.965,215.218.6,18.777-1.325,44.65,20.188,38.784,5.487-21.222-2.281-109.542-6.226-134.844-2.756-17.676-6.4-35.231-8.165-52.985,0-.473,0-.473-.012-.017,6.463,22.929,21.1,118.725,23.557,142.981,2.339,23.033,2.083,48.438,4.124,71.115-.008.46-.012.467,0,0-6.713-9.875-33.129-11.338-42.951-11.338l-1.242,11.363Z" transform="translate(-2326.908 -8836.313)" fill="#c12943"/>
      <path id="Trazado_10528" data-name="Trazado 10528" d="M2469.747,9245.146c4.417-27.921,14.363-115.78,16.057-131.078-13.136,31.949-25.054,73.37-31.838,109.832-6.145,32.979-10.908,66.74-10.378,100.71,5.326-5.5,10.939-.774,16.73-.774,0,0,6.949-62.994,9.429-78.689Z" transform="translate(-2333.492 -8830.405)" fill="#c12943"/>
      <path id="Trazado_10529" data-name="Trazado 10529" d="M2575.27,9331.233c0-54.451-18.356-164.885-38.391-210.3,11.355,11.761,17.37,41.494,22.483,59.681,4.9,17.444,20.534,85.958,21.568,93.639,2.024,15,1.348,32.818,14.418,36.088.527,1.454.975,7.724.971,9.283-5.106,2.184-9.6,5.257-14.993,5.417-.738,1.125.429,6.9.457,8.192l-6.514-2Z" transform="translate(-2323.699 -8829.685)" fill="#c12943"/>
      <path id="Trazado_10530" data-name="Trazado 10530" d="M2524.942,8949.967a4.6,4.6,0,0,0-4.6,4.6c0,.081.008.161.011.239-.078,0-.157-.012-.24-.012a4.6,4.6,0,0,1-8.561,1.976,4.6,4.6,0,0,1-8.565,1.317,4.6,4.6,0,0,1-8.781-1.317,155.16,155.16,0,0,1,17.346,9.206,4.6,4.6,0,0,1,8.561-1.976,4.606,4.606,0,0,0,4.607-4.6c0-.081-.012-.159-.016-.239.083,0,.161.013.24.013a4.6,4.6,0,0,0,0-9.208Zm-39.927,4.163a4.6,4.6,0,1,0,4.6,4.6,4.6,4.6,0,0,0-4.6-4.6Z" transform="translate(-2329.624 -8847.623)" fill="#fffaf7"/>
      <path id="Trazado_10531" data-name="Trazado 10531" d="M2522.564,8961.354c-10.766,2.215-33.458,6.926-38.333-1.945-2.338-4.244-5.774-30.9-5.734-30.354,0,0,6.549,96.127.687,105.549,6.329,1.268,49.9,1.75,55.5.738,0-15.914-5.37-30.594-5.37-43.375,3.177-4.85,5-33.031-6.752-30.613Z" transform="translate(-2329.825 -8849.818)" fill="#d4475a"/>
      <path id="Trazado_10532" data-name="Trazado 10532" d="M2502.255,9033.246a29.334,29.334,0,0,1,7.46-.809c.813-1.612,3.533-2.743,3.581-4.617.058-2.525-4.182-2.843-4.269-5.213-.091-2.543,4.371-2.215,4.43-4.571.055-2.535-4.631-2.885-4.717-5.245-.091-2.551,4.819-2.191,4.878-4.536.059-2.544-5.079-2.927-5.166-5.279-.091-2.558,5.267-2.163,5.326-4.5.055-2.553-5.522-2.968-5.613-5.31-.089-2.568,5.712-2.143,5.771-4.471.059-2.562-5.967-3.01-6.054-5.345-.094-2.576,6.156-2.117,6.215-4.436.054-2.57-6.416-3.051-6.5-5.377-.095-2.584,6.6-2.093,6.662-4.4.055-2.578-6.863-3.092-6.949-5.408-.047-1.477,2.48-2.037,4.54-2.589a53.5,53.5,0,0,0-12.975.364c-1.985,1.055-4.442,2.231-4.269,3.7.279,2.291,7.115,1.125,7.271,3.712.134,2.32-6.481,3.455-6.179,6.013.279,2.3,6.675,1.208,6.832,3.788.138,2.327-6.042,3.386-5.739,5.935.279,2.308,6.234,1.291,6.387,3.86.137,2.337-5.6,3.319-5.295,5.859.279,2.316,5.794,1.375,5.948,3.935.141,2.346-5.153,3.253-4.855,5.786.283,2.324,5.353,1.46,5.507,4.012.138,2.354-4.712,3.185-4.414,5.708.283,2.331,4.914,1.543,5.067,4.087.137,2.362-4.273,3.117-3.97,5.633.278,2.343,4.468,1.627,4.622,4.163.138,2.369-3.832,3.053-3.533,5.556Z" transform="translate(-2328.136 -8846.476)" fill="#c12943"/>
      <path id="Trazado_10533" data-name="Trazado 10533" d="M2474.495,9032.555c-30.023,19.654-52.389,54.134-68.678,91.393-16.718,38.243-26.835,84.131-33.054,127.108-2.834,19.588-2.343,38.608-.507,58.293l102.239-276.794Z" transform="translate(-2341.129 -8838.958)" fill="#fa0"/>
      <path id="Trazado_10534" data-name="Trazado 10534" d="M2510.768,9026.211c-10.608,35.454-21.45,81.466-31.068,117.283-12.1,45.026-35.149,152.627-37.892,210.346-17.92-.323-60.781-3.03-79.856-36.406,49.787-243.713,124.05-296.034,125.461-297.411l23.356,6.188Z" transform="translate(-2342.054 -8840.272)" fill="#fdbb45"/>
      <path id="Trazado_10535" data-name="Trazado 10535" d="M2528.159,9021.136c10.216.986,38.274,23.659,44.929,31.4,13.517,15.708,24.433,38.856,32.016,58.943,4.566,12.095,5.911,23.895,5.765,36.984l-82.71-127.324Z" transform="translate(-2324.614 -8840.155)" fill="#fa0"/>
      <path id="Trazado_10536" data-name="Trazado 10536" d="M2513,9026.9c45.511,17.833,84.63,281.277,75.9,328.237,14.6-4.657,45.29-25.574,61.111-35.672,5.118-36.574-14.555-200.742-119.628-299.312L2513,9026.9Z" transform="translate(-2326.205 -8840.259)" fill="#fdbb45"/>
      <path id="Trazado_10537" data-name="Trazado 10537" d="M2540.949,8975.127c-1.183-9.529-5.535-11.654-4.638-21.387.366-4.008,4.025-14.875.919-18.213-4.874-5.238-12.959-4.858-16.666-5.752-.645,10.319,6.01,10.239,3.978,31.579-.31,3.254,4.846,14.563-1.489,27.47l-4.458,47.633c11.541.05,15.72-.691,18.07-1.115,0-15.914-5.37-30.593-5.37-43.374,3.177-4.85,10.763-7.972,9.655-16.841Zm-56.281-23.119c-1.231-4.684-4.234-23.5-4.194-22.953l-20.821,8.654c11.781.946,6.186,37.908,7.158,39.889-.354,4.4,3.467,9.4,4.8,13.312a9.766,9.766,0,0,0,1.4,2.756c4.355,14.045,5.829,30.086-.032,39.508a188.77,188.77,0,0,0,27.535,2.584l-5.813-43.413c-12.437-16.427-6.741-27.815-10.035-40.336Z" transform="translate(-2331.802 -8849.818)" fill="#fdbb45"/>
      <path id="Trazado_10538" data-name="Trazado 10538" d="M2478.606,9060.418l-13.365,7.328c-13.478-21.934-24.5-50.429-24.5-56.686l20.329-4.668c7.087,17.087,9.744,37.521,17.532,54.025Z" transform="translate(-2333.786 -8841.703)" fill="#fc8b59"/>
      <path id="Trazado_10539" data-name="Trazado 10539" d="M2463.619,9067.82c-.7-2.352-.04-3.2-.7-5.2,0,0,8.695-7.23,9.186-7.3,3.467-.459,10.334,1.519,15.786,2.709.97.528,10.184,3.948,8.313,5.321-2.032,1.486-4.583.029-7.523-.621a5.41,5.41,0,0,0-3.907.242c-1.411.715-.123,3,1.124,5.525,1.09,2.214,2.041,4.671,2.473,5.749,1.1,2.724,4.265,10.113,5.243,12.865.382,1.078.552,2.543-1.171,2.708-1.493.146-3.231-4.587-3.84-5.641-.928-1.6-3.5-7.38-4.552-7.649.531,3.621,7.068,15.625,6.958,17.977-.075,1.607-2.115,1.271-3.008-.028-1.658-2.405-6.391-14.56-8.45-15.971l-.166-.078c1.042,5.271,6.059,14.987,5.605,16.15-.727,1.853-2.1.984-3.211-.679-2.284-3.417-4.748-11.812-8-14.611,0,0-.134,1.438,4.422,10.975.97,2.036-.893,2.751-2.3.991a160.193,160.193,0,0,1-9.022-16.571c-.841-1.919-2.6-4.642-3.258-6.865Z" transform="translate(-2331.46 -8836.576)" fill="#fc8b59"/>
      <path id="Trazado_10540" data-name="Trazado 10540" d="M2461.453,8936.9c-2.748,2.463-8.608,8.787-12.15,22.448-2.523,9.761-5.02,26.409-6.741,39.3-1.274,9.528,17.256,7.742,20.436,7.3,2.794-12.807,4.638-17.089,6.443-30.446,5.235-5.235,8.624-23.331,3.349-32.9-3.758-6.813-11.47-5.779-11.337-5.7Z" transform="translate(-2333.602 -8849.005)" fill="#fdbb45"/>
      <path id="Trazado_10541" data-name="Trazado 10541" d="M2434.621,9013.355c-1.179,3.367-8.742,32.318-4.272,39.1,2.61.01,5.307.761,7.869.7,3.688-.083,2.118-2.606,3.255-4.911,1.886-3.817,4.238-.677,6.777.181,3.4,1.146,5.644-1.042,6.56-3.67,1.132-3.252,1.784-4.185,5.641-2.622.7-2.653,1.757-3.8,4.768-3.624,2.619.156,4.466.04,6.474-1.605-.656-2.383-2.5-12.482-3.057-15.239-1.108-5.462-2.422-10.881-5.554-15.705-1.116-1.717-27.539,4.766-28.458,7.4Z" transform="translate(-2335.024 -8841.778)" fill="#fcf9eb"/>
      <path id="Trazado_10542" data-name="Trazado 10542" d="M2465.31,8998.762a96.108,96.108,0,0,0,.441,11.732c-3.153-1.09-6.4-.249-9.237,1.317-2.929,1.618-4.4,1.6-7.646,1.18-9.426-1.228-4.19,10.961-8.707,15.33-2.665,2.572-7.256,3.025-8.915,6.686-1.148,2.541.916,6.281-.9,8.43-1.91,2.264-5.436.609-5.947-1.913-.641-3.157,2.574-6.177,1.419-9.32-1.045-2.843-4.6-3.2-4.831-6.568-.26-3.745.955-6.327-.527-10.133,3.742-2.372,7.519-4.039,11.12-6.876,3.967-3.124,6.042-7.371,9.162-11.22,1.376-1.7,4.1-4.865,4.128-4.634l20.436,5.989Z" transform="translate(-2335.914 -8843.133)" fill="#fa0"/>
      <path id="Trazado_10543" data-name="Trazado 10543" d="M2517.051,8876.534c-.8-1.212-1.057-1.249-1.274-2.837-.149-1.121.22-2.324-1.1-2.731.236-1.489-.727-1.105-1.179-1.919-.495-.9-.444-2.053-1.214-2.8-1.38-1.349-3.4.021-4.614-1.135-.85-.811-1.38-3.464-1.993-4.6-1.215-2.245-1.537-1.675-3.6-1.669-1.333,0-1.408-.669-2.4-1.1a6.614,6.614,0,0,0-2.606-.394l-.243.061c-.083-.021-.166-.04-.244-.061a6.625,6.625,0,0,0-2.61.394c-.991.434-1.065,1.105-2.395,1.1-2.063-.006-2.386-.576-3.6,1.669-.616,1.139-1.143,3.792-1.992,4.6-1.219,1.155-3.24-.214-4.619,1.135-.767.75-.719,1.906-1.216,2.8-.448.813-1.414.43-1.175,1.919-1.317.407-.951,1.61-1.1,2.731-.212,1.588-.468,1.625-1.269,2.837-2.064,3.117-1.5,10.226-.091,13.721.9,2.247,2.893,2.479,3.148,4.993.264,2.562.673,3.187,1.915,5.352l15.244.645,15.242-.645c1.239-2.165,1.652-2.79,1.911-5.352.259-2.515,2.248-2.746,3.153-4.993,1.4-3.5,1.969-10.6-.091-13.721Z" transform="translate(-2330.164 -8857.342)" fill="#7a2222"/>
      <path id="Trazado_10544" data-name="Trazado 10544" d="M2518.44,8886.547c-.864-1.212-1.136-1.248-1.364-2.836-.161-1.122.232-2.325-1.179-2.732.255-1.489-.779-1.106-1.262-1.919-.531-.9-.479-2.053-1.3-2.8-1.482-1.348-3.647.021-4.952-1.135-.911-.81-1.479-3.464-2.138-4.6-1.3-2.244-1.643-1.675-3.856-1.669-1.423,0-1.506-.667-2.571-1.1a7.492,7.492,0,0,0-2.794-.392c-.086.019-.174.039-.26.06-.086-.021-.177-.041-.263-.06a7.492,7.492,0,0,0-2.8.392c-1.065.437-1.144,1.106-2.567,1.1-2.213-.006-2.562-.575-3.86,1.669-.661,1.139-1.226,3.793-2.138,4.6-1.305,1.155-3.472-.213-4.949,1.135-.825.749-.771,1.905-1.3,2.8-.483.813-1.521.43-1.262,1.919-1.411.407-1.022,1.61-1.183,2.732-.223,1.588-.5,1.624-1.359,2.836-2.213,3.115-1.6,10.226-.1,13.721.97,2.246,3.1,2.48,3.377,4.993.283,2.564.723,3.187,2.055,5.353l16.344.644,16.344-.644c1.333-2.166,1.772-2.788,2.056-5.353.271-2.513,2.405-2.747,3.375-4.993,1.506-3.5,2.115-10.605-.1-13.721Z" transform="translate(-2330.335 -8856.291)" fill="#8d2e2a"/>
      <path id="Trazado_10545" data-name="Trazado 10545" d="M2485.035,8907.537c-3.192,2.186-7.3,3.209-6.933,8.035a6.914,6.914,0,0,0,3.544,5.342c1.769,1.123,4.532,2.295,3.259,4.959-1.03,2.146-4.175,1.959-5.145,4.3-1.357,3.27,1.792,2.674,3.91,2.834,2.657.2,4.906,1.932,2.324,4.285-1.746,1.59-5.393,1.24-6.144,3.947-1.262,4.551,5.526,2.273,7.527,2.84,4.127,1.172.495,5.143-1.941,5.934,4.422-.434,8.486-6.2,3.191-8.531-2.527-1.109-2.5-1.326.244-2.885,1.372-.777,3.765-1.645,3.011-3.756-1.034-2.908-9.643-1.543-6.757-6.209,2.2-3.553,8.808-4.766,2.229-8.572-1.766-1.021-3.95-1.572-3.341-4.158.515-2.17,2.774-2.332,4.383-3.41l-3.361-4.953Z" transform="translate(-2329.869 -8852.075)" fill="#8d2e2a"/>
      <path id="Trazado_10546" data-name="Trazado 10546" d="M2507.693,8903.145c4.941-4.3,3.346,4.4,2.182,6.668-.429.834-1.372,2.472-2.449,2.672l.267-9.34Z" transform="translate(-2326.79 -8852.66)" fill="#f6693b"/>
      <path id="Trazado_10547" data-name="Trazado 10547" d="M2482.479,8903.145c-4.941-4.3-3.346,4.4-2.182,6.668.424.834,1.534,2.636,2.61,2.833l-.427-9.5Z" transform="translate(-2329.762 -8852.66)" fill="#f6693b"/>
      <path id="Trazado_10548" data-name="Trazado 10548" d="M2511.433,8907.311c0-5.692.311-14.727-2.138-18.491-2.85-4.379-8.27-4.778-12.937-4.779s-10.083.4-12.932,4.779c-2.448,3.765-2.524,12.811-2.135,18.491.489,7.248,2.925,12.223,8.455,16.713a10.5,10.5,0,0,0,13.227,0c5.531-4.49,8.459-9.465,8.459-16.713Z" transform="translate(-2329.55 -8854.54)" fill="#fc8b59"/>
      <path id="Trazado_10549" data-name="Trazado 10549" d="M2510.7,8905.67c1.081-.555,1.781-1.332,2.889-.858,2.933-11.746-1.6-18.379-4.048-20.828-3.695-3.7-8.27-6.082-12.937-6.084s-9.237,2.388-12.932,6.084c-3.109,3.105-6.6,11.182-3.982,20.755a3.748,3.748,0,0,1,2.823.932c-1.286-2.653-.08-14.121,5.4-14.471,2.567-2.564,7.35-2.8,9.485-.311,2.8-3.809,6.139-3.344,7.774,2.1,4.352-.933,7.071,7.229,5.527,12.683Z" transform="translate(-2329.796 -8855.185)" fill="#8d2e2a"/>
      <path id="Trazado_10550" data-name="Trazado 10550" d="M2493.3,8898.583c-.987-1.411-4.729-1.834-6.369-1.254-.589.212-1.053.212-1.116.937,3.157-.93,5.913,1.072,7.413.419l.072-.1Z" transform="translate(-2329.058 -8853.173)" fill="#7a2222"/>
      <path id="Trazado_10551" data-name="Trazado 10551" d="M2491.586,8902.687a1.465,1.465,0,0,1-2.814.57,11.125,11.125,0,0,0-1.549-1.047,10.432,10.432,0,0,0,1.652-.293,1.464,1.464,0,0,1,2.712.77Z" transform="translate(-2328.909 -8852.738)" fill="#7a2222"/>
      <path id="Trazado_10552" data-name="Trazado 10552" d="M2498.07,8898.583c.986-1.411,4.732-1.834,6.372-1.254.586.212,1.05.212,1.113.937-3.157-.93-5.913,1.072-7.41.419l-.075-.1Z" transform="translate(-2327.771 -8853.173)" fill="#7a2222"/>
      <path id="Trazado_10553" data-name="Trazado 10553" d="M2499.482,8902.687a1.468,1.468,0,0,0,2.819.57,11.109,11.109,0,0,1,1.549-1.047,10.455,10.455,0,0,1-1.655-.293,1.465,1.465,0,0,0-2.713.77Z" transform="translate(-2327.623 -8852.738)" fill="#7a2222"/>
      <path id="Trazado_10554" data-name="Trazado 10554" d="M2491.682,8906.53c0,1.055-1.368,1.912-3.059,1.912s-3.057-.857-3.057-1.912,1.368-1.911,3.057-1.911,3.059.854,3.059,1.911Z" transform="translate(-2329.083 -8852.381)" fill="#f26a3b"/>
      <path id="Trazado_10555" data-name="Trazado 10555" d="M2499.578,8906.53c0,1.055,1.368,1.912,3.055,1.912s3.057-.857,3.057-1.912-1.368-1.911-3.057-1.911-3.055.854-3.055,1.911Z" transform="translate(-2327.613 -8852.381)" fill="#f26a3b"/>
      <path id="Trazado_10556" data-name="Trazado 10556" d="M2506.288,8873.825c-.928-3.009,1.3-4.739,2.244-4.72.644.011.79.977,1.5.668-.063.939.237.869.452,1.341.743,1.6-1.646,3.219-3.974,2.834l-.227-.123Z" transform="translate(-2326.932 -8856.107)" fill="#fdd8ce"/>
      <path id="Trazado_10557" data-name="Trazado 10557" d="M2506.083,8872.977c-.063-.289-.141-1.11.209-1.32a.7.7,0,0,0,.168.608c.232-.263.492-.536.751-.782a4.091,4.091,0,0,0-.432,1.312,2.507,2.507,0,0,0,1.124-.675,2.812,2.812,0,0,1-1.116,1.2,2.152,2.152,0,0,0,1.187.209c.02-.013.02-.013,0,0a1.629,1.629,0,0,1-1.7.061,3.66,3.66,0,0,1-.189-.607Z" transform="translate(-2326.936 -8855.858)" fill="#f6eec1"/>
      <path id="Trazado_10558" data-name="Trazado 10558" d="M2506.349,8873.93c2.327-2.119,4.843-.839,5.229.022.263.587-.547,1.13.035,1.646-.873.342-.684.583-1.019.982-1.136,1.354-3.615-.12-4.256-2.391l.011-.261Z" transform="translate(-2326.904 -8855.724)" fill="#fddfd6"/>
      <path id="Trazado_10559" data-name="Trazado 10559" d="M2506.811,8873.463c.231-.182.939-.6,1.277-.378a.721.721,0,0,0-.479.416c.338.1.695.217,1.03.344a4.2,4.2,0,0,0-1.372.167,2.507,2.507,0,0,0,1.089.733,2.852,2.852,0,0,1-1.561-.5,2.218,2.218,0,0,0,.318,1.163c.02.014.02.014,0,0a1.622,1.622,0,0,1-.778-1.511,3.2,3.2,0,0,1,.472-.432Z" transform="translate(-2326.905 -8855.696)" fill="#f6eec1"/>
      <path id="Trazado_10560" data-name="Trazado 10560" d="M2506.291,8873.9c2.774,1.484,2.406,4.283,1.726,4.934-.469.443-1.251-.139-1.541.584-.617-.709-.778-.449-1.266-.631-1.654-.617-1.092-3.447.83-4.811l.252-.076Z" transform="translate(-2327.125 -8855.604)" fill="#fccbbe"/>
      <path id="Trazado_10561" data-name="Trazado 10561" d="M2506.772,8874.184c.248.161.884.688.782,1.08a.711.711,0,0,0-.55-.311c.02.351.028.727.02,1.084a4.181,4.181,0,0,0-.617-1.237,2.523,2.523,0,0,0-.322,1.273,2.793,2.793,0,0,1-.052-1.641,2.166,2.166,0,0,0-.99.691h0a1.626,1.626,0,0,1,1.164-1.239,3.454,3.454,0,0,1,.566.3Z" transform="translate(-2327.04 -8855.606)" fill="#f6eec1"/>
      <path id="Trazado_10562" data-name="Trazado 10562" d="M2506.537,8873.557c-.775,3.055-3.577,3.37-4.375,2.864-.542-.346-.165-1.244-.939-1.354.542-.769.252-.865.311-1.382.2-1.755,3.082-1.892,4.87-.353l.134.224Z" transform="translate(-2327.441 -8855.775)" fill="#fdd8ce"/>
      <path id="Trazado_10563" data-name="Trazado 10563" d="M2506.1,8874.131c-.094.282-.455,1.025-.861,1.024a.709.709,0,0,0,.169-.61c-.334.1-.7.2-1.045.28a4.246,4.246,0,0,0,1.05-.9,2.5,2.5,0,0,0-1.309-.009,2.809,2.809,0,0,1,1.577-.441,2.192,2.192,0,0,0-.908-.8c-.02,0-.02,0,0,0a1.624,1.624,0,0,1,1.482.831,3.264,3.264,0,0,1-.154.617Z" transform="translate(-2327.139 -8855.732)" fill="#f6eec1"/>
      <path id="Trazado_10564" data-name="Trazado 10564" d="M2506.338,8873.909c-3.149-.076-4.084-2.737-3.766-3.626.212-.606,1.175-.44,1.108-1.217.873.356.9.051,1.416-.008,1.757-.194,2.531,2.584,1.431,4.67l-.189.181Z" transform="translate(-2327.305 -8856.113)" fill="#fccbbe"/>
      <path id="Trazado_10565" data-name="Trazado 10565" d="M2505.515,8873.639c-.295-.031-1.1-.215-1.191-.609a.717.717,0,0,0,.633.026c-.173-.3-.354-.637-.5-.958a4.086,4.086,0,0,0,1.108.827,2.592,2.592,0,0,0-.283-1.282,2.842,2.842,0,0,1,.782,1.44,2.173,2.173,0,0,0,.569-1.062c0-.021,0-.022,0,0a1.629,1.629,0,0,1-.48,1.632,3.406,3.406,0,0,1-.636-.014Z" transform="translate(-2327.115 -8855.841)" fill="#f6eec1"/>
      <path id="Trazado_10566" data-name="Trazado 10566" d="M2480.827,8875.747a1.107,1.107,0,0,1,.719-1.513c.2,0,.255.313.484.214-.02.3.074.277.145.43.24.515-.526,1.031-1.273.908l-.075-.039Z" transform="translate(-2329.588 -8855.569)" fill="#fdd8ce"/>
      <path id="Trazado_10567" data-name="Trazado 10567" d="M2480.762,8875.475c-.02-.092-.047-.354.066-.423a.227.227,0,0,0,.055.2c.074-.083.157-.172.24-.253a1.385,1.385,0,0,0-.138.422.842.842,0,0,0,.363-.217.915.915,0,0,1-.358.384.674.674,0,0,0,.376.067h0a.526.526,0,0,1-.546.019,1.316,1.316,0,0,1-.059-.2Z" transform="translate(-2329.589 -8855.489)" fill="#f6eec1"/>
      <path id="Trazado_10568" data-name="Trazado 10568" d="M2480.848,8875.78a1.107,1.107,0,0,1,1.675.007c.083.188-.177.363.012.529-.279.108-.221.186-.327.313-.361.436-1.159-.037-1.364-.766l0-.084Z" transform="translate(-2329.579 -8855.446)" fill="#fddfd6"/>
      <path id="Trazado_10569" data-name="Trazado 10569" d="M2480.995,8875.632c.075-.057.3-.193.409-.122a.236.236,0,0,0-.154.134c.111.032.224.069.331.11a1.37,1.37,0,0,0-.44.054.825.825,0,0,0,.349.234.9.9,0,0,1-.5-.161.727.727,0,0,0,.1.374c.008,0,.008,0,0,0a.528.528,0,0,1-.252-.484,1.04,1.04,0,0,1,.154-.138Z" transform="translate(-2329.579 -8855.438)" fill="#f6eec1"/>
      <path id="Trazado_10570" data-name="Trazado 10570" d="M2480.83,8875.771a1.11,1.11,0,0,1,.554,1.582c-.154.143-.4-.045-.5.188-.2-.229-.252-.145-.409-.2-.53-.2-.35-1.105.267-1.543l.083-.023Z" transform="translate(-2329.65 -8855.408)" fill="#fccbbe"/>
      <path id="Trazado_10571" data-name="Trazado 10571" d="M2480.982,8875.861c.079.053.283.222.252.348a.228.228,0,0,0-.177-.1c0,.112.008.234,0,.347a1.218,1.218,0,0,0-.2-.395.821.821,0,0,0-.107.407.913.913,0,0,1-.011-.526.67.67,0,0,0-.318.224h0a.515.515,0,0,1,.374-.4,1.213,1.213,0,0,1,.18.1Z" transform="translate(-2329.622 -8855.408)" fill="#f6eec1"/>
      <path id="Trazado_10572" data-name="Trazado 10572" d="M2480.907,8875.663a1.108,1.108,0,0,1-1.4.918c-.177-.113-.055-.4-.3-.437.172-.245.078-.276.1-.44.063-.563.987-.607,1.565-.115l.039.074Z" transform="translate(-2329.751 -8855.463)" fill="#fdd8ce"/>
      <path id="Trazado_10573" data-name="Trazado 10573" d="M2480.767,8875.846c-.031.089-.149.329-.275.328a.214.214,0,0,0,.051-.2c-.106.033-.223.065-.334.089a1.413,1.413,0,0,0,.338-.287.811.811,0,0,0-.421,0,.92.92,0,0,1,.5-.142.721.721,0,0,0-.287-.256c-.012,0-.012,0,0,0a.514.514,0,0,1,.472.268.916.916,0,0,1-.048.2Z" transform="translate(-2329.654 -8855.449)" fill="#f6eec1"/>
      <path id="Trazado_10574" data-name="Trazado 10574" d="M2480.843,8875.774a1.105,1.105,0,0,1-1.207-1.162c.067-.2.378-.142.355-.391.278.114.286.016.452,0,.566-.062.813.827.459,1.5l-.06.058Z" transform="translate(-2329.708 -8855.572)" fill="#fccbbe"/>
      <path id="Trazado_10575" data-name="Trazado 10575" d="M2480.579,8875.688c-.095-.01-.35-.068-.382-.2a.238.238,0,0,0,.2.009c-.054-.1-.114-.2-.165-.308a1.381,1.381,0,0,0,.358.265.838.838,0,0,0-.09-.41.924.924,0,0,1,.252.461.673.673,0,0,0,.18-.339c0-.007,0-.008,0,0a.508.508,0,0,1-.154.521,1.176,1.176,0,0,1-.2,0Z" transform="translate(-2329.647 -8855.484)" fill="#f6eec1"/>
      <path id="Trazado_10576" data-name="Trazado 10576" d="M2510.212,8878.975a1.1,1.1,0,0,1,.719-1.514c.208,0,.251.314.483.216-.02.3.075.278.146.43.24.514-.53,1.031-1.274.907l-.074-.039Z" transform="translate(-2326.505 -8855.23)" fill="#fdd8ce"/>
      <path id="Trazado_10577" data-name="Trazado 10577" d="M2510.146,8878.7c-.02-.093-.048-.357.067-.424a.238.238,0,0,0,.051.2c.078-.086.161-.174.244-.254a1.258,1.258,0,0,0-.138.423.833.833,0,0,0,.362-.218.973.973,0,0,1-.357.384.69.69,0,0,0,.376.068s0,0,0,0a.52.52,0,0,1-.542.02,1.158,1.158,0,0,1-.063-.2Z" transform="translate(-2326.506 -8855.15)" fill="#f6eec1"/>
      <path id="Trazado_10578" data-name="Trazado 10578" d="M2510.23,8879.008a1.11,1.11,0,0,1,1.678.007c.082.19-.177.361.011.529-.278.109-.22.188-.326.315-.366.433-1.159-.04-1.368-.767l0-.085Z" transform="translate(-2326.496 -8855.107)" fill="#fddfd6"/>
      <path id="Trazado_10579" data-name="Trazado 10579" d="M2510.375,8878.858c.078-.059.307-.193.413-.121a.234.234,0,0,0-.154.134c.106.03.224.069.331.109a1.328,1.328,0,0,0-.441.054.832.832,0,0,0,.35.235.913.913,0,0,1-.5-.161.663.663,0,0,0,.1.373h0a.527.527,0,0,1-.252-.486,1.711,1.711,0,0,1,.149-.137Z" transform="translate(-2326.496 -8855.099)" fill="#f6eec1"/>
      <path id="Trazado_10580" data-name="Trazado 10580" d="M2510.21,8879a1.1,1.1,0,0,1,.554,1.582c-.149.143-.4-.044-.5.188-.192-.229-.247-.144-.4-.2-.531-.2-.35-1.106.267-1.544l.078-.024Z" transform="translate(-2326.567 -8855.069)" fill="#fccbbe"/>
      <path id="Trazado_10581" data-name="Trazado 10581" d="M2510.364,8879.089c.083.052.287.222.256.347a.23.23,0,0,0-.177-.1c.007.112.007.234.007.349a1.377,1.377,0,0,0-.2-.4.841.841,0,0,0-.106.409.972.972,0,0,1-.016-.525.716.716,0,0,0-.318.22c0,.008,0,.009,0,0a.52.52,0,0,1,.373-.4,1.118,1.118,0,0,1,.177.1Z" transform="translate(-2326.54 -8855.07)" fill="#f6eec1"/>
      <path id="Trazado_10582" data-name="Trazado 10582" d="M2510.3,8878.888a1.113,1.113,0,0,1-1.412.918c-.169-.109-.051-.4-.3-.433.177-.247.083-.278.1-.443.062-.563.986-.607,1.56-.113l.047.071Z" transform="translate(-2326.668 -8855.124)" fill="#fdd8ce"/>
      <path id="Trazado_10583" data-name="Trazado 10583" d="M2510.152,8879.074c-.032.089-.146.327-.28.326a.209.209,0,0,0,.055-.2c-.106.033-.224.065-.334.091a1.259,1.259,0,0,0,.334-.289.793.793,0,0,0-.417,0,.892.892,0,0,1,.5-.141.7.7,0,0,0-.291-.255h0a.532.532,0,0,1,.48.266,1.3,1.3,0,0,1-.051.2Z" transform="translate(-2326.571 -8855.11)" fill="#f6eec1"/>
      <path id="Trazado_10584" data-name="Trazado 10584" d="M2510.229,8879a1.105,1.105,0,0,1-1.207-1.162c.066-.194.373-.141.354-.39.28.114.287.015.456,0,.562-.062.81.829.456,1.5l-.06.058Z" transform="translate(-2326.625 -8855.232)" fill="#fccbbe"/>
      <path id="Trazado_10585" data-name="Trazado 10585" d="M2509.963,8878.914c-.094-.01-.354-.069-.381-.2a.234.234,0,0,0,.2.009,3.217,3.217,0,0,1-.161-.307,1.233,1.233,0,0,0,.353.264.818.818,0,0,0-.089-.409.887.887,0,0,1,.247.461.68.68,0,0,0,.185-.342h0a.521.521,0,0,1-.154.524,1.148,1.148,0,0,1-.2,0Z" transform="translate(-2326.563 -8855.146)" fill="#f6eec1"/>
    </g>
    <g id="Grupo_12202" data-name="Grupo 12202" transform="translate(2598.13 8857.617)">
      <path id="Trazado_10586" data-name="Trazado 10586" d="M2708.556,9088.187h-86.712V9191.45h86.712V9088.187Z" transform="translate(-2568.971 -8833.396)" fill="#36272f"/>
      <path id="Trazado_10587" data-name="Trazado 10587" d="M2672.058,8905.669c0,12.456,7.523,22.555,16.8,22.555s16.8-10.1,16.8-22.555-7.523-22.556-16.8-22.556-16.8,10.1-16.8,22.556Z" transform="translate(-2563.702 -8854.913)" fill="#8d2e2a"/>
      <path id="Trazado_10588" data-name="Trazado 10588" d="M2697.026,8913.089h-33.4l2.689-21.252h28.022l2.688,21.252Z" transform="translate(-2564.587 -8853.997)" fill="#f6693b"/>
      <path id="Trazado_10589" data-name="Trazado 10589" d="M2692.078,8884.321c4.909-4.482,3.365,4.643,2.217,7.016-.42.872-1.351,2.588-2.429,2.789l.212-9.8Z" transform="translate(-2561.624 -8854.915)" fill="#f6693b"/>
      <path id="Trazado_10590" data-name="Trazado 10590" d="M2666.361,8884.321c-4.906-4.482-3.369,4.643-2.221,7.016.424.872,1.351,2.588,2.429,2.789l-.208-9.8Z" transform="translate(-2564.656 -8854.915)" fill="#f6693b"/>
      <path id="Trazado_10591" data-name="Trazado 10591" d="M2694.909,8889.418c-.448-5.663.869-14.692-1.576-18.442-2.839-4.37-8.25-4.771-12.9-4.771s-10.062.4-12.909,4.771c-2.441,3.75-1.124,12.779-1.575,18.442-.567,7.23,1.434,12.2,6.949,16.675,1.632,1.321,5.4,2.12,7.536,2.153,2.122-.033,5.9-.832,7.523-2.153,5.519-4.477,7.519-9.444,6.95-16.675Z" transform="translate(-2564.353 -8856.688)" fill="#fc8b59"/>
      <path id="Trazado_10592" data-name="Trazado 10592" d="M2681.514,8875.946c2.287,2.352,6.418,1,6.277,3.552-1.211-1.128-2.771.885-6.132-1.273l-.145-2.278Z" transform="translate(-2562.71 -8855.665)" fill="#8d2e2a"/>
      <path id="Trazado_10593" data-name="Trazado 10593" d="M2678.308,8875.267c-2.528-.048-6.769,1.752-6.624,4.3,1.206-1.128,5.067-2.479,6.769-1.851l-.145-2.452Z" transform="translate(-2563.742 -8855.736)" fill="#8d2e2a"/>
      <path id="Trazado_10594" data-name="Trazado 10594" d="M2676.907,8881.489a1.177,1.177,0,1,1-1.18-1.181,1.179,1.179,0,0,1,1.18,1.181Z" transform="translate(-2563.441 -8855.207)" fill="#8d2e2a"/>
      <path id="Trazado_10595" data-name="Trazado 10595" d="M2682.2,8881.489a1.177,1.177,0,1,0,1.175-1.181,1.175,1.175,0,0,0-1.175,1.181Z" transform="translate(-2562.638 -8855.207)" fill="#8d2e2a"/>
      <path id="Trazado_10596" data-name="Trazado 10596" d="M2683.8,8884.514c0,1.036,1.348,1.879,3.007,1.879s3-.843,3-1.879-1.344-1.881-3-1.881-3.007.84-3.007,1.881Z" transform="translate(-2562.47 -8854.963)" fill="#f26a3b"/>
      <path id="Trazado_10597" data-name="Trazado 10597" d="M2676.043,8884.514c0,1.036-1.344,1.879-3,1.879s-3-.843-3-1.879,1.344-1.881,3-1.881,3,.84,3,1.881Z" transform="translate(-2563.914 -8854.963)" fill="#f26a3b"/>
      <path id="Trazado_10598" data-name="Trazado 10598" d="M2679.382,8859.257c-6.615-1.564-11.415,1.343-14.9,5.713a49.665,49.665,0,0,1-6.51,6.051c-5.888,4.822-2.676,14.546,2.682,16.417,7.205,2.517,7.169-3.612,9.339-7.216a23.209,23.209,0,0,1,5.177-6.111,11.731,11.731,0,0,0,3.828-7.551l.386-7.3Z" transform="translate(-2565.511 -8857.461)" fill="#8d2e2a"/>
      <path id="Trazado_10599" data-name="Trazado 10599" d="M2676.256,8867.147c.417,2.54,1.214,4.384,3.49,5.722,2.295,1.348,8.2,1.947,9.755,4.3,2.418,3.662-.243,7.15,4.2,10.682,4.965,3.951,10.023-3.227,10.936-5.394,1.694-4.021-6.852-12.55-7.666-15.431-2.166-7.671-12.94-10.454-17.88-9.111a7.8,7.8,0,0,0-2.013,1.212l-.821,8.02Z" transform="translate(-2563.262 -8857.592)" fill="#8d2e2a"/>
      <path id="Trazado_10600" data-name="Trazado 10600" d="M2666.45,8873.517a6.932,6.932,0,1,1-8.9-4.121,6.935,6.935,0,0,1,8.9,4.121Z" transform="translate(-2565.701 -8856.396)" fill="#9f4a20"/>
      <path id="Trazado_10601" data-name="Trazado 10601" d="M2664.273,8874.866a3.76,3.76,0,1,1-4.824-2.233,3.762,3.762,0,0,1,4.824,2.233Z" transform="translate(-2565.284 -8856.037)" fill="#913000"/>
      <path id="Trazado_10602" data-name="Trazado 10602" d="M2667.2,8881.552a6.931,6.931,0,1,1-8.895-4.122,6.933,6.933,0,0,1,8.895,4.122Z" transform="translate(-2565.622 -8855.554)" fill="#9f4a20"/>
      <path id="Trazado_10603" data-name="Trazado 10603" d="M2665.027,8882.9a3.76,3.76,0,1,1-4.823-2.234,3.757,3.757,0,0,1,4.823,2.234Z" transform="translate(-2565.205 -8855.193)" fill="#913000"/>
      <path id="Trazado_10604" data-name="Trazado 10604" d="M2692.97,8873.517a6.931,6.931,0,1,0,8.895-4.121,6.929,6.929,0,0,0-8.895,4.121Z" transform="translate(-2561.553 -8856.396)" fill="#9f4a20"/>
      <path id="Trazado_10605" data-name="Trazado 10605" d="M2694.545,8874.866a3.76,3.76,0,1,0,4.823-2.233,3.759,3.759,0,0,0-4.823,2.233Z" transform="translate(-2561.367 -8856.037)" fill="#913000"/>
      <path id="Trazado_10606" data-name="Trazado 10606" d="M2692.216,8881.552a6.932,6.932,0,1,0,8.9-4.122,6.931,6.931,0,0,0-8.9,4.122Z" transform="translate(-2561.632 -8855.554)" fill="#9f4a20"/>
      <path id="Trazado_10607" data-name="Trazado 10607" d="M2693.787,8882.9a3.76,3.76,0,1,0,4.828-2.234,3.763,3.763,0,0,0-4.828,2.234Z" transform="translate(-2561.447 -8855.193)" fill="#913000"/>
      <path id="Trazado_10608" data-name="Trazado 10608" d="M2654.4,9303.687c-6.077,3.381-11.789,3.958-13.262,5.665-3.9,4.507,12.17,8.671,12.17,8.671s12.924-3.321,44.575-12.123c1.966-3.356-5.121-10.916-5.121-10.916l-10.519,5.441-12.111-7.716a137.09,137.09,0,0,1-15.731,10.978Z" transform="translate(-2567.011 -8811.937)" fill="#36272f"/>
      <path id="Trazado_10609" data-name="Trazado 10609" d="M2690.868,9310.194l-3.2-18.073s6.525-98.814-2.728-103.3c-21.953-10.648-29.543-19.009-30.71-9.135-4.9,41.363,7.829,62.274,11.312,82.9,1.852,11,5.365,34.813,5.365,34.813l19.96,12.8Z" transform="translate(-2565.689 -8824.257)" fill="#f8f0e2"/>
      <path id="Trazado_10610" data-name="Trazado 10610" d="M2692.758,9295.576l-12.952,5.574-16.073-7.983,6.061-7.367,22.963,9.776Z" transform="translate(-2564.576 -8812.661)" fill="#fa0"/>
      <path id="Trazado_10611" data-name="Trazado 10611" d="M2688.4,9294.321c-2.393,1.332-4.143,2.3-5.472,5.864-.275.725-.526-4.5-.762-3.758-1.568,4.844-2.944,19.461-2.677,20.613,1.8,7.822,10.115,10.664,10.115,10.664s10.974-3.007,11.575-6.615c1.966-3.357,1.208-13.234,1.208-13.234l-2.371-14.1-.278,7.182s-4.316-10.525-11.336-6.615Z" transform="translate(-2562.926 -8811.858)" fill="#4b3642"/>
      <path id="Trazado_10612" data-name="Trazado 10612" d="M2684.022,9304.2l.28-10.644s-11.293-100.167-2.036-104.656c21.954-10.648,35.891-20.031,38.006-10.317,8.275,37.99-13.844,114.136-13.844,114.136l-3,15.11-19.4-3.629Z" transform="translate(-2563.014 -8824.338)" fill="#fcf9eb"/>
      <path id="Trazado_10613" data-name="Trazado 10613" d="M2700.809,9302.775a12.7,12.7,0,0,0-19,0q-2.6-2.817-5.2-5.637a19.661,19.661,0,0,1,29.394,0q-2.594,2.818-5.2,5.637Z" transform="translate(-2563.225 -8812.164)" fill="#fdbb45"/>
      <path id="Trazado_10614" data-name="Trazado 10614" d="M2702.021,9049.769l-65.18-8.39s-6.533,39.034-4.139,77.229c2.6,41.465,5.629,55.406,14.838,70.41,8.809,14.352,42.775,24.14,54.39,3.372,10.106-18.061.091-142.622.091-142.622Z" transform="translate(-2567.887 -8838.307)" fill="#91619b"/>
      <path id="Trazado_10615" data-name="Trazado 10615" d="M2668.144,9083.247c-15.236-4.531-30.078-18.771-30.078-18.771l28.4-13.511,65.184-8.391s11.38,40.813,2.044,77.928c-10.436,41.462-2.866,53.6-9.949,69.712-4.348,9.89-31.461,27.9-43.081,3.373-5.931-12.527-10.287-72.26-12.515-110.341Z" transform="translate(-2567.269 -8838.182)" fill="#a075a7"/>
      <path id="Trazado_10616" data-name="Trazado 10616" d="M2734.6,9071.2l-22.11,30.009-50.023-29.22-29.614,19.787,16.454-164.311,38.4-17.644,42.149,17.644L2734.6,9071.2Z" transform="translate(-2567.816 -8852.111)" fill="#a3b771"/>
      <path id="Trazado_10617" data-name="Trazado 10617" d="M2665.614,8900.721a35.092,35.092,0,0,1,11.638,11.4v1.859l-16.032,1.074-2.743-2.145,7.138-12.191Z" transform="translate(-2565.127 -8853.065)" fill="#fff"/>
      <path id="Trazado_10618" data-name="Trazado 10618" d="M2694.3,8898.478s-14.06,6.754-18.829,14.426v1.314l16.03,1.074,10.837-8.623-8.038-8.191Z" transform="translate(-2563.344 -8853.301)" fill="#fff"/>
      <path id="Trazado_10619" data-name="Trazado 10619" d="M2661,8947.528l.8,3.088h0l-6.163,34.816,11.266,1.293,5.294-37.287-4.308-.639-6.887-1.271Z" transform="translate(-2565.426 -8848.154)" fill="#f5f3f3"/>
      <path id="Trazado_10620" data-name="Trazado 10620" d="M2662.791,8987.4h8.656l3.266-38.129-4.618-.2-7.3,38.328Z" transform="translate(-2564.675 -8847.992)" fill="#fff"/>
      <path id="Trazado_10621" data-name="Trazado 10621" d="M2687.728,8947.528l-.8,3.088-5.522.809,9.729,34.008-12.567,1.293-2.036-37.287,4.308-.639,6.887-1.271Z" transform="translate(-2563.233 -8848.154)" fill="#fff"/>
      <path id="Trazado_10622" data-name="Trazado 10622" d="M2679.287,8987.4h-8.663l3.266-38.129,4.611-.2.786,38.328Z" transform="translate(-2563.853 -8847.992)" fill="#f5f3f3"/>
      <path id="Trazado_10623" data-name="Trazado 10623" d="M2661.457,8929.43l.8,3.087h0l-6.163,34.817,11.261,1.292,5.3-37.287-4.308-.639-6.887-1.271Z" transform="translate(-2565.378 -8850.053)" fill="#fff"/>
      <path id="Trazado_10624" data-name="Trazado 10624" d="M2663.246,8969.306h8.659l3.263-38.129-4.615-.2-7.307,38.328Z" transform="translate(-2564.627 -8849.891)" fill="#f5f3f3"/>
      <path id="Trazado_10625" data-name="Trazado 10625" d="M2688.187,8929.43l-.8,3.087-5.523.811,9.729,34.007-12.566,1.292-2.04-37.287,4.308-.639,6.891-1.271Z" transform="translate(-2563.185 -8850.053)" fill="#f5f3f3"/>
      <path id="Trazado_10626" data-name="Trazado 10626" d="M2679.742,8969.306h-8.659l3.263-38.129,4.615-.2.782,38.328Z" transform="translate(-2563.805 -8849.891)" fill="#fff"/>
      <path id="Trazado_10627" data-name="Trazado 10627" d="M2667.25,8908.96l-2.846,3.088h0l-6.163,34.816,11.265,1.293,5.3-37.286-4.312-.639-3.243-1.272Z" transform="translate(-2565.152 -8852.201)" fill="#fff"/>
      <path id="Trazado_10628" data-name="Trazado 10628" d="M2665.395,8948.836h8.659l3.262-38.128-4.615-.2-7.307,38.329Z" transform="translate(-2564.402 -8852.039)" fill="#f5f3f3"/>
      <path id="Trazado_10629" data-name="Trazado 10629" d="M2690.336,8908.96l-.8,3.088-5.523.809,9.729,34.008-12.566,1.293-2.04-37.286,4.308-.639,6.891-1.272Z" transform="translate(-2562.959 -8852.201)" fill="#f5f3f3"/>
      <path id="Trazado_10630" data-name="Trazado 10630" d="M2681.891,8948.836h-8.659l3.262-38.128,4.615-.2.782,38.329Z" transform="translate(-2563.579 -8852.039)" fill="#fff"/>
      <path id="Trazado_10631" data-name="Trazado 10631" d="M2632.008,9027.074l-57.994-5.859,59.861-97.145,3.8,82.473-5.664,20.531Z" transform="translate(-2573.99 -8850.615)" fill="#36272f"/>
      <path id="Trazado_10632" data-name="Trazado 10632" d="M2629.319,8925.187s.881,82.6,2.448,102.174c2.594,32.372-25.228,105.961-9.461,182.425,7.563-20.749,32.232-251.857,49.217-288.51-1.007-2.731-16.1-7.829-16.1-7.829l-26.1,11.74Z" transform="translate(-2569.433 -8851.73)" fill="#4b3642"/>
      <path id="Trazado_10633" data-name="Trazado 10633" d="M2744.961,8923.048s8.542,77.774-16.1,102.423c-2.593,32.373,33.349,94.392,31.077,164.548-.413,12.668-31.532,25.758-44.146,20.239-4.729-44.44-4.021-113.312-17.37-137.028-19.162-34.038-33.469-114.477-19.968-151.128,1.007-2.729,31.32-15.593,31.32-15.593l35.192,16.539Z" transform="translate(-2563.589 -8852.458)" fill="#4b3642"/>
      <path id="Trazado_10634" data-name="Trazado 10634" d="M2740.051,8921.478c-11.777,9.034-17.872,18.753-17.039,36.816.861,18.746,4.331,19.972,2.92,37.5-.692,8.587-4.878,18.561-5.994,27.45,9.764-11.6,12.72-21.525,18.187-42.24l1.926-59.529Z" transform="translate(-2558.678 -8850.888)" fill="#36272f"/>
      <path id="Trazado_10635" data-name="Trazado 10635" d="M2660.113,8900.861s3.664.554,8.432,8.225l-.5,13.51-17.46-7.221,9.528-14.514Z" transform="translate(-2565.955 -8853.051)" fill="#36272f"/>
      <path id="Trazado_10636" data-name="Trazado 10636" d="M2702.1,8897.125s-9.788,2.7-16.384,8.548l-7.768,17.413,31.32-15.593-7.169-10.368Z" transform="translate(-2563.085 -8853.442)" fill="#36272f"/>
      <path id="Trazado_10637" data-name="Trazado 10637" d="M2608.167,9007.549l4.839-2.378,18.235-8.25,3.057-5.076s5.421,3.419.638,10.479c-.767,1.127-4.858,4.246-4.858,4.246l17.995,4.136c1.447.616,2.009,2.586,1.245,4.4a3.435,3.435,0,0,1-3.446,2.327,3.674,3.674,0,0,1,.609,4.546,3.87,3.87,0,0,1-3.278,2.283c1.364.85,1.667,3.047.672,5.025-1.042,2.057-3.1,3.1-4.607,2.327l-.83-.428a3.4,3.4,0,0,1-.129,3.017,3.247,3.247,0,0,1-2.7,1.906v0l-13.416,2.619-11.643-2.529-2.638-.824c-23.546,1.818.251-27.829.251-27.829Z" transform="translate(-2571.524 -8843.504)" fill="#fc8b59"/>
      <path id="Trazado_10638" data-name="Trazado 10638" d="M2605.954,8998.784l4.68,8.579-.251,27.829c-23.546,1.818-37.044-12.784-36.368-21.274,9.411-23.921,31.938-23.445,31.938-15.134Z" transform="translate(-2573.992 -8843.318)" fill="#4b3642"/>
      <path id="Trazado_10639" data-name="Trazado 10639" d="M2592.792,9033.031l26.21,4.3.527-9.594-27.169-4.885.432,10.178Z" transform="translate(-2572.065 -8840.251)" fill="#f5f3f3"/>
      <path id="Trazado_10640" data-name="Trazado 10640" d="M2592.292,9021.29l27.464,3.4-.2,3.688,1.211.218-.433-10.168-28.23-1.632.189,4.5Z" transform="translate(-2572.092 -8840.887)" fill="#f5f3f3"/>
      <path id="Trazado_10641" data-name="Trazado 10641" d="M2592.275,9020.863l.094,2.2,27.169,4.885.2-3.689-27.464-3.395Z" transform="translate(-2572.074 -8840.461)" fill="#fff"/>
      <path id="Trazado_10642" data-name="Trazado 10642" d="M2619.106,9010.5l-1.906-14.612-25.609,9.843.279,6.582,27.236-1.812Z" transform="translate(-2572.145 -8843.08)" fill="#f5f3f3"/>
      <path id="Trazado_10643" data-name="Trazado 10643" d="M2591.89,9012.126l.236,5.477,28.23,1.632-.432-10.17-.849.058.012.093-27.2,2.911Z" transform="translate(-2572.114 -8841.697)" fill="#fff"/>
      <path id="Trazado_10644" data-name="Trazado 10644" d="M2591.9,9012.121l27.2-2.912-.012-.092-27.236,1.813.051,1.191Z" transform="translate(-2572.119 -8841.693)" fill="#f5f3f3"/>
      <path id="Trazado_10645" data-name="Trazado 10645" d="M2730.559,9029.174c-7.448,11.488-9.382,21.527-3.3,33.977,1.934,3.959,4.434,11.7,8.911,13.322,3.927,1.425,12.968-2.5,16.009-5.173,4.761-4.193,4.575-11.687-.063-16.053-2.166,2.8-4.331,5.942-6.466,8.828-.856-5.234,1.1-10.844.166-15.765-.9-4.739-5.908-8.654-8.684-12.5a53.085,53.085,0,0,0-6.187-7.794l-.385,1.159Z" transform="translate(-2558.29 -8839.709)" fill="#fc8b59"/>
      <path id="Trazado_10646" data-name="Trazado 10646" d="M2744.155,9050.713a19.328,19.328,0,0,0,5.931,2.152c-1.1,2.442-3.663,6.677-6.466,8.828-.79-3.3-1.116-7.981.535-10.98Z" transform="translate(-2556.262 -8837.327)" fill="#f6693b"/>
      <path id="Trazado_10647" data-name="Trazado 10647" d="M2741.545,9045.06l-9.846-15.684,14.968,12.992-5.122,2.691Z" transform="translate(-2557.445 -8839.566)" fill="#fff"/>
      <path id="Trazado_10648" data-name="Trazado 10648" d="M2745.158,9013.682l-19.6,16.267,7.2,6.7,20.656-16.581-8.254-6.389Z" transform="translate(-2558.089 -8841.213)" fill="#fff"/>
      <path id="Trazado_10649" data-name="Trazado 10649" d="M2754.6,9020.713l-19.669,17.777-2.771-2.576-.919.738,8.246,6.383,18.758-19.5-3.644-2.824Z" transform="translate(-2557.493 -8840.476)" fill="#fff"/>
      <path id="Trazado_10650" data-name="Trazado 10650" d="M2754.513,9020.844l-1.784-1.38-20.656,16.581,2.771,2.577,19.669-17.778Z" transform="translate(-2557.405 -8840.606)" fill="#f5f3f3"/>
      <path id="Trazado_10651" data-name="Trazado 10651" d="M2746.6,9048.1l12.645,8.236,8.137-25.146-5.338-4.132L2746.6,9048.1Z" transform="translate(-2555.881 -8839.81)" fill="#fff"/>
      <path id="Trazado_10652" data-name="Trazado 10652" d="M2761.906,9026.706l-4.446-3.437-18.758,19.5,8.247,6.387.48-.656-.079-.053,14.555-21.738Z" transform="translate(-2556.71 -8840.207)" fill="#f5f3f3"/>
      <path id="Trazado_10653" data-name="Trazado 10653" d="M2761.085,9026.38l-14.555,21.738.079.053,15.444-21.042-.967-.749Z" transform="translate(-2555.888 -8839.881)" fill="#f5f3f3"/>
      <path id="Trazado_10654" data-name="Trazado 10654" d="M2769.707,9048.01l-27.08-23.509,15.854-21.56-28.8-30.181s-8.031-14.471-2.021-30.33a83.127,83.127,0,0,1,11.82-20.953s48.934,48.615,62.92,84.919c-8.651,19.225-32.688,41.613-32.688,41.613Z" transform="translate(-2558.103 -8850.888)" fill="#4b3642"/>
      <path id="Trazado_10655" data-name="Trazado 10655" d="M2703.521,8936.372c0,1.277-3.66,2.315-8.176,2.315s-8.171-1.038-8.171-2.315,3.658-2.316,8.171-2.316,8.176,1.037,8.176,2.316Z" transform="translate(-2562.116 -8849.567)" fill="#8c7682"/>
      <path id="Trazado_10656" data-name="Trazado 10656" d="M2652.817,8934.418c0,1.278-2.728,2.314-6.1,2.314s-6.1-1.036-6.1-2.314,2.731-2.317,6.1-2.317,6.1,1.038,6.1,2.317Z" transform="translate(-2567.001 -8849.772)" fill="#8c7682"/>
      <path id="Trazado_10657" data-name="Trazado 10657" d="M2648.969,8967.445c0,1.279-2.732,2.316-6.1,2.316s-6.1-1.037-6.1-2.316,2.731-2.316,6.1-2.316,6.1,1.038,6.1,2.316Z" transform="translate(-2567.405 -8846.308)" fill="#8c7682"/>
      <path id="Trazado_10658" data-name="Trazado 10658" d="M2703.521,8968.926c0,1.279-3.66,2.316-8.176,2.316s-8.171-1.037-8.171-2.316,3.658-2.316,8.171-2.316,8.176,1.037,8.176,2.316Z" transform="translate(-2562.116 -8846.152)" fill="#8c7682"/>
      <path id="Trazado_10659" data-name="Trazado 10659" d="M2708.946,9000.737c0,1.279-3.659,2.317-8.172,2.317s-8.175-1.038-8.175-2.317,3.659-2.316,8.175-2.316,8.172,1.038,8.172,2.316Z" transform="translate(-2561.547 -8842.814)" fill="#8c7682"/>
      <path id="Trazado_10660" data-name="Trazado 10660" d="M2718.317,9036.126c0,1.279-3.66,2.316-8.172,2.316s-8.176-1.037-8.176-2.316,3.659-2.316,8.176-2.316,8.172,1.038,8.172,2.316Z" transform="translate(-2560.564 -8839.102)" fill="#8c7682"/>
    </g>
  </g>
</svg>
