<svg xmlns="http://www.w3.org/2000/svg" width="396" height="227.095" viewBox="0 0 396 227.095">
  <g id="Grupo_70714" data-name="Grupo 70714" transform="translate(-596 -5687.384)">
    <rect id="Rectángulo_4303" data-name="Rectángulo 4303" width="396" height="87.429" rx="9.462" transform="translate(596 5776.147)" fill="#bf3976"/>
    <g id="Grupo_11222" data-name="Grupo 11222" transform="translate(738.394 5687.384)">
      <path id="Trazado_8197" data-name="Trazado 8197" d="M762.553,5596.972l.922-.137a54.39,54.39,0,0,0-93.083-56.291Zm0,0" transform="translate(-662.454 -5509.579)" fill="#85d249"/>
      <path id="Trazado_8198" data-name="Trazado 8198" d="M681.366,5547.16v-2.848a3.878,3.878,0,0,0-3.866-3.866h-7.047a54.354,54.354,0,0,0-3.5,6.714Zm0,0" transform="translate(-662.454 -5509.579)" fill="#def2fe"/>
      <path id="Trazado_8199" data-name="Trazado 8199" d="M676.732,5540.446h-6.279a54.354,54.354,0,0,0-3.5,6.714h5.913v-2.848a3.878,3.878,0,0,1,3.866-3.866Zm0,0" transform="translate(-662.454 -5509.579)" fill="#c5e2f2"/>
      <path id="Trazado_8200" data-name="Trazado 8200" d="M684,5547.116a6.225,6.225,0,0,0-1.71-.241H667.077a54.426,54.426,0,0,0,12.339,61.431v-55.132a6.319,6.319,0,0,1,4.587-6.058Zm0,0" transform="translate(-662.454 -5509.579)" fill="#03b2ef"/>
      <path id="Trazado_8201" data-name="Trazado 8201" d="M668.506,5552.952a6.323,6.323,0,0,1,4.649-6.076h-6.078a54.481,54.481,0,0,0,1.429,46.919Zm0,0" transform="translate(-662.454 -5509.579)" fill="#1e92d3"/>
      <path id="Trazado_8202" data-name="Trazado 8202" d="M680.074,5595.626a1.826,1.826,0,0,0-1.826-1.825h-9.742q.969,1.869,2.073,3.651h7.669a1.827,1.827,0,0,0,1.826-1.826Zm0,0" transform="translate(-662.454 -5509.579)" fill="#01c8f0"/>
      <path id="Trazado_8203" data-name="Trazado 8203" d="M678.062,5556.091a1.826,1.826,0,0,0,0-3.652H664.976q-.57,1.8-1.017,3.652Zm0,0" transform="translate(-662.454 -5509.579)" fill="#01c8f0"/>
      <path id="Trazado_8204" data-name="Trazado 8204" d="M678.248,5586.908H665.529q.652,1.857,1.435,3.65h11.284a1.825,1.825,0,0,0,0-3.65Zm0,0" transform="translate(-662.454 -5509.579)" fill="#01c8f0"/>
      <path id="Trazado_8205" data-name="Trazado 8205" d="M680.074,5602.52a1.826,1.826,0,0,0-1.826-1.825h-5.495q1.367,1.887,2.883,3.65h2.612a1.826,1.826,0,0,0,1.826-1.825Zm0,0" transform="translate(-662.454 -5509.579)" fill="#01c8f0"/>
      <path id="Trazado_8206" data-name="Trazado 8206" d="M678.248,5566.227H662.516q-.062,1.3-.062,2.621c0,.344.007.686.013,1.029h15.781a1.825,1.825,0,0,0,0-3.65Zm0,0" transform="translate(-662.454 -5509.579)" fill="#01c8f0"/>
      <path id="Trazado_8207" data-name="Trazado 8207" d="M678.248,5559.334H663.284q-.32,1.8-.517,3.65h15.481a1.825,1.825,0,0,0,0-3.65Zm0,0" transform="translate(-662.454 -5509.579)" fill="#01c8f0"/>
      <path id="Trazado_8208" data-name="Trazado 8208" d="M678.248,5573.121H662.621q.144,1.844.41,3.65h15.217a1.825,1.825,0,0,0,0-3.65Zm0,0" transform="translate(-662.454 -5509.579)" fill="#01c8f0"/>
      <path id="Trazado_8209" data-name="Trazado 8209" d="M678.248,5580.014H663.6q.386,1.848.894,3.65h13.75a1.825,1.825,0,0,0,0-3.65Zm0,0" transform="translate(-662.454 -5509.579)" fill="#01c8f0"/>
      <path id="Trazado_8210" data-name="Trazado 8210" d="M667.227,5554.265a1.825,1.825,0,0,1,1.824-1.826h-4.075q-.57,1.8-1.017,3.652h5.092a1.825,1.825,0,0,1-1.824-1.826Zm0,0" transform="translate(-662.454 -5509.579)" fill="#03b2ef"/>
      <path id="Trazado_8211" data-name="Trazado 8211" d="M667.04,5588.733a1.824,1.824,0,0,1,1.825-1.825h-3.336q.652,1.857,1.435,3.65h1.9a1.825,1.825,0,0,1-1.825-1.825Zm0,0" transform="translate(-662.454 -5509.579)" fill="#03b2ef"/>
      <path id="Trazado_8212" data-name="Trazado 8212" d="M667.04,5568.052a1.825,1.825,0,0,1,1.825-1.825h-6.349q-.062,1.3-.062,2.621c0,.344.007.686.013,1.029h6.4a1.825,1.825,0,0,1-1.825-1.825Zm0,0" transform="translate(-662.454 -5509.579)" fill="#03b2ef"/>
      <path id="Trazado_8213" data-name="Trazado 8213" d="M667.04,5561.159a1.825,1.825,0,0,1,1.825-1.825h-5.581q-.32,1.8-.517,3.65h6.1a1.825,1.825,0,0,1-1.825-1.825Zm0,0" transform="translate(-662.454 -5509.579)" fill="#03b2ef"/>
      <path id="Trazado_8214" data-name="Trazado 8214" d="M667.04,5574.945a1.824,1.824,0,0,1,1.825-1.824h-6.244q.144,1.844.41,3.65h5.834a1.826,1.826,0,0,1-1.825-1.826Zm0,0" transform="translate(-662.454 -5509.579)" fill="#03b2ef"/>
      <path id="Trazado_8215" data-name="Trazado 8215" d="M667.04,5581.839a1.825,1.825,0,0,1,1.825-1.825H663.6q.386,1.848.894,3.65h4.367a1.825,1.825,0,0,1-1.825-1.825Zm0,0" transform="translate(-662.454 -5509.579)" fill="#03b2ef"/>
      <path id="Trazado_8216" data-name="Trazado 8216" d="M769.112,5567.173a1.826,1.826,0,0,1-.447-2.542,6.534,6.534,0,0,0,1.212-5.265c-.881-4.347-5.946-8.348-7.824-9.523-.038-.024-.075-.05-.111-.075l-4.729-3.468a1.825,1.825,0,0,1,2.158-2.944l4.68,3.431c.8.515,8.081,5.332,9.4,11.853a10.136,10.136,0,0,1-1.8,8.086,1.825,1.825,0,0,1-2.542.447Zm0,0" transform="translate(-662.454 -5509.579)" fill="#ffd764"/>
      <path id="Trazado_8217" data-name="Trazado 8217" d="M700.848,5540.815h4.409a3.5,3.5,0,0,1,3.5,3.5v2.932h1.3a5.937,5.937,0,0,1,5.93,5.93v57.33a5.912,5.912,0,0,1-.078.948h34.735a54.66,54.66,0,0,0,12.384-13.878v-76.215H700.848Zm0,0" transform="translate(-662.454 -5509.579)" fill="#ffb442"/>
      <path id="Trazado_8218" data-name="Trazado 8218" d="M722.636,5603.57v-74.052a8.1,8.1,0,0,1,6.518-7.921v-.238H700.848v19.456h4.409a3.5,3.5,0,0,1,3.5,3.5v2.932h1.3a5.937,5.937,0,0,1,5.93,5.93v57.33a5.945,5.945,0,0,1-.078.95h13.073a8.108,8.108,0,0,1-6.339-7.884Zm0,0" transform="translate(-662.454 -5509.579)" fill="#ffa222"/>
      <path id="Trazado_8219" data-name="Trazado 8219" d="M767.234,5509.579h-70.6a2.926,2.926,0,0,0-2.926,2.926v6.419a2.926,2.926,0,0,0,2.926,2.925h70.6a2.926,2.926,0,0,0,2.926-2.925V5512.5a2.926,2.926,0,0,0-2.926-2.926Zm0,0" transform="translate(-662.454 -5509.579)" fill="#543e5b"/>
      <path id="Trazado_8220" data-name="Trazado 8220" d="M723.136,5515.715a6.27,6.27,0,0,1,4.98-6.136H696.635a2.926,2.926,0,0,0-2.926,2.926v6.419a2.926,2.926,0,0,0,2.926,2.925h31.481a6.269,6.269,0,0,1-4.98-6.134Zm0,0" transform="translate(-662.454 -5509.579)" fill="#422953"/>
      <path id="Trazado_8221" data-name="Trazado 8221" d="M751.244,5610.962H715.96a5.936,5.936,0,0,1-5.91,5.472h-1.3v2.932a3.5,3.5,0,0,1-1.689,2.989,54.689,54.689,0,0,0,9.771.877h.005a54.148,54.148,0,0,0,34.4-12.27Zm0,0" transform="translate(-662.454 -5509.579)" fill="#543e5b"/>
      <path id="Trazado_8222" data-name="Trazado 8222" d="M723.136,5616.8a6.269,6.269,0,0,1,3.993-5.841H715.96a5.936,5.936,0,0,1-5.91,5.472h-1.3v2.932a3.5,3.5,0,0,1-1.689,2.989,54.689,54.689,0,0,0,9.771.877h.005a54.714,54.714,0,0,0,9.685-.862,6.265,6.265,0,0,1-3.39-5.567Zm0,0" transform="translate(-662.454 -5509.579)" fill="#422953"/>
      <path id="Trazado_8223" data-name="Trazado 8223" d="M762.8,5528.811h-61.31a1.824,1.824,0,1,1,0-3.649H762.8a1.824,1.824,0,1,1,0,3.649Zm0,0" transform="translate(-662.454 -5509.579)" fill="#ffd764"/>
      <path id="Trazado_8224" data-name="Trazado 8224" d="M762.8,5535.962h-61.31a1.825,1.825,0,1,1,0-3.65H762.8a1.825,1.825,0,1,1,0,3.65Zm0,0" transform="translate(-662.454 -5509.579)" fill="#ffd764"/>
      <path id="Trazado_8225" data-name="Trazado 8225" d="M762.8,5543.113h-61.04a1.825,1.825,0,1,1,0-3.65H762.8a1.825,1.825,0,1,1,0,3.65Zm0,0" transform="translate(-662.454 -5509.579)" fill="#ffd764"/>
      <path id="Trazado_8226" data-name="Trazado 8226" d="M762.8,5550.264H709.122a1.825,1.825,0,0,1,0-3.65H762.8a1.825,1.825,0,1,1,0,3.65Zm0,0" transform="translate(-662.454 -5509.579)" fill="#ffd764"/>
      <path id="Trazado_8227" data-name="Trazado 8227" d="M762.8,5557.414H716.634a1.824,1.824,0,0,1,0-3.649H762.8a1.824,1.824,0,1,1,0,3.649Zm0,0" transform="translate(-662.454 -5509.579)" fill="#ffd764"/>
      <path id="Trazado_8228" data-name="Trazado 8228" d="M762.8,5564.565H716.634a1.825,1.825,0,0,1,0-3.65H762.8a1.825,1.825,0,1,1,0,3.65Zm0,0" transform="translate(-662.454 -5509.579)" fill="#ffd764"/>
      <path id="Trazado_8229" data-name="Trazado 8229" d="M762.8,5586.017H716.634a1.825,1.825,0,0,1,0-3.65H762.8a1.825,1.825,0,1,1,0,3.65Zm0,0" transform="translate(-662.454 -5509.579)" fill="#ffd764"/>
      <path id="Trazado_8230" data-name="Trazado 8230" d="M762.8,5593.168H716.634a1.825,1.825,0,0,1,0-3.65H762.8a1.825,1.825,0,1,1,0,3.65Zm0,0" transform="translate(-662.454 -5509.579)" fill="#ffd764"/>
      <path id="Trazado_8231" data-name="Trazado 8231" d="M763.491,5596.8a1.8,1.8,0,0,0-.689-.135H716.634a1.825,1.825,0,0,0,0,3.65h44.558q1.213-1.709,2.3-3.515Zm0,0" transform="translate(-662.454 -5509.579)" fill="#ffd764"/>
      <path id="Trazado_8232" data-name="Trazado 8232" d="M758.483,5603.82H716.634a1.825,1.825,0,0,0,0,3.649h38.489q1.762-1.746,3.36-3.649Zm0,0" transform="translate(-662.454 -5509.579)" fill="#ffd764"/>
      <path id="Trazado_8233" data-name="Trazado 8233" d="M762.8,5571.716H716.634a1.825,1.825,0,0,1,0-3.65H762.8a1.825,1.825,0,1,1,0,3.65Zm0,0" transform="translate(-662.454 -5509.579)" fill="#ffd764"/>
      <path id="Trazado_8234" data-name="Trazado 8234" d="M762.8,5578.867H716.634a1.825,1.825,0,0,1,0-3.65H762.8a1.825,1.825,0,1,1,0,3.65Zm0,0" transform="translate(-662.454 -5509.579)" fill="#ffd764"/>
      <path id="Trazado_8235" data-name="Trazado 8235" d="M721.585,5526.986a1.824,1.824,0,0,1,1.824-1.824H701.491a1.824,1.824,0,1,0,0,3.649h21.918a1.825,1.825,0,0,1-1.824-1.825Zm0,0" transform="translate(-662.454 -5509.579)" fill="#ffb442"/>
      <path id="Trazado_8236" data-name="Trazado 8236" d="M721.03,5534.137a1.824,1.824,0,0,1,1.824-1.825H701.491a1.825,1.825,0,1,0,0,3.65h21.363a1.825,1.825,0,0,1-1.824-1.825Zm0,0" transform="translate(-662.454 -5509.579)" fill="#ffb442"/>
      <path id="Trazado_8237" data-name="Trazado 8237" d="M721.03,5541.288a1.824,1.824,0,0,1,1.824-1.825H701.761a1.825,1.825,0,1,0,0,3.65h21.093a1.825,1.825,0,0,1-1.824-1.825Zm0,0" transform="translate(-662.454 -5509.579)" fill="#ffb442"/>
      <path id="Trazado_8238" data-name="Trazado 8238" d="M721.03,5548.438a1.824,1.824,0,0,1,1.824-1.824H709.122a1.825,1.825,0,0,0,0,3.65h13.732a1.826,1.826,0,0,1-1.824-1.826Zm0,0" transform="translate(-662.454 -5509.579)" fill="#ffb442"/>
      <path id="Trazado_8239" data-name="Trazado 8239" d="M721.03,5555.589a1.824,1.824,0,0,1,1.824-1.824h-6.22a1.824,1.824,0,0,0,0,3.649h6.22a1.825,1.825,0,0,1-1.824-1.825Zm0,0" transform="translate(-662.454 -5509.579)" fill="#ffb442"/>
      <path id="Trazado_8240" data-name="Trazado 8240" d="M721.03,5562.74a1.824,1.824,0,0,1,1.824-1.825h-6.22a1.825,1.825,0,0,0,0,3.65h6.22a1.825,1.825,0,0,1-1.824-1.825Zm0,0" transform="translate(-662.454 -5509.579)" fill="#ffb442"/>
      <path id="Trazado_8241" data-name="Trazado 8241" d="M721.03,5584.192a1.825,1.825,0,0,1,1.824-1.825h-6.22a1.825,1.825,0,0,0,0,3.65h6.22a1.825,1.825,0,0,1-1.824-1.825Zm0,0" transform="translate(-662.454 -5509.579)" fill="#ffb442"/>
      <path id="Trazado_8242" data-name="Trazado 8242" d="M721.03,5591.343a1.824,1.824,0,0,1,1.824-1.825h-6.22a1.825,1.825,0,0,0,0,3.65h6.22a1.825,1.825,0,0,1-1.824-1.825Zm0,0" transform="translate(-662.454 -5509.579)" fill="#ffb442"/>
      <path id="Trazado_8243" data-name="Trazado 8243" d="M721.03,5598.493a1.824,1.824,0,0,1,1.824-1.824h-6.22a1.825,1.825,0,0,0,0,3.65h6.22a1.825,1.825,0,0,1-1.824-1.826Zm0,0" transform="translate(-662.454 -5509.579)" fill="#ffb442"/>
      <path id="Trazado_8244" data-name="Trazado 8244" d="M721.585,5605.644a1.824,1.824,0,0,1,1.824-1.824h-6.775a1.825,1.825,0,0,0,0,3.649h6.775a1.825,1.825,0,0,1-1.824-1.825Zm0,0" transform="translate(-662.454 -5509.579)" fill="#ffb442"/>
      <path id="Trazado_8245" data-name="Trazado 8245" d="M721.03,5569.89a1.824,1.824,0,0,1,1.824-1.824h-6.22a1.825,1.825,0,0,0,0,3.65h6.22a1.825,1.825,0,0,1-1.824-1.826Zm0,0" transform="translate(-662.454 -5509.579)" fill="#ffb442"/>
      <path id="Trazado_8246" data-name="Trazado 8246" d="M721.03,5577.041a1.824,1.824,0,0,1,1.824-1.824h-6.22a1.825,1.825,0,0,0,0,3.65h6.22a1.826,1.826,0,0,1-1.824-1.826Zm0,0" transform="translate(-662.454 -5509.579)" fill="#ffb442"/>
      <path id="Trazado_8247" data-name="Trazado 8247" d="M709.122,5547.16v-2.848a3.877,3.877,0,0,0-3.865-3.866H690.016a3.878,3.878,0,0,0-3.866,3.866v2.848Zm0,0" transform="translate(-662.454 -5509.579)" fill="#def2fe"/>
      <path id="Trazado_8248" data-name="Trazado 8248" d="M702.78,5540.446H690.016a3.878,3.878,0,0,0-3.866,3.866v2.848h12.764v-2.848a3.878,3.878,0,0,1,3.866-3.866Zm0,0" transform="translate(-662.454 -5509.579)" fill="#c5e2f2"/>
      <path id="Trazado_8249" data-name="Trazado 8249" d="M707.582,5622.444a3.86,3.86,0,0,0,1.54-3.078v-2.848H690.648a53.976,53.976,0,0,0,16.934,5.926Zm0,0" transform="translate(-662.454 -5509.579)" fill="#def2fe"/>
      <path id="Trazado_8250" data-name="Trazado 8250" d="M698.721,5616.518h-8.073a54.083,54.083,0,0,0,8.086,3.624,2.042,2.042,0,0,1-.013-3.624Zm0,0" transform="translate(-662.454 -5509.579)" fill="#c5e2f2"/>
      <path id="Trazado_8251" data-name="Trazado 8251" d="M710.05,5546.876H685.223a6.317,6.317,0,0,0-6.3,6.3v54.659a54.579,54.579,0,0,0,12.246,8.969h18.88a6.316,6.316,0,0,0,6.3-6.3v-57.33a6.316,6.316,0,0,0-6.3-6.3Zm0,0" transform="translate(-662.454 -5509.579)" fill="#ff87ba"/>
      <path id="Trazado_8252" data-name="Trazado 8252" d="M694.512,5610.5v-57.33a6.316,6.316,0,0,1,6.3-6.3H685.223a6.317,6.317,0,0,0-6.3,6.3v54.659a54.579,54.579,0,0,0,12.246,8.969h9.64a6.316,6.316,0,0,1-6.3-6.3Zm0,0" transform="translate(-662.454 -5509.579)" fill="#f962aa"/>
      <path id="Trazado_8253" data-name="Trazado 8253" d="M715.653,5569.877H679.619a1.825,1.825,0,0,1,0-3.65h36.034a1.825,1.825,0,1,1,0,3.65Zm0,0" transform="translate(-662.454 -5509.579)" fill="#ffa0d0"/>
      <path id="Trazado_8254" data-name="Trazado 8254" d="M715.653,5562.984H679.619a1.825,1.825,0,0,1,0-3.65h36.034a1.825,1.825,0,1,1,0,3.65Zm0,0" transform="translate(-662.454 -5509.579)" fill="#ffa0d0"/>
      <path id="Trazado_8255" data-name="Trazado 8255" d="M715.4,5556.091H679.87a1.826,1.826,0,0,1,0-3.652H715.4a1.826,1.826,0,0,1,0,3.652Zm0,0" transform="translate(-662.454 -5509.579)" fill="#ffa0d0"/>
      <path id="Trazado_8256" data-name="Trazado 8256" d="M715.653,5583.664H679.619a1.824,1.824,0,0,1,0-3.649h36.034a1.824,1.824,0,1,1,0,3.649Zm0,0" transform="translate(-662.454 -5509.579)" fill="#ffa0d0"/>
      <path id="Trazado_8257" data-name="Trazado 8257" d="M715.653,5576.771H679.619a1.825,1.825,0,0,1,0-3.65h36.034a1.825,1.825,0,1,1,0,3.65Zm0,0" transform="translate(-662.454 -5509.579)" fill="#ffa0d0"/>
      <path id="Trazado_8258" data-name="Trazado 8258" d="M715.653,5597.452H679.619a1.826,1.826,0,0,1,0-3.651h36.034a1.826,1.826,0,0,1,0,3.651Zm0,0" transform="translate(-662.454 -5509.579)" fill="#ffa0d0"/>
      <path id="Trazado_8259" data-name="Trazado 8259" d="M715.653,5590.558H679.619a1.825,1.825,0,0,1,0-3.65h36.034a1.825,1.825,0,1,1,0,3.65Zm0,0" transform="translate(-662.454 -5509.579)" fill="#ffa0d0"/>
      <path id="Trazado_8260" data-name="Trazado 8260" d="M717.478,5609.413a1.824,1.824,0,0,0-1.825-1.824H679.619a1.817,1.817,0,0,0-.769.171q1.877,1.832,3.923,3.479h32.88a1.826,1.826,0,0,0,1.825-1.826Zm0,0" transform="translate(-662.454 -5509.579)" fill="#ffa0d0"/>
      <path id="Trazado_8261" data-name="Trazado 8261" d="M715.653,5604.345H679.619a1.825,1.825,0,0,1,0-3.65h36.034a1.825,1.825,0,0,1,0,3.65Zm0,0" transform="translate(-662.454 -5509.579)" fill="#ffa0d0"/>
      <path id="Trazado_8262" data-name="Trazado 8262" d="M692.593,5568.052a1.825,1.825,0,0,1,1.825-1.825h-14.8a1.825,1.825,0,0,0,0,3.65h14.8a1.826,1.826,0,0,1-1.825-1.825Zm0,0" transform="translate(-662.454 -5509.579)" fill="#ff87ba"/>
      <path id="Trazado_8263" data-name="Trazado 8263" d="M692.593,5561.159a1.825,1.825,0,0,1,1.825-1.825h-14.8a1.825,1.825,0,0,0,0,3.65h14.8a1.826,1.826,0,0,1-1.825-1.825Zm0,0" transform="translate(-662.454 -5509.579)" fill="#ff87ba"/>
      <path id="Trazado_8264" data-name="Trazado 8264" d="M692.843,5554.265a1.826,1.826,0,0,1,1.826-1.826h-14.8a1.826,1.826,0,0,0,0,3.652h14.8a1.826,1.826,0,0,1-1.826-1.826Zm0,0" transform="translate(-662.454 -5509.579)" fill="#ff87ba"/>
      <path id="Trazado_8265" data-name="Trazado 8265" d="M692.593,5581.839a1.825,1.825,0,0,1,1.825-1.825h-14.8a1.825,1.825,0,0,0,0,3.65h14.8a1.826,1.826,0,0,1-1.825-1.825Zm0,0" transform="translate(-662.454 -5509.579)" fill="#ff87ba"/>
      <path id="Trazado_8266" data-name="Trazado 8266" d="M692.593,5574.946a1.825,1.825,0,0,1,1.825-1.825h-14.8a1.825,1.825,0,0,0,0,3.65h14.8a1.826,1.826,0,0,1-1.825-1.825Zm0,0" transform="translate(-662.454 -5509.579)" fill="#ff87ba"/>
      <path id="Trazado_8267" data-name="Trazado 8267" d="M692.593,5595.626a1.825,1.825,0,0,1,1.825-1.825h-14.8a1.826,1.826,0,0,0,0,3.651h14.8a1.827,1.827,0,0,1-1.825-1.826Zm0,0" transform="translate(-662.454 -5509.579)" fill="#ff87ba"/>
      <path id="Trazado_8268" data-name="Trazado 8268" d="M692.593,5588.733a1.824,1.824,0,0,1,1.825-1.825h-14.8a1.825,1.825,0,0,0,0,3.65h14.8a1.826,1.826,0,0,1-1.825-1.825Zm0,0" transform="translate(-662.454 -5509.579)" fill="#ff87ba"/>
      <path id="Trazado_8269" data-name="Trazado 8269" d="M692.593,5609.413a1.824,1.824,0,0,1,1.825-1.824h-14.8a1.817,1.817,0,0,0-.769.171q1.877,1.832,3.923,3.479h11.645a1.826,1.826,0,0,1-1.825-1.826Zm0,0" transform="translate(-662.454 -5509.579)" fill="#ff87ba"/>
      <path id="Trazado_8270" data-name="Trazado 8270" d="M692.593,5602.52a1.825,1.825,0,0,1,1.825-1.825h-14.8a1.825,1.825,0,0,0,0,3.65h14.8a1.826,1.826,0,0,1-1.825-1.825Zm0,0" transform="translate(-662.454 -5509.579)" fill="#ff87ba"/>
      <path id="Trazado_8271" data-name="Trazado 8271" d="M676.313,5531.585a1.825,1.825,0,1,1-2.4-2.75c31.414-27.4,80.07,56.742,94.752,35.8a1.825,1.825,0,0,1,2.989,2.1c-18.343,26.166-66.469-60.327-95.341-35.141Zm0,0" transform="translate(-662.454 -5509.579)" fill="#fceca9"/>
    </g>
    <path id="Trazado_8680" data-name="Trazado 8680" d="M722.918,5722.636H721.2v-17.193a2.646,2.646,0,0,0-2.645-2.646h-.99a2.646,2.646,0,0,0-2.646,2.646v17.193H713.2a2.161,2.161,0,0,0-1.933,3.127l4.858,9.716a2.16,2.16,0,0,0,3.865,0l4.859-9.716A2.161,2.161,0,0,0,722.918,5722.636Z" transform="translate(75.94 177.805)" fill="#8fccd2"/>
    <path id="Trazado_117498" data-name="Trazado 117498" d="M18.75,17V5.578h1.328V15.8h5.039V17Zm13.375,0-.258-1.219H31.8a3.6,3.6,0,0,1-1.277,1.09,3.893,3.893,0,0,1-1.59.285,2.86,2.86,0,0,1-2-.656,2.394,2.394,0,0,1-.723-1.867q0-2.594,4.148-2.719l1.453-.047v-.531a2.171,2.171,0,0,0-.434-1.488A1.783,1.783,0,0,0,30,9.367a5.65,5.65,0,0,0-2.422.656l-.4-.992a6.094,6.094,0,0,1,1.387-.539,6.006,6.006,0,0,1,1.512-.2,3.262,3.262,0,0,1,2.27.68,2.837,2.837,0,0,1,.738,2.18V17Zm-2.93-.914a2.632,2.632,0,0,0,1.9-.664,2.457,2.457,0,0,0,.691-1.859v-.773l-1.3.055a4.717,4.717,0,0,0-2.23.48,1.449,1.449,0,0,0-.684,1.324A1.336,1.336,0,0,0,28,15.719,1.767,1.767,0,0,0,29.2,16.086ZM43.9,8.3A3.183,3.183,0,0,1,46.52,9.449a5.058,5.058,0,0,1,.934,3.262,5.1,5.1,0,0,1-.941,3.277A3.17,3.17,0,0,1,43.9,17.156a3.706,3.706,0,0,1-1.527-.309,2.872,2.872,0,0,1-1.16-.949h-.094L40.844,17h-.93V4.844h1.3V7.8q0,.992-.062,1.781h.063A3.079,3.079,0,0,1,43.9,8.3Zm-.187,1.086a2.264,2.264,0,0,0-1.914.762,4.3,4.3,0,0,0-.586,2.566,4.285,4.285,0,0,0,.6,2.582,2.288,2.288,0,0,0,1.93.777,2,2,0,0,0,1.781-.871,4.477,4.477,0,0,0,.586-2.5,4.3,4.3,0,0,0-.586-2.492A2.076,2.076,0,0,0,43.711,9.383Zm7.227-.945v5.555a2.235,2.235,0,0,0,.477,1.563,1.941,1.941,0,0,0,1.492.516,2.435,2.435,0,0,0,1.965-.734,3.7,3.7,0,0,0,.621-2.4v-4.5h1.3V17h-1.07l-.187-1.148h-.07a2.585,2.585,0,0,1-1.105.969,3.716,3.716,0,0,1-1.613.336,3.273,3.273,0,0,1-2.34-.742,3.159,3.159,0,0,1-.777-2.375v-5.6ZM52.3,7.109q.375-.484.809-1.172a13.412,13.412,0,0,0,.684-1.2h1.578v.164a11.549,11.549,0,0,1-1.023,1.25A11.62,11.62,0,0,1,53.164,7.3H52.3Zm12.766,7.555a2.145,2.145,0,0,1-.891,1.844,4.186,4.186,0,0,1-2.5.648,5.436,5.436,0,0,1-2.656-.539v-1.2a6.424,6.424,0,0,0,1.324.492,5.53,5.53,0,0,0,1.363.18,3.092,3.092,0,0,0,1.563-.324,1.116,1.116,0,0,0,.113-1.844,6.82,6.82,0,0,0-1.691-.84,9.172,9.172,0,0,1-1.7-.777,2.321,2.321,0,0,1-.75-.754,1.966,1.966,0,0,1-.246-1.008,1.921,1.921,0,0,1,.852-1.652,3.968,3.968,0,0,1,2.336-.605,6.835,6.835,0,0,1,2.7.563L64.422,9.9a6.2,6.2,0,0,0-2.336-.531,2.688,2.688,0,0,0-1.391.289.894.894,0,0,0-.469.8.971.971,0,0,0,.176.586,1.735,1.735,0,0,0,.566.461,12.658,12.658,0,0,0,1.5.633,5.6,5.6,0,0,1,2.059,1.117A1.97,1.97,0,0,1,65.063,14.664Zm5.344,1.406a2.356,2.356,0,0,0,1.891-.7,3.766,3.766,0,0,0,.633-2.344v-.289a4.282,4.282,0,0,0-.609-2.586,2.285,2.285,0,0,0-1.93-.789,1.985,1.985,0,0,0-1.746.887,4.409,4.409,0,0,0-.605,2.5,4.258,4.258,0,0,0,.6,2.465A2.025,2.025,0,0,0,70.406,16.07Zm-.2,1.086a3.124,3.124,0,0,1-2.586-1.164,5.082,5.082,0,0,1-.93-3.25,5.147,5.147,0,0,1,.938-3.281,3.444,3.444,0,0,1,5.313.148h.07L73.2,8.438h1.023V20.844h-1.3V17.18a8.727,8.727,0,0,1,.086-1.328h-.1A3.063,3.063,0,0,1,70.211,17.156ZM78.2,8.438v5.555a2.235,2.235,0,0,0,.477,1.563,1.941,1.941,0,0,0,1.492.516,2.435,2.435,0,0,0,1.965-.734,3.7,3.7,0,0,0,.621-2.4v-4.5h1.3V17h-1.07l-.187-1.148h-.07a2.585,2.585,0,0,1-1.105.969A3.716,3.716,0,0,1,80,17.156a3.273,3.273,0,0,1-2.34-.742,3.159,3.159,0,0,1-.777-2.375v-5.6Zm12.219,8.719a3.934,3.934,0,0,1-3-1.156,4.476,4.476,0,0,1-1.1-3.211A4.964,4.964,0,0,1,87.34,9.5a3.387,3.387,0,0,1,2.738-1.219A3.229,3.229,0,0,1,92.625,9.34a4.057,4.057,0,0,1,.938,2.793v.82h-5.9a3.394,3.394,0,0,0,.762,2.289,2.635,2.635,0,0,0,2.035.781,6.9,6.9,0,0,0,2.734-.578V16.6a6.863,6.863,0,0,1-1.3.426A7.31,7.31,0,0,1,90.414,17.156Zm-.352-7.789a2.118,2.118,0,0,0-1.645.672A3.1,3.1,0,0,0,87.7,11.9h4.477a2.851,2.851,0,0,0-.547-1.879A1.925,1.925,0,0,0,90.063,9.367ZM101.6,15.852h-.07a3.047,3.047,0,0,1-2.687,1.3,3.179,3.179,0,0,1-2.613-1.148,5.055,5.055,0,0,1-.934-3.266,5.141,5.141,0,0,1,.938-3.289,3.155,3.155,0,0,1,2.609-1.172,3.114,3.114,0,0,1,2.672,1.266h.1l-.055-.617-.031-.6V4.844h1.3V17h-1.055Zm-2.594.219a2.361,2.361,0,0,0,1.926-.723,3.652,3.652,0,0,0,.6-2.332v-.273a4.3,4.3,0,0,0-.605-2.6,2.3,2.3,0,0,0-1.934-.777,1.985,1.985,0,0,0-1.746.887,4.409,4.409,0,0,0-.605,2.5,4.227,4.227,0,0,0,.6,2.477A2.037,2.037,0,0,0,99.008,16.07Zm11.836.93-.258-1.219h-.062a3.6,3.6,0,0,1-1.277,1.09,3.893,3.893,0,0,1-1.59.285,2.86,2.86,0,0,1-2-.656,2.394,2.394,0,0,1-.723-1.867q0-2.594,4.148-2.719l1.453-.047v-.531a2.171,2.171,0,0,0-.434-1.488,1.783,1.783,0,0,0-1.387-.48,5.65,5.65,0,0,0-2.422.656l-.4-.992a6.094,6.094,0,0,1,1.387-.539,6.006,6.006,0,0,1,1.512-.2,3.262,3.262,0,0,1,2.27.68,2.837,2.837,0,0,1,.738,2.18V17Zm-2.93-.914a2.632,2.632,0,0,0,1.9-.664,2.457,2.457,0,0,0,.691-1.859v-.773l-1.3.055a4.717,4.717,0,0,0-2.23.48,1.449,1.449,0,0,0-.684,1.324,1.336,1.336,0,0,0,.426,1.07A1.767,1.767,0,0,0,107.914,16.086Zm16.547-.234h-.07a3.047,3.047,0,0,1-2.687,1.3,3.179,3.179,0,0,1-2.613-1.148,5.055,5.055,0,0,1-.934-3.266,5.141,5.141,0,0,1,.938-3.289A3.155,3.155,0,0,1,121.7,8.281a3.114,3.114,0,0,1,2.672,1.266h.1l-.055-.617-.031-.6V4.844h1.3V17h-1.055Zm-2.594.219a2.361,2.361,0,0,0,1.926-.723,3.652,3.652,0,0,0,.6-2.332v-.273a4.3,4.3,0,0,0-.605-2.6,2.3,2.3,0,0,0-1.934-.777,1.985,1.985,0,0,0-1.746.887,4.409,4.409,0,0,0-.605,2.5,4.227,4.227,0,0,0,.6,2.477A2.037,2.037,0,0,0,121.867,16.07Zm10.188,1.086a3.934,3.934,0,0,1-3-1.156,4.476,4.476,0,0,1-1.1-3.211A4.964,4.964,0,0,1,128.98,9.5a3.387,3.387,0,0,1,2.738-1.219,3.229,3.229,0,0,1,2.547,1.059,4.057,4.057,0,0,1,.938,2.793v.82h-5.9a3.394,3.394,0,0,0,.762,2.289,2.634,2.634,0,0,0,2.035.781,6.9,6.9,0,0,0,2.734-.578V16.6a6.863,6.863,0,0,1-1.3.426A7.31,7.31,0,0,1,132.055,17.156ZM131.7,9.367a2.118,2.118,0,0,0-1.645.672,3.1,3.1,0,0,0-.723,1.859h4.477a2.851,2.851,0,0,0-.547-1.879A1.925,1.925,0,0,0,131.7,9.367ZM147.43,17V11.461a2.235,2.235,0,0,0-.477-1.562,1.941,1.941,0,0,0-1.492-.516,2.461,2.461,0,0,0-1.969.727,3.668,3.668,0,0,0-.625,2.4V17h-1.3V8.438h1.055l.211,1.172h.063a2.648,2.648,0,0,1,1.117-.98,3.63,3.63,0,0,1,1.6-.348,3.252,3.252,0,0,1,2.328.746,3.175,3.175,0,0,1,.781,2.387V17Zm5.18-8.562v5.555a2.235,2.235,0,0,0,.477,1.563,1.941,1.941,0,0,0,1.492.516,2.435,2.435,0,0,0,1.965-.734,3.7,3.7,0,0,0,.621-2.4v-4.5h1.3V17h-1.07l-.187-1.148h-.07a2.585,2.585,0,0,1-1.105.969,3.716,3.716,0,0,1-1.613.336,3.273,3.273,0,0,1-2.34-.742,3.159,3.159,0,0,1-.777-2.375v-5.6Zm12.219,8.719a3.934,3.934,0,0,1-3-1.156,4.476,4.476,0,0,1-1.1-3.211,4.964,4.964,0,0,1,1.02-3.289,3.387,3.387,0,0,1,2.738-1.219,3.229,3.229,0,0,1,2.547,1.059,4.057,4.057,0,0,1,.938,2.793v.82h-5.9a3.394,3.394,0,0,0,.762,2.289,2.634,2.634,0,0,0,2.035.781,6.9,6.9,0,0,0,2.734-.578V16.6a6.863,6.863,0,0,1-1.3.426A7.31,7.31,0,0,1,164.828,17.156Zm-.352-7.789a2.118,2.118,0,0,0-1.645.672,3.1,3.1,0,0,0-.723,1.859h4.477a2.851,2.851,0,0,0-.547-1.879A1.925,1.925,0,0,0,164.477,9.367ZM172.063,17l-3.25-8.562H170.2l1.844,5.078a24.035,24.035,0,0,1,.734,2.313h.063a17.468,17.468,0,0,1,.543-1.715q.457-1.3,2.051-5.676h1.391L173.578,17Zm13.531-4.289a4.724,4.724,0,0,1-1.055,3.27,3.714,3.714,0,0,1-2.914,1.176,3.86,3.86,0,0,1-2.039-.539,3.558,3.558,0,0,1-1.375-1.547,5.391,5.391,0,0,1-.484-2.359,4.716,4.716,0,0,1,1.047-3.262,3.7,3.7,0,0,1,2.906-1.168,3.622,3.622,0,0,1,2.855,1.2A4.7,4.7,0,0,1,185.594,12.711Zm-6.523,0a4.064,4.064,0,0,0,.656,2.5,2.6,2.6,0,0,0,3.863,0,4.043,4.043,0,0,0,.66-2.5,3.978,3.978,0,0,0-.66-2.48,2.32,2.32,0,0,0-1.949-.848,2.283,2.283,0,0,0-1.922.836A4.023,4.023,0,0,0,179.07,12.711Zm14.32,1.953a2.145,2.145,0,0,1-.891,1.844,4.186,4.186,0,0,1-2.5.648,5.436,5.436,0,0,1-2.656-.539v-1.2a6.423,6.423,0,0,0,1.324.492,5.53,5.53,0,0,0,1.363.18,3.092,3.092,0,0,0,1.563-.324,1.116,1.116,0,0,0,.113-1.844,6.82,6.82,0,0,0-1.691-.84,9.172,9.172,0,0,1-1.7-.777,2.321,2.321,0,0,1-.75-.754,1.966,1.966,0,0,1-.246-1.008,1.921,1.921,0,0,1,.852-1.652,3.968,3.968,0,0,1,2.336-.605,6.835,6.835,0,0,1,2.7.563L192.75,9.9a6.2,6.2,0,0,0-2.336-.531,2.688,2.688,0,0,0-1.391.289.894.894,0,0,0-.469.8.971.971,0,0,0,.176.586,1.735,1.735,0,0,0,.566.461,12.659,12.659,0,0,0,1.5.633,5.6,5.6,0,0,1,2.059,1.117A1.97,1.97,0,0,1,193.391,14.664ZM210.57,17V11.43a2.312,2.312,0,0,0-.437-1.535,1.692,1.692,0,0,0-1.359-.512,2.195,2.195,0,0,0-1.789.7,3.3,3.3,0,0,0-.578,2.141V17h-1.3V11.43a2.312,2.312,0,0,0-.437-1.535,1.7,1.7,0,0,0-1.367-.512,2.118,2.118,0,0,0-1.785.73,3.953,3.953,0,0,0-.566,2.395V17h-1.3V8.438h1.055l.211,1.172h.063a2.549,2.549,0,0,1,1.035-.977,3.163,3.163,0,0,1,1.5-.352,2.544,2.544,0,0,1,2.625,1.453h.063a2.73,2.73,0,0,1,1.109-1.062,3.442,3.442,0,0,1,1.656-.391,2.9,2.9,0,0,1,2.176.746,3.338,3.338,0,0,1,.723,2.387V17Zm9.234,0-.258-1.219h-.062a3.6,3.6,0,0,1-1.277,1.09,3.893,3.893,0,0,1-1.59.285,2.86,2.86,0,0,1-2-.656,2.394,2.394,0,0,1-.723-1.867q0-2.594,4.148-2.719l1.453-.047v-.531a2.171,2.171,0,0,0-.434-1.488,1.783,1.783,0,0,0-1.387-.48,5.65,5.65,0,0,0-2.422.656l-.4-.992a6.094,6.094,0,0,1,1.387-.539,6.006,6.006,0,0,1,1.512-.2,3.262,3.262,0,0,1,2.27.68,2.837,2.837,0,0,1,.738,2.18V17Zm-2.93-.914a2.632,2.632,0,0,0,1.9-.664,2.457,2.457,0,0,0,.691-1.859v-.773l-1.3.055a4.717,4.717,0,0,0-2.23.48,1.449,1.449,0,0,0-.684,1.324,1.336,1.336,0,0,0,.426,1.07A1.767,1.767,0,0,0,216.875,16.086Zm9.328,0a4.236,4.236,0,0,0,.664-.051,4.3,4.3,0,0,0,.508-.105v.992a2.371,2.371,0,0,1-.621.168,4.664,4.664,0,0,1-.738.066q-2.484,0-2.484-2.617V9.445H222.3V8.82l1.227-.539.547-1.828h.75V8.438h2.484V9.445h-2.484v5.039a1.733,1.733,0,0,0,.367,1.188A1.278,1.278,0,0,0,226.2,16.086Zm6.5,1.07a3.934,3.934,0,0,1-3-1.156,4.476,4.476,0,0,1-1.1-3.211,4.964,4.964,0,0,1,1.02-3.289,3.387,3.387,0,0,1,2.738-1.219,3.229,3.229,0,0,1,2.547,1.059,4.057,4.057,0,0,1,.938,2.793v.82h-5.9a3.394,3.394,0,0,0,.762,2.289,2.634,2.634,0,0,0,2.035.781,6.9,6.9,0,0,0,2.734-.578V16.6a6.863,6.863,0,0,1-1.3.426A7.31,7.31,0,0,1,232.7,17.156Zm-.352-7.789a2.118,2.118,0,0,0-1.645.672,3.1,3.1,0,0,0-.723,1.859h4.477a2.851,2.851,0,0,0-.547-1.879A1.925,1.925,0,0,0,232.352,9.367Zm9.617-1.086a5.075,5.075,0,0,1,1.023.094l-.18,1.2a4.418,4.418,0,0,0-.937-.117,2.282,2.282,0,0,0-1.777.844,3.077,3.077,0,0,0-.738,2.1V17h-1.3V8.438h1.07l.148,1.586h.063a3.764,3.764,0,0,1,1.148-1.289A2.585,2.585,0,0,1,241.969,8.281ZM245.891,17h-1.3V8.438h1.3ZM244.484,6.117a.861.861,0,0,1,.219-.652.81.81,0,0,1,1.086,0,.846.846,0,0,1,.227.648.859.859,0,0,1-.227.652.794.794,0,0,1-1.086,0A.877.877,0,0,1,244.484,6.117ZM253.906,17l-.258-1.219h-.062a3.6,3.6,0,0,1-1.277,1.09,3.893,3.893,0,0,1-1.59.285,2.86,2.86,0,0,1-2-.656A2.394,2.394,0,0,1,248,14.633q0-2.594,4.148-2.719l1.453-.047v-.531a2.171,2.171,0,0,0-.434-1.488,1.783,1.783,0,0,0-1.387-.48,5.65,5.65,0,0,0-2.422.656l-.4-.992a6.094,6.094,0,0,1,1.387-.539,6.006,6.006,0,0,1,1.512-.2,3.262,3.262,0,0,1,2.27.68,2.837,2.837,0,0,1,.738,2.18V17Zm-2.93-.914a2.632,2.632,0,0,0,1.9-.664,2.457,2.457,0,0,0,.691-1.859v-.773l-1.3.055a4.717,4.717,0,0,0-2.23.48,1.449,1.449,0,0,0-.684,1.324,1.336,1.336,0,0,0,.426,1.07A1.767,1.767,0,0,0,250.977,16.086Zm7.859.914h-1.3V4.844h1.3Zm6.367.156a3.934,3.934,0,0,1-3-1.156,4.476,4.476,0,0,1-1.1-3.211,4.964,4.964,0,0,1,1.02-3.289,3.387,3.387,0,0,1,2.738-1.219,3.229,3.229,0,0,1,2.547,1.059,4.057,4.057,0,0,1,.938,2.793v.82h-5.9a3.394,3.394,0,0,0,.762,2.289,2.635,2.635,0,0,0,2.035.781,6.9,6.9,0,0,0,2.734-.578V16.6a6.864,6.864,0,0,1-1.3.426A7.31,7.31,0,0,1,265.2,17.156Zm-.352-7.789a2.118,2.118,0,0,0-1.645.672,3.1,3.1,0,0,0-.723,1.859h4.477a2.851,2.851,0,0,0-.547-1.879A1.925,1.925,0,0,0,264.852,9.367Zm11.234,5.3a2.145,2.145,0,0,1-.891,1.844,4.186,4.186,0,0,1-2.5.648,5.436,5.436,0,0,1-2.656-.539v-1.2a6.424,6.424,0,0,0,1.324.492,5.53,5.53,0,0,0,1.363.18,3.092,3.092,0,0,0,1.563-.324,1.116,1.116,0,0,0,.113-1.844,6.821,6.821,0,0,0-1.691-.84,9.172,9.172,0,0,1-1.7-.777,2.321,2.321,0,0,1-.75-.754,1.966,1.966,0,0,1-.246-1.008,1.921,1.921,0,0,1,.852-1.652,3.968,3.968,0,0,1,2.336-.605,6.835,6.835,0,0,1,2.7.563L275.445,9.9a6.2,6.2,0,0,0-2.336-.531,2.687,2.687,0,0,0-1.391.289.894.894,0,0,0-.469.8.971.971,0,0,0,.176.586,1.735,1.735,0,0,0,.566.461,12.656,12.656,0,0,0,1.5.633,5.6,5.6,0,0,1,2.059,1.117A1.97,1.97,0,0,1,276.086,14.664Z" transform="translate(653 5813.037)" fill="#fff"/>
  </g>
</svg>
