<svg xmlns="http://www.w3.org/2000/svg" width="396" height="233.209" viewBox="0 0 396 233.209">
  <g id="Grupo_70717" data-name="Grupo 70717" transform="translate(-596 -6483.664)">
    <g id="Grupo_11237" data-name="Grupo 11237" transform="translate(596 6483.664)">
      <rect id="Rectángulo_4306" data-name="Rectángulo 4306" width="396" height="143.571" rx="9.462" transform="translate(0 89.638)" fill="#bf3976"/>
      <g id="Grupo_11236" data-name="Grupo 11236" transform="translate(143.615)">
        <path id="Trazado_8658" data-name="Trazado 8658" d="M760.85,6344.021H675.492c0,.013-.113,30.643-.2,54.7a54.765,54.765,0,0,0,11.519,10.921h62.5a54.7,54.7,0,0,0,11.685-11.134Zm0,0" transform="translate(-663.675 -6305.859)" fill="#85d249"/>
        <path id="Trazado_8659" data-name="Trazado 8659" d="M663.675,6365.127a54.146,54.146,0,0,0,11.817,33.846v-37.238a4.505,4.505,0,0,1,1.02-2.856l9.982-12.193.645-1.018-4.957-21.409a54.25,54.25,0,0,0-18.507,40.868Zm0,0" transform="translate(-663.675 -6305.859)" fill="#ffd764"/>
        <path id="Trazado_8660" data-name="Trazado 8660" d="M772.445,6365.127a54.248,54.248,0,0,0-18.624-40.97l-4.565,21.178.37,1.351,9.982,12.193a4.505,4.505,0,0,1,1.02,2.856v37.237a54.147,54.147,0,0,0,11.817-33.845Zm0,0" transform="translate(-663.675 -6305.859)" fill="#ffd764"/>
        <path id="Trazado_8661" data-name="Trazado 8661" d="M682.182,6324.259a54.7,54.7,0,0,0-9.717,11.226,5.358,5.358,0,0,1,5.306,4.159l.47,1.567a5.649,5.649,0,0,1-1.034,5.2l-6.54,8.014a12.815,12.815,0,0,0-2.885,8.1v23.362a54.344,54.344,0,0,0,7.71,13.089v-37.238a4.505,4.505,0,0,1,1.02-2.856l9.982-12.193.645-1.018Zm0,0" transform="translate(-663.675 -6305.859)" fill="#ffb442"/>
        <path id="Trazado_8662" data-name="Trazado 8662" d="M768.6,6385.233v-22.711a12.816,12.816,0,0,0-2.886-8.1l-6.539-8.014a5.649,5.649,0,0,1-1.035-5.2l.471-1.567a5.373,5.373,0,0,1,5.042-4.16,54.691,54.691,0,0,0-9.835-11.327l-4.565,21.178.37,1.351,9.982,12.193a4.505,4.505,0,0,1,1.02,2.856v37.238a54.385,54.385,0,0,0,7.975-13.74Zm0,0" transform="translate(-663.675 -6305.859)" fill="#ffb442"/>
        <path id="Trazado_8663" data-name="Trazado 8663" d="M731.965,6312.54a2.82,2.82,0,0,1-4.017-.9c-.3-.057-.61-.109-.916-.16a2.826,2.826,0,0,1-5.64-.254h-.505v1.026a2.851,2.851,0,1,1-5.654,0v-1.026h-.5a2.826,2.826,0,0,1-5.641.254c-.307.051-.612.1-.916.16a2.819,2.819,0,0,1-4.016.9,54.285,54.285,0,0,0-22.821,12.478h0l5.16,21.667v6.53h63.132v-6.53l5.16-21.667a54.276,54.276,0,0,0-22.821-12.479Zm0,0" transform="translate(-663.675 -6305.859)" fill="#fceca9"/>
        <path id="Trazado_8664" data-name="Trazado 8664" d="M711.9,6320.646v-6.589a2.828,2.828,0,0,1-2.813-2.574c-.306.051-.613.1-.917.16a2.819,2.819,0,0,1-4.016.9,54.276,54.276,0,0,0-22.821,12.479l5.16,21.667v6.53h15.783v-23.783c0-7.214,9.624-8.787,9.624-8.787Zm0,0" transform="translate(-663.675 -6305.859)" fill="#ffd764"/>
        <path id="Trazado_8665" data-name="Trazado 8665" d="M686.494,6409.418a54.4,54.4,0,0,0,63.132,0v-41.989H686.494Zm0,0" transform="translate(-663.675 -6305.859)" fill="#fceca9"/>
        <path id="Trazado_8666" data-name="Trazado 8666" d="M702.276,6367.429H686.494v41.989a54.112,54.112,0,0,0,28.359,10c-13.135-4.15-12.577-16.929-12.577-16.929v-35.06Zm0,0" transform="translate(-663.675 -6305.859)" fill="#ffd764"/>
        <rect id="Rectángulo_4307" data-name="Rectángulo 4307" width="63.132" height="14.213" transform="translate(22.819 47.357)" fill="#ffb442"/>
        <rect id="Rectángulo_4308" data-name="Rectángulo 4308" width="15.784" height="14.213" transform="translate(22.819 47.357)" fill="#ffa222"/>
        <path id="Trazado_8667" data-name="Trazado 8667" d="M693.045,6346.665l-6.551,6.551,6.551,6.551a1.9,1.9,0,0,0,2.68,0l6.552-6.551-6.552-6.551a1.9,1.9,0,0,0-2.68,0Zm0,0" transform="translate(-663.675 -6305.859)" fill="#ff8c24"/>
        <path id="Trazado_8668" data-name="Trazado 8668" d="M708.828,6346.665l-6.551,6.551,6.551,6.551a1.9,1.9,0,0,0,2.681,0l6.551-6.551-6.551-6.551a1.9,1.9,0,0,0-2.681,0Zm0,0" transform="translate(-663.675 -6305.859)" fill="#ffd764"/>
        <path id="Trazado_8669" data-name="Trazado 8669" d="M724.611,6346.665l-6.551,6.551,6.551,6.551a1.9,1.9,0,0,0,2.68,0l6.551-6.551-6.551-6.551a1.9,1.9,0,0,0-2.68,0Zm0,0" transform="translate(-663.675 -6305.859)" fill="#ffa222"/>
        <path id="Trazado_8670" data-name="Trazado 8670" d="M740.394,6346.665l-6.551,6.551,6.551,6.551a1.9,1.9,0,0,0,2.68,0l6.552-6.551-6.552-6.551a1.9,1.9,0,0,0-2.68,0Zm0,0" transform="translate(-663.675 -6305.859)" fill="#ffd764"/>
        <path id="Trazado_8671" data-name="Trazado 8671" d="M693.045,6360.878l-6.551,6.551,6.551,6.552a1.9,1.9,0,0,0,2.68,0l6.552-6.552-6.552-6.551a1.894,1.894,0,0,0-2.68,0Zm0,0" transform="translate(-663.675 -6305.859)" fill="#ffb442"/>
        <path id="Trazado_8672" data-name="Trazado 8672" d="M708.828,6360.878l-6.551,6.551,6.551,6.552a1.9,1.9,0,0,0,2.681,0l6.551-6.552-6.551-6.552a1.9,1.9,0,0,0-2.681,0Zm0,0" transform="translate(-663.675 -6305.859)" fill="#ffa222"/>
        <path id="Trazado_8673" data-name="Trazado 8673" d="M724.611,6360.878l-6.551,6.551,6.551,6.552a1.9,1.9,0,0,0,2.68,0l6.551-6.552-6.551-6.552a1.9,1.9,0,0,0-2.68,0Zm0,0" transform="translate(-663.675 -6305.859)" fill="#ffd764"/>
        <path id="Trazado_8674" data-name="Trazado 8674" d="M740.394,6360.878l-6.551,6.551,6.551,6.552a1.9,1.9,0,0,0,2.68,0l6.552-6.552-6.552-6.551a1.894,1.894,0,0,0-2.68,0Zm0,0" transform="translate(-663.675 -6305.859)" fill="#ffa222"/>
        <path id="Trazado_8675" data-name="Trazado 8675" d="M705.742,6305.859a3.079,3.079,0,0,0-3.079,3.078v7.825a3.079,3.079,0,0,0,6.159,0v-7.825a3.08,3.08,0,0,0-3.08-3.078Zm0,0" transform="translate(-663.675 -6305.859)" fill="#ffb442"/>
        <path id="Trazado_8676" data-name="Trazado 8676" d="M711.9,6306.885a3.079,3.079,0,0,0-3.079,3.079v7.825a3.079,3.079,0,0,0,6.159,0v-7.825a3.08,3.08,0,0,0-3.08-3.079Zm0,0" transform="translate(-663.675 -6305.859)" fill="#ffd764"/>
        <path id="Trazado_8677" data-name="Trazado 8677" d="M718.06,6307.912a3.078,3.078,0,0,0-3.079,3.079v7.823a3.078,3.078,0,1,0,6.157,0v-7.823a3.078,3.078,0,0,0-3.078-3.079Zm0,0" transform="translate(-663.675 -6305.859)" fill="#ffb442"/>
        <path id="Trazado_8678" data-name="Trazado 8678" d="M724.219,6306.885a3.079,3.079,0,0,0-3.079,3.079v7.825a3.078,3.078,0,1,0,6.157,0v-7.825a3.078,3.078,0,0,0-3.078-3.079Zm0,0" transform="translate(-663.675 -6305.859)" fill="#ffd764"/>
        <path id="Trazado_8679" data-name="Trazado 8679" d="M730.377,6305.859a3.08,3.08,0,0,0-3.08,3.078v7.825a3.079,3.079,0,0,0,6.159,0v-7.825a3.079,3.079,0,0,0-3.079-3.078Zm0,0" transform="translate(-663.675 -6305.859)" fill="#ffb442"/>
      </g>
    </g>
    <path id="Trazado_117501" data-name="Trazado 117501" d="M17.992,11.18A5.767,5.767,0,0,1,16.457,15.5,6.074,6.074,0,0,1,12.039,17H8.875V5.578h3.5a5.6,5.6,0,0,1,4.141,1.477A5.576,5.576,0,0,1,17.992,11.18Zm-1.406.047a4.6,4.6,0,0,0-1.121-3.367,4.493,4.493,0,0,0-3.332-1.133H10.2v9.125H11.82a4.917,4.917,0,0,0,3.57-1.168A4.624,4.624,0,0,0,16.586,11.227Zm7.375,5.93a3.934,3.934,0,0,1-3-1.156,4.476,4.476,0,0,1-1.1-3.211A4.964,4.964,0,0,1,20.887,9.5a3.387,3.387,0,0,1,2.738-1.219A3.229,3.229,0,0,1,26.172,9.34a4.057,4.057,0,0,1,.938,2.793v.82h-5.9a3.394,3.394,0,0,0,.762,2.289,2.635,2.635,0,0,0,2.035.781,6.9,6.9,0,0,0,2.734-.578V16.6a6.863,6.863,0,0,1-1.3.426A7.31,7.31,0,0,1,23.961,17.156Zm-.352-7.789a2.118,2.118,0,0,0-1.645.672,3.1,3.1,0,0,0-.723,1.859h4.477a2.851,2.851,0,0,0-.547-1.879A1.925,1.925,0,0,0,23.609,9.367ZM30.617,17h-1.3V4.844h1.3Zm10.523.156a3.934,3.934,0,0,1-3-1.156,4.476,4.476,0,0,1-1.1-3.211A4.964,4.964,0,0,1,38.066,9.5,3.387,3.387,0,0,1,40.8,8.281,3.229,3.229,0,0,1,43.352,9.34a4.057,4.057,0,0,1,.938,2.793v.82h-5.9a3.394,3.394,0,0,0,.762,2.289,2.634,2.634,0,0,0,2.035.781,6.9,6.9,0,0,0,2.734-.578V16.6a6.863,6.863,0,0,1-1.3.426A7.31,7.31,0,0,1,41.141,17.156Zm-.352-7.789a2.118,2.118,0,0,0-1.645.672,3.1,3.1,0,0,0-.723,1.859H42.9a2.851,2.851,0,0,0-.547-1.879A1.925,1.925,0,0,0,40.789,9.367ZM52.359,17V11.461A2.235,2.235,0,0,0,51.883,9.9a1.941,1.941,0,0,0-1.492-.516,2.461,2.461,0,0,0-1.969.727,3.668,3.668,0,0,0-.625,2.4V17H46.5V8.438h1.055l.211,1.172h.063a2.648,2.648,0,0,1,1.117-.98,3.63,3.63,0,0,1,1.6-.348,3.252,3.252,0,0,1,2.328.746,3.175,3.175,0,0,1,.781,2.387V17Zm7.82-7.555H58V17H56.7V9.445H55.172V8.859L56.7,8.391V7.914q0-3.156,2.758-3.156a5.675,5.675,0,0,1,1.594.273L60.719,6.07a4.29,4.29,0,0,0-1.281-.242,1.248,1.248,0,0,0-1.086.488A2.725,2.725,0,0,0,58,7.883v.555h2.18Zm8.953,3.266a4.724,4.724,0,0,1-1.055,3.27,3.714,3.714,0,0,1-2.914,1.176,3.86,3.86,0,0,1-2.039-.539A3.558,3.558,0,0,1,61.75,15.07a5.391,5.391,0,0,1-.484-2.359,4.716,4.716,0,0,1,1.047-3.262,3.7,3.7,0,0,1,2.906-1.168,3.622,3.622,0,0,1,2.855,1.2A4.7,4.7,0,0,1,69.133,12.711Zm-6.523,0a4.064,4.064,0,0,0,.656,2.5,2.6,2.6,0,0,0,3.863,0,4.043,4.043,0,0,0,.66-2.5,3.978,3.978,0,0,0-.66-2.48,2.32,2.32,0,0,0-1.949-.848,2.283,2.283,0,0,0-1.922.836A4.023,4.023,0,0,0,62.609,12.711ZM74.641,16.07a2.356,2.356,0,0,0,1.891-.7,3.766,3.766,0,0,0,.633-2.344v-.289a4.282,4.282,0,0,0-.609-2.586,2.285,2.285,0,0,0-1.93-.789,1.985,1.985,0,0,0-1.746.887,4.409,4.409,0,0,0-.605,2.5,4.258,4.258,0,0,0,.6,2.465A2.025,2.025,0,0,0,74.641,16.07Zm-.2,1.086a3.124,3.124,0,0,1-2.586-1.164,5.082,5.082,0,0,1-.93-3.25,5.147,5.147,0,0,1,.938-3.281,3.444,3.444,0,0,1,5.313.148h.07l.188-1.172h1.023V20.844h-1.3V17.18a8.727,8.727,0,0,1,.086-1.328h-.1A3.063,3.063,0,0,1,74.445,17.156ZM82.43,8.438v5.555a2.235,2.235,0,0,0,.477,1.563,1.941,1.941,0,0,0,1.492.516,2.435,2.435,0,0,0,1.965-.734,3.7,3.7,0,0,0,.621-2.4v-4.5h1.3V17h-1.07l-.187-1.148h-.07a2.585,2.585,0,0,1-1.105.969,3.716,3.716,0,0,1-1.613.336,3.273,3.273,0,0,1-2.34-.742,3.159,3.159,0,0,1-.777-2.375v-5.6Zm12.219,8.719a3.934,3.934,0,0,1-3-1.156,4.476,4.476,0,0,1-1.1-3.211A4.964,4.964,0,0,1,91.574,9.5a3.387,3.387,0,0,1,2.738-1.219A3.229,3.229,0,0,1,96.859,9.34a4.057,4.057,0,0,1,.938,2.793v.82H91.9a3.394,3.394,0,0,0,.762,2.289,2.635,2.635,0,0,0,2.035.781,6.9,6.9,0,0,0,2.734-.578V16.6a6.863,6.863,0,0,1-1.3.426A7.31,7.31,0,0,1,94.648,17.156ZM94.3,9.367a2.118,2.118,0,0,0-1.645.672A3.1,3.1,0,0,0,91.93,11.9h4.477a2.851,2.851,0,0,0-.547-1.879A1.925,1.925,0,0,0,94.3,9.367Zm13.1,6.7a2.356,2.356,0,0,0,1.891-.7,3.766,3.766,0,0,0,.633-2.344v-.289a4.282,4.282,0,0,0-.609-2.586,2.285,2.285,0,0,0-1.93-.789,1.985,1.985,0,0,0-1.746.887,4.409,4.409,0,0,0-.605,2.5,4.258,4.258,0,0,0,.6,2.465A2.025,2.025,0,0,0,107.4,16.07Zm-.2,1.086a3.124,3.124,0,0,1-2.586-1.164,5.082,5.082,0,0,1-.93-3.25,5.147,5.147,0,0,1,.938-3.281,3.444,3.444,0,0,1,5.313.148h.07l.188-1.172h1.023V20.844h-1.3V17.18a8.727,8.727,0,0,1,.086-1.328h-.1A3.063,3.063,0,0,1,107.2,17.156Zm7.984-8.719v5.555a2.235,2.235,0,0,0,.477,1.563,1.941,1.941,0,0,0,1.492.516,2.435,2.435,0,0,0,1.965-.734,3.7,3.7,0,0,0,.621-2.4v-4.5h1.3V17h-1.07l-.187-1.148h-.07a2.585,2.585,0,0,1-1.105.969,3.716,3.716,0,0,1-1.613.336,3.273,3.273,0,0,1-2.34-.742,3.159,3.159,0,0,1-.777-2.375v-5.6Zm12.219,8.719a3.934,3.934,0,0,1-3-1.156,4.476,4.476,0,0,1-1.1-3.211,4.964,4.964,0,0,1,1.02-3.289,3.387,3.387,0,0,1,2.738-1.219,3.229,3.229,0,0,1,2.547,1.059,4.057,4.057,0,0,1,.938,2.793v.82h-5.9a3.394,3.394,0,0,0,.762,2.289,2.635,2.635,0,0,0,2.035.781,6.9,6.9,0,0,0,2.734-.578V16.6a6.863,6.863,0,0,1-1.3.426A7.31,7.31,0,0,1,127.406,17.156Zm-.352-7.789a2.118,2.118,0,0,0-1.645.672,3.1,3.1,0,0,0-.723,1.859h4.477a2.851,2.851,0,0,0-.547-1.879A1.925,1.925,0,0,0,127.055,9.367Zm15.391,5.3a2.145,2.145,0,0,1-.891,1.844,4.186,4.186,0,0,1-2.5.648,5.436,5.436,0,0,1-2.656-.539v-1.2a6.423,6.423,0,0,0,1.324.492,5.53,5.53,0,0,0,1.363.18,3.092,3.092,0,0,0,1.563-.324,1.116,1.116,0,0,0,.113-1.844,6.82,6.82,0,0,0-1.691-.84,9.172,9.172,0,0,1-1.7-.777,2.321,2.321,0,0,1-.75-.754,1.966,1.966,0,0,1-.246-1.008,1.921,1.921,0,0,1,.852-1.652,3.968,3.968,0,0,1,2.336-.605,6.835,6.835,0,0,1,2.7.563L141.8,9.9a6.2,6.2,0,0,0-2.336-.531,2.688,2.688,0,0,0-1.391.289.894.894,0,0,0-.469.8.971.971,0,0,0,.176.586,1.735,1.735,0,0,0,.566.461,12.659,12.659,0,0,0,1.5.633,5.6,5.6,0,0,1,2.059,1.117A1.97,1.97,0,0,1,142.445,14.664Zm5.727,2.492a3.934,3.934,0,0,1-3-1.156,4.476,4.476,0,0,1-1.1-3.211A4.964,4.964,0,0,1,145.1,9.5a3.387,3.387,0,0,1,2.738-1.219,3.229,3.229,0,0,1,2.547,1.059,4.057,4.057,0,0,1,.938,2.793v.82h-5.9a3.394,3.394,0,0,0,.762,2.289,2.634,2.634,0,0,0,2.035.781,6.9,6.9,0,0,0,2.734-.578V16.6a6.863,6.863,0,0,1-1.3.426A7.31,7.31,0,0,1,148.172,17.156Zm-.352-7.789a2.118,2.118,0,0,0-1.645.672,3.1,3.1,0,0,0-.723,1.859h4.477a2.851,2.851,0,0,0-.547-1.879A1.925,1.925,0,0,0,147.82,9.367ZM158.984,17h-1.3V4.844h1.3Zm6.367.156a3.934,3.934,0,0,1-3-1.156,4.476,4.476,0,0,1-1.1-3.211,4.964,4.964,0,0,1,1.02-3.289,3.387,3.387,0,0,1,2.738-1.219,3.229,3.229,0,0,1,2.547,1.059,4.057,4.057,0,0,1,.938,2.793v.82h-5.9a3.394,3.394,0,0,0,.762,2.289,2.634,2.634,0,0,0,2.035.781,6.9,6.9,0,0,0,2.734-.578V16.6a6.863,6.863,0,0,1-1.3.426A7.31,7.31,0,0,1,165.352,17.156ZM165,9.367a2.118,2.118,0,0,0-1.645.672,3.1,3.1,0,0,0-.723,1.859h4.477a2.851,2.851,0,0,0-.547-1.879A1.925,1.925,0,0,0,165,9.367ZM176.742,17l-3.25-8.562h1.391l1.844,5.078a24.035,24.035,0,0,1,.734,2.313h.063a17.468,17.468,0,0,1,.543-1.715q.457-1.3,2.051-5.676h1.391L178.258,17Zm11.406,0-.258-1.219h-.062a3.6,3.6,0,0,1-1.277,1.09,3.893,3.893,0,0,1-1.59.285,2.86,2.86,0,0,1-2-.656,2.394,2.394,0,0,1-.723-1.867q0-2.594,4.148-2.719l1.453-.047v-.531a2.171,2.171,0,0,0-.434-1.488,1.783,1.783,0,0,0-1.387-.48,5.65,5.65,0,0,0-2.422.656l-.4-.992a6.094,6.094,0,0,1,1.387-.539,6.006,6.006,0,0,1,1.512-.2,3.262,3.262,0,0,1,2.27.68,2.837,2.837,0,0,1,.738,2.18V17Zm-2.93-.914a2.632,2.632,0,0,0,1.9-.664,2.457,2.457,0,0,0,.691-1.859v-.773l-1.3.055a4.717,4.717,0,0,0-2.23.48,1.449,1.449,0,0,0-.684,1.324,1.336,1.336,0,0,0,.426,1.07A1.767,1.767,0,0,0,185.219,16.086ZM201.2,17l-.258-1.219h-.062a3.6,3.6,0,0,1-1.277,1.09,3.893,3.893,0,0,1-1.59.285,2.86,2.86,0,0,1-2-.656,2.394,2.394,0,0,1-.723-1.867q0-2.594,4.148-2.719l1.453-.047v-.531a2.171,2.171,0,0,0-.434-1.488,1.783,1.783,0,0,0-1.387-.48,5.65,5.65,0,0,0-2.422.656l-.4-.992a6.094,6.094,0,0,1,1.387-.539,6.006,6.006,0,0,1,1.512-.2,3.262,3.262,0,0,1,2.27.68,2.837,2.837,0,0,1,.738,2.18V17Zm-2.93-.914a2.632,2.632,0,0,0,1.9-.664,2.457,2.457,0,0,0,.691-1.859v-.773l-1.3.055a4.717,4.717,0,0,0-2.23.48,1.449,1.449,0,0,0-.684,1.324,1.336,1.336,0,0,0,.426,1.07A1.767,1.767,0,0,0,198.273,16.086Zm16.547-.234h-.07a3.047,3.047,0,0,1-2.687,1.3,3.179,3.179,0,0,1-2.613-1.148,5.055,5.055,0,0,1-.934-3.266,5.141,5.141,0,0,1,.938-3.289,3.155,3.155,0,0,1,2.609-1.172,3.114,3.114,0,0,1,2.672,1.266h.1l-.055-.617-.031-.6V4.844h1.3V17h-1.055Zm-2.594.219a2.361,2.361,0,0,0,1.926-.723,3.652,3.652,0,0,0,.6-2.332v-.273a4.3,4.3,0,0,0-.605-2.6,2.3,2.3,0,0,0-1.934-.777,1.985,1.985,0,0,0-1.746.887,4.409,4.409,0,0,0-.605,2.5,4.227,4.227,0,0,0,.6,2.477A2.037,2.037,0,0,0,212.227,16.07Zm11.836.93-.258-1.219h-.062a3.6,3.6,0,0,1-1.277,1.09,3.893,3.893,0,0,1-1.59.285,2.86,2.86,0,0,1-2-.656,2.394,2.394,0,0,1-.723-1.867q0-2.594,4.148-2.719l1.453-.047v-.531a2.171,2.171,0,0,0-.434-1.488,1.783,1.783,0,0,0-1.387-.48,5.65,5.65,0,0,0-2.422.656l-.4-.992a6.094,6.094,0,0,1,1.387-.539,6.006,6.006,0,0,1,1.512-.2,3.262,3.262,0,0,1,2.27.68,2.837,2.837,0,0,1,.738,2.18V17Zm-2.93-.914a2.632,2.632,0,0,0,1.9-.664,2.457,2.457,0,0,0,.691-1.859v-.773l-1.3.055a4.717,4.717,0,0,0-2.23.48,1.449,1.449,0,0,0-.684,1.324,1.336,1.336,0,0,0,.426,1.07A1.767,1.767,0,0,0,221.133,16.086Zm10.469-7.8a5.075,5.075,0,0,1,1.023.094l-.18,1.2a4.418,4.418,0,0,0-.937-.117,2.282,2.282,0,0,0-1.777.844,3.077,3.077,0,0,0-.738,2.1V17h-1.3V8.438h1.07l.148,1.586h.063a3.764,3.764,0,0,1,1.148-1.289A2.585,2.585,0,0,1,231.6,8.281ZM243.648,17l-.258-1.219h-.062a3.6,3.6,0,0,1-1.277,1.09,3.893,3.893,0,0,1-1.59.285,2.86,2.86,0,0,1-2-.656,2.394,2.394,0,0,1-.723-1.867q0-2.594,4.148-2.719l1.453-.047v-.531a2.171,2.171,0,0,0-.434-1.488,1.783,1.783,0,0,0-1.387-.48,5.65,5.65,0,0,0-2.422.656l-.4-.992a6.094,6.094,0,0,1,1.387-.539,6.006,6.006,0,0,1,1.512-.2,3.262,3.262,0,0,1,2.27.68,2.837,2.837,0,0,1,.738,2.18V17Zm-2.93-.914a2.632,2.632,0,0,0,1.9-.664,2.457,2.457,0,0,0,.691-1.859v-.773l-1.3.055a4.717,4.717,0,0,0-2.23.48,1.449,1.449,0,0,0-.684,1.324,1.336,1.336,0,0,0,.426,1.07A1.767,1.767,0,0,0,240.719,16.086ZM252.734,17h-1.3V4.844h1.3Zm8.016,0-.258-1.219h-.062a3.6,3.6,0,0,1-1.277,1.09,3.893,3.893,0,0,1-1.59.285,2.86,2.86,0,0,1-2-.656,2.394,2.394,0,0,1-.723-1.867q0-2.594,4.148-2.719l1.453-.047v-.531a2.171,2.171,0,0,0-.434-1.488,1.783,1.783,0,0,0-1.387-.48,5.65,5.65,0,0,0-2.422.656l-.4-.992a6.094,6.094,0,0,1,1.387-.539,6.006,6.006,0,0,1,1.512-.2,3.262,3.262,0,0,1,2.27.68,2.837,2.837,0,0,1,.738,2.18V17Zm-2.93-.914a2.632,2.632,0,0,0,1.9-.664,2.457,2.457,0,0,0,.691-1.859v-.773l-1.3.055a4.717,4.717,0,0,0-2.23.48,1.449,1.449,0,0,0-.684,1.324,1.336,1.336,0,0,0,.426,1.07A1.767,1.767,0,0,0,257.82,16.086ZM274.4,17V11.461a2.235,2.235,0,0,0-.477-1.562,1.941,1.941,0,0,0-1.492-.516,2.461,2.461,0,0,0-1.969.727,3.668,3.668,0,0,0-.625,2.4V17h-1.3V8.438h1.055l.211,1.172h.063a2.648,2.648,0,0,1,1.117-.98,3.63,3.63,0,0,1,1.6-.348,3.252,3.252,0,0,1,2.328.746,3.175,3.175,0,0,1,.781,2.387V17Zm5.18-8.562v5.555a2.235,2.235,0,0,0,.477,1.563,1.941,1.941,0,0,0,1.492.516,2.435,2.435,0,0,0,1.965-.734,3.7,3.7,0,0,0,.621-2.4v-4.5h1.3V17h-1.07l-.187-1.148h-.07A2.585,2.585,0,0,1,283,16.82a3.716,3.716,0,0,1-1.613.336,3.273,3.273,0,0,1-2.34-.742,3.159,3.159,0,0,1-.777-2.375v-5.6ZM291.8,17.156a3.934,3.934,0,0,1-3-1.156,4.476,4.476,0,0,1-1.1-3.211,4.964,4.964,0,0,1,1.02-3.289,3.387,3.387,0,0,1,2.738-1.219,3.229,3.229,0,0,1,2.547,1.059,4.057,4.057,0,0,1,.938,2.793v.82h-5.9a3.394,3.394,0,0,0,.762,2.289,2.635,2.635,0,0,0,2.035.781,6.9,6.9,0,0,0,2.734-.578V16.6a6.864,6.864,0,0,1-1.3.426A7.31,7.31,0,0,1,291.8,17.156Zm-.352-7.789a2.118,2.118,0,0,0-1.645.672,3.1,3.1,0,0,0-.723,1.859h4.477a2.851,2.851,0,0,0-.547-1.879A1.925,1.925,0,0,0,291.445,9.367ZM299.031,17l-3.25-8.562h1.391l1.844,5.078a24.035,24.035,0,0,1,.734,2.313h.063a17.464,17.464,0,0,1,.543-1.715q.457-1.3,2.051-5.676H303.8L300.547,17Zm11.406,0-.258-1.219h-.062a3.6,3.6,0,0,1-1.277,1.09,3.893,3.893,0,0,1-1.59.285,2.86,2.86,0,0,1-2-.656,2.394,2.394,0,0,1-.723-1.867q0-2.594,4.148-2.719l1.453-.047v-.531a2.171,2.171,0,0,0-.434-1.488,1.783,1.783,0,0,0-1.387-.48,5.65,5.65,0,0,0-2.422.656l-.4-.992a6.094,6.094,0,0,1,1.387-.539,6.006,6.006,0,0,1,1.512-.2,3.262,3.262,0,0,1,2.27.68,2.837,2.837,0,0,1,.738,2.18V17Zm-2.93-.914a2.632,2.632,0,0,0,1.9-.664,2.457,2.457,0,0,0,.691-1.859v-.773l-1.3.055a4.717,4.717,0,0,0-2.23.48,1.449,1.449,0,0,0-.684,1.324,1.336,1.336,0,0,0,.426,1.07A1.767,1.767,0,0,0,307.508,16.086ZM26.922,39.156a3.654,3.654,0,0,1-2.879-1.145,4.707,4.707,0,0,1-1.02-3.238,4.853,4.853,0,0,1,1.035-3.32,3.727,3.727,0,0,1,2.949-1.172,5.852,5.852,0,0,1,1.234.133,4.066,4.066,0,0,1,.969.313l-.4,1.1a6.1,6.1,0,0,0-.937-.285,4.186,4.186,0,0,0-.9-.113q-2.609,0-2.609,3.328A3.963,3.963,0,0,0,25,37.18a2.215,2.215,0,0,0,1.887.844,5.769,5.769,0,0,0,2.2-.461v1.148A4.679,4.679,0,0,1,26.922,39.156Zm11.586-4.445a4.724,4.724,0,0,1-1.055,3.27,3.714,3.714,0,0,1-2.914,1.176,3.86,3.86,0,0,1-2.039-.539,3.558,3.558,0,0,1-1.375-1.547,5.391,5.391,0,0,1-.484-2.359,4.716,4.716,0,0,1,1.047-3.262,3.7,3.7,0,0,1,2.906-1.168,3.622,3.622,0,0,1,2.855,1.2A4.7,4.7,0,0,1,38.508,34.711Zm-6.523,0a4.064,4.064,0,0,0,.656,2.5,2.6,2.6,0,0,0,3.863,0,4.043,4.043,0,0,0,.66-2.5,3.978,3.978,0,0,0-.66-2.48,2.32,2.32,0,0,0-1.949-.848,2.283,2.283,0,0,0-1.922.836A4.023,4.023,0,0,0,31.984,34.711ZM42.078,39h-1.3V26.844h1.3Zm6.367.156a3.934,3.934,0,0,1-3-1.156,4.476,4.476,0,0,1-1.1-3.211,4.964,4.964,0,0,1,1.02-3.289,3.387,3.387,0,0,1,2.738-1.219,3.229,3.229,0,0,1,2.547,1.059,4.057,4.057,0,0,1,.938,2.793v.82H45.7a3.394,3.394,0,0,0,.762,2.289,2.635,2.635,0,0,0,2.035.781,6.9,6.9,0,0,0,2.734-.578V38.6a6.863,6.863,0,0,1-1.3.426A7.31,7.31,0,0,1,48.445,39.156Zm-.352-7.789a2.118,2.118,0,0,0-1.645.672,3.1,3.1,0,0,0-.723,1.859H50.2a2.851,2.851,0,0,0-.547-1.879A1.925,1.925,0,0,0,48.094,31.367Zm9.133,7.789a3.654,3.654,0,0,1-2.879-1.145,4.707,4.707,0,0,1-1.02-3.238,4.853,4.853,0,0,1,1.035-3.32,3.727,3.727,0,0,1,2.949-1.172,5.852,5.852,0,0,1,1.234.133,4.066,4.066,0,0,1,.969.313l-.4,1.1a6.1,6.1,0,0,0-.937-.285,4.186,4.186,0,0,0-.9-.113q-2.609,0-2.609,3.328a3.963,3.963,0,0,0,.637,2.422,2.215,2.215,0,0,0,1.887.844,5.769,5.769,0,0,0,2.2-.461v1.148A4.679,4.679,0,0,1,57.227,39.156Zm7.617,0a3.654,3.654,0,0,1-2.879-1.145,4.707,4.707,0,0,1-1.02-3.238,4.853,4.853,0,0,1,1.035-3.32,3.727,3.727,0,0,1,2.949-1.172,5.852,5.852,0,0,1,1.234.133,4.066,4.066,0,0,1,.969.313l-.4,1.1a6.1,6.1,0,0,0-.937-.285,4.186,4.186,0,0,0-.9-.113q-2.609,0-2.609,3.328a3.963,3.963,0,0,0,.637,2.422,2.215,2.215,0,0,0,1.887.844,5.769,5.769,0,0,0,2.2-.461v1.148A4.679,4.679,0,0,1,64.844,39.156ZM70.336,39h-1.3V30.438h1.3ZM68.93,28.117a.861.861,0,0,1,.219-.652.81.81,0,0,1,1.086,0,.846.846,0,0,1,.227.648.859.859,0,0,1-.227.652.794.794,0,0,1-1.086,0A.877.877,0,0,1,68.93,28.117Zm11.547,6.594a4.724,4.724,0,0,1-1.055,3.27,3.714,3.714,0,0,1-2.914,1.176,3.86,3.86,0,0,1-2.039-.539,3.558,3.558,0,0,1-1.375-1.547,5.391,5.391,0,0,1-.484-2.359,4.716,4.716,0,0,1,1.047-3.262,3.7,3.7,0,0,1,2.906-1.168,3.622,3.622,0,0,1,2.855,1.2A4.7,4.7,0,0,1,80.477,34.711Zm-6.523,0a4.064,4.064,0,0,0,.656,2.5,2.6,2.6,0,0,0,3.863,0,4.043,4.043,0,0,0,.66-2.5,3.978,3.978,0,0,0-.66-2.48,2.32,2.32,0,0,0-1.949-.848,2.283,2.283,0,0,0-1.922.836A4.023,4.023,0,0,0,73.953,34.711Zm1.5-5.6q.375-.484.809-1.172a13.411,13.411,0,0,0,.684-1.2h1.578v.164a14.473,14.473,0,0,1-2.2,2.4h-.867ZM88.609,39V33.461a2.235,2.235,0,0,0-.477-1.562,1.941,1.941,0,0,0-1.492-.516,2.461,2.461,0,0,0-1.969.727,3.668,3.668,0,0,0-.625,2.4V39h-1.3V30.438H83.8l.211,1.172h.063a2.648,2.648,0,0,1,1.117-.98,3.63,3.63,0,0,1,1.6-.348,3.252,3.252,0,0,1,2.328.746,3.175,3.175,0,0,1,.781,2.387V39Zm11.734.156a3.934,3.934,0,0,1-3-1.156,4.476,4.476,0,0,1-1.1-3.211A4.964,4.964,0,0,1,97.27,31.5a3.387,3.387,0,0,1,2.738-1.219,3.229,3.229,0,0,1,2.547,1.059,4.057,4.057,0,0,1,.938,2.793v.82h-5.9a3.394,3.394,0,0,0,.762,2.289,2.635,2.635,0,0,0,2.035.781,6.9,6.9,0,0,0,2.734-.578V38.6a6.863,6.863,0,0,1-1.3.426A7.31,7.31,0,0,1,100.344,39.156Zm-.352-7.789a2.118,2.118,0,0,0-1.645.672,3.1,3.1,0,0,0-.723,1.859H102.1a2.851,2.851,0,0,0-.547-1.879A1.925,1.925,0,0,0,99.992,31.367ZM111.563,39V33.461a2.235,2.235,0,0,0-.477-1.562,1.941,1.941,0,0,0-1.492-.516,2.461,2.461,0,0,0-1.969.727,3.668,3.668,0,0,0-.625,2.4V39h-1.3V30.438h1.055l.211,1.172h.063a2.648,2.648,0,0,1,1.117-.98,3.63,3.63,0,0,1,1.6-.348,3.252,3.252,0,0,1,2.328.746,3.175,3.175,0,0,1,.781,2.387V39Zm11.539.156a3.654,3.654,0,0,1-2.879-1.145,4.707,4.707,0,0,1-1.02-3.238,4.853,4.853,0,0,1,1.035-3.32,3.727,3.727,0,0,1,2.949-1.172,5.852,5.852,0,0,1,1.234.133,4.066,4.066,0,0,1,.969.313l-.4,1.1a6.1,6.1,0,0,0-.937-.285,4.186,4.186,0,0,0-.9-.113q-2.609,0-2.609,3.328a3.963,3.963,0,0,0,.637,2.422,2.215,2.215,0,0,0,1.887.844,5.769,5.769,0,0,0,2.2-.461v1.148A4.679,4.679,0,0,1,123.1,39.156Zm5.414-8.719v5.555a2.235,2.235,0,0,0,.477,1.563,1.941,1.941,0,0,0,1.492.516,2.435,2.435,0,0,0,1.965-.734,3.7,3.7,0,0,0,.621-2.4v-4.5h1.3V39H133.3l-.187-1.148h-.07a2.585,2.585,0,0,1-1.105.969,3.716,3.716,0,0,1-1.613.336,3.273,3.273,0,0,1-2.34-.742,3.159,3.159,0,0,1-.777-2.375v-5.6ZM142.383,39l-.258-1.219h-.062a3.6,3.6,0,0,1-1.277,1.09,3.893,3.893,0,0,1-1.59.285,2.86,2.86,0,0,1-2-.656,2.394,2.394,0,0,1-.723-1.867q0-2.594,4.148-2.719l1.453-.047v-.531a2.171,2.171,0,0,0-.434-1.488,1.783,1.783,0,0,0-1.387-.48,5.65,5.65,0,0,0-2.422.656l-.4-.992a6.094,6.094,0,0,1,1.387-.539,6.006,6.006,0,0,1,1.512-.2,3.262,3.262,0,0,1,2.27.68,2.837,2.837,0,0,1,.738,2.18V39Zm-2.93-.914a2.632,2.632,0,0,0,1.9-.664,2.457,2.457,0,0,0,.691-1.859v-.773l-1.3.055a4.717,4.717,0,0,0-2.23.48,1.449,1.449,0,0,0-.684,1.324,1.336,1.336,0,0,0,.426,1.07A1.767,1.767,0,0,0,139.453,38.086ZM151.875,39V33.461A2.235,2.235,0,0,0,151.4,31.9a1.941,1.941,0,0,0-1.492-.516,2.461,2.461,0,0,0-1.969.727,3.668,3.668,0,0,0-.625,2.4V39h-1.3V30.438h1.055l.211,1.172h.063a2.648,2.648,0,0,1,1.117-.98,3.63,3.63,0,0,1,1.6-.348,3.252,3.252,0,0,1,2.328.746,3.175,3.175,0,0,1,.781,2.387V39Zm6.727-.914a4.236,4.236,0,0,0,.664-.051,4.3,4.3,0,0,0,.508-.105v.992a2.371,2.371,0,0,1-.621.168,4.664,4.664,0,0,1-.738.066q-2.484,0-2.484-2.617V31.445H154.7V30.82l1.227-.539.547-1.828h.75v1.984h2.484v1.008h-2.484v5.039a1.733,1.733,0,0,0,.367,1.188A1.278,1.278,0,0,0,158.6,38.086Zm10.273-3.375a4.724,4.724,0,0,1-1.055,3.27,3.714,3.714,0,0,1-2.914,1.176,3.86,3.86,0,0,1-2.039-.539,3.558,3.558,0,0,1-1.375-1.547,5.391,5.391,0,0,1-.484-2.359,4.716,4.716,0,0,1,1.047-3.262,3.7,3.7,0,0,1,2.906-1.168,3.622,3.622,0,0,1,2.855,1.2A4.7,4.7,0,0,1,168.875,34.711Zm-6.523,0a4.064,4.064,0,0,0,.656,2.5,2.6,2.6,0,0,0,3.863,0,4.043,4.043,0,0,0,.66-2.5,3.978,3.978,0,0,0-.66-2.48,2.32,2.32,0,0,0-1.949-.848,2.283,2.283,0,0,0-1.922.836A4.023,4.023,0,0,0,162.352,34.711ZM180.57,39l-.258-1.219h-.062a3.6,3.6,0,0,1-1.277,1.09,3.893,3.893,0,0,1-1.59.285,2.86,2.86,0,0,1-2-.656,2.394,2.394,0,0,1-.723-1.867q0-2.594,4.148-2.719l1.453-.047v-.531a2.171,2.171,0,0,0-.434-1.488,1.783,1.783,0,0,0-1.387-.48,5.65,5.65,0,0,0-2.422.656l-.4-.992a6.094,6.094,0,0,1,1.387-.539,6.006,6.006,0,0,1,1.512-.2,3.262,3.262,0,0,1,2.27.68,2.837,2.837,0,0,1,.738,2.18V39Zm-2.93-.914a2.632,2.632,0,0,0,1.9-.664,2.457,2.457,0,0,0,.691-1.859v-.773l-1.3.055a4.717,4.717,0,0,0-2.23.48,1.449,1.449,0,0,0-.684,1.324,1.336,1.336,0,0,0,.426,1.07A1.767,1.767,0,0,0,177.641,38.086Zm16.242-1.422a2.145,2.145,0,0,1-.891,1.844,4.186,4.186,0,0,1-2.5.648,5.436,5.436,0,0,1-2.656-.539v-1.2a6.424,6.424,0,0,0,1.324.492,5.53,5.53,0,0,0,1.363.18,3.092,3.092,0,0,0,1.563-.324,1.116,1.116,0,0,0,.113-1.844,6.82,6.82,0,0,0-1.691-.84,9.172,9.172,0,0,1-1.7-.777,2.321,2.321,0,0,1-.75-.754,1.966,1.966,0,0,1-.246-1.008,1.921,1.921,0,0,1,.852-1.652A3.968,3.968,0,0,1,191,30.281a6.835,6.835,0,0,1,2.7.563l-.461,1.055a6.2,6.2,0,0,0-2.336-.531,2.688,2.688,0,0,0-1.391.289.894.894,0,0,0-.469.8.971.971,0,0,0,.176.586,1.735,1.735,0,0,0,.566.461,12.659,12.659,0,0,0,1.5.633,5.6,5.6,0,0,1,2.059,1.117A1.97,1.97,0,0,1,193.883,36.664ZM197.289,39h-1.3V30.438h1.3Zm-1.406-10.883a.861.861,0,0,1,.219-.652.81.81,0,0,1,1.086,0,.846.846,0,0,1,.227.648.859.859,0,0,1-.227.652.794.794,0,0,1-1.086,0A.877.877,0,0,1,195.883,28.117ZM201.336,39h-1.3V26.844h1.3Zm3.969-8.562v5.555a2.235,2.235,0,0,0,.477,1.563,1.941,1.941,0,0,0,1.492.516,2.435,2.435,0,0,0,1.965-.734,3.7,3.7,0,0,0,.621-2.4v-4.5h1.3V39h-1.07l-.187-1.148h-.07a2.585,2.585,0,0,1-1.105.969,3.716,3.716,0,0,1-1.613.336,3.273,3.273,0,0,1-2.34-.742,3.159,3.159,0,0,1-.777-2.375v-5.6Zm12.219,8.719a3.934,3.934,0,0,1-3-1.156,4.476,4.476,0,0,1-1.1-3.211,4.964,4.964,0,0,1,1.02-3.289,3.387,3.387,0,0,1,2.738-1.219,3.229,3.229,0,0,1,2.547,1.059,4.057,4.057,0,0,1,.938,2.793v.82h-5.9a3.394,3.394,0,0,0,.762,2.289,2.634,2.634,0,0,0,2.035.781,6.9,6.9,0,0,0,2.734-.578V38.6a6.863,6.863,0,0,1-1.3.426A7.31,7.31,0,0,1,217.523,39.156Zm-.352-7.789a2.118,2.118,0,0,0-1.645.672A3.1,3.1,0,0,0,214.8,33.9h4.477a2.851,2.851,0,0,0-.547-1.879A1.925,1.925,0,0,0,217.172,31.367Zm8.477,6.719a4.236,4.236,0,0,0,.664-.051,4.3,4.3,0,0,0,.508-.105v.992a2.371,2.371,0,0,1-.621.168,4.664,4.664,0,0,1-.738.066q-2.484,0-2.484-2.617V31.445H221.75V30.82l1.227-.539.547-1.828h.75v1.984h2.484v1.008h-2.484v5.039a1.733,1.733,0,0,0,.367,1.188A1.278,1.278,0,0,0,225.648,38.086ZM233.8,39l-.258-1.219h-.062a3.6,3.6,0,0,1-1.277,1.09,3.893,3.893,0,0,1-1.59.285,2.86,2.86,0,0,1-2-.656,2.394,2.394,0,0,1-.723-1.867q0-2.594,4.148-2.719l1.453-.047v-.531a2.171,2.171,0,0,0-.434-1.488,1.783,1.783,0,0,0-1.387-.48,5.65,5.65,0,0,0-2.422.656l-.4-.992a6.094,6.094,0,0,1,1.387-.539,6.006,6.006,0,0,1,1.512-.2,3.262,3.262,0,0,1,2.27.68,2.837,2.837,0,0,1,.738,2.18V39Zm-2.93-.914a2.632,2.632,0,0,0,1.9-.664,2.457,2.457,0,0,0,.691-1.859v-.773l-1.3.055a4.717,4.717,0,0,0-2.23.48,1.449,1.449,0,0,0-.684,1.324,1.336,1.336,0,0,0,.426,1.07A1.767,1.767,0,0,0,230.867,38.086Zm7.922-.945.117.18q-.2.781-.586,1.816t-.8,1.926h-.977q.211-.813.465-2.008t.355-1.914Zm9.484.945a4.236,4.236,0,0,0,.664-.051,4.3,4.3,0,0,0,.508-.105v.992a2.371,2.371,0,0,1-.621.168,4.664,4.664,0,0,1-.738.066q-2.484,0-2.484-2.617V31.445h-1.227V30.82l1.227-.539.547-1.828h.75v1.984h2.484v1.008H246.9v5.039a1.733,1.733,0,0,0,.367,1.188A1.278,1.278,0,0,0,248.273,38.086Zm6.5,1.07a3.934,3.934,0,0,1-3-1.156,4.476,4.476,0,0,1-1.1-3.211A4.964,4.964,0,0,1,251.7,31.5a3.387,3.387,0,0,1,2.738-1.219,3.229,3.229,0,0,1,2.547,1.059,4.057,4.057,0,0,1,.938,2.793v.82h-5.9a3.394,3.394,0,0,0,.762,2.289,2.634,2.634,0,0,0,2.035.781,6.9,6.9,0,0,0,2.734-.578V38.6a6.863,6.863,0,0,1-1.3.426A7.31,7.31,0,0,1,254.773,39.156Zm-.352-7.789a2.118,2.118,0,0,0-1.645.672,3.1,3.1,0,0,0-.723,1.859h4.477a2.851,2.851,0,0,0-.547-1.879A1.925,1.925,0,0,0,254.422,31.367Zm4.672,11.477a3.121,3.121,0,0,1-1.2-.2V41.594a3.8,3.8,0,0,0,1.063.156,1.117,1.117,0,0,0,.895-.332,1.523,1.523,0,0,0,.285-1.012V30.438h1.3v9.875Q261.43,42.844,259.094,42.844Zm.93-14.727a.861.861,0,0,1,.219-.652.81.81,0,0,1,1.086,0,.846.846,0,0,1,.227.648.859.859,0,0,1-.227.652.794.794,0,0,1-1.086,0A.877.877,0,0,1,260.023,28.117ZM265.477,39h-1.3V30.438h1.3ZM264.07,28.117a.861.861,0,0,1,.219-.652.81.81,0,0,1,1.086,0,.846.846,0,0,1,.227.648.859.859,0,0,1-.227.652.794.794,0,0,1-1.086,0A.877.877,0,0,1,264.07,28.117Zm9.984,9.734h-.07a3.047,3.047,0,0,1-2.687,1.3,3.179,3.179,0,0,1-2.613-1.148,5.055,5.055,0,0,1-.934-3.266,5.141,5.141,0,0,1,.938-3.289,3.155,3.155,0,0,1,2.609-1.172,3.114,3.114,0,0,1,2.672,1.266h.1l-.055-.617-.031-.6V26.844h1.3V39h-1.055Zm-2.594.219a2.361,2.361,0,0,0,1.926-.723,3.652,3.652,0,0,0,.6-2.332v-.273a4.3,4.3,0,0,0-.605-2.6,2.3,2.3,0,0,0-1.934-.777,1.985,1.985,0,0,0-1.746.887,4.409,4.409,0,0,0-.605,2.5,4.227,4.227,0,0,0,.6,2.477A2.037,2.037,0,0,0,271.461,38.07Zm13.961-3.359a4.724,4.724,0,0,1-1.055,3.27,3.714,3.714,0,0,1-2.914,1.176,3.86,3.86,0,0,1-2.039-.539,3.558,3.558,0,0,1-1.375-1.547,5.391,5.391,0,0,1-.484-2.359,4.716,4.716,0,0,1,1.047-3.262,3.7,3.7,0,0,1,2.906-1.168,3.622,3.622,0,0,1,2.855,1.2A4.7,4.7,0,0,1,285.422,34.711Zm-6.523,0a4.064,4.064,0,0,0,.656,2.5,2.6,2.6,0,0,0,3.863,0,4.044,4.044,0,0,0,.66-2.5,3.978,3.978,0,0,0-.66-2.48,2.32,2.32,0,0,0-1.949-.848,2.283,2.283,0,0,0-1.922.836A4.023,4.023,0,0,0,278.9,34.711Zm14.32,1.953a2.145,2.145,0,0,1-.891,1.844,4.186,4.186,0,0,1-2.5.648,5.436,5.436,0,0,1-2.656-.539v-1.2a6.424,6.424,0,0,0,1.324.492,5.53,5.53,0,0,0,1.363.18,3.092,3.092,0,0,0,1.563-.324,1.116,1.116,0,0,0,.113-1.844,6.821,6.821,0,0,0-1.691-.84,9.172,9.172,0,0,1-1.7-.777,2.321,2.321,0,0,1-.75-.754,1.966,1.966,0,0,1-.246-1.008A1.921,1.921,0,0,1,288,30.887a3.968,3.968,0,0,1,2.336-.605,6.835,6.835,0,0,1,2.7.563l-.461,1.055a6.2,6.2,0,0,0-2.336-.531,2.687,2.687,0,0,0-1.391.289.894.894,0,0,0-.469.8.971.971,0,0,0,.176.586,1.735,1.735,0,0,0,.566.461,12.657,12.657,0,0,0,1.5.633,5.6,5.6,0,0,1,2.059,1.117A1.97,1.97,0,0,1,293.219,36.664Zm3.469.477.117.18q-.2.781-.586,1.816t-.8,1.926h-.977q.211-.813.465-2.008t.355-1.914ZM16.52,61.156a3.654,3.654,0,0,1-2.879-1.145,4.707,4.707,0,0,1-1.02-3.238,4.853,4.853,0,0,1,1.035-3.32,3.727,3.727,0,0,1,2.949-1.172,5.852,5.852,0,0,1,1.234.133,4.066,4.066,0,0,1,.969.313l-.4,1.1a6.1,6.1,0,0,0-.937-.285,4.186,4.186,0,0,0-.9-.113q-2.609,0-2.609,3.328A3.963,3.963,0,0,0,14.6,59.18a2.215,2.215,0,0,0,1.887.844,5.769,5.769,0,0,0,2.2-.461v1.148A4.679,4.679,0,0,1,16.52,61.156Zm11.586-4.445a4.724,4.724,0,0,1-1.055,3.27,3.714,3.714,0,0,1-2.914,1.176,3.86,3.86,0,0,1-2.039-.539,3.558,3.558,0,0,1-1.375-1.547,5.391,5.391,0,0,1-.484-2.359,4.716,4.716,0,0,1,1.047-3.262,3.7,3.7,0,0,1,2.906-1.168,3.622,3.622,0,0,1,2.855,1.2A4.7,4.7,0,0,1,28.105,56.711Zm-6.523,0a4.064,4.064,0,0,0,.656,2.5,2.278,2.278,0,0,0,1.93.859,2.293,2.293,0,0,0,1.934-.855,4.043,4.043,0,0,0,.66-2.5,3.978,3.978,0,0,0-.66-2.48,2.32,2.32,0,0,0-1.949-.848,2.283,2.283,0,0,0-1.922.836A4.023,4.023,0,0,0,21.582,56.711ZM31.676,61h-1.3V48.844h1.3Zm10.141-4.289a4.724,4.724,0,0,1-1.055,3.27,3.714,3.714,0,0,1-2.914,1.176,3.86,3.86,0,0,1-2.039-.539,3.558,3.558,0,0,1-1.375-1.547,5.391,5.391,0,0,1-.484-2.359A4.716,4.716,0,0,1,35,53.449,3.7,3.7,0,0,1,37.9,52.281a3.622,3.622,0,0,1,2.855,1.2A4.7,4.7,0,0,1,41.816,56.711Zm-6.523,0a4.064,4.064,0,0,0,.656,2.5,2.6,2.6,0,0,0,3.863,0,4.043,4.043,0,0,0,.66-2.5,3.978,3.978,0,0,0-.66-2.48,2.32,2.32,0,0,0-1.949-.848,2.283,2.283,0,0,0-1.922.836A4.023,4.023,0,0,0,35.293,56.711ZM48,52.281a5.075,5.075,0,0,1,1.023.094l-.18,1.2a4.418,4.418,0,0,0-.937-.117,2.282,2.282,0,0,0-1.777.844,3.077,3.077,0,0,0-.738,2.1V61h-1.3V52.438h1.07l.148,1.586h.063a3.764,3.764,0,0,1,1.148-1.289A2.585,2.585,0,0,1,48,52.281Zm6.242,8.875a3.934,3.934,0,0,1-3-1.156,4.476,4.476,0,0,1-1.1-3.211,4.964,4.964,0,0,1,1.02-3.289A3.387,3.387,0,0,1,53.9,52.281a3.229,3.229,0,0,1,2.547,1.059,4.057,4.057,0,0,1,.938,2.793v.82h-5.9a3.394,3.394,0,0,0,.762,2.289,2.635,2.635,0,0,0,2.035.781,6.9,6.9,0,0,0,2.734-.578V60.6a6.863,6.863,0,0,1-1.3.426A7.31,7.31,0,0,1,54.238,61.156Zm-.352-7.789a2.118,2.118,0,0,0-1.645.672A3.1,3.1,0,0,0,51.52,55.9H56a2.851,2.851,0,0,0-.547-1.879A1.925,1.925,0,0,0,53.887,53.367Zm11.234,5.3a2.145,2.145,0,0,1-.891,1.844,4.186,4.186,0,0,1-2.5.648,5.436,5.436,0,0,1-2.656-.539v-1.2a6.424,6.424,0,0,0,1.324.492,5.53,5.53,0,0,0,1.363.18,3.092,3.092,0,0,0,1.563-.324,1.116,1.116,0,0,0,.113-1.844,6.82,6.82,0,0,0-1.691-.84,9.172,9.172,0,0,1-1.7-.777,2.321,2.321,0,0,1-.75-.754,1.966,1.966,0,0,1-.246-1.008,1.921,1.921,0,0,1,.852-1.652,3.968,3.968,0,0,1,2.336-.605,6.835,6.835,0,0,1,2.7.563L64.48,53.9a6.2,6.2,0,0,0-2.336-.531,2.688,2.688,0,0,0-1.391.289.894.894,0,0,0-.469.8.971.971,0,0,0,.176.586,1.735,1.735,0,0,0,.566.461,12.658,12.658,0,0,0,1.5.633,5.6,5.6,0,0,1,2.059,1.117A1.97,1.97,0,0,1,65.121,58.664Zm3.469.477.117.18q-.2.781-.586,1.816t-.8,1.926h-.977q.211-.813.465-2.008t.355-1.914Zm9.484.945a4.236,4.236,0,0,0,.664-.051,4.3,4.3,0,0,0,.508-.105v.992a2.371,2.371,0,0,1-.621.168,4.664,4.664,0,0,1-.738.066q-2.484,0-2.484-2.617V53.445H74.176V52.82l1.227-.539.547-1.828h.75v1.984h2.484v1.008H76.7v5.039a1.734,1.734,0,0,0,.367,1.188A1.278,1.278,0,0,0,78.074,60.086Zm6.5,1.07a3.934,3.934,0,0,1-3-1.156,4.476,4.476,0,0,1-1.1-3.211A4.964,4.964,0,0,1,81.5,53.5a3.387,3.387,0,0,1,2.738-1.219,3.229,3.229,0,0,1,2.547,1.059,4.057,4.057,0,0,1,.938,2.793v.82h-5.9a3.394,3.394,0,0,0,.762,2.289,2.635,2.635,0,0,0,2.035.781,6.9,6.9,0,0,0,2.734-.578V60.6a6.863,6.863,0,0,1-1.3.426A7.31,7.31,0,0,1,84.574,61.156Zm-.352-7.789a2.118,2.118,0,0,0-1.645.672,3.1,3.1,0,0,0-.723,1.859h4.477a2.851,2.851,0,0,0-.547-1.879A1.925,1.925,0,0,0,84.223,53.367ZM92,56.617l-2.977-4.18H90.5l2.258,3.281L95,52.438h1.461l-2.977,4.18L96.621,61H95.152l-2.4-3.469L90.332,61H88.863Zm9.086,3.469a4.236,4.236,0,0,0,.664-.051,4.3,4.3,0,0,0,.508-.105v.992a2.371,2.371,0,0,1-.621.168,4.664,4.664,0,0,1-.738.066q-2.484,0-2.484-2.617V53.445H97.184V52.82l1.227-.539.547-1.828h.75v1.984h2.484v1.008H99.707v5.039a1.734,1.734,0,0,0,.367,1.188A1.278,1.278,0,0,0,101.082,60.086Zm4.1-7.648v5.555a2.235,2.235,0,0,0,.477,1.563,1.941,1.941,0,0,0,1.492.516,2.435,2.435,0,0,0,1.965-.734,3.7,3.7,0,0,0,.621-2.4v-4.5h1.3V61h-1.07l-.187-1.148h-.07a2.585,2.585,0,0,1-1.105.969,3.716,3.716,0,0,1-1.613.336,3.273,3.273,0,0,1-2.34-.742,3.159,3.159,0,0,1-.777-2.375v-5.6Zm12.508-.156a5.075,5.075,0,0,1,1.023.094l-.18,1.2a4.418,4.418,0,0,0-.937-.117,2.282,2.282,0,0,0-1.777.844,3.077,3.077,0,0,0-.738,2.1V61h-1.3V52.438h1.07L115,54.023h.063a3.764,3.764,0,0,1,1.148-1.289A2.585,2.585,0,0,1,117.691,52.281ZM125.582,61l-.258-1.219h-.062a3.6,3.6,0,0,1-1.277,1.09,3.893,3.893,0,0,1-1.59.285,2.86,2.86,0,0,1-2-.656,2.394,2.394,0,0,1-.723-1.867q0-2.594,4.148-2.719l1.453-.047v-.531a2.171,2.171,0,0,0-.434-1.488,1.783,1.783,0,0,0-1.387-.48,5.65,5.65,0,0,0-2.422.656l-.4-.992a6.094,6.094,0,0,1,1.387-.539,6.006,6.006,0,0,1,1.512-.2,3.262,3.262,0,0,1,2.27.68,2.837,2.837,0,0,1,.738,2.18V61Zm-2.93-.914a2.632,2.632,0,0,0,1.9-.664,2.457,2.457,0,0,0,.691-1.859v-.773l-1.3.055a4.717,4.717,0,0,0-2.23.48,1.449,1.449,0,0,0-.684,1.324,1.336,1.336,0,0,0,.426,1.07A1.767,1.767,0,0,0,122.652,60.086Zm12.086-1.422a2.145,2.145,0,0,1-.891,1.844,4.186,4.186,0,0,1-2.5.648,5.436,5.436,0,0,1-2.656-.539v-1.2a6.424,6.424,0,0,0,1.324.492,5.53,5.53,0,0,0,1.363.18,3.092,3.092,0,0,0,1.563-.324,1.116,1.116,0,0,0,.113-1.844,6.82,6.82,0,0,0-1.691-.84,9.172,9.172,0,0,1-1.7-.777,2.321,2.321,0,0,1-.75-.754,1.966,1.966,0,0,1-.246-1.008,1.921,1.921,0,0,1,.852-1.652,3.968,3.968,0,0,1,2.336-.605,6.835,6.835,0,0,1,2.7.563L134.1,53.9a6.2,6.2,0,0,0-2.336-.531,2.688,2.688,0,0,0-1.391.289.894.894,0,0,0-.469.8.971.971,0,0,0,.176.586,1.735,1.735,0,0,0,.566.461,12.659,12.659,0,0,0,1.5.633A5.6,5.6,0,0,1,134.2,57.25,1.97,1.97,0,0,1,134.738,58.664Zm3.469.477.117.18q-.2.781-.586,1.816t-.8,1.926h-.977q.211-.813.465-2.008t.355-1.914Zm12.242-.477a2.145,2.145,0,0,1-.891,1.844,4.186,4.186,0,0,1-2.5.648,5.436,5.436,0,0,1-2.656-.539v-1.2a6.424,6.424,0,0,0,1.324.492,5.53,5.53,0,0,0,1.363.18,3.092,3.092,0,0,0,1.563-.324,1.116,1.116,0,0,0,.113-1.844,6.82,6.82,0,0,0-1.691-.84,9.172,9.172,0,0,1-1.7-.777,2.321,2.321,0,0,1-.75-.754,1.966,1.966,0,0,1-.246-1.008,1.921,1.921,0,0,1,.852-1.652,3.968,3.968,0,0,1,2.336-.605,6.835,6.835,0,0,1,2.7.563l-.461,1.055a6.2,6.2,0,0,0-2.336-.531,2.688,2.688,0,0,0-1.391.289.894.894,0,0,0-.469.8.971.971,0,0,0,.176.586,1.735,1.735,0,0,0,.566.461,12.659,12.659,0,0,0,1.5.633,5.6,5.6,0,0,1,2.059,1.117A1.97,1.97,0,0,1,150.449,58.664Zm9.5-1.953a4.724,4.724,0,0,1-1.055,3.27,3.714,3.714,0,0,1-2.914,1.176,3.86,3.86,0,0,1-2.039-.539,3.558,3.558,0,0,1-1.375-1.547,5.391,5.391,0,0,1-.484-2.359,4.716,4.716,0,0,1,1.047-3.262,3.7,3.7,0,0,1,2.906-1.168,3.622,3.622,0,0,1,2.855,1.2A4.7,4.7,0,0,1,159.949,56.711Zm-6.523,0a4.064,4.064,0,0,0,.656,2.5,2.6,2.6,0,0,0,3.863,0,4.043,4.043,0,0,0,.66-2.5,3.978,3.978,0,0,0-.66-2.48A2.32,2.32,0,0,0,156,53.383a2.283,2.283,0,0,0-1.922.836A4.023,4.023,0,0,0,153.426,56.711ZM168.082,61V55.461a2.235,2.235,0,0,0-.477-1.562,1.941,1.941,0,0,0-1.492-.516,2.461,2.461,0,0,0-1.969.727,3.668,3.668,0,0,0-.625,2.4V61h-1.3V52.438h1.055l.211,1.172h.063a2.648,2.648,0,0,1,1.117-.98,3.63,3.63,0,0,1,1.6-.348,3.252,3.252,0,0,1,2.328.746,3.175,3.175,0,0,1,.781,2.387V61Zm5.258,0h-1.3V52.438h1.3Zm-1.406-10.883a.861.861,0,0,1,.219-.652.81.81,0,0,1,1.086,0,.846.846,0,0,1,.227.648.859.859,0,0,1-.227.652.794.794,0,0,1-1.086,0A.877.877,0,0,1,171.934,50.117Zm9.984,9.734h-.07a3.047,3.047,0,0,1-2.687,1.3,3.179,3.179,0,0,1-2.613-1.148,5.055,5.055,0,0,1-.934-3.266,5.141,5.141,0,0,1,.938-3.289,3.155,3.155,0,0,1,2.609-1.172,3.114,3.114,0,0,1,2.672,1.266h.1l-.055-.617-.031-.6V48.844h1.3V61H182.09Zm-2.594.219a2.361,2.361,0,0,0,1.926-.723,3.652,3.652,0,0,0,.6-2.332v-.273a4.3,4.3,0,0,0-.605-2.6,2.3,2.3,0,0,0-1.934-.777,1.985,1.985,0,0,0-1.746.887,4.409,4.409,0,0,0-.605,2.5,4.227,4.227,0,0,0,.6,2.477A2.037,2.037,0,0,0,179.324,60.07Zm13.961-3.359a4.724,4.724,0,0,1-1.055,3.27,3.714,3.714,0,0,1-2.914,1.176,3.86,3.86,0,0,1-2.039-.539A3.558,3.558,0,0,1,185.9,59.07a5.391,5.391,0,0,1-.484-2.359,4.716,4.716,0,0,1,1.047-3.262,3.7,3.7,0,0,1,2.906-1.168,3.622,3.622,0,0,1,2.855,1.2A4.7,4.7,0,0,1,193.285,56.711Zm-6.523,0a4.064,4.064,0,0,0,.656,2.5,2.6,2.6,0,0,0,3.863,0,4.043,4.043,0,0,0,.66-2.5,3.978,3.978,0,0,0-.66-2.48,2.32,2.32,0,0,0-1.949-.848,2.283,2.283,0,0,0-1.922.836A4.023,4.023,0,0,0,186.762,56.711Zm14.32,1.953a2.145,2.145,0,0,1-.891,1.844,4.186,4.186,0,0,1-2.5.648,5.436,5.436,0,0,1-2.656-.539v-1.2a6.424,6.424,0,0,0,1.324.492,5.53,5.53,0,0,0,1.363.18,3.092,3.092,0,0,0,1.563-.324,1.116,1.116,0,0,0,.113-1.844,6.82,6.82,0,0,0-1.691-.84,9.172,9.172,0,0,1-1.7-.777,2.321,2.321,0,0,1-.75-.754,1.966,1.966,0,0,1-.246-1.008,1.921,1.921,0,0,1,.852-1.652,3.968,3.968,0,0,1,2.336-.605,6.835,6.835,0,0,1,2.7.563l-.461,1.055a6.2,6.2,0,0,0-2.336-.531,2.688,2.688,0,0,0-1.391.289.894.894,0,0,0-.469.8.971.971,0,0,0,.176.586,1.735,1.735,0,0,0,.566.461,12.659,12.659,0,0,0,1.5.633,5.6,5.6,0,0,1,2.059,1.117A1.97,1.97,0,0,1,201.082,58.664Zm3.469.477.117.18q-.2.781-.586,1.816t-.8,1.926h-.977q.211-.813.465-2.008t.355-1.914Zm10.141,2.016a3.654,3.654,0,0,1-2.879-1.145,4.707,4.707,0,0,1-1.02-3.238,4.853,4.853,0,0,1,1.035-3.32,3.727,3.727,0,0,1,2.949-1.172,5.852,5.852,0,0,1,1.234.133,4.066,4.066,0,0,1,.969.313l-.4,1.1a6.1,6.1,0,0,0-.937-.285,4.186,4.186,0,0,0-.9-.113q-2.609,0-2.609,3.328a3.963,3.963,0,0,0,.637,2.422,2.215,2.215,0,0,0,1.887.844,5.769,5.769,0,0,0,2.2-.461v1.148A4.679,4.679,0,0,1,214.691,61.156Zm11.586-4.445a4.724,4.724,0,0,1-1.055,3.27,3.714,3.714,0,0,1-2.914,1.176,3.86,3.86,0,0,1-2.039-.539,3.558,3.558,0,0,1-1.375-1.547,5.391,5.391,0,0,1-.484-2.359,4.716,4.716,0,0,1,1.047-3.262,3.7,3.7,0,0,1,2.906-1.168,3.622,3.622,0,0,1,2.855,1.2A4.7,4.7,0,0,1,226.277,56.711Zm-6.523,0a4.064,4.064,0,0,0,.656,2.5,2.6,2.6,0,0,0,3.863,0,4.043,4.043,0,0,0,.66-2.5,3.978,3.978,0,0,0-.66-2.48,2.32,2.32,0,0,0-1.949-.848,2.283,2.283,0,0,0-1.922.836A4.023,4.023,0,0,0,219.754,56.711ZM239.465,61V55.43a2.312,2.312,0,0,0-.437-1.535,1.692,1.692,0,0,0-1.359-.512,2.195,2.195,0,0,0-1.789.7,3.3,3.3,0,0,0-.578,2.141V61H234V55.43a2.312,2.312,0,0,0-.437-1.535,1.7,1.7,0,0,0-1.367-.512,2.118,2.118,0,0,0-1.785.73,3.953,3.953,0,0,0-.566,2.395V61h-1.3V52.438h1.055l.211,1.172h.063a2.549,2.549,0,0,1,1.035-.977,3.163,3.163,0,0,1,1.5-.352,2.544,2.544,0,0,1,2.625,1.453h.063a2.73,2.73,0,0,1,1.109-1.062,3.442,3.442,0,0,1,1.656-.391,2.9,2.9,0,0,1,2.176.746,3.338,3.338,0,0,1,.723,2.387V61Zm7.953.156a3.705,3.705,0,0,1-1.527-.309,2.872,2.872,0,0,1-1.16-.949h-.094a11.485,11.485,0,0,1,.094,1.422v3.523h-1.3V52.438h1.055l.18,1.172h.063a3.012,3.012,0,0,1,1.164-1.016,3.539,3.539,0,0,1,1.523-.312,3.165,3.165,0,0,1,2.629,1.164,5.125,5.125,0,0,1,.926,3.266,5.1,5.1,0,0,1-.941,3.277A3.17,3.17,0,0,1,247.418,61.156Zm-.187-7.773a2.3,2.3,0,0,0-1.9.727,3.739,3.739,0,0,0-.6,2.313v.289a4.285,4.285,0,0,0,.6,2.582,2.288,2.288,0,0,0,1.93.777,2.007,2.007,0,0,0,1.738-.9,4.26,4.26,0,0,0,.629-2.477A4.1,4.1,0,0,0,249,54.238,2.069,2.069,0,0,0,247.23,53.383Zm13.4,3.328a4.724,4.724,0,0,1-1.055,3.27,3.714,3.714,0,0,1-2.914,1.176,3.86,3.86,0,0,1-2.039-.539,3.558,3.558,0,0,1-1.375-1.547,5.391,5.391,0,0,1-.484-2.359,4.716,4.716,0,0,1,1.047-3.262,3.7,3.7,0,0,1,2.906-1.168,3.622,3.622,0,0,1,2.855,1.2A4.7,4.7,0,0,1,260.629,56.711Zm-6.523,0a4.064,4.064,0,0,0,.656,2.5,2.6,2.6,0,0,0,3.863,0,4.044,4.044,0,0,0,.66-2.5,3.978,3.978,0,0,0-.66-2.48,2.32,2.32,0,0,0-1.949-.848,2.283,2.283,0,0,0-1.922.836A4.023,4.023,0,0,0,254.105,56.711Zm14.32,1.953a2.145,2.145,0,0,1-.891,1.844,4.186,4.186,0,0,1-2.5.648,5.436,5.436,0,0,1-2.656-.539v-1.2a6.424,6.424,0,0,0,1.324.492,5.53,5.53,0,0,0,1.363.18,3.092,3.092,0,0,0,1.563-.324,1.116,1.116,0,0,0,.113-1.844,6.821,6.821,0,0,0-1.691-.84,9.172,9.172,0,0,1-1.7-.777,2.321,2.321,0,0,1-.75-.754,1.966,1.966,0,0,1-.246-1.008,1.921,1.921,0,0,1,.852-1.652,3.968,3.968,0,0,1,2.336-.605,6.835,6.835,0,0,1,2.7.563l-.461,1.055a6.2,6.2,0,0,0-2.336-.531,2.687,2.687,0,0,0-1.391.289.894.894,0,0,0-.469.8.971.971,0,0,0,.176.586,1.735,1.735,0,0,0,.566.461,12.657,12.657,0,0,0,1.5.633,5.6,5.6,0,0,1,2.059,1.117A1.97,1.97,0,0,1,268.426,58.664ZM271.832,61h-1.3V52.438h1.3Zm-1.406-10.883a.861.861,0,0,1,.219-.652.81.81,0,0,1,1.086,0,.846.846,0,0,1,.227.648.859.859,0,0,1-.227.652.794.794,0,0,1-1.086,0A.877.877,0,0,1,270.426,50.117ZM278,61.156a3.654,3.654,0,0,1-2.879-1.145,4.707,4.707,0,0,1-1.02-3.238,4.853,4.853,0,0,1,1.035-3.32,3.727,3.727,0,0,1,2.949-1.172,5.852,5.852,0,0,1,1.234.133,4.066,4.066,0,0,1,.969.313l-.4,1.1a6.1,6.1,0,0,0-.937-.285,4.186,4.186,0,0,0-.9-.113q-2.609,0-2.609,3.328a3.963,3.963,0,0,0,.637,2.422,2.215,2.215,0,0,0,1.887.844,5.769,5.769,0,0,0,2.2-.461v1.148A4.679,4.679,0,0,1,278,61.156ZM283.5,61h-1.3V52.438h1.3ZM282.09,50.117a.861.861,0,0,1,.219-.652.81.81,0,0,1,1.086,0,.846.846,0,0,1,.227.648.859.859,0,0,1-.227.652.794.794,0,0,1-1.086,0A.877.877,0,0,1,282.09,50.117Zm11.547,6.594a4.724,4.724,0,0,1-1.055,3.27,3.714,3.714,0,0,1-2.914,1.176,3.86,3.86,0,0,1-2.039-.539,3.558,3.558,0,0,1-1.375-1.547,5.391,5.391,0,0,1-.484-2.359,4.716,4.716,0,0,1,1.047-3.262,3.7,3.7,0,0,1,2.906-1.168,3.622,3.622,0,0,1,2.855,1.2A4.7,4.7,0,0,1,293.637,56.711Zm-6.523,0a4.064,4.064,0,0,0,.656,2.5,2.6,2.6,0,0,0,3.863,0,4.044,4.044,0,0,0,.66-2.5,3.978,3.978,0,0,0-.66-2.48,2.32,2.32,0,0,0-1.949-.848,2.283,2.283,0,0,0-1.922.836A4.023,4.023,0,0,0,287.113,56.711Zm1.5-5.6q.375-.484.809-1.172a13.408,13.408,0,0,0,.684-1.2h1.578v.164a14.473,14.473,0,0,1-2.2,2.4h-.867ZM301.77,61V55.461a2.235,2.235,0,0,0-.477-1.562,1.941,1.941,0,0,0-1.492-.516,2.461,2.461,0,0,0-1.969.727,3.668,3.668,0,0,0-.625,2.4V61h-1.3V52.438h1.055l.211,1.172h.063a2.648,2.648,0,0,1,1.117-.98,3.63,3.63,0,0,1,1.6-.348,3.252,3.252,0,0,1,2.328.746,3.175,3.175,0,0,1,.781,2.387V61Zm5.32-1.859.117.18q-.2.781-.586,1.816t-.8,1.926h-.977q.211-.813.465-2.008t.355-1.914ZM87.227,83l-.258-1.219h-.062a3.6,3.6,0,0,1-1.277,1.09,3.893,3.893,0,0,1-1.59.285,2.86,2.86,0,0,1-2-.656,2.394,2.394,0,0,1-.723-1.867q0-2.594,4.148-2.719l1.453-.047v-.531a2.171,2.171,0,0,0-.434-1.488,1.783,1.783,0,0,0-1.387-.48,5.65,5.65,0,0,0-2.422.656l-.4-.992a6.094,6.094,0,0,1,1.387-.539,6.006,6.006,0,0,1,1.512-.2,3.262,3.262,0,0,1,2.27.68,2.837,2.837,0,0,1,.738,2.18V83Zm-2.93-.914a2.632,2.632,0,0,0,1.9-.664,2.457,2.457,0,0,0,.691-1.859v-.773l-1.3.055a4.717,4.717,0,0,0-2.23.48,1.449,1.449,0,0,0-.684,1.324,1.336,1.336,0,0,0,.426,1.07A1.767,1.767,0,0,0,84.3,82.086Zm10.547,1.07a3.706,3.706,0,0,1-1.527-.309,2.872,2.872,0,0,1-1.16-.949h-.094a11.485,11.485,0,0,1,.094,1.422v3.523h-1.3V74.438h1.055l.18,1.172h.063a3.012,3.012,0,0,1,1.164-1.016,3.539,3.539,0,0,1,1.523-.312,3.165,3.165,0,0,1,2.629,1.164,6.2,6.2,0,0,1-.016,6.543A3.17,3.17,0,0,1,94.844,83.156Zm-.187-7.773a2.3,2.3,0,0,0-1.9.727,3.739,3.739,0,0,0-.6,2.313v.289a4.285,4.285,0,0,0,.6,2.582,2.288,2.288,0,0,0,1.93.777,2.007,2.007,0,0,0,1.738-.9,4.26,4.26,0,0,0,.629-2.477,4.1,4.1,0,0,0-.629-2.457A2.069,2.069,0,0,0,94.656,75.383ZM105.93,83l-.258-1.219h-.062a3.6,3.6,0,0,1-1.277,1.09,3.893,3.893,0,0,1-1.59.285,2.86,2.86,0,0,1-2-.656,2.394,2.394,0,0,1-.723-1.867q0-2.594,4.148-2.719l1.453-.047v-.531a2.171,2.171,0,0,0-.434-1.488,1.783,1.783,0,0,0-1.387-.48,5.65,5.65,0,0,0-2.422.656l-.4-.992a6.094,6.094,0,0,1,1.387-.539,6.006,6.006,0,0,1,1.512-.2,3.262,3.262,0,0,1,2.27.68,2.837,2.837,0,0,1,.738,2.18V83ZM103,82.086a2.632,2.632,0,0,0,1.9-.664,2.457,2.457,0,0,0,.691-1.859v-.773l-1.3.055a4.717,4.717,0,0,0-2.23.48,1.449,1.449,0,0,0-.684,1.324,1.336,1.336,0,0,0,.426,1.07A1.767,1.767,0,0,0,103,82.086Zm10.469-7.8a5.075,5.075,0,0,1,1.023.094l-.18,1.2a4.418,4.418,0,0,0-.937-.117,2.282,2.282,0,0,0-1.777.844,3.077,3.077,0,0,0-.738,2.1V83h-1.3V74.438h1.07l.148,1.586h.063a3.764,3.764,0,0,1,1.148-1.289A2.585,2.585,0,0,1,113.469,74.281ZM117.391,83h-1.3V74.438h1.3Zm-1.406-10.883a.861.861,0,0,1,.219-.652.81.81,0,0,1,1.086,0,.846.846,0,0,1,.227.648.859.859,0,0,1-.227.652.794.794,0,0,1-1.086,0A.877.877,0,0,1,115.984,72.117Zm7.773,11.039a3.934,3.934,0,0,1-3-1.156,4.476,4.476,0,0,1-1.1-3.211,4.964,4.964,0,0,1,1.02-3.289,3.387,3.387,0,0,1,2.738-1.219,3.229,3.229,0,0,1,2.547,1.059,4.057,4.057,0,0,1,.938,2.793v.82h-5.9a3.394,3.394,0,0,0,.762,2.289,2.634,2.634,0,0,0,2.035.781,6.9,6.9,0,0,0,2.734-.578V82.6a6.863,6.863,0,0,1-1.3.426A7.31,7.31,0,0,1,123.758,83.156Zm-.352-7.789a2.118,2.118,0,0,0-1.645.672,3.1,3.1,0,0,0-.723,1.859h4.477a2.851,2.851,0,0,0-.547-1.879A1.925,1.925,0,0,0,123.406,75.367ZM134.977,83V77.461A2.235,2.235,0,0,0,134.5,75.9a1.941,1.941,0,0,0-1.492-.516,2.461,2.461,0,0,0-1.969.727,3.668,3.668,0,0,0-.625,2.4V83h-1.3V74.438h1.055l.211,1.172h.063a2.648,2.648,0,0,1,1.117-.98,3.63,3.63,0,0,1,1.6-.348,3.252,3.252,0,0,1,2.328.746,3.175,3.175,0,0,1,.781,2.387V83Zm7.383.156a3.654,3.654,0,0,1-2.879-1.145,4.707,4.707,0,0,1-1.02-3.238,4.853,4.853,0,0,1,1.035-3.32,3.727,3.727,0,0,1,2.949-1.172,5.853,5.853,0,0,1,1.234.133,4.066,4.066,0,0,1,.969.313l-.4,1.1a6.1,6.1,0,0,0-.937-.285,4.186,4.186,0,0,0-.9-.113q-2.609,0-2.609,3.328a3.963,3.963,0,0,0,.637,2.422,2.215,2.215,0,0,0,1.887.844,5.769,5.769,0,0,0,2.2-.461v1.148A4.679,4.679,0,0,1,142.359,83.156ZM147.852,83h-1.3V74.438h1.3Zm-1.406-10.883a.861.861,0,0,1,.219-.652.81.81,0,0,1,1.086,0,.846.846,0,0,1,.227.648.859.859,0,0,1-.227.652.794.794,0,0,1-1.086,0A.877.877,0,0,1,146.445,72.117ZM155.867,83l-.258-1.219h-.062a3.6,3.6,0,0,1-1.277,1.09,3.893,3.893,0,0,1-1.59.285,2.86,2.86,0,0,1-2-.656,2.394,2.394,0,0,1-.723-1.867q0-2.594,4.148-2.719l1.453-.047v-.531a2.171,2.171,0,0,0-.434-1.488,1.783,1.783,0,0,0-1.387-.48,5.65,5.65,0,0,0-2.422.656l-.4-.992a6.094,6.094,0,0,1,1.387-.539,6.006,6.006,0,0,1,1.512-.2,3.262,3.262,0,0,1,2.27.68,2.837,2.837,0,0,1,.738,2.18V83Zm-2.93-.914a2.632,2.632,0,0,0,1.9-.664,2.457,2.457,0,0,0,.691-1.859v-.773l-1.3.055a4.717,4.717,0,0,0-2.23.48,1.449,1.449,0,0,0-.684,1.324,1.336,1.336,0,0,0,.426,1.07A1.767,1.767,0,0,0,152.938,82.086Zm7.922-.945.117.18q-.2.781-.586,1.816t-.8,1.926h-.977q.211-.812.465-2.008t.355-1.914ZM178.492,83V77.43a2.312,2.312,0,0,0-.437-1.535,1.692,1.692,0,0,0-1.359-.512,2.195,2.195,0,0,0-1.789.7,3.3,3.3,0,0,0-.578,2.141V83h-1.3V77.43a2.312,2.312,0,0,0-.437-1.535,1.7,1.7,0,0,0-1.367-.512,2.118,2.118,0,0,0-1.785.73,3.953,3.953,0,0,0-.566,2.395V83h-1.3V74.438h1.055l.211,1.172h.063a2.549,2.549,0,0,1,1.035-.977,3.163,3.163,0,0,1,1.5-.352,2.544,2.544,0,0,1,2.625,1.453h.063a2.73,2.73,0,0,1,1.109-1.062,3.442,3.442,0,0,1,1.656-.391,2.9,2.9,0,0,1,2.176.746,3.338,3.338,0,0,1,.723,2.387V83Zm11.359-4.289a4.724,4.724,0,0,1-1.055,3.27,3.714,3.714,0,0,1-2.914,1.176,3.86,3.86,0,0,1-2.039-.539,3.558,3.558,0,0,1-1.375-1.547,5.391,5.391,0,0,1-.484-2.359,4.716,4.716,0,0,1,1.047-3.262,3.7,3.7,0,0,1,2.906-1.168,3.622,3.622,0,0,1,2.855,1.2A4.7,4.7,0,0,1,189.852,78.711Zm-6.523,0a4.064,4.064,0,0,0,.656,2.5,2.6,2.6,0,0,0,3.863,0,4.043,4.043,0,0,0,.66-2.5,3.978,3.978,0,0,0-.66-2.48,2.32,2.32,0,0,0-1.949-.848,2.283,2.283,0,0,0-1.922.836A4.023,4.023,0,0,0,183.328,78.711ZM194,83l-3.25-8.562h1.391l1.844,5.078a24.036,24.036,0,0,1,.734,2.313h.063a17.469,17.469,0,0,1,.543-1.715q.457-1.3,2.051-5.676h1.391L195.516,83Zm7.438,0h-1.3V74.438h1.3Zm-1.406-10.883a.861.861,0,0,1,.219-.652.81.81,0,0,1,1.086,0,.846.846,0,0,1,.227.648.859.859,0,0,1-.227.652.794.794,0,0,1-1.086,0A.877.877,0,0,1,200.031,72.117ZM205.484,83h-1.3V70.844h1.3Zm4.047,0h-1.3V74.438h1.3Zm-1.406-10.883a.861.861,0,0,1,.219-.652.81.81,0,0,1,1.086,0,.846.846,0,0,1,.227.648.859.859,0,0,1-.227.652.794.794,0,0,1-1.086,0A.877.877,0,0,1,208.125,72.117Zm9.984,9.734h-.07a3.047,3.047,0,0,1-2.687,1.3,3.179,3.179,0,0,1-2.613-1.148,5.055,5.055,0,0,1-.934-3.266,5.14,5.14,0,0,1,.938-3.289,3.155,3.155,0,0,1,2.609-1.172,3.114,3.114,0,0,1,2.672,1.266h.1l-.055-.617-.031-.6V70.844h1.3V83h-1.055Zm-2.594.219a2.361,2.361,0,0,0,1.926-.723,3.652,3.652,0,0,0,.6-2.332v-.273a4.3,4.3,0,0,0-.605-2.6,2.3,2.3,0,0,0-1.934-.777,1.985,1.985,0,0,0-1.746.887,4.409,4.409,0,0,0-.605,2.5,4.227,4.227,0,0,0,.6,2.477A2.037,2.037,0,0,0,215.516,82.07Zm11.836.93-.258-1.219h-.062a3.6,3.6,0,0,1-1.277,1.09,3.893,3.893,0,0,1-1.59.285,2.86,2.86,0,0,1-2-.656,2.394,2.394,0,0,1-.723-1.867q0-2.594,4.148-2.719l1.453-.047v-.531a2.171,2.171,0,0,0-.434-1.488,1.783,1.783,0,0,0-1.387-.48,5.65,5.65,0,0,0-2.422.656l-.4-.992a6.094,6.094,0,0,1,1.387-.539,6.006,6.006,0,0,1,1.512-.2,3.262,3.262,0,0,1,2.27.68,2.837,2.837,0,0,1,.738,2.18V83Zm-2.93-.914a2.632,2.632,0,0,0,1.9-.664,2.457,2.457,0,0,0,.691-1.859v-.773l-1.3.055a4.717,4.717,0,0,0-2.23.48,1.449,1.449,0,0,0-.684,1.324,1.336,1.336,0,0,0,.426,1.07A1.767,1.767,0,0,0,224.422,82.086Zm12.391-.234h-.07a3.047,3.047,0,0,1-2.687,1.3,3.179,3.179,0,0,1-2.613-1.148,5.055,5.055,0,0,1-.934-3.266,5.14,5.14,0,0,1,.938-3.289,3.155,3.155,0,0,1,2.609-1.172,3.114,3.114,0,0,1,2.672,1.266h.1l-.055-.617-.031-.6V70.844h1.3V83h-1.055Zm-2.594.219a2.361,2.361,0,0,0,1.926-.723,3.652,3.652,0,0,0,.6-2.332v-.273a4.3,4.3,0,0,0-.605-2.6,2.3,2.3,0,0,0-1.934-.777,1.985,1.985,0,0,0-1.746.887,4.409,4.409,0,0,0-.605,2.5,4.227,4.227,0,0,0,.6,2.477A2.037,2.037,0,0,0,234.219,82.07Z" transform="translate(634 6611.541)" fill="#fff"/>
  </g>
</svg>
