<svg xmlns="http://www.w3.org/2000/svg" width="435.079" height="322.306" viewBox="0 0 435.079 322.306">
  <g id="Grupo_70663" data-name="Grupo 70663" transform="translate(-74.804 -96.705)">
    <g id="Grupo_70662" data-name="Grupo 70662" transform="translate(74.804 96.705)">
      <g id="Grupo_70617" data-name="Grupo 70617" transform="translate(252.327 269.11)">
        <path id="Trazado_117307" data-name="Trazado 117307" d="M660.647,660.259a7.884,7.884,0,0,0,.471,3.247,27.3,27.3,0,0,0,4.318,7.558,60.038,60.038,0,0,0,5.08,5.8,78.371,78.371,0,0,0,6.131,5.6,80.248,80.248,0,0,0,11.049,7.686,54.174,54.174,0,0,0,13.559,5.7c19.7,4.932,108.913,1.562,134.108-5.506,8.158-2.286,9.471-5.4,6.676-8.956a13.863,13.863,0,0,0-1.329-1.439c-3.579-3.416-10.418-7.167-18.286-10.929q-2.222-1.058-4.538-2.117c-5.109-2.348-10.454-4.678-15.491-6.905-2.151-.955-4.244-1.888-6.244-2.8-.111-.048-.215-.1-.326-.15-22.241-10.166-111.8-6.613-131.385.508C662.088,658.412,660.745,659.321,660.647,660.259Z" transform="translate(-660.619 -650.734)" fill="#8f2b58"/>
        <path id="Trazado_117308" data-name="Trazado 117308" d="M693.614,712.76a80.248,80.248,0,0,0,11.049,7.686c2.088.218,4.178.4,6.262.572,25.052,2.043,50.217.88,75.057-1.517,12.565-1.211,25.065-2.929,37.592-4.368q9.375-1.073,18.745-2.185c5.361-.628,11.164-1.507,16.687-1.27a13.87,13.87,0,0,0-1.329-1.439,28.017,28.017,0,0,0-4.967-.59c-2.846-.069-5.687.086-8.517.259-6.754.408-13.488.909-20.219,1.463-23.589,1.95-47.3,3.873-71.04,4.451-11.693.281-23.409.226-35.106-.509q-8.758-.545-17.478-1.625C698.1,713.408,695.856,713.093,693.614,712.76Z" transform="translate(-677.587 -681.024)" fill="#d24d8a"/>
        <path id="Trazado_117309" data-name="Trazado 117309" d="M670.534,688.18a60.045,60.045,0,0,0,5.08,5.8c3.861.009,7.719-.028,11.578-.082,23.477-.331,46.9-1.421,70.292-2.785,11.883-.694,23.766-1.395,35.631-2.234l17.948-1.267c5.452-.385,11.1-.52,16.459-1.476q-2.222-1.058-4.538-2.117c-4.957-.047-9.972.346-14.869.505-6.66.224-13.327.436-19.989.677-23.58.854-47.138,1.872-70.741,2.465-11.916.305-23.835.438-35.761.495Q676.08,688.191,670.534,688.18Z" transform="translate(-665.718 -667.85)" fill="#d24d8a"/>
        <path id="Trazado_117310" data-name="Trazado 117310" d="M660.647,666.163a7.883,7.883,0,0,0,.471,3.247c5.109.179,10.241.146,15.317.127,24.135-.094,48.216-1.368,72.284-2.458,12.1-.546,24.214-.861,36.344-1.036,3.252-.046,6.513-.044,9.772-.089,2.442-.034,5.1.179,7.558-.05-2.151-.955-4.244-1.889-6.244-2.8l-1.113-.079c-3.025-.215-6.056-.333-9.088-.451-6.278-.245-12.555-.311-18.827-.347-21.89-.116-43.727.58-65.588,1.037q-16.229.333-32.481.238c-1.543-.012-3.078-.029-4.614-.04C662.088,664.316,660.745,665.224,660.647,666.163Z" transform="translate(-660.619 -656.638)" fill="#d24d8a"/>
      </g>
      <g id="Grupo_70621" data-name="Grupo 70621" transform="translate(98.737 32.01)">
        <path id="Trazado_117311" data-name="Trazado 117311" d="M378.08,377.4q-3.175-.012-6.351-.029c-.946-68.291,3.261-137.2,5.151-205.5,2.061-.036,4.122-.07,6.183-.114C381.036,240.163,377.807,308.974,378.08,377.4Z" transform="translate(-358.392 -167.308)" fill="#b69c8f"/>
        <g id="Grupo_70619" data-name="Grupo 70619" transform="translate(0 3.522)">
          <path id="Trazado_117312" data-name="Trazado 117312" d="M587.359,170.184c-66.994-.811-133.871-.008-200.85,1.182q-.1,3.5-.206,7c67.03-1.369,133.986-1.875,201.029-1.013C587.376,174.964,587.377,172.576,587.359,170.184Z" transform="translate(-365.957 -169.856)" fill="#b69c8f"/>
          <g id="Grupo_70618" data-name="Grupo 70618" transform="translate(0 173.117)">
            <path id="Trazado_117313" data-name="Trazado 117313" d="M404.712,550.16c-20.117,0-39.73-.049-58.954-.147l-1.343-.006,1.036-.854c8.165-6.73,17.673-14.559,27.194-22.313l.136-.11h.175c52.482.356,105.832.05,157.428-.246q20.1-.115,40.2-.22l1.069-.005-.7.809q-2.775,3.21-5.547,6.425c-4.455,5.163-9.062,10.5-13.619,15.73l-.143.164-.219,0C499.057,549.905,450.581,550.16,404.712,550.16Zm-57.607-1.112c62.6.311,129.383.106,204.095-.627,4.51-5.175,9.066-10.455,13.473-15.563q2.423-2.809,4.848-5.617-19.566.1-39.133.215c-51.541.3-104.832.6-157.265.247C364.05,535.094,354.993,542.549,347.105,549.049Z" transform="translate(-344.416 -526.26)" fill="#401c1c"/>
          </g>
          <path id="Trazado_117314" data-name="Trazado 117314" d="M371.581,588.859a6.617,6.617,0,0,1-6.75,6.866,6.873,6.873,0,0,1-6.917-6.934,6.618,6.618,0,0,1,6.792-6.862A6.817,6.817,0,0,1,371.581,588.859Z" transform="translate(-351.357 -381.772)" fill="#b69c8f"/>
          <path id="Trazado_117315" data-name="Trazado 117315" d="M577.557,535.652c-7.037.011-14.121.229-21.164.349a100.134,100.134,0,0,0,4.78-8.993c.411-.912-.8-1.683-1.264-.774-1.693,3.321-3.4,6.633-5.355,9.807q-10.734.219-21.483.394c.532-.9,1.174-2.044,1.648-2.922s1.056-2.05,1.394-2.745.458-.98.683-1.455a10.726,10.726,0,0,1,.4-1c.015-.025-.219.045.111,0s1.273-.86.661-1.528-1.3-.541-1.854.378S535,529.6,534.454,530.7s-1.37,2.669-1.911,3.623-.794,1.327-1.294,2.16c-6.32.1-12.668.2-18.993.3,1.826-3.084,3.82-6.094,5.693-9.137a.733.733,0,1,0-1.256-.754c-2.166,3.2-4.2,6.6-6.239,9.918q-4.694.08-9.386.148c-3.133.051-6.282.1-9.413.155,2.325-3.4,4.659-6.842,6.674-10.428a.734.734,0,1,0-1.249-.769c-2.324,3.795-4.692,7.6-7.293,11.225-7.421.126-14.848.223-22.272.33q3.058-4.435,6.219-8.795c.464.073.823.036.989-.521a15.851,15.851,0,0,0,.423-1.583.749.749,0,0,0-1.352-.555c-2.839,3.795-5.474,7.6-8.155,11.48q-10.224.119-20.458.234a60.551,60.551,0,0,1,9.646-10.777c.768-.649-.031-1.749-.663-1.385a14.915,14.915,0,0,0-1.323.976c-.313.2-.2.223-.282.3a77.907,77.907,0,0,0-9.177,10.9q-9.259.087-18.522.166l-2.167.018c3.2-3.334,6.481-6.668,9.544-10.1.668-.749-.325-1.829-1.023-1.1-3.557,3.729-7.077,7.546-10.707,11.216q-10.426.076-20.859.139c3.419-3.42,6.949-6.782,10.332-10.218a.752.752,0,1,0-1.034-1.093c-3.889,3.7-7.7,7.571-11.567,11.323-5.353.076-10.9.018-16.19.135a.776.776,0,1,0,.017,1.546c4.618.061,9.786-.069,14.523-.056-2.539,2.565-5.516,5.34-7.933,7.863-.879.918.313,1.814,1.034,1.128,3.031-2.884,6.129-6.06,9.177-9.01q10.443-.091,20.882-.148c-2.928,3-5.96,5.93-8.892,8.908a.761.761,0,0,0,1.061,1.092c3.425-3.225,6.734-6.668,10.069-10.014q10.525-.092,21.056-.186a50.375,50.375,0,0,1-8.7,9.2c-.773.613-.09,1.943.719,1.342,3.915-2.908,6.821-6.676,9.808-10.553,4.639-.05,9.912-.116,14.379-.17,2.5-.031,3.89-.043,6.2-.072-2.27,3.4-4.556,6.774-6.653,10.251a.736.736,0,1,0,1.257.766c2.393-3.655,4.761-7.416,7.235-11.039,7.382-.109,14.774-.2,22.154-.32-2.259,3.078-4.715,6.073-7.14,8.979-.639.766.327,1.842,1.005,1.092,2.884-3.188,5.488-6.649,8.072-10.1,6.325-.1,12.664-.192,18.988-.3-1.729,3.013-3.554,6.046-5.131,9.124a.73.73,0,1,0,1.24.771c1.885-3.291,3.7-6.672,5.671-9.924q9.5-.177,19.013-.352a100.3,100.3,0,0,1-7.271,9.707c-.644.772.318,1.832,1,1.082a91.583,91.583,0,0,0,7.551-9.927c.193-.28.262-.77.558-.841a11.607,11.607,0,0,1,2.323-.095c6.368-.149,12.78-.22,19.156-.356-2.313,3.624-4.9,7.11-7.519,10.462-.617.789.343,1.863,1,1.082a117.779,117.779,0,0,0,8.324-11.575c7.356-.182,14.767-.245,22.107-.426A.755.755,0,0,0,577.557,535.652Z" transform="translate(-362.894 -352.75)" fill="#401c1c"/>
          <path id="Trazado_117316" data-name="Trazado 117316" d="M782.5,368.3l-6.17.074c1.976-65.256,5.129-133.027,5.206-198l6.316.077C788.335,234.8,784.522,303.487,782.5,368.3Z" transform="translate(-566.537 -170.121)" fill="#b69c8f"/>
          <path id="Trazado_117317" data-name="Trazado 117317" d="M785.43,581.756a6.961,6.961,0,0,1-6.99,6.792,6.253,6.253,0,0,1-6.52-6.639,6.956,6.956,0,0,1,6.954-6.8A6.3,6.3,0,0,1,785.43,581.756Z" transform="translate(-564.266 -378.263)" fill="#b69c8f"/>
        </g>
        <g id="Grupo_70620" data-name="Grupo 70620" transform="translate(27.018)">
          <path id="Trazado_117318" data-name="Trazado 117318" d="M462.308,193.1c-3.089-3.383-7.494-2.066-11.4-1.313-2.683.518-4.839,1.027-7.365,1.663-1.059.266-2.009.494-3.063.734a18.657,18.657,0,0,0-.787-4.441,58.21,58.21,0,0,0-2.736-6.62c-1.914-4.364-3.637-8.558-1.805-13.326.894-2.326,3.343-3.11,5.666-3.286s-1.39-2.794-3.263-1.766c-4.064,2.232-5.838,7.332-4.852,12.132,1.17,5.694,4.153,9.136,5.522,15.4.223,1.024.532,5.524-2.793,6.214-2.632.547-5.953,1.974-9.047,2.84s-6.779,1.955-10.068,3.188c-2.4.9-4.549,2.911-3.476,5.754a.98.98,0,0,0,1.178.467c6.579-2.4,13.307-4.712,19.974-6.706s13.15-3.449,19.891-5.2a16.444,16.444,0,0,0,8.266-4.458A.982.982,0,0,0,462.308,193.1Zm-8.7,3.62c-3.149.833-6.269,1.465-9.4,2.274-6.627,1.713-13.161,3.655-19.666,5.784-3.319,1.086-6.613,2.3-9.893,3.487a3.066,3.066,0,0,1,1.368-1.351,24.861,24.861,0,0,1,3.618-1.258c2.727-.88,5.389-1.719,8.107-2.595s5.353-1.682,8.1-2.61c2.06-.7,3.673-1.685,4.4-3.868a7.434,7.434,0,0,0,.207-1.271c3.01-.34,5.981-.679,8.993-1.091,2.149-.295,4.186-.762,6.394-1.065a6.139,6.139,0,0,1,4.142.5A15.813,15.813,0,0,1,453.605,196.717Z" transform="translate(-406.478 -163.582)" fill="#401c1c"/>
          <path id="Trazado_117319" data-name="Trazado 117319" d="M444.35,218.763c6.878,2.407,9.058-7.377,14.927,6.2s6.783,49.463,5.567,68.353-11.225-.374-10.681,10.54,12.474,45.01-1.651,57.276c-.8.693-14.207,11.435-19.268,4.837-3.788-4.939,1.894-37.8-1.326-46.151,2.264,6.238-1.546,47.473-3.036,48.549-6.069,4.385-18.9,12.351-20.8.419-2.432-15.293,7.18-45.764,4.215-64.984-.622-4.029-7.372,4.37-9,2.625-7.729-8.262.427-58.251,2.863-71.412.531-2.87,8.729-6.548,10.684-6.384,6.211.518,8.278.371,13.419-.71C436.349,226.636,441.386,225.126,444.35,218.763Z" transform="translate(-400.038 -190.876)" fill="#d2e1f1"/>
          <path id="Trazado_117320" data-name="Trazado 117320" d="M513.4,195.177c-3.091-3.4-7.514-2.118-11.434-1.383-2.695.5-4.842,1.022-7.376,1.64-1.063.259-2.011.475-3.067.714a19.24,19.24,0,0,0-.8-4.477,59.3,59.3,0,0,0-2.755-6.678c-1.92-4.381-3.659-8.6-1.844-13.379.885-2.332,3.332-3.107,5.648-3.273s-1.391-2.816-3.267-1.786c-4.069,2.236-5.81,7.344-4.806,12.156,1.192,5.708,4.174,9.213,5.564,15.5.227,1.028.577,5.561-2.761,6.253-2.643.548-5.947,1.963-9.039,2.844s-6.741,1.95-10.043,3.186c-2.413.9-4.523,2.982-3.441,5.83a.971.971,0,0,0,1.171.472c6.559-2.424,13.254-4.771,19.916-6.754s13.147-3.426,19.894-5.143a16.37,16.37,0,0,0,8.289-4.439A.986.986,0,0,0,513.4,195.177Zm-8.726,3.6c-3.153.819-6.278,1.434-9.407,2.236-6.626,1.7-13.155,3.628-19.645,5.778-3.311,1.1-6.592,2.3-9.859,3.5a3.065,3.065,0,0,1,1.358-1.372,23.2,23.2,0,0,1,3.605-1.259c2.724-.875,5.376-1.72,8.087-2.607s5.344-1.688,8.091-2.611c2.06-.693,3.68-1.684,4.389-3.878a7.549,7.549,0,0,0,.2-1.28c3.015-.329,5.985-.652,9-1.048,2.153-.283,4.2-.737,6.414-1.03a6.18,6.18,0,0,1,4.152.523A15.718,15.718,0,0,1,504.67,198.773Z" transform="translate(-432.767 -164.514)" fill="#401c1c"/>
          <path id="Trazado_117321" data-name="Trazado 117321" d="M495.825,221.208c6.451.757,9.352-4.352,14.863,4.88s6.437,27.51,6.062,41.507-11.33,2.237-9.44,11.4,11.225,56.972.723,64.035-37.051,21.236-44.412,6.372c-6.085-12.287,6.284-53.318.97-71.418-1.114-3.795-8.119-1.228-9.743-1.9-7.7-3.167,1.868-34.072,3.245-41.743.3-1.672,8.708-5.515,10.527-5.228,5.78.913,8.377.392,13.249-.309C487.641,227.974,492.726,226.708,495.825,221.208Z" transform="translate(-426.7 -192.363)" fill="#339ce9"/>
          <path id="Trazado_117322" data-name="Trazado 117322" d="M566.781,194.757c-3.1-3.427-7.559-2.179-11.508-1.454-2.715.5-4.863.994-7.414,1.6-1.07.255-2.022.464-3.084.7a19.26,19.26,0,0,0-.811-4.5,59.846,59.846,0,0,0-2.773-6.712c-1.93-4.4-3.7-8.644-1.9-13.451.878-2.345,3.333-3.1,5.654-3.25s-1.411-2.847-3.3-1.819c-4.088,2.23-5.785,7.357-4.764,12.182,1.212,5.723,4.212,9.28,5.617,15.595.23,1.033.577,5.581-2.772,6.266-2.651.543-5.965,1.945-9.064,2.815s-6.735,1.928-10.043,3.166c-2.417.905-4.518,3-3.443,5.859a.97.97,0,0,0,1.17.478c6.567-2.427,13.252-4.766,19.935-6.722s13.194-3.382,19.969-5.071a16.575,16.575,0,0,0,8.366-4.394A.984.984,0,0,0,566.781,194.757Zm-8.8,3.547c-3.168.806-6.307,1.415-9.446,2.2-6.647,1.671-13.2,3.567-19.7,5.7-3.318,1.089-6.587,2.3-9.857,3.5a3.081,3.081,0,0,1,1.359-1.377,22.981,22.981,0,0,1,3.6-1.257c2.725-.872,5.368-1.712,8.084-2.587s5.358-1.671,8.113-2.586c2.067-.685,3.691-1.674,4.408-3.871a7.518,7.518,0,0,0,.2-1.285c3.031-.312,6.016-.612,9.05-1,2.164-.276,4.219-.723,6.447-1a6.262,6.262,0,0,1,4.181.552A15.948,15.948,0,0,1,557.977,198.3Z" transform="translate(-460.132 -164.165)" fill="#401c1c"/>
          <path id="Trazado_117323" data-name="Trazado 117323" d="M549.064,220.956c6.491.757,9.435-4.283,14.951,4.972s6.307,27.523,5.843,41.511-11.337,2.218-9.485,11.379,11.309,56.952.883,64.035-36.838,21.35-44.21,6.5c-6.094-12.274,5.9-53.449.595-71.545-1.111-3.794-8.123-1.218-9.745-1.883-7.678-3.152,1.964-34.278,3.339-41.956.3-1.674,8.7-5.524,10.52-5.225,5.8.953,8.393.431,13.28-.246C540.828,227.7,545.947,226.468,549.064,220.956Z" transform="translate(-453.995 -192.253)" fill="#0ac4bf"/>
          <path id="Trazado_117324" data-name="Trazado 117324" d="M620.069,199.348c-3-3.9-7.466-2.573-11.538-1.744-2.8.57-4.888,1.117-7.481,1.816-1.087.292-2.029.528-3.107.8a24.815,24.815,0,0,0-.777-5.228,73.857,73.857,0,0,0-2.78-7.833c-1.963-5.114-3.663-10.227-1.933-15.655.844-2.649,3.247-3.584,5.706-3.738s-1.3-3.42-3.313-2.14c-4.371,2.776-5.786,8.748-4.785,14.159,1.186,6.418,4.266,10.983,5.612,18.111.22,1.165.642,6.393-2.829,7.283-2.748.705-5.966,2.186-9.134,3.224s-6.689,2.15-10.133,3.645c-2.517,1.092-4.512,3.721-3.444,6.777a.955.955,0,0,0,1.164.563c6.6-2.794,13.281-5.454,20.028-7.7s13.258-3.826,20.153-5.778a16.222,16.222,0,0,0,8.407-5.068A1.307,1.307,0,0,0,620.069,199.348Zm-8.864,4.08c-3.218.931-6.35,1.6-9.522,2.5-6.716,1.91-13.294,4.073-19.834,6.509-3.336,1.242-6.631,2.633-9.906,4.009a3.4,3.4,0,0,1,1.361-1.59,20.88,20.88,0,0,1,3.625-1.446c2.755-1.007,5.382-1.949,8.135-2.96s5.328-1.886,8.175-2.958a6.492,6.492,0,0,0,4.451-4.465,10.069,10.069,0,0,0,.212-1.484c3.054-.353,6.05-.682,9.107-1.11,2.181-.305,4.235-.81,6.488-1.126a5.506,5.506,0,0,1,4.181.656A15.179,15.179,0,0,1,611.2,203.428Z" transform="translate(-487.361 -164.003)" fill="#401c1c"/>
          <path id="Trazado_117325" data-name="Trazado 117325" d="M602.085,229.649c7.208,2.413,8.971-7.013,15.228,6.8s8.079,58.212,7.763,75.522c-.185,10.164-1.84,7.589-7.127,8.109-3.716.366-6.6-26.418-5.414-22.7,2.881,9.013,8.965,69.451,3.706,75.63-10.116,11.886-39.318,21.588-46.406,5.856-5.518-12.249,9.082-60.52,4.568-75.679-.279-.937-1.556,30.472-4.219,31.615s-11.676,15.327-12.535-.691c-.98-18.263,2.245-65.021,6.183-88.4.858-5.1,8.375-7.175,10.742-6.7,7.517,1.516,8.885,12.839,16.478,11.247C600.052,248.378,599.255,236.955,602.085,229.649Z" transform="translate(-481.001 -196.607)" fill="#8f2b58"/>
          <path id="Trazado_117326" data-name="Trazado 117326" d="M681.918,196.852c-3-3.944-7.593-2.62-11.713-1.819-2.832.551-5,1.089-7.634,1.762-1.105.282-2.055.512-3.148.772a25.663,25.663,0,0,0-.727-5.235,66.4,66.4,0,0,0-2.752-7.852c-1.94-5.129-3.661-10.267-1.918-15.709.85-2.655,3.32-3.579,5.8-3.71s-1.336-3.436-3.385-2.169c-4.444,2.748-5.824,8.735-4.826,14.17,1.184,6.448,4.248,11,5.544,18.165.212,1.171.577,6.406-2.924,7.263-2.771.678-6.031,2.159-9.223,3.183s-6.735,2.119-10.207,3.589c-2.537,1.073-4.571,3.684-3.508,6.761a.965.965,0,0,0,1.17.572c6.671-2.741,13.374-5.378,20.186-7.606s13.433-3.762,20.419-5.651a16.851,16.851,0,0,0,8.637-5A1.288,1.288,0,0,0,681.918,196.852Zm-9.084,4.011c-3.271.9-6.479,1.561-9.687,2.443-6.794,1.867-13.419,3.986-20.023,6.4-3.369,1.232-6.682,2.6-9.992,3.953a3.4,3.4,0,0,1,1.381-1.583,21.258,21.258,0,0,1,3.656-1.422c2.777-.991,5.424-1.922,8.2-2.922s5.37-1.874,8.243-2.922a6.537,6.537,0,0,0,4.532-4.433,9.995,9.995,0,0,0,.227-1.483c3.1-.332,6.143-.639,9.248-1.047,2.216-.292,4.315-.783,6.6-1.086a5.684,5.684,0,0,1,4.255.686A15.916,15.916,0,0,1,672.834,200.863Z" transform="translate(-518.817 -162.605)" fill="#401c1c"/>
          <path id="Trazado_117327" data-name="Trazado 117327" d="M664.011,227.433c7.011,1.753,9.5-5.86,15.252,6.385s8.04,41.259,7.471,58.736c-.335,10.263-5.462.974-10.59,10.52-3.605,6.71,12.76,46.423-.836,57.834-4.7,3.949-38.929,15.227-43.794,4.389-3.787-8.438,7.638-40.661,3.219-47.393s-14.279,7.872-15.383-7.251c-1.258-17.242,2.6-47.741,5.938-67.736.728-4.359,8.588-6.689,10.78-6.439,6.964.794,9.863,4.749,16.046,3.562C659.44,238.633,661.167,233.94,664.011,227.433Z" transform="translate(-512.697 -195.555)" fill="#d2e1f1"/>
        </g>
      </g>
      <g id="Grupo_70625" data-name="Grupo 70625" transform="translate(271.646 279.441)" opacity="0.89">
        <path id="Trazado_117349" data-name="Trazado 117349" d="M724.169,673.9a8.01,8.01,0,0,1-1.5,3.881c-2.026,3.284-5.853,7.548-9.831,11.6-.743.758-1.491,1.506-2.234,2.239a34.866,34.866,0,0,1-3.779,3.279l-.01,0c-3.905,2.861-5.6,2.249-5.6,2.249-.656-.224-.894-.8-.811-1.627a15.424,15.424,0,0,1,2.424-5.474,96.44,96.44,0,0,1,8.709-11.526,36.615,36.615,0,0,1,3.881-4.017c.141-.107.277-.209.427-.316h.01C718.807,672.178,724.087,670.624,724.169,673.9Z" transform="translate(-700.392 -672.004)" fill="#8c6239"/>
        <path id="Trazado_117350" data-name="Trazado 117350" d="M712.859,707.773c-.743.758-1.491,1.506-2.234,2.239a34.853,34.853,0,0,1-3.779,3.279l-.01,0-6.412.622a15.422,15.422,0,0,1,2.424-5.474Z" transform="translate(-700.408 -690.399)" fill="#8c6239"/>
        <path id="Trazado_117351" data-name="Trazado 117351" d="M735.973,675.9a8.01,8.01,0,0,1-1.5,3.881c-3.92.253-9.384.607-11.133.743a36.621,36.621,0,0,1,3.881-4.017c.141-.107.277-.209.427-.316h.01Z" transform="translate(-712.195 -674.009)" fill="#8c6239"/>
      </g>
      <g id="Grupo_70630" data-name="Grupo 70630" transform="translate(0 124.757)">
        <g id="Grupo_70627" data-name="Grupo 70627" transform="translate(26.711 75.136)">
          <path id="Trazado_117352" data-name="Trazado 117352" d="M170.8,661.523l-1,.229-20.825-67.023,1-.229Z" transform="translate(-113.299 -587.257)" fill="#3a362d"/>
          <path id="Trazado_117353" data-name="Trazado 117353" d="M87.671,663.251l-1.018-.143L100.593,594.6l1.018.143Z" transform="translate(-81.247 -587.308)" fill="#3a362d"/>
          <path id="Trazado_117354" data-name="Trazado 117354" d="M128.026,668.486l-1.033-.021,2.529-69.419,1.033.021Z" transform="translate(-101.993 -589.596)" fill="#3a362d"/>
          <path id="Trazado_117355" data-name="Trazado 117355" d="M131.566,590.27c-3.288,3.879-53.694,4.476-55.9,1.241l-.141-6.369,55.9-1.241Z" transform="translate(-75.524 -581.807)" fill="#401c1c"/>
          <path id="Trazado_117356" data-name="Trazado 117356" d="M131.425,581.684c.033,1.459-12.455,2.92-27.892,3.262s-27.977-.562-28.009-2.022,12.456-2.92,27.892-3.262S131.392,580.225,131.425,581.684Z" transform="translate(-75.524 -579.59)" fill="#a66a45"/>
          <g id="Grupo_70626" data-name="Grupo 70626" transform="translate(9.621 48.953)">
            <path id="Trazado_117357" data-name="Trazado 117357" d="M116.3,689.487c-10.258.228-20.9-1.237-20.968-4.083s10.509-4.782,20.766-5.009,20.9,1.237,20.968,4.083S126.557,689.26,116.3,689.487Zm-.19-8.561c-12.1.269-20.175,2.525-20.132,4.464s8.215,3.834,20.31,3.566,20.175-2.525,20.132-4.464S128.205,680.658,116.109,680.926Z" transform="translate(-95.331 -680.372)" fill="#3a362d"/>
          </g>
        </g>
        <g id="Grupo_70629" data-name="Grupo 70629">
          <path id="Trazado_117358" data-name="Trazado 117358" d="M88.579,537.87s4.058,15.548,8.039,19.334,19.313,4.063,22.946-.316,7.453-15.449,8.105-20.933C128.125,532.131,86.3,531.89,88.579,537.87Z" transform="translate(-55.48 -480.602)" fill="#f9c160"/>
          <ellipse id="Elipse_5254" data-name="Elipse 5254" cx="17.32" cy="1.606" rx="17.32" ry="1.606" transform="translate(35.244 54.568) rotate(-1.272)" fill="#985846"/>
          <g id="Grupo_70628" data-name="Grupo 70628">
            <path id="Trazado_117359" data-name="Trazado 117359" d="M165.736,476.882c-6.92,1.081-13.368,5.454-17.777,10.778a32.661,32.661,0,0,0-5.424,9.389c-1.231,3.3-2.451,7.531-1.91,11.085.014.094.158.132.181.02.337-1.659.355-3.376.67-5.046a34.187,34.187,0,0,1,1.4-5.186,32.56,32.56,0,0,1,5.556-9.812c4.584-5.526,10.641-8.764,17.336-11.043C165.86,477.034,165.846,476.865,165.736,476.882Z" transform="translate(-82.224 -451.634)" fill="#88a163"/>
            <path id="Trazado_117360" data-name="Trazado 117360" d="M123.053,467.036a54.008,54.008,0,0,0-10.063-21.872c-.065-.084-.206,0-.144.088a63.306,63.306,0,0,1,9.513,21.45,55.256,55.256,0,0,1,1.321,11.318,3.627,3.627,0,0,0-3.172.6,5.389,5.389,0,0,0-2.032,3.8,11.519,11.519,0,0,0,.526,4.756,15.5,15.5,0,0,0,.91,2.268c.308.622.67,1.551,1.354,1.83a.058.058,0,0,0,.085-.052,3.472,3.472,0,0,0-.586-1.516,14.561,14.561,0,0,1-.835-2.107,13.411,13.411,0,0,1-.652-4.121,5.622,5.622,0,0,1,1.232-3.687,4.01,4.01,0,0,1,3.183-1.411A87.488,87.488,0,0,1,122.9,490.6c-.023.179.231.255.279.07C125.178,483.1,124.707,474.621,123.053,467.036Z" transform="translate(-67.998 -435.305)" fill="#88a163"/>
            <path id="Trazado_117361" data-name="Trazado 117361" d="M76.242,496.26a35.03,35.03,0,0,0-7.33-10.41A33.524,33.524,0,0,0,46.6,476.257c-.132,0-.161.218-.027.235a37.321,37.321,0,0,1,21.447,9.915,34.571,34.571,0,0,1,6.868,9.478,36.9,36.9,0,0,1,2.225,5.639c.6,1.972.912,4.026,1.631,5.95.014.037.08.046.086,0C79.341,503.761,77.773,499.589,76.242,496.26Z" transform="translate(-33.879 -451.313)" fill="#88a163"/>
            <path id="Trazado_117362" data-name="Trazado 117362" d="M109.422,485.535c-1.836-5.8-4.1-11.591-7.864-16.431-.075-.1-.234-.006-.165.1a64.071,64.071,0,0,1,6.953,16.065c1.858,6.09,3.46,12.148,2.718,18.559a.2.2,0,0,0,.381.1C113.324,497.905,111.25,491.305,109.422,485.535Z" transform="translate(-62.108 -447.614)" fill="#6c7b4a"/>
            <path id="Trazado_117363" data-name="Trazado 117363" d="M173.925,525.828c-5-2.349-10.879-1.556-16.143-.722a25.427,25.427,0,0,0-7.662,2.116c-1.86.947-4.135,2.6-4.6,4.764a.078.078,0,0,0,.131.072,26.56,26.56,0,0,1,2.633-2.761,12.989,12.989,0,0,1,2.969-1.714,31,31,0,0,1,7.211-1.747c5.186-.816,10.288-1.4,15.388.183A.1.1,0,0,0,173.925,525.828Z" transform="translate(-84.806 -476.006)" fill="#6c7b4a"/>
            <path id="Trazado_117364" data-name="Trazado 117364" d="M86.149,526.291a9.773,9.773,0,0,0-4.974-2.594,9.57,9.57,0,0,0-9.524,3.893c-.109.151.14.331.262.193a9.623,9.623,0,0,1,9.423-3.019,9.323,9.323,0,0,1,4.471,2.53c1.286,1.311,2,3.074,3.347,4.289a.085.085,0,0,0,.139-.085A10.576,10.576,0,0,0,86.149,526.291Z" transform="translate(-46.807 -475.627)" fill="#6c7b4a"/>
            <path id="Trazado_117365" data-name="Trazado 117365" d="M57.234,481.552a11.686,11.686,0,0,0-.829-6.588c-2.567-5.9-6.134-7.963-12.377-9.742-9.58-2.731-19.267,2.74-22.439,6.136s1.3-.029,6.774,2.742C30.624,475.244,45.932,485.68,57.234,481.552Z" transform="translate(-20.532 -445.258)" fill="#0ac4bf"/>
            <path id="Trazado_117366" data-name="Trazado 117366" d="M66.736,520.171c-.121-.009-4.513-4.319-9.841-2.9s-9.138,12.3-9.347,17.461,1.332,1.47,3.9-.086,14.059-2.484,14.972-5.955C67.99,522.708,66.736,520.171,66.736,520.171Z" transform="translate(-34.416 -472.258)" fill="#009995"/>
            <path id="Trazado_117367" data-name="Trazado 117367" d="M131.614,504.115c.11.05,2.743,5.612,8.233,6.121s12.822-8.384,14.8-13.158-.742-1.839-3.686-1.264-14.051-2.524-16.108.418C131.314,501.3,131.614,504.115,131.614,504.115Z" transform="translate(-77.655 -460.641)" fill="#0ac4bf"/>
            <path id="Trazado_117368" data-name="Trazado 117368" d="M104.88,486.5c.027-.119,4.957-3.8,4.371-9.282s-10.757-10.909-15.828-11.9-1.656,1.091-.51,3.863.307,14.273,3.6,15.707C102.182,487.355,104.88,486.5,104.88,486.5Z" transform="translate(-56.629 -445.557)" fill="#009995"/>
            <path id="Trazado_117369" data-name="Trazado 117369" d="M166,475.992c.9-.694,4.8,1.208,9.026.34,1.8-.371,8.883-2.272,13.474-.3s6.323,6.806,6.107,4.375-2.018-13.982-7.019-16.2-14.387-4.28-19.463,1.192C164.844,468.938,166,475.992,166,475.992Z" transform="translate(-95.239 -443.938)" fill="#0ac4bf"/>
            <path id="Trazado_117370" data-name="Trazado 117370" d="M174.628,517.846s3.749-5.32,9.263-6.825,9.634,1.165,13.288,4.819,4,12.092,3.557,13.889-1.833-2.088-3.8-2.929-12.035-.744-14.974-1.428S174.628,517.846,174.628,517.846Z" transform="translate(-99.779 -468.971)" fill="#009995"/>
            <path id="Trazado_117371" data-name="Trazado 117371" d="M114.943,452.191c-.059-.2,3.022-.432,4.4-4.2s.036-10.558-3.872-13.476-10.481-6.024-13.5-8.389c-3-2.345-3.1-.906-2.089.858s1,14.044,3.766,19.3C108.977,456.4,114.943,452.191,114.943,452.191Z" transform="translate(-61.041 -424.904)" fill="#0ac4bf"/>
          </g>
          <path id="Trazado_117372" data-name="Trazado 117372" d="M127.421,549.109a4.841,4.841,0,0,1-4.319,2.061c-1.473-.13-2.726-1.01-4.17-1.255-2.764-.469-4.771,2.144-7.465,2.344-3.053.225-5.123-2.2-8.035-2.365-3.192-.186-8.34,3.028-10.276-.959-.179-.368-.72-.033-.542.333,1.41,2.9,4.827,2.386,7.422,1.753a10.521,10.521,0,0,1,3.657-.45,8.267,8.267,0,0,1,2.957,1.086,9.108,9.108,0,0,0,4.305,1.258,8.254,8.254,0,0,0,4.065-1.184,7.417,7.417,0,0,1,2.873-1.242,6.33,6.33,0,0,1,2.761.648c2.681,1.024,5.394.885,7.228-1.588C128.122,549.224,127.665,548.781,127.421,549.109Z" transform="translate(-57.583 -488.607)" fill="#9b4a51"/>
        </g>
      </g>
      <path id="Trazado_117373" data-name="Trazado 117373" d="M832.956,746.9s-.529,1.856-7.334-3.1a41.592,41.592,0,0,1-4.458-3.753c-1.694-1.668-3.11-3.372-3.11-3.372l11.332-1.719c.865,1.059,1.6,2.06,2.239,3C834.923,742.861,835.2,746.135,832.956,746.9Z" transform="translate(-489.256 -424.935)" fill="#e2cfc7"/>
      <path id="Trazado_117374" data-name="Trazado 117374" d="M825.472,729.668c-3.356.587-8.214,1.142-11.619,1.735a54.14,54.14,0,0,1-3.969-4.883l10.769-1.817C823.625,727.671,823.913,727.345,825.472,729.668Z" transform="translate(-485.054 -419.664)" fill="#c99c7b"/>
      <g id="Grupo_70633" data-name="Grupo 70633" transform="translate(333.002 36.003)">
        <path id="Trazado_117469" data-name="Trazado 117469" d="M18.311,0C28.424,0,36.622,2.789,36.622,6.23s-8.2,6.23-18.311,6.23S0,9.67,0,6.23,8.2,0,18.311,0Z" transform="translate(45.551 230.321)" fill="#12263f" opacity="0.72"/>
        <g id="Grupo_70632" data-name="Grupo 70632" transform="translate(0)">
          <path id="Trazado_117375" data-name="Trazado 117375" d="M878.527,184.229c5.773-11.441,17.6-11.383,25.185-3.843,9.587,9.534,13.611,26.931,15.738,42.615,2.556,18.851,2.383,38.187,1.94,57.294-.47,20.228-1.025,40.453-1.544,60.679s-.974,40.484-1.5,60.724c-.023.9-.026,1.823-.036,2.75.281-.2.692.2.575.677-.338,1.36-.665,2.707-.937,4.1-.252,1.288-1.725,1.429-1.921,0a43.213,43.213,0,0,1-.04-6.928q.1-3.87.205-7.74.2-7.441.394-14.883.387-14.587.825-29.171c.569-19.643,1.055-39.292,1.584-58.938.5-18.464,1.187-37.036-.2-55.456a180.3,180.3,0,0,0-3.943-27.051c-1.677-7.23-3.993-14.373-7.483-20.19-3.626-6.044-8.469-10.382-14.079-11.163-5.2-.724-10.687,1.3-14.1,7.264C878.891,185.494,878.244,184.789,878.527,184.229Z" transform="translate(-853.321 -173.033)" fill="#12263f" opacity="0.73"/>
          <g id="Grupo_70631" data-name="Grupo 70631">
            <path id="Trazado_117376" data-name="Trazado 117376" d="M860.169,209.529s15.511-17.883,2.8-31.652c-14.242-15.429-30.658,3.961-30.658,3.961C841.453,190.811,850.568,200.1,860.169,209.529Z" transform="translate(-829.59 -171.385)" fill="#dfab9c"/>
            <ellipse id="Elipse_5256" data-name="Elipse 5256" cx="4.126" cy="19.669" rx="4.126" ry="19.669" transform="translate(0 13.049) rotate(-44.906)" fill="#b69c8f"/>
            <path id="Trazado_117377" data-name="Trazado 117377" d="M891.223,181.577a17.711,17.711,0,0,0-4.258-5.562,15.711,15.711,0,0,0-5.593-3.613s4.743-3.537,8.405-.018C893.946,176.39,891.223,181.577,891.223,181.577Z" transform="translate(-854.82 -170.825)" fill="#985846"/>
          </g>
        </g>
      </g>
      <g id="Grupo_70654" data-name="Grupo 70654" transform="translate(343.584 90.367)">
        <path id="Trazado_117378" data-name="Trazado 117378" d="M892.276,284.113a1.161,1.161,0,1,1-1.237-1.362A1.318,1.318,0,0,1,892.276,284.113Z" transform="translate(-869.853 -282.748)" fill="#ddb366"/>
        <path id="Trazado_117379" data-name="Trazado 117379" d="M898.4,369.4a1.161,1.161,0,1,1-1.237-1.362A1.318,1.318,0,0,1,898.4,369.4Z" transform="translate(-873.005 -326.61)" fill="#ddb366"/>
        <g id="Grupo_70653" data-name="Grupo 70653" transform="translate(0 0.549)">
          <g id="Grupo_70634" data-name="Grupo 70634" transform="translate(10.539 10.084)">
            <ellipse id="Elipse_5257" data-name="Elipse 5257" cx="11.668" cy="10.972" rx="11.668" ry="10.972" transform="translate(0.024 1.459) rotate(-3.585)" fill="#dccdd2"/>
            <path id="Trazado_117380" data-name="Trazado 117380" d="M882.447,328c-6.353,0-11.732-4.616-12.221-10.7a11.25,11.25,0,0,1,2.717-8.241,12.576,12.576,0,0,1,8.669-4.35c6.788-.53,12.737,4.249,13.253,10.657h0a11.254,11.254,0,0,1-2.717,8.242,12.578,12.578,0,0,1-8.668,4.35C883.133,327.989,882.788,328,882.447,328Zm.2-21.951q-.459,0-.924.036a11.2,11.2,0,0,0-7.727,3.87,9.881,9.881,0,0,0-2.391,7.236c.455,5.652,5.732,9.864,11.77,9.393a11.2,11.2,0,0,0,7.726-3.87,9.88,9.88,0,0,0,2.392-7.236C893.058,310.119,888.284,306.052,882.643,306.052Z" transform="translate(-870.19 -304.657)" fill="#ddb366"/>
          </g>
          <g id="Grupo_70635" data-name="Grupo 70635" transform="translate(8.84 8.617)">
            <path id="Trazado_117381" data-name="Trazado 117381" d="M880.643,328.245c-7.228,0-13.35-5.27-13.909-12.214a12.86,12.86,0,0,1,3.1-9.422,14.279,14.279,0,0,1,9.843-4.944c7.73-.6,14.491,4.853,15.079,12.169h0a12.86,12.86,0,0,1-3.1,9.423,14.283,14.283,0,0,1-9.843,4.944C881.421,328.23,881.03,328.245,880.643,328.245Zm.207-25.937q-.554,0-1.116.044a13.6,13.6,0,0,0-9.372,4.7,12.176,12.176,0,0,0-2.94,8.919c.558,6.937,6.989,12.111,14.337,11.536a13.593,13.593,0,0,0,9.372-4.7,12.176,12.176,0,0,0,2.941-8.92h0C893.542,307.3,887.722,302.308,880.85,302.308Z" transform="translate(-866.693 -301.619)" fill="#ddb366"/>
          </g>
          <g id="Grupo_70636" data-name="Grupo 70636" transform="translate(20.888 0)">
            <rect id="Rectángulo_8743" data-name="Rectángulo 8743" width="0.69" height="10.835" transform="translate(0 0.055) rotate(-4.599)" fill="#ddb366"/>
          </g>
          <g id="Grupo_70637" data-name="Grupo 70637" transform="translate(34.584 19.45)">
            <rect id="Rectángulo_8744" data-name="Rectángulo 8744" width="11.132" height="0.69" transform="translate(0 0.869) rotate(-4.478)" fill="#ddb366"/>
          </g>
          <g id="Grupo_70638" data-name="Grupo 70638" transform="translate(0.122 22.145)">
            <rect id="Rectángulo_8745" data-name="Rectángulo 8745" width="11.132" height="0.69" transform="translate(0 0.87) rotate(-4.482)" fill="#ddb366"/>
          </g>
          <g id="Grupo_70639" data-name="Grupo 70639" transform="translate(31.784 3.569)">
            <rect id="Rectángulo_8746" data-name="Rectángulo 8746" width="10.973" height="0.69" transform="translate(0 8.252) rotate(-48.763)" fill="#ddb366"/>
          </g>
          <g id="Grupo_70640" data-name="Grupo 70640" transform="translate(5.177 5.186)">
            <rect id="Rectángulo_8747" data-name="Rectángulo 8747" width="0.69" height="10.957" transform="matrix(0.734, -0.68, 0.68, 0.734, 0, 0.469)" fill="#ddb366"/>
          </g>
          <g id="Grupo_70641" data-name="Grupo 70641" transform="translate(33.35 30.462)">
            <rect id="Rectángulo_8748" data-name="Rectángulo 8748" width="0.69" height="10.957" transform="matrix(0.734, -0.68, 0.68, 0.734, 0, 0.469)" fill="#ddb366"/>
          </g>
          <g id="Grupo_70642" data-name="Grupo 70642" transform="translate(6.091 31.116)">
            <rect id="Rectángulo_8749" data-name="Rectángulo 8749" width="10.974" height="0.69" transform="translate(0 8.252) rotate(-48.76)" fill="#ddb366"/>
          </g>
          <g id="Grupo_70643" data-name="Grupo 70643" transform="translate(23.162 32.702)">
            <rect id="Rectángulo_8750" data-name="Rectángulo 8750" width="0.69" height="10.835" transform="translate(0 0.055) rotate(-4.599)" fill="#ddb366"/>
          </g>
          <g id="Grupo_70644" data-name="Grupo 70644" transform="translate(5.663 15.151)">
            <rect id="Rectángulo_8751" data-name="Rectángulo 8751" width="1.034" height="4.612" transform="matrix(0.405, -0.914, 0.914, 0.405, 0, 0.946)" fill="#ddb366"/>
          </g>
          <g id="Grupo_70645" data-name="Grupo 70645" transform="translate(5.663 15.151)">
            <rect id="Rectángulo_8752" data-name="Rectángulo 8752" width="1.034" height="4.612" transform="matrix(0.405, -0.914, 0.914, 0.405, 0, 0.946)" fill="#ddb366"/>
          </g>
          <g id="Grupo_70646" data-name="Grupo 70646" transform="translate(35.845 25.853)">
            <rect id="Rectángulo_8753" data-name="Rectángulo 8753" width="1.034" height="4.611" transform="matrix(0.405, -0.914, 0.914, 0.405, 0, 0.946)" fill="#ddb366"/>
          </g>
          <g id="Grupo_70647" data-name="Grupo 70647" transform="translate(28.881 33.334)">
            <rect id="Rectángulo_8754" data-name="Rectángulo 8754" width="1.035" height="4.575" transform="matrix(0.877, -0.48, 0.48, 0.877, 0, 0.497)" fill="#ddb366"/>
          </g>
          <g id="Grupo_70648" data-name="Grupo 70648" transform="translate(14.078 6.316)">
            <rect id="Rectángulo_8755" data-name="Rectángulo 8755" width="1.035" height="4.576" transform="translate(0 0.497) rotate(-28.716)" fill="#ddb366"/>
          </g>
          <g id="Grupo_70649" data-name="Grupo 70649" transform="translate(5.9 26.882)">
            <rect id="Rectángulo_8756" data-name="Rectángulo 8756" width="4.608" height="1.035" transform="translate(0 2.181) rotate(-28.248)" fill="#ddb366"/>
          </g>
          <g id="Grupo_70650" data-name="Grupo 70650" transform="translate(35.249 13.3)">
            <rect id="Rectángulo_8757" data-name="Rectángulo 8757" width="4.608" height="1.035" transform="translate(0 2.181) rotate(-28.252)" fill="#ddb366"/>
          </g>
          <g id="Grupo_70651" data-name="Grupo 70651" transform="translate(27.704 5.226)">
            <rect id="Rectángulo_8758" data-name="Rectángulo 8758" width="4.573" height="1.035" transform="translate(0 4.119) rotate(-64.259)" fill="#ddb366"/>
          </g>
          <g id="Grupo_70652" data-name="Grupo 70652" transform="translate(16.174 34.282)">
            <rect id="Rectángulo_8759" data-name="Rectángulo 8759" width="4.566" height="1.035" transform="matrix(0.262, -0.965, 0.965, 0.262, 0, 4.406)" fill="#ddb366"/>
          </g>
          <path id="Trazado_117382" data-name="Trazado 117382" d="M849.875,329.485a1.334,1.334,0,0,1,1.557.991c.049.611-.568,1.158-1.379,1.221a1.333,1.333,0,0,1-1.557-.991C848.446,330.1,849.064,329.548,849.875,329.485Z" transform="translate(-848.493 -307.329)" fill="#ddb366"/>
          <path id="Trazado_117383" data-name="Trazado 117383" d="M860.165,293.481a1.306,1.306,0,0,1,.164,1.822,1.346,1.346,0,0,1-1.823-.324,1.305,1.305,0,0,1-.164-1.822A1.345,1.345,0,0,1,860.165,293.481Z" transform="translate(-853.403 -288.529)" fill="#ddb366"/>
          <path id="Trazado_117384" data-name="Trazado 117384" d="M930.814,359.172a1.306,1.306,0,0,1,.165,1.822,1.346,1.346,0,0,1-1.824-.324,1.305,1.305,0,0,1-.164-1.822A1.346,1.346,0,0,1,930.814,359.172Z" transform="translate(-889.736 -322.312)" fill="#ddb366"/>
          <path id="Trazado_117385" data-name="Trazado 117385" d="M925.5,291.248a1.346,1.346,0,0,1,1.826-.308,1.305,1.305,0,0,1-.181,1.82,1.346,1.346,0,0,1-1.826.308A1.306,1.306,0,0,1,925.5,291.248Z" transform="translate(-887.849 -287.386)" fill="#ddb366"/>
          <path id="Trazado_117386" data-name="Trazado 117386" d="M860.638,361.612a1.346,1.346,0,0,1,1.811-.386,1.305,1.305,0,0,1-.1,1.826,1.345,1.345,0,0,1-1.811.386A1.305,1.305,0,0,1,860.638,361.612Z" transform="translate(-854.519 -323.546)" fill="#ddb366"/>
          <path id="Trazado_117387" data-name="Trazado 117387" d="M938.361,322.535a1.334,1.334,0,0,1,1.557.991c.05.611-.568,1.158-1.379,1.222a1.334,1.334,0,0,1-1.557-.991C936.932,323.145,937.549,322.6,938.361,322.535Z" transform="translate(-893.998 -303.755)" fill="#ddb366"/>
          <path id="Trazado_117388" data-name="Trazado 117388" d="M889.954,331.567c-.569-1.418-1.917-2.424-3-3.485a26.421,26.421,0,0,0-3.713-3.088c-.586-.4-1.292.374-.95.938a21.481,21.481,0,0,0,2.977,3.815c1.043,1.087,2.071,2.429,3.511,2.976A.951.951,0,0,0,889.954,331.567Z" transform="translate(-865.831 -304.966)" fill="#fff5ee"/>
          <path id="Trazado_117389" data-name="Trazado 117389" d="M901.206,328.635a15.172,15.172,0,0,0-3.217-2.036.87.87,0,0,0-1.058,1.353c.79.942,3.835,5.214,5.329,3.465C903.044,330.5,901.885,329.191,901.206,328.635Z" transform="translate(-873.284 -305.797)" fill="#fff5ee"/>
          <path id="Trazado_117390" data-name="Trazado 117390" d="M901.536,316.8a4.921,4.921,0,0,0-3.358-2.625.319.319,0,0,0-.358.461,4.929,4.929,0,0,0,3.38,2.6A.3.3,0,0,0,901.536,316.8Z" transform="translate(-873.842 -299.454)" fill="#fff5ee"/>
        </g>
      </g>
      <path id="Trazado_117391" data-name="Trazado 117391" d="M824.845,733.861s-.529,1.856-7.335-3.1a35.608,35.608,0,0,1-2.943-2.429q-.823-.743-1.656-1.569c-1-.986-2-2.045-2.968-3.128-1.438-1.613-2.8-3.284-3.969-4.882-2.807-3.837-4.478-7.233-3.322-8.258,2.477-2.2,7.1-.427,13.635,5.989.155.151.306.3.457.452a65.527,65.527,0,0,1,4.532,4.979c.865,1.059,1.6,2.06,2.239,3C826.812,729.819,827.084,733.093,824.845,733.861Z" transform="translate(-481.144 -411.894)" fill="#985846" opacity="0.89"/>
      <g id="Grupo_70661" data-name="Grupo 70661" transform="translate(262.199)">
        <path id="Trazado_117392" data-name="Trazado 117392" d="M747.734,103.918c-5.252.48-8.5,2.572-10.507,10.777s-3.345,31.965-2.788,34.292-.688,4.621,5.912,6.23,22.939.792,23.876-1.88.194-14.679-1.949-24.946S757.12,103.061,747.734,103.918Z" transform="translate(-708.389 -100.396)" fill="#12263f"/>
        <path id="Trazado_117393" data-name="Trazado 117393" d="M837.641,717.241s1.15,5.982-1.32,10.315-4.09,2.07-5.157.985a41.809,41.809,0,0,1-6.19-8.422c-2.247-4.142-5.187-7.749-5.841-10.331a27.825,27.825,0,0,1-.154-5.5c.094-1.29.267-.656.737-1.706C820.647,700.5,835.573,710.32,837.641,717.241Z" transform="translate(-751.899 -408.142)" fill="#87524e"/>
        <path id="Trazado_117394" data-name="Trazado 117394" d="M820.1,702.216s-2.172.372.052,6.214c1.909,5.019,12.054,20.2,13.924,20.418s3.312-4.323,3.648-6.057.926-5.066-.729-7.675S823.617,698.161,820.1,702.216Z" transform="translate(-752.019 -407.731)" fill="#6b393a"/>
        <g id="Grupo_70655" data-name="Grupo 70655" transform="translate(67.703 291.778)">
          <path id="Trazado_117395" data-name="Trazado 117395" d="M822.849,708.927c2.857,5.2,10.793,18.807,13.072,15.915.43-.551-.131-.951-.164-1.294a.254.254,0,0,1,.028-.156.172.172,0,0,1,.176-.1c.332,0,.935.465,1.141-.859.042-.247.073-.5.1-.759.016-.084.023-.172.032-.253a.359.359,0,0,1,.026-.1l0-.008c.093-.317.413-.528.433-.881.035-.669.036-1.37.009-2.062l0-.016a1.688,1.688,0,0,0,0-.191.893.893,0,0,1,.07-.343,2.628,2.628,0,0,0,.28-.89c-.035-.438-.086-.871-.162-1.287-.073-.46.262-1.126.154-1.54a9.794,9.794,0,0,0-1.367-2.552c-.681-1.649-11.577-14.79-13.8-14.117C819.008,698.6,819.989,703.718,822.849,708.927Z" transform="translate(-820.327 -697.402)" fill="#fda68a"/>
          <path id="Trazado_117396" data-name="Trazado 117396" d="M856.266,733.684h0Z" transform="translate(-838.809 -716.06)" fill="#fda68a"/>
          <path id="Trazado_117397" data-name="Trazado 117397" d="M849.391,746.594a12.035,12.035,0,0,0,.895,1.4.174.174,0,0,0,.083.042.254.254,0,0,1,.028-.156.172.172,0,0,1,.176-.1,13.9,13.9,0,0,0-.737-1.4,4.931,4.931,0,0,0-.953-1.35c-.052-.043-.149.033-.143.083A4.306,4.306,0,0,0,849.391,746.594Z" transform="translate(-834.938 -721.887)" fill="#e08970"/>
          <path id="Trazado_117398" data-name="Trazado 117398" d="M851.117,740.724a3.39,3.39,0,0,1,1.073,1.328c.134.284.256.58.376.868.068.159.136.318.211.474.029.077.064.143.093.22a1.208,1.208,0,0,1,.081.146.066.066,0,0,0-.014.065.107.107,0,0,0,.079.086l.007,0c.016-.084.023-.172.032-.253a.358.358,0,0,1,.026-.1l0-.008a.427.427,0,0,1-.041-.09c-.068-.185-.135-.37-.209-.552-.126-.339-.247-.687-.395-1.019a2.107,2.107,0,0,0-1.292-1.236C851.1,740.635,851.087,740.7,851.117,740.724Z" transform="translate(-836.153 -719.641)" fill="#e08970"/>
          <path id="Trazado_117399" data-name="Trazado 117399" d="M853.054,735.486a6.789,6.789,0,0,1,.978,1.186,4.238,4.238,0,0,1,.328.695c.063.169.087.369.157.536a1.688,1.688,0,0,0,0-.191.892.892,0,0,1,.07-.343l-.027-.095a3.844,3.844,0,0,0-.308-.736,2.557,2.557,0,0,0-1.161-1.108A.036.036,0,0,0,853.054,735.486Z" transform="translate(-837.153 -716.957)" fill="#e08970"/>
          <path id="Trazado_117400" data-name="Trazado 117400" d="M854.163,730.736a2.826,2.826,0,0,1,1.081,1.863.049.049,0,0,1-.1.017,4.456,4.456,0,0,0-.4-.989,5.447,5.447,0,0,0-.61-.858C854.129,730.753,854.145,730.722,854.163,730.736Z" transform="translate(-837.714 -714.543)" fill="#e08970"/>
        </g>
        <path id="Trazado_117401" data-name="Trazado 117401" d="M836.486,733.318a14.959,14.959,0,0,1,1.843-6.28c1.683-2.8,3.847-4.8,4.744-3.853s-1.089-2.452-3.89-5.82c-1.593-1.916-8,2.056-8.067,6.493S836.5,733.909,836.486,733.318Z" transform="translate(-758.172 -415.636)" fill="#87524e"/>
        <path id="Trazado_117402" data-name="Trazado 117402" d="M796.242,412.917c.934,9.607.256,28.008-.846,38.378-2.047,19.313-9.729,18.04-13.819,2.473-.74-2.819-5.023-16.432-8.039-30.744a211.924,211.924,0,0,1-4.008-24.757c-.106-1.4-.168-2.694-.173-3.849-.052-9.461,6.964-19.481,13.871-12.68C784.948,383.433,793.453,384.225,796.242,412.917Z" transform="translate(-726.411 -242.139)" fill="#fda68a"/>
        <path id="Trazado_117403" data-name="Trazado 117403" d="M813.2,605.873s-.3-8.741-1.7-29.5c-1.324-19.617-.94-45.109-4.074-54.752s-15.864-1.62-13.148,17.5c1.189,8.368,13.174,68.358,13.837,71.972C809.766,620.076,813.2,605.873,813.2,605.873Z" transform="translate(-739.035 -313.12)" fill="#fda68a"/>
        <path id="Trazado_117404" data-name="Trazado 117404" d="M730.659,421.614c-.433,2.894-.87,5.941-1.263,9.113-3.537,28.573-6.236,35.5-9.51,38.085-2.485,1.971-7.839-12.92-9.586-22.8A320.035,320.035,0,0,1,707.385,414c-.864-32.927,4.52-39.972,4.52-39.972s8.871,11.838,12,13.693c4.426,2.625,8.616,2.928,9.442,8.332a20.353,20.353,0,0,1,.194,2.566C733.613,403.975,732.126,411.954,730.659,421.614Z" transform="translate(-694.493 -239.325)" fill="#fda68a"/>
        <path id="Trazado_117405" data-name="Trazado 117405" d="M713.43,558.135c.426,11.074,1.656,18.613,1.683,30.135.01,4.391,3.956,3.048,6.268-5.045.771-2.7,5.155-35.221,6.272-48.3,1.921-22.5-7.785-42.206-12.551-25.255S712.843,542.859,713.43,558.135Z" transform="translate(-697.042 -305.794)" fill="#fda68a"/>
        <path id="Trazado_117406" data-name="Trazado 117406" d="M709.8,274.928a9.134,9.134,0,0,0,.148,1.154c1.958,10.69,19.815,7.869,22.354,1.761a6.662,6.662,0,0,1,1.514-2.4c1.63-1.513,3.614-.541,5.792,1.687a42.609,42.609,0,0,1,3.884,4.793c4.439,6.16,21.71-1.118,20.589-11.091a70.121,70.121,0,0,0-2.893-13.408c-1.417-4.537-3.189-8.936-5.083-13.576-3.665-8.98-1.82-22.384.621-33.7.465-2.153,4.218-34.231-1.149-39.3-5.662-5.348-8.665-3.037-11.706-10.286-3.917-9.337,2-13.062,2.534-15.656.986-4.815-16.822.94-15.92,7.187a39.559,39.559,0,0,1,.573,9.822c-.913,7.737-14.8,8.932-14.8,8.932s-1.453,15.892-2.073,25.669,4.384,14.058,5.373,18.536c1.2,5.436.388,5.947.3,12.261-.054,4.083.3,11.309-1.692,14.432C713.094,249.7,708.946,262.9,709.8,274.928Z" transform="translate(-695.724 -120.574)" fill="#fda68a"/>
        <path id="Trazado_117407" data-name="Trazado 117407" d="M765.348,161.039a26.127,26.127,0,0,1-2.375,5.079c-3.8,6.49-8.781,1.912-10.69-2.637C744.294,144.451,765.348,161.039,765.348,161.039Z" transform="translate(-716.7 -126.345)" fill="#e08970"/>
        <path id="Trazado_117408" data-name="Trazado 117408" d="M793,191.763s12.116,6.411,13.974,14.588,7.706,45.875,5.781,51c-2.444,6.511-5.374,10.833-7.926,5.822s-4.726-19.357-5.823-24.278c-2.2-9.842-2.514-27.082-3.715-33.329S793,191.763,793,191.763Z" transform="translate(-738.572 -145.59)" fill="#fda68a"/>
        <path id="Trazado_117409" data-name="Trazado 117409" d="M763.865,119.31a32.811,32.811,0,0,1-2.318,10.533c-1.742,4.039-7.6,11.792-13.188,5.822a26.422,26.422,0,0,1-7.129-13.714c-.138-.894-1.192-10.37-.849-13.428a11.962,11.962,0,0,1,4.575-8.426c4.46-3.068,11.965-4.963,16.63,2.341C764.607,107.169,764.2,115.739,763.865,119.31Z" transform="translate(-711.475 -97.05)" fill="#fda68a"/>
        <path id="Trazado_117410" data-name="Trazado 117410" d="M721.649,371.968a4.69,4.69,0,0,1-4.824.732c-.139-.062-.236.192-.1.266a3.99,3.99,0,0,0,4.98-.921C721.733,372.005,721.693,371.934,721.649,371.968Z" transform="translate(-699.311 -238.259)" fill="#485a7e"/>
        <g id="Grupo_70656" data-name="Grupo 70656" transform="translate(37.663 114.695)">
          <path id="Trazado_117411" data-name="Trazado 117411" d="M760.549,334.063a1.265,1.265,0,0,0-.047-.3.153.153,0,0,0-.014-.043s.014.131,0-.013a.538.538,0,0,0-.083-.22,1.506,1.506,0,0,0-.409-.444,1.11,1.11,0,0,0-.849-.2.734.734,0,0,0-.092.02l-.049.017-.019.008-.025.012-.013,0h.006c-.076.036-.089.041-.01,0a.391.391,0,0,0-.1.018.8.8,0,0,0-.22.168.538.538,0,0,0-.121.5,3.168,3.168,0,0,0,.258.664,1.824,1.824,0,0,0,.128.2.522.522,0,0,0,.042.05c-.057-.059-.008-.011.006.011a.973.973,0,0,0,.138.169c-.026-.025-.01-.012,0,.01l.049.072a1.4,1.4,0,0,0,.158.173c.016.011.016.012,0,0l.02.027c.012.019.028.036.042.053.064.081.141.144.205.224a3.109,3.109,0,0,0,.428.439.138.138,0,0,0,.208-.176c-.1-.168-.194-.341-.289-.512a2.515,2.515,0,0,1-.115-.278l-.028-.066a.373.373,0,0,0-.016-.046l0-.019a.446.446,0,0,0-.027-.111.675.675,0,0,0-.048-.131c.009.014,0,.058,0,0s-.01-.1-.02-.143a.527.527,0,0,0-.023-.085c-.006-.025-.007-.022,0,.009s0,.033,0-.035a1.428,1.428,0,0,0-.033-.182c-.011-.045-.026-.089-.038-.135.014,0,.028.007.041.013-.005,0,0,0-.011-.007l.014.008h0c.017.01.036.019.051.029s.045.028.066.044.045.059-.007-.01c.032.041.077.073.111.114.016.018.064.086,0-.009.016.022.037.034.052.053a.9.9,0,0,1,.045.08c0,.015.015.05.016.054a.364.364,0,0,0,.12.181c-.042.19.221.332.3.139.014-.034.022-.069.033-.1A.354.354,0,0,0,760.549,334.063Z" transform="translate(-758.482 -332.833)" fill="#ba7261"/>
          <path id="Trazado_117412" data-name="Trazado 117412" d="M760.743,334.822c.041.031.046.019.006,0h-.006Z" transform="translate(-759.645 -333.856)" fill="#ba7261"/>
          <path id="Trazado_117413" data-name="Trazado 117413" d="M759.429,332.991h0Z" transform="translate(-758.968 -332.914)" fill="#ba7261"/>
        </g>
        <path id="Trazado_117414" data-name="Trazado 117414" d="M693.263,681.722s-1.273,5.951,1.106,10.345,4.046,2.171,5.135,1.113a41.569,41.569,0,0,0,6.362-8.265c2.332-4.085,5.346-7.618,6.054-10.183a27.866,27.866,0,0,0,.268-5.5c-.067-1.292-.254-.663-.7-1.723C710.6,665.409,695.474,674.854,693.263,681.722Z" transform="translate(-687.104 -390.099)" fill="#87524e"/>
        <path id="Trazado_117415" data-name="Trazado 117415" d="M711.154,667.106s2.163.426-.18,6.212c-2.013,4.97-12.47,19.891-14.344,20.066s-3.221-4.4-3.522-6.146-.82-5.087.888-7.655S707.723,662.963,711.154,667.106Z" transform="translate(-687.037 -389.654)" fill="#6b393a"/>
        <g id="Grupo_70657" data-name="Grupo 70657" transform="translate(6.433 274.687)">
          <path id="Trazado_117416" data-name="Trazado 117416" d="M709.546,673.743c-2.964,5.129-11.181,18.533-13.4,15.585-.419-.562.151-.947.191-1.29a.259.259,0,0,0-.024-.157.174.174,0,0,0-.174-.107c-.332-.007-.944.442-1.123-.887-.036-.248-.063-.5-.08-.761-.015-.084-.02-.172-.027-.254a.359.359,0,0,0-.024-.1l0-.008c-.086-.319-.4-.538-.414-.891-.02-.67-.008-1.371.034-2.062l0-.016a1.676,1.676,0,0,1,0-.191.9.9,0,0,0-.063-.345,2.636,2.636,0,0,1-.262-.9,12.913,12.913,0,0,1,.188-1.282c.083-.458-.238-1.132-.122-1.543a9.766,9.766,0,0,1,1.42-2.518c.716-1.631,11.881-14.5,14.085-13.77C713.6,663.513,712.512,668.606,709.546,673.743Z" transform="translate(-694.186 -662.216)" fill="#fda68a"/>
          <path id="Trazado_117417" data-name="Trazado 117417" d="M699.414,710.809a12,12,0,0,1-.923,1.373.169.169,0,0,1-.084.039.258.258,0,0,0-.024-.157.174.174,0,0,0-.174-.107,13.723,13.723,0,0,1,.766-1.378,4.893,4.893,0,0,1,.981-1.326c.052-.042.148.036.141.086A4.28,4.28,0,0,1,699.414,710.809Z" transform="translate(-696.255 -686.4)" fill="#e08970"/>
          <path id="Trazado_117418" data-name="Trazado 117418" d="M697.649,704.9a3.368,3.368,0,0,0-1.1,1.3c-.14.28-.269.574-.394.859-.071.157-.143.314-.221.469-.031.076-.067.141-.1.218a1.248,1.248,0,0,0-.083.144.067.067,0,0,1,.012.066.107.107,0,0,1-.081.084l-.007,0c-.015-.084-.019-.172-.027-.254a.358.358,0,0,0-.024-.1l0-.008a.41.41,0,0,0,.043-.089c.071-.183.143-.366.221-.547.133-.335.261-.681.416-1.008a2.1,2.1,0,0,1,1.317-1.2C697.667,704.811,697.68,704.877,697.649,704.9Z" transform="translate(-694.926 -684.126)" fill="#e08970"/>
          <path id="Trazado_117419" data-name="Trazado 117419" d="M696.306,699.615a6.74,6.74,0,0,0-1,1.161,4.152,4.152,0,0,0-.342.686c-.067.168-.095.367-.169.532a1.691,1.691,0,0,1,0-.191.893.893,0,0,0-.063-.345l.029-.094a3.806,3.806,0,0,1,.323-.728,2.535,2.535,0,0,1,1.184-1.078A.036.036,0,0,1,696.306,699.615Z" transform="translate(-694.467 -681.418)" fill="#e08970"/>
          <path id="Trazado_117420" data-name="Trazado 117420" d="M694.807,697.734v0Z" transform="translate(-694.505 -680.481)" fill="#fda68a"/>
          <path id="Trazado_117421" data-name="Trazado 117421" d="M695.758,694.839a2.809,2.809,0,0,0-1.12,1.836.049.049,0,0,0,.1.019,4.4,4.4,0,0,1,.418-.979,5.437,5.437,0,0,1,.627-.843C695.792,694.857,695.777,694.826,695.758,694.839Z" transform="translate(-694.418 -678.991)" fill="#e08970"/>
        </g>
        <path id="Trazado_117422" data-name="Trazado 117422" d="M701.564,697.68a15.006,15.006,0,0,0-1.712-6.324c-1.624-2.842-3.747-4.894-4.663-3.97s1.14-2.425,4.009-5.722c1.632-1.875,7.955,2.255,7.929,6.693S701.541,698.269,701.564,697.68Z" transform="translate(-688.156 -397.292)" fill="#87524e"/>
        <path id="Trazado_117423" data-name="Trazado 117423" d="M712.906,193.956s-15.081,1.282-18.214,7.892-14.471,36.119-13.712,45.734c.891,11.275,6.666.283,10.868-5.062,2.862-3.641,8.122-12.939,9.63-16.167C705.2,218.387,712.906,193.956,712.906,193.956Z" transform="translate(-680.943 -146.718)" fill="#fda68a"/>
        <path id="Trazado_117424" data-name="Trazado 117424" d="M725.3,257.711s-3.7-1.073-1.731-7.813-5.684-18.794-2.527-30.551,2.1-24.418,2.1-24.418l7.808-2.8s4.513,8.113,10.95,8.6,13.7-8.969,13.7-8.969a38.192,38.192,0,0,1,8.772,5.866s1.085,24.7-.841,32.985c-1.391,5.986-2.347,10.41-3.745,19.284-.369,2.342,3.087,6.266-.287,7.774-2.438,1.09-11.1,5.94-18.962,5.3C732.449,262.306,725.3,257.711,725.3,257.711Z" transform="translate(-701.167 -145.59)" fill="#0ac4bf"/>
        <path id="Trazado_117425" data-name="Trazado 117425" d="M762.056,380.67c-.14,1.885-2.709,3.393-6.423,7.129s-19.733,1.175-21.53.477c-1.647-.632-1.982-7.084-2.913-8.769v-.011a.963.963,0,0,0-.27-.333c-.2-.133-.391.044-.577.432-.912,1.874-1.7,8.659-1.7,8.681-.187,0-26.873-4.767-28.307-7.505-1.452-2.761.354-4.912,1.34-11.8A92.264,92.264,0,0,1,707.3,346.8c1.527-3.648,3.472-6.53,3.845-9.2.949-6.829.958-4.6,0-9.014-.652-2.982,13.022-.377,16.224-.6,2.756-.189.782,3.393,1.48,4.3a.6.6,0,0,0,.568.21c.037,0,.065-.011.1-.011,1.852-.255.093-4.268,3.472-3.9a60.135,60.135,0,0,0,8.647-1.275c7.251-1.552,9.615.743,9.783,1.275.378,1.178-.67,3.88-.268,7.368a17.165,17.165,0,0,0,2.68,6.8C758.194,349.461,762.2,378.785,762.056,380.67Z" transform="translate(-690.635 -215.024)" fill="#339ce9"/>
        <path id="Trazado_117426" data-name="Trazado 117426" d="M764.557,434.093c-.051.621,1.057,8.288,1.745,8.625s10.536,3.2,14.867,2.02c4.693-1.281,7.482-1.281,11.8-6.058,4.025-4.448,3.644-4.712,3.565-6.058s-.578-6.492-1.174-5.946-3.375,5.721-7.518,7.965-15.625,2.037-17.924,1.3S764.74,431.863,764.557,434.093Z" transform="translate(-723.942 -266.377)" fill="#145b8f"/>
        <path id="Trazado_117427" data-name="Trazado 117427" d="M763.125,346.2a42.118,42.118,0,0,0-1.26,16.32c.131,1.087.394,2.14-.2,3.082-.612.965-1.357,1.741-1.925,2.772a16.249,16.249,0,0,0-1.374,3.259c-.122.388-.219.787-.315,1.187a28.95,28.95,0,0,0,.858,7.084c.437,1.563,1.549,3.492,1.82,5.344a.959.959,0,0,0-.253-.333c-.184-.133-.368.044-.543.432a11.882,11.882,0,0,0-.858-2.727,21.193,21.193,0,0,1-1.33-4.568,35.63,35.63,0,0,1-.429-5.244c-.035-1.4-.026-2.794-.035-4.169-.017-3.482.017-6.974.114-10.444.175-6.73.508-13.46,1.138-20.156a.551.551,0,0,0,.534.21c.035,0,.061-.011.1-.011-.28,3.714-.543,7.439-.726,11.165q-.512,10.477-.411,20.987c.166-.432.341-.843.516-1.22a15.626,15.626,0,0,1,1.208-2.206c.245-.377.5-.743.77-1.087a4.342,4.342,0,0,0,.788-1.108A3.93,3.93,0,0,0,761.27,363q-.092-.748-.158-1.5c-.1-1.053-.149-2.107-.166-3.171a43,43,0,0,1,1.636-12.318C762.705,345.6,763.248,345.784,763.125,346.2Z" transform="translate(-720.198 -220.818)" fill="#cc9e86"/>
        <path id="Trazado_117428" data-name="Trazado 117428" d="M781.876,341.423a40.09,40.09,0,0,1,.417-5.362c.121-.832.278-1.655.44-2.478s.422-1.668.5-2.512a.157.157,0,0,0-.293-.087,11.5,11.5,0,0,0-.811,2.532c-.208.846-.368,1.708-.507,2.571a36.869,36.869,0,0,0-.455,5.337,29.543,29.543,0,0,0,1.616,10.635.107.107,0,1,0,.2-.062c-.312-1.776-.677-3.519-.865-5.322A46.219,46.219,0,0,1,781.876,341.423Z" transform="translate(-732.485 -217.146)" fill="#cc9e86"/>
        <path id="Trazado_117429" data-name="Trazado 117429" d="M741.828,331.581a8.142,8.142,0,0,0-.021-.828c-.024-.194-.1-.4-.112-.591a.113.113,0,1,0-.225,0c-.037.4-.144.767-.161,1.183-.02.473-.038.946-.046,1.419q-.023,1.349-.046,2.7a45.757,45.757,0,0,1-.332,5.473,19.411,19.411,0,0,1-3.665,9.03c-.082.11.052.265.145.159a17.457,17.457,0,0,0,4.066-8.79,38.955,38.955,0,0,0,.373-5.531c.012-.934.019-1.869.028-2.8C741.835,332.527,741.834,332.054,741.828,331.581Z" transform="translate(-709.871 -216.703)" fill="#cc9e86"/>
        <path id="Trazado_117430" data-name="Trazado 117430" d="M777.385,338.248a32.269,32.269,0,0,1,.135-3.356c.058-.617.15-1.228.238-1.84a3.235,3.235,0,0,0,.032-1.381.074.074,0,0,0-.126-.036c-.621.71-.641,2-.744,2.935a22,22,0,0,0-.1,3.679,25.214,25.214,0,0,0,1.389,6.923.09.09,0,1,0,.172-.052A26.535,26.535,0,0,1,777.385,338.248Z" transform="translate(-730.231 -217.509)" fill="#cc9e86"/>
        <path id="Trazado_117431" data-name="Trazado 117431" d="M700.142,419.245c-1.288.225-1.474,7.024-1.949,8.094s1.711,4.581,5.334,6.064,24.763,8.374,25.258,6.133c.541-2.448,1.349-9.534,0-9.975-2.914-.953-14.123-1.779-21.939-4.6C702.809,423.5,700.563,419.171,700.142,419.245Z" transform="translate(-689.781 -262.576)" fill="#145b8f"/>
        <path id="Trazado_117432" data-name="Trazado 117432" d="M744.323,334.347s9.713.879,12.869.52,8.012-3.028,8.533-2.086c.286.517.03,2.713.057,4,.023,1.053.013,1.974-.458,2.159-1.042.409-11.631,2.278-17.578,1.252s-18.927-2.236-19.587-3.223-1.462-3.295,0-3.549S731.131,333.388,744.323,334.347Z" transform="translate(-704.802 -218.008)" fill="#6b393a"/>
        <path id="Trazado_117433" data-name="Trazado 117433" d="M723.5,334.094c-.128.67.2,1.092.155,2.228-.048,1.253-.368,1.606.08,1.882.853.525,12.842,2.546,16.082,2.546s6.279.9,9.326,0c3.124-.919,3.747-3.184,2.518-3.552s-10.615-2.289-15.531-2.92S723.75,332.777,723.5,334.094Z" transform="translate(-702.813 -218.433)" fill="#87524e"/>
        <path id="Trazado_117434" data-name="Trazado 117434" d="M789.141,333.386c.307.28,1.959,2.475,1.846,3.333s-.9,3.858-.561,4.072,1.62.275,1.843,0a16.251,16.251,0,0,0,.615-5.284,4.067,4.067,0,0,0-1.452-2.736C790.929,332.554,788.694,332.977,789.141,333.386Z" transform="translate(-736.555 -218.076)" fill="#145b8f"/>
        <path id="Trazado_117435" data-name="Trazado 117435" d="M739.508,331.577c-.306.28-1.959,2.475-1.846,3.333s.9,3.858.561,4.072-1.62.275-1.844,0a16.267,16.267,0,0,1-.614-5.284,4.067,4.067,0,0,1,1.452-2.736C737.72,330.745,739.955,331.168,739.508,331.577Z" transform="translate(-709.111 -217.145)" fill="#145b8f"/>
        <path id="Trazado_117436" data-name="Trazado 117436" d="M754.231,335.392c-.35.655-.712,6.139-.436,6.162s1.459.391,1.566.084.383-6.035.66-6.114S754.558,334.779,754.231,335.392Z" transform="translate(-718.358 -219.322)" fill="#6b393a"/>
        <path id="Trazado_117437" data-name="Trazado 117437" d="M780.992,350.481c-.154,0-.154.262,0,.262S781.146,350.481,780.992,350.481Z" transform="translate(-732.336 -227.214)" fill="#cc9e86"/>
        <g id="Grupo_70658" data-name="Grupo 70658" transform="translate(0.009 88.045)">
          <path id="Trazado_117438" data-name="Trazado 117438" d="M699.726,335.072c-2.972-1.727-4.415-1.052-6.249-5.488-.224-.543-1.435-7.262-2.1-8.346-4.28-6.945-7.9-17.383-9.575-24.9-2.171-9.8-.009-22.862,5.146-16.836,5.706,6.677,6.048,11.4,6.6,21.2.385,6.888,2.083,18.3,7.772,21.547a4.957,4.957,0,0,1,1.821,2.092c.052.105.1.211.14.316-.009.01,4.893,9.392-1.409,3.147a2.92,2.92,0,0,0-.595-.48c-1.191-.681-.945,1.545.762,3.857,1.619,2.2,4.507,2.005,4.945,2.993S701.313,335.994,699.726,335.072Z" transform="translate(-680.963 -277.967)" fill="#fda68a"/>
        </g>
        <path id="Trazado_117439" data-name="Trazado 117439" d="M715.4,364.836s-5.342,5.466-5.565,5.548-1.7,7.907-1.15,8.077a15.114,15.114,0,0,0,12.125-4.321c5.1-5.3,1.834-23.818.94-23.138S717.972,362.725,715.4,364.836Z" transform="translate(-695.149 -227.472)" fill="#339ce9"/>
        <path id="Trazado_117440" data-name="Trazado 117440" d="M723.135,376.739a4.46,4.46,0,0,0-.821-.579,7.6,7.6,0,0,0,2.019-3.03c.052.105.168.357.211.462C724.536,373.6,729.437,382.985,723.135,376.739Z" transform="translate(-702.219 -238.861)" fill="#fda68a"/>
        <g id="Grupo_70659" data-name="Grupo 70659" transform="translate(31.164 45.138)">
          <path id="Trazado_117441" data-name="Trazado 117441" d="M767.647,190.7c-.273-.723-.866-1.258-1.59-1.009a.164.164,0,0,0,0,.3c2.015.629.9,3.708.415,5.158a35.014,35.014,0,0,1-2.344,5.243c-1.861,3.535-3.807,7.021-5.779,10.483q-1.555,2.732-3.151,5.437c-3.38-6.16-6.777-12.437-8.622-19.382-.264-.993-.495-2-.687-3.008-.167-.881-.484-2.108.2-2.816.242-.251-.116-.634-.363-.4-1.092,1.049-.483,3.023-.206,4.324a47.608,47.608,0,0,0,1.609,5.711,80.248,80.248,0,0,0,4.653,10.514c.994,1.922,2.03,3.817,3.068,5.712-1.239.2-2.213,1.956-2.213,4.124,0,2.3,1.094,4.163,2.442,4.163s2.451-1.861,2.451-4.163c0-2.05-.869-3.741-2.016-4.089q3.374-5.719,6.583-11.552c2.012-3.66,4.337-7.389,5.377-11.555A5.554,5.554,0,0,0,767.647,190.7Zm-12.575,31.423c-.622,0-1.121-1.056-1.121-2.36s.5-2.36,1.121-2.36,1.111,1.065,1.111,2.36S755.685,222.127,755.072,222.127Z" transform="translate(-745.101 -189.634)" fill="#f2e7e1"/>
        </g>
        <path id="Trazado_117442" data-name="Trazado 117442" d="M766.635,186.468c-.206-.08-.321.262-.145.383,1,.685.513,2.271.21,3.251-.429,1.386-.872,2.767-1.349,4.133A44.461,44.461,0,0,1,761.917,202c-1.17,2.006-3.6,5.9-6.037,3.637A9.663,9.663,0,0,1,754,202.561q-.986-2.124-1.813-4.334a80.138,80.138,0,0,1-2.814-9.864c-.051-.218-.33-.123-.3.091a53.152,53.152,0,0,0,2.764,10.107q.876,2.375,1.935,4.657a8.112,8.112,0,0,0,2.042,3.057c2.43,1.912,4.728-1.088,6.019-3.127a40.922,40.922,0,0,0,3.927-8.57,52.6,52.6,0,0,0,1.627-5.163C767.626,188.393,767.718,186.889,766.635,186.468Z" transform="translate(-715.979 -142.861)" fill="#f2e7e1"/>
        <path id="Trazado_117443" data-name="Trazado 117443" d="M800.477,244.089c.135-1.021,14.808-6.976,16.284-7.956.733-.486-2.173-10.338-4.439-17.246-2.3-7-3.307-13.492-4.476-15.662a17.389,17.389,0,0,0-10.322-8.509Z" transform="translate(-740.897 -147.109)" fill="#0ac4bf"/>
        <path id="Trazado_117444" data-name="Trazado 117444" d="M684.521,228.875s6.179-11.615,9.007-18.305,3.242-9.681,11.05-12.481-.1,27.667-1.437,30.3c-.563,1.107.936,6.493.121,7.024-2.874,1.873-3.628,6.377-5.067,6.424C695.713,241.916,681.841,234.019,684.521,228.875Z" transform="translate(-682.607 -148.75)" fill="#0ac4bf"/>
        <path id="Trazado_117445" data-name="Trazado 117445" d="M717.29,240.837q-.414-1.66-.68-3.358a38.766,38.766,0,0,1-.458-7.118c.066-2.347.507-4.72.247-7.067a23.264,23.264,0,0,0-1.636-5.591,23.476,23.476,0,0,1-1-3.124,15.068,15.068,0,0,1-.269-3.384.1.1,0,0,0-.2-.03c-.612,1.782-.015,3.829.567,5.524a42.541,42.541,0,0,1,1.895,5.781c.461,2.421.021,4.9-.068,7.336a39.377,39.377,0,0,0,.365,6.925,38.224,38.224,0,0,0,.735,3.8,19.018,19.018,0,0,0,1.177,3.707c.072.149.28.045.244-.113C717.958,243.012,717.565,241.942,717.29,240.837Z" transform="translate(-697.448 -155.528)" fill="#274644"/>
        <path id="Trazado_117446" data-name="Trazado 117446" d="M714.755,233.439a7.771,7.771,0,0,0-.944-1.745,7.187,7.187,0,0,0-.673-.8,3.368,3.368,0,0,0-.312-.278,2.646,2.646,0,0,0-.4-.207c-.1-.057-.178.072-.112.159s.114.228.19.329c.1.125.2.245.3.365a8.825,8.825,0,0,1,.561.738,10.919,10.919,0,0,1,.935,1.664,10.027,10.027,0,0,1,.836,3.824c0,.134.17.126.185,0A8.606,8.606,0,0,0,714.755,233.439Z" transform="translate(-697.065 -165.46)" fill="#274644"/>
        <path id="Trazado_117447" data-name="Trazado 117447" d="M777.027,135.321a4.159,4.159,0,0,0-2.516-1.225,4.849,4.849,0,0,0-1.5.072,2.774,2.774,0,0,0-1.382.594.275.275,0,0,0,.186.467l0,.012a2.664,2.664,0,0,0,.6-.075c.236-.034.475-.053.712-.068a4.736,4.736,0,0,1,1.256.061,3.83,3.83,0,0,1,1.165.429,7.671,7.671,0,0,1,1.1.9c.171.148.76.443.887.089C777.7,136.093,777.33,135.624,777.027,135.321Z" transform="translate(-727.534 -115.919)" fill="#273e59"/>
        <path id="Trazado_117448" data-name="Trazado 117448" d="M748.015,135.321a4.159,4.159,0,0,1,2.516-1.225,4.845,4.845,0,0,1,1.5.072,2.772,2.772,0,0,1,1.382.594.275.275,0,0,1-.185.467l0,.012a2.664,2.664,0,0,1-.6-.075c-.236-.034-.475-.053-.712-.068a4.734,4.734,0,0,0-1.256.061,3.824,3.824,0,0,0-1.165.429,7.675,7.675,0,0,0-1.1.9c-.171.148-.76.443-.886.089C747.341,136.093,747.712,135.624,748.015,135.321Z" transform="translate(-715.156 -115.919)" fill="#273e59"/>
        <path id="Trazado_117449" data-name="Trazado 117449" d="M804.35,253.508c.006-.072-.1-.1-.128-.038a8.366,8.366,0,0,0-.2,4.447,40.057,40.057,0,0,1,.623,5.431c.05,3.708-.791,7.243-1.326,10.871-.041.274.318.4.389.118a44.026,44.026,0,0,0,1.451-10.527C805.168,260.335,804.049,256.992,804.35,253.508Z" transform="translate(-743.876 -177.305)" fill="#274644"/>
        <path id="Trazado_117450" data-name="Trazado 117450" d="M808.51,204.73a.391.391,0,0,0-.638-.2,3.888,3.888,0,0,0-.8,1.154q-.449.741-.843,1.519a17.916,17.916,0,0,0-1.986,6.422.075.075,0,0,0,.148.022c.474-1.549.939-3.079,1.552-4.573q.434-1.058.964-2.064.282-.535.591-1.054a5.418,5.418,0,0,0,.612-1.014.156.156,0,0,0,.1.184C808.438,205.219,808.569,204.95,808.51,204.73Z" transform="translate(-744.352 -152.109)" fill="#274644"/>
        <path id="Trazado_117451" data-name="Trazado 117451" d="M748.672,97.966a11.785,11.785,0,0,0-4.964-1.25,16.984,16.984,0,0,0-4.123.834,7.059,7.059,0,0,0-4.252,1.642,21.271,21.271,0,0,0-4.459,4.65c-2.66,3.694-3.236,7.752-4.081,12.351-.253,1.379-.714,4.169-1.229,8.384-.445,3.642-.963,11.623-.958,11.5.2-4.841,2.614-22.627,4.3-27.134a15.934,15.934,0,0,1,3.76-6.364,20.087,20.087,0,0,0-2.778,5.161c-1.029,2.761-1.645,9.685-2.868,15.822-2.286,11.475-4.723,25.277-2.067,22.484,1.686-1.772,4.757,10.791,5.35,9.584,1.946-3.96,1.517-14.188,2.322-21.6a137.229,137.229,0,0,1,2.982-19,68.567,68.567,0,0,0-.447,17.448c.162,1.662.387,3.321.683,4.961q.218,1.209.494,2.4a9.41,9.41,0,0,0,.716,2.384.136.136,0,0,0,.255-.075,10.047,10.047,0,0,0-.354-1.8q-.251-1.087-.453-2.187c-.257-1.4-.457-2.816-.591-4.238a65.183,65.183,0,0,1-.168-8.306c.093-2.788.306-5.586.64-8.352a33.495,33.495,0,0,1,1.71-7.714,4.976,4.976,0,0,1,2.113-2.843c1.357-.812,2.6,0,3.128,0,.216,0,2.626-1.776,4.961,2.139a26.3,26.3,0,0,1,2.538,7.434,68.968,68.968,0,0,1,1.61,16.1q-.006,2.327-.147,4.647c-.1,1.539-.265,3.068-.244,4.612a.037.037,0,0,0,.074.011,29.24,29.24,0,0,0,.552-4.2q.185-2.213.3-4.434a69.431,69.431,0,0,0-.051-8.85,55.289,55.289,0,0,0-2.258-12.376c.337.8.659,1.582.967,2.313,2.022,4.791,3.133,10.894,3.734,13.993,1.032,5.323,2.2,27.547,2.329,29.667s3.075-13.09,4.951-11.9c.667.422-.493-6.98-1.218-13.661C760.117,120.1,757.107,101.947,748.672,97.966Z" transform="translate(-702.979 -96.705)" fill="#273e59"/>
        <path id="Trazado_117452" data-name="Trazado 117452" d="M748.149,111.635a4.978,4.978,0,0,0-3.16,1.818c-2.086,2.289-3.363,5.5-4.287,8.524-2.175,7.114-2.923,14.759-3.263,22.218-.1,2.155-.156,4.311-.19,6.468-.035,2.188-.111,4.4-.006,6.584a.011.011,0,1,0,.022,0c.189-3.532.082-7.091.2-10.628.116-3.5.32-6.992.69-10.468a88.791,88.791,0,0,1,1.719-10.51,36.118,36.118,0,0,1,3.153-9.04,11.6,11.6,0,0,1,3.075-3.97c1.05-.768,3.5-1.562,3.943.418a.026.026,0,0,0,.05-.007C750.053,112,748.976,111.587,748.149,111.635Z" transform="translate(-709.869 -104.381)" fill="#12263f"/>
        <path id="Trazado_117453" data-name="Trazado 117453" d="M760.62,102.227a13.084,13.084,0,0,0-.7-1.913,3.219,3.219,0,0,0-1.089-1.329,4.346,4.346,0,0,0-1.786-.551c-.056-.008-.069.1-.014.108a4.9,4.9,0,0,1,1.7.533,3.176,3.176,0,0,1,1.119,1.387,13.421,13.421,0,0,1,.636,1.748,5.666,5.666,0,0,1,.305,2.208.016.016,0,0,0,.032,0A4.188,4.188,0,0,0,760.62,102.227Z" transform="translate(-720.054 -97.593)" fill="#12263f"/>
        <path id="Trazado_117454" data-name="Trazado 117454" d="M793.364,140.456a97.241,97.241,0,0,0-2.023-15.848,77.429,77.429,0,0,0-2.415-8.948.022.022,0,1,0-.043.013,110.925,110.925,0,0,1,3.494,15.631,97.682,97.682,0,0,1,.909,16.263c-.085,3.042-.385,6.051-.642,9.078a.027.027,0,0,0,.053.008,67.643,67.643,0,0,0,.689-7.975Q793.548,144.569,793.364,140.456Z" transform="translate(-736.453 -106.444)" fill="#12263f"/>
        <path id="Trazado_117455" data-name="Trazado 117455" d="M771.954,120.064c-.006-.007-.016,0-.01.011q.146.187.3.373l-.414.482c-.01.012.007.031.017.018l.42-.491a.013.013,0,0,0,0-.017Q772.11,120.251,771.954,120.064Z" transform="translate(-727.679 -108.717)" fill="#cc9e86"/>
        <path id="Trazado_117456" data-name="Trazado 117456" d="M756.953,142.269c0,.642-.312,1.163-.7,1.163s-.7-.521-.7-1.163.312-1.164.7-1.164S756.953,141.626,756.953,142.269Z" transform="translate(-719.316 -119.538)" fill="#12263f"/>
        <path id="Trazado_117457" data-name="Trazado 117457" d="M774.973,142.269c0,.642-.312,1.163-.7,1.163s-.7-.521-.7-1.163.312-1.164.7-1.164S774.973,141.626,774.973,142.269Z" transform="translate(-728.583 -119.538)" fill="#12263f"/>
        <path id="Trazado_117458" data-name="Trazado 117458" d="M765.5,148.125c-.48.517-1.5,1.262-2.123.573a1.769,1.769,0,0,1-.244-1.262c.02-.44.05-.88.07-1.32a9.146,9.146,0,0,0-.694-4.749c-.038-.071-.129-.009-.1.063.825,1.974.5,4.1.421,6.184-.029.763.194,1.569.976,1.705.822.143,1.327-.468,1.756-1.14C765.586,148.136,765.527,148.091,765.5,148.125Z" transform="translate(-722.834 -119.656)" fill="#e08970"/>
        <path id="Trazado_117459" data-name="Trazado 117459" d="M766,163.856a8.378,8.378,0,0,0-1.422.781,4.893,4.893,0,0,1-1.293.556,4.008,4.008,0,0,1-1.426.1c-.481-.094-.929-.343-1.416-.4-.065-.007-.091.089-.051.135a4.21,4.21,0,0,0,1.388.87,2.794,2.794,0,0,0,1.651.473,2.236,2.236,0,0,0,1.538-.845c.181-.248.348-.51.55-.738a3.07,3.07,0,0,0,.571-.807C766.115,163.916,766.066,163.837,766,163.856Z" transform="translate(-721.789 -131.237)" fill="#8f2b58"/>
        <path id="Trazado_117460" data-name="Trazado 117460" d="M829.65,705.487c-.44-.805-1.027-1.518-1.482-2.32a19.977,19.977,0,0,1-1.247-2.629,20.3,20.3,0,0,1-.836-2.722c-.087-.369-.158-.743-.227-1.116a2.652,2.652,0,0,0,1.68-1.841,4.206,4.206,0,0,0-.039-2.064,6.329,6.329,0,0,0-.325-1.052c-.156-.33-.428-.463-.667-.7a.134.134,0,0,0-.227.1c-.016.261-.132.508-.149.773s.04.534.035.8a13.021,13.021,0,0,1-.11,1.45.858.858,0,0,1-.54.8c-.079.036-.165.061-.246.093a.306.306,0,0,0-.327.124,6.805,6.805,0,0,1-.819.222,3.281,3.281,0,0,1-2.366-.381,3.073,3.073,0,0,1-.838-.722c-.232-.3-.371-.725-.691-.925a.321.321,0,0,0-.446.128c-.327.464-.038,1.223.189,1.664a3.809,3.809,0,0,0,1.082,1.281,4.414,4.414,0,0,0,3.551.612c.132-.026.267-.056.4-.089.069.336.135.672.223,1a21.471,21.471,0,0,0,.978,2.848,20.01,20.01,0,0,0,1.345,2.629,10.125,10.125,0,0,0,1.733,2.335A.241.241,0,0,0,829.65,705.487Z" transform="translate(-752.269 -402.334)" fill="#87524e"/>
        <path id="Trazado_117461" data-name="Trazado 117461" d="M721.839,660.6c-.033-.347-.2-.458-.359-.718-.135-.214-.392-.066-.4.158a4.375,4.375,0,0,1-.146.465,1.968,1.968,0,0,1-.151.5,2.753,2.753,0,0,1-.6.85,2.8,2.8,0,0,1-2.147.688,16.74,16.74,0,0,1-2.581-.478,2.114,2.114,0,0,1-1.251-1.832c-.038-.362-.548-.514-.682-.135a2.5,2.5,0,0,0,1.068,3,3.179,3.179,0,0,0,.615.276,19.977,19.977,0,0,1-1.74,4.36,38.113,38.113,0,0,1-3.081,4.512c-.155.209.042.567.282.4,2.466-1.714,4.139-4.7,5.155-7.64q.194-.562.355-1.136c.019-.069.042-.143.064-.216l.05.012a9.309,9.309,0,0,0,1.775.258,3.731,3.731,0,0,0,3.02-1.144,2.973,2.973,0,0,0,.716-1.415A2.923,2.923,0,0,0,721.839,660.6Z" transform="translate(-696.06 -386.273)" fill="#87524e"/>
        <path id="Trazado_117462" data-name="Trazado 117462" d="M793.748,526.9c-2.766,1.146-7.436-.773-8.82-3.866s.347-23.89,4.116-30.614,22.472-7.971,22.472-7.971,5.75,30.853,5.159,31.294S793.748,526.9,793.748,526.9Z" transform="translate(-734.175 -296.109)" fill="#6b393a"/>
        <path id="Trazado_117463" data-name="Trazado 117463" d="M812.966,440.329c-2.163-.261-4.172,1.536-5.14,3.48-1.272,2.555-1.186,5.551-1.125,8.361.069,3.188.136,6.378.247,9.566q.083,2.39.191,4.78c.061,1.327-.192,3.077.855,4.015a.553.553,0,0,0,.805,0c.786-.888.591-1.926.536-3.06-.069-1.433-.132-2.867-.178-4.3-.09-2.787-.174-5.58-.156-8.369.028-4.189-.843-11.2,4.243-12.251C814.505,442.29,814.05,440.46,812.966,440.329Z" transform="translate(-745.601 -273.407)" fill="#87524e"/>
        <path id="Trazado_117464" data-name="Trazado 117464" d="M794.232,493.881c1.324-3.495,2.042-6.494,11.352-8.05s10.587-2.133,12.646,0,7.32,28.532,3.443,32.173-27.419,12.858-28.876,7.755C790.378,517.285,792.641,498.078,794.232,493.881Z" transform="translate(-737.921 -296.104)" fill="#87524e"/>
        <path id="Trazado_117465" data-name="Trazado 117465" d="M830.255,448.106a49.437,49.437,0,0,0-1.489-5.554c-.445-1.293-1.075-2.655-2.22-3.114-.478-.192-.869.632-.5,1.05,1.943,2.167,2.385,5.84,3,8.851a83.458,83.458,0,0,1,1.5,11.106c.076,1.128,1.515,1.137,1.436,0A86.4,86.4,0,0,0,830.255,448.106Z" transform="translate(-755.491 -272.947)" fill="#6b393a"/>
        <path id="Trazado_117466" data-name="Trazado 117466" d="M808.673,439.409a16.377,16.377,0,0,0-2.3.567,8.151,8.151,0,0,0-2.834,2.2,14.94,14.94,0,0,0-2.788,6.865c-.566,3.032-.9,6.125-1.334,9.182-.243,1.731-.457,3.466-.675,5.2-.133,1.053-.754,2.828,0,3.689a.251.251,0,0,0,.315.044c.9-.546.793-2.128.947-3.113.233-1.486.474-2.971.692-4.459.42-2.878.789-5.767,1.232-8.641a18.53,18.53,0,0,1,1.974-6.644,7,7,0,0,1,2.6-2.593,15.673,15.673,0,0,1,1.955-.775A4.9,4.9,0,0,0,808.673,439.409Z" transform="translate(-741.337 -272.947)" fill="#6b393a"/>
        <path id="Trazado_117467" data-name="Trazado 117467" d="M829.415,459.025c-.133-2.731-.29-5.464-.513-8.187a25.533,25.533,0,0,0-1.095-6.479,8.527,8.527,0,0,0-1.551-2.724,5.336,5.336,0,0,0-.9-.828c-.474-.337-.812-.234-1.336-.353-.271-.061-.483.319-.276.585.282.362.429.837.709,1.211s.574.72.828,1.116a9.527,9.527,0,0,1,1.19,2.968,42.575,42.575,0,0,1,.7,6.607q.255,3.623.424,7.255c.1,2.177.049,4.439.271,6.612a4.841,4.841,0,0,0-.63.987c-.117.248.129.6.339.418.26-.232.493-.3.758-.059.586.54,1.245-.218,1.307-.925A62.249,62.249,0,0,0,829.415,459.025Z" transform="translate(-754.34 -273.481)" fill="#87524e"/>
        <g id="Grupo_70660" data-name="Grupo 70660" transform="translate(63.616 109.137)">
          <path id="Trazado_117468" data-name="Trazado 117468" d="M817.99,383.2c1.766-3.007,3.888-6.549,3.932-6.891.08-.572-.348-7.215-.032-8.412,1.782-6.78,3.664-17.156,3.612-24.651,0-1.034-.052-2.01-.135-2.916-.608-6.394-.36-19.9-5.23-18.888-2.746,4.824-4.941-.521-5.85,13.677a86,86,0,0,0,.877,11.8c.288,2.141.613,4.007.893,5.377,1.3,6.518,1.915,14.69-2.03,19.322a5.468,5.468,0,0,0-1.084,2.8c.006,0-2.022,10.176,1.8,2.554,1.1-2.194,1.6.191.561,3.222-.852,2.508-3.235,3.139-3.387,4.182S817.09,384.733,817.99,383.2Z" transform="translate(-811.911 -321.39)" fill="#fda68a"/>
        </g>
      </g>
      <g id="Grupo_70624" data-name="Grupo 70624" transform="translate(50.555 251.883)">
        <path id="Trazado_117328" data-name="Trazado 117328" d="M300.352,691.391c-1.127,2.561-8.916,2.8-10.4-.013l.033-26.284,10.4.013Z" transform="translate(-268.225 -640.893)" fill="#12263f"/>
        <path id="Trazado_117329" data-name="Trazado 117329" d="M549.54,697.931c-1.049,2.408-8.632,3.684-10.4-.013l.033-26.284,10.4-1.648Z" transform="translate(-396.374 -643.408)" fill="#12263f"/>
        <path id="Trazado_117330" data-name="Trazado 117330" d="M255.811,699.885c-.373,2.239-9.691,2.963-10.4-.013l.033-26.284,10.4-1.647Z" transform="translate(-245.319 -644.413)" fill="#12263f"/>
        <path id="Trazado_117331" data-name="Trazado 117331" d="M591.973,681.54c-.691,3.038-8.306,3.275-10.4-.013l.033-26.284,10.4-1.648Z" transform="translate(-418.197 -634.978)" fill="#12263f"/>
        <path id="Trazado_117332" data-name="Trazado 117332" d="M396.093,672.173l-150.871-.186.012-10.131,150.747.186Z" transform="translate(-245.221 -639.227)" fill="#145b8f"/>
        <path id="Trazado_117333" data-name="Trazado 117333" d="M245.247,651.736c2.963,0,27.323-9.558,27.323-9.558l147.856.183-24.432,9.562Z" transform="translate(-245.235 -629.107)" fill="#339ce9"/>
        <path id="Trazado_117334" data-name="Trazado 117334" d="M555.71,662.246l24.308-9.853.012-9.84L555.6,652.115Z" transform="translate(-404.838 -629.3)" fill="#145b8f"/>
        <g id="Grupo_70622" data-name="Grupo 70622" transform="translate(13.474 0.365)">
          <path id="Trazado_117335" data-name="Trazado 117335" d="M351.068,628.8c-.154.941-5.177,1.749-10.129,4.163-6.7,3.262-9.438,6.767-12.374,7.938-1.427.594-7.477,1.088-12.689,1.067-8.245-.028-19.539.08-28.417-.661h-.02c-.184-.015-.367-.03-.531-.045h-.02c-6.512-.57-11.633-1.612-13.2-3.538-4.38-5.339,12.253-15.73,17.923-17.983a58.709,58.709,0,0,1,16.744-3.555c1.218-.1,2.417-.157,3.6-.153q1.556-.049,3.054.027c1.936.082,3.832.186,5.649.333.8.057,1.572.135,2.347.192a94.661,94.661,0,0,1,14.629,2.373c.615.143,1.21.308,1.786.474a37.207,37.207,0,0,1,5.931,2.2c.434.211.827.422,1.221.654h.02C349.845,624.159,351.461,626.368,351.068,628.8Z" transform="translate(-272.962 -616.019)" fill="#e8deda"/>
          <path id="Trazado_117336" data-name="Trazado 117336" d="M317.851,616.058a21.13,21.13,0,0,1-4.646,1.794q-2.447.839-4.89,1.8-5.218,2.056-10.218,4.593c-5.61,2.862-14.065,7.2-12.523,14.884.1.526-.687.795-.827.25-1.942-7.451,5.5-12.263,11.047-15.225a114.369,114.369,0,0,1,10.854-5.1c1.909-.792,3.82-1.524,5.754-2.174.6-.2,1.228-.445,1.852-.668C315.471,616.112,316.67,616.054,317.851,616.058Z" transform="translate(-278.86 -616.039)" fill="#dfab9c"/>
          <path id="Trazado_117337" data-name="Trazado 117337" d="M337.16,616.99a11.543,11.543,0,0,1-2.576.955c-.866.292-1.732.583-2.578.895-1.732.6-3.421,1.267-5.109,1.971a112.055,112.055,0,0,0-10.57,5.052,99.26,99.26,0,0,0-9.627,5.919c-3.207,2.258-5.961,5.316-4.935,9.5a.433.433,0,0,1-.149.432h-.02a.326.326,0,0,1-.531-.045h-.02a.069.069,0,0,1-.022-.04c-1.525-3.21.48-6.814,2.855-8.964A56.461,56.461,0,0,1,313.991,626a106.967,106.967,0,0,1,11.346-5.626c1.948-.835,3.939-1.629,5.932-2.343,1.006-.357,2.013-.714,3.02-1.051a5.094,5.094,0,0,0,.524-.179C335.609,616.855,336.385,616.933,337.16,616.99Z" transform="translate(-287.119 -616.419)" fill="#dfab9c"/>
          <path id="Trazado_117338" data-name="Trazado 117338" d="M356.653,619.676c-2-.582-3.888.461-5.734,1.189q-3.082,1.215-6.109,2.566c-3.787,1.688-7.512,3.522-11.145,5.522a65.328,65.328,0,0,0-10.178,6.29,9.194,9.194,0,0,0-2.99,4.019c-.325.947-.8,3.018.3,3.6a.105.105,0,0,0,.14-.042c.306-.508.12-.993.146-1.57a6.244,6.244,0,0,1,.809-2.7,11.419,11.419,0,0,1,3.911-3.749c3.113-2.044,6.382-3.878,9.663-5.636q5.156-2.764,10.509-5.137c3.414-1.505,7-3.266,10.687-3.936C356.89,620.049,356.837,619.73,356.653,619.676Z" transform="translate(-297.21 -617.812)" fill="#dfab9c"/>
          <path id="Trazado_117339" data-name="Trazado 117339" d="M375.5,622.552c-.443.156-.883.394-1.226.527-.8.31-1.608.641-2.391.99-1.628.682-3.213,1.424-4.775,2.226-3.107,1.542-6.128,3.244-9.107,4.986-2.919,1.719-5.858,3.419-8.691,5.278-2.813,1.839-5.36,4.36-5.207,7.959.016.509-.793.676-.891.15-.552-3.342,1.558-6.176,4.082-8.127A98.919,98.919,0,0,1,357.38,630.3c3.539-2.064,7.12-4.049,10.811-5.813,1.806-.85,3.653-1.661,5.523-2.411C374.329,622.222,374.924,622.387,375.5,622.552Z" transform="translate(-309.044 -619.135)" fill="#dfab9c"/>
          <path id="Trazado_117340" data-name="Trazado 117340" d="M395.046,628.23a25.093,25.093,0,0,0-2.751,1.225c-1.4.655-2.789,1.309-4.172,1.983-2.746,1.368-5.491,2.776-8.193,4.265-4.824,2.634-11.1,5.618-11.826,11.768-.066.511-.924.416-.878-.074.552-6.45,6.945-9.662,11.948-12.444,3.2-1.769,6.426-3.457,9.716-5.025,1.483-.738,3.009-1.437,4.514-2.136a3.967,3.967,0,0,0,.421-.217C394.259,627.787,394.652,628,395.046,628.23Z" transform="translate(-321.439 -621.962)" fill="#dfab9c"/>
        </g>
        <g id="Grupo_70623" data-name="Grupo 70623" transform="translate(83.776)">
          <path id="Trazado_117341" data-name="Trazado 117341" d="M495.8,628.052c-.154.941-5.177,1.75-10.129,4.163-6.7,3.262-9.438,6.768-12.374,7.938-1.427.594-7.477,1.088-12.689,1.068-8.245-.028-19.539.08-28.417-.661h-.02c-.184-.015-.367-.029-.53-.045h-.02c-6.512-.571-11.633-1.612-13.2-3.538-4.38-5.339,12.253-15.731,17.923-17.984a58.714,58.714,0,0,1,16.744-3.555c1.218-.1,2.417-.157,3.6-.153q1.556-.048,3.054.027c1.936.082,3.832.186,5.649.333.8.056,1.571.134,2.347.191a94.662,94.662,0,0,1,14.629,2.373c.615.144,1.21.308,1.786.474a37.123,37.123,0,0,1,5.931,2.2c.434.21.827.422,1.221.654h.02C494.579,623.408,496.195,625.618,495.8,628.052Z" transform="translate(-417.696 -615.268)" fill="#ffcfc7"/>
          <path id="Trazado_117342" data-name="Trazado 117342" d="M462.586,615.307a21.111,21.111,0,0,1-4.647,1.794q-2.447.839-4.89,1.8-5.218,2.056-10.218,4.594c-5.611,2.862-14.066,7.2-12.523,14.884.1.526-.688.8-.827.25-1.942-7.451,5.5-12.263,11.047-15.224a114.273,114.273,0,0,1,10.854-5.1c1.909-.792,3.82-1.524,5.754-2.174.6-.2,1.228-.445,1.852-.668C460.206,615.361,461.4,615.3,462.586,615.307Z" transform="translate(-423.594 -615.288)" fill="#dfab9c"/>
          <path id="Trazado_117343" data-name="Trazado 117343" d="M481.895,616.239a11.547,11.547,0,0,1-2.576.955c-.866.292-1.732.583-2.577.895-1.732.6-3.421,1.267-5.109,1.971a111.894,111.894,0,0,0-10.571,5.052,99.38,99.38,0,0,0-9.627,5.918c-3.207,2.258-5.961,5.316-4.936,9.5a.433.433,0,0,1-.149.432h-.02a.325.325,0,0,1-.53-.045h-.02a.074.074,0,0,1-.022-.04c-1.525-3.209.48-6.814,2.856-8.964a56.412,56.412,0,0,1,10.112-6.666,106.976,106.976,0,0,1,11.346-5.626c1.949-.835,3.939-1.629,5.932-2.343,1.006-.357,2.013-.714,3.021-1.051a5.388,5.388,0,0,0,.524-.179C480.344,616.1,481.119,616.182,481.895,616.239Z" transform="translate(-431.854 -615.669)" fill="#dfab9c"/>
          <path id="Trazado_117344" data-name="Trazado 117344" d="M501.387,618.925c-2-.582-3.888.461-5.734,1.189q-3.082,1.216-6.109,2.566c-3.787,1.689-7.512,3.522-11.145,5.522a65.327,65.327,0,0,0-10.178,6.29,9.2,9.2,0,0,0-2.99,4.019c-.325.947-.8,3.018.3,3.6a.106.106,0,0,0,.14-.041c.306-.509.119-.993.145-1.57a6.24,6.24,0,0,1,.809-2.7,11.42,11.42,0,0,1,3.911-3.749c3.113-2.045,6.382-3.878,9.663-5.637q5.156-2.764,10.509-5.136c3.414-1.506,7-3.266,10.687-3.936C501.624,619.3,501.571,618.979,501.387,618.925Z" transform="translate(-441.945 -617.062)" fill="#dfab9c"/>
          <path id="Trazado_117345" data-name="Trazado 117345" d="M520.233,621.8c-.443.156-.883.394-1.225.527-.8.31-1.609.64-2.392.99-1.628.682-3.213,1.423-4.775,2.225-3.107,1.542-6.127,3.245-9.106,4.986-2.918,1.719-5.858,3.419-8.69,5.279-2.813,1.838-5.361,4.36-5.208,7.959.016.508-.793.676-.891.15-.552-3.341,1.558-6.176,4.083-8.127a98.83,98.83,0,0,1,10.085-6.238c3.539-2.065,7.12-4.049,10.811-5.813,1.806-.851,3.653-1.661,5.523-2.412C519.063,621.472,519.658,621.636,520.233,621.8Z" transform="translate(-453.778 -618.385)" fill="#dfab9c"/>
          <path id="Trazado_117346" data-name="Trazado 117346" d="M539.78,627.48a25.1,25.1,0,0,0-2.75,1.226c-1.4.654-2.789,1.308-4.172,1.982-2.746,1.368-5.491,2.777-8.192,4.266-4.824,2.634-11.1,5.618-11.827,11.768-.066.511-.923.416-.878-.074.552-6.45,6.946-9.662,11.948-12.443,3.2-1.769,6.426-3.458,9.716-5.025,1.483-.739,3.008-1.438,4.513-2.136a4.138,4.138,0,0,0,.421-.217C538.993,627.036,539.387,627.248,539.78,627.48Z" transform="translate(-466.173 -621.212)" fill="#dfab9c"/>
        </g>
      </g>
    </g>
  </g>
</svg>
