<svg xmlns="http://www.w3.org/2000/svg" width="167.476" height="231.622" viewBox="0 0 167.476 231.622">
  <g id="Grupo_70700" data-name="Grupo 70700" transform="translate(-184.847 -906.103)">
    <path id="Trazado_6829" data-name="Trazado 6829" d="M317.9,934.218l-.583,2.835-.677,3.277-.054.267a1.909,1.909,0,0,0-1.178.546c-.436.474-2.813,3.048-5,3.6-.043.01-.954.141-.954.141a6.262,6.262,0,0,1-.72.011,4.734,4.734,0,0,1-2.186-.534s-.055-.158-.142-.393H306.4c-.066-.19-.153-.441-.245-.7-.169-.5-.355-1.042-.453-1.379a8.23,8.23,0,0,0,2.388.25c2.317-.092,4.591-.91,7.225-4.133a19.576,19.576,0,0,0,2.584-3.789Z" fill="#f8be90"/>
    <path id="Trazado_6830" data-name="Trazado 6830" d="M251.25,1131.381c-.453.547-1.816.364-5.087-.9s-7.088-3.455-7.633-4.089a2.687,2.687,0,0,1-.327-.547c-.055-.108-.11-.228-.169-.369-.737-1.74-2.034-6.124-3.91-16.26a136.732,136.732,0,0,1-2.492-24.079c1-.091,1.991-.194,2.95-.31a88.635,88.635,0,0,0,12.142-2.23c-1.15,9.879-4.182,35.992-4.1,36.435.087.543,1.543,1.994,4,4.994s5.088,6.816,4.635,7.359Z" fill="#f8be90"/>
    <path id="Trazado_6831" data-name="Trazado 6831" d="M238.034,1125.472c-.737-1.74-2.034-6.124-3.91-16.26a136.732,136.732,0,0,1-2.492-24.079c1-.091,1.991-.194,2.95-.31a116.3,116.3,0,0,0,.763,23.415c.878,5.773,2.171,13.969,2.689,17.234Z" fill="#5e1a47"/>
    <path id="Trazado_6832" data-name="Trazado 6832" d="M223.9,1085.494c-2.672,7.181-10.359,27.858-11.63,31.077-1.543,3.908-6,12.817-6,12.817-3.637,1.363-6.27-3.547-6.27-3.547,1.27-5.362,6.45-10.272,6.45-10.272-.235-2.437-.393-4.8-.475-7.07-.436-11.444.889-20.589,2.907-24.617.692.145,1.444.3,2.251.439,1.9.34,4.111.651,6.679.9,2,.191,4.04.274,6.085.274Z" fill="#f8be90"/>
    <path id="Trazado_6833" data-name="Trazado 6833" d="M211.131,1084.321c-2.835,5.631-4.623,17.271-5.158,24.178-.436-11.444.889-20.589,2.907-24.617.692.145,1.444.3,2.251.439Z" fill="#5e1a47"/>
    <path id="Trazado_6834" data-name="Trazado 6834" d="M336.852,1099.943c-2.181,11.631-9.089,29.171-9.089,29.171a3.989,3.989,0,0,1-1.069.112,12.283,12.283,0,0,1-1.93-.112,38.588,38.588,0,0,1-4.121-.808c-.1-.025-.2-.05-.284-.07a.184.184,0,0,1-.022,0c-.18-.046-.316-.079-.393-.1-.06-.016-.087-.021-.087-.021a4.662,4.662,0,0,0-.463.092c-.1.012-.191.02-.284.029a3.208,3.208,0,0,1-2.524-1.028s-.087-.3-.251-.837c-1.374-4.533-7.868-26.068-8.926-30.7-1.183-5.18-9.541-38.25-10.632-44.068s-5.632-27.717-5.4-30.4,1.789-12.269,1.789-12.269c.082.393.163.741.251,1.064.654,2.541,1.243,3.025,1.243,3.025s1.57-3.613,2.661-5.863,3.609-8.04,3.609-8.04,1.025,6.615,1.57,8.587a33.955,33.955,0,0,0,1.843,4.637,23.442,23.442,0,0,1,5.48-3.883c2.9-1.363,11.423-3.414,14.214-4.23,1.636-.481,3.3-1.007,4.395-1.356.774-.248,1.265-.414,1.265-.414l.18-.7a67.656,67.656,0,0,1,3.249,9.394c1.178,4.819,2.541,11.909,2.454,24.261s-1.908,35.987-1.908,35.987c1.27,2.64,5.359,16.9,3.178,28.538Z" fill="#fdc954"/>
    <path id="Trazado_6835" data-name="Trazado 6835" d="M293.168,1008.932s-1.554,9.584-1.789,12.269a14.26,14.26,0,0,1-1.21-1.707c-.076-.116-.158-.253-.24-.41a41.807,41.807,0,0,1-2.83-7.5,5,5,0,0,1-.131-1.1,5.086,5.086,0,0,1,1.1-2.851,8.5,8.5,0,0,0,2.105.547c.142.012.278.02.414.033.044,0,.088.008.131.008.093.008.186.013.273.017.049.008.093.008.136.012.093,0,.18,0,.268,0a.4.4,0,0,0,.1.009c.12,0,.234,0,.344,0h.321a.75.75,0,0,0,.1,0h.2a.327.327,0,0,1,.093-.009c.06,0,.12,0,.169-.008h.082c.081-.008.158-.012.228-.017.044.241.088.473.137.7Z" fill="#f8be90"/>
    <path id="Trazado_6836" data-name="Trazado 6836" d="M293.168,1008.932s-1.554,9.584-1.789,12.269a14.26,14.26,0,0,1-1.21-1.707c-.076-.116-.158-.253-.24-.41l2.792-10.832h.082c.081-.008.158-.012.228-.017.044.241.088.473.137.7Z" fill="#5e1a47"/>
    <path id="Trazado_6837" data-name="Trazado 6837" d="M336.852,1099.943c-2.181,11.631-9.089,29.171-9.089,29.171a3.989,3.989,0,0,1-1.069.112c1.669-6.725,7.8-32.13,7.514-40.144a137.084,137.084,0,0,0-2.055-18.265s.746-13.633,1.019-20.54,0-23.9-.474-30.075c-.447-5.851-3.408-13.288-4.264-17.329.774-.248,1.265-.414,1.265-.414l.18-.7a67.656,67.656,0,0,1,3.249,9.394c1.178,4.819,2.541,11.909,2.454,24.261s-1.908,35.987-1.908,35.987c1.27,2.64,5.359,16.9,3.178,28.538Z" fill="#5e1a47"/>
    <path id="Trazado_6838" data-name="Trazado 6838" d="M292.568,1003.014h-.005c-.006,0-.644-.078-1.543-.286-.469-.111-1.02-.252-1.587-.426,0,0,.867-1.62.736-2.23s-.273-5.589-.687-9.334-2.792-25.152-2.857-27.061-.142-2.181,1.156-4.16,6.6-9.045,8.38-10.283c-.081.3-2.878,9.912-4.018,13.206a64.715,64.715,0,0,0-1.974,9.541s.169,1.151.414,2.95c.7,5.071,2.023,15.31,1.969,19.541-.039,3.054-.071,5.965.016,8.542Z" fill="#dddbef"/>
    <path id="Trazado_6839" data-name="Trazado 6839" d="M292.568,1003.014h-.005c-.006,0-.644-.078-1.543-.286.043-1.657.119-4.8.1-7.291-.022-3.544-.523-15.632-.54-20.506.7,5.071,2.023,15.31,1.969,19.541-.039,3.054-.071,5.965.016,8.542Z" fill="#5e1a47"/>
    <path id="Trazado_6840" data-name="Trazado 6840" d="M230.748,961.672a33.777,33.777,0,0,1-7.522.121c-1.047,2.926-.667,6.379.853,7.519.119.089.247.173.38.254a4.783,4.783,0,0,0,5.841-.5,5.909,5.909,0,0,0,.549-.573c1.706-2.07,1.061-5.122-.1-6.822Z" fill="#fff"/>
    <path id="Trazado_6841" data-name="Trazado 6841" d="M313.707,949.07l-3.9,7.7-.011.022-5.114,8.113-.823-6.019-.2-1.472-.054-.4-.377-7.055,2.187-1.778,6.9-.72.207.246,1.183,1.368Z" fill="#dddbef"/>
    <path id="Trazado_6842" data-name="Trazado 6842" d="M303.661,958.088l.2.8-.257-1.876.058,1.079Z" fill="#f8be90"/>
    <path id="Trazado_6843" data-name="Trazado 6843" d="M218.274,955.5c.024.02.058.046.1.077-.044-.031-.077-.057-.1-.077Z" fill="#f8be90"/>
    <path id="Trazado_6844" data-name="Trazado 6844" d="M248.082,1029.219a41.56,41.56,0,0,1-5.174,1.326c-1.467.294-3.223.6-5.218.833-1.391.178-2.906.319-4.526.41a99.9,99.9,0,0,1-13.38-.128c-.725-.063-1.418-.121-2.083-.187-2.181-.211-4.024-.468-5.436-.688a24.586,24.586,0,0,1-2.513-.518,16.562,16.562,0,0,1-2.514-.878,5.986,5.986,0,0,1-.79-.419l-.006-4.956s.006,0,.006.005c2,1.176,3.407,1.5,3.773,1.04.354-.44-1.865-2.549-2-2.669.147.075,2.514,1.38,3.043.717s-2.46-3.51-2.634-3.675c.153.1,2.835,1.893,3.588,1.45s-.835-2.453-1.756-3.22c.4.265,1.5,1.086,2.072.265.632-.9-3-4.462-6.052-5.614.278-3.593,1.467-19.1,1.881-27.371.12-2.35.174-4.117.131-4.864-.011-.152-.027-.311-.039-.463-.01-.115-.021-.229-.032-.344a31.693,31.693,0,0,0-.556-3.62c-.474-2.279-1.178-4.678-2.056-7.476-.223-.708-.409-1.357-.567-1.941a27.321,27.321,0,0,1-.747-3.794c-.038-.322-.06-.578-.076-.769a2.039,2.039,0,0,0-.066-.4,26.172,26.172,0,0,1,5.545-3c.977-.337,2.372-.812,3.746-1.275a11.642,11.642,0,0,0,6.614,4.274,16.946,16.946,0,0,0,2.96.524c-1.046,2.928-.665,6.379.857,7.518a4.818,4.818,0,0,0,6.766-.817c1.706-2.066,1.063-5.12-.1-6.821h.005a11.056,11.056,0,0,0,6.9-4.662l5.823,2.508c1.227,5.251-.043,15.474-.043,15.474a20.134,20.134,0,0,1,.659,5.071,19.033,19.033,0,0,1-.512,4.383,15.213,15.213,0,0,1-1.7,4.357s2.181,11.722,3.091,17.722,3.1,22.7,3.1,22.7Z" fill="#eb5b52"/>
    <path id="Trazado_6845" data-name="Trazado 6845" d="M221.262,956.683c-.263-.055-.5-.115-.73-.177.225.062.466.122.73.177Z" fill="#f8be90"/>
    <path id="Trazado_6846" data-name="Trazado 6846" d="M218.483,955.65a7.217,7.217,0,0,0,1.988.839,7.273,7.273,0,0,1-1.988-.839Z" fill="#f8be90"/>
    <path id="Trazado_6847" data-name="Trazado 6847" d="M222.16,956.844c-.1-.016-.2-.033-.3-.05.1.017.2.034.3.05Z" fill="#f8be90"/>
    <path id="Trazado_6848" data-name="Trazado 6848" d="M224.606,957.039h0Z" fill="#f8be90"/>
    <path id="Trazado_6849" data-name="Trazado 6849" d="M218.232,955.466l.019.016-.019-.016Z" fill="#f8be90"/>
    <path id="Trazado_6850" data-name="Trazado 6850" d="M221.6,956.749c-.113-.021-.225-.042-.331-.065.106.023.218.044.331.065Z" fill="#f8be90"/>
    <path id="Trazado_6851" data-name="Trazado 6851" d="M222.936,956.939l-.2-.021.2.021Z" fill="#f8be90"/>
    <path id="Trazado_6852" data-name="Trazado 6852" d="M218.383,955.582l.091.061-.091-.061Z" fill="#f8be90"/>
    <path id="Trazado_6853" data-name="Trazado 6853" d="M206.5,1013.63l-.072-.14,0-.212v.212c.031.058.055.1.074.14Z" fill="#f8be90"/>
    <path id="Trazado_6854" data-name="Trazado 6854" d="M230.326,923.125c3.272,1.909,4.908,6.134,5.794,8.315a7.031,7.031,0,0,1,.231.693,28.922,28.922,0,0,0-.5-8.054c-.886-3.135-1.363-4.566-2.226-5.248a29.363,29.363,0,0,0-7.7-2.93,7.733,7.733,0,0,0-6.293,1.431,13.077,13.077,0,0,0-4.633,5.863,10.686,10.686,0,0,1,4.428-2.523c1.841-.409,7.634.545,10.9,2.453Z" fill="#9e98ca"/>
    <path id="Trazado_6855" data-name="Trazado 6855" d="M235.269,935.427c-.14,3.4-1.269,7.059-2.9,9.085l0,.009a3.3,3.3,0,0,0,4.506,0c.81-.813,1.9-3.64-.008-7.031l-1.6-2.063Z" fill="#5e1a47"/>
    <path id="Trazado_6856" data-name="Trazado 6856" d="M216.646,929.479c-.153.093-.256.158-.3.189.049-.032.152-.1.3-.189Z" fill="#f8be90"/>
    <path id="Trazado_6857" data-name="Trazado 6857" d="M216.182,930.106a6.449,6.449,0,0,0-1.6,1.88c-.476,1.976-1.908,8.246-1.567,11.109s1.976,3.407,3.34,3.271a4.448,4.448,0,0,0,2.379-1.744,11.208,11.208,0,0,1-2.107-4.981c-.842-4.382-.942-7.667-.445-9.535Z" fill="#5e1a47"/>
    <path id="Trazado_6858" data-name="Trazado 6858" d="M236.351,932.133a7.031,7.031,0,0,0-.231-.693c-.886-2.181-2.522-6.406-5.794-8.315s-9.064-2.862-10.9-2.453a10.686,10.686,0,0,0-4.428,2.523,2.159,2.159,0,0,0-.411.544c-.409.886-.272,6.815,0,8.247a6.449,6.449,0,0,1,1.6-1.88c.039-.146.081-.286.127-.415l.032-.021.474-.292h0c.146-.085,2.175-1.1,2.224-1.118.1-.045.783-.323.951-.387,2.271-.863,4.907-1.181,9.4,1.818a18.773,18.773,0,0,1,3.958,3.5c1.778,1.936,3.516,4.3,3.516,4.3a21.31,21.31,0,0,0-.518-5.357Z" fill="#6b63a9"/>
    <path id="Trazado_6859" data-name="Trazado 6859" d="M206.487,1012.309c.278-3.589,1.465-19.1,1.881-27.369-.417,8.275-1.6,23.78-1.883,27.369Z" fill="#f8be90"/>
    <path id="Trazado_6860" data-name="Trazado 6860" d="M208.427,979.271c.011.113.019.228.03.342-.011-.114-.019-.229-.029-.343Z" fill="#f8be90"/>
    <path id="Trazado_6861" data-name="Trazado 6861" d="M206.426,1013.067l0,.211v-.211l.059-.758h0l-.059.758Z" fill="#f8be90"/>
    <path id="Trazado_6862" data-name="Trazado 6862" d="M203.569,1020.2c.46-.547,1.3-.219,1.62-.066l.015-.07c-.427-.539-1.964-2.553-1.572-3.183.455-.725,1.863.365,1.863.365s-1.863-2.093-1.454-2.955,1.545,0,1.545,0c-1.289-.928-1.6-2.519.109-2.212-1.908-3.659-6.5-12.426-7.674-14.462-1.5-2.591-2.045-3.749-1.09-5.317.851-1.4,9.61-10.975,11.5-13.031a31.824,31.824,0,0,0-.555-3.619c-.475-2.282-1.182-4.68-2.059-7.477-.223-.71-.407-1.356-.562-1.942a26.382,26.382,0,0,1-.749-3.792c-.038-.322-.124-.983-.143-1.174-4.068,2.011-14.051,19.877-16.016,23.2-1.977,3.34-4.43,8.247-3.135,13.359s5.909,11.245,9.463,15.4a54.814,54.814,0,0,0,8.815,7.645.722.722,0,0,1,.083-.667Z" fill="#f8be90"/>
    <path id="Trazado_6863" data-name="Trazado 6863" d="M208.428,979.27a31.809,31.809,0,0,0-.556-3.618,31.824,31.824,0,0,1,.555,3.619Z" fill="#f8be90"/>
    <path id="Trazado_6864" data-name="Trazado 6864" d="M204.5,962.441a26.382,26.382,0,0,0,.749,3.792,26.726,26.726,0,0,1-.749-3.792Z" fill="#f8be90"/>
    <path id="Trazado_6865" data-name="Trazado 6865" d="M206.449,1012.3a4.455,4.455,0,0,0-.754-.215c-1.708-.307-1.4,1.284-.109,2.212,0,0-1.136-.861-1.545,0s1.454,2.955,1.454,2.955-1.408-1.09-1.863-.365c-.392.63,1.145,2.644,1.572,3.183.067.082.109.136.109.136a1.292,1.292,0,0,0-.124-.066c-.316-.153-1.16-.481-1.62.066a.722.722,0,0,0-.083.667,6.657,6.657,0,0,0,2.956,3.145l.007.005c2,1.181,3.408,1.495,3.772,1.044s-2-2.681-2-2.681,2.5,1.409,3.044.725-2.635-3.68-2.635-3.68,2.816,1.911,3.589,1.455-.909-2.544-1.818-3.269c0,0,3.247,1.914,3.09.816-.432-3.021-7.031-6.129-7.043-6.133Z" fill="#f8be90"/>
    <path id="Trazado_6866" data-name="Trazado 6866" d="M283.215,1027.06c-.069-.613-1.7-.269-5.453-.543s-8.519.274-9,0-2.59-12.269-4.021-18.336S258,995.233,258,995.233s-2.249-10.36-5.384-19.7-5.589-14.107-9.132-16.016c1.225,5.252-.044,15.471-.044,15.471a19.449,19.449,0,0,1,.147,9.454h0c1.974,7.408,6.712,15.9,6.712,15.9a34.869,34.869,0,0,0,1.158,6.609c1.023,3.816,5.453,12.675,7.906,16.836s4.362,7.835,5.794,8.179a46.118,46.118,0,0,0,9.2,0c2.317-.273,5.18-.207,4.771-1.023s-3.953-.887-3.953-.887c1.431-.476,8.111-2.387,8.043-3Z" fill="#f8be90"/>
    <path id="Trazado_6867" data-name="Trazado 6867" d="M243.437,974.991s1.269-10.219.044-15.471h0c1.227,5.248-.045,15.471-.045,15.471a19.41,19.41,0,0,1,.148,9.453v0h0a19.449,19.449,0,0,0-.147-9.454Z" fill="#f8be90"/>
    <path id="Trazado_6868" data-name="Trazado 6868" d="M206.43,1014.227l.11-.522-.037-.075c-.019-.037-.043-.082-.074-.14v.737Z" fill="#f8be90"/>
    <path id="Trazado_6869" data-name="Trazado 6869" d="M206.5,1013.63l.037.075-.037-.075Z" fill="#f8be90"/>
    <path id="Trazado_6870" data-name="Trazado 6870" d="M200,1125.841c-1.091,2.362-1,8.863,0,10.268s3.613-1.289,6.27-6.726c-3.635,1.364-6.27-3.542-6.27-3.542Z" fill="#5e1a47"/>
    <path id="Trazado_6871" data-name="Trazado 6871" d="M251.25,1131.385c-.454.543-1.818.36-5.089-.912s-7.088-3.451-7.633-4.085a2.886,2.886,0,0,1-.327-.547c-.31.907.69,2.386,1.144,3.783s2.119,6.853,2.119,6.853h.971v-5.73s6.828,4.363,8.867,5.362,4.674,2.084,5.309,1.4-1.363-3.675-4.271-7.309a58.091,58.091,0,0,0-5.725-6.182c2.454,3,5.089,6.816,4.635,7.363Z" fill="#5e1a47"/>
    <path id="Trazado_6872" data-name="Trazado 6872" d="M255.066,1079.312a61.443,61.443,0,0,1-7.087,2.913c-.338.107-.764.24-1.255.368-.566.158-1.237.324-1.99.5-.087.02-.174.041-.261.058-1.249.285-2.71.58-4.335.861-.093.017-.18.034-.273.046-2.453.423-5.261.812-8.233,1.077-.916.083-1.843.154-2.78.208-.088.008-.175.012-.268.016-1.543.087-3.113.137-4.689.137-.447,0-.9,0-1.346-.017h-.006c-.093,0-.18,0-.272,0-1.5-.029-2.994-.108-4.461-.253-2.1-.2-3.969-.451-5.616-.716-.092-.017-.185-.029-.272-.046-1.118-.187-2.127-.381-3.042-.576-5.458-1.185-7.52-2.478-7.52-2.478l4.973-51.228.115-1.206a11.791,11.791,0,0,0,3.3,1.3c.212.054.43.108.665.162.087.025.174.041.262.062.485.1,1.008.207,1.586.294,1.412.224,3.255.477,5.436.688.235.021.475.042.715.066l.272.025a99.3,99.3,0,0,0,10.8.365c.093,0,.181,0,.273,0,1.107-.021,2.241-.071,3.4-.137,2.236-.128,4.269-.352,6.063-.609.093-.017.181-.029.273-.046,1.265-.182,2.4-.385,3.408-.588.245-.05.48-.1.709-.145.087-.025.174-.042.261-.058a39.525,39.525,0,0,0,4.2-1.123c.071.406.164.907.273,1.5,1.172,6.447,4.182,23.217,4.983,29.329,1,7.632,1.728,19.264,1.728,19.264Z" fill="#6b63a9"/>
    <path id="Trazado_6873" data-name="Trazado 6873" d="M217.7,1031.473a99,99,0,0,0,15.465.315,70.579,70.579,0,0,0,9.744-1.243,71.216,71.216,0,0,1-9.742,1.243,99.519,99.519,0,0,1-15.467-.315Z" fill="#f8be90"/>
    <path id="Trazado_6874" data-name="Trazado 6874" d="M206.449,1028.97h0a11.754,11.754,0,0,0,3.3,1.3,11.719,11.719,0,0,1-3.3-1.3Z" fill="#f8be90"/>
    <path id="Trazado_6875" data-name="Trazado 6875" d="M233.623,955.27l-.006.005c-.006,0-.011.006-.028.017a.493.493,0,0,0-.07.043c-.006,0-.011.006-.017.006-.038.021-.082.049-.136.076l-.011.011c-.054.027-.125.06-.2.1-.006.005-.011.005-.016.011-.077.038-.164.076-.262.12,0,.005-.006.005-.011.005-.093.044-.2.093-.317.137,0,.005-.01.005-.016.01-.119.044-.245.1-.381.148-.006,0-.011.005-.017.005-.13.049-.278.1-.425.147a.234.234,0,0,0-.038.017l-.469.141c-.022.006-.038.012-.06.017-.169.049-.343.1-.529.142l-.065.016c-.175.044-.36.087-.551.125-.038.011-.071.017-.109.028-.191.038-.387.071-.594.109a.976.976,0,0,0-.131.027c-.2.033-.4.06-.611.087-.066.011-.12.022-.185.027-.213.028-.437.05-.66.071-.071.011-.136.017-.207.022-.218.022-.453.038-.687.055-.088,0-.164.011-.245.016-.322.016-.661.027-1,.033-.3.005-.6.005-.883,0-.076-.006-.147-.006-.224-.006l-.774-.032a1.2,1.2,0,0,0-.147-.011l-.567-.049c-.087-.011-.18-.022-.267-.028-.164-.021-.317-.038-.464-.059l-.409-.066c-.076-.016-.158-.027-.229-.044a2.86,2.86,0,0,1-.338-.065h-.005c-.273-.055-.524-.12-.758-.186h-.016a5.936,5.936,0,0,1-2.269-1.041s4.679-1.685,4.951-3.321a6.274,6.274,0,0,0-.567-3.7,8.561,8.561,0,0,0-.878-1.511c.207.1.42.185.627.262a9.49,9.49,0,0,0,8.375-1.085c-.147.6-.338,1.407-.523,2.246a19.265,19.265,0,0,0-.72,4.335c.224.474,2.759,1.859,3.746,2.382.24.131.387.208.393.208Z" fill="#f8be90"/>
    <path id="Trazado_6876" data-name="Trazado 6876" d="M231.148,956.285l.056-.017-.056.017Z" fill="#f8be90"/>
    <path id="Trazado_6877" data-name="Trazado 6877" d="M230.554,956.443l.062-.016-.062.016Z" fill="#f8be90"/>
    <path id="Trazado_6878" data-name="Trazado 6878" d="M231.675,956.124l.039-.014-.039.014Z" fill="#f8be90"/>
    <path id="Trazado_6879" data-name="Trazado 6879" d="M222.7,956.914l.03,0,.2.021.039,0-.271-.028Z" fill="#f8be90"/>
    <path id="Trazado_6880" data-name="Trazado 6880" d="M226.572,957.007c.084,0,.16-.012.243-.017-.083.005-.159.013-.243.017Z" fill="#f8be90"/>
    <path id="Trazado_6881" data-name="Trazado 6881" d="M229.893,956.593l.11-.025-.11.025Z" fill="#f8be90"/>
    <path id="Trazado_6882" data-name="Trazado 6882" d="M223.54,956.99l.147.012-.147-.012Z" fill="#f8be90"/>
    <path id="Trazado_6883" data-name="Trazado 6883" d="M227.506,956.941c.071-.007.134-.016.2-.022-.069.006-.132.015-.2.022Z" fill="#f8be90"/>
    <path id="Trazado_6884" data-name="Trazado 6884" d="M229.166,956.729l.134-.025-.134.025Z" fill="#f8be90"/>
    <path id="Trazado_6885" data-name="Trazado 6885" d="M221.265,956.684h0c.106.023.218.044.331.065h.007c-.115-.021-.229-.043-.338-.066Z" fill="#f8be90"/>
    <path id="Trazado_6886" data-name="Trazado 6886" d="M228.37,956.846c.065-.008.124-.018.188-.028-.064.009-.123.02-.188.028Z" fill="#f8be90"/>
    <path id="Trazado_6887" data-name="Trazado 6887" d="M221.833,956.79l.025,0c.1.017.2.034.3.05l.083.01c-.141-.02-.277-.041-.41-.064Z" fill="#f8be90"/>
    <path id="Trazado_6888" data-name="Trazado 6888" d="M224.465,957.035l.072,0h.147l-.219,0Z" fill="#f8be90"/>
    <path id="Trazado_6889" data-name="Trazado 6889" d="M232.872,955.664l.011-.006-.011.006Z" fill="#f8be90"/>
    <path id="Trazado_6890" data-name="Trazado 6890" d="M233.591,955.289l.024-.015-.024.015Z" fill="#f8be90"/>
    <path id="Trazado_6891" data-name="Trazado 6891" d="M233.354,955.426l.014-.007-.014.007Z" fill="#f8be90"/>
    <path id="Trazado_6892" data-name="Trazado 6892" d="M233.144,955.535l.015-.008-.015.008Z" fill="#f8be90"/>
    <path id="Trazado_6893" data-name="Trazado 6893" d="M233.5,955.343l.016-.01-.016.01Z" fill="#f8be90"/>
    <path id="Trazado_6894" data-name="Trazado 6894" d="M232.537,955.808l.015-.007-.015.007Z" fill="#f8be90"/>
    <path id="Trazado_6895" data-name="Trazado 6895" d="M232.139,955.962l.016-.006-.016.006Z" fill="#f8be90"/>
    <path id="Trazado_6896" data-name="Trazado 6896" d="M235.269,935.428c-.142,3.4-1.271,7.056-2.9,9.084a8.92,8.92,0,0,1-1.57,1.538c-.028.016-.05.032-.077.049a9.49,9.49,0,0,1-8.375,1.085c-.207-.077-.42-.164-.627-.262a7.905,7.905,0,0,1-2.993-2.3,9.377,9.377,0,0,1-1.113-1.8,13.5,13.5,0,0,1-.992-3.179c-.044-.223-.082-.447-.125-.665-.731-4.051-.791-7.1-.322-8.871.044-.147.082-.289.131-.415a.279.279,0,0,1,.027-.021h.006c.049-.033.152-.1.3-.191.054-.033.109-.066.169-.1.147-.081.327-.185.528-.294.017-.011.039-.017.055-.027.076-.044.164-.088.251-.131.027-.016.06-.033.093-.049a2.986,2.986,0,0,1,.272-.136.416.416,0,0,1,.087-.044c.12-.06.246-.12.382-.186a.5.5,0,0,0,.082-.038c.109-.049.218-.1.333-.147.043-.022.092-.044.141-.065.1-.044.213-.088.322-.137.049-.016.1-.038.142-.054.158-.066.321-.131.49-.2,2.268-.861,4.908-1.177,9.406,1.821a18.767,18.767,0,0,1,3.958,3.5c.436.523.807.883,1.112,1.27a9.512,9.512,0,0,0,.8.97Z" fill="#f8be90"/>
    <path id="Trazado_6897" data-name="Trazado 6897" d="M216.815,929.379l-.169.1.169-.1Z" fill="#f8be90"/>
    <path id="Trazado_6898" data-name="Trazado 6898" d="M216.815,929.379h0Z" fill="#f8be90"/>
    <path id="Trazado_6899" data-name="Trazado 6899" d="M233.623,955.27l0,0h0l0,0Z" fill="#f8be90"/>
    <path id="Trazado_6900" data-name="Trazado 6900" d="M218.251,955.482l.023.018-.023-.018Z" fill="#f8be90"/>
    <path id="Trazado_6901" data-name="Trazado 6901" d="M220.505,956.5l-.016-.005-.018-.005.061.017-.027-.007Z" fill="#f8be90"/>
    <path id="Trazado_6902" data-name="Trazado 6902" d="M218.219,955.455l.013.011-.013-.011Z" fill="#f8be90"/>
    <path id="Trazado_6903" data-name="Trazado 6903" d="M221.262,956.683h0Z" fill="#f8be90"/>
    <path id="Trazado_6904" data-name="Trazado 6904" d="M218.376,955.577l.007.005-.007-.005Z" fill="#f8be90"/>
    <path id="Trazado_6905" data-name="Trazado 6905" d="M218.474,955.643l.01.006-.01-.006Z" fill="#f8be90"/>
    <path id="Trazado_6906" data-name="Trazado 6906" d="M222.975,956.942c.182.019.37.034.565.048-.195-.013-.382-.03-.565-.048Z" fill="#f8be90"/>
    <path id="Trazado_6907" data-name="Trazado 6907" d="M221.6,956.75l.23.04-.23-.04Z" fill="#f8be90"/>
    <path id="Trazado_6908" data-name="Trazado 6908" d="M223.687,957c.248.015.51.025.778.033-.268-.008-.529-.018-.778-.033Z" fill="#f8be90"/>
    <path id="Trazado_6909" data-name="Trazado 6909" d="M222.243,956.854c.149.022.3.041.461.06-.159-.019-.312-.038-.461-.06Z" fill="#f8be90"/>
    <path id="Trazado_6910" data-name="Trazado 6910" d="M221.262,956.683h0Z" fill="#f8be90"/>
    <path id="Trazado_6911" data-name="Trazado 6911" d="M231.714,956.11l.215-.074c.066-.023.136-.046.2-.069l.012-.005c-.132.049-.275.1-.425.148Z" fill="#f8be90"/>
    <path id="Trazado_6912" data-name="Trazado 6912" d="M233.62,955.271h0l0,0,0,0Z" fill="#f8be90"/>
    <path id="Trazado_6913" data-name="Trazado 6913" d="M220.489,956.494l.016.005-.016-.005Z" fill="#f8be90"/>
    <path id="Trazado_6914" data-name="Trazado 6914" d="M229.3,956.7l.289-.054c.1-.019.2-.036.3-.056h.006c-.189.039-.39.075-.593.111Z" fill="#f8be90"/>
    <path id="Trazado_6915" data-name="Trazado 6915" d="M231.2,956.268c.067-.019.128-.039.192-.058.091-.028.185-.055.27-.083l.009,0c-.147.048-.306.1-.471.144Z" fill="#f8be90"/>
    <path id="Trazado_6916" data-name="Trazado 6916" d="M230,956.568l.192-.043c.118-.027.241-.053.353-.08l.006,0c-.174.043-.361.085-.551.125Z" fill="#f8be90"/>
    <path id="Trazado_6917" data-name="Trazado 6917" d="M233.519,955.333l.072-.044c-.016.011-.043.027-.072.044Z" fill="#f8be90"/>
    <path id="Trazado_6918" data-name="Trazado 6918" d="M232.552,955.8c.1-.039.185-.078.267-.114l.037-.016.016-.007c-.1.043-.2.09-.32.137Z" fill="#f8be90"/>
    <path id="Trazado_6919" data-name="Trazado 6919" d="M233.368,955.419l.135-.076-.135.076Z" fill="#f8be90"/>
    <path id="Trazado_6920" data-name="Trazado 6920" d="M232.155,955.956c.088-.032.168-.064.247-.1l.121-.046.014-.006c-.117.048-.245.1-.382.148Z" fill="#f8be90"/>
    <path id="Trazado_6921" data-name="Trazado 6921" d="M233.159,955.527l.2-.1-.2.1Z" fill="#f8be90"/>
    <path id="Trazado_6922" data-name="Trazado 6922" d="M232.883,955.658q.144-.066.261-.123-.117.057-.261.123Z" fill="#f8be90"/>
    <path id="Trazado_6923" data-name="Trazado 6923" d="M230.616,956.427l.187-.05c.113-.03.231-.059.338-.089l.007,0c-.168.048-.347.1-.532.142Z" fill="#f8be90"/>
    <path id="Trazado_6924" data-name="Trazado 6924" d="M227.709,956.919c.225-.023.449-.045.661-.073-.212.028-.436.05-.661.073Z" fill="#f8be90"/>
    <path id="Trazado_6925" data-name="Trazado 6925" d="M225.569,957.042c-.308.005-.6,0-.885,0,.285.006.577.008.885,0Z" fill="#f8be90"/>
    <path id="Trazado_6926" data-name="Trazado 6926" d="M226.815,956.99c.235-.015.469-.029.691-.049-.222.02-.457.034-.691.049Z" fill="#f8be90"/>
    <path id="Trazado_6927" data-name="Trazado 6927" d="M225.569,957.042q.519-.009,1-.035-.485.025-1,.035Z" fill="#f8be90"/>
    <path id="Trazado_6928" data-name="Trazado 6928" d="M228.558,956.818c.157-.021.311-.043.461-.068.044-.007.094-.012.138-.02h.009c-.194.032-.4.061-.608.089Z" fill="#f8be90"/>
    <path id="Trazado_6929" data-name="Trazado 6929" d="M230.554,956.443l-.006,0c.089-.022.169-.045.255-.068l-.187.05-.062.016Z" fill="#f8be90"/>
    <path id="Trazado_6930" data-name="Trazado 6930" d="M231.675,956.124l-.009,0c.094-.031.176-.061.263-.091l-.215.074-.039.014Z" fill="#f8be90"/>
    <path id="Trazado_6931" data-name="Trazado 6931" d="M232.537,955.808l-.014.006c.108-.044.205-.087.3-.127-.082.036-.171.075-.267.114l-.015.007Z" fill="#f8be90"/>
    <path id="Trazado_6932" data-name="Trazado 6932" d="M222.243,956.854l-.083-.01c.183.027.376.051.574.074l-.03,0c-.159-.019-.312-.038-.461-.06Z" fill="#f8be90"/>
    <path id="Trazado_6933" data-name="Trazado 6933" d="M229.166,956.729h-.009c.15-.025.29-.053.432-.08l-.289.054-.134.025Z" fill="#f8be90"/>
    <path id="Trazado_6934" data-name="Trazado 6934" d="M221.264,956.684h0Z" fill="#f8be90"/>
    <path id="Trazado_6935" data-name="Trazado 6935" d="M232.139,955.962l-.012.005c.1-.036.187-.071.275-.107-.079.032-.159.064-.247.1l-.016.006Z" fill="#f8be90"/>
    <path id="Trazado_6936" data-name="Trazado 6936" d="M228.37,956.846c-.212.028-.436.05-.661.073-.069.006-.132.015-.2.022-.222.02-.456.034-.691.049-.083.005-.159.013-.243.017q-.485.025-1,.035c-.308.005-.6,0-.885,0h-.078c.309.007.626.01.963,0a24.119,24.119,0,0,0,3.45-.293c-.15.025-.3.047-.461.068-.064.01-.123.02-.188.028Z" fill="#f8be90"/>
    <path id="Trazado_6937" data-name="Trazado 6937" d="M223.687,957l-.147-.012c-.195-.014-.383-.029-.565-.048l-.039,0c.487.05,1.02.084,1.6.1l-.072,0c-.268-.008-.53-.018-.778-.033Z" fill="#f8be90"/>
    <path id="Trazado_6938" data-name="Trazado 6938" d="M229.893,956.593h-.006c.108-.022.205-.046.308-.069l-.192.043-.11.025Z" fill="#f8be90"/>
    <path id="Trazado_6939" data-name="Trazado 6939" d="M233.591,955.289l-.072.044-.016.01-.135.076-.014.007-.2.1-.015.008q-.117.057-.261.123l-.011.006-.016.007a5.9,5.9,0,0,0,.765-.4h0l0,0-.024.015Z" fill="#f8be90"/>
    <path id="Trazado_6940" data-name="Trazado 6940" d="M221.6,956.75H221.6c.085.016.173.03.262.045l-.025,0-.23-.04Z" fill="#f8be90"/>
    <path id="Trazado_6941" data-name="Trazado 6941" d="M231.148,956.285l-.007,0c.09-.026.17-.053.255-.078-.064.019-.125.039-.192.058l-.056.017Z" fill="#f8be90"/>
    <path id="Trazado_6942" data-name="Trazado 6942" d="M229.887,956.594c-.095.02-.2.037-.3.056.1-.019.2-.036.3-.056Z" fill="#f8be90"/>
    <path id="Trazado_6943" data-name="Trazado 6943" d="M231.141,956.288c-.107.03-.225.059-.338.089.114-.03.231-.059.338-.089Z" fill="#f8be90"/>
    <path id="Trazado_6944" data-name="Trazado 6944" d="M230.548,956.445c-.112.027-.235.053-.353.08.118-.027.241-.053.353-.08Z" fill="#f8be90"/>
    <path id="Trazado_6945" data-name="Trazado 6945" d="M229.157,956.73c-.044.008-.094.013-.138.02.044-.007.094-.012.138-.02Z" fill="#f8be90"/>
    <path id="Trazado_6946" data-name="Trazado 6946" d="M231.666,956.127c-.085.028-.179.055-.27.083.09-.028.185-.055.27-.083Z" fill="#f8be90"/>
    <path id="Trazado_6947" data-name="Trazado 6947" d="M232.523,955.814l-.121.046.121-.046Z" fill="#f8be90"/>
    <path id="Trazado_6948" data-name="Trazado 6948" d="M232.127,955.967c-.062.023-.132.046-.2.069.066-.023.136-.046.2-.069Z" fill="#f8be90"/>
    <path id="Trazado_6949" data-name="Trazado 6949" d="M232.856,955.671l-.037.016.037-.016Z" fill="#f8be90"/>
    <path id="Trazado_6950" data-name="Trazado 6950" d="M233.623,955.27h0a5.9,5.9,0,0,1-.765.4l-.037.016c-.091.04-.188.083-.3.127l-.121.046c-.088.036-.176.071-.275.107-.062.023-.132.046-.2.069-.087.03-.169.06-.263.091s-.18.055-.27.083-.165.052-.255.078c-.107.03-.224.059-.338.089-.086.023-.166.046-.255.068-.112.027-.235.053-.353.08s-.2.047-.308.069-.2.037-.3.056c-.142.027-.282.055-.432.08-.044.008-.094.013-.138.02a24.119,24.119,0,0,1-3.45.293c-.337.006-.654,0-.963,0h-.069c-.581-.015-1.114-.049-1.6-.1l-.2-.021c-.2-.023-.391-.047-.574-.074-.105-.016-.2-.033-.3-.05s-.177-.029-.262-.045c-.113-.021-.225-.042-.331-.065h0c-.264-.055-.5-.115-.73-.177l-.061-.017a7.217,7.217,0,0,1-1.988-.839l-.009-.007-.091-.061-.007,0c-.044-.031-.078-.057-.1-.077l-.023-.018-.019-.016-.013-.011s-2.246.753-4.569,1.538a11.642,11.642,0,0,0,6.614,4.274,16.8,16.8,0,0,0,2.962.526,33.777,33.777,0,0,0,7.522-.121h.006a11.056,11.056,0,0,0,6.9-4.662l-4.034-1.739Z" fill="#ef7d80"/>
    <path id="Trazado_6951" data-name="Trazado 6951" d="M227.161,962.441c-1.946-.034-2.78,2.645-2.477,4.372a2.74,2.74,0,0,0,2.822,2.135,2.6,2.6,0,0,0,2.381-2.408c.1-1.59-.644-4.062-2.726-4.1Z" fill="#dddbef"/>
    <path id="Trazado_6952" data-name="Trazado 6952" d="M233.8,1022.427c-1.428-6-3-19.147-3-19.147h0l-2.431,3.472-3.241-3.2h0s.73,9.883,0,14.722a29.34,29.34,0,0,1-2.912,9.817,29.736,29.736,0,0,1-2.432,3.572c1.963.145,4.139.261,6.489.285,2.055.029,4.241-.008,6.526-.136.12,0,.246-.017.365-.021,1.62-.091,3.135-.232,4.526-.41a29.951,29.951,0,0,1-3.888-8.951Z" fill="#ef7d80"/>
    <path id="Trazado_6953" data-name="Trazado 6953" d="M224.459,969.566c-.23,4.649.668,33.983.668,33.983h0l3.241,3.2,2.431-3.472,0-.005-.5-34.208a4.783,4.783,0,0,1-5.841.5Z" fill="#fdc954"/>
    <path id="Trazado_6954" data-name="Trazado 6954" d="M232.8,1031.809c-2.285.128-4.471.165-6.526.136.114-1.885.425-6.547.85-9.584.545-3.887.889-12.34,1.09-12.539,0,0,4.062,19.894,4.586,21.987Z" fill="#dddbef"/>
    <path id="Trazado_6955" data-name="Trazado 6955" d="M323.448,914.7a16.963,16.963,0,0,0-9.586-7.134c-4.408-1.045-9.224.454-13.177,2.317s-5.589,4.135-6,6.5c-.386,2.229,1.46,4.1,4.26,4.908a50.947,50.947,0,0,0,5.918-.955,44.894,44.894,0,0,1,10.814-.909,49,49,0,0,1,8,1.091c1.181-.546,1.09-3.5-.228-5.816Z" fill="#fdc954"/>
    <path id="Trazado_6956" data-name="Trazado 6956" d="M323.26,920.422h0Z" fill="#f8be90"/>
    <path id="Trazado_6957" data-name="Trazado 6957" d="M317.524,921.229h0l.593.047-.593-.047Z" fill="#f8be90"/>
    <path id="Trazado_6958" data-name="Trazado 6958" d="M319.541,926.919a4.933,4.933,0,0,1,2.639-3.266l.133-.187.791-2.545a3.013,3.013,0,0,1-2.2.6c-.543-.041-1.594-.145-2.787-.244a14.079,14.079,0,0,1,1.2,1.448c.591.849.227,4.2.227,4.2Z" fill="#5e1a47"/>
    <path id="Trazado_6959" data-name="Trazado 6959" d="M323.676,920.513s-.15-.035-.416-.091l-.156.5c.177-.118.362-.249.572-.408Z" fill="#f8be90"/>
    <path id="Trazado_6960" data-name="Trazado 6960" d="M323.259,920.422a48.186,48.186,0,0,0-7.58-1,44.894,44.894,0,0,0-10.814.909,50.947,50.947,0,0,1-5.918.955h0c-.347.271-.219.592.082.854a2.287,2.287,0,0,0,.749.416,14.923,14.923,0,0,0,6.089-.363,40.575,40.575,0,0,1,8.587-1.136c.938.019,2.033.09,3.072.171l.593.047c1.193.1,2.244.2,2.787.244a3.013,3.013,0,0,0,2.2-.6l.156-.5Z" fill="#fab42b"/>
    <path id="Trazado_6961" data-name="Trazado 6961" d="M321.586,930.69a9.323,9.323,0,0,1-3.451,2.907,2.968,2.968,0,0,1-.235.621,19.576,19.576,0,0,1-2.584,3.789c-2.634,3.223-4.908,4.041-7.225,4.133a8.23,8.23,0,0,1-2.388-.25,7.177,7.177,0,0,1-4.384-3.25,9.416,9.416,0,0,1-.708-1.429,22.253,22.253,0,0,1-1.211-5.152c-.093-.753-.125-1.232-.125-1.232a4.292,4.292,0,0,1-1.816-2.274c-.545-1.587-.682-4.858.365-4.951s1.451,2.41,1.451,2.41-.224-3.32-.251-3.871h.005a2.163,2.163,0,0,0,.747.414,14.848,14.848,0,0,0,6.09-.36,40.754,40.754,0,0,1,8.588-1.139c.938.022,2.028.093,3.07.174.2.017.4.028.594.044a13.773,13.773,0,0,1,1.194,1.45c.594.851.229,4.193.229,4.193a4.933,4.933,0,0,1,2.639-3.266.779.779,0,0,1,.769.044c.551.5-.093,5.087-1.363,6.995Z" fill="#f8be90"/>
    <path id="Trazado_6962" data-name="Trazado 6962" d="M309.454,944.888l-4.035,3.283-.005.005-2.187,1.778.126-.289,2.8-6.4c.207.584.392,1.1.392,1.1a4.706,4.706,0,0,0,2.186.534h.006a6.16,6.16,0,0,0,.714-.011Z" fill="#dddbef"/>
    <path id="Trazado_6963" data-name="Trazado 6963" d="M309.992,944.45l.1-.083-.268-.075h0a.762.762,0,0,1,.166.158Z" fill="#f8be90"/>
    <path id="Trazado_6964" data-name="Trazado 6964" d="M312.769,948.754l-3.2,3.653.24,4.362-.011.022-5.115,8.113-.823-6.02-.2-1.471,3-5.006v-1.859l-.806-1.527-.442-.845.005-.005,3.272-3.228.043-.044h.006a6.16,6.16,0,0,0,.714-.011s.8-.125.818-.109c.513.627,1.39,1.772,2.252,2.923a.112.112,0,0,1,.033.038c.169.229.337.453.506.676l-.294.338Z" fill="#eb5b52"/>
    <path id="Trazado_6965" data-name="Trazado 6965" d="M290.584,1008.219c.044,0,.086.008.128.008.094.008.186.017.277.021.045,0,.09,0,.134,0l.265.012c.035,0,.072.005.106.005.119,0,.234,0,.345,0h.323c.032,0,.064,0,.1,0,.069,0,.137-.005.2-.005a.668.668,0,0,0,.09,0c.07,0,.136,0,.2-.008a.24.24,0,0,0,.054,0c.081,0,.158-.008.228-.013a38.657,38.657,0,0,1-.463-5.212v0h0a21.529,21.529,0,0,1-3.132-.717,11.229,11.229,0,0,1-2.841-1.277l-.311,5.727a11.385,11.385,0,0,0,1.781.887,8.161,8.161,0,0,0,2.1.542c.143.017.282.03.418.038Z" fill="#dddbef"/>
    <path id="Trazado_6966" data-name="Trazado 6966" d="M292.258,1008.269c-.032,0-.064,0-.1,0,.033,0,.064,0,.1,0Z" fill="#f8be90"/>
    <path id="Trazado_6967" data-name="Trazado 6967" d="M292.8,1008.248a.24.24,0,0,1-.054,0,.24.24,0,0,0,.054,0Z" fill="#f8be90"/>
    <path id="Trazado_6968" data-name="Trazado 6968" d="M292.55,1008.26a.668.668,0,0,1-.09,0,.668.668,0,0,0,.09,0Z" fill="#f8be90"/>
    <path id="Trazado_6969" data-name="Trazado 6969" d="M291.494,1008.269c-.034,0-.071-.005-.106-.005.036,0,.072.005.106.005Z" fill="#f8be90"/>
    <path id="Trazado_6970" data-name="Trazado 6970" d="M291.878,1008.273h0Z" fill="#f8be90"/>
    <path id="Trazado_6971" data-name="Trazado 6971" d="M290.712,1008.227c-.042,0-.084,0-.128-.008.044,0,.086.008.128.008Z" fill="#f8be90"/>
    <path id="Trazado_6972" data-name="Trazado 6972" d="M291.123,1008.252c-.044,0-.089,0-.134,0,.045,0,.09,0,.134,0Z" fill="#f8be90"/>
    <path id="Trazado_6973" data-name="Trazado 6973" d="M337.605,950.346h-.016a26.833,26.833,0,0,0-4.074,1.2c-.616.409-3.14,1.772-3.958,3.407s-3.746,7.977-3.746,9.133,1.363,4.635,2.59,6.543c.278.431.649,1.047,1.058,1.739,1.4,2.378,3.239,5.687,3.239,5.687v.682s-3.141,11.859-3.342,13.636,1.019,7.492,1.019,7.492l-.5,1.9-.18.7s-.518.174-1.33.435c-1.1.352-2.727.862-4.33,1.335-2.791.816-11.313,2.867-14.214,4.23a23.442,23.442,0,0,0-5.48,3.883,33.955,33.955,0,0,1-1.843-4.637c-.545-1.972-1.57-8.587-1.57-8.587s-.1.234-.273.627c-.681,1.558-2.464,5.623-3.336,7.413-1.091,2.25-2.661,5.863-2.661,5.863s-.589-.484-1.243-3.025c-.088-.323-.169-.671-.251-1.064-.049-.224-.093-.456-.137-.7a38.657,38.657,0,0,1-.463-5.212v-.009c-.087-2.577-.055-5.488-.016-8.542.07-5.73-2.383-22.491-2.383-22.491a64.715,64.715,0,0,1,1.974-9.541c1.156-3.348,4.024-13.211,4.024-13.211l9.471-4.772-2.411,5.5.366,6.979.011.076.054,1.079.2.8.823,6.02.039-.065.316-.5,4.76-7.546,3.909-7.721,3.653-7.2,1.587,1.4,18.658,7.077Z" fill="#9f99cb"/>
    <path id="Trazado_6974" data-name="Trazado 6974" d="M348.439,971.243c-3.681-8.793-5.044-15.063-7.906-18.675a5.885,5.885,0,0,0-2.945-2.152,26.535,26.535,0,0,0-4.075,1.2c-.614.409-3.135,1.772-3.953,3.408s-3.749,7.974-3.749,9.132,1.363,4.635,2.59,6.543,4.294,7.429,4.294,7.429l2.794,5.589a33.205,33.205,0,0,0,0,5.93s-1.227,6.542-1.908,8.383-1.84,4.7-1.84,4.7,3.067,1.318,4.5,1.989,6.884,1.011,6.884,1.011h2.385s5.793-8.518,6.543-12.948.068-12.745-3.612-21.537Z" fill="#dddbef"/>
    <path id="Trazado_6975" data-name="Trazado 6975" d="M342.125,1010.133c-.589.8-1.232,1.575-1.914,2.333A62.456,62.456,0,0,1,330.1,1021.2l-3.817-8.18,3.207-5.623.365-.642a21.236,21.236,0,0,0,4.88,2.519,23.35,23.35,0,0,0,7.388.858Z" fill="#f8be90"/>
    <path id="Trazado_6976" data-name="Trazado 6976" d="M343.123,1005.728s-5.453-.339-6.884-1.011-4.5-1.989-4.5-1.989a29.266,29.266,0,0,0-2.181,3.817s.107.083.3.211a21.077,21.077,0,0,0,4.885,2.515,22.941,22.941,0,0,0,7.382.858,14.666,14.666,0,0,0,2.5-.244l.886-4.157Z" fill="#dddbef"/>
    <path id="Trazado_6977" data-name="Trazado 6977" d="M316.588,1127.2s-.091-.3-.255-.841c-3.539,1.566-14.308,7.156-14.308,7.156l6.674.427,10.414-5.714a3.188,3.188,0,0,1-2.525-1.028Z" fill="#5e1a47"/>
    <path id="Trazado_6978" data-name="Trazado 6978" d="M324.766,1129.11a43.539,43.539,0,0,1-4.907-1,4.064,4.064,0,0,1-.468.092c-3.074.725-11.993,5.163-12.186,5.589-.2.448,21.742,0,21.742,0l-1.182-4.682a7.807,7.807,0,0,1-3,0Z" fill="#5e1a47"/>
    <path id="Trazado_6979" data-name="Trazado 6979" d="M319.391,1128.2a4.064,4.064,0,0,0,.468-.092,4.571,4.571,0,0,0-.468.092Z" fill="#fdc954"/>
    <path id="Trazado_6980" data-name="Trazado 6980" d="M308.545,906.972c0,.865,1.727.909,2.863.864s1.863-.409,1.863-1.045-1.546-.637-2.363-.682-2.363.137-2.363.863Z" fill="#5e1a47"/>
    <path id="Trazado_6981" data-name="Trazado 6981" d="M217.341,931.644a4.408,4.408,0,0,1,3.556-.613c1.149.307,1.217,1.056.961,1.329s-1.106-.575-2.2-.73a9.7,9.7,0,0,0-2.32.014Z" fill="#5e1a47"/>
    <path id="Trazado_6982" data-name="Trazado 6982" d="M232.96,932.126c-1.613-1.1-3.947-1.481-4.81-.566-.529.561-.319,1.24.606.846a17.346,17.346,0,0,1,4.2-.28Z" fill="#5e1a47"/>
    <path id="Trazado_6983" data-name="Trazado 6983" d="M222.253,940.3a.136.136,0,0,1-.088-.032.14.14,0,0,1-.044-.14l1.814-6.713a.136.136,0,1,1,.263.071l-1.738,6.433,1.746-.8a.136.136,0,0,1,.113.248l-2.009.92a.142.142,0,0,1-.057.012Z" fill="#ce6a15"/>
    <path id="Trazado_6984" data-name="Trazado 6984" d="M224.724,943.741a2.641,2.641,0,0,1-1.849-.69.137.137,0,0,1,.2-.186c.053.056,1.315,1.363,3.671-.024a.137.137,0,1,1,.139.235,4.262,4.262,0,0,1-2.161.665Z" fill="#ce6a15"/>
    <path id="Trazado_6985" data-name="Trazado 6985" d="M228.862,974.787a.135.135,0,0,1-.11-.057L227.5,973l-1.474,1.742a.137.137,0,0,1-.208-.177l1.587-1.874a.154.154,0,0,1,.11-.048.132.132,0,0,1,.1.056l1.357,1.874a.136.136,0,0,1-.031.19.133.133,0,0,1-.08.027Z" fill="#5e1a47"/>
    <path id="Trazado_6986" data-name="Trazado 6986" d="M225.918,978.464a.138.138,0,0,1-.059-.014.135.135,0,0,1-.065-.175c.047-.105,1.137-1.555,1.6-2.173a.131.131,0,0,1,.112-.055.14.14,0,0,1,.11.061l1.356,2.01a.136.136,0,0,1-.226.153l-1.249-1.853c-.579.769-1.4,1.875-1.46,1.974a.141.141,0,0,1-.122.072Z" fill="#5e1a47"/>
    <path id="Trazado_6987" data-name="Trazado 6987" d="M228.862,981.636a.135.135,0,0,1-.107-.053l-1.364-1.749-1.365,1.749a.136.136,0,0,1-.215-.167l1.472-1.887a.142.142,0,0,1,.215,0l1.472,1.887a.137.137,0,0,1-.024.191.134.134,0,0,1-.084.029Z" fill="#5e1a47"/>
    <path id="Trazado_6988" data-name="Trazado 6988" d="M225.919,985.282a.132.132,0,0,1-.084-.029.136.136,0,0,1-.024-.191l1.587-2.044a.134.134,0,0,1,.109-.053.137.137,0,0,1,.108.055l1.357,1.839a.136.136,0,1,1-.219.162l-1.25-1.694-1.477,1.9a.137.137,0,0,1-.107.052Z" fill="#5e1a47"/>
    <path id="Trazado_6989" data-name="Trazado 6989" d="M228.862,988.315a.138.138,0,0,1-.106-.05l-1.253-1.543-1.329,1.546a.136.136,0,0,1-.207-.178l1.435-1.67a.147.147,0,0,1,.106-.047.135.135,0,0,1,.1.05l1.356,1.67a.136.136,0,0,1-.02.192.132.132,0,0,1-.086.03Z" fill="#5e1a47"/>
    <path id="Trazado_6990" data-name="Trazado 6990" d="M225.919,991.689a.137.137,0,0,1-.108-.22l1.548-1.977a.13.13,0,0,1,.111-.052.137.137,0,0,1,.108.058l1.271,1.806a.137.137,0,0,1-.224.157l-1.164-1.656-1.435,1.832a.137.137,0,0,1-.107.052Z" fill="#5e1a47"/>
    <path id="Trazado_6991" data-name="Trazado 6991" d="M228.737,995.165a.137.137,0,0,1-.117-.067l-1.025-1.707c-.364.447-1.341,1.643-1.426,1.732a.136.136,0,1,1-.2-.189c.069-.072.955-1.155,1.534-1.866a.134.134,0,0,1,.115-.05.139.139,0,0,1,.107.066l1.125,1.874a.136.136,0,0,1-.117.207Z" fill="#5e1a47"/>
    <path id="Trazado_6992" data-name="Trazado 6992" d="M228.737,998.641a.135.135,0,0,1-.108-.054l-1.168-1.534-1.286,1.539a.136.136,0,1,1-.209-.175l1.4-1.67a.124.124,0,0,1,.108-.049.136.136,0,0,1,.1.054l1.27,1.67a.136.136,0,0,1-.108.219Z" fill="#5e1a47"/>
    <path id="Trazado_6993" data-name="Trazado 6993" d="M228.862,1002.285a.127.127,0,0,1-.112-.058l-1.144-1.653-1.277,1.661a.137.137,0,0,1-.191.025.135.135,0,0,1-.025-.19l1.391-1.809a.156.156,0,0,1,.111-.053.135.135,0,0,1,.109.059l1.25,1.807a.136.136,0,0,1-.035.19.125.125,0,0,1-.077.021Z" fill="#5e1a47"/>
    <path id="Trazado_6994" data-name="Trazado 6994" d="M212.538,1019.564a.15.15,0,0,1-.092-.033c-.028-.029-2.879-2.606-4.659-4.019a.136.136,0,0,1-.022-.191.139.139,0,0,1,.192-.021c1.786,1.417,4.644,4,4.673,4.028a.136.136,0,0,1,.009.191.139.139,0,0,1-.1.045Z" fill="#ce6a15"/>
    <path id="Trazado_6995" data-name="Trazado 6995" d="M210.766,1021.023a.125.125,0,0,1-.077-.021c-.019-.012-1.877-1.293-4.228-2.963a.136.136,0,0,1-.032-.19.137.137,0,0,1,.19-.033c2.35,1.669,4.206,2.946,4.224,2.958a.136.136,0,0,1-.077.249Z" fill="#ce6a15"/>
    <path id="Trazado_6996" data-name="Trazado 6996" d="M209.99,1023.927a.155.155,0,0,1-.085-.029c-.018-.016-1.787-1.421-3.566-2.9a.137.137,0,1,1,.174-.212c1.777,1.484,3.544,2.888,3.562,2.9a.137.137,0,0,1,.022.191.141.141,0,0,1-.107.053Z" fill="#ce6a15"/>
    <path id="Trazado_6997" data-name="Trazado 6997" d="M210.679,1030.491c-1.974,11.461-3.981,42.22-4,42.56a.137.137,0,0,1-.137.128h-.011a.136.136,0,0,1-.125-.145c.027-.34,2.034-31.1,4.013-42.605.087.025.174.041.262.062Z" fill="#9f99cb"/>
    <path id="Trazado_6998" data-name="Trazado 6998" d="M214.31,1042.512c-.229,11.822-1.7,35.432-2.116,41.992-.092-.017-.185-.029-.272-.046.42-6.6,1.886-30.149,2.115-41.95a.138.138,0,0,1,.136-.137.143.143,0,0,1,.137.141Z" fill="#9f99cb"/>
    <path id="Trazado_6999" data-name="Trazado 6999" d="M218.765,1071.952a.137.137,0,0,1-.273.005c-.005-.324-.3-29.362-.076-40.418l.272.025c-.223,11.064.071,40.065.077,40.388Z" fill="#9f99cb"/>
    <path id="Trazado_7000" data-name="Trazado 7000" d="M222.543,1085.477c-.093,0-.18,0-.272,0-.1-2.329-.421-9.48-.421-13.156,0-2.151-.19-5.619-.4-9.29-.218-3.9-.464-8.312-.508-11.789a.131.131,0,0,1,.131-.141h.006a.14.14,0,0,1,.136.133c.044,3.477.289,7.885.507,11.78.207,3.672.4,7.152.4,9.307,0,3.68.316,10.848.42,13.16Z" fill="#9f99cb"/>
    <path id="Trazado_7001" data-name="Trazado 7001" d="M228.852,1085.341c-.088.008-.175.012-.268.016-.354-3.7-1.265-13.2-1.554-16.616-.654-7.811-2.159-26.441-1.908-30.874a.147.147,0,0,1,.147-.129.133.133,0,0,1,.125.145c-.25,4.417,1.255,23.031,1.909,30.833.289,3.419,1.194,12.928,1.549,16.625Z" fill="#9f99cb"/>
    <path id="Trazado_7002" data-name="Trazado 7002" d="M235.482,1081.383a.14.14,0,0,1-.115.158h-.022a.131.131,0,0,1-.13-.12c-.022-.145-1.925-14.59-3-19.438-.588-2.656-1.041-9.021-1.515-15.767-.371-5.275-.752-10.7-1.211-14.287.093,0,.181,0,.273,0,.458,3.588.845,9.012,1.21,14.275.475,6.733.922,13.089,1.511,15.729,1.079,4.852,2.982,19.314,3,19.454Z" fill="#9f99cb"/>
    <path id="Trazado_7003" data-name="Trazado 7003" d="M240.138,1084.01c-.093.017-.18.034-.273.046-.076-2.221-.212-5.747-.381-8.644-.142-2.37-.535-5.5-.954-8.809-.388-3.07-.791-6.245-.976-8.818-.164-2.225-.59-5-1.036-7.943a93.655,93.655,0,0,1-1.309-11.511.136.136,0,0,1,.136-.137.15.15,0,0,1,.137.133,94.261,94.261,0,0,0,1.3,11.478c.452,2.942.878,5.722,1.041,7.96.186,2.569.589,5.734.976,8.8.415,3.315.812,6.443.954,8.826.17,2.884.306,6.389.382,8.614Z" fill="#9f99cb"/>
    <path id="Trazado_7004" data-name="Trazado 7004" d="M244.734,1083.091c-.087.02-.174.041-.261.058-.382-1.786-.944-4.534-1.173-6.087a58.32,58.32,0,0,1-.529-11.938c.24-2.545-.741-7.517-1.6-11.909-.53-2.681-1.026-5.217-1.233-7.053a56.212,56.212,0,0,1-.223-6.033,63.046,63.046,0,0,0-.486-8.95c.093-.017.181-.029.273-.046a63.786,63.786,0,0,1,.485,9,55.706,55.706,0,0,0,.224,6c.2,1.828.7,4.355,1.226,7.032.911,4.624,1.849,9.406,1.609,11.992a57.17,57.17,0,0,0,.529,11.867c.229,1.55.785,4.281,1.161,6.071Z" fill="#9f99cb"/>
    <path id="Trazado_7005" data-name="Trazado 7005" d="M249.478,1075.847a.136.136,0,0,1-.126.15h-.01a.137.137,0,0,1-.137-.125c-.011-.12-1-12.116-1.259-14.722-.077-.792-.109-1.517-.142-2.221a18.505,18.505,0,0,0-.774-5.2c-.524-1.687-1.369-8.118-2.181-14.342-.453-3.435-.883-6.721-1.232-8.987.087-.025.174-.042.261-.058.355,2.275.791,5.573,1.238,9.016.812,6.2,1.657,12.626,2.176,14.288a18.865,18.865,0,0,1,.784,5.266c.033.7.066,1.43.142,2.217.257,2.6,1.249,14.6,1.26,14.718Z" fill="#9f99cb"/>
    <path id="Trazado_7006" data-name="Trazado 7006" d="M236.432,990.7a.137.137,0,0,1-.012-.273l.09-.006c1.584-.107,4.469-.659,6-3.149a.134.134,0,0,1,.187-.045.137.137,0,0,1,.045.188c-1.6,2.594-4.58,3.167-6.215,3.278l-.084.006Z" fill="#5e1a47"/>
    <path id="Trazado_7007" data-name="Trazado 7007" d="M301.344,913.584a.139.139,0,0,1-.071-.02.136.136,0,0,1-.045-.188c.758-1.242,3.672-2.972,3.8-3.045a.137.137,0,0,1,.139.235c-.03.018-2.978,1.769-3.7,2.952a.137.137,0,0,1-.116.066Z" fill="#fef6b8"/>
    <path id="Trazado_7008" data-name="Trazado 7008" d="M317.524,916.446a.136.136,0,0,1-.117-.066,12.872,12.872,0,0,0-3.77-3.838.137.137,0,0,1-.047-.187.135.135,0,0,1,.187-.047,13.189,13.189,0,0,1,3.864,3.931.137.137,0,0,1-.046.187.132.132,0,0,1-.071.02Z" fill="#fef6b8"/>
    <path id="Trazado_7009" data-name="Trazado 7009" d="M302.638,934.678a.14.14,0,0,1-.1-.041c-.092-.093-.1-.1,1.591-5.059.415-1.213.806-2.359.827-2.454a.126.126,0,0,1,.135-.125.146.146,0,0,1,.136.147c0,.05-.031.152-.839,2.52-.545,1.6-1.328,3.893-1.556,4.642.542-.237,1.874-.832,2.816-1.254a.136.136,0,0,1,.112.248c-.5.223-2.977,1.334-3.08,1.369a.163.163,0,0,1-.044.007Z" fill="#ce6a15"/>
    <path id="Trazado_7010" data-name="Trazado 7010" d="M300.867,925.34a3.645,3.645,0,0,1,3.3-.238c.99.443.786,1.193.445,1.227s-.789-.525-1.979-.757a10.47,10.47,0,0,0-1.769-.232Z" fill="#5e1a47"/>
    <path id="Trazado_7011" data-name="Trazado 7011" d="M315.616,925.749a5.551,5.551,0,0,0-4.618-.511c-1.646.579-1.067,1.431-.283,1.261s2.249-.6,3.169-.762a5.162,5.162,0,0,1,1.732.012Z" fill="#5e1a47"/>
    <path id="Trazado_7012" data-name="Trazado 7012" d="M310.273,927.385c.829.1.067,2.488-.478,2.453s-.1-2.521.478-2.453Z" fill="#5e1a47"/>
    <path id="Trazado_7013" data-name="Trazado 7013" d="M301.548,926.521c.457.033.375,2.329-.409,2.329s-.238-2.375.409-2.329Z" fill="#5e1a47"/>
    <path id="Trazado_7014" data-name="Trazado 7014" d="M306.677,936.831a7.224,7.224,0,0,1-2.766-.565.136.136,0,1,1,.114-.247,6.634,6.634,0,0,0,4.474.234.137.137,0,0,1,.093.257,5.647,5.647,0,0,1-1.915.321Z" fill="#5e1a47"/>
    <path id="Trazado_7015" data-name="Trazado 7015" d="M305.038,964.337c-.725,7.688-4.068,32.758-4.106,33.025v1.756s-.1.234-.273.627v-2.4c.039-.284,3.239-24.285,4.063-32.507l.316-.5Z" fill="#5e1a47"/>
    <path id="Trazado_7016" data-name="Trazado 7016" d="M294.061,999.483h-.02a3.458,3.458,0,0,1-2.138-.84.137.137,0,0,1,.232-.144,3.349,3.349,0,0,0,2.023.709,1.436,1.436,0,0,0,1.209-.708c1-1.595,1.814-5.706,1.822-5.747a.133.133,0,0,1,.16-.107.135.135,0,0,1,.107.16c-.033.17-.834,4.2-1.858,5.839a1.727,1.727,0,0,1-1.537.838Z" fill="#5e1a47"/>
    <path id="Trazado_7017" data-name="Trazado 7017" d="M345.508,1005.865H345.5c-.047,0-4.747-.2-6.451-.393a17.423,17.423,0,0,1-4.919-1.554c-1.417-.63-2.434-1.057-2.444-1.061a.138.138,0,0,1-.075-.174l2.395-6.666,1.343-6.377a25.456,25.456,0,0,1,0-5.9l-2.258-4.516c-.034-.061-3.662-6.637-4.8-8.453a20,20,0,0,1-2.046-4.4l-.08-.222a6.724,6.724,0,0,1-.485-2,.136.136,0,0,1,.136-.136h0a.138.138,0,0,1,.137.136,6.7,6.7,0,0,0,.468,1.906l.08.222a19.816,19.816,0,0,0,2.021,4.343c1.147,1.822,4.779,8.405,4.815,8.471l2.279,4.558a.124.124,0,0,1,.013.078,25.274,25.274,0,0,0,0,5.893.129.129,0,0,1,0,.048l-1.353,6.419-2.357,6.562c.309.133,1.19.51,2.329,1.015a17.32,17.32,0,0,0,4.84,1.529c1.694.2,6.385.394,6.432.394a.137.137,0,0,1-.006.273Z" fill="#5e1a47"/>
    <path id="Trazado_7018" data-name="Trazado 7018" d="M335.489,983.851a.138.138,0,0,1-.067-.018.137.137,0,0,1-.052-.185c.088-.154,2.153-3.792,4.266-5.292a.136.136,0,1,1,.158.222c-2.064,1.465-4.165,5.167-4.186,5.2a.136.136,0,0,1-.119.069Z" fill="#5e1a47"/>
    <path id="Trazado_7019" data-name="Trazado 7019" d="M335.351,986.167a.134.134,0,0,1-.107-.053.544.544,0,0,1-.053-.478c.163-.541.958-1.07,2.365-1.573a.138.138,0,0,1,.174.083.135.135,0,0,1-.082.174c-1.712.611-2.108,1.128-2.192,1.381a.3.3,0,0,0,.008.252.139.139,0,0,1-.033.189.142.142,0,0,1-.08.025Z" fill="#5e1a47"/>
    <path id="Trazado_7020" data-name="Trazado 7020" d="M336.852,996.2a.137.137,0,0,1-.125-.082,29.961,29.961,0,0,1-1.373-6.459.136.136,0,0,1,.12-.15.133.133,0,0,1,.15.121,30.507,30.507,0,0,0,1.353,6.379.136.136,0,0,1-.07.179.133.133,0,0,1-.055.012Z" fill="#5e1a47"/>
    <path id="Trazado_7021" data-name="Trazado 7021" d="M334.74,1009.408a.17.17,0,0,1-.045,0,19.821,19.821,0,0,1-5.219-2.751.135.135,0,0,1-.034-.174l2.181-3.817a.136.136,0,0,1,.186-.05.138.138,0,0,1,.05.187l-2.121,3.713a19.789,19.789,0,0,0,5.046,2.631.137.137,0,0,1,.084.174.132.132,0,0,1-.128.091Z" fill="#5e1a47"/>
    <path id="Trazado_7022" data-name="Trazado 7022" d="M291.471,1008.517a6.872,6.872,0,0,1-2.449-.418.133.133,0,0,1-.079-.174.138.138,0,0,1,.176-.079,7.617,7.617,0,0,0,3.75.282,37.789,37.789,0,0,1-.435-4.989,15.122,15.122,0,0,1-5.916-2,.138.138,0,0,1-.041-.19.136.136,0,0,1,.189-.037,14.907,14.907,0,0,0,5.915,1.968.134.134,0,0,1,.123.132,37.318,37.318,0,0,0,.46,5.192.135.135,0,0,1-.1.162,7.909,7.909,0,0,1-1.589.149Z" fill="#5e1a47"/>
    <path id="Trazado_7023" data-name="Trazado 7023" d="M292.527,993.164a.136.136,0,0,1-.136-.125c-.006-.071-.58-7.088-.826-9.309S290.044,972.1,290.031,972a75.562,75.562,0,0,1,2.633-11.587.136.136,0,0,1,.259.084A75.566,75.566,0,0,0,290.3,972c.012.064,1.285,9.479,1.533,11.7s.821,9.246.828,9.317a.137.137,0,0,1-.125.147Z" fill="#5e1a47"/>
    <path id="Trazado_7024" data-name="Trazado 7024" d="M317.862,941.552l-.78,2.688-2,6.9s-.621-.845-1.439-1.947c-.191-.245-.382-.507-.584-.774-.169-.223-.337-.447-.506-.676a.112.112,0,0,0-.033-.038c-.862-1.151-1.739-2.3-2.252-2.923.082-.016.169-.038.251-.06,2.159-.61,4.46-3.107,4.885-3.576a1.909,1.909,0,0,1,1.178-.546l.054-.267,1.222,1.222Z" fill="#dddbef"/>
    <path id="Trazado_7025" data-name="Trazado 7025" d="M318.655,930.98a.121.121,0,0,1-.037-.005.135.135,0,0,1-.094-.168,12.073,12.073,0,0,1,1.98-3.745.136.136,0,1,1,.213.169,11.782,11.782,0,0,0-1.931,3.65.136.136,0,0,1-.131.1Z" fill="#ce6a15"/>
    <path id="Trazado_7026" data-name="Trazado 7026" d="M298.84,921.429a3.247,3.247,0,0,1-1.991-.9.138.138,0,0,1-.018-.193.136.136,0,0,1,.191-.017,2.751,2.751,0,0,0,1.9.835c.056-.008,5.145-.639,7.867-1.336a31.8,31.8,0,0,1,7.988-.408c.475.016.909.03,1.287.037a55.408,55.408,0,0,1,5.529.517.136.136,0,1,1-.039.27c-.032-.005-3.294-.475-5.5-.515-.379-.006-.815-.021-1.291-.036a31.551,31.551,0,0,0-7.91.4c-2.74.7-7.846,1.335-7.9,1.342a1.069,1.069,0,0,1-.124.007Z" fill="#fef6b8"/>
    <path id="Trazado_7027" data-name="Trazado 7027" d="M323.675,915.263a.138.138,0,0,1-.122-.076c-1.647-3.341-5.158-5.431-6.312-6.118l-.118-.071a.136.136,0,1,1,.14-.234l.118.07c1.171.7,4.734,2.819,6.417,6.233a.136.136,0,0,1-.062.182.133.133,0,0,1-.061.014Z" fill="#5e1a47"/>
    <path id="Trazado_7028" data-name="Trazado 7028" d="M310.954,993.164a.136.136,0,0,1-.039-.267c4.251-1.258,11.93-2.758,12.008-2.773a.134.134,0,0,1,.159.108.136.136,0,0,1-.107.16c-.077.015-7.744,1.512-11.982,2.767a.19.19,0,0,1-.039.005Z" fill="#5e1a47"/>
    <path id="Trazado_7029" data-name="Trazado 7029" d="M332.15,1022.838l-.013,0c-1.025-.1-2.1-1.492-2.14-1.55l-3.553-7.608a8.63,8.63,0,0,1-.766-5.325.136.136,0,0,1,.266.058,8.527,8.527,0,0,0,.744,5.147l3.541,7.587h0s1.031,1.338,1.933,1.421a.137.137,0,0,1-.012.274Z" fill="#5e1a47"/>
    <path id="Trazado_7030" data-name="Trazado 7030" d="M320.643,1128.306c-.1-.025-.2-.05-.284-.07l-8.271-90.618c-.016-.079-2.3-9.286-4.9-19.968a.134.134,0,0,1,.1-.162.13.13,0,0,1,.169.1c2.6,10.682,4.88,19.893,4.907,19.984l8.283,90.738Z" fill="#fef6b8"/>
    <path id="Trazado_7031" data-name="Trazado 7031" d="M332.375,1116.4a.2.2,0,0,1-.046-.008.135.135,0,0,1-.082-.174c4.335-12.182,5.526-19.032,4.9-28.181a57.188,57.188,0,0,0-3.6-16.575.142.142,0,0,1-.01-.062l1.589-25.537a.131.131,0,0,1,.145-.124.133.133,0,0,1,.128.14l-1.588,25.509a57.682,57.682,0,0,1,3.61,16.628c.628,9.2-.566,16.069-4.917,28.293a.138.138,0,0,1-.128.091Z" fill="#5e1a47"/>
    <path id="Trazado_7032" data-name="Trazado 7032" d="M304.342,1012.474h-.025a.134.134,0,0,1-.1-.078c-.009-.021-.873-1.948-1.433-3.382l-.108-.273a12.719,12.719,0,0,1-1.091-4.869.137.137,0,0,1,.131-.141.145.145,0,0,1,.142.133,12.53,12.53,0,0,0,1.071,4.778l.108.273c.46,1.177,1.126,2.685,1.351,3.2a21.969,21.969,0,0,1,4.31-3.22c1.713-.824,4.2-1.744,10.756-3.563a.137.137,0,0,1,.168.091.14.14,0,0,1-.1.17c-6.538,1.815-9.01,2.73-10.71,3.547a23.6,23.6,0,0,0-4.38,3.3.136.136,0,0,1-.1.037Z" fill="#5e1a47"/>
    <path id="Trazado_7033" data-name="Trazado 7033" d="M329.356,992.373c-.2,1.767,1.019,7.492,1.019,7.492l-.5,1.9-.18.7s-.518.174-1.33.435c-.273-2.958-.8-8.863-.851-11.251-.066-3.087,1.281-12.977,1.941-19.275,1.4,2.378,3.239,5.687,3.239,5.687v.682s-3.141,11.859-3.342,13.636Z" fill="#5e1a47"/>
    <path id="Trazado_7034" data-name="Trazado 7034" d="M317.175,944.409l-1.958,6.766a.136.136,0,0,1-.1.1h-.028a.146.146,0,0,1-.109-.054l-.959-1.3-.5-.47-.747-.692-1.3-1.21-1.952-1.811-2.535,2.279-1.123,1.009-2,.556-.54.48a.133.133,0,0,1-.087.033h-.006a.115.115,0,0,1-.1-.044.128.128,0,0,1,.01-.191l.213-.19,5.338-4.722.043-.044h.006a6.16,6.16,0,0,0,.714-.011c-.029.021.757-.11,1.069-.169l.049.066,4.46,6.046,1.881-6.5a.136.136,0,0,1,.169-.092.139.139,0,0,1,.093.169Z" fill="#5e1a47"/>
    <path id="Trazado_7035" data-name="Trazado 7035" d="M317.9,934.218l-.583,2.835a15.128,15.128,0,0,1-5,5.093,17.035,17.035,0,0,1-5.911,1.826H306.4c-.066-.19-.153-.441-.245-.7-.169-.5-.355-1.042-.453-1.379a8.23,8.23,0,0,0,2.388.25c2.317-.092,4.591-.91,7.225-4.133a19.576,19.576,0,0,0,2.584-3.789Z" fill="#5e1a47"/>
    <path id="Trazado_7036" data-name="Trazado 7036" d="M342.125,1010.133c-.589.8-1.232,1.575-1.914,2.333-1.265-.319-2.824-.725-4.04-1.123a19.441,19.441,0,0,1-6.679-3.945l.365-.642a21.236,21.236,0,0,0,4.88,2.519,23.35,23.35,0,0,0,7.388.858Z" fill="#5e1a47"/>
    <path id="Trazado_7037" data-name="Trazado 7037" d="M320.16,1074.033a5.345,5.345,0,0,1-2.146-.485.14.14,0,0,1-.06-.187.137.137,0,0,1,.183-.058c.024.013,2.492,1.235,4.173-.36a.137.137,0,0,1,.187.2,3.3,3.3,0,0,1-2.337.891Z" fill="#fef6b8"/>
    <path id="Trazado_7038" data-name="Trazado 7038" d="M304.629,1074.521a1.651,1.651,0,0,1-.593-.095.94.94,0,0,1-.57-.472.139.139,0,0,1,.076-.178.143.143,0,0,1,.177.074.674.674,0,0,0,.424.328c.455.153,1.364.136,3.109-.825a.136.136,0,0,1,.186.054.138.138,0,0,1-.053.186,6.008,6.008,0,0,1-2.756.928Z" fill="#fef6b8"/>
    <path id="Trazado_7039" data-name="Trazado 7039" d="M248.355,1030.719c-1.369.253-4.008.758-6.892,1.479a73.207,73.207,0,0,1-19.018,1.542c-5.84-.361-12.322-.725-16.112-3.564l.115-1.206a11.791,11.791,0,0,0,3.3,1.3,24.586,24.586,0,0,0,2.513.518c1.412.224,3.255.477,5.436.688a99.462,99.462,0,0,0,15.463.315,70.558,70.558,0,0,0,9.744-1.243,41.56,41.56,0,0,0,5.174-1.326c.071.406.164.907.273,1.5Z" fill="#5e1a47"/>
    <path id="Trazado_7040" data-name="Trazado 7040" d="M219.784,1031.792a.128.128,0,0,1-.092-.033.14.14,0,0,1-.008-.2c3.295-3.567,5.309-10.657,5.53-15.518.2-4.405-.216-12.406-.221-12.489,0,0-.152-5.116-.236-8.114a.136.136,0,0,1,.133-.14.141.141,0,0,1,.14.132c.083,3,.236,8.11.236,8.11,0,.079.421,8.092.22,12.514-.223,4.91-2.263,12.078-5.6,15.692a.133.133,0,0,1-.1.041Z" fill="#5e1a47"/>
    <path id="Trazado_7041" data-name="Trazado 7041" d="M228.37,1006.889a.139.139,0,0,1-.1-.042l-3.24-3.2a.137.137,0,0,1,0-.194.135.135,0,0,1,.193,0l3.125,3.087,2.317-3.307V993.028a.136.136,0,1,1,.273,0v10.247a.142.142,0,0,1-.025.079l-2.434,3.477a.137.137,0,0,1-.1.058Z" fill="#5e1a47"/>
    <path id="Trazado_7042" data-name="Trazado 7042" d="M237.69,1031.515a.13.13,0,0,1-.117-.067c-.011-.016-1.034-1.736-2.348-4.392-1.254-2.532-1.926-6.224-2.416-8.917l-.091-.5c-.472-2.574-2-13.936-2.05-14.35a.136.136,0,1,1,.27-.033c.05.414,1.577,11.764,2.048,14.333l.091.5c.488,2.677,1.155,6.348,2.392,8.847,1.309,2.643,2.328,4.359,2.338,4.375a.139.139,0,0,1-.047.187.145.145,0,0,1-.07.017Z" fill="#5e1a47"/>
    <path id="Trazado_7043" data-name="Trazado 7043" d="M212.963,989.712a.148.148,0,0,1-.051-.009c-1.912-.779-3.312-2.776-4.049-5.774a19.682,19.682,0,0,1-.542-4.317,33.026,33.026,0,0,0-1.185-6.409l-.138-.565c-.731-3.008-2.156-7.508-2.17-7.553a.136.136,0,1,1,.26-.082c.014.045,1.441,4.554,2.175,7.57l.138.565a33.16,33.16,0,0,1,1.192,6.471c0,.085-.013,8.035,4.421,9.841a.136.136,0,0,1,.075.178.134.134,0,0,1-.126.084Z" fill="#5e1a47"/>
    <path id="Trazado_7044" data-name="Trazado 7044" d="M206.91,1006.889H206.9a.14.14,0,0,1-.128-.145l1.687-25.084a.131.131,0,0,1,.145-.127.136.136,0,0,1,.127.145l-1.686,25.082a.139.139,0,0,1-.136.129Z" fill="#5e1a47"/>
    <path id="Trazado_7045" data-name="Trazado 7045" d="M226.506,962.128a28.6,28.6,0,0,1-5.65-.568c-5.587-1.129-7.259-4.369-7.328-4.507a.136.136,0,0,1,.244-.121c.017.032,1.691,3.26,7.138,4.36a26.119,26.119,0,0,0,11.606-.156,8.64,8.64,0,0,0,4.96-4.057l-3.91-1.683-2.751-1.537a.136.136,0,0,1,.133-.237l2.738,1.53,4.025,1.732a.139.139,0,0,1,.073.074.141.141,0,0,1,0,.1,8.778,8.778,0,0,1-5.194,4.336,23.842,23.842,0,0,1-6.082.729Z" fill="#5e1a47"/>
    <path id="Trazado_7046" data-name="Trazado 7046" d="M225.355,957.133a20.146,20.146,0,0,1-5.464-.683.136.136,0,0,1,.082-.259,22.122,22.122,0,0,0,12.113-.354.136.136,0,0,1,.082.26,22.629,22.629,0,0,1-6.813,1.036Z" fill="#5e1a47"/>
    <path id="Trazado_7047" data-name="Trazado 7047" d="M230.727,946.1c-.147.6-.153.567-.338,1.407-2.252,1.155-4.82,2.4-8,.43a4.29,4.29,0,0,0-.66-1.014c.207.1.42.185.627.262a9.49,9.49,0,0,0,8.375-1.085Z" fill="#5e1a47"/>
    <path id="Trazado_7048" data-name="Trazado 7048" d="M244.026,981.8a.1.1,0,0,1-.024,0,.136.136,0,0,1-.11-.158,14.713,14.713,0,0,0-.584-6.608.137.137,0,0,1-.006-.064c.427-3.159.546-10.88.548-10.957a.136.136,0,0,1,.136-.134h0a.136.136,0,0,1,.134.138c0,.078-.12,7.763-.546,10.957a14.98,14.98,0,0,1,.584,6.715.136.136,0,0,1-.134.113Z" fill="#5e1a47"/>
    <path id="Trazado_7049" data-name="Trazado 7049" d="M201.36,1003.955a.14.14,0,0,1-.12-.075c-.023-.041-2.373-4.448-3.785-6.979-1.809-3.24-1.029-4.37-.61-4.705.663-.53,5.411-6.323,5.459-6.381a.135.135,0,0,1,.191-.019.137.137,0,0,1,.02.192c-.2.239-4.815,5.873-5.5,6.421-.76.608-.507,2.237.677,4.359,1.414,2.533,3.764,6.943,3.788,6.984a.139.139,0,0,1-.056.186.169.169,0,0,1-.065.017Z" fill="#5e1a47"/>
    <path id="Trazado_7050" data-name="Trazado 7050" d="M252.84,1010.9a.135.135,0,0,1-.124-.079,34.4,34.4,0,0,1-2.554-10.438c-.176-.343-2.1-4.1-3.365-6.811-1.319-2.829-3.323-9.023-3.343-9.085a.136.136,0,0,1,.26-.083c.02.062,2.018,6.239,3.33,9.053s3.353,6.786,3.373,6.827a.149.149,0,0,1,.015.054,34.147,34.147,0,0,0,2.532,10.367.138.138,0,0,1-.068.182.125.125,0,0,1-.056.013Z" fill="#5e1a47"/>
    <path id="Trazado_7051" data-name="Trazado 7051" d="M220.471,933.348c-.669.039-.59,2.589,0,2.692s.67-2.731,0-2.692Z" fill="#5e1a47"/>
    <path id="Trazado_7052" data-name="Trazado 7052" d="M230.426,933.453c-.572-.091-.443,2.578.16,2.483s.651-2.354-.16-2.483Z" fill="#5e1a47"/>
    <path id="Trazado_7053" data-name="Trazado 7053" d="M235.711,931.6a.137.137,0,0,1-.137-.134c0-.04-.107-4.1-1.55-5.681a.136.136,0,1,1,.2-.183c1.512,1.654,1.618,5.688,1.622,5.859a.136.136,0,0,1-.134.139Z" fill="#dddbef"/>
    <path id="Trazado_7054" data-name="Trazado 7054" d="M214.349,928.92a.136.136,0,0,1-.136-.126,17.371,17.371,0,0,1,.238-5.089.139.139,0,0,1,.013-.034,5.343,5.343,0,0,1,1.963-1.78l.265-.15a7.767,7.767,0,0,1,4.571-1.3,26.769,26.769,0,0,1,8.839,2.4,9.945,9.945,0,0,1,4.027,4.093.135.135,0,0,1-.052.185.137.137,0,0,1-.186-.052,9.678,9.678,0,0,0-3.911-3.983,26.488,26.488,0,0,0-8.72-2.374h-.121a7.531,7.531,0,0,0-4.312,1.264l-.266.15a5.214,5.214,0,0,0-1.851,1.663,17.823,17.823,0,0,0-.225,4.983.137.137,0,0,1-.126.146Z" fill="#dddbef"/>
    <path id="Trazado_7055" data-name="Trazado 7055" d="M232.4,938.778c-1.695-1.591-4.777,1.317-3.029,3.317s3.214.318,3.64-.364a2.651,2.651,0,0,0-.611-2.953Z" fill="#f49f7f"/>
    <path id="Trazado_7056" data-name="Trazado 7056" d="M217.631,942.822h-.012a13.5,13.5,0,0,1-.992-3.179c-.044-.223-.082-.447-.125-.665.643-1.281,2.938-1.079,3.495.573.627,1.864-.644,3.587-2.366,3.271Z" fill="#f49f7f"/>
    <path id="Trazado_7057" data-name="Trazado 7057" d="M315.616,932.326c-1.549-2.487-6.1-.75-5.79,2.352s3.081,2.971,4.762,1.741a3.267,3.267,0,0,0,1.028-4.093Z" fill="#f49f7f"/>
    <path id="Trazado_7058" data-name="Trazado 7058" d="M300.611,937.211a22.253,22.253,0,0,1-1.211-5.152c1.238-.6,2.573.349,2.966,2.126.365,1.658-.551,2.912-1.755,3.026Z" fill="#f49f7f"/>
  </g>
</svg>
