<svg xmlns="http://www.w3.org/2000/svg" width="157.028" height="228.559" viewBox="0 0 157.028 228.559">
  <g id="Grupo_10760" data-name="Grupo 10760" transform="translate(-1087.78 -909.167)">
    <path id="Trazado_7067" data-name="Trazado 7067" d="M1097.692,954.9c-.17,1.821,1.226,4.743,5.42,5.421s6.986-1.525,8.088-1.652,2.457,1.186,7.243,2.075,6.013-.678,6.013-.678,1.268.763,3.385-.338,4.152-4.108,3.812-5.633c0,0-.717,1.1-2.37.254s-3.091-2.117-2.8-6.056.381-8.935-1.143-13.424-3.978-7.2-6.1-8.216-5.126-.72-5.8.635a6.881,6.881,0,0,0-3.94-1.241c-2.329.014-6.013,3.232-7.409,9.2s.211,10.63.675,13.552.17,5.251-.593,6.394a3.033,3.033,0,0,1-2.751,1.313c-.891,0-1.736-1.609-1.736-1.609Z" fill="#fdc954"/>
    <path id="Trazado_7068" data-name="Trazado 7068" d="M1125.6,948.034c-.712,2.053-3.19,2.745-3.518,2.826.071-.178-.041.01-.041.01a.118.118,0,0,0,.041-.01c-.07.168-.3.655-.928,1.916a11.954,11.954,0,0,1-2.08,2.845,11.685,11.685,0,0,1-3.679,2.745c-1.484.554-4.621,1.143-7.032-1.057a10.544,10.544,0,0,1-1.906-2.531,27.755,27.755,0,0,1-1.993-4.4c-.137-.381-.208-.61-.208-.61s-1.272.082-2.453-1.738-1.74-4.573-.683-5.5,2.287.635,2.287.635,0-1.184.141-2.582a10.212,10.212,0,0,0,4.732,3.258,4.54,4.54,0,0,0,2.963-.315,4.079,4.079,0,0,0,2.921.95,6.641,6.641,0,0,0,4.363-1.946,5,5,0,0,0,4.111.335c.368-.112.65-.2.87-.274.51.452,0,1.641-.058,1.783.12-.157,1.127-1.458,1.641-1.382.551.086,1.272,2.841.509,5.041Z" fill="#f8be90"/>
    <path id="Trazado_7069" data-name="Trazado 7069" d="M1122.04,950.871l.041-.009c.071-.181-.041.009-.041.009Z" fill="#f8be90"/>
    <path id="Trazado_7070" data-name="Trazado 7070" d="M1123.507,942.592c-.216.076-.477.157-.837.269h-.008a.051.051,0,0,0-.025.005,5,5,0,0,1-.56.142h0a4.838,4.838,0,0,1-3.547-.477,1.7,1.7,0,0,1-.132.152.634.634,0,0,1-.063.056c-.041.041-.087.086-.136.127s-.083.066-.125.1a6.77,6.77,0,0,1-3.907,1.509,4.079,4.079,0,0,1-2.921-.95s-.087.045-.237.106c-.078.031-.174.067-.281.1a4.662,4.662,0,0,1-1.828.2,4.855,4.855,0,0,1-.617-.091l-.062-.016a10.283,10.283,0,0,1-4.67-3.242,2.236,2.236,0,0,1-.182-.3,9.632,9.632,0,0,1,1.388-8.171c2.2-2.922,5.432-2.079,7.421-1.4a4.476,4.476,0,0,1,2.921-.66c2.076.061,3.982,1.8,5.764,4.172s2.03,6.947,2.03,6.947l.373.493.2.264.323.427s.97-.178-.273.234Z" fill="#ffeec2"/>
    <path id="Trazado_7071" data-name="Trazado 7071" d="M1102.1,947.653c-.933.424-.3,2.332.783,1.928s.145-2.351-.783-1.928Z" fill="#9f99cb"/>
    <path id="Trazado_7072" data-name="Trazado 7072" d="M1106.837,944.477c-.559-.075-.336,2.414.211,2.414s.427-2.329-.211-2.414Z" fill="#5e1a47"/>
    <path id="Trazado_7073" data-name="Trazado 7073" d="M1116.2,944.858c-.87.062-.3,2.329.212,2.245s.381-2.287-.212-2.245Z" fill="#5e1a47"/>
    <path id="Trazado_7074" data-name="Trazado 7074" d="M1124.145,949.178c-1.086-.17-1.512,1.906-.369,2.117s1.455-1.948.369-2.117Z" fill="#9f99cb"/>
    <path id="Trazado_7075" data-name="Trazado 7075" d="M1104.889,969.59a7.686,7.686,0,0,1,.075-3.177,6.04,6.04,0,0,1,.688-1.99,31.868,31.868,0,0,0-3.344,2.075l-2.54,10.672,6.605-3.98a14.064,14.064,0,0,1-1.484-3.6Z" fill="#ef7d80"/>
    <path id="Trazado_7076" data-name="Trazado 7076" d="M1127.506,976.788s-4.782-2.907-6.262-3.883c-.132-.087-.24-.158-.315-.213a.534.534,0,0,1-.07-.051l.037-.087c.038-.081.1-.218.166-.4a10.566,10.566,0,0,0,.638-3.624,8.018,8.018,0,0,0-.5-2.642,10.886,10.886,0,0,0-.978-2.058l3.361,1.982,0,.005h0l.369.218,3.547,10.754Z" fill="#ef7d80"/>
    <path id="Trazado_7077" data-name="Trazado 7077" d="M1121.7,968.529a10.1,10.1,0,0,1-.841,4.112,46.77,46.77,0,0,0-6.949-.382,44.456,44.456,0,0,0-7.537.931,14.067,14.067,0,0,1-1.484-3.6,7.844,7.844,0,0,1,.071-3.181,6.1,6.1,0,0,1,.692-1.987c.381-.468,3.771-2.708,3.941-3.09a4.877,4.877,0,0,0-.344-1.931,10.378,10.378,0,0,0-.887-2.093c2.411,2.2,5.548,1.611,7.032,1.057a11.685,11.685,0,0,0,3.679-2.745c-.36.88-.824,2.013-1.222,3.045a12.788,12.788,0,0,0-.933,2.795c.208.208,3.3,2.368,3.3,2.368a10.886,10.886,0,0,1,.978,2.058,8.018,8.018,0,0,1,.5,2.642Z" fill="#f8be90"/>
    <path id="Trazado_7078" data-name="Trazado 7078" d="M1148.265,1007.175a9.161,9.161,0,0,0,1.219-8.577c-1.219-3.811-8.131-15.689-8.131-15.689s-4.893,3.048-6.861,4.7a17.69,17.69,0,0,0-3.241,3.685c.448.444,5.847,7.368,6.353,8.258s-.315,3.682-2.731,7.813c-1.919,3.278-4.231,7.032-5.2,8.47.737,1.939,1.471,3.808,2.175,5.693,1.077-.485,2.3-1.127,3.535-1.84,3.3-1.906,11.478-10.545,12.882-12.513Z" fill="#f8be90"/>
    <path id="Trazado_7079" data-name="Trazado 7079" d="M1123.631,1018.416c-.07-.087-.518.071-1.061.336.643-.1,1.127-.24,1.061-.336Z" fill="#f8be90"/>
    <path id="Trazado_7080" data-name="Trazado 7080" d="M1129.221,1016.448c-.191.062-2.735-1.081-4.512-1.458s-3.622.638-3.875,1.462,1.844,0,2.35,0-3.365,1.078-3.365,1.964c0,.568,1.62.514,2.751.336.543-.265.991-.423,1.061-.336s-.418.237-1.061.336c-.994.489-2.3,1.351-2.179,1.761.19.638,3.555-.381,3.555-.381s-2.983,1.334-2.349,1.972,2.415-.572,3.621-.572a3.961,3.961,0,0,1,2.922.755c.476.439,1.9.058,3.708-.759-.7-1.885-1.438-3.754-2.175-5.693a3.694,3.694,0,0,1-.452.613Z" fill="#f8be90"/>
    <path id="Trazado_7081" data-name="Trazado 7081" d="M1097.659,992.564a5.445,5.445,0,0,0-4.649-2.668s-1.927,26.66-2.263,30.725-.974,13.55-1.293,15.327-1.674,7.2-1.674,7.964,2.184,4.745,2.615,5.59a6.292,6.292,0,0,0,1.616,1.7c.547-6.887,1.11-13.45,1.38-14.677.572-2.6,3.688-25.218,4.268-29.979s0-13.977,0-13.977Z" fill="#f8be90"/>
    <path id="Trazado_7082" data-name="Trazado 7082" d="M1144.528,1080.861l-.547-1.724s.182.668.476,1.762c.042-.021.071-.038.071-.038Z" fill="#f8be90"/>
    <path id="Trazado_7083" data-name="Trazado 7083" d="M1103.365,1130.051c-4.148.928-8.13.845-8.13,0,0-.3.907-1.115,2.076-2.039h0c-3.009,1.106-7.877,4.579-7.857,5.424s9.763.336,16.538-2.71l.422,2.117h1.185a26.69,26.69,0,0,0,.68-5.167c-.257.933-.762,1.442-4.914,2.375Z" fill="#6b63a9"/>
    <path id="Trazado_7084" data-name="Trazado 7084" d="M1112.978,1085.7a88.747,88.747,0,0,1-13.227-.995h0c.062,1.641,2.685,38.4,2.685,39v.593s-2.991,2.043-5.121,3.721c-1.169.924-2.076,1.736-2.076,2.039,0,.845,3.982.928,8.13,0s4.657-1.442,4.914-2.375a33.416,33.416,0,0,0,0-5.08s4.657-17.279,5.673-23.208a35.808,35.808,0,0,0-.974-13.691Z" fill="#f8be90"/>
    <path id="Trazado_7085" data-name="Trazado 7085" d="M1143.981,1079.137Z" fill="#f8be90"/>
    <path id="Trazado_7086" data-name="Trazado 7086" d="M1144.457,1080.9c-.406.2-2.635,1.317-4.873,2.175l-.2.075a45.841,45.841,0,0,1-8.536,1.558c-2.258.269-4.7.513-7.093.729-.353.033-.734.062-1.136.087-.083,0-.161.012-.249.017-2.531.153-5.921.211-9.4.157a89.5,89.5,0,0,1-13.223-.99c-.215-.042-.426-.087-.625-.133l-.253-.062c-.29-.071-.547-.141-.783-.224a72.97,72.97,0,0,1-8.64-3.679s.957-9.34,1.21-12.075c.133-1.442.734-9.6,1.347-17.337.551-6.887,1.119-13.446,1.388-14.677.568-2.6,3.68-25.218,4.264-29.983s0-13.975,0-13.975a5.119,5.119,0,0,0-2.259-2.094,5.038,5.038,0,0,0-2.39-.569s2.287-17.157,3.75-19.1,3.617-3,5.548-4.3l-2.54,10.671,6.1-3.674v-.005l.39-.233.112-.066a44.456,44.456,0,0,1,7.537-.931,46.77,46.77,0,0,1,6.949.382.534.534,0,0,0,.07.051c.075.055.183.126.315.213,1.48.976,6.262,3.883,6.262,3.883l-3.547-10.754-.315-.193c.754.345,8.4,3.913,11.357,7.349a65.292,65.292,0,0,1,6.352,9.716s-4.893,3.049-6.861,4.706a17.464,17.464,0,0,0-3.236,3.679l-.7-.63s-.7,3.557-1.719,8.253-1.712,10.1.447,15.885c.133.348.261.692.39,1.036a3.362,3.362,0,0,1-.452.609,1.885,1.885,0,0,1-.543-.145,33.33,33.33,0,0,0-3.969-1.309c-1.778-.382-3.618.638-3.871,1.462s1.84,0,2.346,0-3.365,1.078-3.365,1.964c0,.572,1.624.514,2.751.336-.99.489-2.3,1.355-2.179,1.761.182.609,3.215-.278,3.53-.369-.3.137-2.925,1.359-2.32,1.96.63.634,2.407-.576,3.617-.576a3.958,3.958,0,0,1,2.922.759c.331.306,1.122.215,2.179-.145.464-.158.978-.365,1.525-.614a75.439,75.439,0,0,1,3.224,10.612c1.392,6.477,2.283,26.109,2.283,26.109l6.63,20.888s.182.668.476,1.762Z" fill="#eb5b52"/>
    <path id="Trazado_7087" data-name="Trazado 7087" d="M1156.217,1126.425h0c2.971,3.762.7,5.055-.51,4.894-1.268-.17-5-1.185-7.027-3.133a4.489,4.489,0,0,1-.415-.468c.92,2.755,3.717,4.45,5.834,5.548s8.636,3.137,9.485,2.2-6.518-8.047-7.367-9.046Z" fill="#6b63a9"/>
    <path id="Trazado_7088" data-name="Trazado 7088" d="M1156.217,1126.425c-.158-.2-.323-.4-.51-.609-3.725-4.235-3.978-5.084-3.978-5.084s-1.694-17.872-2.879-22.952c-.925-3.957-3.357-13.044-4.393-16.881-.418.207-2.768,1.384-5.076,2.25a45.715,45.715,0,0,1-8.532,1.558c1.89,3.795,7.9,21.795,9.444,26.03,1.508,4.131,5.772,14.138,7.972,16.981a4.489,4.489,0,0,0,.415.468c2.03,1.948,5.759,2.963,7.027,3.133,1.21.161,3.481-1.132.51-4.894Z" fill="#f8be90"/>
    <path id="Trazado_7089" data-name="Trazado 7089" d="M1209.641,929.422a22.883,22.883,0,0,0,1.334-8.575c-.319-4.256-4.45-6.988-5.909-7.369s-5.465-3.748-9.911-4.256-3.874,2.668-2.731,3.367c0,0-1.525,1.206-3.3,2.731a16.614,16.614,0,0,0-4.766,6.289c-1.2,2.858-.886,5.78-.062,6.8s.953,3.177-.062,5.4-1.715,4.51-.7,5.908,4.193,1.969,5.78,1.842a6.657,6.657,0,0,1,.924.021,3.76,3.76,0,0,1-.924-.847c-1.015-1.4-2.159-4.361-2.478-10.28a18.845,18.845,0,0,1,2.35-10.365,10.717,10.717,0,0,1,1.4-1.969c.763.953,5.715,2.6,8.826,2.1s4.384-1.366,5.337-1,2.478,6.019.448,10.4c0,0,1.459-1.017,1.968.381a5.34,5.34,0,0,1-2.1,5.526l-1.968,1.271s-2.888,3.938-6.05,5.4a6.351,6.351,0,0,1-1.015.362c1.268.325,2.176.679,2.109.975-.19.829.763,3.364,2.159,3.872a7.477,7.477,0,0,0,5.337-.635c1.335-.826,1.144-1.652.634-3.237s.062-3.179,2.225-4.2,2.159-2.033,2.516-4.383-1.372-5.527-1.372-5.527Z" fill="#eb5b52"/>
    <path id="Trazado_7090" data-name="Trazado 7090" d="M1205.062,935.523l-1.964,1.27a24.8,24.8,0,0,1-2.917,3.207,13.047,13.047,0,0,1-3.133,2.19,6.067,6.067,0,0,1-1.015.361,7.326,7.326,0,0,1-5.8-.976,3.763,3.763,0,0,1-.928-.848,9.4,9.4,0,0,1-1.243-2.607,19.288,19.288,0,0,1-.563-2.14,37.4,37.4,0,0,1-.668-5.529c-.008-.183-.016-.361-.025-.539a18.714,18.714,0,0,1,2.379-9.828,10.779,10.779,0,0,1,1.392-1.971c.763.955,5.723,2.606,8.83,2.1s4.384-1.367,5.337-1,2.482,6.012.452,10.4c.1-.065,1.475-.96,1.964.387a5.341,5.341,0,0,1-2.1,5.529Z" fill="#f8be90"/>
    <path id="Trazado_7091" data-name="Trazado 7091" d="M1200.181,940c-.4.706-.911,1.575-1.471,2.459-.394.626-.816,1.261-1.239,1.85a17.467,17.467,0,0,1-1.421,1.748c-.042.041-.087.092-.133.138a10.141,10.141,0,0,0-1.243,1.529,18.152,18.152,0,0,0-2.059,4.376l-1.591-4.676-.311-.914a8.837,8.837,0,0,1-1.38-1.774,11.567,11.567,0,0,1-1.268-2.485,2.592,2.592,0,0,1-.037-.5c0-.153,0-.325,0-.518.012-.651.041-1.505.041-2.429,0-.224,0-.453,0-.686a9.4,9.4,0,0,0,1.243,2.607,3.763,3.763,0,0,0,.928.848,7.326,7.326,0,0,0,5.8.976,6.067,6.067,0,0,0,1.015-.361,13.047,13.047,0,0,0,3.133-2.19Z" fill="#f8be90"/>
    <path id="Trazado_7092" data-name="Trazado 7092" d="M1190.178,1130.3s-.928,1.1-3.638,1.028a15.134,15.134,0,0,1-5.084-1.115l-.22-.484c-2.83,1.247-11.722,7.433-11.722,7.939s20.581-2.71,20.581-2.71l.34-6.282h0l-.257,1.624Z" fill="#5e1a47"/>
    <path id="Trazado_7093" data-name="Trazado 7093" d="M1183.573,1127.341c-1.334-.1-2.511-.191-3.547-.278h0l1.21,2.669.22.484a15.134,15.134,0,0,0,5.084,1.115c2.71.075,3.638-1.028,3.638-1.028l.257-1.624.191-1.214a55.125,55.125,0,0,1-7.053-.124Z" fill="#f8be90"/>
    <path id="Trazado_7094" data-name="Trazado 7094" d="M1231.868,1126.172h0l-.1.319a13.59,13.59,0,0,1-7.79,0v-.319c-.344.489,0,7.032,0,7.032l20.83,2.5-12.94-9.535Z" fill="#5e1a47"/>
    <path id="Trazado_7095" data-name="Trazado 7095" d="M1223.978,1122.75v3.741a13.59,13.59,0,0,0,7.79,0l.1-.319,1.268-4-9.158.576Z" fill="#f8be90"/>
    <path id="Trazado_7096" data-name="Trazado 7096" d="M1189.337,944.737h0c.207.329.423.649.638.936-.215-.287-.431-.607-.638-.936Z" fill="#f8be90"/>
    <path id="Trazado_7097" data-name="Trazado 7097" d="M1190.261,946.035a1.258,1.258,0,0,0,.083.1,1.258,1.258,0,0,1-.083-.1Z" fill="#f8be90"/>
    <path id="Trazado_7098" data-name="Trazado 7098" d="M1190.058,945.783c.033.043.066.083.095.124-.029-.041-.062-.081-.095-.124Z" fill="#f8be90"/>
    <path id="Trazado_7099" data-name="Trazado 7099" d="M1190.53,946.337l-.066-.07.066.07Z" fill="#f8be90"/>
    <path id="Trazado_7100" data-name="Trazado 7100" d="M1237.184,1121.921l-4.048.253-2.13.132-.249.017-4.666.294-2.113.133-1.612.1a62.656,62.656,0,0,1-7.454-18.124c-2.88-11.35-2.54-25.588-2.54-25.588l-21.473-46.408-.547-1.186s0,.067-.016.2a1.094,1.094,0,0,1-.017.191c-.079,1.272-.36,5.565-.613,11.557-.307,7.2.9,37.694,1.575,49.214s.762,34.637.762,34.637-.46.074-1.417.132a55.6,55.6,0,0,1-7.053-.132c-.323-.025-.63-.046-.932-.067-.087-.008-.17-.016-.253-.021-.858-.066-1.645-.124-2.362-.186-3.489-.286-5.262-.489-5.262-.489s-1.438-25.156-1.865-28.711-4.065-34.558-4.74-49.463.34-36.754,1.015-39.386a118.806,118.806,0,0,0,12.286,1.782c2.035.2,4.367.294,6.771.315h.257c1.57.013,3.17,0,4.732-.054.083,0,.17,0,.253-.008,4.8-.141,9.211-.489,11.361-.762a35.416,35.416,0,0,0,6.013-1.186s18.46,57.171,19.057,61.915,7.28,50.905,7.28,50.905Z" fill="#fdc954"/>
    <path id="Trazado_7101" data-name="Trazado 7101" d="M1210.167,1004.867c-2.117,1.525-13.04,2.37-21.774,2.37s-19.824-2.88-19.824-2.88a33.785,33.785,0,0,0,.6,4.657,118.584,118.584,0,0,0,12.282,1.782c7.624.763,19.4,0,23.378-.509a35.416,35.416,0,0,0,6.013-1.186l-.68-4.234Z" fill="#eb5b52"/>
    <path id="Trazado_7102" data-name="Trazado 7102" d="M1190.153,945.907c.038.043.071.086.108.128-.037-.042-.07-.085-.108-.128Z" fill="#f8be90"/>
    <path id="Trazado_7103" data-name="Trazado 7103" d="M1189.975,945.673c.029.037.054.074.083.11-.029-.036-.054-.073-.083-.11Z" fill="#f8be90"/>
    <path id="Trazado_7104" data-name="Trazado 7104" d="M1190.709,946.51c-.058-.052-.116-.11-.179-.173.063.063.121.121.179.173Z" fill="#f8be90"/>
    <path id="Trazado_7105" data-name="Trazado 7105" d="M1190.344,946.133c.041.047.079.091.12.134-.041-.043-.079-.087-.12-.134Z" fill="#f8be90"/>
    <path id="Trazado_7106" data-name="Trazado 7106" d="M1195.917,946.192a9.89,9.89,0,0,0-1.243,1.534l2.374,5.962.328-7.215.095-2.165a14.909,14.909,0,0,1-1.554,1.884Z" fill="#dddbef"/>
    <path id="Trazado_7107" data-name="Trazado 7107" d="M1174.043,1027.056c-.344.9-2.234-.854-2.623-1.218.075.083.22.232.389.426.005,0,.009.005.013.017.24.261.534.6.783.92.348.456.609.878.518,1.04-.17.294-1.67-.406-2.453-.8l0,0c-.212-.1-.373-.182-.435-.215a7.6,7.6,0,0,1,1.516,1.238c.257.315.382.614.145.813-.518.426-2.565-.705-3.572-1.3l-.008-.005c-.261-.157-.447-.277-.518-.315a5.819,5.819,0,0,1,.9,1.036c.833,1.268-.157,1.753-3.791-.443-4.285-2.586-5.341-7.007-5.706-8.872a18.511,18.511,0,0,0,3.539-1.8,20.68,20.68,0,0,0,4.185-3.746l2.669,1.6-1,2.643s5.838,7.989,5.453,8.988Z" fill="#f8be90"/>
    <path id="Trazado_7108" data-name="Trazado 7108" d="M1225.752,1005.372c-.05.477-.133.982-.241,1.517-.012.091-.033.182-.054.273-.207.986-.493,2.043-.832,3.129a2.347,2.347,0,0,1-.079.257,106.991,106.991,0,0,1-5.229,12.783s-1-.771-2.636-2.018c-.078-.058-.153-.12-.236-.178l-.008-.009a16.014,16.014,0,0,0-4.152-2.113s.095-2.681.219-6.186v-.013c.05-1.421.1-2.975.162-4.533,0-.1,0-.2.008-.294.033-.928.067-1.857.1-2.756,0-.1,0-.2.008-.294.149-4.173.265-7.746.265-8.117a16.19,16.19,0,0,0-.634-2.495c-.025-.086-.054-.173-.083-.259-.223-.727-.472-1.525-.725-2.307-.025-.092-.058-.179-.087-.27-.692-2.124-1.347-4.071-1.347-4.071v17.445a4.494,4.494,0,0,1-1.226.555,50.29,50.29,0,0,1-9.85,1.433c-.078.005-.165.009-.252.017-2.905.207-6.042.327-9,.361-.087,0-.166,0-.253,0-.4,0-.8,0-1.2,0a62.508,62.508,0,0,1-8.511-.676c-.087-.008-.174-.024-.253-.033-3.7-.53-7.048-1.235-9.07-1.7-1.247-.285-1.985-.476-1.985-.476a70.072,70.072,0,0,1-.435-8.274c0-.086,0-.167,0-.254,0-.452.008-.915.025-1.382.021-.6.066-1.251.137-1.947.012-.086.016-.177.024-.264a121.5,121.5,0,0,1,2.263-12.267c.021-.082.041-.158.062-.234.12-.529.2-.864.216-.94-.092.2-1.069,2.408-2.23,5.077-.033.086-.07.172-.112.259-.2.467-.41.95-.613,1.438-.037.081-.07.168-.108.249a62.255,62.255,0,0,0-3.029,7.953,18.416,18.416,0,0,0,.121,2.688v.005c.008.087.012.173.02.265.083.9.191,1.946.315,3.069.009.086.017.173.033.259.274,2.493.626,5.332.941,7.776.008.087.021.166.029.253.195,1.5.373,2.847.5,3.846.013.095.029.186.038.269.128.974.207,1.558.207,1.558s-.025.029-.054.066c-.091.112-.315.365-.642.709a18.96,18.96,0,0,1-3.485,3c-.021.012-.037.029-.058.041-.05.029-.1.062-.149.1a18.557,18.557,0,0,1-3.39,1.7c-.149.05-.236.075-.236.075l-.008-.017c-.083-.12-.672-1.031-1.5-2.614-.033-.071-.075-.153-.116-.228-.531-1.032-1.144-2.333-1.778-3.862-.033-.079-.062-.157-.091-.24-.232-.56-.464-1.156-.692-1.774a57.6,57.6,0,0,1-2.171-8.192c-.013-.087-.033-.17-.05-.253-.34-1.761-.63-3.569-.833-5.307-.012-.086-.021-.178-.033-.264a28.009,28.009,0,0,1-.05-8c.63-2.993,1.819-9.056,3.725-15.616.034-.112.067-.224.1-.336v-.005q.528-1.8,1.131-3.623c.033-.1.066-.2.1-.3V968.8a78.333,78.333,0,0,1,3.02-7.785c.473-1.037.945-1.977,1.413-2.836a2.468,2.468,0,0,0,.12-.224c.531-.94,1.049-1.779,1.567-2.526.049-.071.1-.137.153-.208,3.4-4.823,6.655-5.834,9.51-7.186a44.186,44.186,0,0,1,6.53-2.251c.087-.02.17-.046.253-.066,2.643-.732,5.171-1.321,6.5-1.682l-.257.315,2.731,6.215.107.239.208.473.373-.58.186-.29,1.919-2.983.878,2.587.079.244.224.655.306.9.1.29a18.152,18.152,0,0,1,2.059-4.376l2.374,5.961.328-7.211c.791.564,3.054,2.165,5.648,4.005.095.061.186.127.277.193,3.953,2.795,8.582,6.057,10,7.018,2.366,1.6,4.662,6.906,7.38,14.8.029.082.058.168.087.254.273.8.555,1.626.837,2.475.016.051.037.1.054.158.029.081.054.162.078.249a83.2,83.2,0,0,1,2.561,10.6c.017.092.033.183.046.27.195,1.092.373,2.19.53,3.283.013.091.025.182.042.279.878,6.1,1.209,11.918.837,15.311Z" fill="#9f99cb"/>
    <path id="Trazado_7109" data-name="Trazado 7109" d="M1212.285,1019.009c-1.861,1.272-6.265,6.269-5.59,7.707s3.137-1.69,3.137-1.69-1.948,2.709-1.355,3.049,3.808-2.312,3.808-2.312-2.2,2.225-1.438,2.818,3.219-1.778,3.219-1.778-2.034,1.778-.849,2.37,6.013.257,6.1-5.842a14.786,14.786,0,0,0-3.473-3.22,8.533,8.533,0,0,0-3.559-1.1Z" fill="#f8be90"/>
    <path id="Trazado_7110" data-name="Trazado 7110" d="M1111.005,943.633c-.078.031-.174.067-.281.1-2.192-1.748-3.754-4.98-4.471-7.44a.124.124,0,0,1,.087-.157.128.128,0,0,1,.157.086c.717,2.465,2.3,5.727,4.508,7.409Z" fill="#fdc954"/>
    <path id="Trazado_7111" data-name="Trazado 7111" d="M1108.9,943.933a4.855,4.855,0,0,1-.617-.091l-.062-.016c-1.944-1.382-3.8-4.858-3.8-6.56a.13.13,0,0,1,.129-.127.127.127,0,0,1,.128.127c0,1.763,2.188,5.691,4.218,6.667Z" fill="#fdc954"/>
    <path id="Trazado_7112" data-name="Trazado 7112" d="M1118.626,942.886a.129.129,0,0,1-.129.122h-.029c-.091-.045-.182-.091-.273-.142-.112-.061-.224-.122-.336-.188a14.09,14.09,0,0,1-6.323-9.879.127.127,0,0,1,.12-.137.125.125,0,0,1,.137.117c.2,2.3,2.076,7.526,6.6,9.9a1.2,1.2,0,0,0,.157.081.128.128,0,0,1,.075.122Z" fill="#fdc954"/>
    <path id="Trazado_7113" data-name="Trazado 7113" d="M1118.626,942.886a.129.129,0,0,1-.129.122h-.029c-.132-.01-.265-.02-.4-.04-3.165-.427-6.48-3.517-7.578-6.2a.125.125,0,1,1,.232-.091c1.036,2.535,4.131,5.462,7.135,6,.157.025.315.051.472.061l.175.015a.185.185,0,0,1,.045.01.128.128,0,0,1,.075.122Z" fill="#fdc954"/>
    <path id="Trazado_7114" data-name="Trazado 7114" d="M1123.457,941.931a9.022,9.022,0,0,1-5.13-2.211,13.984,13.984,0,0,1-3.559-4.421.126.126,0,0,1,.062-.168.124.124,0,0,1,.166.056c1.268,2.612,4.595,6.175,8.266,6.48l.2.264Z" fill="#fdc954"/>
    <path id="Trazado_7115" data-name="Trazado 7115" d="M1119.421,937.391h-.016a.124.124,0,0,1-.108-.144c0-.015.161-1.685-3.617-4.01a.129.129,0,0,1-.042-.175.127.127,0,0,1,.174-.042c3.949,2.43,3.746,4.189,3.733,4.263a.125.125,0,0,1-.124.109Z" fill="#fdc954"/>
    <path id="Trazado_7116" data-name="Trazado 7116" d="M1122.662,942.861a.051.051,0,0,0-.025.005,5,5,0,0,1-.56.142c0,.005,0,0,0,0a8.041,8.041,0,0,1-4.591-3.328.126.126,0,0,1,.033-.178.12.12,0,0,1,.174.035,7.515,7.515,0,0,0,4.973,3.324Z" fill="#fdc954"/>
    <path id="Trazado_7117" data-name="Trazado 7117" d="M1108.279,952.1a.137.137,0,0,1-.083-.029.121.121,0,0,1-.041-.126c.012-.061,1.346-6.085,1.185-7.067a.125.125,0,0,1,.1-.146.127.127,0,0,1,.145.1c.154.924-.878,5.76-1.131,6.921l2.524-1.09a.127.127,0,0,1,.1.233l-2.751,1.188a.132.132,0,0,1-.05.011Z" fill="#ce6a15"/>
    <path id="Trazado_7118" data-name="Trazado 7118" d="M1111.325,954.373a2.622,2.622,0,0,1-.328-.021,2.913,2.913,0,0,1-1.8-1.032.124.124,0,0,1,.02-.177.127.127,0,0,1,.179.023,2.725,2.725,0,0,0,1.64.934,2.858,2.858,0,0,0,2.13-.7.128.128,0,0,1,.158.2,3.283,3.283,0,0,1-2,.775Z" fill="#ea5443"/>
    <path id="Trazado_7119" data-name="Trazado 7119" d="M1104.168,943.356c.688-.6,3.771-1.3,4.749-.848s.99,1.2,0,1.226-4.749-.378-4.749-.378Z" fill="#fbbb3e"/>
    <path id="Trazado_7120" data-name="Trazado 7120" d="M1120.942,943.422c-.767-.239-4.235-1.163-5.507-.541s-.34,1.57.282,1.342,5.225-.8,5.225-.8Z" fill="#fbbb3e"/>
    <path id="Trazado_7121" data-name="Trazado 7121" d="M1119.073,955.621c-.36.88-.824,2.013-1.222,3.045a14.991,14.991,0,0,1-5.379,1.733,6.1,6.1,0,0,1-3.223-1,10.378,10.378,0,0,0-.887-2.093c2.411,2.2,5.548,1.611,7.032,1.057a11.685,11.685,0,0,0,3.679-2.745Z" fill="#5e1a47"/>
    <path id="Trazado_7122" data-name="Trazado 7122" d="M1097.7,993.327a.13.13,0,0,1-.128-.121c-.029-.585-.245-1.807-.473-3.1a23.156,23.156,0,0,1-.588-4.614,28.975,28.975,0,0,1,2.747-5.761.127.127,0,0,1,.174-.043.13.13,0,0,1,.046.175,28.216,28.216,0,0,0-2.719,5.673,24.293,24.293,0,0,0,.589,4.526c.232,1.3.447,2.532.48,3.133a.131.131,0,0,1-.124.133Z" fill="#f7bec1"/>
    <path id="Trazado_7123" data-name="Trazado 7123" d="M1106.327,973.113c-.021.046-.045.092-.066.143-.054.127-.116.258-.178.391-.912,1.972-2.163,4.675-1.894,12.562.12,3.461.456,6.256.787,8.954a54.526,54.526,0,0,1,.353,14.183c-.485,4.131-1.438,11.354-2.366,18.336-1.132,8.569-2.3,17.432-2.586,20.473-.137,1.525-.311,3.174-.493,4.911-.477,4.537-1.015,9.675-1.152,14.457-.162,5.474.253,14.287.394,17.051l-.253-.062c-.145-2.847-.56-11.561-.4-16.993.141-4.794.68-9.941,1.156-14.478.182-1.741.356-3.386.5-4.906.278-3.054,1.455-11.917,2.586-20.487.924-6.986,1.881-14.2,2.358-18.327a53.539,53.539,0,0,0-.348-14.127c-.328-2.7-.667-5.5-.788-8.98-.269-7.943.995-10.677,1.915-12.674a.2.2,0,0,0,.02-.046v-.005c.112-.229.208-.447.3-.66l.157.284Z" fill="#f7bec1"/>
    <path id="Trazado_7124" data-name="Trazado 7124" d="M1122.62,1085.523c-.083,0-.161.012-.249.017-.174-1.128-.451-2.81-.766-4.753-1-6.116-2.507-15.361-2.93-20.114-.654-7.309-1.077-18.812-.953-22.757.046-1.446.054-4.263.071-7.524.029-5.971.066-13.4.31-17.255.1-1.475.183-3.141.278-4.9.3-5.515.642-11.771,1.314-16.7.849-6.251,1.707-14.717,1.583-16.679a12.827,12.827,0,0,0-.349-2.159c-.012-.046-.02-.092-.033-.138.038-.081.1-.218.166-.4.066.234.124.488.182.752a12.147,12.147,0,0,1,.29,1.926c.121,1.982-.737,10.468-1.591,16.734-.667,4.925-1.007,11.172-1.305,16.683-.1,1.765-.191,3.431-.282,4.906-.244,3.841-.277,11.271-.311,17.238-.012,3.261-.024,6.082-.07,7.529-.12,3.94.3,15.431.953,22.728.427,4.744,1.931,13.984,2.93,20.1.327,2.018.6,3.676.762,4.778Z" fill="#f7bec1"/>
    <path id="Trazado_7125" data-name="Trazado 7125" d="M1135.495,996.8a.125.125,0,0,1-.1-.048l-4.243-5.379c-3.3-3.027-5.693-8.5-6.5-10.965a.13.13,0,0,1,.083-.16.131.131,0,0,1,.162.081c.8,2.445,3.17,7.865,6.443,10.872l4.256,5.394a.13.13,0,0,1-.021.178.123.123,0,0,1-.078.027Z" fill="#5e1a47"/>
    <path id="Trazado_7126" data-name="Trazado 7126" d="M1104.081,981.823c-.907-.039-1.06,2.356,0,2.229s1.351-2.17,0-2.229Z" fill="#f7bec1"/>
    <path id="Trazado_7127" data-name="Trazado 7127" d="M1121.046,980.889c-1.592-.264-1.256,1.955,0,2.051s.841-1.91,0-2.051Z" fill="#f7bec1"/>
    <path id="Trazado_7128" data-name="Trazado 7128" d="M1119.16,997.9c-.841-.2-1.417,2.225,0,2.352s1.566-1.973,0-2.352Z" fill="#f7bec1"/>
    <path id="Trazado_7129" data-name="Trazado 7129" d="M1105.167,997.886c-1.231.268-.957,2.878.24,2.684s.987-2.952-.24-2.684Z" fill="#f7bec1"/>
    <path id="Trazado_7130" data-name="Trazado 7130" d="M1104.79,1012.711c-1.425-.009-1.521,2.4-.423,2.656s1.844-2.644.423-2.656Z" fill="#f7bec1"/>
    <path id="Trazado_7131" data-name="Trazado 7131" d="M1118.228,1013.146c-1.417,0-1.388,2.714-.12,2.689s1.52-2.689.12-2.689Z" fill="#f7bec1"/>
    <path id="Trazado_7132" data-name="Trazado 7132" d="M1102.4,1030.955c-1.326,0-1.545,2.441-.356,2.7s1.558-2.7.356-2.7Z" fill="#f7bec1"/>
    <path id="Trazado_7133" data-name="Trazado 7133" d="M1117.913,1032.012c-1.4,0-1.5,2.415-.087,2.606s1.488-2.606.087-2.606Z" fill="#f7bec1"/>
    <path id="Trazado_7134" data-name="Trazado 7134" d="M1112.493,1106.241a.119.119,0,0,1-.037,0,.128.128,0,0,1-.083-.162,37.858,37.858,0,0,0,.485-20.341.129.129,0,0,1,.083-.161.131.131,0,0,1,.157.087,38.138,38.138,0,0,1-.481,20.494.125.125,0,0,1-.124.087Z" fill="#5e1a47"/>
    <path id="Trazado_7135" data-name="Trazado 7135" d="M1149.674,1102.756a.124.124,0,0,1-.124-.107c-.464-3.634-2.138-10.65-4.973-20.847-.12-.419-.2-.717-.244-.87a.131.131,0,0,1,.091-.158.133.133,0,0,1,.158.091c.037.154.12.448.24.866,2.838,10.21,4.516,17.238,4.98,20.884a.125.125,0,0,1-.111.141Z" fill="#5e1a47"/>
    <path id="Trazado_7136" data-name="Trazado 7136" d="M1189.656,932.746a.129.129,0,0,1-.116-.185l4.169-8.088a.125.125,0,0,1,.17-.055.128.128,0,0,1,.058.171l-4.053,7.863,3.241-.551a.127.127,0,0,1,.041.251l-3.489.593Z" fill="#ce6a15"/>
    <path id="Trazado_7137" data-name="Trazado 7137" d="M1190.53,924.277c-.5-.148-1.185,2.287-.555,2.5s1.413-2.244.555-2.5Z" fill="#5e1a47"/>
    <path id="Trazado_7138" data-name="Trazado 7138" d="M1199.369,926.521c.729.129.257,3.049-.763,2.965s.046-3.092.763-2.965Z" fill="#5e1a47"/>
    <path id="Trazado_7139" data-name="Trazado 7139" d="M1204.706,926.788a8.267,8.267,0,0,0-4.276-2.518c-1.231-.12-1.794.818-.709,1.259s4.985,1.259,4.985,1.259Z" fill="#eb5b52"/>
    <path id="Trazado_7140" data-name="Trazado 7140" d="M1189.337,922.117a4.682,4.682,0,0,1,3.85.466c.762.55,1.1,1.321.381,1.677s-1.707-1-2.548-1.423a16.244,16.244,0,0,0-1.683-.72Z" fill="#eb5b52"/>
    <path id="Trazado_7141" data-name="Trazado 7141" d="M1193.24,936.786a3.907,3.907,0,0,1-2.254-.737c-.31-.219-.634-.528-.65-.664a.13.13,0,0,1,.116-.139.126.126,0,0,1,.137.092,3.551,3.551,0,0,0,3.484,1.1.13.13,0,0,1,.154.095.133.133,0,0,1-.1.153,4,4,0,0,1-.891.1Z" fill="#ea5443"/>
    <path id="Trazado_7142" data-name="Trazado 7142" d="M1204.408,934.525a.126.126,0,0,1-.12-.164,6,6,0,0,1,1.35-2.344.123.123,0,0,1,.178.01.129.129,0,0,1-.008.179,5.866,5.866,0,0,0-1.276,2.229.127.127,0,0,1-.124.09Z" fill="#ce6a15"/>
    <path id="Trazado_7143" data-name="Trazado 7143" d="M1200.181,940c-.4.706-.911,1.575-1.471,2.459a13.4,13.4,0,0,1-4.889,1.85c-2.714.006-5.756-3.29-5.756-4.215,0-.224,0-1.741,0-1.974a9.4,9.4,0,0,0,1.243,2.607,3.763,3.763,0,0,0,.928.848,7.326,7.326,0,0,0,5.8.976,6.067,6.067,0,0,0,1.015-.361,13.047,13.047,0,0,0,3.133-2.19Z" fill="#5e1a47"/>
    <path id="Trazado_7144" data-name="Trazado 7144" d="M1172.924,967.65a.2.2,0,0,1-.054.01.139.139,0,0,1-.116-.066,36.862,36.862,0,0,0-3.712-6.184c-.054-.071-.112-.148-.17-.219a32.573,32.573,0,0,0-6.058-5.763c.049-.071.1-.137.153-.208a32.886,32.886,0,0,1,6.029,5.722c.062.072.12.148.174.219a36.405,36.405,0,0,1,3.812,6.317.134.134,0,0,1-.058.172Z" fill="#6b63a9"/>
    <path id="Trazado_7145" data-name="Trazado 7145" d="M1172.986,971.629a.119.119,0,0,1-.074.158.2.2,0,0,1-.042.01.134.134,0,0,1-.124-.086,26.27,26.27,0,0,0-4.852-7.913c-.058-.071-.116-.137-.179-.2a26.732,26.732,0,0,0-6.588-5.417,2.468,2.468,0,0,0,.12-.224,27.224,27.224,0,0,1,6.589,5.387c.058.071.116.137.174.2a26.719,26.719,0,0,1,4.976,8.085Z" fill="#6b63a9"/>
    <path id="Trazado_7146" data-name="Trazado 7146" d="M1168.714,984.156a.124.124,0,0,1-.087.036.118.118,0,0,1-.095-.046.04.04,0,0,1-.013-.015c-.207-.239-3.082-3.593-6.091-7.313-.058-.071-.12-.147-.186-.224-2.147-2.668-4.343-5.5-5.648-7.485.033-.1.066-.2.1-.3,1.272,1.956,3.476,4.807,5.655,7.516l.183.223c2.83,3.507,5.573,6.714,6.1,7.329.058.065.087.1.091.106a.128.128,0,0,1-.008.178Z" fill="#6b63a9"/>
    <path id="Trazado_7147" data-name="Trazado 7147" d="M1168.018,985.823a.134.134,0,0,1-.1.051.152.152,0,0,1-.079-.026.4.4,0,0,1-.042-.03c-.41-.32-4.015-3.156-6.46-5.357-.053-.05-.111-.1-.165-.157s-.137-.122-.2-.183a32.763,32.763,0,0,1-5.6-7.048c.034-.112.067-.224.1-.336a32.256,32.256,0,0,0,5.6,7.115c.066.071.133.132.2.193.087.081.166.152.249.229,2.353,2.124,5.792,4.832,6.393,5.295.054.051.087.071.091.076a.125.125,0,0,1,.021.178Z" fill="#6b63a9"/>
    <path id="Trazado_7148" data-name="Trazado 7148" d="M1164.91,996.729a18.785,18.785,0,0,0-6.252-.005c-.125.009-.241.025-.361.035-.087.01-.17.015-.257.025-1.359.133-2.805.26-4.284.26-.672,0-1.351-.026-2.031-.087-.012-.086-.021-.178-.033-.264a33.249,33.249,0,0,0,6.323-.158h0c.087-.01.17-.02.249-.025h.008c.121-.01.236-.025.357-.036a19.2,19.2,0,0,1,6.257-.015v.005c.008.087.012.173.02.265Z" fill="#6b63a9"/>
    <path id="Trazado_7149" data-name="Trazado 7149" d="M1165.258,1000.057a22.311,22.311,0,0,0-6.165,1.055l-.278.075-.244.066-.291.075c-2.026.526-4.413.97-5.672,1.189-.013-.087-.033-.17-.05-.253,1.251-.215,3.638-.658,5.66-1.185l.315-.083.245-.066.248-.066a22.854,22.854,0,0,1,6.2-1.066c.009.086.017.173.033.259Z" fill="#6b63a9"/>
    <path id="Trazado_7150" data-name="Trazado 7150" d="M1166.228,1008.086a21.129,21.129,0,0,0-2.59,1.049c-.642.3-1.289.629-1.968.978-.29.149-.584.3-.887.447-.079.041-.157.083-.236.12a30.1,30.1,0,0,1-4.985,2.043c-.033-.079-.062-.157-.091-.24a30.041,30.041,0,0,0,5.018-2.06c.079-.041.157-.074.236-.116l.829-.422c.684-.348,1.33-.68,1.977-.987a19.936,19.936,0,0,1,2.668-1.065c.008.087.021.166.029.253Z" fill="#6b63a9"/>
    <path id="Trazado_7151" data-name="Trazado 7151" d="M1166.767,1012.2c-.208.12-.427.24-.655.369-1.256.692-2.776,1.533-4.326,2.316-.083.041-.158.083-.232.116a37.545,37.545,0,0,1-4.1,1.811c-.033-.071-.075-.153-.116-.228a39.009,39.009,0,0,0,4.143-1.832c.075-.041.158-.082.233-.12,1.533-.775,3.033-1.6,4.272-2.287.261-.145.509-.286.741-.414.013.095.029.186.038.269Z" fill="#6b63a9"/>
    <path id="Trazado_7152" data-name="Trazado 7152" d="M1220.767,972.747a24.862,24.862,0,0,1-6.365,3.192c-.079.03-.161.061-.236.086-1.674.595-2.959.935-3.087.966a.06.06,0,0,1-.029,0,.118.118,0,0,1-.12-.1.117.117,0,0,1,.091-.152c.033-.01,1.351-.361,3.087-.981.079-.026.157-.056.24-.086a24.684,24.684,0,0,0,6.332-3.187c.029.082.058.168.087.254Z" fill="#6b63a9"/>
    <path id="Trazado_7153" data-name="Trazado 7153" d="M1221.736,975.629a29.338,29.338,0,0,1-6.414,4.624l-.236.122a10.412,10.412,0,0,1-4.38,1.322h-.062a.127.127,0,1,1,0-.254h.062a10.268,10.268,0,0,0,4.326-1.307c.083-.041.157-.081.236-.122a28.258,28.258,0,0,0,6.39-4.634c.029.081.054.162.078.249Z" fill="#6b63a9"/>
    <path id="Trazado_7154" data-name="Trazado 7154" d="M1224.343,986.5a48.922,48.922,0,0,1-4.973,2.815c-.534.244-1.065.513-1.578.773-.158.081-.315.162-.473.238-.074.041-.157.077-.232.123a10.389,10.389,0,0,1-4.616,1.371,6.429,6.429,0,0,1-.866-.06c-.025-.092-.058-.179-.087-.27a9.007,9.007,0,0,0,5.52-1.306c.078-.035.157-.076.236-.112.136-.071.269-.137.406-.208.514-.265,1.044-.533,1.583-.783a48.425,48.425,0,0,0,5.034-2.851c.017.092.033.183.046.27Z" fill="#6b63a9"/>
    <path id="Trazado_7155" data-name="Trazado 7155" d="M1224.915,990.061a25.386,25.386,0,0,1-7.111,3.054,2.045,2.045,0,0,1-.248.062.471.471,0,0,1-.071.019c-1.106.26-1.918.494-2.573.682a8.2,8.2,0,0,1-2.242.457c-.087,0-.17-.005-.257-.01-.025-.086-.054-.173-.083-.259a6.593,6.593,0,0,0,2.511-.432c.655-.189,1.48-.422,2.582-.687.029-.005.062-.015.091-.019.087-.021.166-.041.249-.067a24.954,24.954,0,0,0,7.11-3.079c.013.091.025.182.042.279Z" fill="#6b63a9"/>
    <path id="Trazado_7156" data-name="Trazado 7156" d="M1225.511,1006.889c-.012.091-.033.182-.054.273a17.443,17.443,0,0,1-3.774.406,18.066,18.066,0,0,1-3.009-.252c-.087-.013-.17-.029-.253-.042a16.944,16.944,0,0,1-5.647-2.043c0-.1,0-.2.008-.294a16.573,16.573,0,0,0,5.652,2.084c.083.013.161.029.248.046a17.7,17.7,0,0,0,6.829-.178Z" fill="#6b63a9"/>
    <path id="Trazado_7157" data-name="Trazado 7157" d="M1224.625,1010.291a2.347,2.347,0,0,1-.079.257c-.3.012-.63.02-.97.02a31.9,31.9,0,0,1-5.138-.439c-.079-.016-.166-.025-.249-.041-.6-.108-1.2-.228-1.81-.373a13.845,13.845,0,0,1-3.713-1.434c0-.1,0-.2.008-.294a12.938,12.938,0,0,0,3.767,1.475c.588.145,1.185.265,1.773.373.087.016.174.029.257.045a30.182,30.182,0,0,0,6.154.411Z" fill="#6b63a9"/>
    <path id="Trazado_7158" data-name="Trazado 7158" d="M1210.171,993.613v.26c-.845.04-2.357.1-3.886.1a28.785,28.785,0,0,1-3.2-.142c-.962-.112-1.861-.249-2.822-.391l-.207-.031c-.083-.015-.166-.025-.253-.041-1.558-.233-3.2-.467-5.225-.615-3.427-.249-8.1-.69-12.63-1.118l-.269-.025c-.166-.015-.336-.031-.506-.041-.083-.009-.17-.015-.257-.025a47.383,47.383,0,0,0-12.617.955c.012-.086.016-.177.024-.264a47.394,47.394,0,0,1,12.618-.945c.087.01.17.015.257.025.17.01.34.026.505.041l.27.025c4.525.428,9.2.869,12.625,1.118,2.031.148,3.663.382,5.217.615.087.011.174.026.257.036s.158.026.232.035c.957.148,1.857.28,2.81.4a52.015,52.015,0,0,0,7.06.03Z" fill="#6b63a9"/>
    <path id="Trazado_7159" data-name="Trazado 7159" d="M1210.171,998.8v.295a8.969,8.969,0,0,0-5.622-1.7c-1.529-.081-3.2-.122-4.757-.162-.083,0-.17,0-.253-.005-.158-.006-.315-.006-.468-.011-1.886-.045-3.51-.086-4.434-.167-.961-.087-2.466-.366-3.92-.636-1.272-.234-2.47-.452-3.261-.543-1.024-.112-3.9-.066-6.443-.026h-.22c-.087.005-.174.005-.261.005-1.5.026-2.876.046-3.613.021-1.571-.046-6.634.137-8.785.218,0-.086,0-.167,0-.254,2.155-.081,7.214-.264,8.8-.218.738.025,2.113.005,3.626-.021.083,0,.17,0,.257-.005h.19c2.553-.041,5.441-.086,6.481.031.8.086,2,.309,3.278.543,1.45.27,2.946.544,3.9.63.916.082,2.536.122,4.417.168.157.005.319.005.481.01.082.006.169.006.252.006,1.546.04,3.22.086,4.753.167,2.967.152,3.792.518,5.606,1.657Z" fill="#6b63a9"/>
    <path id="Trazado_7160" data-name="Trazado 7160" d="M1203.082,963.074c-.8-.113-1.48-.21-2-.3-2.722-.462-6.65-1.017-9.319-.509a21.274,21.274,0,0,1-7.951-.317c-2.337-.519-9.721,1.019-11.777,1.762a.127.127,0,0,0,.087.239c2.081-.753,9.427-2.243,11.636-1.753a21.543,21.543,0,0,0,8.055.319c2.627-.5,6.526.051,9.228.51.522.089,1.206.187,2,.3,3.116.444,7.832,1.115,9.179,2.212a.132.132,0,0,0,.082.029.129.129,0,0,0,.1-.047.127.127,0,0,0-.017-.179c-1.405-1.141-6.157-1.819-9.3-2.267Z" fill="#6b63a9"/>
    <path id="Trazado_7161" data-name="Trazado 7161" d="M1198.573,965.938a73.184,73.184,0,0,1,13.43,2.67.119.119,0,0,0,.041.008.127.127,0,0,0,.046-.246,73.41,73.41,0,0,0-13.488-2.685,63.428,63.428,0,0,0-15.584,0,71.911,71.911,0,0,1-10.363.394h-.009a.127.127,0,0,0,0,.254,72.212,72.212,0,0,0,10.409-.4,63.123,63.123,0,0,1,15.522,0Z" fill="#6b63a9"/>
    <path id="Trazado_7162" data-name="Trazado 7162" d="M1170.508,979.87a.131.131,0,0,0,.137.116c2.287-.191,9.858-.879,14.868-1.334a54.136,54.136,0,0,1,14.382.7,40.461,40.461,0,0,1,8.428,2.338,8.639,8.639,0,0,1,2.2,1,.122.122,0,0,0,.12.092.082.082,0,0,0,.033-.005.129.129,0,0,0,.091-.157,7.648,7.648,0,0,0-2.353-1.169,40.808,40.808,0,0,0-8.47-2.351,54.462,54.462,0,0,0-14.457-.7c-5.006.455-12.576,1.143-14.864,1.334a.131.131,0,0,0-.116.137Z" fill="#6b63a9"/>
    <path id="Trazado_7163" data-name="Trazado 7163" d="M1171.022,977.951a.127.127,0,0,0,.153.091c.029-.008,2.822-.73,5.516-1.127.766-.113,1.686-.283,2.664-.463a49.057,49.057,0,0,1,8.242-1.039c2.689,0,6.319.832,10.16,1.713,1.33.305,2.706.62,4.106.917,5.967,1.266,8.607,1.962,8.926,2.12a.128.128,0,0,0,.116-.227c-.4-.2-3.377-.952-8.988-2.142-1.4-.3-2.772-.611-4.1-.916-3.858-.884-7.5-1.719-10.218-1.719a49.263,49.263,0,0,0-8.287,1.043c-.974.18-1.894.349-2.657.461-2.7.4-5.515,1.125-5.54,1.133a.127.127,0,0,0-.091.155Z" fill="#6b63a9"/>
    <path id="Trazado_7164" data-name="Trazado 7164" d="M1191.981,950.255c-.771.056-1.852.229-3.062.442l-.581.107c-.368.066-.75.137-1.139.208-.7.128-1.405.259-2.122.387-.4.071-.886.152-1.429.249s-1.156.2-1.819.314c-.083.011-.166.026-.253.046a79.961,79.961,0,0,0-11.975,2.749.107.107,0,0,1-.046.011.127.127,0,0,1-.045-.244,81.509,81.509,0,0,1,12-2.77c.078-.015.165-.025.248-.041l1.848-.319c.543-.092,1.032-.173,1.434-.244.713-.128,1.421-.259,2.117-.387.369-.066.73-.137,1.078-.2.3-.056.6-.107.874-.158,1.11-.193,2.076-.345,2.8-.4l.079.244Z" fill="#6b63a9"/>
    <path id="Trazado_7165" data-name="Trazado 7165" d="M1192.375,953.363a.126.126,0,0,0,.119.134,57.851,57.851,0,0,1,8.035,1.268,25.824,25.824,0,0,1,6.912,2.384c.46.227.9.441,1.384.657a16.988,16.988,0,0,1,3.4,1.947.131.131,0,0,0,.082.028.115.115,0,0,0,.1-.048.127.127,0,0,0-.017-.179,17.218,17.218,0,0,0-3.456-1.98c-.484-.214-.915-.427-1.371-.653a26.083,26.083,0,0,0-6.974-2.4,58.219,58.219,0,0,0-8.076-1.274.123.123,0,0,0-.132.12Z" fill="#6b63a9"/>
    <path id="Trazado_7166" data-name="Trazado 7166" d="M1193.7,966.912c-.891-.075-.828,1.958,0,1.958s.887-1.883,0-1.958Z" fill="#5e1a47"/>
    <path id="Trazado_7167" data-name="Trazado 7167" d="M1195.031,955.4c-.891-.127-.891,1.4,0,1.461s.886-1.334,0-1.461Z" fill="#5e1a47"/>
    <path id="Trazado_7168" data-name="Trazado 7168" d="M1193.05,980.05a.836.836,0,0,0,0-1.642c-.754-.036-.489,1.811,0,1.642Z" fill="#5e1a47"/>
    <path id="Trazado_7169" data-name="Trazado 7169" d="M1192.743,990.658c1.044.1.7-1.079,0-1.4s-1.334,1.27,0,1.4Z" fill="#5e1a47"/>
    <path id="Trazado_7170" data-name="Trazado 7170" d="M1192.345,1000.187c.9.126.962-1.652.232-1.779s-1.135,1.652-.232,1.779Z" fill="#5e1a47"/>
    <path id="Trazado_7171" data-name="Trazado 7171" d="M1177.432,1011.244a.123.123,0,0,1-.124-.116c-.012-.162-.249-3.933.58-6.033a.121.121,0,0,1,.162-.071.129.129,0,0,1,.074.166c-.808,2.043-.567,5.88-.563,5.921a.129.129,0,0,1-.12.133Z" fill="#5e1a47"/>
    <path id="Trazado_7172" data-name="Trazado 7172" d="M1190.767,1012.23a4.443,4.443,0,0,1-.585-.037c-1.006-.145-1.508-1.094-1.669-3.166a3.665,3.665,0,0,1,.468-2.714,1.809,1.809,0,0,1,1.342-.539,2.49,2.49,0,0,1,2.151,1.164c.12.187.124.245.095.3a.14.14,0,0,1-.112.066.132.132,0,0,1-.128-.116,2.231,2.231,0,0,0-1.993-1.164,1.568,1.568,0,0,0-1.165.456,3.48,3.48,0,0,0-.406,2.523c.154,1.931.589,2.81,1.455,2.934.924.132,2.3-.058,2.461-.9a.123.123,0,0,1,.149-.1.126.126,0,0,1,.1.15c-.166.857-1.252,1.135-2.163,1.135Z" fill="#5e1a47"/>
    <path id="Trazado_7173" data-name="Trazado 7173" d="M1204.432,1010.568h-.008a.126.126,0,0,1-.12-.132,16.3,16.3,0,0,0-.5-4.807.125.125,0,0,1,.074-.162.13.13,0,0,1,.166.075,16.317,16.317,0,0,1,.514,4.906.127.127,0,0,1-.125.12Z" fill="#5e1a47"/>
    <path id="Trazado_7174" data-name="Trazado 7174" d="M1193.473,1011.049l-.891,16.84a.135.135,0,0,1-.125.124h-.008c-.257-.012-2.536-.091-2.863-.978-.3-.787-1.488-14.826-1.355-15.924h.257v.021c-.133.9,1.069,15.1,1.334,15.816.215.576,1.786.771,2.511.8l.887-16.695c.083,0,.17,0,.253-.008Z" fill="#fef6b8"/>
    <path id="Trazado_7175" data-name="Trazado 7175" d="M1182.641,1127.27c-.087-.008-.17-.016-.253-.021-.157-5.084-.692-22.238-.974-27.517-.145-2.652-.567-7.38-1.006-12.378-.6-6.675-1.268-14.237-1.364-17.946-.045-1.707-.224-5.436-.443-10.156-.626-13.26-1.562-33.294-1.024-37.74a.125.125,0,0,1,.141-.108.131.131,0,0,1,.108.145c-.535,4.421.406,24.439,1.032,37.687.215,4.723.393,8.457.439,10.168.1,3.7.771,11.263,1.363,17.93.444,5,.866,9.725,1.007,12.389.286,5.288.825,22.5.974,27.547Z" fill="#fef6b8"/>
    <path id="Trazado_7176" data-name="Trazado 7176" d="M1223.978,1066.823a.132.132,0,0,1-.1-.046c-.547-.68-4.277-9.331-8.594-19.351-4.417-10.247-9.423-21.866-11.843-26.83a.121.121,0,0,1,.058-.166.124.124,0,0,1,.17.058c2.424,4.968,7.43,16.587,11.851,26.839,4.127,9.584,8.03,18.638,8.557,19.288a.124.124,0,0,1-.021.179.114.114,0,0,1-.079.029Z" fill="#fef6b8"/>
    <path id="Trazado_7177" data-name="Trazado 7177" d="M1231.006,1122.306l-.249.017c-.489-5.619-2.258-25.567-3.261-29.167-.646-2.309-.692-6.4-.737-10.36a57.26,57.26,0,0,0-.473-8.618.125.125,0,0,1,.1-.154.127.127,0,0,1,.149.1,56.92,56.92,0,0,1,.476,8.672c.046,3.937.091,8.018.73,10.289,1.01,3.617,2.784,23.611,3.265,29.221Z" fill="#fef6b8"/>
    <path id="Trazado_7178" data-name="Trazado 7178" d="M1224.239,1072.143a.957.957,0,0,1-.489-.095.13.13,0,0,1-.025-.178.125.125,0,0,1,.174-.025,2.271,2.271,0,0,0,1.248-.108,2.907,2.907,0,0,0,1.844-1.7.124.124,0,0,1,.165-.066.125.125,0,0,1,.071.165,3.279,3.279,0,0,1-2.988,2.01Z" fill="#5e1a47"/>
    <path id="Trazado_7179" data-name="Trazado 7179" d="M1177.3,1076.452a3.871,3.871,0,0,1-1.4-.265.127.127,0,1,1,.1-.232c.091.038,2.262.941,3.385-.916a.132.132,0,0,1,.178-.041.127.127,0,0,1,.042.174,2.562,2.562,0,0,1-2.308,1.28Z" fill="#5e1a47"/>
    <path id="Trazado_7180" data-name="Trazado 7180" d="M1192.043,1127.465a.122.122,0,0,1-.124-.124c-.005-.116-.108-11.536-.216-13.036-.049-.663-.116-3.92-.19-7.691-.1-4.939-.224-11.08-.357-13.91,0-.216-.269-21.228-1.38-33.112-1.114-11.905.431-27.9.448-28.057a.128.128,0,0,1,.137-.116.13.13,0,0,1,.116.141c-.017.158-1.558,16.127-.448,28.007,1.111,11.9,1.376,32.917,1.38,33.129.133,2.83.257,8.975.356,13.914.079,3.767.145,7.019.191,7.678.108,1.508.215,12.933.215,13.049a.129.129,0,0,1-.128.128Z" fill="#fef6b8"/>
    <path id="Trazado_7181" data-name="Trazado 7181" d="M1172.6,1027.2a15.181,15.181,0,0,1-4.487-5.379.127.127,0,0,1,.1-.153.124.124,0,0,1,.149.091,15.4,15.4,0,0,0,3.443,4.5c.005,0,.009.005.013.017.24.261.534.6.783.92Z" fill="#eb5b52"/>
    <path id="Trazado_7182" data-name="Trazado 7182" d="M1171.747,1028.456a21.948,21.948,0,0,1-5.229-4.578.13.13,0,0,1,.054-.174.127.127,0,0,1,.17.054,22.455,22.455,0,0,0,3.924,3.675c-.212-.1-.373-.182-.435-.215a7.6,7.6,0,0,1,1.516,1.238Z" fill="#eb5b52"/>
    <path id="Trazado_7183" data-name="Trazado 7183" d="M1168.693,1028.684c-.866-.828-1.943-1.951-3.29-3.381a.127.127,0,0,1,.009-.182.123.123,0,0,1,.174,0c1.023,1.081,1.939,2.047,2.726,2.838-.261-.157-.447-.277-.518-.315a5.819,5.819,0,0,1,.9,1.036Z" fill="#eb5b52"/>
    <path id="Trazado_7184" data-name="Trazado 7184" d="M1183.532,966.649c-.037,2.475-.207,5.778-.485,8.909,0,.086-.008.172-.017.264-.087.971-.186,1.921-.285,2.825-.013.087-.021.173-.034.26-.157,1.346-.327,2.576-.518,3.582-.29,1.54-.642,4.925-1,8.827-.013.087-.017.168-.025.254-.12,1.3-.24,2.653-.356,4.015-.005.086-.017.168-.021.254-.149,1.718-.294,3.441-.431,5.066-.178,2.126-.344,4.061-.485,5.656-.087-.008-.174-.024-.253-.033.141-1.6.3-3.53.481-5.643.137-1.621.282-3.333.427-5.041.012-.086.016-.167.025-.254.12-1.372.24-2.739.356-4.045.012-.086.017-.173.025-.254.365-3.908.717-7.3,1.007-8.853.19-.986.36-2.19.518-3.511.008-.087.016-.173.029-.259.1-.9.194-1.845.281-2.811.005-.086.017-.173.021-.259.27-3.14.448-6.464.485-8.954,0-.234,0-.477,0-.732,0-.086,0-.173,0-.259-.021-1.083-.087-2.292-.2-3.537,0-.087-.016-.173-.02-.259a76.3,76.3,0,0,0-1.372-9.412c-.029-.137-.07-.284-.116-.437-.021-.081-.046-.167-.07-.254a51.989,51.989,0,0,0-2.5-5.971c.087-.02.17-.046.253-.066a50.1,50.1,0,0,1,2.494,6c.029.087.05.168.075.249.041.148.083.29.112.427a75.955,75.955,0,0,1,1.375,9.488,2.558,2.558,0,0,1,.021.259c.108,1.225.174,2.414.195,3.486v.26c0,.269,0,.518,0,.767Z" fill="#dddbef"/>
    <path id="Trazado_7185" data-name="Trazado 7185" d="M1203.405,963.117c-.009.086-.017.168-.029.254-.12.905-.274,1.9-.443,2.917-.009.087-.025.168-.038.254-.534,3.258-1.218,6.668-1.583,8.076a21.993,21.993,0,0,0-.505,2.937c-.013.086-.021.167-.033.254q-.075.685-.137,1.418c-.008.086-.017.172-.021.259-.19,2.378-.273,5.016-.311,7.236-.029,1.987-.116,4.234-.236,6.429-.008.086-.012.173-.016.259-.071,1.225-.154,2.434-.241,3.563,0,.086-.012.172-.02.254-.079.98-.166,1.9-.253,2.708-.228,2.114-.369,4.985-.444,6.916-.078.005-.165.009-.252.017.07-1.931.215-4.827.443-6.958.087-.808.174-1.718.253-2.688,0-.082.012-.168.021-.255.087-1.138.174-2.358.24-3.6,0-.086.008-.167.012-.254.125-2.185.212-4.421.241-6.4.037-2.231.116-4.889.31-7.282.009-.086.017-.167.021-.254.046-.493.091-.971.141-1.428.012-.087.021-.173.029-.254a24.063,24.063,0,0,1,.514-2.942c.36-1.367,1.036-4.793,1.574-8.055.017-.081.029-.163.042-.249.17-1.017.315-2.012.439-2.917a2.492,2.492,0,0,0,.029-.254,19.97,19.97,0,0,0,.265-3.41c-.066-.722-.083-1.789-.095-3.024-.008-.381-.012-.773-.017-1.174,0-.086,0-.173,0-.264-.037-1.586-.1-3.278-.277-4.731.095.061.186.127.277.193.166,1.438.224,3.079.253,4.614,0,.092,0,.178,0,.264,0,.376.013.742.017,1.093.016,1.23.029,2.292.091,3a20.824,20.824,0,0,1-.261,3.471Z" fill="#dddbef"/>
    <path id="Trazado_7186" data-name="Trazado 7186" d="M1218.682,1007.067c0,.083,0,.166-.008.249-.054,1.114-.128,1.9-.2,2.564-.012.087-.02.166-.033.249-.017.141-.033.282-.05.41-.041.3-.074.6-.111.908-.154,1.442-1.215,7.632-1.6,9.866-.078-.058-.153-.12-.236-.178.41-2.337,1.429-8.308,1.583-9.721.029-.307.066-.6.108-.9.012-.136.033-.277.053-.422.005-.079.017-.166.025-.253.083-.667.154-1.442.207-2.561,0-.083.009-.17.013-.253.05-1.11.074-2.544.066-4.483a62.419,62.419,0,0,0-.944-9.361c-.013-.082-.025-.168-.042-.249-.133-.829-.278-1.658-.427-2.48-.016-.092-.037-.179-.049-.265-.373-2.017-.771-3.989-1.14-5.824l-.286-1.428c-.157-.772-.335-1.636-.526-2.556-.017-.081-.033-.157-.054-.239-.273-1.316-.572-2.724-.866-4.111-.021-.086-.041-.173-.058-.259-.232-1.057-.456-2.1-.663-3.069-.957-4.4-1.343-6.211-1.326-6.378a.127.127,0,0,1,.137-.117.131.131,0,0,1,.116.132c0,.218.638,3.176,1.321,6.307.208.96.432,1.992.655,3.039.021.086.033.172.054.259.3,1.372.6,2.769.866,4.075.021.081.033.158.054.239.195.945.381,1.84.539,2.632l.286,1.424c.364,1.809.758,3.765,1.127,5.762.016.086.033.168.045.254.154.839.307,1.688.444,2.536.016.081.029.168.041.254a62.6,62.6,0,0,1,.949,9.423c.012,1.964-.012,3.41-.071,4.529Z" fill="#dddbef"/>
    <path id="Trazado_7187" data-name="Trazado 7187" d="M1170.384,959.108a13.176,13.176,0,0,0-1.214,2.053c-.046.081-.087.162-.128.249-.32.625-.663,1.346-1.032,2.134-.038.087-.075.168-.116.254-1.819,3.929-4.053,9.336-5.362,12.745-.033.092-.071.183-.1.275-.215.564-.4,1.067-.551,1.494l-.29.818q-.156.45-.323.915c-.033.086-.062.173-.091.259-1.529,4.32-3.344,9.676-3.207,12.278.049.93.153,2.322.3,3.928h.008c0,.081.013.163.021.249.124,1.306.286,2.734.481,4.171.012.083.021.17.037.257a49.614,49.614,0,0,0,1.334,6.9c.22.738.406,1.48.576,2.217a2.052,2.052,0,0,1,.058.253c.124.514.232,1.024.344,1.525.2.895.381,1.753.589,2.548.02.087.045.17.07.253a10.738,10.738,0,0,0,1.007,2.644c-.021.012-.037.029-.058.041-.05.029-.1.062-.149.1a10.489,10.489,0,0,1-1.032-2.664c-.025-.079-.046-.162-.071-.249-.215-.808-.4-1.69-.6-2.61-.107-.485-.215-.974-.331-1.463a2.147,2.147,0,0,0-.058-.257c-.17-.75-.361-1.508-.584-2.254a49.317,49.317,0,0,1-1.334-6.916c-.017-.087-.025-.17-.038-.257-.2-1.447-.36-2.9-.493-4.212,0-.081-.012-.167-.021-.249h0c-.153-1.611-.252-3.008-.3-3.943-.145-2.663,1.711-8.111,3.257-12.471.029-.091.058-.183.095-.269.1-.275.2-.544.286-.808l.29-.814c.162-.462.365-1.011.6-1.636.037-.091.074-.183.107-.274,1.322-3.451,3.56-8.827,5.366-12.725.038-.087.079-.173.121-.254.364-.793.712-1.519,1.036-2.15.045-.086.087-.168.124-.249a13.387,13.387,0,0,1,1.189-2,.138.138,0,0,1,.187-.01.134.134,0,0,1,.012.178Z" fill="#dddbef"/>
    <path id="Trazado_7188" data-name="Trazado 7188" d="M1166.92,1013.825a20.627,20.627,0,0,1-4.127,3.705c-.021.012-.037.029-.058.041-.05.029-.1.062-.149.1a18.557,18.557,0,0,1-3.39,1.7c-.149.05-.236.075-.236.075l-.008-.017-1.5-2.614,9.311-4.612.153,1.624Z" fill="#dddbef"/>
    <path id="Trazado_7189" data-name="Trazado 7189" d="M1212.426,1014.99c.169-.067,6.228.646,8.66,4.512l-1.769,3.829a20.349,20.349,0,0,0-7.032-4.322l.141-4.019Z" fill="#dddbef"/>
    <path id="Trazado_7190" data-name="Trazado 7190" d="M1165.495,991.613a.145.145,0,0,1-.05-.01.127.127,0,0,1-.066-.167l5.175-12.261c.025-.06,2.432-6.362,2.37-9.477a28.148,28.148,0,0,0-3.1-11.314.126.126,0,0,1,.054-.172.123.123,0,0,1,.169.055,28.283,28.283,0,0,1,3.129,11.426c.062,3.165-2.287,9.316-2.387,9.577l-5.18,12.265a.124.124,0,0,1-.115.078Z" fill="#5e1a47"/>
    <path id="Trazado_7191" data-name="Trazado 7191" d="M1210.167,987.546h-.008a.127.127,0,0,1-.116-.136c0-.086.68-8.614.994-11.755.071-.681.187-1.566.324-2.592.5-3.761,1.255-9.446.758-14.025a.127.127,0,1,1,.253-.027c.5,4.609-.257,10.312-.759,14.086-.136,1.023-.256,1.906-.323,2.584-.315,3.138-.986,11.663-.994,11.748a.129.129,0,0,1-.129.118Z" fill="#5e1a47"/>
    <path id="Trazado_7192" data-name="Trazado 7192" d="M1190.709,946.51c-.058-.052-.116-.11-.179-.173l-.066-.07c-.041-.043-.079-.087-.12-.134a1.258,1.258,0,0,1-.083-.1c-.037-.042-.07-.085-.108-.128s-.062-.081-.095-.124-.054-.073-.083-.11c-.215-.287-.431-.607-.638-.936a11.764,11.764,0,0,1-1.272-2.483,6.2,6.2,0,0,1-.037-1.017h0l-2.271,2.8-.257.316,3.05,6.924,2.47-3.85-.311-.914Z" fill="#dddbef"/>
    <path id="Trazado_7193" data-name="Trazado 7193" d="M1192.407,961.023c-.107,1.469-.3,3.721-.517,6.327-.5,5.982-1.19,14.174-1.5,19.759-.369,6.571-.51,16.784-.551,20.12-.087,0-.166,0-.253,0,.041-3.324.182-13.548.547-20.14.311-5.585,1-13.782,1.5-19.763.22-2.607.406-4.853.518-6.327a65.949,65.949,0,0,0,.05-10.093l.306.9a64.6,64.6,0,0,1-.1,9.213Z" fill="#5e1a47"/>
    <path id="Trazado_7194" data-name="Trazado 7194" d="M1129.283,1014.8c.133.348.261.692.39,1.036a3.362,3.362,0,0,1-.452.609,1.885,1.885,0,0,1-.543-.145c-.974-3.924-1.757-7.873-2.063-10.048-.51-3.651.891-13.878,1.255-18.7l2.685,3.115s-.7,3.557-1.719,8.253-1.712,10.1.447,15.885Z" fill="#5e1a47"/>
    <path id="Trazado_7195" data-name="Trazado 7195" d="M1144.457,1080.9c-.406.2-2.635,1.317-4.873,2.175-.911-5.117-3.9-21.845-4.964-26.669-1.272-5.718-1.906-27.572-3.771-32.718-.178-.489-.356-1.007-.53-1.545.464-.158.978-.365,1.525-.614a75.439,75.439,0,0,1,3.224,10.612c1.392,6.477,2.283,26.109,2.283,26.109l6.63,20.888s.182.668.476,1.762Z" fill="#5e1a47"/>
    <path id="Trazado_7196" data-name="Trazado 7196" d="M1171.747,988.521c-.377,4.488-.911,12.152-1.193,16.312-1.247-.285-1.985-.476-1.985-.476a70.072,70.072,0,0,1-.435-8.274c0-.086,0-.167,0-.254,0-.452.008-.915.025-1.382.021-.6.066-1.251.137-1.947.012-.086.016-.177.024-.264a121.5,121.5,0,0,1,2.263-12.267c.021-.082.041-.158.062-.234.12-.529.2-.864.216-.94-.092.2-1.069,2.408-2.23,5.077-.033.086-.07.172-.112.259-.2.467-.41.95-.613,1.438-.037.081-.07.168-.108.249a62.255,62.255,0,0,0-3.029,7.953,18.416,18.416,0,0,0,.121,2.688v.005c.008.087.012.173.02.265.083.9.191,1.946.315,3.069.009.086.017.173.033.259.274,2.493.626,5.332.941,7.776.008.087.021.166.029.253.195,1.5.373,2.847.5,3.846.013.095.029.186.038.269.128.974.207,1.558.207,1.558s-.025.029-.054.066c-.091.112-.315.365-.642.709-.485-2.814-1.637-9.551-2.221-13.38-.75-4.924-1.645-8.892.853-13.608s8-15.759,8-15.759c.584,3.943-.626,10.336-1.165,16.734Z" fill="#5e1a47"/>
    <path id="Trazado_7197" data-name="Trazado 7197" d="M1188.55,951.274l3.642-2.276-1.173-1.574-2.47,3.85Z" fill="#5e1a47"/>
    <path id="Trazado_7198" data-name="Trazado 7198" d="M1193.153,949a44.5,44.5,0,0,0,3.9,4.687l-2.709-6.667-1.186,1.98Z" fill="#5e1a47"/>
    <path id="Trazado_7199" data-name="Trazado 7199" d="M1212.782,1004.937c.149-4.173.265-7.746.265-8.117a16.19,16.19,0,0,0-.634-2.495c-.025-.086-.054-.173-.083-.259-.223-.727-.472-1.525-.725-2.307-.025-.092-.058-.179-.087-.27-.692-2.124-1.347-4.071-1.347-4.071v17.445a4.494,4.494,0,0,1-1.226.555c-.365-4.214-.651-10.971-.133-14.752.638-4.645,2.163-13,2.163-13,.029.112.058.239.1.377.853,3.4,3.091,15.4,3.331,18.579.17,2.19-1.048,10.685-1.9,16.192.05-1.421.1-2.975.162-4.533,0-.1,0-.2.008-.294.033-.928.067-1.857.1-2.756,0-.1,0-.2.008-.294Z" fill="#5e1a47"/>
    <path id="Trazado_7200" data-name="Trazado 7200" d="M1190.224,1031.535s.041.071.112.2a1.094,1.094,0,0,1-.017.191l-.095-.394Z" fill="#5e1a47"/>
    <path id="Trazado_7201" data-name="Trazado 7201" d="M1226.091,1122.617l-2.113.133-1.612.1a62.656,62.656,0,0,1-7.454-18.124c-2.88-11.35-2.54-25.588-2.54-25.588l-21.473-46.408c3.365,5.942,18.282,32.274,21.767,38.32,3.937,6.825,1.769,5.47,2.768,10.724s3.36,22.019,5.652,29.3a67.6,67.6,0,0,0,5,11.54Z" fill="#5e1a47"/>
    <path id="Trazado_7202" data-name="Trazado 7202" d="M1200.5,915.531c-2.167,0-7.019-1.209-7.471-4.258a.127.127,0,0,1,.108-.144.126.126,0,0,1,.145.107c.464,3.126,5.855,4.209,7.645,4.021a.128.128,0,0,1,.141.113.126.126,0,0,1-.112.14,4.423,4.423,0,0,1-.456.021Z" fill="#f7bec1"/>
    <path id="Trazado_7203" data-name="Trazado 7203" d="M1186.805,921.609a.122.122,0,0,1-.049-.01.13.13,0,0,1-.071-.165c.058-.139,1.4-3.416,2.839-4.255a.126.126,0,0,1,.174.046.125.125,0,0,1-.046.174c-1.367.794-2.718,4.1-2.731,4.13a.125.125,0,0,1-.116.08Z" fill="#f7bec1"/>
    <path id="Trazado_7204" data-name="Trazado 7204" d="M1206.844,919.957a.124.124,0,0,1-.124-.107,2.2,2.2,0,0,0-1.127-1.643,5.851,5.851,0,0,0-4.608.026.128.128,0,0,1-.166-.071.126.126,0,0,1,.071-.165,6.018,6.018,0,0,1,4.827-.011,2.432,2.432,0,0,1,1.252,1.825.124.124,0,0,1-.1.145Z" fill="#f7bec1"/>
    <path id="Trazado_7205" data-name="Trazado 7205" d="M1204.283,940.475a.126.126,0,0,1-.116-.076,1.519,1.519,0,0,1,.071-1.272,5.452,5.452,0,0,1,3.331-2.463.125.125,0,0,1,.158.085.128.128,0,0,1-.083.159,5.182,5.182,0,0,0-3.174,2.326,1.247,1.247,0,0,0-.071,1.063.125.125,0,0,1-.066.167.113.113,0,0,1-.05.011Z" fill="#f7bec1"/>
    <path id="Trazado_7206" data-name="Trazado 7206" d="M1201.926,945.332h-.017a2.04,2.04,0,0,1-1.417-.8,2.167,2.167,0,0,1-.253-1.776.128.128,0,0,1,.153-.1.124.124,0,0,1,.1.152,1.936,1.936,0,0,0,.211,1.574,1.831,1.831,0,0,0,1.243.7.127.127,0,0,1-.016.253Z" fill="#f7bec1"/>
    <path id="Trazado_7207" data-name="Trazado 7207" d="M1185.057,938.951a.133.133,0,0,1-.116-.071c-.037-.075-.916-1.867.02-2.948a.127.127,0,1,1,.191.167c-.825.954.008,2.651.017,2.668a.125.125,0,0,1-.054.17.141.141,0,0,1-.058.014Z" fill="#f7bec1"/>
    <path id="Trazado_7208" data-name="Trazado 7208" d="M1118.907,949.637c-2.055-1.386-5.175,2.887-3.161,4.411a2.855,2.855,0,0,0,4.313-.932c.626-.974-.219-2.85-1.152-3.479Z" fill="#f49f7f"/>
    <path id="Trazado_7209" data-name="Trazado 7209" d="M1106.456,954.778a27.755,27.755,0,0,1-1.993-4.4c1-1.077,2.328.244,2.933,1.652.58,1.341.344,2.693-.94,2.744Z" fill="#f49f7f"/>
    <path id="Trazado_7210" data-name="Trazado 7210" d="M1200.852,933.254c-2.892-1.943-5.581,2.932-3.381,4.447,2.71,1.864,5.963-2.71,3.381-4.447Z" fill="#f49f7f"/>
    <path id="Trazado_7211" data-name="Trazado 7211" d="M1188.993,933.256a4.035,4.035,0,0,1-1.491,2.724,37.4,37.4,0,0,1-.668-5.529c-.008-.183-.016-.361-.025-.539,1.6-.228,2.321,2.257,2.184,3.344Z" fill="#f49f7f"/>
  </g>
</svg>
