<svg xmlns="http://www.w3.org/2000/svg" width="165.446" height="231.991" viewBox="0 0 165.446 231.991">
  <g id="Grupo_10764" data-name="Grupo 10764" transform="translate(-977.073 -1188.592)">
    <path id="Trazado_7587" data-name="Trazado 7587" d="M1090.175,1242.634s-.14,2.063-.348,5.08c-.008.083-.012.166-.016.249-.456,6.613-1.21,17.5-1.5,21.518-.294,4.176-1.223,17.536-1.749,25.077,0,.087-.008.174-.012.257-.075,1.007-.133,1.906-.187,2.652-.045.6-.079,1.119-.1,1.5-.042.588-.062.92-.062.92s-1.057.045-2.69,0c-.087,0-.17,0-.257,0a55.294,55.294,0,0,1-5.61-.427c-.758-.095-1.45-.215-2.089-.331a24.51,24.51,0,0,1-4.773-1.277c-.062-.708-.249-2.8-.5-5.6v0c-.013-.091-.021-.191-.029-.286-.555-6.083-1.4-15.265-1.906-20.826-.112-1.239-.216-2.291-.286-3.095-.1-1.073-.158-1.695-.158-1.695s-2.461,3.555-5.511,4.74-7.956,1.186-9.058.676a5.851,5.851,0,0,1-2.515-1.819,5.762,5.762,0,0,1-1.044-2.959c-.34-3.422-.763-8.179,3.3-17.71,1.782-4.168,3.866-8.192,5.648-11.407,2.3-4.14,4.1-6.933,4.1-6.933.506,2.2,5.756,9.407,5.756,9.407s1.864-8.043,3.555-8.806,5-2.8,8.3-3.762c0,0-6.013,10.45-5.669,10.28s8.636-4.574,8.636-4.574l5.113,6.907.224.3.327.44,1.11,1.5Z" fill="#6b63a9"/>
    <path id="Trazado_7588" data-name="Trazado 7588" d="M1137.819,1396.869c-.219,2.192-2.428,5.146-3.029,5.909l-.016.017a1.836,1.836,0,0,1-.133.169s-.012.12-.037.315v.009c-.216,1.64-1.243,9.078-2.333,10.093l-.008.009c-1.086.99-7.509.924-9.419,1.032a1.7,1.7,0,0,0-.526.066c-.381.207-.506-.344-1.268-1.993s-.763-3.05-2.756-5.337-2.2-3.431-2.453-7.115-2.287-29.6-2.8-31.89-3.174-16.259-4.956-22.23-8.639-32.143-8.639-32.143-3.3,44.976-3.174,45.353c.087.257,2.677,17.154,4.338,28.972.025.166.046.323.067.485v0c.787,5.594,1.355,9.949,1.313,10.687a12.014,12.014,0,0,1-1.674,4.379c0,.013-.008.021-.021.034a.137.137,0,0,0-.012.024c-.236.423-.456.792-.642,1.086-.27.439-.448.705-.448.705s2.035,6.352,1.525,6.986c-.344.431-1.637,1.156-4.061,1.6a25.983,25.983,0,0,1-4.2.39,24.293,24.293,0,0,1-5.544-.539,14.4,14.4,0,0,1-2.839-.887l-.51-7.935s-.534-.621-1.226-1.268c-.137-.132-.278-.257-.427-.385a2.333,2.333,0,0,1-.476-.671c-.8-1.509-1.712-5.122-2.275-10.6-.676-6.6-.676-25.744-.676-25.744s-4.574-18.294-4.574-30.663c0-8.229.3-18.7.853-27.34,0-.108.009-.216.021-.315.166-2.557.348-4.948.559-7.061.067-.679.133-1.33.2-1.951.639.116,1.331.236,2.089.331a52.931,52.931,0,0,0,5.279.414c.095.009.186.009.273.013,1.811.05,3.005,0,3.005,0s.02-.332.062-.92c.294-.05.766-.12,1.4-.186a32.292,32.292,0,0,1,3.41-.166c1.326,0,2.424.074,3.274.153-.013.717-.013,1.14-.013,1.14a60.31,60.31,0,0,0,11.772.907,51.163,51.163,0,0,0,5.462-.592c.091-.013.182-.025.269-.042h0c2.134-.34,4.094-.738,5.4-1.015,1.023-.228,1.657-.381,1.657-.381l.593,1.123s.053.041.161.111c1.3,5.578,4.782,20.636,5.635,26.586,1.065,7.372,1.484,23,1.484,23s5.594,12.324,7.127,19.948,4.181,24.771,3.928,27.315Z" fill="#eb5b52"/>
    <path id="Trazado_7589" data-name="Trazado 7589" d="M1087.656,1298.785l-1.094,1.777a19.554,19.554,0,0,1-3.369,1.019,23.451,23.451,0,0,1-7.844-.5c.067-.679.133-1.33.2-1.951.639.116,1.331.236,2.089.331a52.931,52.931,0,0,0,5.279.414c.095.009.186.009.273.013,1.811.05,3.005,0,3.005,0s.02-.332.062-.92c.294-.05.766-.12,1.4-.186Z" fill="#5e1a47"/>
    <path id="Trazado_7590" data-name="Trazado 7590" d="M1101.993,1399.281a12.014,12.014,0,0,1-1.674,4.379c0,.013-.008.021-.021.034a.137.137,0,0,0-.012.024c-.265-1.553-.709-3.99-1.392-7.611-1.43-7.558-4.993-31.343-5.5-35.532s6.054-46.795,6.054-46.795-3.3,44.976-3.174,45.353c.087.257,2.677,17.154,4.338,28.972.025.166.046.323.067.485v0c.787,5.594,1.355,9.949,1.313,10.687Z" fill="#5e1a47"/>
    <path id="Trazado_7591" data-name="Trazado 7591" d="M1026.019,1248.029a14.783,14.783,0,0,1,1.144,3.5c.447,2.159-.572,5.337-1.21,6.8-.091.215-.195.472-.29.754-.373,1.019-.767,2.362-1.007,3.2-3.319.688-9.087,1.889-12.68,2.714-4.835,1.11-11.233,3.5-13.081,4.674l0,.008h0a.3.3,0,0,0-.067.042c-.008.008-.025.012-.029.016l-.377-.161-.6-.257-3.087-6.982-.087-.2s-.957-.195-2.71-2.42a6.993,6.993,0,0,1-1.3-5.014,11.733,11.733,0,0,0-4.574-2.668c-2.66-.763-8.13-.634-8.13-.634s-.008-.029-.025-.083c-.2-.609-1.417-4.649-.481-7.985a14.751,14.751,0,0,1,8.516-10.1c5.337-2.35,12.571-3.937,15.393-4.616.129.638,6.908.638,7.119.149,2.047.452,8.789,1.786,10.28,2.126,1.989.451,5.831,1.131,7.223,3.232a70.61,70.61,0,0,1,3.708,7.454c.336.758.552,1.252.552,1.252a16.238,16.238,0,0,0-4.194,5.2Z" fill="#fdc954"/>
    <path id="Trazado_7592" data-name="Trazado 7592" d="M998.9,1269.667v.008h-.008l-.473-.1-.6-.257-3.087-6.982a7.561,7.561,0,0,0,.949.389,8.384,8.384,0,0,0,1.5.377c.908,1.442,1.683,6.361,1.716,6.568Z" fill="#fef6b8"/>
    <path id="Trazado_7593" data-name="Trazado 7593" d="M990.7,1252.985l-.067,1.719a11.733,11.733,0,0,0-4.574-2.668c-2.66-.763-8.13-.634-8.13-.634s-.008-.029-.025-.083a21.741,21.741,0,0,1,4.707-.249,53.152,53.152,0,0,1,6.27,1.471l-1.1-3.389a43.136,43.136,0,0,1,2.922,3.833Z" fill="#fef6b8"/>
    <path id="Trazado_7594" data-name="Trazado 7594" d="M1083.193,1299.891a17.2,17.2,0,0,1-4.545,6.033c-1.107.791-2.656,1.778-3.879,2.536,0-.108.009-.216.021-.315,1.2-.742,2.656-1.674,3.709-2.432a16.739,16.739,0,0,0,4.421-5.835c.095.009.186.009.273.013Z" fill="#5e1a47"/>
    <path id="Trazado_7595" data-name="Trazado 7595" d="M1120.453,1306.26a.126.126,0,0,1-.124.112h-.017c-4.491-.527-6.679-2.507-8.751-6.145.091-.013.182-.025.269-.042h0c2.018,3.514,4.165,5.424,8.507,5.93a.125.125,0,0,1,.112.145Z" fill="#5e1a47"/>
    <path id="Trazado_7596" data-name="Trazado 7596" d="M1038.852,1273.885a11.321,11.321,0,0,1-4.115,1.488,62.256,62.256,0,0,1-6.244,1.023c-1.935.1-7.885.357-12.2.091a48.135,48.135,0,0,1-11.623-2.473,23.812,23.812,0,0,0-4.235-.763,18.311,18.311,0,0,0-1.62-3.534c1.732-1.152,8.242-3.6,13.156-4.724,3.593-.825,9.361-2.026,12.68-2.714.874-.182,1.583-.323,2.026-.415.348-.07.539-.111.539-.111l-1.558-2.673c.1-.282.2-.539.29-.754.638-1.463,1.657-4.641,1.21-6.8a14.783,14.783,0,0,0-1.144-3.5,16.238,16.238,0,0,1,4.194-5.2s-.2-.477-.531-1.21c.4.812,6.837,13.881,7.33,14.929.506,1.078,3.361,5.205,3.87,8.254s-.824,8.006-2.03,9.083Z" fill="#f8be90"/>
    <path id="Trazado_7597" data-name="Trazado 7597" d="M1028.493,1276.4c-1.939.1-7.89.357-12.2.1a48.468,48.468,0,0,1-11.623-2.478,24.232,24.232,0,0,0-4.235-.763,18.311,18.311,0,0,0-1.62-3.534c-.008.008-.025.012-.033.02l-.974-.422-3.174-7.181s-.953-.191-2.71-2.412a6.989,6.989,0,0,1-1.292-5.018,11.829,11.829,0,0,0-4.575-2.668c-2.669-.763-8.13-.634-8.13-.634.381,1.458,6.033,17.532,7.3,21.659s4.575,7.877,7.306,8.892c.406.153.9.311,1.458.464,3.17.866,8.76,1.629,17.026.87a38.029,38.029,0,0,0,13.339-3.729,16.864,16.864,0,0,0,4.765-3.195s-.232.017-.638.033Z" fill="#f8be90"/>
    <path id="Trazado_7598" data-name="Trazado 7598" d="M1024.366,1279.558v9.957s-8.7,4.384-17.4,3.742a89.844,89.844,0,0,1-13.4-1.778,52.775,52.775,0,0,0,1.711-6.157,2.639,2.639,0,0,0-.2-.912,10.557,10.557,0,0,0-1.073-2c3.17.87,8.768,1.633,17.03.874a38.651,38.651,0,0,0,6.332-1.119l.008,0a36.526,36.526,0,0,0,7-2.606Z" fill="#f8be90"/>
    <path id="Trazado_7599" data-name="Trazado 7599" d="M993.313,1409.743h0c-.2.759-.455,4.741-.455,4.741l3.136.932.763-2.035s3.555,2.375,4.487,2.88,9.062.763,9.062.763l-4.209-4.558a26.056,26.056,0,0,1-4.77-.522,75.385,75.385,0,0,1-8.014-2.2Z" fill="#5e1a47"/>
    <path id="Trazado_7600" data-name="Trazado 7600" d="M1015.668,1409.826a14.181,14.181,0,0,0,.228,6.522h1.7l.932-2.962s3.9,3.555,4.575,3.638,9.994,0,9.994,0l-2.884-2.685a40.312,40.312,0,0,1-7.79-1.38,27.851,27.851,0,0,1-6.75-3.133Z" fill="#5e1a47"/>
    <path id="Trazado_7601" data-name="Trazado 7601" d="M1041.9,1353.841c0,3.22-2.118,15.585-2.963,20.582s-6.182,40.065-6.182,40.065-1.011-.017-2.549-.149a40.941,40.941,0,0,1-7.786-1.376,27.883,27.883,0,0,1-6.746-3.137c-.953-.6-1.553-1.056-1.694-1.16h0a.056.056,0,0,0-.025-.025,41.305,41.305,0,0,1,1.1-9.066c1.1-4.144,3.812-18.717,6.775-26.337s6.1-14.569,6.1-14.569-2.121-6.013-6.265-14.739c-3.476-7.3-7.309-18.278-8.461-21.663-.021-.058-.038-.1-.054-.141l-.3-.891s-1.948,16.852-2.371,22.612-1.777,25.069-2.03,33.543.423,34.889.423,34.889a14.614,14.614,0,0,1-2.772.183,25.9,25.9,0,0,1-4.766-.518,75.138,75.138,0,0,1-8.018-2.2c-.223-.07-.439-.141-.642-.211-1.127-.377-1.844-.63-1.844-.63s-.762-12.878-.253-29.565,6.987-24.9,7.239-26.424a.371.371,0,0,0,0-.07c0-2.134-9.368-27.829-9.464-40.538a44.911,44.911,0,0,1,2.88-15.783.061.061,0,0,1,.008-.029,31.508,31.508,0,0,1,2.209-4.819,2.078,2.078,0,0,1,.112-.191s.066.017.2.046c.671.153,3.021.65,6.895,1.123.087.012.166.02.253.033,1.728.207,3.746.41,6.05.576a26.692,26.692,0,0,0,4.574-.075c.083-.008.166-.02.249-.025a38.383,38.383,0,0,0,7.04-1.5c.083-.024.157-.049.24-.074a38.919,38.919,0,0,0,5.3-2.068v-.356c.8,2.25,2.855,8.121,4.628,13.463.038.1.075.211.108.319.982,2.971,1.873,5.751,2.378,7.62,1.7,6.182,10.418,40.061,10.418,43.28Z" fill="#9f99cb"/>
    <path id="Trazado_7602" data-name="Trazado 7602" d="M1011.491,1288.624c.68,0,1.1,2.37,0,2.457s-.675-2.457,0-2.457Z" fill="#f49f7f"/>
    <path id="Trazado_7603" data-name="Trazado 7603" d="M1096.975,1201.263a15.61,15.61,0,0,0-1.918-6.4c-1.219-1.844-3.991-5.085-7.865-5.466s-9.34.448-10.865,2.35c-1.421,1.781-3.124,5.337-2.565,6.468a.7.7,0,0,0,.154.2,13.46,13.46,0,0,0,1.525-1.716c.634-.886.886-.571,1.143-.124s2.221,1.4,4.509,1.015,4.574-2.921,4.827-3.049,2.731,1.462,4.322,3.049a8.815,8.815,0,0,1,2.664,4.956c.572,2.283,1.144,6.286,1.144,6.286l2.416-3.936a5.982,5.982,0,0,0,.3-.875,7.286,7.286,0,0,0,.211-2.764Z" fill="#5e1a47"/>
    <path id="Trazado_7604" data-name="Trazado 7604" d="M1093.859,1224.211s-1.778,2.54-2.793,2.8a8.544,8.544,0,0,1-3.812,0,1.131,1.131,0,0,1-.443-.435,20.04,20.04,0,0,1-1.1-2.424c-.079-.207-.174-.431-.278-.659a9.644,9.644,0,0,0,3.158-1.5c2.109-1.463,4.491-6.331,5.15-7.744-.033.779-.079,1.665-.124,2.56-.112,2.462-.236,4.969-.265,5.308a3.323,3.323,0,0,0,.165,1.09c.15.535.34,1.007.34,1.007Z" fill="#f8be90"/>
    <path id="Trazado_7605" data-name="Trazado 7605" d="M1097.419,1211.759c-1.844,2.288-3.494,2.1-3.494,2.1l-.182.386c-.659,1.413-3.041,6.281-5.15,7.744a9.644,9.644,0,0,1-3.158,1.5,8.412,8.412,0,0,1-5.3-.547,9.658,9.658,0,0,1-4.911-5.005,21.6,21.6,0,0,1-1.578-4.654q-.162-.714-.274-1.429a35.5,35.5,0,0,1,.539-13.434,13.46,13.46,0,0,0,1.525-1.716c.634-.886.886-.571,1.143-.124s2.221,1.392,4.5,1.015,4.575-2.925,4.832-3.045,2.731,1.458,4.318,3.045a8.815,8.815,0,0,1,2.672,4.952c.568,2.287,1.14,6.29,1.14,6.29l2.42-3.936a7.1,7.1,0,0,0,.294-.875,2.145,2.145,0,0,1,1.8,1.256c.568,1.015.7,4.193-1.143,6.476Z" fill="#f8be90"/>
    <path id="Trazado_7606" data-name="Trazado 7606" d="M1096.428,1234.384c-.066.008-.128.021-.19.029.062-.008.128-.021.19-.029Z" fill="#f8be90"/>
    <path id="Trazado_7607" data-name="Trazado 7607" d="M1097.224,1234.313c-.162.009-.319.017-.468.033.149-.016.306-.024.468-.033Z" fill="#f8be90"/>
    <path id="Trazado_7608" data-name="Trazado 7608" d="M1095.57,1234.537a.855.855,0,0,0-.116.029c.034-.008.075-.021.116-.029Z" fill="#f8be90"/>
    <path id="Trazado_7609" data-name="Trazado 7609" d="M1095.189,1234.632l-.049.013.049-.013Z" fill="#f8be90"/>
    <path id="Trazado_7610" data-name="Trazado 7610" d="M1096.163,1234.425c-.12.017-.236.037-.34.058.1-.021.22-.041.34-.058Z" fill="#f8be90"/>
    <path id="Trazado_7611" data-name="Trazado 7611" d="M1095.782,1234.492c-.05.012-.1.02-.145.029.045-.009.1-.017.145-.029Z" fill="#f8be90"/>
    <path id="Trazado_7612" data-name="Trazado 7612" d="M1096.735,1234.351c-.075,0-.141.012-.211.02.07-.008.14-.016.211-.02Z" fill="#f8be90"/>
    <path id="Trazado_7613" data-name="Trazado 7613" d="M1095.388,1234.579c-.054.016-.1.029-.141.037.042-.008.087-.021.141-.037Z" fill="#f8be90"/>
    <path id="Trazado_7614" data-name="Trazado 7614" d="M1097.725,1234.3c.071,0,.145,0,.22,0-.075,0-.149,0-.22,0Z" fill="#f8be90"/>
    <path id="Trazado_7615" data-name="Trazado 7615" d="M1098.285,1234.313Z" fill="#f8be90"/>
    <path id="Trazado_7616" data-name="Trazado 7616" d="M1095.1,1234.657a.162.162,0,0,1-.025.009.085.085,0,0,0,.025-.009Z" fill="#f8be90"/>
    <path id="Trazado_7617" data-name="Trazado 7617" d="M1097.572,1234.3c-.075,0-.149,0-.22,0,.071,0,.145,0,.22,0Z" fill="#f8be90"/>
    <path id="Trazado_7618" data-name="Trazado 7618" d="M1096.524,1234.371l-.1.013.1-.013Z" fill="#f8be90"/>
    <path id="Trazado_7619" data-name="Trazado 7619" d="M1096.756,1234.346c-.009,0-.017,0-.021.005s.012-.005.021-.005Z" fill="#f8be90"/>
    <path id="Trazado_7620" data-name="Trazado 7620" d="M1097.352,1234.305c-.045,0-.087,0-.128.008.041,0,.083-.008.128-.008Z" fill="#f8be90"/>
    <path id="Trazado_7621" data-name="Trazado 7621" d="M1098.28,1234.313c-.111-.008-.223-.012-.335-.012.112,0,.224,0,.335.012Z" fill="#f8be90"/>
    <path id="Trazado_7622" data-name="Trazado 7622" d="M1095.247,1234.616a.37.37,0,0,1-.058.016.37.37,0,0,0,.058-.016Z" fill="#f8be90"/>
    <path id="Trazado_7623" data-name="Trazado 7623" d="M1095.14,1234.645a.394.394,0,0,1-.038.012c.009,0,.025-.008.038-.012Z" fill="#f8be90"/>
    <path id="Trazado_7624" data-name="Trazado 7624" d="M1095.077,1234.666l-.02.008.02-.008Z" fill="#f8be90"/>
    <path id="Trazado_7625" data-name="Trazado 7625" d="M1097.572,1234.3c.05,0,.1,0,.153,0-.054,0-.1,0-.153,0Z" fill="#f8be90"/>
    <path id="Trazado_7626" data-name="Trazado 7626" d="M1095.823,1234.483a.15.15,0,0,1-.041.009.15.15,0,0,0,.041-.009Z" fill="#f8be90"/>
    <path id="Trazado_7627" data-name="Trazado 7627" d="M1096.238,1234.413l-.075.012.075-.012Z" fill="#f8be90"/>
    <path id="Trazado_7628" data-name="Trazado 7628" d="M1095.637,1234.521a.4.4,0,0,1-.067.016.4.4,0,0,0,.067-.016Z" fill="#f8be90"/>
    <path id="Trazado_7629" data-name="Trazado 7629" d="M1095.454,1234.566l-.066.013.066-.013Z" fill="#f8be90"/>
    <path id="Trazado_7630" data-name="Trazado 7630" d="M1079.166,1217.4l6.729-1.778a3.529,3.529,0,0,1-2.325,2.71c-1.947.506-4.4-.932-4.4-.932Z" fill="#fff"/>
    <path id="Trazado_7631" data-name="Trazado 7631" d="M1088.762,1203.356c-1.147-.543-3.642-.2-5.386.158s-.987,1.7-.614,1.582,3.485-1.23,4.1-1.4,1.9-.336,1.9-.336Z" fill="#5e1a47"/>
    <path id="Trazado_7632" data-name="Trazado 7632" d="M1073.365,1203.969a5.276,5.276,0,0,1,3.9,0,.826.826,0,0,1,.17,1.355c-.34.253-1.438-.621-2.288-.862s-1.777-.493-1.777-.493Z" fill="#5e1a47"/>
    <path id="Trazado_7633" data-name="Trazado 7633" d="M1074.931,1206.679c.568-.174.551,2.37,0,2.457s-.551-2.287,0-2.457Z" fill="#5e1a47"/>
    <path id="Trazado_7634" data-name="Trazado 7634" d="M1086.919,1413.949c-3.771,1.492-11.039,5.08-10.886,5.619.17.592,5.59.592,10.078,0s8.32-.82,8.946-1.3c.439-.336,1.189-2.752,1.6-4.169a25.1,25.1,0,0,1-4.2.386,24.1,24.1,0,0,1-5.544-.535Z" fill="#5e1a47"/>
    <path id="Trazado_7635" data-name="Trazado 7635" d="M1132.263,1413.39c-1.082.986-7.509.924-9.419,1.032-.062,2.415.385,5.15.617,5.229.257.083,19.057.932,19.057.932l-10.255-7.193Z" fill="#5e1a47"/>
    <path id="Trazado_7636" data-name="Trazado 7636" d="M1086.26,1298.971c.012-.182.029-.394.041-.63-.012.232-.029.448-.041.63Z" fill="#f8be90"/>
    <path id="Trazado_7637" data-name="Trazado 7637" d="M1086.3,1298.341c.017-.2.033-.423.046-.659-.013.236-.029.456-.046.659Z" fill="#f8be90"/>
    <path id="Trazado_7638" data-name="Trazado 7638" d="M1094.352,1297.575h0c0,.455-.012.861-.012,1.2,0-.336.008-.742.012-1.2Z" fill="#f8be90"/>
    <path id="Trazado_7639" data-name="Trazado 7639" d="M1095.057,1234.674s2.585-7.479,1.558-10.1l-3.1-1.368c.15.535.34,1.007.34,1.007s-1.778,2.54-2.793,2.8a8.6,8.6,0,0,1-3.812,0,1.16,1.16,0,0,1-.443-.435l-1.293.651,3.547,13.906,1.11,1.5s-1.437,20.921-1.86,26.847c-.348,4.843-1.542,22.06-1.968,28.2-.013.236-.029.456-.046.659-.012.236-.029.448-.041.63a29.159,29.159,0,0,1,4.806-.352c1.326,0,2.424.07,3.274.153,0-.336.008-.742.012-1.2.062-5.4.261-18.713.7-23.855.556-6.523.46-22.534.46-26.342s-.509-12.029-.455-12.7Z" fill="#fdc954"/>
    <path id="Trazado_7640" data-name="Trazado 7640" d="M1125.28,1324.537c-.567-.153.672-3.381.933-4.036-.079.158-.216.473-.4.875,0,0,0,.012-.008.016-.307.676-.734,1.591-1.161,2.433a.018.018,0,0,1,0,.012c-.617,1.193-1.23,2.233-1.52,2.246-.56.021.1-3.294.339-4.45,0-.013.009-.021.009-.034.049-.227.078-.364.078-.364s-.223.406-.559.986l0,.008c-.874,1.5-2.507,4.14-2.992,3.833-.418-.261.183-2.2.717-3.667.187-.534.365-1,.485-1.3a7.146,7.146,0,0,1-1.2,2.076c-.464.464-.737.236-.6-.75.252-1.782,1.185-7.285.6-7.79s-1.612,1.943-2.208,1.6.9-5.958.513-6.261a23.39,23.39,0,0,0,5.163,2.449,13.75,13.75,0,0,0,5.847.427c.676,4.575-3.389,11.859-4.028,11.689Z" fill="#f8be90"/>
    <path id="Trazado_7641" data-name="Trazado 7641" d="M1125.5,1303.193a30.09,30.09,0,0,1-5.577-2.983h0c-.522,2.391-1.625,9.758-1.625,9.758a23.473,23.473,0,0,0,5.167,2.457,13.787,13.787,0,0,0,5.847.423l2.963-8.639a23.933,23.933,0,0,1-6.775-1.016Z" fill="#9f99cb"/>
    <path id="Trazado_7642" data-name="Trazado 7642" d="M1132.271,1304.209a23.933,23.933,0,0,1-6.775-1.016,29.723,29.723,0,0,1-5.577-2.983c-.108-.075-.208-.141-.274-.187-.108-.07-.161-.111-.161-.111l-.593-1.123a82.138,82.138,0,0,1-12.792,2.03,49.257,49.257,0,0,1-7.011-.257c-.083-.012-.169-.016-.252-.025-2.619-.277-4.509-.625-4.509-.625s0-.423.013-1.14c0-.336.008-.742.012-1.2.013-.846.021-1.878.042-3.046,0-.087,0-.178,0-.265.087-6.328.29-16.264.659-20.544.551-6.527.455-22.534.455-26.346s-.509-12.025-.455-12.7a9.787,9.787,0,0,1,3.232-.357,8,8,0,0,1,1.317.183c.083.016.17.037.253.058.133.037.261.074.394.116,2.548.824,5.092,1.881,5.25,1.947l-4.1-10.342c3.924.878,17.026,4.089,20.117,8.4,3.638,5.084,10.5,25.835,11.942,38.962s-1.189,30.577-1.189,30.577Z" fill="#6b63a9"/>
    <path id="Trazado_7643" data-name="Trazado 7643" d="M1068.579,1240.347l-1.463,6.48c-4.057-1.123-7.073-5.424-8.391-8.954,2.3-4.14,4.1-6.933,4.1-6.933.506,2.2,5.756,9.407,5.756,9.407Z" fill="#9f99cb"/>
    <path id="Trazado_7644" data-name="Trazado 7644" d="M1081.793,1255.761s-.423,12.791-.933,14.656-5.167,4.231-6.522,4.653c-1.085.34-4.5-2.569-5.991-3.928-.266-2.88-.444-4.79-.444-4.79l-.252-10.164s12.53.165,14.142-.427Z" fill="#9f99cb"/>
    <path id="Trazado_7645" data-name="Trazado 7645" d="M1101.865,1255.761l12.7-2.37s.34,3.791.763,7.7.845,7.86.845,7.86-3.9,5.192-4.235,5.192-7.79-4.537-8.213-5.192-1.864-13.189-1.864-13.189Z" fill="#9f99cb"/>
    <path id="Trazado_7646" data-name="Trazado 7646" d="M997.983,1263.1a7.154,7.154,0,0,1-3.41-.853c-3.245-1.434-3.775-4.318-4.061-5.868l-.029-.153a14.718,14.718,0,0,1,.481-5.95.123.123,0,0,1,.161-.075.129.129,0,0,1,.075.166,14.565,14.565,0,0,0-.464,5.813l.025.154c.277,1.5.8,4.3,3.928,5.685a7.042,7.042,0,0,0,3.688.816.123.123,0,0,1,.137.12.126.126,0,0,1-.121.133c-.14.008-.277.012-.41.012Z" fill="#fef6b8"/>
    <path id="Trazado_7647" data-name="Trazado 7647" d="M1024.656,1260.228a.129.129,0,0,1-.091-.038.124.124,0,0,1,0-.178,9.457,9.457,0,0,0,2.473-8.457,16.569,16.569,0,0,0-2.494-5.615.132.132,0,0,1,.046-.178.13.13,0,0,1,.174.046,16.95,16.95,0,0,1,2.523,5.693,9.734,9.734,0,0,1-2.544,8.694.125.125,0,0,1-.087.033Z" fill="#fef6b8"/>
    <path id="Trazado_7648" data-name="Trazado 7648" d="M1023.67,1262.615a.128.128,0,0,1-.029-.253c3.215-.663,5.826-1.049,5.855-1.053a.127.127,0,0,1,.141.108.125.125,0,0,1-.108.145c-.025,0-2.631.39-5.834,1.048a.047.047,0,0,1-.025.005Z" fill="#5e1a47"/>
    <path id="Trazado_7649" data-name="Trazado 7649" d="M1022.634,1276.848c-1.446,0-2.93-.05-4.421-.149a53.954,53.954,0,0,1-13.264-2.466l-.311-.1a27.7,27.7,0,0,0-4.21-.754.129.129,0,0,1-.112-.1,23.428,23.428,0,0,0-1.62-3.439l-.932-.406a.128.128,0,0,1-.067-.17.132.132,0,0,1,.166-.066l.974.426a.1.1,0,0,1,.062.054,27.1,27.1,0,0,1,1.645,3.46,27.491,27.491,0,0,1,4.169.759l.31.095a53.86,53.86,0,0,0,13.206,2.457c6.555.439,12.9-.108,16.96-1.467a.127.127,0,0,1,.162.079.134.134,0,0,1-.083.162,42.312,42.312,0,0,1-12.634,1.628Z" fill="#5e1a47"/>
    <path id="Trazado_7650" data-name="Trazado 7650" d="M1006.532,1283.7h-.141c-8.006-.037-13.078-.783-15.087-2.216a.128.128,0,0,1,.149-.208c1.935,1.384,7.1,2.134,14.938,2.172,7.313.033,15.65-2.561,19.8-5.022a.125.125,0,0,1,.174.045.132.132,0,0,1-.046.174c-4.151,2.461-12.472,5.055-19.785,5.055Z" fill="#5e1a47"/>
    <path id="Trazado_7651" data-name="Trazado 7651" d="M1000.913,1292.681c-.684,2.258-2.544,4.566-4.144,6.377-1.173,1.313-4.173,2.519-6.327,3.257.008-.095.025-.187.033-.286,2.126-.729,5-1.9,6.1-3.141,1.579-1.778,3.406-4.04,4.086-6.24.087.012.166.02.253.033Z" fill="#5e1a47"/>
    <path id="Trazado_7652" data-name="Trazado 7652" d="M1013.145,1307.076a.124.124,0,0,1-.116.137h-.008a.124.124,0,0,1-.129-.112c-.008-.112-.87-9.767-1.355-13.919.083-.008.166-.02.249-.025.493,4.156,1.346,13.811,1.359,13.919Z" fill="#5e1a47"/>
    <path id="Trazado_7653" data-name="Trazado 7653" d="M1029.1,1302.941a26.763,26.763,0,0,1-2.917-1.418c-2.151-1.251-5.263-5.432-7.359-9.866.083-.024.157-.049.24-.074,2.084,4.375,5.138,8.49,7.251,9.721a25.523,25.523,0,0,0,2.677,1.318c.038.1.075.211.108.319Z" fill="#5e1a47"/>
    <path id="Trazado_7654" data-name="Trazado 7654" d="M1005.172,1350.149a3.161,3.161,0,0,1-1.446-.431.125.125,0,0,1-.054-.17.129.129,0,0,1,.174-.053c1.629.853,2.1.082,2.114.049a.128.128,0,0,1,.224.125,1.115,1.115,0,0,1-1.012.48Z" fill="#5e1a47"/>
    <path id="Trazado_7655" data-name="Trazado 7655" d="M1039.3,1354.7a5.1,5.1,0,0,1-1.417-.232.128.128,0,0,1,.079-.244,3.413,3.413,0,0,0,2.267.012.127.127,0,0,1,.174.046.128.128,0,0,1-.042.174,2.089,2.089,0,0,1-1.061.244Z" fill="#5e1a47"/>
    <path id="Trazado_7656" data-name="Trazado 7656" d="M1085.025,1361.739a8.016,8.016,0,0,1-3.373-.924.126.126,0,0,1,.108-.228c3.257,1.546,4.5.618,4.508.609a.126.126,0,0,1,.178.021.129.129,0,0,1-.021.178,2.326,2.326,0,0,1-1.4.344Z" fill="#5e1a47"/>
    <path id="Trazado_7657" data-name="Trazado 7657" d="M1114.656,1357.185a.127.127,0,0,1-.016-.253,15.39,15.39,0,0,0,4.947-1.843.125.125,0,1,1,.128.215,15.238,15.238,0,0,1-5.046,1.881Z" fill="#5e1a47"/>
    <path id="Trazado_7658" data-name="Trazado 7658" d="M1121.261,1392.166a.127.127,0,0,1-.091-.037c-.029-.033-2.934-3.154-5.954-10.542a.126.126,0,1,1,.232-.1c3.008,7.346,5.875,10.433,5.9,10.462a.131.131,0,0,1,0,.183.141.141,0,0,1-.087.033Z" fill="#5e1a47"/>
    <path id="Trazado_7659" data-name="Trazado 7659" d="M1100.68,1388.59v0c-2.147,4.939-6.025,10.641-8.474,12.688a.122.122,0,0,1-.178-.012.129.129,0,0,1,.012-.179c2.5-2.088,6.485-7.993,8.573-12.986.025.166.046.323.067.485Z" fill="#5e1a47"/>
    <path id="Trazado_7660" data-name="Trazado 7660" d="M1089.533,1407.754a.126.126,0,0,1-.12.079.2.2,0,0,1-.046,0,28.573,28.573,0,0,1-7.023-3.97c-.137-.132-.278-.257-.427-.385a2.333,2.333,0,0,1-.476-.671,28.057,28.057,0,0,0,8.018,4.786.129.129,0,0,1,.074.165Z" fill="#5e1a47"/>
    <path id="Trazado_7661" data-name="Trazado 7661" d="M1100.3,1403.694c-.236.431-.46.812-.654,1.11a10.057,10.057,0,0,1-3.323,2.176.209.209,0,0,1-.046.012.128.128,0,0,1-.116-.083.123.123,0,0,1,.07-.162,9.718,9.718,0,0,0,4.069-3.053Z" fill="#5e1a47"/>
    <path id="Trazado_7662" data-name="Trazado 7662" d="M1134.774,1402.8a1.836,1.836,0,0,1-.133.169s-.012.12-.037.315v.009a10.985,10.985,0,0,1-5.362,2.767h-.021a.126.126,0,0,1-.016-.252,11.1,11.1,0,0,0,5.569-3.008Z" fill="#5e1a47"/>
    <path id="Trazado_7663" data-name="Trazado 7663" d="M1123.884,1362.945a.085.085,0,0,1-.029,0,.124.124,0,0,1-.091-.154c.025-.107,2.623-10.885,2.789-15.886a.125.125,0,0,1,.124-.125h0a.133.133,0,0,1,.124.133c-.165,5.026-2.768,15.833-2.8,15.941a.124.124,0,0,1-.124.095Z" fill="#5e1a47"/>
    <path id="Trazado_7664" data-name="Trazado 7664" d="M1120.71,1322.4c.187-.534.365-1,.485-1.3a7.146,7.146,0,0,1-1.2,2.076c1.019-1.836,2.383-4.757,2.325-6.506a.129.129,0,0,1,.124-.132.136.136,0,0,1,.133.124c.049,1.55-.933,3.916-1.865,5.739Z" fill="#5e1a47"/>
    <path id="Trazado_7665" data-name="Trazado 7665" d="M1123.47,1321.6c.049-.227.078-.364.078-.364s-.223.406-.559.986a21.717,21.717,0,0,0,1.111-4.21.126.126,0,0,1,.14-.112.13.13,0,0,1,.112.137,19.2,19.2,0,0,1-.882,3.563Z" fill="#5e1a47"/>
    <path id="Trazado_7666" data-name="Trazado 7666" d="M1126.8,1317.779a24.391,24.391,0,0,1-.986,3.6s0,.012-.008.016c-.307.676-.734,1.591-1.161,2.433a36.433,36.433,0,0,0,1.907-6.087.124.124,0,0,1,.149-.1.119.119,0,0,1,.1.141Z" fill="#5e1a47"/>
    <path id="Trazado_7667" data-name="Trazado 7667" d="M1086.562,1294.558c0,.087-.008.174-.012.257-1.02.054-2.814.137-4.554.137a25.3,25.3,0,0,1-3.526-.187,36.573,36.573,0,0,1-8.188-2.507v0c-.013-.091-.021-.191-.029-.286a36.962,36.962,0,0,0,8.254,2.544,50.906,50.906,0,0,0,8.055.046Z" fill="#5e1a47"/>
    <path id="Trazado_7668" data-name="Trazado 7668" d="M1118.423,1292.938a.134.134,0,0,1-.112.145c-.038,0-3.924.5-6.526.75-1.074.1-2.627.364-4.272.646a57.953,57.953,0,0,1-6.577.879c-.48.016-.9.025-1.28.025-.157,0-.315,0-.464-.005-.087,0-.174,0-.253,0a19.889,19.889,0,0,1-4.545-.845c0-.087,0-.178,0-.265a19.306,19.306,0,0,0,4.545.849c.087,0,.166.013.253.013.506.008,1.057,0,1.732-.021a58.2,58.2,0,0,0,6.543-.883c1.649-.273,3.207-.538,4.293-.642,2.594-.249,6.476-.75,6.514-.754a.128.128,0,0,1,.145.112Z" fill="#5e1a47"/>
    <path id="Trazado_7669" data-name="Trazado 7669" d="M1065.106,1258.09h-.025a.131.131,0,0,1-.1-.15c.029-.153,2.954-15.319,3.472-17.623a.128.128,0,0,1,.249.059c-.518,2.3-3.443,17.461-3.472,17.61a.126.126,0,0,1-.125.1Z" fill="#5e1a47"/>
    <path id="Trazado_7670" data-name="Trazado 7670" d="M1089.827,1247.714c-.008.083-.012.166-.016.249-.51-.038-1.086-.092-1.591-.121a41.737,41.737,0,0,0-5.748,0c-.944.067-2.308.108-3.878.154-2.623.078-5.888.178-9.485.443h-.008a.128.128,0,0,1-.125-.124.123.123,0,0,1,.117-.133c3.6-.265,6.87-.36,9.5-.443,1.566-.046,2.921-.083,3.862-.149a41.99,41.99,0,0,1,5.784,0c.506.033,1.082.078,1.591.124Z" fill="#5e1a47"/>
    <path id="Trazado_7671" data-name="Trazado 7671" d="M1098.111,1248.435a.129.129,0,0,1-.121-.091.126.126,0,0,1,.087-.158c.651-.178,1.231-.348,1.761-.5a18.368,18.368,0,0,1,4.989-.986,32.068,32.068,0,0,0,5.938-.937l.05-.012a12.056,12.056,0,0,1,3.311,0,.131.131,0,0,1,.107.145.124.124,0,0,1-.145.107,11.8,11.8,0,0,0-3.215,0l-.05.009a32.025,32.025,0,0,1-5.991.944,18.186,18.186,0,0,0-4.919.978c-.535.154-1.115.324-1.765.5a.119.119,0,0,1-.037,0Z" fill="#5e1a47"/>
    <path id="Trazado_7672" data-name="Trazado 7672" d="M1119.645,1300.152a.126.126,0,0,1-.108-.062l-.758-1.235a.24.24,0,0,1-.016-.05c-1.024-7.322-2.192-26.747-2.2-26.942l-1.852-15.671a51.933,51.933,0,0,1-.725-8.234,22.379,22.379,0,0,1,2.084-8.175.129.129,0,0,1,.17-.058.128.128,0,0,1,.058.17,22.11,22.11,0,0,0-2.06,8.072,51.672,51.672,0,0,0,.722,8.188l1.86,15.683c.012.2,1.177,19.575,2.2,26.905l.742,1.214a.13.13,0,0,1-.108.195Z" fill="#5e1a47"/>
    <path id="Trazado_7673" data-name="Trazado 7673" d="M1117.814,1288.077a.128.128,0,0,1-.067-.016.125.125,0,0,1-.041-.174c.99-1.616,4.517-4.277,4.666-4.388a.122.122,0,0,1,.178.024.126.126,0,0,1-.025.174c-.037.029-3.638,2.748-4.6,4.322a.127.127,0,0,1-.107.058Z" fill="#5e1a47"/>
    <path id="Trazado_7674" data-name="Trazado 7674" d="M1117.117,1278.659a.169.169,0,0,1-.049-.009.126.126,0,0,1-.067-.169c.154-.344,3.75-8.412,5.358-9.937a.13.13,0,0,1,.183,0,.129.129,0,0,1-.005.178c-1.574,1.492-5.266,9.775-5.3,9.858a.129.129,0,0,1-.117.075Z" fill="#5e1a47"/>
    <path id="Trazado_7675" data-name="Trazado 7675" d="M1116.459,1270.057h-.017a.125.125,0,0,1-.108-.141c.009-.087,1.119-8.495,4.364-12.456a.126.126,0,1,1,.194.161c-3.2,3.908-4.3,12.241-4.3,12.328a.129.129,0,0,1-.128.108Z" fill="#5e1a47"/>
    <path id="Trazado_7676" data-name="Trazado 7676" d="M1099.4,1236.066a15.9,15.9,0,0,0-.986,6.141l.012.472c.112,3.547.291,9.489-.012,14.275a185.382,185.382,0,0,0,.361,24.083c.418,4.127.464,9.8.422,14.089,0,.083,0,.165,0,.252-.025,2.333-.075,4.223-.1,5.184-.083-.012-.169-.016-.252-.025.029-.961.074-2.846.1-5.163,0-.087,0-.174,0-.261.042-4.28-.012-9.936-.422-14.051a185.289,185.289,0,0,1-.361-24.124c.3-4.778.12-10.708.009-14.254l-.009-.473a15.948,15.948,0,0,1,.995-6.219c.136-.452.29-.941.451-1.5.083.016.17.037.253.058-.166.559-.315,1.056-.46,1.512Z" fill="#5e1a47"/>
    <path id="Trazado_7677" data-name="Trazado 7677" d="M1088.738,1240.69c-.411,3.556-.978,8.491-1.231,10.716-.066.568-.182,1.6-.336,2.963-.845,7.471-2.834,24.961-3.054,29.233-.045.953-.1,2.055-.178,3.249-.24,4.3-.555,9.957-.431,13.044-.087,0-.17,0-.257,0-.128-3.066.183-8.532.435-13.057.071-1.189.133-2.3.179-3.24.219-4.285,2.2-21.783,3.054-29.259.157-1.354.273-2.39.335-2.954.253-2.283.85-7.417,1.26-10.989l.224.3Z" fill="#5e1a47"/>
    <path id="Trazado_7678" data-name="Trazado 7678" d="M1077.131,1215.149a.1.1,0,0,1-.066-.021.12.12,0,0,1-.058-.12l1.015-7.794a.128.128,0,0,1,.145-.108.13.13,0,0,1,.108.141l-.982,7.525,1.806-1.152a.125.125,0,0,1,.174.041.123.123,0,0,1-.041.174l-2.03,1.293a.108.108,0,0,1-.071.021Z" fill="#ce6a15"/>
    <path id="Trazado_7679" data-name="Trazado 7679" d="M1095.512,1209.812a.129.129,0,0,1-.041,0,.127.127,0,0,1-.079-.162,8.376,8.376,0,0,1,1.264-2.283.125.125,0,1,1,.195.158,8.4,8.4,0,0,0-1.218,2.208.135.135,0,0,1-.121.083Z" fill="#5e1a47"/>
    <path id="Trazado_7680" data-name="Trazado 7680" d="M1073.05,1221.149c-.427-.012-.746-.025-.746-.025a.844.844,0,0,1,.335.17.8.8,0,0,1,.208.845c-.158.651-2.607.75-3.726.763h-.008c-.327,0-.534,0-.534,0s.107.066.29.182a30.829,30.829,0,0,1,3.978,2.946c1.409,1.359,2.424,4.778-1.388,6.162l-2.88,8.155s-1.579-2.052-3.062-4.447a55.6,55.6,0,0,1-2.694-4.96l2.283-3.721s-2.37-5-1.525-7.284a2.415,2.415,0,0,1,2.71-1.861s-.592-1.6.6-1.736,6.1.8,7.115,1.649c.779.651.907,1.48.505,1.6a.651.651,0,0,1-.493-.087,7.433,7.433,0,0,1,.618.418c.418.3.861.713.721.949-.17.282-1.451.3-2.3.282Z" fill="#f8be90"/>
    <path id="Trazado_7681" data-name="Trazado 7681" d="M1074.633,1219.918a24.54,24.54,0,0,0-6.705-1.636.127.127,0,0,1-.112-.137.129.129,0,0,1,.141-.116,25.647,25.647,0,0,1,6.551,1.558.651.651,0,0,1-.493-.087,7.433,7.433,0,0,1,.618.418Z" fill="#5e1a47"/>
    <path id="Trazado_7682" data-name="Trazado 7682" d="M1072.3,1221.124a.844.844,0,0,1,.335.17,32.72,32.72,0,0,0-4.707-.617l-.211-.021a.126.126,0,0,1-.116-.137.132.132,0,0,1,.137-.12l.215.021a26.821,26.821,0,0,1,5.093.729c-.427-.012-.746-.025-.746-.025Z" fill="#5e1a47"/>
    <path id="Trazado_7683" data-name="Trazado 7683" d="M1068.579,1222.9s.107.066.29.182a16.243,16.243,0,0,1-1.832-.746.137.137,0,0,1-.054-.174.126.126,0,0,1,.166-.058,16.706,16.706,0,0,0,1.964.8c-.327,0-.534,0-.534,0Z" fill="#5e1a47"/>
    <path id="Trazado_7684" data-name="Trazado 7684" d="M1026.682,1261.864c.348-.07.539-.111.539-.111l-1.558-2.673,1.019-2.436,1.9,5.067-1.9.153Z" fill="#5e1a47"/>
    <path id="Trazado_7685" data-name="Trazado 7685" d="M1017.359,1282.168a33.233,33.233,0,0,1-10.185,2.478c-4.836.237-8.934.626-12.1-.236a10.557,10.557,0,0,0-1.073-2c3.17.87,8.768,1.633,17.03.874a38.651,38.651,0,0,0,6.332-1.119Z" fill="#5e1a47"/>
    <path id="Trazado_7686" data-name="Trazado 7686" d="M994,1372.728a158.773,158.773,0,0,0-1.579,26.258c.009,3.005.137,7.252.253,10.542-1.127-.377-1.844-.63-1.844-.63s-.762-12.878-.253-29.565,6.987-24.9,7.239-26.424a.371.371,0,0,0,0-.07c0-2.134-9.368-27.829-9.464-40.538a44.911,44.911,0,0,1,2.88-15.783.061.061,0,0,1,.008-.029c.966-2.292,1.811-4.111,2.209-4.819a2.078,2.078,0,0,1,.112-.191s.066.017.2.046c-.982,6.323-3.4,15.688-2.515,25.3.862,9.328,7.645,36.817,7.645,36.817a100.451,100.451,0,0,0-4.9,19.081Z" fill="#5e1a47"/>
    <path id="Trazado_7687" data-name="Trazado 7687" d="M1031.737,1359.348s-3.344,6.315-7.773,13.72c-3.456,5.784-8.109,26.71-9.986,35.6h0a.056.056,0,0,0-.025-.025,41.305,41.305,0,0,1,1.1-9.066c1.1-4.144,3.812-18.717,6.775-26.337s6.1-14.569,6.1-14.569-2.121-6.013-6.265-14.739c-3.476-7.3-7.309-18.278-8.461-21.663,1.375,3.468,18.538,37.081,18.538,37.081Z" fill="#5e1a47"/>
    <path id="Trazado_7688" data-name="Trazado 7688" d="M1115.332,1261.09c.522,2.66,4.243,12.944,4.661,18.468s-.24,20.4-.24,20.4l-.99-1.152-3.431-37.715Z" fill="#5e1a47"/>
    <path id="Trazado_7689" data-name="Trazado 7689" d="M1090.175,1242.634l-6.708-9.058-.066-.091-.195.1c-1.272.676-8.138,4.318-8.441,4.471-.344.17,5.669-10.28,5.669-10.28a31.983,31.983,0,0,1,4.906-2.59l.551-.617.729,1.674s2.453,10.458,2.826,11.813a45.14,45.14,0,0,1,.729,4.575Z" fill="#9f99cb"/>
    <path id="Trazado_7690" data-name="Trazado 7690" d="M1084.71,1228.363l-1.243,5.213-.066-.091-.195.1,1.259-5.279a.131.131,0,0,1,.154-.1.126.126,0,0,1,.091.153Z" fill="#5e1a47"/>
    <path id="Trazado_7691" data-name="Trazado 7691" d="M1106.112,1236.982l-4.711-10.707-.129-.328-7.753-2.743c1.028,2.627,1.538,11.47,1.538,11.47l.02-.008h.005l.306,7.968,4.119-8.155a6.479,6.479,0,0,1,.75.195c2.623.845,5.855,2.308,5.855,2.308Z" fill="#9f99cb"/>
    <path id="Trazado_7692" data-name="Trazado 7692" d="M1074.765,1238.059l8.582-2.6,6.829,7.177-6.775-9.149-8.635,4.575Z" fill="#5e1a47"/>
    <path id="Trazado_7693" data-name="Trazado 7693" d="M1095.388,1242.634l5.08-6.415,5.644.763s-3.1-1.235-4.247-1.761a11.053,11.053,0,0,0-2.358-.742l-4.119,8.155Z" fill="#5e1a47"/>
    <path id="Trazado_7694" data-name="Trazado 7694" d="M1093.743,1214.246c-.033.779-.079,1.665-.124,2.56a22.26,22.26,0,0,1-4.881,6.4,5.064,5.064,0,0,1-3.025.945c-.079-.207-.174-.431-.278-.659a9.644,9.644,0,0,0,3.158-1.5c2.109-1.463,4.491-6.331,5.15-7.744Z" fill="#5e1a47"/>
    <path id="Trazado_7695" data-name="Trazado 7695" d="M1083.956,1206.257c.567-.174.551,2.37,0,2.457s-.551-2.287,0-2.457Z" fill="#5e1a47"/>
    <path id="Trazado_7696" data-name="Trazado 7696" d="M1089.827,1210.491c-3.306-.725-4.748,5.636-1.089,6.535s3.977-5.9,1.089-6.535Z" fill="#f49f7f"/>
    <path id="Trazado_7697" data-name="Trazado 7697" d="M1075.229,1217.938a21.6,21.6,0,0,1-1.578-4.654q-.162-.714-.274-1.429c2.271.348,3.783,4.67,1.852,6.083Z" fill="#f49f7f"/>
    <path id="Trazado_7698" data-name="Trazado 7698" d="M1016.9,1219.715c.207-2.855.219-5.4.646-6.742a16.335,16.335,0,0,0-1.512-10.156c-3.286.987-6.845,1.865-9.729,2.528a135.918,135.918,0,0,1-15.361,2.412c-1.885,3.58-1.972,8.138-.866,10.467,1.123,2.349,3.684,4.653,3.97,5.863s-1,3.712-2.42,4.815,0,1.487,1.446,1.442,3.829-1.169,5.963-2.4a11.332,11.332,0,0,1,2.506-1.019c-.124-.07-.252-.141-.377-.215-3.261-1.965-4.86-7.256-4.86-7.256a2.7,2.7,0,0,1-3.311-2.088c-.091-.842.879-2.98,2.316-4.467a8.074,8.074,0,0,0,1.878-3.3,43.72,43.72,0,0,0,8.374-1.786,32.185,32.185,0,0,0,6.617-2.825s2.843,4.831,2.843,9.671-2,9.626-4.446,11.938a6.012,6.012,0,0,1-1.455,1.015c2.267,1.417,3.879,2.905,5.656,3.141,1.969.261,3.51-.174,3.021-.568s-2.644-2.254-2.445-3.161a45.192,45.192,0,0,0,1.546-7.306Z" fill="#5e1a47"/>
    <path id="Trazado_7699" data-name="Trazado 7699" d="M1015.014,1214.652a18.141,18.141,0,0,1-.092,1.839,19.828,19.828,0,0,1-1.607,6.034,13.089,13.089,0,0,1-2.739,4.069,6.925,6.925,0,0,1-.539.447,5.439,5.439,0,0,1-.924.568c-2.217,1.1-5.01.738-7.57-.688-.129-.07-.257-.137-.382-.215a8.909,8.909,0,0,1-2.668-2.7,19.009,19.009,0,0,1-2.192-4.558,2.7,2.7,0,0,1-3.311-2.088,3.91,3.91,0,0,1,.456-1.728l.128-.261a10.178,10.178,0,0,1,1.728-2.478,8.055,8.055,0,0,0,1.882-3.3,43.72,43.72,0,0,0,8.374-1.786,32.185,32.185,0,0,0,6.617-2.825s2.843,4.831,2.839,9.667Z" fill="#f8be90"/>
    <path id="Trazado_7700" data-name="Trazado 7700" d="M999.04,1212.186c1.757-1.085,3.932-1.6,5.192-1.127s.688,1.529-.27,1.165-4.922-.038-4.922-.038Z" fill="#5e1a47"/>
    <path id="Trazado_7701" data-name="Trazado 7701" d="M1014.413,1209.642a5.071,5.071,0,0,0-4.111.791c-.733.527-.3,1.389.411,1.132s1.889-.991,2.676-1.322a3.081,3.081,0,0,0,1.024-.6Z" fill="#5e1a47"/>
    <path id="Trazado_7702" data-name="Trazado 7702" d="M1003.051,1213.139c.613-.161.787,2.495.157,2.578s-.994-2.358-.157-2.578Z" fill="#5e1a47"/>
    <path id="Trazado_7703" data-name="Trazado 7703" d="M1012.573,1212.215c-.377.067-.692,2.549.157,2.536s.224-2.6-.157-2.536Z" fill="#5e1a47"/>
    <path id="Trazado_7704" data-name="Trazado 7704" d="M1010.037,1227.041c-.137.423-.294.92-.46,1.4-.12.36-.24.712-.348,1.023a6.911,6.911,0,0,1-.414,1.019c-.311.481-1.488,1.277-4.206,1.277s-4.765-1.616-4.931-2.242c-.133-.5-.261-2.175-.767-4.111-.116-.455-.252-.924-.418-1.4a8.909,8.909,0,0,0,2.668,2.7c.125.078.253.145.382.215,2.56,1.426,5.353,1.79,7.57.688a5.439,5.439,0,0,0,.924-.568Z" fill="#f8be90"/>
    <path id="Trazado_7705" data-name="Trazado 7705" d="M1023.595,1196.685c-.452.961-3.493,4.628-6.431,5.83-.526.207-1.168.427-1.889.642-3.282.986-8.18,1.944-11.064,2.611a134.86,134.86,0,0,1-15.356,2.407,19.246,19.246,0,0,1-5.971-.12c-.6-.191,1.011-.787,2.581-1.479s5.776-3.406,5.776-3.406v-.112c0-.062,0-.149.009-.257.054-1.944.443-11.047,2.942-12.369,2.793-1.492,6.178.9,6.178.9,1.757-3.505,3.311-3.178,5.146-1.591,1.683,1.45,4.335,6.439,4.882,7.55.049.107.082.174.095.2a.061.061,0,0,0,.016.025c.32.364,4.728.7,8.391.1a40.137,40.137,0,0,0,4.695-.928Z" fill="#eb5b52"/>
    <path id="Trazado_7706" data-name="Trazado 7706" d="M1010.509,1197.514c-1.707.567-5.245,1.723-8.643,2.751l-.874.269a69.456,69.456,0,0,1-9.751,2.524c0-.062,0-.149.009-.257a70.168,70.168,0,0,0,9.667-2.511l.878-.27c3.373-1.023,6.883-2.163,8.6-2.734.049.107.082.174.095.2a.061.061,0,0,0,.016.025Z" fill="#5e1a47"/>
    <path id="Trazado_7707" data-name="Trazado 7707" d="M994.693,1217.2a.118.118,0,0,1-.054.017.116.116,0,0,1-.116-.062,16.609,16.609,0,0,0-1.077-1.525l.128-.261a17.748,17.748,0,0,1,1.165,1.653.13.13,0,0,1-.046.178Z" fill="#ce6a15"/>
    <path id="Trazado_7708" data-name="Trazado 7708" d="M1011.732,1220.585a.121.121,0,0,1-.066-.016l-2.98-1.513a.128.128,0,0,1,.116-.227l2.739,1.392c-.335-1.538-1.711-7.828-1.682-8.155a.126.126,0,0,1,.137-.116.132.132,0,0,1,.116.137c-.009.294,1.031,5.15,1.736,8.341a.132.132,0,0,1-.046.128.139.139,0,0,1-.07.029Z" fill="#ce6a15"/>
    <path id="Trazado_7709" data-name="Trazado 7709" d="M1007.485,1223.822a3.988,3.988,0,0,1-2.843-1.065.124.124,0,0,1,0-.178.129.129,0,0,1,.182,0,3.49,3.49,0,0,0,4.484.335.122.122,0,0,1,.174.033.126.126,0,0,1-.033.178,3.981,3.981,0,0,1-1.964.7Z" fill="#ea5443"/>
    <path id="Trazado_7710" data-name="Trazado 7710" d="M1010.037,1227.041c-.137.423-.294.92-.46,1.4a12.66,12.66,0,0,1-4.259.389,10.43,10.43,0,0,1-6.407-3.423c-.116-.455-.252-.924-.418-1.4a8.909,8.909,0,0,0,2.668,2.7c.125.078.253.145.382.215,2.56,1.426,5.353,1.79,7.57.688a5.439,5.439,0,0,0,.924-.568Z" fill="#5e1a47"/>
    <path id="Trazado_7711" data-name="Trazado 7711" d="M998.762,1217.009c-2.2,1.078-.443,6.9,2.98,5.354s.294-6.953-2.98-5.354Z" fill="#f49f7f"/>
    <path id="Trazado_7712" data-name="Trazado 7712" d="M1014.922,1216.491a19.828,19.828,0,0,1-1.607,6.034c-1.794-.754-1.6-6.2,1.607-6.034Z" fill="#f49f7f"/>
    <path id="Trazado_7713" data-name="Trazado 7713" d="M1068.061,1268.047c-.1-1.073-.158-1.695-.158-1.695s-2.461,3.555-5.511,4.74-7.956,1.186-9.058.676a5.851,5.851,0,0,1-2.515-1.819c3.5.422,6.675.1,8.739-.995,2.416-1.292,8.258-15.012,8.258-15.012l.245,14.1Z" fill="#5e1a47"/>
  </g>
</svg>
